<?xml version="1.0" encoding="UTF-8"?>
<svg version="1.1" xmlns="http://www.w3.org/2000/svg" width="512" height="512">
<path d="M0 0 C168.96 0 337.92 0 512 0 C512 168.96 512 337.92 512 512 C343.04 512 174.08 512 0 512 C0 343.04 0 174.08 0 0 Z " fill="#2D6AFF" transform="translate(0,0)"/>
<path d="M0 0 C2.48001619 -0.00706617 4.96002807 -0.01581411 7.44003296 -0.02610779 C13.45188693 -0.04621004 19.46347076 -0.04764887 25.4753307 -0.03948224 C30.36669126 -0.03315647 35.25799681 -0.03434275 40.14935684 -0.04075432 C40.84820638 -0.04165597 41.54705593 -0.04255763 42.26708273 -0.04348661 C43.68725483 -0.045338 45.10742692 -0.04720057 46.52759899 -0.04907417 C59.81534146 -0.06561516 73.10297744 -0.05696534 86.39071347 -0.04008859 C98.51751695 -0.02539794 110.64407252 -0.04001754 122.77084409 -0.06885875 C135.25686205 -0.09833061 147.74276591 -0.10920223 160.22881711 -0.09967655 C161.64408245 -0.09865412 163.05934781 -0.0976595 164.47461319 -0.09669304 C165.17075168 -0.09621665 165.86689016 -0.09574026 166.58412375 -0.09524943 C171.46193831 -0.09309539 176.33964357 -0.10283526 181.21743393 -0.11746407 C187.79875924 -0.13692847 194.37970049 -0.12977668 200.96103287 -0.10526466 C203.36712671 -0.10027892 205.77325593 -0.10368786 208.17932129 -0.11641312 C229.3617376 -0.21952369 247.18492479 3.04545496 263.28564453 18.18188477 C275.15565097 31.10366393 281.77250712 46.51571307 281.72045898 64.06958008 C281.72812538 65.43011253 281.72812538 65.43011253 281.73594666 66.81813049 C281.74974821 69.79101319 281.74889265 72.76366151 281.74658203 75.73657227 C281.75047485 77.82249028 281.75481071 79.90840751 281.75956726 81.99432373 C281.76700975 86.3584653 281.76675302 90.72252595 281.76147461 95.08666992 C281.75569035 100.64879741 281.77259556 106.21059079 281.79581928 111.77266312 C281.81063288 116.0795278 281.81141786 120.3863135 281.80830956 124.69319916 C281.80881919 126.74228322 281.81398893 128.79137214 281.82412148 130.84043121 C281.9165836 152.15641053 278.87217606 170.43269493 263.44580078 186.53344727 C245.50675122 203.72112303 225.58910224 205.00100076 202.13330078 204.72094727 C199.92823181 204.70587181 197.72315285 204.69218848 195.51806641 204.67993164 C190.16019213 204.64972942 184.80372682 204.59096774 179.44580078 204.53344727 C179.44580078 196.28344727 179.44580078 188.03344727 179.44580078 179.53344727 C182.45705078 179.48446289 185.46830078 179.43547852 188.57080078 179.38500977 C191.50655835 179.33090731 194.44223834 179.27363628 197.37792969 179.21606445 C199.40879469 179.17792311 201.43972383 179.14304507 203.47070312 179.11157227 C206.40013459 179.06559786 209.32913011 179.00765836 212.25830078 178.94750977 C213.60722412 178.93018295 213.60722412 178.93018295 214.98339844 178.9125061 C226.27026484 178.65181839 236.52088845 175.61895798 244.82080078 167.65844727 C255.9627117 155.61980307 255.91226826 141.42560892 255.87939453 125.84985352 C255.88396496 123.94375932 255.88927307 122.03766676 255.89527893 120.13157654 C255.90417403 116.15177686 255.90182797 112.17217824 255.8918457 108.19238281 C255.88035791 103.12108065 255.90058324 98.05047503 255.92976284 92.97926426 C255.94820809 89.04729387 255.94781591 85.11548788 255.94212532 81.18348503 C255.94197314 79.31499186 255.94793114 77.44648681 255.96041679 75.57803535 C256.04830493 60.27328308 254.59333051 48.13441058 243.63330078 36.63110352 C237.04717225 30.35038014 228.3731295 26.42170603 219.18931484 26.39922619 C217.9178464 26.39253942 217.9178464 26.39253942 216.62069172 26.38571757 C215.23117309 26.38599411 215.23117309 26.38599411 213.81358337 26.38627625 C212.82562367 26.38259956 211.83766398 26.37892287 210.8197661 26.37513477 C207.49971189 26.36409644 204.17968897 26.3602538 200.85961914 26.35644531 C198.48281759 26.35018072 196.10601702 26.34353393 193.72921753 26.33653259 C186.58950544 26.31730482 179.44979277 26.30670374 172.31006202 26.2978048 C168.94483638 26.2934183 165.5796123 26.28805238 162.21438789 26.28281593 C151.02206594 26.26580451 139.82974496 26.25131187 128.63741207 26.24406719 C125.73410478 26.24215741 122.8307975 26.24023706 119.92749023 26.23828125 C119.20591827 26.23779751 118.4843463 26.23731377 117.74090851 26.23681537 C106.06029834 26.22852076 94.37979076 26.20319312 82.69922536 26.17070057 C70.69718185 26.137587 58.6951904 26.1196145 46.69310099 26.11642295 C39.9583958 26.11426168 33.22384017 26.10556955 26.48917961 26.07996178 C20.1501616 26.05666133 13.81141227 26.05245602 7.47236252 26.06272316 C5.15005029 26.06321816 2.82772474 26.05690839 0.50545311 26.04316711 C-2.67438286 26.02540949 -5.85325861 26.03257405 -9.03309631 26.04570007 C-10.39919237 26.0292462 -10.39919237 26.0292462 -11.79288632 26.01245993 C-23.01730519 26.12369166 -32.30355003 30.36981408 -40.23779297 38.19360352 C-47.86354015 46.54199009 -50.85765919 56.09626573 -50.84472656 67.23168945 C-50.85144379 68.07335663 -50.85816101 68.9150238 -50.86508179 69.78219604 C-50.88398648 72.54829918 -50.88798236 75.31415865 -50.89013672 78.08032227 C-50.89657055 80.01694841 -50.90329934 81.9535736 -50.91030884 83.89019775 C-50.92226329 87.94513195 -50.92599162 91.99998108 -50.92480469 96.05493164 C-50.92460176 101.22730208 -50.95188501 106.39912147 -50.98634911 111.57136154 C-51.00869001 115.57104959 -51.01264001 119.57060661 -51.01158524 123.57035065 C-51.0139311 125.4759638 -51.02269685 127.38158113 -51.03824997 129.28713226 C-51.1698736 143.84384708 -51.1698736 143.84384708 -46.55419922 157.53344727 C-46.17645355 158.27802185 -45.79870789 159.02259644 -45.40951538 159.78973389 C-40.48956399 168.90109626 -32.70585291 174.0166873 -23.2005558 177.51059532 C-16.99763515 179.25059779 -10.88868801 179.23626418 -4.49243164 179.19287109 C-3.03239078 179.20134675 -1.57236122 179.21200104 -0.11235046 179.22463989 C3.80840326 179.2525271 7.7286051 179.25036128 11.64942765 179.24234605 C15.7627591 179.23919894 19.87592144 179.26431932 23.98918152 179.28630066 C31.75904322 179.32359993 39.52872995 179.33588024 47.29867238 179.33892506 C57.81170281 179.3445132 68.32456439 179.38925031 78.83749866 179.43166637 C95.37364183 179.49736273 111.90940993 179.51118557 128.44580078 179.53344727 C128.44580078 145.87344727 128.44580078 112.21344727 128.44580078 77.53344727 C136.69580078 77.53344727 144.94580078 77.53344727 153.44580078 77.53344727 C153.44580078 119.44344727 153.44580078 161.35344727 153.44580078 204.53344727 C109.70357431 204.73496244 109.70357431 204.73496244 91.30908203 204.77758789 C78.63108148 204.8072033 65.95324764 204.84193211 53.27539062 204.91064453 C44.04027564 204.96067361 34.80529651 204.99278411 25.57004976 205.00388974 C20.68558197 205.01037563 15.80150262 205.02548584 10.91716003 205.06209755 C6.30749032 205.09636616 1.69836419 205.10643883 -2.91142082 205.09898567 C-4.5914653 205.10034658 -6.27153046 205.11009353 -7.9514637 205.12947464 C-26.93552793 205.33750525 -44.24134195 200.23487143 -58.39794922 186.87329102 C-69.90102935 174.39078196 -76.70851059 159.45076562 -76.69946289 142.41967773 C-76.7028215 141.51002762 -76.70618011 140.6003775 -76.7096405 139.66316223 C-76.71913026 136.65897246 -76.72109292 133.65483859 -76.72216797 130.65063477 C-76.72538296 128.55420916 -76.72874722 126.45778378 -76.73225403 124.36135864 C-76.73824111 119.96494019 -76.74009446 115.56854138 -76.73950195 111.17211914 C-76.7394006 105.56043275 -76.75302746 99.94887363 -76.77027416 94.33721733 C-76.78143968 90.00470409 -76.78341973 85.67222112 -76.78289223 81.33969498 C-76.78406646 79.27221363 -76.78845673 77.20473134 -76.79622459 75.13726425 C-76.87403957 52.27825353 -73.65054759 35.15878906 -57.49169922 17.90844727 C-51.58502687 12.19570123 -45.14733256 7.76531227 -37.55419922 4.53344727 C-36.77348494 4.19436372 -35.99277065 3.85528017 -35.18839836 3.50592136 C-23.74639035 -0.71025285 -12.03148664 -0.03611732 0 0 Z " fill="#FEFEFF" transform="translate(153.55419921875,153.466552734375)"/>
</svg>
