<svg width="84" height="28" viewBox="0 0 757 250" fill="none" xmlns="http://www.w3.org/2000/svg"><g clip-path="url(#logo_word_svg__a)" fill="#fff"><path d="M287.5 0h-225A62.5 62.5 0 0 0 0 62.5v75A62.5 62.5 0 0 0 62.5 200H225V75h-25v100H62.5A37.502 37.502 0 0 1 25 137.5v-75A37.5 37.5 0 0 1 62.5 25h225A37.502 37.502 0 0 1 325 62.5v75a37.493 37.493 0 0 1-10.983 26.517A37.508 37.508 0 0 1 287.5 175H250v25h37.5a62.5 62.5 0 0 0 62.5-62.5v-75A62.5 62.5 0 0 0 287.5 0ZM478.447 188.25l-53.289-53.267v53.267H400v-176h25.158v101.711l40.716-38.867h33.786l-49.56 49.378L511 188.25h-32.553ZM525 15.25h25v173h-25v-173ZM576 37.25a17 17 0 1 1 17 17 16.957 16.957 0 0 1-15.718-10.487A16.959 16.959 0 0 1 576 37.25Zm4.567 38h25.275v113h-25.275v-113ZM756.391 133.488c0 37.4-26.353 60.988-58.227 60.988-16.564 0-33.878-6.526-41.658-19.828v75.29h-22.6V74.76h22.6v17.568c7.78-13.3 25.847-20.078 41.658-20.078 31.623 0 58.227 23.843 58.227 61.238Zm-24.847 1.239c0-22.086-16.063-38.4-36.392-38.4-19.576 0-38.395 14.808-38.395 38.4s20.325 37.4 38.395 37.4c20.329-.005 36.392-15.315 36.392-37.4Z"></path></g><defs><clipPath id="logo_word_svg__a"><path fill="#fff" d="M0 0h756.392v249.938H0z"></path></clipPath></defs></svg>