<svg width="48" height="40" viewBox="0 0 48 40" fill="none" xmlns="http://www.w3.org/2000/svg" xmlns:xlink="http://www.w3.org/1999/xlink">
<path d="M18.994,30.051C16.261,34.098 11.68,39.22 5.585,39.22C2.704,39.22 -0.066,38.074 -0.066,33.096C-0.067,20.417 17.849,0.791 34.472,0.791C43.928,0.79 47.696,7.129 47.696,14.328C47.696,23.568 41.49,34.134 35.322,34.134C33.364,34.134 32.403,33.095 32.403,31.448C32.403,31.018 32.477,30.553 32.625,30.051C30.519,33.525 26.456,36.749 22.651,36.749C19.881,36.749 18.477,35.066 18.477,32.702C18.477,31.842 18.662,30.947 18.994,30.051ZM31.333,10.539C29.828,10.542 28.802,11.777 28.805,13.539C28.808,15.301 29.839,16.568 31.344,16.565C32.812,16.563 33.837,15.292 33.834,13.53C33.831,11.768 32.801,10.536 31.333,10.539ZM39.314,10.531C37.809,10.533 36.784,11.768 36.787,13.53C36.79,15.292 37.82,16.559 39.325,16.557C40.793,16.554 41.819,15.284 41.815,13.522C41.812,11.76 40.782,10.528 39.314,10.531Z" clip-rule="evenodd" fill-rule="evenodd" fill="#FFFFFF"/>
</svg>
