<svg width="50" height="30" viewBox="0 0 50 30" fill="none" xmlns="http://www.w3.org/2000/svg" xmlns:xlink="http://www.w3.org/1999/xlink">
<path d="M9.637,4.878C17.569,-2.888 30.43,-2.888 38.362,4.878L39.317,5.813C39.713,6.201 39.713,6.831 39.317,7.219L36.051,10.417C35.853,10.611 35.531,10.611 35.333,10.417L34.019,9.131C28.486,3.713 19.514,3.713 13.98,9.131L12.573,10.508C12.375,10.702 12.054,10.702 11.855,10.508L8.59,7.311C8.193,6.922 8.193,6.293 8.59,5.904L9.637,4.878ZM45.116,11.491L48.022,14.337C48.419,14.725 48.419,15.354 48.022,15.743L34.917,28.574C34.52,28.963 33.877,28.963 33.481,28.574L24.179,19.468C24.08,19.37 23.919,19.37 23.82,19.468L14.519,28.574C14.122,28.963 13.479,28.963 13.083,28.574L-0.023,15.743C-0.419,15.354 -0.419,14.725 -0.023,14.336L2.884,11.491C3.28,11.102 3.923,11.102 4.32,11.491L13.621,20.598C13.72,20.695 13.881,20.695 13.98,20.598L23.281,11.491C23.678,11.102 24.321,11.102 24.718,11.491L34.019,20.598C34.118,20.695 34.279,20.695 34.378,20.598L43.679,11.491C44.076,11.103 44.719,11.103 45.116,11.491Z" fill="#3396FF"/>
</svg>
