<svg width="56" height="56" viewBox="0 0 56 56" fill="none" xmlns="http://www.w3.org/2000/svg" xmlns:xlink="http://www.w3.org/1999/xlink">
<path d="M28,56C43.464,56 56,43.464 56,28C56,12.536 43.464,0 28,0C12.536,0 0,12.536 0,28C0,43.464 12.536,56 28,56Z" fill="#627EEA"/>
<path d="M28.872,7.001L28.872,22.523L41.991,28.386L28.872,7.001Z" fill="#FFFFFF" fill-opacity="0.7"/>
<path d="M28.871,7L15.75,28.385L28.871,22.523L28.871,7Z" fill="#FFFFFF"/>
<path d="M28.872,38.445L28.872,48.992L42,30.829L28.872,38.445Z" fill="#FFFFFF" fill-opacity="0.7"/>
<path d="M28.871,48.992L28.871,38.443L15.75,30.829L28.871,48.992Z" fill="#FFFFFF"/>
<path d="M28.872,36.004L41.991,28.386L28.872,22.527L28.872,36.004Z" fill="#FFFFFF" fill-opacity="0.2"/>
<path d="M15.75,28.386L28.871,36.004L28.871,22.527L15.75,28.386Z" fill="#FFFFFF" fill-opacity="0.7"/>
</svg>
