<svg width="42" height="42" viewBox="0 0 42 42" fill="none" xmlns="http://www.w3.org/2000/svg">
<g filter="url(#filter0_d_143_743)">
<path d="M33.3373 17.2686C31.9989 16.2107 32.4284 14.1249 32.4684 12.6578C32.5483 10.9013 31.1 9.45419 29.3421 9.53403C27.8639 9.57395 25.7963 10.0031 24.7276 8.66576C23.579 7.42823 22.3704 5.5919 20.3928 6.08092C18.1954 6.48012 17.3964 9.91328 14.9093 9.64381L12.6421 9.53403C10.8842 9.45419 9.43588 10.9013 9.51579 12.6578C9.55574 14.1349 9.98523 16.2007 8.64683 17.2686L6.96883 18.7956C5.67038 19.9832 5.67038 22.0291 6.96883 23.2167C8.03755 24.2147 9.81543 25.4024 9.61567 27.089L9.5058 29.3545C9.4259 31.111 10.8742 32.5581 12.6321 32.4783L14.8994 32.3685C17.5961 32.099 18.3652 36.131 20.9821 35.9912C22.5702 36.1409 23.7688 34.3346 24.7176 33.3465C25.7764 32.0092 27.8639 32.4383 29.3321 32.4783C31.09 32.5581 32.5383 31.111 32.4584 29.3545C32.4284 28.3066 32.1288 26.4503 32.7181 25.5122C33.9865 23.576 36.8731 22.7676 35.7345 19.8235C35.5047 19.0051 33.8967 17.8774 33.3273 17.2786L33.3373 17.2686Z" fill="#00A3FF"/>
<path d="M27.0049 15.6618C26.6753 15.3325 26.1459 15.3325 25.8163 15.6618L18.9046 22.568C18.8047 22.6678 18.6349 22.6678 18.525 22.568L16.1878 20.2327C15.8582 19.9033 15.3288 19.9033 14.9992 20.2327L14.2301 21.0011C13.9005 21.3305 13.9005 21.8594 14.2301 22.1888L18.1155 26.071C18.4451 26.4004 18.9745 26.4004 19.3041 26.071L27.764 17.6179C28.0936 17.2886 28.0936 16.7596 27.764 16.4303L26.9949 15.6618H27.0049Z" fill="white"/>
</g>
<defs>
<filter id="filter0_d_143_743" x="-0.00500488" y="0" width="42" height="42" filterUnits="userSpaceOnUse" color-interpolation-filters="sRGB">
<feFlood flood-opacity="0" result="BackgroundImageFix"/>
<feColorMatrix in="SourceAlpha" type="matrix" values="0 0 0 0 0 0 0 0 0 0 0 0 0 0 0 0 0 0 127 0" result="hardAlpha"/>
<feOffset/>
<feGaussianBlur stdDeviation="3"/>
<feComposite in2="hardAlpha" operator="out"/>
<feColorMatrix type="matrix" values="0 0 0 0 0 0 0 0 0 0.639216 0 0 0 0 1 0 0 0 0.5 0"/>
<feBlend mode="normal" in2="BackgroundImageFix" result="effect1_dropShadow_143_743"/>
<feBlend mode="normal" in="SourceGraphic" in2="effect1_dropShadow_143_743" result="shape"/>
</filter>
</defs>
</svg>
