<svg width="32" height="32" viewBox="0 0 32 32" fill="none" xmlns="http://www.w3.org/2000/svg">
<g opacity="0.5">
<path fill-rule="evenodd" clip-rule="evenodd" d="M3.35383 13.6C3.04795 13.6 2.79999 13.8479 2.79999 14.1538V16.8C2.79999 22.9856 7.8144 28 14 28C18.7763 28 22.8543 25.0102 24.4646 20.8H26.4C28.3882 20.8 30 19.1882 30 17.2C30 15.2118 28.3882 13.6 26.4 13.6H25.2H20.4H3.35383ZM27.6 17.2C27.6 18.0836 26.8837 18.8 26 18.8C25.1163 18.8 24.4 18.0836 24.4 17.2C24.4 16.3163 25.1163 15.6 26 15.6C26.8837 15.6 27.6 16.3163 27.6 17.2ZM10.4718 17.0084C10.2186 16.7305 9.78135 16.7305 9.52821 17.0084L9.20272 17.3658C9.07479 17.5063 8.89093 17.5825 8.70115 17.5736L8.21826 17.551C7.84274 17.5335 7.5335 17.8427 7.55106 18.2182L7.57362 18.7011C7.58249 18.8909 7.50633 19.0748 7.36587 19.2027L7.00845 19.5282C6.73052 19.7813 6.73052 20.2186 7.00845 20.4718L7.36587 20.7973C7.50633 20.9252 7.58249 21.109 7.57362 21.2988L7.55106 21.7817C7.5335 22.1572 7.84274 22.4665 8.21825 22.4489L8.70115 22.4263C8.89093 22.4175 9.07479 22.4936 9.20272 22.6341L9.52821 22.9915C9.78135 23.2695 10.2186 23.2695 10.4718 22.9915L10.7973 22.6341C10.9252 22.4936 11.1091 22.4175 11.2989 22.4263L11.7817 22.4489C12.1572 22.4665 12.4665 22.1572 12.4489 21.7817L12.4264 21.2988C12.4175 21.109 12.4936 20.9252 12.6341 20.7973L12.9915 20.4718C13.2695 20.2186 13.2695 19.7813 12.9915 19.5282L12.6341 19.2027C12.4936 19.0748 12.4175 18.8909 12.4264 18.7011L12.4489 18.2182C12.4665 17.8427 12.1572 17.5335 11.7817 17.551L11.2989 17.5736C11.1091 17.5825 10.9252 17.5063 10.7973 17.3658L10.4718 17.0084Z" fill="white"/>
<path d="M3.87876 29.4357C3.27078 28.9711 3.59933 28 4.3645 28H23.6355C24.4007 28 24.7292 28.9711 24.1212 29.4357L23.0743 30.2357C22.9348 30.3423 22.7641 30.4 22.5886 30.4H5.41141C5.23585 30.4 5.06517 30.3423 4.92567 30.2357L3.87876 29.4357Z" fill="white"/>
<path d="M9.6 4.79999C9.6 4.79999 8.54005 6.24684 8.8 7.19999C9.0325 8.05251 10.1675 7.94747 10.4 8.79999C10.6599 9.75313 9.6 11.2 9.6 11.2" stroke="white" stroke-width="0.8" stroke-linecap="round"/>
<path d="M14.4 2.39996C14.4 2.39996 13.3918 4.38939 13.639 5.69996C13.8602 6.87218 14.9398 6.72775 15.161 7.89996C15.4082 9.21054 14.4 11.2 14.4 11.2" stroke="white" stroke-width="0.8" stroke-linecap="round"/>
<path d="M19.2 11.2C19.2 11.2 20.2599 9.75313 20 8.79999" stroke="white" stroke-width="0.8" stroke-linecap="round"/>
<path d="M19.3641 1.7042C19.4907 1.56523 19.7093 1.56523 19.8359 1.7042L19.9986 1.88291C20.0626 1.95314 20.1545 1.99122 20.2494 1.98679L20.4909 1.9755C20.6786 1.96673 20.8332 2.12135 20.8245 2.3091L20.8132 2.55055C20.8087 2.64544 20.8468 2.73737 20.9171 2.80133L21.0958 2.96408C21.2347 3.09065 21.2347 3.3093 21.0958 3.43586L20.9171 3.59861C20.8468 3.66257 20.8087 3.7545 20.8132 3.84941L20.8245 4.09085C20.8332 4.2786 20.6786 4.43322 20.4909 4.42445L20.2494 4.41316C20.1545 4.40872 20.0626 4.4468 19.9986 4.51704L19.8359 4.69574C19.7093 4.83472 19.4907 4.83472 19.3641 4.69574L19.2014 4.51704C19.1374 4.4468 19.0455 4.40872 18.9506 4.41316L18.7091 4.42445C18.5214 4.43322 18.3668 4.2786 18.3755 4.09085L18.3868 3.84941C18.3912 3.7545 18.3532 3.66257 18.2829 3.59861L18.1042 3.43586C17.9653 3.3093 17.9653 3.09065 18.1042 2.96408L18.2829 2.80133C18.3532 2.73737 18.3912 2.64544 18.3868 2.55055L18.3755 2.3091C18.3668 2.12135 18.5214 1.96673 18.7091 1.9755L18.9506 1.98679C19.0455 1.99122 19.1374 1.95314 19.2014 1.88291L19.3641 1.7042Z" fill="white"/>
</g>
</svg>
