<svg width="32" height="32" viewBox="0 0 32 32" fill="none" xmlns="http://www.w3.org/2000/svg">
<g opacity="0.5">
<path fill-rule="evenodd" clip-rule="evenodd" d="M21.7689 2.38167C20.8196 1.33941 19.1798 1.33941 18.2305 2.38167L17.0099 3.72197C16.5302 4.24873 15.8407 4.53432 15.129 4.50106L13.3182 4.41644C11.91 4.35062 10.7503 5.51025 10.8162 6.91843L10.9008 8.72927C10.9295 9.3427 10.7212 9.93964 10.3259 10.4H24.876C25.287 10.4 25.6312 10.7114 25.6721 11.1204L26.8386 22.7858C28.1746 22.762 29.2466 21.6368 29.1833 20.2815L29.0985 18.4707C29.0653 17.7589 29.3509 17.0694 29.8777 16.5898L31.2179 15.3691C32.2603 14.4199 32.2603 12.78 31.2179 11.8308L29.8777 10.6102C29.3509 10.1304 29.0653 9.44096 29.0985 8.72927L29.1833 6.91844C29.2491 5.51025 28.0893 4.35062 26.6812 4.41644L24.8704 4.50106C24.1586 4.53432 23.4691 4.24873 22.9895 3.72197L21.7689 2.38167Z" fill="white" fill-opacity="0.7"/>
<path fill-rule="evenodd" clip-rule="evenodd" d="M0.884062 12C0.410765 12 0.0409377 12.4087 0.0880326 12.8796L1.60007 28H25.6001L24.0721 12.7204C24.0312 12.3114 23.6871 12 23.2761 12H0.884062ZM12.9897 17.0606C12.6733 16.7131 12.1267 16.7131 11.8103 17.0606L11.4034 17.5073C11.2435 17.6829 11.0137 17.7781 10.7764 17.767L10.1728 17.7388C9.70343 17.7169 9.31688 18.1034 9.33882 18.5728L9.36703 19.1764C9.37812 19.4137 9.28292 19.6435 9.10733 19.8034L8.66057 20.2103C8.31314 20.5267 8.31314 21.0733 8.66057 21.3897L9.10733 21.7966C9.28292 21.9565 9.37812 22.1863 9.36703 22.4236L9.33882 23.0272C9.31688 23.4965 9.70343 23.8831 10.1728 23.8612L10.7764 23.833C11.0137 23.8219 11.2435 23.9171 11.4034 24.0927L11.8103 24.5394C12.1267 24.8869 12.6733 24.8869 12.9897 24.5394L13.3966 24.0927C13.5565 23.9171 13.7863 23.8219 14.0236 23.833L14.6272 23.8612C15.0965 23.8831 15.4831 23.4965 15.4612 23.0272L15.433 22.4236C15.4219 22.1863 15.5171 21.9565 15.6927 21.7966L16.1394 21.3897C16.4869 21.0733 16.4869 20.5267 16.1394 20.2103L15.6927 19.8034C15.5171 19.6435 15.4219 19.4137 15.433 19.1764L15.4612 18.5728C15.4831 18.1034 15.0965 17.7169 14.6272 17.7388L14.0236 17.767C13.7863 17.7781 13.5565 17.6829 13.3966 17.5073L12.9897 17.0606Z" fill="white"/>
<path d="M1.59998 28H29.9171C30.0953 28 30.1845 28.2154 30.0586 28.3414L29.0343 29.3657C28.8843 29.5157 28.6808 29.6 28.4686 29.6H2.8944C2.59138 29.6 2.31437 29.4288 2.17886 29.1578L1.59998 28Z" fill="white"/>
</g>
</svg>
