<svg width="64" height="64" viewBox="0 0 64 64" fill="none" xmlns="http://www.w3.org/2000/svg" xmlns:xlink="http://www.w3.org/1999/xlink">
<path d="M64,24C64,35.781 53.531,45.579 39.725,47.613L28.8,64L24,64L24,46.477C12.783,43.063 4.8,34.287 4.8,24C4.8,10.745 18.052,0 34.4,0C50.748,0 64,10.745 64,24Z" clip-rule="evenodd" fill-rule="evenodd" fill="#000000"/>
<path d="M34.925,47.613C48.731,45.579 59.2,35.781 59.2,24C59.2,10.745 45.948,0 29.6,0C13.252,0 0,10.745 0,24C0,35.702 10.33,45.449 24,47.571L24,64L34.925,47.613Z" clip-rule="evenodd" fill-rule="evenodd" fill="#FFFFFF" stroke="#000000" stroke-width="1.5" stroke-miterlimit="3.999327"/>
<circle cx="14.4" cy="24" r="8" stroke="#000000" stroke-width="1.5" stroke-miterlimit="3.999327"/>
<circle cx="28.8" cy="24" r="8" stroke="#000000" stroke-width="1.5" stroke-miterlimit="3.999327"/>
<circle cx="26.4" cy="23.2" r="4" fill="#000000"/>
<circle cx="12" cy="23.2" r="4" fill="#000000"/>
<circle cx="43.2" cy="24" r="8" stroke="#000000" stroke-width="1.5" stroke-miterlimit="3.999327"/>
</svg>
