<svg width="17" height="17" viewBox="0 0 17 17" fill="none" xmlns="http://www.w3.org/2000/svg">
<path d="M14.5645 1.78682C14.2965 1.64181 13.6069 1.7592 13.3103 1.7523C12.7029 1.82135 12.2849 1.20675 11.924 0.837302C11.5095 0.398795 10.8056 0.388437 10.3768 0.802774C10.3661 0.813132 10.3518 0.826943 10.3411 0.837302C10.1946 0.989225 10.0374 1.17913 9.8623 1.34832C9.60861 1.59347 9.31561 1.79373 8.95473 1.7523C8.41877 1.73158 7.7506 1.60728 7.34327 2.00435C7.28967 2.05614 7.24322 2.11139 7.20034 2.18044C6.76442 2.79159 7.3647 3.77219 6.78944 4.32809C6.768 4.34881 6.74298 4.37298 6.7144 4.39024L6.11412 4.91852C6.09983 4.92888 6.08911 4.94269 6.07839 4.95305C5.64962 5.36739 5.66034 6.04759 6.11412 6.44811C6.50001 6.79685 7.12888 7.20083 7.06099 7.78781C7.04313 8.19178 6.86804 8.57159 6.57505 8.85472L2.49457 12.7978L1.09392 14.1513L0.783061 14.4517C0.493641 14.7314 0.407886 15.1665 0.611553 15.5083C0.918839 16.0262 1.62274 16.0884 2.03007 15.6982L2.18729 15.5463L2.61606 15.1319C2.68395 15.0663 2.79471 15.0663 2.8626 15.1319L3.99527 16.2265C4.2847 16.5061 4.73848 16.589 5.08864 16.3922C5.09936 16.3853 5.11008 16.3749 5.1208 16.368C5.18154 16.3301 5.23514 16.2921 5.28159 16.2472C5.63175 15.9088 5.63175 15.3598 5.28159 15.0214L4.12391 13.9027C4.05602 13.8371 4.05602 13.7301 4.12391 13.6645L4.72061 13.0879C4.7885 13.0223 4.89927 13.0223 4.96716 13.0879L6.09983 14.1824C6.3821 14.4552 6.81802 14.545 7.17176 14.362C7.25751 14.3171 7.32897 14.2653 7.39329 14.2031C7.74345 13.8647 7.74345 13.3158 7.39329 12.9774L6.23561 11.8587C6.16772 11.7931 6.16772 11.686 6.23561 11.6204L7.82563 10.0839C8.16508 9.75591 8.63315 9.56255 9.10837 9.61434C9.37636 9.64196 9.6229 9.72828 9.79441 9.93545L10.3411 10.5155C10.7556 10.954 11.4595 10.9644 11.8882 10.5501C11.899 10.5397 11.9133 10.5259 11.924 10.5155L12.4707 9.93545C12.4921 9.91128 12.51 9.89056 12.5314 9.86985C13.1495 9.27251 14.2786 9.96307 14.8932 9.36574C14.9039 9.35538 14.9147 9.34502 14.9254 9.33121C14.9432 9.3174 14.9575 9.30359 14.9754 9.28978C15.3541 8.92378 15.2112 8.22976 15.2005 7.77054C15.1576 7.42181 15.3649 7.13868 15.6221 6.89353C15.7972 6.72434 15.9937 6.57242 16.1509 6.43085C16.1652 6.42049 16.176 6.40668 16.1867 6.39632C16.6154 5.98199 16.6047 5.30178 16.1509 4.90126C15.8758 4.6492 15.3291 4.26939 15.2434 3.89994C15.0754 3.11616 15.6007 2.21152 14.5645 1.76956V1.78682ZM13.1031 7.58064C12.0919 8.55778 10.4483 8.55778 9.4371 7.58064C8.42591 6.60349 8.42591 5.0152 9.4371 4.03805C10.4483 3.06091 12.0919 3.06091 13.1031 4.03805C14.1143 5.0152 14.1143 6.60349 13.1031 7.58064Z" fill="white"/>
</svg>
