<svg width="10" height="10" viewBox="0 0 10 10" fill="none" xmlns="http://www.w3.org/2000/svg">
<path d="M9.91648 4.60451C9.83991 4.33172 9.30388 3.9558 9.11411 3.7562C8.66798 3.40357 8.81114 2.70829 8.82446 2.21927C8.85109 1.63377 8.36833 1.1514 7.78237 1.17801C7.28962 1.19132 6.60045 1.33437 6.24421 0.888588C5.86133 0.476078 5.45848 -0.136034 4.79927 0.0269737C4.06681 0.160042 3.80046 1.30443 2.97145 1.2146L2.21569 1.17801C1.62972 1.1514 1.14696 1.63377 1.1736 2.21927C1.18692 2.71162 1.33008 3.40024 0.883944 3.7562L0.324612 4.26518C-0.108204 4.66106 -0.108204 5.34303 0.324612 5.73891C0.680853 6.07158 1.27348 6.46746 1.20689 7.02967L1.17027 7.78483C1.14363 8.37033 1.62639 8.8527 2.21236 8.82609L2.96812 8.78949C3.86705 8.69967 4.12341 10.0437 4.9957 9.99708C5.52507 10.047 5.92459 9.44485 6.24088 9.11551C6.59379 8.66973 7.28962 8.81278 7.77904 8.82609C8.36501 8.8527 8.84776 8.37033 8.82113 7.78483C8.81114 7.43553 8.71126 6.81676 8.90769 6.50405C9.33052 5.85867 10.2927 5.58921 9.91316 4.60783L9.91648 4.60451ZM7.25966 3.86931L4.4397 6.68702C4.32983 6.7968 4.15337 6.7968 4.0435 6.68702L2.74838 5.39293C2.63851 5.28315 2.63851 5.10684 2.74838 4.99706L3.00474 4.7409C3.11461 4.63112 3.29107 4.63112 3.40094 4.7409L4.18001 5.51935C4.2133 5.55262 4.2699 5.55262 4.30652 5.51935L6.61044 3.21728C6.7203 3.10749 6.89676 3.10749 7.00663 3.21728L7.26299 3.47343C7.37286 3.58321 7.37286 3.75953 7.26299 3.86931H7.25966Z" fill="white" fill-opacity="0.5"/>
</svg>
