<svg width="42" height="42" viewBox="0 0 42 42" fill="none" xmlns="http://www.w3.org/2000/svg">
<g filter="url(#filter0_d_144_850)">
<path d="M21 36C29.2843 36 36 29.2843 36 21C36 12.7157 29.2843 6 21 6C12.7157 6 6 12.7157 6 21C6 29.2843 12.7157 36 21 36Z" fill="white"/>
<path d="M34.3086 21.2228C34.1972 19.8859 32.84 19.2276 31.26 19.5922C30.9865 19.653 30.713 19.7137 30.4497 19.8049C30.6523 17.4247 29.1026 15.2573 25.8109 13.6773C23.9575 12.786 21.9521 12.5834 20.4328 12.5935C19.2073 12.6037 18.002 12.3302 16.8575 11.8744C16.1688 11.5908 15.3687 11.601 14.842 11.7326C14.0115 11.9453 12.1479 12.8366 12.3302 15.2573C12.3707 15.7637 12.4922 16.1891 12.6745 16.5436C12.6948 16.5841 12.7151 16.6145 12.7353 16.655C12.7353 16.655 12.7353 16.6651 12.7454 16.6752C12.7657 16.7056 12.786 16.7461 12.8062 16.7765C12.8974 16.9284 12.9986 17.0601 13.0999 17.1715C13.576 17.7184 14.1533 17.9818 14.4673 18.0932C14.4875 18.0932 14.4976 18.1033 14.5078 18.1135C14.5179 18.1135 14.5381 18.1135 14.5483 18.1236C14.5888 18.1337 14.6192 18.1438 14.6394 18.154C14.6394 18.154 14.6394 18.154 14.6496 18.154H14.6597C13.5253 20.3315 13.5051 22.7522 13.5051 22.7522C13.2721 22.8332 13.0695 22.9143 12.8771 23.0054C12.1377 22.5598 11.3174 22.266 10.4868 22.0635C9.65631 21.8508 8.76502 21.7394 7.91425 21.6887L7.05334 21.6584C6.84065 21.6584 6.84065 21.9622 7.04321 21.9723C7.54963 21.9926 8.24848 22.023 8.74477 22.0939C8.88656 22.1141 9.24105 22.1648 9.37272 22.185C9.50439 22.2154 9.85888 22.2762 9.99055 22.3066C10.8413 22.5091 11.7225 22.7826 12.4922 23.2181C12.1985 23.3903 11.9656 23.5827 11.7833 23.7954C10.4058 23.5625 8.96759 23.684 7.66104 24.16L7.27616 24.3018C7.19514 24.3322 7.15463 24.4132 7.18501 24.4943C7.21539 24.5753 7.30655 24.6158 7.38758 24.5854L7.76232 24.4538C8.96759 24.0385 10.2843 23.9271 11.5503 24.1297C11.3883 24.393 11.2971 24.6766 11.2363 24.9703C10.9629 26.5402 11.9858 27.7758 13.2316 28.6671C14.2849 29.4268 15.5105 29.9129 16.7866 30.156C19.3693 30.6421 24.2917 30.8852 27.9176 26.9352C27.9176 26.9352 28.6772 27.7657 30.2876 27.1479C32.4652 26.2465 34.501 23.3093 34.2681 21.2127L34.3086 21.2228ZM18.5996 24.6867C18.5287 25.4362 17.526 25.9629 15.8346 25.811C14.1431 25.659 13.2519 24.9703 13.3126 24.2107C13.3734 23.4511 14.3862 22.9345 16.0777 23.0864C17.7691 23.2384 18.6604 23.9271 18.5996 24.6867ZM24.6766 26.8643C24.6361 26.9352 24.555 26.9554 24.4841 26.9149C23.2485 26.2465 21.871 25.9021 20.4835 25.7704C20.0176 25.7299 19.5415 25.7097 19.0858 25.7299C18.8325 25.7299 18.8123 25.3552 19.0756 25.3451C20.524 25.3248 21.9622 25.5577 23.3194 26.0642C23.7752 26.2262 24.2005 26.4389 24.6259 26.6719C24.6968 26.7124 24.7171 26.7934 24.6867 26.8643H24.6766ZM25.892 24.5753C25.7502 24.5449 25.4159 24.4841 25.2843 24.4538C24.4132 24.3221 23.5118 24.2816 22.6408 24.3424C21.5672 24.4132 20.4733 24.6158 19.4504 24.9399C19.2073 25.0209 19.0756 24.6563 19.3288 24.5753C21.3342 23.998 23.4916 23.8258 25.5375 24.2411L25.9426 24.3322C26.0945 24.3727 26.0439 24.5956 25.892 24.5652V24.5753Z" fill="#00A3FF"/>
</g>
<defs>
<filter id="filter0_d_144_850" x="0" y="0" width="42" height="42" filterUnits="userSpaceOnUse" color-interpolation-filters="sRGB">
<feFlood flood-opacity="0" result="BackgroundImageFix"/>
<feColorMatrix in="SourceAlpha" type="matrix" values="0 0 0 0 0 0 0 0 0 0 0 0 0 0 0 0 0 0 127 0" result="hardAlpha"/>
<feOffset/>
<feGaussianBlur stdDeviation="3"/>
<feComposite in2="hardAlpha" operator="out"/>
<feColorMatrix type="matrix" values="0 0 0 0 0 0 0 0 0 0 0 0 0 0 0 0 0 0 0.3 0"/>
<feBlend mode="normal" in2="BackgroundImageFix" result="effect1_dropShadow_144_850"/>
<feBlend mode="normal" in="SourceGraphic" in2="effect1_dropShadow_144_850" result="shape"/>
</filter>
</defs>
</svg>
