<svg width="680" height="960" viewBox="0 0 680 960" fill="none" xmlns="http://www.w3.org/2000/svg" xmlns:xlink="http://www.w3.org/1999/xlink">
<path d="M8,0C3.582,0 0,3.582 0,8L0,952C0,956.418 3.582,960 8,960L672,960C676.418,960 680,956.418 680,952L680,8C680,3.582 676.418,0 672,0L8,0ZM20,11.52C15.582,11.52 12,15.102 12,19.52L12,940.48C12,944.898 15.582,948.48 20,948.48L660,948.48C664.418,948.48 668,944.898 668,940.48L668,19.52C668,15.102 664.418,11.52 660,11.52L20,11.52Z" clip-rule="evenodd" fill-rule="evenodd" fill="#00DACB"/>
<path d="M603.774,814.172C603.774,818.49 592.107,821.99 577.715,821.99C563.323,821.99 551.656,818.49 551.656,814.172C551.656,809.855 551.656,806.355 551.656,806.355L603.774,806.355C603.774,806.355 603.774,812.933 603.774,814.172Z" transform="rotate(71.507 577.715 814.172)" fill="#FB2A76" stroke="#000000" stroke-width="1.303" stroke-miterlimit="3.999327" stroke-linejoin="round"/>
<path d="M608.343,807.828C608.343,812.145 596.676,815.645 582.283,815.645C567.891,815.645 556.224,812.145 556.224,807.828C556.224,803.51 567.891,800.01 582.283,800.01C596.676,800.01 608.343,803.51 608.343,807.828Z" transform="rotate(71.507 582.283 807.828)" fill="#FF9447" stroke="#000000" stroke-width="1.303" stroke-miterlimit="3.999327" stroke-linejoin="round"/>
<path d="M625.754,759.434C625.754,762.748 616.799,765.434 605.754,765.434C594.708,765.434 585.754,762.748 585.754,759.434C585.754,756.121 585.754,753.434 585.754,753.434L625.754,753.434C625.754,753.434 625.754,758.483 625.754,759.434Z" transform="rotate(288.493 605.754 759.434)" fill="#FB2A76" stroke="#000000" stroke-width="1" stroke-miterlimit="3.999327" stroke-linejoin="round"/>
<path d="M622.248,754.565C622.248,757.879 613.293,760.565 602.248,760.565C591.202,760.565 582.248,757.879 582.248,754.565C582.248,751.251 591.202,748.565 602.248,748.565C613.293,748.565 622.248,751.251 622.248,754.565Z" transform="rotate(288.493 602.248 754.565)" fill="#FF9447" stroke="#000000" stroke-width="1" stroke-miterlimit="3.999327" stroke-linejoin="round"/>
<path d="M592.192,699.434C592.192,702.748 583.238,705.434 572.192,705.434C561.146,705.434 552.192,702.748 552.192,699.434C552.192,696.121 552.192,693.434 552.192,693.434L592.192,693.434C592.192,693.434 592.192,698.483 592.192,699.434Z" transform="rotate(71.507 572.192 699.434)" fill="#FB2A76" stroke="#000000" stroke-width="1" stroke-miterlimit="3.999327" stroke-linejoin="round"/>
<path d="M595.698,694.565C595.698,697.879 586.743,700.565 575.698,700.565C564.652,700.565 555.698,697.879 555.698,694.565C555.698,691.251 564.652,688.565 575.698,688.565C586.743,688.565 595.698,691.251 595.698,694.565Z" transform="rotate(71.507 575.698 694.565)" fill="#FF9447" stroke="#000000" stroke-width="1" stroke-miterlimit="3.999327" stroke-linejoin="round"/>
</svg>
