<svg width="60" height="62" viewBox="0 0 60 62" fill="none" xmlns="http://www.w3.org/2000/svg" xmlns:xlink="http://www.w3.org/1999/xlink">
<path d="M29.6,60.8C46.39,60.8 60,47.189 60,30.4C60,13.611 46.39,0 29.6,0C12.811,0 -0.8,13.611 -0.8,30.4C-0.8,47.189 12.811,60.8 29.6,60.8Z" fill="#6F41D8"/>
<path d="M39.275,24.117C38.574,23.709 37.664,23.709 36.892,24.117L31.422,27.26L27.708,29.308L22.238,32.449C21.537,32.859 20.627,32.859 19.855,32.449L15.508,29.99C14.807,29.581 14.317,28.831 14.317,28.01L14.317,23.161C14.317,22.342 14.737,21.592 15.508,21.182L19.783,18.791C20.486,18.381 21.398,18.381 22.169,18.791L26.444,21.182C27.147,21.592 27.638,22.342 27.638,23.161L27.638,26.304L31.352,24.185L31.352,21.045C31.356,20.637 31.247,20.236 31.036,19.886C30.826,19.537 30.523,19.252 30.161,19.065L22.238,14.558C21.537,14.148 20.627,14.148 19.855,14.558L11.792,19.065C11.429,19.252 11.126,19.537 10.916,19.886C10.705,20.236 10.596,20.637 10.6,21.045L10.6,30.127C10.6,30.948 11.02,31.698 11.792,32.108L19.855,36.615C20.556,37.024 21.468,37.024 22.238,36.615L27.708,33.541L31.422,31.424L36.892,28.352C37.593,27.942 38.504,27.942 39.275,28.352L43.552,30.742C44.255,31.151 44.743,31.901 44.743,32.722L44.743,37.571C44.743,38.39 44.325,39.14 43.552,39.551L39.277,42.009C38.574,42.42 37.662,42.42 36.892,42.009L32.615,39.619C31.912,39.209 31.422,38.458 31.422,37.639L31.422,34.497L27.708,36.615L27.708,39.756C27.708,40.575 28.128,41.327 28.899,41.736L36.963,46.243C37.664,46.653 38.574,46.653 39.345,46.243L47.409,41.736C48.11,41.327 48.6,40.577 48.6,39.756L48.6,30.674C48.604,30.266 48.495,29.865 48.285,29.515C48.074,29.166 47.771,28.882 47.409,28.694L39.277,24.117L39.275,24.117Z" fill="#FFFFFF"/>
</svg>
