<svg width="56" height="56" viewBox="0 0 56 56" fill="none" xmlns="http://www.w3.org/2000/svg" xmlns:xlink="http://www.w3.org/1999/xlink">
<rect  x="4" y="50" width="52" height="4" fill="#000000"/>
<rect  x="44" y="18" width="12" height="34" fill="#000000"/>
<rect  x="4" y="4" width="46" height="10" fill="#FFFFFF" stroke="#000000" stroke-width="1" stroke-miterlimit="3.999327"/>
<path d="M4,18L52,18L48,52L0,52L4,18Z" fill="#FFFFFF" stroke="#000000" stroke-width="1" stroke-miterlimit="3.999327"/>
<rect  x="12" y="0" width="4" height="8" fill="#000000"/>
<rect  x="16" y="0" width="4" height="4" fill="#000000"/>
<rect  x="44" y="0" width="4" height="4" fill="#000000"/>
<rect  x="52" y="4" width="4" height="12" fill="#000000"/>
<rect  x="40" y="0" width="4" height="8" fill="#000000"/>
<rect  x="42" y="30" width="1" height="1" fill="#FFFFFF"/>
<path d="M41,56L43,56L43,54L41,54L41,56Z" fill="#FFFFFF"/>
<circle cx="43" cy="43" r="13" fill="#000000" stroke="#000000" stroke-width="1" stroke-miterlimit="3.999327"/>
<circle cx="41" cy="43" r="13" fill="#FFFFFF" stroke="#000000" stroke-width="1" stroke-miterlimit="3.999327"/>
<path d="M40,44L38,44L38,46L38,48L38,50L40,50L40,48L40,46L40,44Z" clip-rule="evenodd" fill-rule="evenodd" fill="#000000"/>
<path d="M38,40L38,36L42,36C44.209,36 46,37.791 46,40C46,42.209 44.209,44 42,44L38,44L38,40Z" clip-rule="evenodd" fill-rule="evenodd" fill="#000000"/>
<path d="M40,40L40,38L42,38C43.105,38 44,38.895 44,40C44,41.105 43.105,42 42,42L40,42L40,40Z" clip-rule="evenodd" fill-rule="evenodd" fill="#FFFFFF"/>
</svg>
