<svg width="32" height="32" viewBox="0 0 32 32" fill="none" xmlns="http://www.w3.org/2000/svg" xmlns:xlink="http://www.w3.org/1999/xlink">
<path d="M32,15.156C32,23.993 24.837,31.156 16,31.156C7.163,31.156 0,23.993 0,15.156C0,6.32 7.163,-0.844 16,-0.844C24.837,-0.844 32,6.32 32,15.156ZM30,15.156C30,22.888 23.732,29.156 16,29.156C8.268,29.156 2,22.888 2,15.156C2,7.424 8.268,1.156 16,1.156C23.732,1.156 30,7.424 30,15.156ZM16,27.156C22.627,27.156 28,21.784 28,15.156C28,8.529 22.627,3.156 16,3.156C9.373,3.156 4,8.529 4,15.156C4,21.784 9.373,27.156 16,27.156Z" clip-rule="evenodd" fill-rule="evenodd" fill="#4B4B4B"/>
</svg>
