<svg width="16" height="16" viewBox="0 0 16 16" fill="none" xmlns="http://www.w3.org/2000/svg">
<g opacity="0.8">
<path d="M15 3.50041V6.50041C15 6.63302 14.9473 6.7602 14.8536 6.85397C14.7598 6.94774 14.6326 7.00041 14.5 7.00041H11.5C11.3674 7.00041 11.2402 6.94774 11.1465 6.85397C11.0527 6.7602 11 6.63302 11 6.50041C11 6.36781 11.0527 6.24063 11.1465 6.14686C11.2402 6.05309 11.3674 6.00041 11.5 6.00041H13.2125L11.5506 4.47791L11.535 4.46291C10.8401 3.76822 9.95582 3.2937 8.99275 3.09863C8.02967 2.90356 7.03047 2.99659 6.11996 3.3661C5.20945 3.73561 4.428 4.36522 3.87324 5.17627C3.31847 5.98731 3.01499 6.94385 3.00069 7.92638C2.98639 8.90891 3.26192 9.87386 3.79286 10.7007C4.32379 11.5276 5.08659 12.1796 5.98597 12.5755C6.88534 12.9713 7.88141 13.0934 8.84976 12.9264C9.8181 12.7594 10.7158 12.3108 11.4306 11.6367C11.527 11.5455 11.6557 11.4964 11.7883 11.5C11.9209 11.5037 12.0467 11.56 12.1378 11.6564C12.229 11.7527 12.2781 11.8814 12.2745 12.014C12.2708 12.1466 12.2145 12.2724 12.1181 12.3635C11.0066 13.4177 9.532 14.0039 8.00003 14.0004H7.91753C6.93486 13.987 5.97055 13.7323 5.10934 13.2589C4.24813 12.7855 3.51639 12.1078 2.97844 11.2853C2.44048 10.4629 2.11279 9.52089 2.02415 8.54214C1.93551 7.56339 2.08865 6.57785 2.47009 5.67214C2.85154 4.76643 3.44962 3.96828 4.21177 3.34785C4.97392 2.72741 5.8768 2.30369 6.84106 2.11391C7.80532 1.92413 8.80143 1.97412 9.74184 2.25947C10.6823 2.54482 11.5382 3.0568 12.2344 3.75041L14 5.36291V3.50041C14 3.36781 14.0527 3.24063 14.1465 3.14686C14.2402 3.05309 14.3674 3.00041 14.5 3.00041C14.6326 3.00041 14.7598 3.05309 14.8536 3.14686C14.9473 3.24063 15 3.36781 15 3.50041Z" fill="#343330"/>
</g>
</svg>
