<svg width="80" height="80" viewBox="0 0 80 80" fill="none" xmlns="http://www.w3.org/2000/svg" xmlns:xlink="http://www.w3.org/1999/xlink">
<path d="M20,14C15.582,14 12,17.582 12,22L12,46.727C12,51.146 15.582,54.727 20,54.727L34.909,54.727L40.017,62.389C39.901,61.077 40.373,59.722 41.433,58.756L43.89,56.519C44.856,55.639 45.38,54.375 45.319,53.07L45.164,49.75C45.043,47.169 47.169,45.043 49.751,45.164L53.07,45.319C54.375,45.38 55.639,44.856 56.519,43.89L58.756,41.433C60.497,39.522 63.503,39.522 65.243,41.433L67.481,43.89C67.642,44.067 67.816,44.229 68,44.375L68,22C68,17.582 64.418,14 60,14L20,14ZM45.091,69.315C44.855,68.62 44.446,67.987 43.89,67.481L42.672,66.372L45.091,70L45.091,69.315ZM27.272,38.182C29.381,38.182 31.091,36.472 31.091,34.364C31.091,32.255 29.381,30.545 27.272,30.545C25.164,30.545 23.454,32.255 23.454,34.364C23.454,36.472 25.164,38.182 27.272,38.182ZM40,38.182C42.108,38.182 43.818,36.472 43.818,34.364C43.818,32.255 42.108,30.545 40,30.545C37.891,30.545 36.182,32.255 36.182,34.364C36.182,36.472 37.891,38.182 40,38.182ZM56.545,34.364C56.545,36.472 54.836,38.182 52.727,38.182C50.618,38.182 48.909,36.472 48.909,34.364C48.909,32.255 50.618,30.545 52.727,30.545C54.836,30.545 56.545,32.255 56.545,34.364Z" clip-rule="evenodd" fill-rule="evenodd" fill="#FFFFFF"/>
<path d="M64.654,45.173C63.23,43.609 60.77,43.609 59.346,45.173L57.515,47.183C56.796,47.973 55.761,48.402 54.694,48.352L51.978,48.225C49.865,48.126 48.126,49.865 48.225,51.978L48.352,54.694C48.402,55.761 47.973,56.796 47.183,57.515L45.173,59.346C43.609,60.77 43.609,63.23 45.173,64.654L47.183,66.485C47.973,67.204 48.402,68.238 48.352,69.306L48.225,72.022C48.126,74.134 49.865,75.874 51.978,75.775L54.694,75.648C55.761,75.598 56.796,76.027 57.515,76.817L59.346,78.827C60.77,80.391 63.23,80.391 64.654,78.827L66.485,76.817C67.204,76.027 68.238,75.598 69.306,75.648L72.022,75.775C74.134,75.874 75.874,74.134 75.775,72.022L75.648,69.306C75.598,68.238 76.027,67.204 76.817,66.485L78.827,64.654C80.391,63.23 80.391,60.77 78.827,59.346L76.817,57.515C76.027,56.796 75.598,55.761 75.648,54.694L75.775,51.978C75.874,49.865 74.134,48.126 72.022,48.225L69.306,48.352C68.238,48.402 67.204,47.973 66.485,47.183L64.654,45.173ZM68.568,60.228C69.13,59.665 69.13,58.754 68.568,58.191C68.006,57.629 67.094,57.629 66.532,58.191L61.07,63.653L57.768,60.351C57.206,59.789 56.294,59.789 55.732,60.351C55.169,60.914 55.169,61.825 55.732,62.388L60.052,66.708C60.614,67.27 61.526,67.27 62.088,66.708L68.568,60.228Z" clip-rule="evenodd" fill-rule="evenodd" fill="#FFFFFF" fill-opacity="0.7"/>
</svg>
