<svg width="32" height="32" viewBox="0 0 32 32" fill="none" xmlns="http://www.w3.org/2000/svg">
<path fill-rule="evenodd" clip-rule="evenodd" d="M5 8C5 6.89543 5.89543 6 7 6H25C26.1046 6 27 6.89543 27 8V20C27 21.1046 26.1046 22 25 22H18V28L14 22H7C5.89543 22 5 21.1046 5 20V8ZM12.5 14C12.5 14.8284 11.8284 15.5 11 15.5C10.1716 15.5 9.5 14.8284 9.5 14C9.5 13.1716 10.1716 12.5 11 12.5C11.8284 12.5 12.5 13.1716 12.5 14ZM17.5 14C17.5 14.8284 16.8284 15.5 16 15.5C15.1716 15.5 14.5 14.8284 14.5 14C14.5 13.1716 15.1716 12.5 16 12.5C16.8284 12.5 17.5 13.1716 17.5 14ZM21 15.5C21.8284 15.5 22.5 14.8284 22.5 14C22.5 13.1716 21.8284 12.5 21 12.5C20.1716 12.5 19.5 13.1716 19.5 14C19.5 14.8284 20.1716 15.5 21 15.5Z" fill="white"/>
</svg>
