<svg width="32" height="32" viewBox="0 0 32 32" fill="none" xmlns="http://www.w3.org/2000/svg">
<path fill-rule="evenodd" clip-rule="evenodd" d="M7.20001 9.6C7.20001 8.71635 7.91636 8 8.80001 8H23.2C24.0837 8 24.8 8.71634 24.8 9.6V19.2C24.8 20.0837 24.0837 20.8 23.2 20.8H17.6001V25.6L14.4001 20.8H8.80001C7.91636 20.8 7.20001 20.0837 7.20001 19.2V9.6ZM13.2001 14.4C13.2001 15.0627 12.6628 15.6 12.0001 15.6C11.3373 15.6 10.8001 15.0627 10.8001 14.4C10.8001 13.7373 11.3373 13.2 12.0001 13.2C12.6628 13.2 13.2001 13.7373 13.2001 14.4ZM17.2001 14.4C17.2001 15.0627 16.6628 15.6 16.0001 15.6C15.3373 15.6 14.8001 15.0627 14.8001 14.4C14.8001 13.7373 15.3373 13.2 16.0001 13.2C16.6628 13.2 17.2001 13.7373 17.2001 14.4ZM20.0001 15.6C20.6628 15.6 21.2001 15.0627 21.2001 14.4C21.2001 13.7373 20.6628 13.2 20.0001 13.2C19.3373 13.2 18.8001 13.7373 18.8001 14.4C18.8001 15.0627 19.3373 15.6 20.0001 15.6Z" fill="white" fill-opacity="0.5"/>
</svg>
