<svg width="36" height="26" viewBox="0 0 36 26" fill="none" xmlns="http://www.w3.org/2000/svg" xmlns:xlink="http://www.w3.org/1999/xlink">
<path d="M35.061,3.061C35.646,2.475 35.646,1.525 35.061,0.939C34.475,0.354 33.525,0.354 32.939,0.939L35.061,3.061ZM12,24L10.939,25.061C11.525,25.646 12.475,25.646 13.061,25.061L12,24ZM3.061,12.939C2.475,12.354 1.525,12.354 0.939,12.939C0.354,13.525 0.354,14.475 0.939,15.061L3.061,12.939ZM32.939,0.939L10.939,22.939L13.061,25.061L35.061,3.061L32.939,0.939ZM13.061,22.939L3.061,12.939L0.939,15.061L10.939,25.061L13.061,22.939Z" fill="#FFFFFF"/>
</svg>
