<svg width="32" height="32" viewBox="0 0 32 32" fill="none" xmlns="http://www.w3.org/2000/svg">
<g opacity="0.5" clip-path="url(#clip0_693_13913)">
<path d="M15.9999 28L22.3999 30.4H9.59991L15.9999 28Z" fill="white"/>
<path d="M7.20001 10.4C7.20001 10.4 10.3503 9.45822 12.4 9.59999C15.063 9.78417 16.1322 11.9099 18.8 12C21.2237 12.0818 24.8 10.4 24.8 10.4L16 19.2L7.20001 10.4Z" fill="white"/>
<path fill-rule="evenodd" clip-rule="evenodd" d="M5.04652 6.39996C4.34617 6.39996 3.98389 7.23618 4.46289 7.74712L15.1999 19.2H16.7999L27.537 7.74712C28.016 7.23618 27.6537 6.39996 26.9533 6.39996H5.04652ZM7.10029 7.59996C6.53125 7.59996 6.2369 8.27939 6.62609 8.69453L15.3499 18H16.6499L25.3738 8.69453C25.763 8.27939 25.4686 7.59996 24.8996 7.59996H7.10029Z" fill="white"/>
<rect x="15.2" y="19.2" width="1.6" height="9.6" fill="white"/>
<line x1="7.54068" y1="3.79036" x2="13.9407" y2="14.1904" stroke="white" stroke-width="0.8"/>
<mask id="mask0_693_13913" style="mask-type:alpha" maskUnits="userSpaceOnUse" x="18" y="0" width="14" height="15">
<path fill-rule="evenodd" clip-rule="evenodd" d="M32 0.799988H18.4V5.59999H26.9534C28.3541 5.59999 29.0786 7.27243 28.1206 8.29429L22.3966 14.4H32V0.799988ZM27.537 7.74714H27.537C27.8933 7.36706 27.7841 6.80696 27.4165 6.54501C27.7841 6.80695 27.8933 7.36705 27.537 7.74714Z" fill="#D9D9D9"/>
</mask>
<g mask="url(#mask0_693_13913)">
<path d="M23.9744 1.96477C24.4174 1.47838 25.1826 1.47838 25.6256 1.96477L26.1952 2.59024C26.4191 2.83606 26.7409 2.96934 27.073 2.95382L27.9181 2.91432C28.5752 2.88361 29.1164 3.42477 29.0857 4.08192L29.0461 4.92698C29.0306 5.2591 29.1639 5.58086 29.4097 5.80473L30.0352 6.37435C30.5216 6.81733 30.5216 7.5826 30.0352 8.02559L29.4097 8.59521C29.1639 8.81905 29.0306 9.14082 29.0461 9.47298L29.0857 10.318C29.1164 10.9751 28.5752 11.5163 27.9181 11.4856L27.073 11.4461C26.7409 11.4306 26.4191 11.5639 26.1952 11.8097L25.6256 12.4352C25.1826 12.9216 24.4174 12.9216 23.9744 12.4352L23.4048 11.8097C23.1809 11.5639 22.8591 11.4306 22.527 11.4461L21.682 11.4856C21.0248 11.5163 20.4836 10.9751 20.5144 10.318L20.5539 9.47298C20.5694 9.14082 20.4361 8.81905 20.1903 8.59521L19.5648 8.02559C19.0784 7.5826 19.0784 6.81733 19.5648 6.37435L20.1903 5.80473C20.4361 5.58086 20.5694 5.2591 20.5539 4.92698L20.5144 4.08192C20.4836 3.42477 21.0248 2.88361 21.682 2.91432L22.527 2.95382C22.8591 2.96934 23.1809 2.83606 23.4048 2.59024L23.9744 1.96477Z" stroke="white" stroke-width="0.8"/>
</g>
</g>
<defs>
<clipPath id="clip0_693_13913">
<rect width="32" height="32" fill="white"/>
</clipPath>
</defs>
</svg>
