<svg width="80" height="80" viewBox="0 0 80 80" fill="none" xmlns="http://www.w3.org/2000/svg" xmlns:xlink="http://www.w3.org/1999/xlink">
<path d="M18,8C16.895,8 16,8.895 16,10L12,10C10.895,10 10,10.895 10,12L10,68C10,69.105 10.895,70 12,70L45.263,70C45.102,69.039 44.624,68.149 43.89,67.481L42.264,66L14,66L14,32L66,32L66,42.264L67.481,43.89C68.149,44.624 69.039,45.102 70,45.263L70,12C70,10.895 69.105,10 68,10L64,10C64,8.895 63.105,8 62,8C60.895,8 60,8.895 60,10L20,10C20,8.895 19.105,8 18,8Z" clip-rule="evenodd" fill-rule="evenodd" fill="#FFFFFF"/>
<path d="M64.654,45.173C63.23,43.609 60.77,43.609 59.346,45.173L57.515,47.183C56.796,47.973 55.761,48.402 54.694,48.352L51.978,48.225C49.865,48.126 48.126,49.865 48.225,51.978L48.352,54.694C48.402,55.761 47.973,56.796 47.183,57.515L45.173,59.346C43.609,60.77 43.609,63.23 45.173,64.654L47.183,66.485C47.973,67.204 48.402,68.238 48.352,69.306L48.225,72.022C48.126,74.134 49.865,75.874 51.978,75.775L54.694,75.648C55.761,75.598 56.796,76.027 57.515,76.817L59.346,78.827C60.77,80.391 63.23,80.391 64.654,78.827L66.485,76.817C67.204,76.027 68.238,75.598 69.306,75.648L72.022,75.775C74.134,75.874 75.874,74.134 75.775,72.022L75.648,69.306C75.598,68.238 76.027,67.204 76.817,66.485L78.827,64.654C80.391,63.23 80.391,60.77 78.827,59.346L76.817,57.515C76.027,56.796 75.598,55.761 75.648,54.694L75.775,51.978C75.874,49.865 74.134,48.126 72.022,48.225L69.306,48.352C68.238,48.402 67.204,47.973 66.485,47.183L64.654,45.173ZM68.568,60.228C69.13,59.665 69.13,58.754 68.568,58.191C68.006,57.629 67.094,57.629 66.532,58.191L61.07,63.653L57.768,60.351C57.206,59.789 56.294,59.789 55.732,60.351C55.169,60.914 55.169,61.825 55.732,62.388L60.052,66.708C60.614,67.27 61.526,67.27 62.088,66.708L68.568,60.228Z" clip-rule="evenodd" fill-rule="evenodd" fill="#00A3FF"/>
</svg>
