<svg width="32" height="32" viewBox="0 0 32 32" fill="none" xmlns="http://www.w3.org/2000/svg">
<path fill-rule="evenodd" clip-rule="evenodd" d="M16 5.84615C10.3922 5.84615 5.84615 10.3922 5.84615 16C5.84615 21.6078 10.3922 26.1538 16 26.1538C21.6078 26.1538 26.1538 21.6078 26.1538 16C26.1538 10.3922 21.6078 5.84615 16 5.84615ZM4 16C4 9.37258 9.37258 4 16 4C22.6274 4 28 9.37258 28 16C28 22.6274 22.6274 28 16 28C9.37258 28 4 22.6274 4 16Z" fill="white"/>
<path d="M17.1078 11.2C17.1078 11.8118 16.6119 12.3077 16.0001 12.3077C15.3884 12.3077 14.8924 11.8118 14.8924 11.2C14.8924 10.5882 15.3884 10.0923 16.0001 10.0923C16.6119 10.0923 17.1078 10.5882 17.1078 11.2Z" fill="white"/>
<path d="M14.8924 14.5231C14.8924 14.1152 15.223 13.7846 15.6309 13.7846H16.3694C16.7772 13.7846 17.1078 14.1152 17.1078 14.5231V21.1692C17.1078 21.5771 16.7772 21.9077 16.3694 21.9077H15.6309C15.223 21.9077 14.8924 21.5771 14.8924 21.1692V14.5231Z" fill="white"/>
</svg>
