<svg width="32" height="32" viewBox="0 0 32 32" fill="none" xmlns="http://www.w3.org/2000/svg">
<path fill-rule="evenodd" clip-rule="evenodd" d="M11.2 16C11.2 16.8837 10.4837 17.6 9.6 17.6C8.71634 17.6 8 16.8837 8 16C8 15.1163 8.71634 14.4 9.6 14.4C10.4837 14.4 11.2 15.1163 11.2 16ZM17.6 16C17.6 16.8837 16.8837 17.6 16 17.6C15.1163 17.6 14.4 16.8837 14.4 16C14.4 15.1163 15.1163 14.4 16 14.4C16.8837 14.4 17.6 15.1163 17.6 16ZM22.4 17.6C23.2837 17.6 24 16.8837 24 16C24 15.1163 23.2837 14.4 22.4 14.4C21.5163 14.4 20.8 15.1163 20.8 16C20.8 16.8837 21.5163 17.6 22.4 17.6Z" fill="white"/>
</svg>
