<svg width="80" height="80" viewBox="0 0 80 80" fill="none" xmlns="http://www.w3.org/2000/svg" xmlns:xlink="http://www.w3.org/1999/xlink">
<path d="M52.3,25.7C52.3,32.162 47.062,37.4 40.6,37.4C34.138,37.4 28.9,32.162 28.9,25.7C28.9,19.238 34.138,14 40.6,14C47.062,14 52.3,19.238 52.3,25.7ZM15.9,64.7C15.9,51.059 26.958,42.6 40.6,42.6C45.166,42.6 49.443,43.548 53.113,45.32C53.099,45.32 53.085,45.319 53.07,45.319L49.751,45.164C47.169,45.043 45.043,47.169 45.164,49.75L45.319,53.07C45.38,54.375 44.856,55.639 43.89,56.519L41.433,58.756C39.522,60.497 39.522,63.503 41.433,65.243L42.264,66L15.9,66L15.9,64.7Z" clip-rule="evenodd" fill-rule="evenodd" fill="#FFFFFF"/>
<path d="M64.654,45.173C63.23,43.609 60.77,43.609 59.346,45.173L57.515,47.183C56.796,47.973 55.761,48.402 54.694,48.352L51.978,48.225C49.865,48.126 48.126,49.865 48.225,51.978L48.352,54.694C48.402,55.761 47.973,56.796 47.183,57.515L45.173,59.346C43.609,60.77 43.609,63.23 45.173,64.654L47.183,66.485C47.973,67.204 48.402,68.238 48.352,69.306L48.225,72.022C48.126,74.134 49.865,75.874 51.978,75.775L54.694,75.648C55.761,75.598 56.796,76.027 57.515,76.817L59.346,78.827C60.77,80.391 63.23,80.391 64.654,78.827L66.485,76.817C67.204,76.027 68.238,75.598 69.306,75.648L72.022,75.775C74.134,75.874 75.874,74.134 75.775,72.022L75.648,69.306C75.598,68.238 76.027,67.204 76.817,66.485L78.827,64.654C80.391,63.23 80.391,60.77 78.827,59.346L76.817,57.515C76.027,56.796 75.598,55.761 75.648,54.694L75.775,51.978C75.874,49.865 74.134,48.126 72.022,48.225L69.306,48.352C68.238,48.402 67.204,47.973 66.485,47.183L64.654,45.173ZM68.568,60.228C69.13,59.665 69.13,58.754 68.568,58.191C68.006,57.629 67.094,57.629 66.532,58.191L61.07,63.653L57.768,60.351C57.206,59.789 56.294,59.789 55.732,60.351C55.169,60.914 55.169,61.825 55.732,62.388L60.052,66.708C60.614,67.27 61.526,67.27 62.088,66.708L68.568,60.228Z" clip-rule="evenodd" fill-rule="evenodd" fill="#00A3FF"/>
</svg>
