<svg width="32" height="32" viewBox="0 0 32 32" fill="none" xmlns="http://www.w3.org/2000/svg">
<path d="M17.739 26H13.739M21.739 13C21.739 11.4087 21.1069 9.88258 19.9817 8.75736C18.8565 7.63214 17.3303 7 15.739 7C14.1477 7 12.6216 7.63214 11.4964 8.75736C10.3712 9.88258 9.73903 11.4087 9.73903 13C9.73903 16.0902 8.9595 18.206 8.0887 19.6054C7.35416 20.7859 6.98689 21.3761 7.00036 21.5408C7.01527 21.7231 7.05389 21.7926 7.20081 21.9016C7.33349 22 7.93162 22 9.12789 22H22.3502C23.5464 22 24.1446 22 24.2773 21.9016C24.4242 21.7926 24.4628 21.7231 24.4777 21.5408C24.4912 21.3761 24.1239 20.7859 23.3894 19.6054C22.5186 18.206 21.739 16.0902 21.739 13Z" stroke="white" stroke-width="2" stroke-linecap="round" stroke-linejoin="round"/>
</svg>
