<svg width="40" height="40" viewBox="0 0 40 40" fill="none" xmlns="http://www.w3.org/2000/svg">
<path fill-rule="evenodd" clip-rule="evenodd" d="M4.19231 17C3.80996 17 3.5 17.31 3.5 17.6923V21C3.5 28.732 9.76801 35 17.5 35C23.4704 35 28.5679 31.2627 30.5807 26H33C35.4853 26 37.5 23.9853 37.5 21.5C37.5 19.0147 35.4853 17 33 17H31.5H25.5H4.19231ZM34.5 21.5C34.5 22.6046 33.6046 23.5 32.5 23.5C31.3954 23.5 30.5 22.6046 30.5 21.5C30.5 20.3954 31.3954 19.5 32.5 19.5C33.6046 19.5 34.5 20.3954 34.5 21.5ZM13.0897 21.2606C12.7733 20.9131 12.2267 20.9131 11.9103 21.2606L11.5034 21.7073C11.3435 21.8829 11.1137 21.9781 10.8764 21.967L10.2728 21.9388C9.80343 21.9169 9.41688 22.3034 9.43882 22.7728L9.46703 23.3764C9.47812 23.6137 9.38292 23.8435 9.20733 24.0034L8.76057 24.4103C8.41314 24.7267 8.41314 25.2733 8.76057 25.5897L9.20733 25.9966C9.38292 26.1565 9.47812 26.3863 9.46703 26.6236L9.43882 27.2272C9.41688 27.6965 9.80343 28.0831 10.2728 28.0612L10.8764 28.033C11.1137 28.0219 11.3435 28.1171 11.5034 28.2927L11.9103 28.7394C12.2267 29.0869 12.7733 29.0869 13.0897 28.7394L13.4966 28.2927C13.6565 28.1171 13.8863 28.0219 14.1236 28.033L14.7272 28.0612C15.1965 28.0831 15.5831 27.6965 15.5612 27.2272L15.533 26.6236C15.5219 26.3863 15.6171 26.1565 15.7927 25.9966L16.2394 25.5897C16.5869 25.2733 16.5869 24.7267 16.2394 24.4103L15.7927 24.0034C15.6171 23.8435 15.5219 23.6137 15.533 23.3764L15.5612 22.7728C15.5831 22.3034 15.1965 21.9169 14.7272 21.9388L14.1236 21.967C13.8863 21.9781 13.6565 21.8829 13.4966 21.7073L13.0897 21.2606Z" fill="white"/>
<path d="M4.84845 36.7946C4.08847 36.2138 4.49916 35 5.45562 35H29.5444C30.5008 35 30.9115 36.2138 30.1516 36.7946L28.8429 37.7946C28.6685 37.9278 28.4552 38 28.2357 38H6.76427C6.54482 38 6.33146 37.9278 6.15709 37.7946L4.84845 36.7946Z" fill="white"/>
<path d="M12 6C12 6 10.675 7.80857 11 9C11.2906 10.0656 12.7093 9.93435 13 11C13.3249 12.1914 12 14 12 14" stroke="white" stroke-linecap="round"/>
<path d="M18 3C18 3 16.7397 5.48678 17.0488 7.125C17.3252 8.59027 18.6748 8.40973 18.9512 9.875C19.2603 11.5132 18 14 18 14" stroke="white" stroke-linecap="round"/>
<path d="M24 14C24 14 25.3249 12.1914 25 11" stroke="white" stroke-linecap="round"/>
<path d="M24.2051 2.13028C24.3633 1.95657 24.6367 1.95657 24.7949 2.13028L24.9983 2.35367C25.0782 2.44146 25.1932 2.48906 25.3118 2.48351L25.6136 2.46941C25.8483 2.45844 26.0416 2.65171 26.0306 2.88641L26.0165 3.18822C26.0109 3.30683 26.0585 3.42175 26.1463 3.5017L26.3697 3.70513C26.5434 3.86334 26.5434 4.13665 26.3697 4.29486L26.1463 4.4983C26.0585 4.57824 26.0109 4.69316 26.0165 4.81179L26.0306 5.11359C26.0416 5.34827 25.8483 5.54156 25.6136 5.53059L25.3118 5.51648C25.1932 5.51093 25.0782 5.55853 24.9983 5.64633L24.7949 5.86971C24.6367 6.04343 24.3633 6.04343 24.2051 5.86971L24.0017 5.64633C23.9217 5.55853 23.8068 5.51093 23.6882 5.51648L23.3864 5.53059C23.1517 5.54156 22.9584 5.34827 22.9694 5.11359L22.9835 4.81179C22.9891 4.69316 22.9415 4.57824 22.8537 4.4983L22.6303 4.29486C22.4566 4.13665 22.4566 3.86334 22.6303 3.70513L22.8537 3.5017C22.9415 3.42175 22.9891 3.30683 22.9835 3.18822L22.9694 2.88641C22.9584 2.65171 23.1517 2.45844 23.3864 2.46941L23.6882 2.48351C23.8068 2.48906 23.9217 2.44146 24.0017 2.35367L24.2051 2.13028Z" fill="white"/>
</svg>
