<svg width="19" height="18" viewBox="0 0 19 18" fill="none" xmlns="http://www.w3.org/2000/svg">
<path d="M16.9551 9.81543C16.2445 11.9754 14.6555 13.7313 12.6143 14.6514C12.963 15.1407 13.2023 15.7145 13.3057 16.3408C13.3573 16.6867 13.0988 17 12.75 17H5.93555C5.58673 17 5.32175 16.6867 5.37988 16.3408C5.4768 15.721 5.72257 15.1472 6.07129 14.6514C4.03008 13.7313 2.44751 11.9754 1.73047 9.81543H16.9551ZM16.71 7.25C17.0716 7.25007 17.3624 7.55745 17.3301 7.92285C17.3042 8.31423 17.2334 8.69263 17.1494 9.06445H1.5166C1.43266 8.69263 1.36825 8.31424 1.33594 7.92285C1.3101 7.56394 1.59432 7.25 1.95605 7.25H16.71ZM8.5 1.42285C9.01027 0.862132 9.8882 0.855558 10.3984 1.42285L11.0508 2.14746C11.3091 2.43454 11.6776 2.5908 12.0586 2.57129L13.0273 2.52637C13.7831 2.49374 14.4034 3.12028 14.3711 3.88379L14.3262 4.8623C14.3068 5.24723 14.462 5.61888 14.7461 5.87988H14.7393L15.457 6.53906H3.42188L4.13965 5.87988C4.42362 5.6189 4.57891 5.24712 4.55957 4.8623L4.51367 3.88379C4.48138 3.12033 5.10171 2.49382 5.85742 2.52637L6.83301 2.57129C7.21412 2.59086 7.58244 2.43459 7.84082 2.14746L8.5 1.42285Z" fill="white"/>
</svg>
