<svg width="40" height="40" viewBox="0 0 40 40" fill="none" xmlns="http://www.w3.org/2000/svg">
<path fill-rule="evenodd" clip-rule="evenodd" d="M17.3462 3.17254C18.7701 1.60915 21.2299 1.60915 22.6538 3.17254L24.4847 5.18299C25.2042 5.97313 26.2384 6.40152 27.3061 6.35163L30.0223 6.22469C32.1345 6.12597 33.874 7.86542 33.7753 9.97769L33.6483 12.6939C33.5984 13.7615 34.0268 14.7957 34.817 15.5153L36.8274 17.3462C38.3909 18.7701 38.3909 21.2299 36.8274 22.6538L34.817 24.4847C34.0268 25.2042 33.5984 26.2384 33.6483 27.3061L33.7053 28.5242C31.8214 28.1888 29.6817 28.3451 27.9456 29.7918C26.5661 30.9414 25.0404 31.1841 23.6628 31.0138C22.2677 30.8412 21.0494 30.2452 20.3737 29.7626C20.1179 29.5799 19.7676 29.6089 19.5454 29.8311L19.5157 29.8609L19.4478 29.9292C18.7866 30.5949 17.8166 31.5714 16.1429 31.5714C15.2512 31.5714 14.6273 31.2962 14.2254 30.8824C13.8205 30.4656 13.5714 29.8366 13.5714 29C13.5714 28.8164 13.4929 28.6416 13.3558 28.5196C13.2186 28.3976 13.0358 28.3401 12.8535 28.3615C11.0501 28.5737 9.07291 28.6228 7.57327 28.1607C7.09258 28.0125 6.67877 27.8171 6.33926 27.5706L6.35163 27.3061C6.40152 26.2384 5.97313 25.2042 5.18299 24.4847L3.17254 22.6538C1.60915 21.2299 1.60915 18.7701 3.17254 17.3462L5.18299 15.5153C5.97313 14.7957 6.40152 13.7615 6.35163 12.6939L6.22469 9.97767C6.12597 7.86542 7.86542 6.12597 9.97769 6.22469L12.6939 6.35163C13.7615 6.40152 14.7957 5.97313 15.5153 5.18299L17.3462 3.17254ZM21.1373 12.7882C20.5271 12.1182 19.4729 12.1182 18.8627 12.7882L18.078 13.6499C17.7696 13.9885 17.3263 14.1721 16.8688 14.1507L15.7047 14.0963C14.7995 14.054 14.054 14.7995 14.0963 15.7047L14.1507 16.8688C14.1721 17.3263 13.9885 17.7696 13.6499 18.078L12.7882 18.8627C12.1182 19.4729 12.1182 20.5271 12.7882 21.1373L13.6499 21.922C13.9885 22.2304 14.1721 22.6736 14.1507 23.1312L14.0963 24.2953C14.054 25.2005 14.7995 25.946 15.7047 25.9037L16.8688 25.8493C17.3263 25.8279 17.7696 26.0115 18.078 26.3501L18.8627 27.2117C19.4729 27.8818 20.5271 27.8818 21.1373 27.2117L21.922 26.3501C22.2304 26.0115 22.6736 25.8279 23.1312 25.8493L24.2953 25.9037C25.2005 25.946 25.946 25.2005 25.9037 24.2953L25.8493 23.1312C25.8279 22.6736 26.0115 22.2304 26.3501 21.922L27.2117 21.1373C27.8818 20.5271 27.8818 19.4729 27.2117 18.8627L26.3501 18.078C26.0115 17.7696 25.8279 17.3263 25.8493 16.8688L25.9037 15.7047C25.946 14.7995 25.2005 14.054 24.2953 14.0963L23.1312 14.1507C22.6736 14.1721 22.2304 13.9885 21.922 13.6499L21.1373 12.7882ZM16.974 10.7014C16.7229 10.4504 16.7229 10.0433 16.974 9.79228L18.7923 7.974C19.0433 7.72295 19.4504 7.72295 19.7014 7.974C19.9525 8.22506 19.9525 8.63209 19.7014 8.88314L17.8831 10.7014C17.6321 10.9525 17.2251 10.9525 16.974 10.7014ZM8.20117 19.5373C8.50864 19.3598 8.61399 18.9666 8.43647 18.6592C8.25895 18.3517 7.86579 18.2463 7.55831 18.4239L5.33139 19.7096C5.02392 19.8871 4.91857 20.2803 5.09609 20.5877C5.27361 20.8952 5.66677 21.0006 5.97425 20.823L8.20117 19.5373ZM31.0777 22.8298C31.3852 23.0073 31.4906 23.4005 31.313 23.708L30.0273 25.9349C29.8498 26.2424 29.4566 26.3477 29.1492 26.1702C28.8417 25.9927 28.7363 25.5995 28.9139 25.292L30.1996 23.0651C30.3771 22.7576 30.7703 22.6523 31.0777 22.8298ZM11.078 13.2728C11.329 13.5239 11.7361 13.5239 11.9871 13.2728C12.2382 13.0218 12.2382 12.6147 11.9871 12.3637L10.1689 10.5454C9.9178 10.2944 9.51077 10.2944 9.25972 10.5454C9.00867 10.7965 9.00867 11.2035 9.25972 11.4546L11.078 13.2728ZM29.729 15.8214C29.9065 15.514 30.2997 15.4086 30.6071 15.5861L32.8341 16.8718C33.1415 17.0494 33.2469 17.4425 33.0694 17.75C32.8918 18.0575 32.4987 18.1628 32.1912 17.9853L29.9643 16.6996C29.6568 16.5221 29.5515 16.1289 29.729 15.8214ZM27.7151 8.59496C27.807 8.25202 27.6034 7.89952 27.2605 7.80763C26.9175 7.71574 26.565 7.91925 26.4732 8.2622L25.8076 10.746C25.7157 11.0889 25.9192 11.4415 26.2622 11.5333C26.6051 11.6252 26.9576 11.4217 27.0495 11.0788L27.7151 8.59496Z" fill="white"/>
<path d="M33.4985 29.7934C33.5884 29.8096 33.678 29.8271 33.7671 29.8458L33.7753 30.0223C33.874 32.1345 32.1345 33.874 30.0223 33.7753L27.3061 33.6483C26.2384 33.5984 25.2042 34.0268 24.4847 34.817L22.6538 36.8274C21.2299 38.3909 18.7701 38.3909 17.3462 36.8274L15.5153 34.817C14.7957 34.0268 13.7615 33.5984 12.6939 33.6483L9.97767 33.7753C7.86542 33.874 6.12597 32.1345 6.22469 30.0223L6.27131 29.0247C6.56563 29.1709 6.87572 29.2911 7.19459 29.3893C8.75295 29.8696 10.6478 29.8649 12.3348 29.7089C12.4497 30.513 12.768 31.2274 13.3032 31.7783C13.9941 32.4895 14.9774 32.8571 16.1429 32.8571C18.1102 32.8571 19.3639 31.8156 20.0867 31.1092C20.9297 31.6142 22.1411 32.1211 23.505 32.2898C25.1596 32.4944 27.0625 32.2014 28.7687 30.7796C30.1117 29.6603 31.8197 29.4909 33.4985 29.7934Z" fill="white"/>
</svg>
