<svg width="38" height="18" viewBox="0 0 38 18" fill="none" xmlns="http://www.w3.org/2000/svg">
<path d="M13.8536 10.064C13.8536 10.56 13.8216 11.008 13.7576 11.408H3.65359C3.73359 12.464 4.12559 13.312 4.82959 13.952C5.53359 14.592 6.39759 14.912 7.42159 14.912C8.89359 14.912 9.93359 14.296 10.5416 13.064H13.4936C13.0936 14.28 12.3656 15.28 11.3096 16.064C10.2696 16.832 8.97359 17.216 7.42159 17.216C6.15759 17.216 5.02159 16.936 4.01359 16.376C3.02159 15.8 2.23759 15 1.66159 13.976C1.10159 12.936 0.821594 11.736 0.821594 10.376C0.821594 9.016 1.09359 7.824 1.63759 6.8C2.19759 5.76 2.97359 4.96 3.96559 4.4C4.97359 3.84 6.12559 3.56 7.42159 3.56C8.66959 3.56 9.78159 3.832 10.7576 4.376C11.7336 4.92 12.4936 5.688 13.0376 6.68C13.5816 7.656 13.8536 8.784 13.8536 10.064ZM10.9976 9.2C10.9816 8.192 10.6216 7.384 9.91759 6.776C9.21359 6.168 8.34159 5.864 7.30159 5.864C6.35759 5.864 5.54959 6.168 4.87759 6.776C4.20559 7.368 3.80559 8.176 3.67759 9.2H10.9976ZM19.7381 6.008V13.328C19.7381 13.824 19.8501 14.184 20.0741 14.408C20.3141 14.616 20.7141 14.72 21.2741 14.72H22.9541V17H20.7941C19.5621 17 18.6181 16.712 17.9621 16.136C17.3061 15.56 16.9781 14.624 16.9781 13.328V6.008H15.4181V3.776H16.9781V0.487999H19.7381V3.776H22.9541V6.008H19.7381ZM24.5638 10.376C24.5638 9.016 24.8358 7.824 25.3798 6.8C25.9398 5.76 26.7078 4.96 27.6838 4.4C28.6598 3.84 29.7798 3.56 31.0438 3.56C32.6438 3.56 33.9638 3.944 35.0038 4.712C36.0598 5.464 36.7718 6.544 37.1398 7.952H34.1878C33.9478 7.296 33.5638 6.784 33.0358 6.416C32.5078 6.048 31.8438 5.864 31.0438 5.864C29.9238 5.864 29.0278 6.264 28.3558 7.064C27.6998 7.848 27.3718 8.952 27.3718 10.376C27.3718 11.8 27.6998 12.912 28.3558 13.712C29.0278 14.512 29.9238 14.912 31.0438 14.912C32.6278 14.912 33.6758 14.216 34.1878 12.824H37.1398C36.7558 14.168 36.0358 15.24 34.9798 16.04C33.9238 16.824 32.6118 17.216 31.0438 17.216C29.7798 17.216 28.6598 16.936 27.6838 16.376C26.7078 15.8 25.9398 15 25.3798 13.976C24.8358 12.936 24.5638 11.736 24.5638 10.376Z" fill="white"/>
</svg>
