<svg width="13" height="13" viewBox="0 0 13 13" fill="none" xmlns="http://www.w3.org/2000/svg">
<path d="M6.5 0.5C3.18457 0.5 0.5 3.18457 0.5 6.5C0.5 9.81543 3.18457 12.5 6.5 12.5C9.81543 12.5 12.5 9.81543 12.5 6.5C12.5 3.18457 9.81082 0.5 6.5 0.5ZM6.90061 10.0687C6.54605 10.391 6.18227 10.7732 6.02571 11.2337C5.98427 11.358 5.81389 11.3856 5.73101 11.2843C5.70338 11.2475 5.68035 11.2199 5.67114 11.2061C5.47314 10.8837 5.31658 10.5246 5.22909 10.1562C5.02187 9.24904 5.4317 8.38335 6.08097 7.69724C6.53223 7.21834 7.18611 6.93285 7.13546 6.26976C7.10322 5.84152 6.71182 5.63891 6.31581 5.64352C5.96124 5.64812 5.66193 5.76324 5.26592 5.93362C4.50154 6.25134 3.70952 6.38949 3.09708 6.05334C2.39716 5.66654 2.11627 4.78243 2.41097 4.05027C2.87606 2.90368 4.11474 2.12087 5.13699 1.70184C5.1416 1.70184 5.15081 1.69724 5.15541 1.69263C5.34421 1.61435 5.48695 1.87222 5.32118 1.99194C4.70414 2.4386 4.01343 3.31351 4.20223 3.89371C4.39563 4.50614 4.99885 4.53837 5.50077 4.44167C6.44014 4.26209 7.31044 3.79701 8.27744 3.73254C9.46086 3.65426 10.8837 4.15157 11.2015 5.40407C11.8922 8.12087 8.37414 8.7241 6.90522 10.0687H6.90061Z" fill="#EA5211"/>
</svg>
