<svg width="12" height="13" viewBox="0 0 12 13" fill="none" xmlns="http://www.w3.org/2000/svg">
<path d="M6 0.5C2.68457 0.5 0 3.18457 0 6.5C0 9.81543 2.68457 12.5 6 12.5C9.31543 12.5 12 9.81543 12 6.5C12 3.18457 9.31082 0.5 6 0.5ZM6.40061 10.0687C6.04605 10.391 5.68227 10.7732 5.52571 11.2337C5.48427 11.358 5.31389 11.3856 5.23101 11.2843C5.20338 11.2475 5.18035 11.2199 5.17114 11.2061C4.97314 10.8837 4.81658 10.5246 4.72909 10.1562C4.52187 9.24904 4.9317 8.38335 5.58097 7.69724C6.03223 7.21834 6.68611 6.93285 6.63546 6.26976C6.60322 5.84152 6.21182 5.63891 5.81581 5.64352C5.46124 5.64812 5.16193 5.76324 4.76592 5.93362C4.00154 6.25134 3.20952 6.38949 2.59708 6.05334C1.89716 5.66654 1.61627 4.78243 1.91097 4.05027C2.37606 2.90368 3.61474 2.12087 4.63699 1.70184C4.6416 1.70184 4.65081 1.69724 4.65541 1.69263C4.84421 1.61435 4.98695 1.87222 4.82118 1.99194C4.20414 2.4386 3.51343 3.31351 3.70223 3.89371C3.89563 4.50614 4.49885 4.53837 5.00077 4.44167C5.94014 4.26209 6.81044 3.79701 7.77744 3.73254C8.96086 3.65426 10.3837 4.15157 10.7015 5.40407C11.3922 8.12087 7.87414 8.7241 6.40522 10.0687H6.40061Z" fill="white" fill-opacity="0.5"/>
</svg>
