<svg width="19" height="24" viewBox="0 0 19 24" fill="none" xmlns="http://www.w3.org/2000/svg">
<g clip-path="url(#clip0_2167_88441)">
<path d="M18.283 9.56025C17.8662 8.67615 16.8789 8.1449 15.8955 8.2797C15.4545 8.33916 15.0701 8.50964 14.7625 8.75544C14.6128 8.87438 14.4024 8.87834 14.2486 8.76734L11.8045 7.02689C11.6507 6.91589 11.59 6.72162 11.6588 6.54322C11.8045 6.16658 11.845 5.74238 11.76 5.29834C11.586 4.43407 10.8819 3.72838 9.99975 3.54997C8.51467 3.24867 7.20359 4.35081 7.20359 5.75427C7.20359 6.03179 7.2562 6.29741 7.34927 6.54322C7.41806 6.71766 7.35736 6.91589 7.19954 7.02689L4.75544 8.76734C4.60167 8.87834 4.39125 8.87042 4.24153 8.75544C3.92994 8.50964 3.54552 8.33916 3.10445 8.2797C2.12114 8.1449 1.13379 8.67615 0.716996 9.56025C0.126202 10.8131 0.79388 12.2443 2.08877 12.6566C2.35584 12.7438 2.63101 12.7755 2.89808 12.7636C3.08827 12.7557 3.26227 12.8707 3.31892 13.0491L4.26581 15.8996C4.32651 16.082 4.24962 16.2762 4.08776 16.3793C3.71143 16.6211 3.3958 16.974 3.22989 17.5528C2.9952 18.3695 3.15706 19.2615 3.77618 19.8562C4.67451 20.7126 6.11507 20.7046 7.00531 19.8324C7.29666 19.547 7.48685 19.2021 7.58801 18.8373C7.63657 18.6589 7.80653 18.536 7.99671 18.536H10.9992C11.1935 18.536 11.3594 18.6629 11.412 18.8492C11.5536 19.3567 11.8692 19.8245 12.3912 20.1496C13.1439 20.6214 14.1394 20.6174 14.8839 20.1337C16.1343 19.3131 16.2557 17.64 15.2481 16.6529C15.1429 16.5498 15.0336 16.4665 14.9163 16.3912C14.7504 16.2841 14.6735 16.0899 14.7342 15.9075L15.6811 13.053C15.7418 12.8746 15.9117 12.7597 16.1019 12.7676C16.369 12.7795 16.6401 12.7438 16.9112 12.6605C18.2061 12.2482 18.8738 10.8131 18.283 9.56421V9.56025ZM14.1596 15.7132C14.0989 15.8917 13.9289 16.0106 13.7387 15.9987C13.1115 15.967 12.4722 16.185 11.9906 16.6568C11.6993 16.9423 11.5091 17.2832 11.4079 17.644C11.3594 17.8224 11.1894 17.9453 10.9992 17.9453H7.99267C7.80248 17.9453 7.63252 17.8224 7.58397 17.644C7.4828 17.2793 7.29261 16.9343 7.00126 16.6489C6.51973 16.1771 5.88037 15.9591 5.25316 15.9908C5.06297 15.9987 4.89302 15.8798 4.83232 15.7053L3.89353 12.8707C3.83283 12.6923 3.90162 12.498 4.06348 12.3949C4.48432 12.1253 4.81614 11.717 4.98609 11.2135C5.152 10.71 5.12772 10.1946 4.95372 9.73469C4.88897 9.56025 4.94967 9.36599 5.10344 9.25498L7.55564 7.51057C7.70941 7.39956 7.91983 7.40353 8.06955 7.52246C8.46206 7.82774 8.95979 8.01407 9.50202 8.01407C10.0443 8.01407 10.542 7.8317 10.9345 7.52246C11.0842 7.40749 11.2946 7.40353 11.4484 7.51057L13.9006 9.25498C14.0544 9.36599 14.1151 9.56025 14.0503 9.73469C13.8763 10.1946 13.852 10.71 14.018 11.2135C14.1839 11.7209 14.5197 12.1253 14.9406 12.3949C15.0984 12.498 15.1672 12.6923 15.1105 12.8707L14.1677 15.7132H14.1596Z" fill="url(#paint0_linear_2167_88441)"/>
</g>
<defs>
<linearGradient id="paint0_linear_2167_88441" x1="1.43293" y1="5.14688" x2="20.1186" y2="9.39338" gradientUnits="userSpaceOnUse">
<stop stop-color="#72CCFF"/>
<stop offset="1" stop-color="#F9F395"/>
</linearGradient>
<clipPath id="clip0_2167_88441">
<rect width="18" height="23" fill="white" transform="translate(0.5 0.5)"/>
</clipPath>
</defs>
</svg>
