<svg width="18" height="18" viewBox="0 0 18 18" fill="none" xmlns="http://www.w3.org/2000/svg">
<path d="M9 2.5C10.4498 2.5 11.7326 3.00147 12.8271 3.98926L13.0312 4.18359C14.018 5.17496 14.4999 6.46708 14.5 8.01367C14.5 9.12175 14.0754 10.2703 13.291 11.4482C12.5071 12.6251 11.3359 13.8787 9.7959 15.21L9.79004 15.2148L9.78516 15.2197C9.67551 15.3091 9.55211 15.376 9.42188 15.4238C9.28712 15.4732 9.14569 15.5 9 15.5C8.85431 15.5 8.71288 15.4732 8.57812 15.4238C8.44789 15.376 8.32449 15.3091 8.21484 15.2197L8.20996 15.2148L8.2041 15.21C6.6641 13.8787 5.49292 12.6251 4.70898 11.4482C3.92458 10.2703 3.5 9.12175 3.5 8.01367C3.50008 6.36396 4.04841 5.00374 5.17285 3.98926L5.38086 3.80957C6.42885 2.94072 7.64092 2.5 9 2.5ZM9 7.16895C8.78628 7.16895 8.61746 7.23736 8.4668 7.38477C8.3159 7.53239 8.25003 7.69273 8.25 7.8916C8.25 8.04069 8.28706 8.16793 8.36914 8.28418L8.4668 8.39746L8.46777 8.39844C8.6184 8.5459 8.78673 8.61426 9 8.61426C9.21346 8.61426 9.38194 8.54544 9.5332 8.39746C9.68353 8.25039 9.75 8.09078 9.75 7.8916C9.74997 7.69288 9.68406 7.53303 9.53418 7.38574L9.41699 7.28906C9.29566 7.2073 9.16037 7.16895 9 7.16895Z" fill="#23B0FF" stroke="black"/>
</svg>
