<svg width="143" height="40" viewBox="0 0 143 40" fill="none" xmlns="http://www.w3.org/2000/svg">
<rect x="0.5" y="0.5" width="142" height="39" rx="19.5" fill="#132E41"/>
<rect x="0.5" y="0.5" width="142" height="39" rx="19.5" stroke="#000000"/>
<path d="M49.1936 23.5277C48.6125 23.4064 48.0635 23.5052 47.606 23.7477C47.1484 23.9902 46.6177 23.9408 46.1876 23.6804L42.2986 21.3048C41.8456 21.0308 41.6077 20.5369 41.6123 20.0115C41.6123 20.0115 41.6123 20.007 41.6123 20.0025C41.6123 19.998 41.6123 19.998 41.6123 19.9935C41.6123 19.4726 41.8502 18.9786 42.2986 18.7002L46.183 16.3246C46.6085 16.0641 47.153 16.0147 47.5922 16.2482C47.9308 16.4279 48.3243 16.5311 48.7544 16.5267C49.674 16.5087 50.5204 15.9204 50.8453 15.0717C51.4218 13.5807 50.3191 12 48.6674 12C47.8118 12 47.0112 12.4985 46.6314 13.2529C46.4484 13.6122 46.3752 13.9804 46.3889 14.3352C46.4072 14.8336 46.1327 15.3007 45.7026 15.5656L41.8136 17.9412C41.3835 18.2017 40.839 18.2466 40.3952 18.0086C39.9514 17.7706 39.3841 17.6673 38.803 17.7885C37.9337 17.9727 37.2337 18.6597 37.0507 19.513C36.7441 20.9725 37.8697 22.2613 39.3063 22.2613C39.6952 22.2613 40.0612 22.167 40.3769 22.0008C40.8299 21.7628 41.3744 21.7943 41.809 22.0592L45.698 24.4348C46.1464 24.7088 46.3889 25.2027 46.3843 25.7237C46.3843 26.0066 46.4392 26.303 46.5857 26.6173C46.938 27.3852 47.6929 27.9466 48.553 27.996C50.0309 28.0813 51.2296 26.8014 50.9597 25.3195C50.7995 24.4348 50.0858 23.7118 49.189 23.5232L49.1936 23.5277Z" fill="white"/>
<path d="M70.9522 18.392L69.1322 18.21C69.4262 17.062 69.4682 16.194 69.4682 15.34H62.3842V13.884H71.3162V14.948C71.3162 15.97 71.3162 17.062 70.9522 18.392ZM66.8082 24.818C68.5582 24.818 69.5522 24.468 69.5522 23.782C69.5522 23.082 68.5582 22.732 66.8082 22.732C65.0722 22.732 64.0782 23.082 64.0782 23.782C64.0782 24.468 65.0722 24.818 66.8082 24.818ZM66.8082 21.346C69.5942 21.346 71.3862 22.27 71.3862 23.782C71.3862 25.28 69.5942 26.204 66.8082 26.204C64.0362 26.204 62.2442 25.28 62.2442 23.782C62.2442 22.27 64.0362 21.346 66.8082 21.346ZM67.2282 19.078H72.6882V20.534H61.0822V19.078H65.3802V16.824H67.2282V19.078ZM79.6031 15.214C77.9091 15.214 76.8311 15.718 76.8311 16.628C76.8311 17.552 77.9091 18.042 79.6031 18.042C81.2831 18.042 82.3611 17.552 82.3611 16.628C82.3611 15.718 81.2831 15.214 79.6031 15.214ZM79.6031 19.512C76.8451 19.512 74.9411 18.392 74.9411 16.628C74.9411 14.878 76.8451 13.744 79.6031 13.744C82.3471 13.744 84.2651 14.878 84.2651 16.628C84.2651 18.392 82.3471 19.512 79.6031 19.512ZM85.4691 20.478V21.976H82.7671V26.19H80.8911V21.976H78.3011V26.19H76.4391V21.976H73.7931V20.478H85.4691ZM90.256 22.06C91.124 22.06 91.754 21.472 91.754 20.478C91.754 19.512 91.124 18.91 90.256 18.91C89.388 18.91 88.744 19.512 88.744 20.492C88.744 21.472 89.388 22.06 90.256 22.06ZM90.256 17.412C92.118 17.412 93.504 18.686 93.504 20.478C93.504 22.298 92.118 23.572 90.256 23.572C88.38 23.572 86.98 22.298 86.98 20.478C86.98 18.686 88.38 17.412 90.256 17.412ZM91.166 13.534V15.214H93.966V16.684H86.462V15.214H89.318V13.534H91.166ZM98.502 18.35V19.876H96.654V26.204H94.806V13.31H96.654V18.35H98.502ZM99.9849 14.64H106.173C106.173 18.588 104.843 21.808 100.265 24.02L99.2989 22.564C102.589 20.982 104.017 18.966 104.283 16.11H99.9849V14.64ZM108.147 13.296H110.009V26.19H108.147V13.296Z" fill="white"/>
<defs>
<linearGradient id="paint0_linear_2167_96932" x1="7.41158" y1="3.875" x2="105.672" y2="79.2721" gradientUnits="userSpaceOnUse">
<stop stop-color="#72CCFF"/>
<stop offset="1" stop-color="#F9F395"/>
</linearGradient>
</defs>
</svg>
