<svg width="15" height="15" viewBox="0 0 15 15" fill="none" xmlns="http://www.w3.org/2000/svg">
<rect x="0.5" y="0.5" width="14" height="14" rx="7" stroke="white" stroke-opacity="0.5"/>
<path d="M7.40441 9.07902C7.21304 9.07902 7.05164 9.01511 6.92022 8.88729C6.78849 8.75947 6.7306 8.60909 6.74655 8.43616C6.77047 8.12037 6.85021 7.84593 6.98577 7.61285C7.12133 7.37977 7.33663 7.13917 7.63168 6.89105C7.95862 6.62037 8.20773 6.38533 8.37902 6.18593C8.55062 5.98684 8.63642 5.75947 8.63642 5.50383C8.63642 5.19556 8.52686 4.93992 8.30773 4.73691C8.08828 4.5339 7.78319 4.4324 7.39245 4.4324C7.13728 4.4324 6.92007 4.48308 6.74081 4.58443C6.56123 4.68608 6.41562 4.8121 6.30398 4.96248C6.19235 5.11285 6.05487 5.21436 5.89156 5.26699C5.72793 5.31962 5.57036 5.31586 5.41885 5.25571C5.23545 5.18052 5.10993 5.05646 5.04231 4.88353C4.97437 4.7106 4.98825 4.54894 5.08394 4.39857C5.31519 4.06022 5.62618 3.77827 6.01691 3.5527C6.40765 3.32714 6.86616 3.21436 7.39245 3.21436C8.22974 3.21436 8.87373 3.43436 9.32443 3.87436C9.77481 4.31405 10 4.84218 10 5.45872C10 5.83466 9.91436 6.15616 9.74307 6.42323C9.57147 6.68999 9.30226 6.99255 8.93545 7.3309C8.66433 7.5715 8.47295 7.76699 8.36131 7.91736C8.24967 8.06774 8.17392 8.24067 8.13405 8.43616C8.10215 8.62413 8.01842 8.77827 7.88286 8.89857C7.7473 9.01887 7.58782 9.07902 7.40441 9.07902ZM7.39245 11.7858C7.12931 11.7858 6.90412 11.6975 6.71688 11.521C6.52933 11.3441 6.43556 11.1316 6.43556 10.8835C6.43556 10.6354 6.52933 10.4229 6.71688 10.2461C6.90412 10.0695 7.12931 9.98127 7.39245 9.98127C7.6556 9.98127 7.88095 10.0695 8.0685 10.2461C8.25573 10.4229 8.34935 10.6354 8.34935 10.8835C8.34935 11.1316 8.25573 11.3441 8.0685 11.521C7.88095 11.6975 7.6556 11.7858 7.39245 11.7858Z" fill="white" fill-opacity="0.5"/>
</svg>
