<svg width="12" height="19" viewBox="0 0 12 19" fill="none" xmlns="http://www.w3.org/2000/svg">
<path d="M11.8553 7.92134C11.5775 7.34927 10.9192 7.00552 10.2637 7.09274C9.96965 7.13122 9.71337 7.24153 9.50834 7.40058C9.40853 7.47754 9.26825 7.48011 9.16574 7.40828L7.53633 6.28211C7.43382 6.21028 7.39336 6.08458 7.43922 5.96914C7.53633 5.72544 7.56331 5.45095 7.50666 5.16364C7.39066 4.6044 6.92126 4.14777 6.33316 4.03234C5.34311 3.83737 4.46906 4.55053 4.46906 5.45865C4.46906 5.63822 4.50413 5.81009 4.56618 5.96914C4.61204 6.08201 4.57157 6.21028 4.46636 6.28211L2.83696 7.40828C2.73445 7.48011 2.59417 7.47497 2.49435 7.40058C2.28663 7.24153 2.03035 7.13122 1.7363 7.09274C1.08076 7.00552 0.422526 7.34927 0.144664 7.92134C-0.249199 8.73197 0.19592 9.65805 1.05918 9.92484C1.23723 9.98128 1.42067 10.0018 1.59872 9.9941C1.72551 9.98897 1.84151 10.0634 1.87928 10.1788L2.51054 12.0233C2.551 12.1413 2.49975 12.267 2.39184 12.3337C2.14095 12.4901 1.93053 12.7185 1.81993 13.093C1.66346 13.6214 1.77137 14.1986 2.18412 14.5834C2.783 15.1375 3.74338 15.1324 4.33687 14.568C4.53111 14.3833 4.6579 14.1602 4.72534 13.9242C4.75771 13.8087 4.87102 13.7292 4.99781 13.7292H6.99949C7.12898 13.7292 7.23959 13.8113 7.27466 13.9318C7.36908 14.2602 7.5795 14.5629 7.9275 14.7733C8.42927 15.0785 9.0929 15.076 9.58928 14.763C10.4229 14.232 10.5038 13.1494 9.83207 12.5107C9.76193 12.444 9.68909 12.3901 9.61086 12.3414C9.50025 12.2721 9.449 12.1464 9.48946 12.0284L10.1207 10.1814C10.1612 10.0659 10.2745 9.99154 10.4013 9.99667C10.5793 10.0044 10.7601 9.98128 10.9408 9.92741C11.8041 9.66061 12.2492 8.73197 11.8553 7.9239V7.92134ZM9.10639 11.9027C9.06592 12.0181 8.95262 12.0951 8.82583 12.0874C8.40769 12.0669 7.98145 12.208 7.66043 12.5132C7.46619 12.6979 7.3394 12.9186 7.27196 13.152C7.23959 13.2674 7.12629 13.347 6.99949 13.347H4.99511C4.86832 13.347 4.75502 13.2674 4.72264 13.152C4.6552 12.916 4.52841 12.6928 4.33418 12.5081C4.01315 12.2028 3.58692 12.0617 3.16877 12.0823C3.04198 12.0874 2.92868 12.0104 2.88821 11.8976L2.26235 10.0634C2.22189 9.94793 2.26775 9.82223 2.37565 9.75553C2.65621 9.58109 2.87742 9.31686 2.99073 8.99107C3.10133 8.66528 3.08515 8.33179 2.96915 8.03421C2.92598 7.92134 2.96645 7.79564 3.06896 7.72381L4.70376 6.59508C4.80627 6.52325 4.94655 6.52581 5.04637 6.60277C5.30804 6.8003 5.63986 6.92087 6.00135 6.92087C6.36284 6.92087 6.69466 6.80286 6.95633 6.60277C7.05615 6.52838 7.19643 6.52581 7.29894 6.59508L8.93374 7.72381C9.03625 7.79564 9.07672 7.92134 9.03355 8.03421C8.91755 8.33179 8.90137 8.66528 9.01197 8.99107C9.12258 9.31943 9.34648 9.58109 9.62704 9.75553C9.73225 9.82223 9.77811 9.94793 9.74035 10.0634L9.11178 11.9027H9.10639Z" fill="black" fill-opacity="0.5"/>
</svg>
