<svg width="18" height="18" viewBox="0 0 18 18" fill="none" xmlns="http://www.w3.org/2000/svg">
<path d="M9 9.11465C9.34375 9.11465 9.63812 8.9948 9.88313 8.75511C10.1277 8.51582 10.25 8.22803 10.25 7.89172C10.25 7.55541 10.1277 7.26741 9.88313 7.02772C9.63812 6.78843 9.34375 6.66879 9 6.66879C8.65625 6.66879 8.36208 6.78843 8.1175 7.02772C7.8725 7.26741 7.75 7.55541 7.75 7.89172C7.75 8.22803 7.8725 8.51582 8.1175 8.75511C8.36208 8.9948 8.65625 9.11465 9 9.11465ZM9 15C8.91667 15 8.83333 14.9847 8.75 14.9541C8.66667 14.9236 8.59375 14.8828 8.53125 14.8318C7.01042 13.5172 5.875 12.2969 5.125 11.171C4.375 10.0447 4 8.99236 4 8.01401C4 6.48535 4.50271 5.26752 5.50813 4.36051C6.51313 3.4535 7.67708 3 9 3C10.3229 3 11.4869 3.4535 12.4919 4.36051C13.4973 5.26752 14 6.48535 14 8.01401C14 8.99236 13.625 10.0447 12.875 11.171C12.125 12.2969 10.9896 13.5172 9.46875 14.8318C9.40625 14.8828 9.33333 14.9236 9.25 14.9541C9.16667 14.9847 9.08333 15 9 15Z" fill="#23B0FF"/>
</svg>
