<svg width="143" height="40" viewBox="0 0 143 40" fill="none" xmlns="http://www.w3.org/2000/svg">
<rect x="0.5" y="0.5" width="142" height="39" rx="19.5" fill="#132E41"/>
<rect x="0.5" y="0.5" width="142" height="39" rx="19.5" stroke="black"/>
<path d="M55.1936 23.5277C54.6125 23.4064 54.0635 23.5052 53.606 23.7477C53.1484 23.9902 52.6177 23.9408 52.1876 23.6804L48.2986 21.3048C47.8456 21.0308 47.6077 20.5369 47.6123 20.0115C47.6123 20.0115 47.6123 20.007 47.6123 20.0025C47.6123 19.998 47.6123 19.998 47.6123 19.9935C47.6123 19.4726 47.8502 18.9786 48.2986 18.7002L52.183 16.3246C52.6085 16.0641 53.153 16.0147 53.5922 16.2482C53.9308 16.4279 54.3243 16.5311 54.7544 16.5267C55.674 16.5087 56.5204 15.9204 56.8453 15.0717C57.4218 13.5807 56.3191 12 54.6674 12C53.8118 12 53.0112 12.4985 52.6314 13.2529C52.4484 13.6122 52.3752 13.9804 52.3889 14.3352C52.4072 14.8336 52.1327 15.3007 51.7026 15.5656L47.8136 17.9412C47.3835 18.2017 46.839 18.2466 46.3952 18.0086C45.9514 17.7706 45.3841 17.6673 44.803 17.7885C43.9337 17.9727 43.2337 18.6597 43.0507 19.513C42.7441 20.9725 43.8697 22.2613 45.3063 22.2613C45.6952 22.2613 46.0612 22.167 46.3769 22.0008C46.8299 21.7628 47.3744 21.7943 47.809 22.0592L51.698 24.4348C52.1464 24.7088 52.3889 25.2027 52.3843 25.7237C52.3843 26.0066 52.4392 26.303 52.5857 26.6173C52.938 27.3852 53.6929 27.9466 54.553 27.996C56.0309 28.0813 57.2296 26.8014 56.9597 25.3195C56.7995 24.4348 56.0858 23.7118 55.189 23.5232L55.1936 23.5277Z" fill="white"/>
<path d="M70.7186 25.196C68.8006 25.196 67.4566 24.258 66.9106 22.48C66.8686 22.368 66.9246 22.284 67.0366 22.256L68.4926 21.906C68.6046 21.878 68.6746 21.92 68.7166 22.032C69.0806 22.928 69.6686 23.348 70.7186 23.348C71.7126 23.348 72.3846 23.026 72.3846 22.256C72.3846 21.514 71.7546 21.108 70.7046 20.73L69.7946 20.408C68.1566 19.848 67.1626 18.882 67.1626 17.412C67.1626 15.732 68.6606 14.528 70.6066 14.528C72.3286 14.528 73.6166 15.326 74.1346 17.034C74.1766 17.146 74.1206 17.23 74.0086 17.258L72.4686 17.65C72.3566 17.678 72.2866 17.636 72.2446 17.524C71.9086 16.684 71.3766 16.376 70.6066 16.376C69.7106 16.376 69.1226 16.754 69.1226 17.356C69.1226 18 69.6546 18.42 70.8586 18.826L71.5866 19.064C73.4486 19.68 74.3446 20.562 74.3446 22.256C74.3446 23.964 72.8606 25.196 70.7186 25.196ZM77.2661 25H75.8101C75.6981 25 75.6281 24.93 75.6281 24.818V14.682C75.6281 14.57 75.6981 14.5 75.8101 14.5H77.2661C77.3781 14.5 77.4481 14.57 77.4481 14.682V18.644C77.9941 17.944 78.8481 17.608 79.7301 17.608C81.4101 17.608 82.3761 18.616 82.3761 20.282V24.818C82.3761 24.93 82.3061 25 82.1941 25H80.7381C80.6261 25 80.5561 24.93 80.5561 24.818V21.024C80.5561 19.82 80.1221 19.26 79.1701 19.26C78.2881 19.26 77.4481 19.918 77.4481 21.304V24.818C77.4481 24.93 77.3781 25 77.2661 25ZM87.0557 25.14C84.9837 25.14 83.6677 23.6 83.6677 21.374C83.6677 19.148 84.9837 17.608 87.0557 17.608C88.0637 17.608 88.9037 18.028 89.4217 18.742L89.4637 17.93C89.4637 17.804 89.5477 17.748 89.6597 17.748H90.9757C91.0877 17.748 91.1577 17.818 91.1577 17.93V24.818C91.1577 24.93 91.0877 25 90.9757 25H89.6597C89.5477 25 89.4637 24.944 89.4637 24.818L89.4217 24.006C88.9037 24.72 88.0637 25.14 87.0557 25.14ZM87.5037 23.488C88.6657 23.488 89.4637 22.62 89.4637 21.374C89.4637 20.128 88.6657 19.26 87.5037 19.26C86.3417 19.26 85.5437 20.128 85.5437 21.374C85.5437 22.62 86.3417 23.488 87.5037 23.488ZM94.5545 25H93.0985C92.9865 25 92.9165 24.93 92.9165 24.818V17.93C92.9165 17.818 92.9865 17.748 93.0985 17.748H94.4145C94.5265 17.748 94.6105 17.804 94.6105 17.93L94.6525 18.84C95.1425 18.056 95.9965 17.65 96.8645 17.65C97.0745 17.65 97.2145 17.664 97.3545 17.692C97.4665 17.72 97.5085 17.79 97.5085 17.888V19.33C97.5085 19.456 97.4385 19.498 97.3125 19.484C97.1305 19.47 96.9205 19.428 96.6405 19.428C95.6605 19.428 94.7365 20.1 94.7365 21.248V24.818C94.7365 24.93 94.6665 25 94.5545 25ZM101.712 25.14C99.43 25.14 98.044 23.572 98.044 21.374C98.044 19.176 99.43 17.608 101.712 17.608C103.938 17.608 105.212 19.26 105.142 21.752C105.128 21.878 105.058 21.934 104.946 21.934H99.976C100.144 22.928 100.76 23.53 101.726 23.53C102.468 23.53 102.986 23.25 103.322 22.704C103.378 22.606 103.462 22.592 103.56 22.62L104.806 23.054C104.918 23.096 104.96 23.18 104.904 23.292C104.26 24.566 103.056 25.14 101.712 25.14ZM100.004 20.576H103.196C103.028 19.722 102.482 19.218 101.698 19.218C100.844 19.218 100.228 19.708 100.004 20.576Z" fill="white"/>
</svg>
