<svg width="143" height="40" viewBox="0 0 143 40" fill="none" xmlns="http://www.w3.org/2000/svg">
<rect x="0.5" y="0.5" width="142" height="39" rx="19.5" fill="#132E41"/>
<rect x="0.5" y="0.5" width="142" height="39" rx="19.5" stroke="black"/>
<path d="M63.4166 23.0824C63.4554 23.2633 63.4136 23.4531 63.3032 23.6013C63.1808 23.7704 62.9808 23.8712 62.7689 23.8712C62.6077 23.8712 62.4525 23.8119 62.3331 23.7081L59.7245 21.4159C59.5992 21.3062 59.5783 21.1194 59.6768 20.986C59.7753 20.8496 59.9603 20.811 60.1036 20.894L63.1002 22.6524C63.2614 22.7473 63.3748 22.9045 63.4106 23.0854L63.4166 23.0824ZM63.8404 18.2342C63.8225 18.2342 63.8016 18.2342 63.7807 18.2342L59.9723 18.5692C59.8051 18.5841 59.6768 18.7234 59.6768 18.8895C59.6768 19.0556 59.8051 19.1949 59.9723 19.2098L63.7807 19.5448C63.8016 19.5448 63.8195 19.5448 63.8404 19.5448C64.2045 19.5448 64.5 19.2513 64.5 18.8836C64.5 18.5159 64.2045 18.2282 63.8404 18.2282V18.2342ZM59.6798 16.8019C59.7783 16.9354 59.9633 16.9739 60.1066 16.8909L63.1032 15.1325C63.2643 15.0376 63.3778 14.8804 63.4136 14.6995C63.4524 14.5187 63.4106 14.3289 63.3002 14.1806C63.1778 14.0116 62.9778 13.9108 62.7659 13.9108C62.6047 13.9108 62.4495 13.9701 62.3301 14.0768L59.7215 16.369C59.5962 16.4787 59.5753 16.6655 59.6738 16.799L59.6798 16.8019ZM57.7785 11.9922C58.1128 12.3125 58.3038 12.7869 58.3038 13.294V24.6214C58.3038 25.1285 58.1128 25.6029 57.7785 25.9232C57.4472 26.2404 57.0144 26.4184 56.5578 26.4184C56.3459 26.4184 56.137 26.3798 55.937 26.3057L50.8959 23.9097C50.8959 23.9097 50.881 23.9097 50.875 23.9097C50.8511 23.9097 50.8392 23.9186 50.8302 23.9275C50.8153 23.9483 50.8213 23.9661 50.8242 23.972L51.7555 26.8246C51.8957 27.2546 51.8002 27.7142 51.5047 28.0582C51.26 28.3399 50.8899 28.5 50.484 28.5H48.7827C48.1798 28.5 47.6515 28.1175 47.4635 27.5481L45.9503 22.9164C45.9264 22.8393 45.8548 22.7889 45.7742 22.7889H44.5266C43.4103 22.7889 42.5 21.8874 42.5 20.7754V17.0955C42.5 15.9865 43.4073 15.0821 44.5266 15.0821H48.2903C48.6156 15.0821 48.9409 15.0079 49.2334 14.8656L55.8892 11.6334C56.1101 11.5415 56.3339 11.5 56.5608 11.5C57.0144 11.5 57.4472 11.675 57.7785 11.9922ZM57.292 13.2732C57.292 13.0568 57.2174 12.8581 57.0861 12.7276C56.9428 12.5853 56.7578 12.5082 56.5667 12.5082C56.4742 12.5082 56.3787 12.526 56.2981 12.5586L49.4901 15.8353C49.126 16.0102 48.7201 16.1021 48.3141 16.1021L44.5326 16.0932C43.9744 16.0932 43.5237 16.544 43.5237 17.0985V20.7784C43.5237 21.3329 43.9774 21.7836 44.5355 21.7836H45.8846C46.3443 21.7836 46.7502 22.0772 46.8934 22.5131L48.4395 27.2427C48.4902 27.3969 48.6305 27.4977 48.7947 27.4977H50.5049C50.6123 27.4977 50.7108 27.4562 50.7616 27.388C50.8153 27.3139 50.8302 27.2249 50.8034 27.1389L49.8065 24.0847C49.7139 23.8 49.7617 23.4976 49.9378 23.2544C50.1139 23.0112 50.3974 22.8689 50.6929 22.8689C50.8302 22.8689 50.9615 22.8986 51.0869 22.9579L56.322 25.3746C56.3966 25.4013 56.4832 25.4191 56.5727 25.4191C56.7279 25.4191 56.8801 25.3687 57.0115 25.2708C57.1935 25.1374 57.301 24.9001 57.301 24.6422V13.2732H57.292Z" fill="white"/>
<path d="M73.8436 25.196C71.9256 25.196 70.5816 24.258 70.0356 22.48C69.9936 22.368 70.0496 22.284 70.1616 22.256L71.6176 21.906C71.7296 21.878 71.7996 21.92 71.8416 22.032C72.2056 22.928 72.7936 23.348 73.8436 23.348C74.8376 23.348 75.5096 23.026 75.5096 22.256C75.5096 21.514 74.8796 21.108 73.8296 20.73L72.9196 20.408C71.2816 19.848 70.2876 18.882 70.2876 17.412C70.2876 15.732 71.7856 14.528 73.7316 14.528C75.4536 14.528 76.7416 15.326 77.2596 17.034C77.3016 17.146 77.2456 17.23 77.1336 17.258L75.5936 17.65C75.4816 17.678 75.4116 17.636 75.3696 17.524C75.0336 16.684 74.5016 16.376 73.7316 16.376C72.8356 16.376 72.2476 16.754 72.2476 17.356C72.2476 18 72.7796 18.42 73.9836 18.826L74.7116 19.064C76.5736 19.68 77.4696 20.562 77.4696 22.256C77.4696 23.964 75.9856 25.196 73.8436 25.196ZM79.6631 16.46C79.0611 16.46 78.5991 16.054 78.5991 15.452C78.5991 14.85 79.0611 14.444 79.6631 14.444C80.2651 14.444 80.7271 14.85 80.7271 15.452C80.7271 16.054 80.2651 16.46 79.6631 16.46ZM80.3911 25H78.9351C78.8231 25 78.7531 24.93 78.7531 24.818V17.93C78.7531 17.818 78.8231 17.748 78.9351 17.748H80.3911C80.5031 17.748 80.5731 17.818 80.5731 17.93V24.818C80.5731 24.93 80.5031 25 80.3911 25ZM83.9699 25H82.5139C82.4019 25 82.3319 24.93 82.3319 24.818V17.93C82.3319 17.818 82.4019 17.748 82.5139 17.748H83.8299C83.9419 17.748 84.0259 17.804 84.0259 17.93L84.0679 18.84C84.5579 18.056 85.4119 17.65 86.2799 17.65C86.4899 17.65 86.6299 17.664 86.7699 17.692C86.8819 17.72 86.9239 17.79 86.9239 17.888V19.33C86.9239 19.456 86.8539 19.498 86.7279 19.484C86.5459 19.47 86.3359 19.428 86.0559 19.428C85.0759 19.428 84.1519 20.1 84.1519 21.248V24.818C84.1519 24.93 84.0819 25 83.9699 25ZM91.1274 25.14C88.8454 25.14 87.4594 23.572 87.4594 21.374C87.4594 19.176 88.8454 17.608 91.1274 17.608C93.3534 17.608 94.6274 19.26 94.5574 21.752C94.5434 21.878 94.4734 21.934 94.3614 21.934H89.3914C89.5594 22.928 90.1754 23.53 91.1414 23.53C91.8834 23.53 92.4014 23.25 92.7374 22.704C92.7934 22.606 92.8774 22.592 92.9754 22.62L94.2214 23.054C94.3334 23.096 94.3754 23.18 94.3194 23.292C93.6754 24.566 92.4714 25.14 91.1274 25.14ZM89.4194 20.576H92.6114C92.4434 19.722 91.8974 19.218 91.1134 19.218C90.2594 19.218 89.6434 19.708 89.4194 20.576ZM97.4028 25H95.9468C95.8348 25 95.7648 24.93 95.7648 24.818V17.93C95.7648 17.818 95.8348 17.748 95.9468 17.748H97.2628C97.3748 17.748 97.4588 17.804 97.4588 17.93L97.5008 18.756C98.0328 17.986 98.9428 17.608 99.8668 17.608C101.547 17.608 102.513 18.616 102.513 20.282V24.818C102.513 24.93 102.443 25 102.331 25H100.875C100.763 25 100.693 24.93 100.693 24.818V21.024C100.693 19.82 100.259 19.26 99.3068 19.26C98.4248 19.26 97.5848 19.918 97.5848 21.304V24.818C97.5848 24.93 97.5148 25 97.4028 25Z" fill="white"/>
</svg>
