<svg width="16" height="16" viewBox="0 0 16 16" fill="none" xmlns="http://www.w3.org/2000/svg">
<path d="M7.995 3C5.235 3 3 5.24 3 8C3 10.76 5.235 13 7.995 13C10.76 13 13 10.76 13 8C13 5.24 10.76 3 7.995 3ZM9.99895 10.0035C9.80333 10.1978 9.48741 10.197 9.2927 10.0019L8.05892 8.76522C7.701 8.40647 7.5 7.9204 7.5 7.41365V6C7.5 5.72386 7.72386 5.5 8 5.5C8.27614 5.5 8.5 5.72386 8.5 6V7.12281C8.5 7.55321 8.67097 7.96597 8.97531 8.27031L10.0002 9.2952C10.1959 9.49095 10.1954 9.80849 9.99895 10.0035Z" fill="#23B0FF"/>
</svg>
