<svg width="143" height="40" viewBox="0 0 143 40" fill="none" xmlns="http://www.w3.org/2000/svg">
<rect x="0.5" y="0.5" width="142" height="39" rx="19.5" fill="#132E41"/>
<rect x="0.5" y="0.5" width="142" height="39" rx="19.5" stroke="#000000"/>
<path d="M60.9166 23.0824C60.9554 23.2633 60.9136 23.4531 60.8032 23.6013C60.6808 23.7704 60.4808 23.8712 60.2689 23.8712C60.1077 23.8712 59.9525 23.8119 59.8331 23.7081L57.2245 21.4159C57.0992 21.3062 57.0783 21.1194 57.1768 20.986C57.2753 20.8496 57.4603 20.811 57.6036 20.894L60.6002 22.6524C60.7614 22.7473 60.8748 22.9045 60.9106 23.0854L60.9166 23.0824ZM61.3404 18.2342C61.3225 18.2342 61.3016 18.2342 61.2807 18.2342L57.4723 18.5692C57.3051 18.5841 57.1768 18.7234 57.1768 18.8895C57.1768 19.0556 57.3051 19.1949 57.4723 19.2098L61.2807 19.5448C61.3016 19.5448 61.3195 19.5448 61.3404 19.5448C61.7045 19.5448 62 19.2513 62 18.8836C62 18.5159 61.7045 18.2282 61.3404 18.2282V18.2342ZM57.1798 16.8019C57.2783 16.9354 57.4633 16.9739 57.6066 16.8909L60.6032 15.1325C60.7643 15.0376 60.8778 14.8804 60.9136 14.6995C60.9524 14.5187 60.9106 14.3289 60.8002 14.1806C60.6778 14.0116 60.4778 13.9108 60.2659 13.9108C60.1047 13.9108 59.9495 13.9701 59.8301 14.0768L57.2215 16.369C57.0962 16.4787 57.0753 16.6655 57.1738 16.799L57.1798 16.8019ZM55.2785 11.9922C55.6128 12.3125 55.8038 12.7869 55.8038 13.294V24.6214C55.8038 25.1285 55.6128 25.6029 55.2785 25.9232C54.9472 26.2404 54.5144 26.4184 54.0578 26.4184C53.8459 26.4184 53.637 26.3798 53.437 26.3057L48.3959 23.9097C48.3959 23.9097 48.381 23.9097 48.375 23.9097C48.3511 23.9097 48.3392 23.9186 48.3302 23.9275C48.3153 23.9483 48.3213 23.9661 48.3242 23.972L49.2555 26.8246C49.3957 27.2546 49.3002 27.7142 49.0047 28.0582C48.76 28.3399 48.3899 28.5 47.984 28.5H46.2827C45.6798 28.5 45.1515 28.1175 44.9635 27.5481L43.4503 22.9164C43.4264 22.8393 43.3548 22.7889 43.2742 22.7889H42.0266C40.9103 22.7889 40 21.8874 40 20.7754V17.0955C40 15.9865 40.9073 15.0821 42.0266 15.0821H45.7903C46.1156 15.0821 46.4409 15.0079 46.7334 14.8656L53.3892 11.6334C53.6101 11.5415 53.8339 11.5 54.0608 11.5C54.5144 11.5 54.9472 11.675 55.2785 11.9922ZM54.792 13.2732C54.792 13.0568 54.7174 12.8581 54.5861 12.7276C54.4428 12.5853 54.2578 12.5082 54.0667 12.5082C53.9742 12.5082 53.8787 12.526 53.7981 12.5586L46.9901 15.8353C46.626 16.0102 46.2201 16.1021 45.8141 16.1021L42.0326 16.0932C41.4744 16.0932 41.0237 16.544 41.0237 17.0985V20.7784C41.0237 21.3329 41.4774 21.7836 42.0355 21.7836H43.3846C43.8443 21.7836 44.2502 22.0772 44.3934 22.5131L45.9395 27.2427C45.9902 27.3969 46.1305 27.4977 46.2947 27.4977H48.0049C48.1123 27.4977 48.2108 27.4562 48.2616 27.388C48.3153 27.3139 48.3302 27.2249 48.3034 27.1389L47.3065 24.0847C47.2139 23.8 47.2617 23.4976 47.4378 23.2544C47.6139 23.0112 47.8974 22.8689 48.1929 22.8689C48.3302 22.8689 48.4615 22.8986 48.5869 22.9579L53.822 25.3746C53.8966 25.4013 53.9832 25.4191 54.0727 25.4191C54.2279 25.4191 54.3801 25.3687 54.5115 25.2708C54.6935 25.1374 54.801 24.9001 54.801 24.6422V13.2732H54.792Z" fill="white"/>
<path d="M72.6696 14.304V16.18C72.6696 18.504 73.5796 20.842 75.6516 21.864L74.5316 23.32C73.1876 22.634 72.2776 21.388 71.7456 19.848C71.1856 21.486 70.2196 22.844 68.7636 23.558L67.6576 22.06C69.8276 21.038 70.8076 18.574 70.8076 16.18V14.304H72.6696ZM79.8936 18.266V19.806H78.0176V26.204H76.1696V13.31H78.0176V18.266H79.8936ZM89.4965 13.296H91.3445V26.232H89.4965V13.296ZM84.4145 14.206C86.3605 14.206 87.8025 15.97 87.8025 18.798C87.8025 21.64 86.3605 23.418 84.4145 23.418C82.4685 23.418 81.0265 21.64 81.0265 18.798C81.0265 15.97 82.4685 14.206 84.4145 14.206ZM84.4145 15.872C83.4625 15.872 82.8045 16.894 82.8045 18.798C82.8045 20.716 83.4625 21.738 84.4145 21.738C85.3665 21.738 86.0245 20.716 86.0245 18.798C86.0245 16.894 85.3665 15.872 84.4145 15.872ZM104.391 13.31V22.998H102.641V13.31H104.391ZM100.037 22.718V18.014H98.8895V16.53H100.037V13.548H101.759V22.718H100.037ZM99.2535 19.484L99.4215 20.926C97.9655 21.192 96.7055 21.22 94.8015 21.22H93.9195V17.048H96.6635V15.718H93.9055V14.276H98.4555V18.392H95.7115V19.764C97.0695 19.736 98.0775 19.68 99.2535 19.484ZM97.5595 24.51H104.713V25.98H95.7115V22.074H97.5595V24.51Z" fill="white"/>
<defs>
<linearGradient id="paint0_linear_2167_96927" x1="7.41158" y1="3.875" x2="105.672" y2="79.2721" gradientUnits="userSpaceOnUse">
<stop stop-color="#72CCFF"/>
<stop offset="1" stop-color="#F9F395"/>
</linearGradient>
</defs>
</svg>
