<svg width="16" height="16" viewBox="0 0 16 16" fill="none" xmlns="http://www.w3.org/2000/svg">
<rect width="16" height="16" fill="#333333"/>
<path d="M-16511 -2521C-16511 -2522.1 -16510.1 -2523 -16509 -2523H5633C5634.11 -2523 5635 -2522.1 5635 -2521V9115C5635 9116.1 5634.11 9117 5633 9117H-16509C-16510.1 9117 -16511 9116.1 -16511 9115V-2521Z" fill="#383838"/>
<path d="M-16509 -2523V-2522H5633V-2523V-2524H-16509V-2523ZM5635 -2521H5634V9115H5635H5636V-2521H5635ZM5633 9117V9116H-16509V9117V9118H5633V9117ZM-16511 9115H-16510V-2521H-16511H-16512V9115H-16511ZM-16509 9117V9116C-16509.6 9116 -16510 9115.55 -16510 9115H-16511H-16512C-16512 9116.66 -16510.7 9118 -16509 9118V9117ZM5635 9115H5634C5634 9115.55 5633.55 9116 5633 9116V9117V9118C5634.66 9118 5636 9116.66 5636 9115H5635ZM5633 -2523V-2522C5633.55 -2522 5634 -2521.55 5634 -2521H5635H5636C5636 -2522.66 5634.66 -2524 5633 -2524V-2523ZM-16509 -2523V-2524C-16510.7 -2524 -16512 -2522.66 -16512 -2521H-16511H-16510C-16510 -2521.55 -16509.6 -2522 -16509 -2522V-2523Z" fill="white" fill-opacity="0.1"/>
<g clip-path="url(#clip0_636_57971)">
<rect width="360" height="1188" transform="translate(-16 -1113)" fill="#EAF8FF"/>
<path d="M7.99512 2.5C11.0359 2.50006 13.5 4.96357 13.5 8C13.5 11.0364 11.0359 13.4999 7.99512 13.5C4.95832 13.5 2.5 11.0355 2.5 8C2.5 4.96451 4.95832 2.5 7.99512 2.5ZM8 7.41406C8.00011 7.78826 8.14879 8.14719 8.41309 8.41211L8.59766 8.59668C8.21554 8.20128 8.00006 7.67386 8 7.12305V7.41406Z" fill="#23B0FF" stroke="black"/>
</g>
<path d="M-367 1328C-367 1329.1 -366.105 1330 -365 1330C-363.895 1330 -363 1329.1 -363 1328H-365H-367ZM349.086 -520.414C348.305 -519.633 348.305 -518.367 349.086 -517.586L361.814 -504.858C362.595 -504.077 363.861 -504.077 364.642 -504.858C365.423 -505.639 365.423 -506.905 364.642 -507.686L353.328 -519L364.642 -530.314C365.423 -531.095 365.423 -532.361 364.642 -533.142C363.861 -533.923 362.595 -533.923 361.814 -533.142L349.086 -520.414ZM-365 1328H-363V1300.5H-365H-367V1328H-365ZM-341 1276.5V1278.5H-102V1276.5V1274.5H-341V1276.5ZM-78 1252.5H-76V313H-78H-80V1252.5H-78ZM-54 289V291H369V289V287H-54V289ZM393 265H395V-495H393H391V265H393ZM369 -519V-521H350.5V-519V-517H369V-519ZM393 -495H395C395 -509.359 383.359 -521 369 -521V-519V-517C381.15 -517 391 -507.15 391 -495H393ZM369 289V291C383.359 291 395 279.359 395 265H393H391C391 277.15 381.15 287 369 287V289ZM-78 313H-76C-76 300.85 -66.1503 291 -54 291V289V287C-68.3594 287 -80 298.641 -80 313H-78ZM-102 1276.5V1278.5C-87.6406 1278.5 -76 1266.86 -76 1252.5H-78H-80C-80 1264.65 -89.8497 1274.5 -102 1274.5V1276.5ZM-365 1300.5H-363C-363 1288.35 -353.15 1278.5 -341 1278.5V1276.5V1274.5C-355.359 1274.5 -367 1286.14 -367 1300.5H-365Z" fill="#A9A9A9"/>
<defs>
<clipPath id="clip0_636_57971">
<rect width="360" height="1188" fill="white" transform="translate(-16 -1113)"/>
</clipPath>
</defs>
</svg>
