<svg width="32" height="32" viewBox="0 0 32 32" fill="none" xmlns="http://www.w3.org/2000/svg">
<path d="M22 6L26 10M6 26L7.2764 21.3199C7.35968 21.0145 7.40131 20.8619 7.46523 20.7195C7.52199 20.5931 7.59172 20.4729 7.67332 20.3609C7.76521 20.2348 7.87711 20.1229 8.1009 19.8991L18.4343 9.56569C18.6323 9.36768 18.7313 9.26867 18.8455 9.23158C18.9459 9.19895 19.0541 9.19895 19.1545 9.23158C19.2687 9.26867 19.3677 9.36768 19.5657 9.56569L22.4343 12.4343C22.6323 12.6323 22.7313 12.7313 22.7684 12.8455C22.8011 12.9459 22.8011 13.0541 22.7684 13.1545C22.7313 13.2687 22.6323 13.3677 22.4343 13.5657L12.1009 23.8991C11.8771 24.1229 11.7652 24.2348 11.6391 24.3267C11.5271 24.4083 11.4069 24.478 11.2805 24.5348C11.1381 24.5987 10.9855 24.6403 10.6801 24.7236L6 26Z" stroke="white" stroke-width="1.5" stroke-linecap="round" stroke-linejoin="round"/>
</svg>
