<svg width="136" height="46" viewBox="0 0 136 46" fill="none" xmlns="http://www.w3.org/2000/svg">
<rect x="0.5" y="0.5" width="135" height="45" rx="22.5" fill="#132E41"/>
<rect x="0.5" y="0.5" width="135" height="45" rx="22.5" stroke="url(#paint0_linear_1820_56164)"/>
<rect x="0.5" y="0.5" width="135" height="45" rx="22.5" stroke="black" stroke-opacity="0.2"/>
<g clip-path="url(#clip0_1820_56164)">
<path d="M36.0645 16.2868C35.7965 16.1418 35.1069 16.2592 34.8103 16.2523C34.2029 16.3214 33.7849 15.7068 33.424 15.3373C33.0095 14.8988 32.3056 14.8884 31.8768 15.3028C31.8661 15.3131 31.8518 15.3269 31.8411 15.3373C31.6946 15.4892 31.5374 15.6791 31.3623 15.8483C31.1086 16.0935 30.8156 16.2937 30.4547 16.2523C29.9188 16.2316 29.2506 16.1073 28.8433 16.5044C28.7897 16.5561 28.7432 16.6114 28.7003 16.6804C28.2644 17.2916 28.8647 18.2722 28.2894 18.8281C28.268 18.8488 28.243 18.873 28.2144 18.8902L27.6141 19.4185C27.5998 19.4289 27.5891 19.4427 27.5784 19.453C27.1496 19.8674 27.1603 20.5476 27.6141 20.9481C28 21.2968 28.6289 21.7008 28.561 22.2878C28.5431 22.6918 28.368 23.0716 28.075 23.3547L23.9946 27.2978L22.5939 28.6513L22.2831 28.9517C21.9936 29.2314 21.9079 29.6665 22.1116 30.0083C22.4188 30.5262 23.1227 30.5884 23.5301 30.1982L23.6873 30.0463L24.1161 29.6319C24.1839 29.5663 24.2947 29.5663 24.3626 29.6319L25.4953 30.7265C25.7847 31.0061 26.2385 31.089 26.5886 30.8922C26.5994 30.8853 26.6101 30.8749 26.6208 30.868C26.6815 30.8301 26.7351 30.7921 26.7816 30.7472C27.1318 30.4088 27.1318 29.8598 26.7816 29.5214L25.6239 28.4027C25.556 28.3371 25.556 28.2301 25.6239 28.1645L26.2206 27.5879C26.2885 27.5223 26.3993 27.5223 26.4672 27.5879L27.5998 28.6824C27.8821 28.9552 28.318 29.045 28.6718 28.862C28.7575 28.8171 28.829 28.7653 28.8933 28.7031C29.2435 28.3647 29.2435 27.8158 28.8933 27.4774L27.7356 26.3587C27.6677 26.2931 27.6677 26.186 27.7356 26.1204L29.3256 24.5839C29.6651 24.2559 30.1332 24.0625 30.6084 24.1143C30.8764 24.142 31.1229 24.2283 31.2944 24.4355L31.8411 25.0155C32.2556 25.454 32.9595 25.4644 33.3882 25.0501C33.399 25.0397 33.4133 25.0259 33.424 25.0155L33.9707 24.4355C33.9921 24.4113 34.01 24.3906 34.0314 24.3698C34.6495 23.7725 35.7786 24.4631 36.3932 23.8657C36.4039 23.8554 36.4147 23.845 36.4254 23.8312C36.4432 23.8174 36.4575 23.8036 36.4754 23.7898C36.8541 23.4238 36.7112 22.7298 36.7005 22.2705C36.6576 21.9218 36.8649 21.6387 37.1221 21.3935C37.2972 21.2243 37.4937 21.0724 37.6509 20.9309C37.6652 20.9205 37.676 20.9067 37.6867 20.8963C38.1154 20.482 38.1047 19.8018 37.6509 19.4013C37.3758 19.1492 36.8291 18.7694 36.7434 18.3999C36.5754 17.6162 37.1007 16.7115 36.0645 16.2696V16.2868ZM34.6031 22.0806C33.5919 23.0578 31.9483 23.0578 30.9371 22.0806C29.9259 21.1035 29.9259 19.5152 30.9371 18.5381C31.9483 17.5609 33.5919 17.5609 34.6031 18.5381C35.6143 19.5152 35.6143 21.1035 34.6031 22.0806Z" fill="#78CEFB"/>
</g>
<path d="M48.0965 28.196C47.0979 28.196 46.2205 27.9767 45.4645 27.538C44.7085 27.0993 44.1205 26.4787 43.7005 25.676C43.2899 24.864 43.0845 23.926 43.0845 22.862C43.0845 21.798 43.2992 20.8647 43.7285 20.062C44.1579 19.25 44.7552 18.6247 45.5205 18.186C46.2859 17.7473 47.1539 17.528 48.1245 17.528C49.1979 17.528 50.1125 17.7707 50.8685 18.256C51.6245 18.732 52.1752 19.4087 52.5205 20.286C52.5299 20.3047 52.5345 20.3327 52.5345 20.37C52.5345 20.454 52.4925 20.5053 52.4085 20.524L50.9105 20.944L50.8545 20.958C50.7705 20.958 50.7145 20.916 50.6865 20.832C50.4439 20.3653 50.1032 20.006 49.6645 19.754C49.2352 19.502 48.7312 19.376 48.1525 19.376C47.1819 19.376 46.4212 19.6933 45.8705 20.328C45.3199 20.9533 45.0445 21.798 45.0445 22.862C45.0445 23.926 45.3199 24.7753 45.8705 25.41C46.4305 26.0353 47.1912 26.348 48.1525 26.348C48.8245 26.348 49.3939 26.1893 49.8605 25.872C50.3365 25.5547 50.6865 25.0787 50.9105 24.444C50.9479 24.332 51.0225 24.29 51.1345 24.318L52.6185 24.738C52.7305 24.766 52.7725 24.8267 52.7445 24.92C52.4645 25.9187 51.9232 26.7167 51.1205 27.314C50.3179 27.902 49.3099 28.196 48.0965 28.196ZM54.6188 28C54.4975 28 54.4368 27.9393 54.4368 27.818V17.906C54.4368 17.7847 54.4975 17.724 54.6188 17.724H56.1448C56.2661 17.724 56.3268 17.7847 56.3268 17.906V21.84H61.0868V17.906C61.0868 17.7847 61.1475 17.724 61.2688 17.724H62.7948C62.9161 17.724 62.9768 17.7847 62.9768 17.906V27.818C62.9768 27.9393 62.9161 28 62.7948 28H61.2688C61.1475 28 61.0868 27.9393 61.0868 27.818V23.618H56.3268V27.818C56.3268 27.9393 56.2661 28 56.1448 28H54.6188ZM65.2522 28C65.1309 28 65.0702 27.9393 65.0702 27.818V17.906C65.0702 17.7847 65.1309 17.724 65.2522 17.724H71.7482C71.8696 17.724 71.9302 17.7847 71.9302 17.906V19.32C71.9302 19.4413 71.8696 19.502 71.7482 19.502H66.9602V21.84H71.2862C71.4076 21.84 71.4682 21.9007 71.4682 22.022V23.408C71.4682 23.5293 71.4076 23.59 71.2862 23.59H66.9602V26.222H71.9162C72.0376 26.222 72.0982 26.2827 72.0982 26.404V27.818C72.0982 27.9393 72.0376 28 71.9162 28H65.2522ZM78.2879 28.196C77.2892 28.196 76.4119 27.9767 75.6559 27.538C74.8999 27.0993 74.3119 26.4787 73.8919 25.676C73.4812 24.864 73.2759 23.926 73.2759 22.862C73.2759 21.798 73.4905 20.8647 73.9199 20.062C74.3492 19.25 74.9465 18.6247 75.7119 18.186C76.4772 17.7473 77.3452 17.528 78.3159 17.528C79.3892 17.528 80.3039 17.7707 81.0599 18.256C81.8159 18.732 82.3665 19.4087 82.7119 20.286C82.7212 20.3047 82.7259 20.3327 82.7259 20.37C82.7259 20.454 82.6839 20.5053 82.5999 20.524L81.1019 20.944L81.0459 20.958C80.9619 20.958 80.9059 20.916 80.8779 20.832C80.6352 20.3653 80.2945 20.006 79.8559 19.754C79.4265 19.502 78.9225 19.376 78.3439 19.376C77.3732 19.376 76.6125 19.6933 76.0619 20.328C75.5112 20.9533 75.2359 21.798 75.2359 22.862C75.2359 23.926 75.5112 24.7753 76.0619 25.41C76.6219 26.0353 77.3825 26.348 78.3439 26.348C79.0159 26.348 79.5852 26.1893 80.0519 25.872C80.5279 25.5547 80.8779 25.0787 81.1019 24.444C81.1392 24.332 81.2139 24.29 81.3259 24.318L82.8099 24.738C82.9219 24.766 82.9639 24.8267 82.9359 24.92C82.6559 25.9187 82.1145 26.7167 81.3119 27.314C80.5092 27.902 79.5012 28.196 78.2879 28.196ZM84.8101 28C84.6888 28 84.6281 27.9393 84.6281 27.818V17.906C84.6281 17.7847 84.6888 17.724 84.8101 17.724H86.3361C86.4575 17.724 86.5181 17.7847 86.5181 17.906V22.61L90.6341 17.822C90.6901 17.7567 90.7648 17.724 90.8581 17.724H92.6501C92.7528 17.724 92.8041 17.7613 92.8041 17.836C92.8041 17.8733 92.7855 17.9107 92.7481 17.948L89.5001 21.616L93.2241 27.776C93.2428 27.832 93.2521 27.8647 93.2521 27.874C93.2521 27.9113 93.2381 27.944 93.2101 27.972C93.1821 27.9907 93.1448 28 93.0981 28H91.2921C91.1988 28 91.1288 27.958 91.0821 27.874L88.2541 23.016L86.5181 24.976V27.818C86.5181 27.9393 86.4575 28 86.3361 28H84.8101ZM93.8407 23.814C93.7193 23.814 93.6587 23.7533 93.6587 23.632V22.274C93.6587 22.1527 93.7193 22.092 93.8407 22.092H98.0267C98.148 22.092 98.2087 22.1527 98.2087 22.274V23.632C98.2087 23.7533 98.148 23.814 98.0267 23.814H93.8407ZM100.348 28C100.227 28 100.166 27.9393 100.166 27.818V17.906C100.166 17.7847 100.227 17.724 100.348 17.724H101.874C101.996 17.724 102.056 17.7847 102.056 17.906V27.818C102.056 27.9393 101.996 28 101.874 28H100.348ZM104.337 28C104.216 28 104.155 27.9393 104.155 27.818V17.906C104.155 17.7847 104.216 17.724 104.337 17.724H105.947C106.041 17.724 106.115 17.766 106.171 17.85L110.763 24.948V17.906C110.763 17.7847 110.824 17.724 110.945 17.724H112.401C112.523 17.724 112.583 17.7847 112.583 17.906V27.818C112.583 27.9393 112.523 28 112.401 28H110.805C110.712 28 110.637 27.958 110.581 27.874L105.975 20.762V27.818C105.975 27.9393 105.915 28 105.793 28H104.337Z" fill="url(#paint1_linear_1820_56164)"/>
<defs>
<linearGradient id="paint0_linear_1820_56164" x1="7.04878" y1="4.45625" x2="112.898" y2="71.6249" gradientUnits="userSpaceOnUse">
<stop stop-color="#72CCFF"/>
<stop offset="1" stop-color="#F9F395"/>
</linearGradient>
<linearGradient id="paint1_linear_1820_56164" x1="45.7317" y1="15.7438" x2="90.9816" y2="54.5924" gradientUnits="userSpaceOnUse">
<stop stop-color="#72CCFF"/>
<stop offset="1" stop-color="#F9F395"/>
</linearGradient>
<clipPath id="clip0_1820_56164">
<rect width="16" height="16" fill="white" transform="translate(22 15)"/>
</clipPath>
</defs>
</svg>
