<svg width="136" height="46" viewBox="0 0 136 46" fill="none" xmlns="http://www.w3.org/2000/svg">
<rect x="0.5" y="0.5" width="135" height="45" rx="22.5" fill="url(#paint0_linear_2535_45066)"/>
<rect x="0.5" y="0.5" width="135" height="45" rx="22.5" stroke="black"/>
<path d="M38.5591 19.7515C38.2128 19.4254 37.5282 18.9321 37.4223 18.447C37.2104 17.4239 37.8705 16.2499 36.5707 15.6752C36.2366 15.4877 35.3646 15.6426 34.9938 15.6303C34.2319 15.72 33.7022 14.917 33.2499 14.44C32.7324 13.8694 31.8441 13.8531 31.3063 14.3952C31.29 14.4115 31.2778 14.4237 31.2615 14.44C31.0781 14.6357 30.8785 14.8844 30.6625 15.1045C30.3406 15.4265 29.9739 15.6833 29.5216 15.6303C28.8452 15.6059 28.0099 15.4428 27.4965 15.9564C27.4313 16.0216 27.3702 16.0991 27.3172 16.1847C26.7672 16.9796 27.521 18.2555 26.7998 18.981C26.7712 19.0096 26.7386 19.0381 26.706 19.0626L25.9522 19.7474C25.9359 19.7637 25.9196 19.7759 25.9074 19.7922C25.3696 20.3303 25.3859 21.2189 25.9522 21.7366C26.4371 22.1932 27.2317 22.7149 27.142 23.4813C27.1176 24.0071 26.9016 24.5003 26.5308 24.8713L23.0593 28.3443L21.7472 29.6569L21.3561 30.0482C20.9934 30.411 20.8834 30.9817 21.1401 31.426C21.5272 32.0986 22.4114 32.1801 22.9207 31.6706L23.1204 31.4708L24.3794 30.2112C24.465 30.1256 24.6035 30.1256 24.6891 30.2112L26.1152 31.6379C26.4779 32.0007 27.0483 32.1108 27.4924 31.854C27.5087 31.8458 27.5169 31.8336 27.5332 31.8214C27.6065 31.7725 27.6799 31.7236 27.7369 31.6665L29.2201 30.1827C29.6601 29.7425 29.6601 29.025 29.2201 28.5889L27.7654 27.1336C27.6799 27.048 27.6799 26.9094 27.7654 26.8238L28.1077 26.4814C28.5315 26.0575 29.1223 25.8048 29.7172 25.87C30.0554 25.9067 30.3651 26.0167 30.5769 26.2898L31.2615 27.044C31.7789 27.6146 32.6672 27.6309 33.2051 27.0888C33.2214 27.0725 33.2336 27.0603 33.2499 27.044L33.9344 26.2898C33.9589 26.2613 33.9833 26.2328 34.0118 26.2042C34.7901 25.4257 36.2081 26.3265 36.9822 25.548C36.9945 25.5357 37.0108 25.5194 37.023 25.5031C37.0434 25.4868 37.0637 25.4664 37.0841 25.4461C37.5608 24.9691 37.3815 24.0642 37.3693 23.469C37.3164 23.0166 37.5771 22.6456 37.899 22.3277C38.1191 22.1076 38.3676 21.9119 38.5632 21.7285C38.5795 21.7122 38.5958 21.6999 38.608 21.6836C39.1459 21.1456 39.1296 20.2569 38.5632 19.7392L38.5591 19.7515ZM34.729 23.2163C33.4577 24.4881 31.3919 24.4881 30.1206 23.2163C28.8493 21.9445 28.8493 19.8778 30.1206 18.606C31.3919 17.3342 33.4577 17.3342 34.729 18.606C36.0003 19.8778 36.0003 21.9445 34.729 23.2163Z" fill="#132E41"/>
<path d="M50.0965 28.196C47.0865 28.196 45.0845 26.096 45.0845 22.862C45.0845 19.628 47.1845 17.528 50.1245 17.528C52.2805 17.528 53.8345 18.536 54.5205 20.286C54.5625 20.398 54.5205 20.496 54.4085 20.524L52.9105 20.944C52.8125 20.972 52.7285 20.93 52.6865 20.832C52.1965 19.894 51.3145 19.376 50.1525 19.376C48.1925 19.376 47.0445 20.762 47.0445 22.862C47.0445 24.976 48.2065 26.348 50.1525 26.348C51.4685 26.348 52.4485 25.732 52.9105 24.444C52.9525 24.332 53.0225 24.29 53.1345 24.318L54.6185 24.738C54.7305 24.766 54.7725 24.836 54.7445 24.92C54.1985 26.852 52.6025 28.196 50.0965 28.196ZM58.1448 28H56.6188C56.5068 28 56.4368 27.93 56.4368 27.818V17.906C56.4368 17.794 56.5068 17.724 56.6188 17.724H58.1448C58.2568 17.724 58.3268 17.794 58.3268 17.906V21.84H63.0868V17.906C63.0868 17.794 63.1568 17.724 63.2688 17.724H64.7948C64.9068 17.724 64.9768 17.794 64.9768 17.906V27.818C64.9768 27.93 64.9068 28 64.7948 28H63.2688C63.1568 28 63.0868 27.93 63.0868 27.818V23.618H58.3268V27.818C58.3268 27.93 58.2568 28 58.1448 28ZM73.9162 28H67.2522C67.1402 28 67.0702 27.93 67.0702 27.818V17.906C67.0702 17.794 67.1402 17.724 67.2522 17.724H73.7482C73.8602 17.724 73.9302 17.794 73.9302 17.906V19.32C73.9302 19.432 73.8602 19.502 73.7482 19.502H68.9602V21.84H73.2862C73.3982 21.84 73.4682 21.91 73.4682 22.022V23.408C73.4682 23.52 73.3982 23.59 73.2862 23.59H68.9602V26.222H73.9162C74.0282 26.222 74.0982 26.292 74.0982 26.404V27.818C74.0982 27.93 74.0282 28 73.9162 28ZM80.2879 28.196C77.2779 28.196 75.2759 26.096 75.2759 22.862C75.2759 19.628 77.3759 17.528 80.3159 17.528C82.4719 17.528 84.0259 18.536 84.7119 20.286C84.7539 20.398 84.7119 20.496 84.5999 20.524L83.1019 20.944C83.0039 20.972 82.9199 20.93 82.8779 20.832C82.3879 19.894 81.5059 19.376 80.3439 19.376C78.3839 19.376 77.2359 20.762 77.2359 22.862C77.2359 24.976 78.3979 26.348 80.3439 26.348C81.6599 26.348 82.6399 25.732 83.1019 24.444C83.1439 24.332 83.2139 24.29 83.3259 24.318L84.8099 24.738C84.9219 24.766 84.9639 24.836 84.9359 24.92C84.3899 26.852 82.7939 28.196 80.2879 28.196ZM88.3361 28H86.8101C86.6981 28 86.6281 27.93 86.6281 27.818V17.906C86.6281 17.794 86.6981 17.724 86.8101 17.724H88.3361C88.4481 17.724 88.5181 17.794 88.5181 17.906V22.61L92.6341 17.822C92.6901 17.752 92.7741 17.724 92.8581 17.724H94.6501C94.8041 17.724 94.8461 17.836 94.7481 17.948L91.5001 21.616L95.2241 27.776C95.2941 27.902 95.2381 28 95.0981 28H93.2921C93.1941 28 93.1241 27.958 93.0821 27.874L90.2541 23.016L88.5181 24.976V27.818C88.5181 27.93 88.4481 28 88.3361 28ZM100.027 23.814H95.8407C95.7287 23.814 95.6587 23.744 95.6587 23.632V22.274C95.6587 22.162 95.7287 22.092 95.8407 22.092H100.027C100.139 22.092 100.209 22.162 100.209 22.274V23.632C100.209 23.744 100.139 23.814 100.027 23.814ZM103.874 28H102.348C102.236 28 102.166 27.93 102.166 27.818V17.906C102.166 17.794 102.236 17.724 102.348 17.724H103.874C103.986 17.724 104.056 17.794 104.056 17.906V27.818C104.056 27.93 103.986 28 103.874 28ZM107.793 28H106.337C106.225 28 106.155 27.93 106.155 27.818V17.906C106.155 17.794 106.225 17.724 106.337 17.724H107.947C108.045 17.724 108.115 17.766 108.171 17.85L112.763 24.948V17.906C112.763 17.794 112.833 17.724 112.945 17.724H114.401C114.513 17.724 114.583 17.794 114.583 17.906V27.818C114.583 27.93 114.513 28 114.401 28H112.805C112.707 28 112.637 27.958 112.581 27.874L107.975 20.762V27.818C107.975 27.93 107.905 28 107.793 28Z" fill="#132E41"/>
<defs>
<linearGradient id="paint0_linear_2535_45066" x1="7.04878" y1="4.45625" x2="112.898" y2="71.6249" gradientUnits="userSpaceOnUse">
<stop stop-color="#72CCFF"/>
<stop offset="1" stop-color="#F9F395"/>
</linearGradient>
</defs>
</svg>
