<svg width="36" height="48" viewBox="0 0 36 48" fill="none" xmlns="http://www.w3.org/2000/svg">
<path d="M18 0C26.8369 1.88776e-07 34 7.25563 34 16.2061L33.9951 16.207C33.995 21.4079 31.5767 26.0352 27.8174 29C26.1161 26.3553 23.4017 24.4402 20.2314 23.8193C21.6933 23.3197 23.1624 22.4529 24.459 21.0195C24.459 21.0195 25.1896 21.8271 26.7412 21.2305C28.8327 20.3549 30.7971 17.4919 30.5732 15.4463C30.4666 14.1404 29.1582 13.4971 27.6426 13.8584C27.3804 13.9214 27.1166 13.9733 26.8652 14.0703C27.0592 11.7542 25.5737 9.64082 22.3975 8.09473C20.6148 7.2277 18.686 7.02963 17.2266 7.04297C16.0438 7.05509 14.8837 6.78945 13.7871 6.34082C13.1202 6.06798 12.3563 6.07557 11.8486 6.2041C11.0501 6.40781 9.25888 7.28178 9.42871 9.6377C9.46463 10.1349 9.58856 10.5501 9.75977 10.8945C9.77766 10.9307 9.79635 10.966 9.81543 11.001C9.81899 11.0082 9.82262 11.0155 9.82617 11.0215C9.84528 11.0553 9.86447 11.0894 9.88477 11.1221C9.88596 11.1245 9.88845 11.1275 9.88965 11.1299C9.97819 11.2729 10.0753 11.4012 10.1758 11.5176C10.1768 11.5186 10.1784 11.5193 10.1787 11.5195C10.6408 12.0481 11.1958 12.3095 11.4951 12.4199H11.498C11.5123 12.4259 11.5268 12.4307 11.541 12.4355C11.5443 12.4356 11.5466 12.4372 11.5488 12.4375C11.5619 12.4411 11.5741 12.4466 11.5859 12.4502C11.5871 12.4514 11.5887 12.4512 11.5898 12.4512C11.6246 12.4621 11.6535 12.4705 11.6738 12.4766C11.6774 12.4778 11.6802 12.4795 11.6826 12.4795C11.6872 12.4807 11.6919 12.4824 11.6953 12.4824C11.6976 12.4836 11.6999 12.4844 11.7012 12.4844C11.7065 12.4865 11.7111 12.4863 11.7119 12.4863C10.6176 14.6121 10.5996 16.9639 10.5996 16.9639C10.3782 17.0378 10.1792 17.1188 9.99609 17.2061C9.28268 16.7757 8.49293 16.4876 7.69336 16.2852C6.8948 16.079 6.03691 15.9728 5.2168 15.917L4.38477 15.8906C4.18257 15.8883 4.17675 16.1883 4.37305 16.1992C4.85792 16.215 5.53449 16.2526 6.00977 16.3145C6.14512 16.3339 6.48351 16.3829 6.61523 16.4023C6.74201 16.4278 7.08403 16.495 7.21484 16.5205C8.03612 16.7206 8.87785 16.9846 9.62012 17.4102C9.34017 17.5811 9.11611 17.7703 8.94141 17.9727C7.61619 17.7447 6.23248 17.8623 4.9707 18.3242L4.60059 18.46C4.52521 18.4866 4.48548 18.5701 4.51172 18.6465C4.53922 18.7276 4.63025 18.7681 4.70801 18.7344L5.06738 18.6074C6.22497 18.2025 7.49394 18.0927 8.70898 18.2891C8.55584 18.5461 8.46118 18.8194 8.41211 19.1055C8.14787 20.6378 9.13427 21.8392 10.3359 22.7109C11.3523 23.4469 12.5259 23.9261 13.7529 24.1602C13.8966 24.188 14.048 24.2138 14.2061 24.2393C11.7098 25.1051 9.59288 26.7993 8.17773 28.999C4.41849 26.033 2.00014 21.4056 2 16.2061C2 7.25563 9.16313 0 18 0ZM15.9111 19.4678C17.3047 19.4496 18.6889 19.6776 19.9951 20.165C20.4321 20.3215 20.8468 20.5335 21.2539 20.7578C21.3183 20.7943 21.3435 20.8768 21.3076 20.9434V20.9424C21.2717 21.01 21.1868 21.0337 21.1211 20.9951C19.937 20.3451 18.6049 20.0075 17.2676 19.8838C16.82 19.845 16.363 19.8263 15.9238 19.8457C15.6773 19.853 15.6625 19.479 15.9111 19.4678ZM10.3818 18.3506C10.4465 17.6194 11.4156 17.1091 13.0391 17.2559C14.6637 17.4026 15.5266 18.0803 15.4619 18.8115C15.3971 19.5426 14.4289 20.0529 12.8057 19.9062C11.1811 19.7595 10.3173 19.083 10.3818 18.3506ZM16.1611 18.7119C18.0957 18.1517 20.1622 17.9786 22.1387 18.3896L22.5312 18.4785C22.6761 18.5137 22.6331 18.7369 22.4834 18.709C22.3468 18.6823 22.0301 18.6175 21.8984 18.5908C21.0616 18.4599 20.1954 18.4208 19.3525 18.4863C18.3158 18.5603 17.2645 18.75 16.2793 19.0713H16.2812C16.043 19.1537 15.9181 18.7944 16.1611 18.7119Z" fill="white" fill-opacity="0.4"/>
<path d="M11.3979 38.5156L14.0815 45.0898H14.187L16.8705 38.5156H18.4409V47H17.2104V40.8711H17.1284L14.644 46.9883H13.6245L11.1284 40.8594H11.058V47H9.82758V38.5156H11.3979ZM20.8638 38.5156L23.067 42.3594H23.1607L25.3755 38.5156H26.8404L23.7584 43.6719V47H22.4693V43.6719L19.399 38.5156H20.8638Z" fill="white" fill-opacity="0.4"/>
</svg>
