<svg width="30" height="30" viewBox="0 0 30 30" fill="none" xmlns="http://www.w3.org/2000/svg">
<g clip-path="url(#clip0_2131_18101)">
<path d="M14.3975 0.0810547C16.3751 -0.40797 17.5838 1.42848 18.7324 2.66602C19.8011 4.00305 21.8685 3.57417 23.3467 3.53418C25.1044 3.45435 26.5533 4.90093 26.4736 6.65723C26.4337 8.1243 26.0044 10.2107 27.3428 11.2686L27.332 11.2783C27.9013 11.8771 29.5094 13.0049 29.7393 13.8232C30.8779 16.7674 27.9911 17.5756 26.7227 19.5117C26.1334 20.4498 26.4339 22.3066 26.4639 23.3545C26.5437 25.1109 25.0948 26.5584 23.3369 26.4785C21.8687 26.4386 19.7813 26.0094 18.7227 27.3467C17.7739 28.3347 16.5752 30.1407 14.9873 29.9912C12.3704 30.1309 11.6011 26.0987 8.9043 26.3682L6.63672 26.4785C4.87904 26.5581 3.43093 25.1108 3.51074 23.3545L3.62109 21.0889C3.82082 19.4023 2.04235 18.2148 0.973633 17.2168C-0.324672 16.0293 -0.324444 13.9836 0.973633 12.7959L2.65137 11.2686C3.98977 10.2007 3.56046 8.13428 3.52051 6.65723C3.44087 4.90093 4.88971 3.45435 6.64746 3.53418L8.91406 3.64355C11.4009 3.913 12.2004 0.480599 14.3975 0.0810547ZM21.0098 9.66211C20.6801 9.33291 20.1508 9.33281 19.8213 9.66211L12.9102 16.5684C12.8103 16.6681 12.6401 16.6681 12.5303 16.5684L10.1934 14.2324C9.86386 13.9033 9.33448 13.9034 9.00488 14.2324L8.23535 15.001C7.90584 15.3302 7.90603 15.8591 8.23535 16.1885L12.1211 20.0713C12.4507 20.4004 12.98 20.4006 13.3096 20.0713L21.7695 11.6182C22.099 11.2889 22.0989 10.76 21.7695 10.4307L21 9.66211H21.0098Z" fill="white"/>
</g>
<defs>
<clipPath id="clip0_2131_18101">
<rect width="30" height="30" fill="white"/>
</clipPath>
</defs>
</svg>
