<svg width="32" height="28" viewBox="0 0 32 28" fill="none" xmlns="http://www.w3.org/2000/svg">
<path d="M16 0C24.5606 0 31.4999 7.00483 31.5 15.6465L31.4951 15.6475C31.4951 20.669 29.1526 25.1374 25.5107 28C23.8626 25.4465 21.2333 23.5975 18.1621 22.998C19.5781 22.5157 21.0009 21.6786 22.2568 20.2949C22.2568 20.2949 22.9648 21.0749 24.4678 20.499C26.4939 19.6537 28.3974 16.8892 28.1807 14.9141C28.0774 13.6531 26.8092 13.031 25.3408 13.3799C25.087 13.4407 24.8322 13.4914 24.5889 13.585C24.7768 11.3487 23.3368 9.30821 20.2598 7.81543C18.5329 6.9784 16.6647 6.78695 15.251 6.7998C14.1052 6.81151 12.9813 6.5552 11.9189 6.12207C11.273 5.85866 10.5328 5.86616 10.041 5.99023C9.26741 6.18693 7.53159 7.03077 7.69629 9.30566C7.73108 9.78563 7.85078 10.1861 8.0166 10.5186C8.034 10.5537 8.05273 10.5881 8.07129 10.6221C8.07472 10.629 8.07861 10.6358 8.08203 10.6416C8.1005 10.6742 8.11905 10.7068 8.13867 10.7383C8.13983 10.7406 8.1424 10.7438 8.14355 10.7461C8.22932 10.8841 8.32356 11.0078 8.4209 11.1201C8.42204 11.1213 8.42285 11.123 8.42285 11.123C8.87029 11.6331 9.40822 11.8846 9.69824 11.9912H9.70117C9.71506 11.997 9.72928 12.0022 9.74316 12.0068C9.74639 12.007 9.74876 12.0088 9.75098 12.0088C9.7637 12.0123 9.77554 12.017 9.78711 12.0205C9.78818 12.0216 9.78897 12.0215 9.79004 12.0215C9.82355 12.032 9.85139 12.041 9.87109 12.0469C9.87457 12.048 9.87756 12.0488 9.87988 12.0488C9.88442 12.05 9.88917 12.0527 9.89258 12.0527C9.89478 12.0537 9.89734 12.0537 9.89844 12.0537C9.90313 12.0555 9.90703 12.0556 9.9082 12.0557C8.84812 14.1081 8.83105 16.3789 8.83105 16.3789C8.61654 16.4503 8.42351 16.528 8.24609 16.6123C7.55496 16.1968 6.78924 15.9191 6.01465 15.7236C5.24116 15.5247 4.41055 15.422 3.61621 15.3682L2.81055 15.3428C2.61454 15.3404 2.60862 15.6301 2.79883 15.6406C3.26856 15.6558 3.92432 15.6922 4.38477 15.752C4.51595 15.7707 4.84291 15.8172 4.9707 15.8359C5.0935 15.8605 5.425 15.9265 5.55176 15.9512C6.3474 16.1444 7.16372 16.3986 7.88281 16.8096C7.61141 16.9747 7.39394 17.157 7.22461 17.3525C5.9408 17.1325 4.60029 17.2464 3.37793 17.6924L3.01953 17.8232C2.94646 17.849 2.90808 17.9301 2.93359 18.0039C2.96042 18.0821 3.04875 18.1206 3.12402 18.0879L3.47168 17.9658C4.59317 17.5748 5.82286 17.4685 7 17.6582C6.85154 17.9064 6.75947 18.17 6.71191 18.4463C6.45568 19.9261 7.41175 21.0859 8.57617 21.9277C9.56077 22.6383 10.697 23.1012 11.8857 23.3271C12.0248 23.3541 12.1712 23.3787 12.3242 23.4033C9.90606 24.2393 7.85525 25.8752 6.48438 27.999C2.84257 25.1352 0.5 20.6669 0.5 15.6465C0.500142 7.00483 7.43936 8.93292e-08 16 0ZM13.4316 18.7969C14.7772 18.7793 16.1139 18.9991 17.375 19.4697C17.7968 19.6208 18.1969 19.8264 18.5898 20.043C18.6519 20.0782 18.6761 20.1574 18.6416 20.2217V20.2207C18.6069 20.2862 18.5245 20.3099 18.4609 20.2725C17.3177 19.6449 16.0324 19.3177 14.7412 19.1982C14.309 19.1608 13.8675 19.1434 13.4434 19.1621C13.2052 19.1691 13.1912 18.8074 13.4316 18.7969ZM8.09277 17.7188C8.1552 17.0127 9.09072 16.5195 10.6582 16.6611C12.2267 16.8028 13.0603 17.4571 12.998 18.1631C12.9356 18.8691 12.0001 19.3624 10.4326 19.2207C8.86441 19.079 8.03076 18.4257 8.09277 17.7188ZM13.6738 18.0674C15.5419 17.5265 17.5378 17.359 19.4463 17.7559L19.8252 17.8408C19.9649 17.8749 19.9228 18.0904 19.7783 18.0635C19.6465 18.0377 19.3411 17.976 19.2139 17.9502C18.4058 17.8237 17.5697 17.7864 16.7559 17.8496C15.7548 17.921 14.7394 18.1038 13.7881 18.4141H13.79C13.5601 18.4936 13.4396 18.1472 13.6738 18.0674Z" fill="white" fill-opacity="0.4"/>
</svg>
