<svg width="30" height="30" viewBox="0 0 30 30" fill="none" xmlns="http://www.w3.org/2000/svg">
<circle cx="15" cy="15" r="15" fill="#D9D9D9" fill-opacity="0.15"/>
<path d="M15.0046 6.17651C15.5618 6.17665 16.1024 6.41804 16.4851 6.82593L17.3503 7.77515C17.6331 8.08323 18.0325 8.25807 18.4567 8.23315L19.738 8.17554C20.2954 8.15055 20.8445 8.35881 21.2439 8.75854C21.6432 9.15825 21.8518 9.70746 21.8269 10.2654L21.7683 11.5564C21.7517 11.9811 21.9185 12.3807 22.2263 12.6638L23.1745 13.53C23.5821 13.9047 23.8238 14.4458 23.8239 15.0037H23.7985C23.7985 15.5616 23.5651 16.1035 23.1491 16.4783L22.2009 17.3445C21.8932 17.6276 21.7272 18.0356 21.7439 18.4519L21.8015 19.7341C21.8264 20.3004 21.6188 20.8422 21.2194 21.2419C20.8201 21.6416 20.2709 21.8498 19.7136 21.825L18.4323 21.7664C18.0164 21.7414 17.6088 21.9163 17.3259 22.2244L16.4597 23.1736C16.0853 23.5815 15.5444 23.823 14.987 23.823C14.4297 23.8229 13.8887 23.5899 13.5144 23.1736L12.6491 22.2244C12.3663 21.9164 11.9757 21.7498 11.5515 21.7664L10.2614 21.825C9.70411 21.8499 9.15487 21.6416 8.75557 21.2419C8.3562 20.8422 8.14858 20.2921 8.17354 19.7341L8.23116 18.4519C8.24779 18.0273 8.0818 17.6276 7.77412 17.3445L6.82588 16.4783C6.4182 16.1035 6.17647 15.5616 6.17647 15.0037C6.17657 14.4375 6.41825 13.9047 6.84248 13.53L7.79073 12.6638C8.09847 12.3807 8.26437 11.9727 8.24776 11.5564L8.19014 10.2654C8.16521 9.69926 8.37302 9.15823 8.77217 8.75854C9.17148 8.35887 9.72067 8.15062 10.278 8.17554L11.5681 8.23315C11.9674 8.25809 12.3829 8.08321 12.6657 7.77515L13.5397 6.82593C13.9142 6.41791 14.4472 6.17651 15.0046 6.17651ZM15.2868 10.4822C15.2867 10.6487 15.1534 10.782 14.987 10.782C14.8209 10.7817 14.6883 10.6485 14.6882 10.4822V6.80151C14.4055 6.85976 14.1476 7.00909 13.948 7.22534L13.0817 8.17554C12.6825 8.61658 12.1253 8.84984 11.5183 8.82495L10.2282 8.76636C9.83723 8.74974 9.45443 8.89145 9.17159 9.17456C8.88875 9.4577 8.74772 9.83248 8.76436 10.2322L8.82198 11.5232C8.8552 12.1227 8.61446 12.6977 8.17354 13.0974L7.22432 13.9626C7.00812 14.1624 6.85878 14.4209 6.80049 14.7039H10.4948C10.661 14.704 10.7935 14.8373 10.7937 15.0037C10.7937 15.1701 10.6611 15.3034 10.4948 15.3035H6.81709C6.87533 15.5866 7.01725 15.8448 7.2419 16.0447L8.19014 16.9109C8.63111 17.319 8.86354 17.8855 8.83858 18.4851L8.78096 19.7673C8.76432 20.167 8.90544 20.5418 9.18819 20.825C9.47103 21.1081 9.84553 21.2498 10.2448 21.2332L11.5349 21.1746H11.6257C12.1831 21.1746 12.7156 21.4086 13.0983 21.825L13.9646 22.7742C14.1642 22.9988 14.4304 23.1319 14.7048 23.1902V19.5261C14.7048 19.3596 14.8382 19.2263 15.0046 19.2263C15.1708 19.2266 15.3034 19.3597 15.3034 19.5261V23.1902C15.5778 23.1319 15.844 22.9905 16.0437 22.7742L16.9099 21.825C17.3176 21.3836 17.8914 21.1496 18.4821 21.1746L19.7634 21.2332C20.1544 21.2498 20.5372 21.1081 20.82 20.825C21.1028 20.5418 21.2439 20.167 21.2272 19.7673L21.1696 18.4851C21.1364 17.8855 21.3771 17.3106 21.8181 16.9109L22.7663 16.0447H22.7497C22.966 15.8448 23.1163 15.5866 23.1745 15.3035H19.4968C19.3305 15.3034 19.197 15.1701 19.197 15.0037C19.1972 14.8373 19.3306 14.704 19.4968 14.7039H23.1745C23.1162 14.4208 22.9743 14.1624 22.7497 13.9626L21.8015 13.0974C21.3605 12.6894 21.1281 12.1227 21.153 11.5232L21.2106 10.2322C21.2273 9.83249 21.0862 9.4577 20.8034 9.17456C20.5289 8.89979 20.1378 8.74144 19.7468 8.76636L18.4655 8.82495C17.8584 8.85825 17.2926 8.61664 16.8933 8.17554L16.0271 7.22534C15.8274 7.00908 15.5695 6.85977 15.2868 6.80151V10.4822ZM14.9958 14.0964C15.4949 14.0964 15.9028 14.5042 15.903 15.0037C15.903 15.5033 15.495 15.9119 14.9958 15.9119C14.4966 15.9119 14.0886 15.5033 14.0886 15.0037C14.0888 14.5042 14.4967 14.0964 14.9958 14.0964Z" fill="white"/>
</svg>
