<svg width="27" height="21" viewBox="0 0 27 21" fill="none" xmlns="http://www.w3.org/2000/svg">
<g clip-path="url(#clip0_2167_93258)">
<path d="M17.4133 0C17.1587 0 16.9078 0.0486458 16.6681 0.145937L8.3172 4.2247C7.9165 4.41928 7.47836 4.52031 7.03648 4.52031H2.31803C1.03731 4.52031 0 5.55684 0 6.8366V11.4804C0 12.7602 1.03731 13.7967 2.31803 13.7967H3.88336C4.08183 13.7967 4.25784 13.9239 4.31775 14.1148L6.21637 19.9597C6.41859 20.5846 6.99903 21.0075 7.65811 21.0075H9.79265C10.2121 21.0075 10.6277 20.8466 10.9049 20.5285C11.2307 20.1506 11.328 19.6529 11.1782 19.1889L10.0098 15.5891C9.93121 15.3459 10.1821 15.1288 10.4105 15.2373L16.7168 18.2534C16.9415 18.3395 17.1736 18.3806 17.4133 18.3806C17.9264 18.3806 18.4132 18.186 18.7914 17.8193C19.1883 17.4339 19.3793 16.8876 19.3793 16.3375V2.03938C19.3793 1.48931 19.1846 0.939237 18.7877 0.557555C18.4094 0.194583 17.9226 0 17.4171 0L17.4133 0ZM18.5555 16.3525C18.5555 16.7491 18.387 17.1121 18.1024 17.3254C17.9001 17.4788 17.6605 17.5574 17.4171 17.5574C17.2785 17.5574 17.1399 17.5312 17.0089 17.4825L10.4405 14.4328C10.3132 14.373 10.1784 14.343 10.0398 14.343C9.74022 14.343 9.45187 14.489 9.27212 14.7397C9.09237 14.9866 9.04369 15.2935 9.14105 15.5854L10.3918 19.4396C10.448 19.6155 10.418 19.8063 10.3057 19.956C10.2008 20.0982 10.0136 20.1842 9.80388 20.1842H7.65811C7.35853 20.1842 7.09265 19.9934 6.99903 19.7053L5.05922 13.7368C4.90943 13.2803 4.48627 12.9734 4.00693 12.9734H2.31429C1.49043 12.9734 0.820111 12.3036 0.820111 11.4804V6.8366C0.820111 6.01336 1.49043 5.34355 2.31429 5.34355L7.05895 5.35478C7.53828 5.35478 8.01387 5.24626 8.43703 5.04045L16.9939 0.901818C17.1212 0.84943 17.271 0.819494 17.4171 0.819494C17.7166 0.819494 18.005 0.942979 18.2259 1.16376C18.4319 1.36957 18.5517 1.68015 18.5517 2.01319V16.3525H18.5555ZM25.4347 4.0376L21.3566 6.44369L24.9067 3.30791C25.1089 3.13204 25.416 3.16572 25.5732 3.37901C25.7305 3.5923 25.6669 3.89914 25.4384 4.0376H25.4347ZM25.5695 14.8257C25.4122 15.0428 25.1014 15.0764 24.9029 14.8968L21.3528 11.761L25.4309 14.1671C25.6631 14.3019 25.723 14.6087 25.5657 14.8257H25.5695ZM27 9.1005V9.10798C27 9.37366 26.7716 9.58321 26.5057 9.56076L21.3566 9.10424L26.5057 8.64772C26.7716 8.62527 27 8.83482 27 9.1005Z" fill="white"/>
</g>
<defs>
<clipPath id="clip0_2167_93258">
<rect width="27" height="21" fill="white"/>
</clipPath>
</defs>
</svg>
