<svg width="360" height="200" viewBox="0 0 360 200" fill="none" xmlns="http://www.w3.org/2000/svg">
<g clip-path="url(#clip0_1261_20620)">
<path d="M117.757 20.4263L118.815 28.7843L126.554 29.9263L118.815 31.0682L117.757 39.4263L116.7 31.0682L108.961 29.9263L116.7 28.7843L117.757 20.4263Z" fill="#FFC000"/>
<path d="M72.3857 105.427L73.1092 111.146L78.4042 111.927L73.1092 112.709L72.3857 118.427L71.6622 112.709L66.3672 111.927L71.6622 111.146L72.3857 105.427Z" fill="#FF00E6"/>
<path opacity="0.5" d="M160.403 48.0874L161.127 53.806L166.422 54.5874L161.127 55.3688L160.403 61.0874L159.68 55.3688L154.385 54.5874L159.68 53.806L160.403 48.0874Z" fill="#FF00E6"/>
<path d="M328.681 114.62L336.463 107.369L345.018 113.52L338.304 105.116L343.999 95.8769L336.218 103.128L327.663 96.9768L334.377 105.381L328.681 114.62Z" fill="#FFC000"/>
<path d="M294.334 8.92651L302.073 10.0685L303.13 18.4265L304.188 10.0685L311.927 8.92652L304.188 7.78454L303.13 -0.573485L302.073 7.78454L294.334 8.92651Z" fill="#00A3FF"/>
<path opacity="0.4" d="M274.889 62.9275L280.184 63.7088L280.907 69.4275L281.631 63.7088L286.926 62.9275L281.631 62.1461L280.907 56.4275L280.184 62.1461L274.889 62.9275Z" fill="#FFC000"/>
</g>
<defs>
<clipPath id="clip0_1261_20620">
<rect width="360.002" height="200" fill="white" transform="translate(0 -0.000244141)"/>
</clipPath>
</defs>
</svg>
