<svg width="20" height="20" viewBox="0 0 20 20" fill="none" xmlns="http://www.w3.org/2000/svg">
<path d="M14.4551 14.3619C17.0277 13.1578 18.8332 10.9013 18.8332 8.2457C18.8332 4.2324 14.7617 1.16675 9.99984 1.16675C5.23794 1.16675 1.1665 4.2324 1.1665 8.2457C1.1665 11.8458 4.45234 14.688 8.55339 15.2303V17.4275C8.55339 18.2107 9.472 18.6331 10.0666 18.1235L14.4551 14.3619Z" stroke="white" stroke-linejoin="round"/>
<path d="M13.9736 13.4829C13.9314 13.5023 13.892 13.5275 13.8568 13.5577L9.55339 17.2463V14.7827C9.55339 14.5238 9.35573 14.3077 9.09784 14.2847C5.0949 13.9274 2.1665 11.2749 2.1665 8.2457C2.1665 4.99209 5.55699 2.16675 9.99984 2.16675C14.4427 2.16675 17.8332 4.99209 17.8332 8.2457C17.8332 10.428 16.3312 12.4008 13.9736 13.4829Z" fill="#FF00E6" stroke="black" stroke-linejoin="round"/>
<path d="M8.76416 8.00741C8.76416 6.26828 9.63373 5.8335 10.0685 5.8335C10.9381 5.8335 11.1555 6.70306 11.1555 8.00741C11.1555 9.31176 10.9381 10.8335 10.0685 10.8335C9.19894 10.8335 8.76416 10.1813 8.76416 8.00741Z" fill="white"/>
<path d="M10.0684 8.61188C10.0684 9.51925 9.59405 9.74609 9.3569 9.74609C8.88259 9.74609 8.76401 9.29241 8.76401 8.61188C8.76401 7.93135 8.88259 7.1374 9.3569 7.1374C9.83121 7.1374 10.0684 7.47766 10.0684 8.61188Z" fill="black"/>
<path d="M12.5288 8.00741C12.5288 6.26828 13.3984 5.8335 13.8332 5.8335C14.7027 5.8335 14.9201 6.70306 14.9201 8.00741C14.9201 9.31176 14.7027 10.8335 13.8332 10.8335C12.9636 10.8335 12.5288 10.1813 12.5288 8.00741Z" fill="white"/>
<path d="M5.00049 8.00741C5.00049 6.26828 5.87005 5.8335 6.30484 5.8335C7.1744 5.8335 7.39179 6.70306 7.39179 8.00741C7.39179 9.31176 7.1744 10.8335 6.30484 10.8335C5.43527 10.8335 5.00049 10.1813 5.00049 8.00741Z" fill="white"/>
<path d="M6.3042 8.61188C6.3042 9.51925 5.82989 9.74609 5.59274 9.74609C5.11843 9.74609 4.99985 9.29241 4.99985 8.61188C4.99985 7.93135 5.11843 7.1374 5.59274 7.1374C6.06705 7.1374 6.3042 7.47766 6.3042 8.61188Z" fill="black"/>
</svg>
