<svg width="17" height="17" viewBox="0 0 17 17" fill="none" xmlns="http://www.w3.org/2000/svg">
<path fill-rule="evenodd" clip-rule="evenodd" d="M2.65 1C2.65 0.558173 3.00817 0.200001 3.45 0.200001C3.89183 0.200001 4.25 0.558173 4.25 1H12.25C12.25 0.558173 12.6082 0.200001 13.05 0.200001C13.4918 0.200001 13.85 0.558173 13.85 1H15.45C15.8918 1 16.25 1.35817 16.25 1.8V16.2C16.25 16.6418 15.8918 17 15.45 17H1.05C0.608172 17 0.25 16.6418 0.25 16.2V1.8C0.25 1.35817 0.608172 1 1.05 1H2.65ZM1.85 5.8H14.65V15.4H1.85V5.8Z" fill="white"/>
</svg>
