<svg width="70" height="70" viewBox="0 0 70 70" fill="none" xmlns="http://www.w3.org/2000/svg">
<g clip-path="url(#clip0_44_594)">
<path d="M53.8968 53.8973C64.3339 43.4602 64.3339 26.5383 53.8968 16.1012C43.4597 5.66407 26.5378 5.66407 16.1006 16.1012C5.66352 26.5383 5.66352 43.4602 16.1006 53.8973C26.5378 64.3345 43.4597 64.3345 53.8968 53.8973Z" fill="white"/>
<path fill-rule="evenodd" clip-rule="evenodd" d="M42.0235 23.6655C42.6488 24.7476 42.6488 26.0835 42.0235 27.1656L30.4692 47.1774C29.8439 48.2595 28.6893 48.9274 27.4387 48.9274H16.2238C14.9668 48.9274 14.1814 47.5659 14.8088 46.4774L33.5872 13.953C34.2168 12.8646 35.7875 12.8646 36.4171 13.953L42.0256 23.6655H42.0235ZM45.6515 34.8527C46.2811 33.7643 47.8518 33.7643 48.4814 34.8527L55.1933 46.4796C55.8229 47.568 55.0354 48.9296 53.7784 48.9296H40.3546C39.0976 48.9296 38.3122 47.568 38.9396 46.4796L45.6515 34.8527ZM70 35C70 54.329 54.329 70 35 70C15.671 70 0 54.329 0 35C0 15.671 15.671 0 35 0C54.329 0 70 15.671 70 35Z" fill="#FF394A"/>
</g>
<defs>
<clipPath id="clip0_44_594">
<rect width="70" height="70" fill="white"/>
</clipPath>
</defs>
</svg>
