<svg width="960" height="960" viewBox="0 0 960 960" fill="none" xmlns="http://www.w3.org/2000/svg">
<rect width="960" height="960" rx="480" fill="white"/>
<g clip-path="url(#clip0_2_3)">
<path d="M294.259 593.71C297.575 590.394 302.134 588.459 306.97 588.459H745.526C753.54 588.459 757.547 598.131 751.882 603.796L665.249 690.43C661.933 693.746 657.373 695.68 652.537 695.68H213.981C205.967 695.68 201.96 686.008 207.625 680.343L294.259 593.71Z" fill="url(#paint0_linear_2_3)"/>
<path d="M294.259 270.25C297.713 266.934 302.273 265 306.97 265H745.526C753.54 265 757.547 274.672 751.882 280.337L665.249 366.97C661.933 370.287 657.373 372.221 652.537 372.221H213.981C205.967 372.221 201.96 362.549 207.625 356.884L294.259 270.25Z" fill="url(#paint1_linear_2_3)"/>
<path d="M665.249 430.944C661.933 427.628 657.373 425.693 652.537 425.693H213.981C205.967 425.693 201.96 435.365 207.625 441.03L294.259 527.664C297.575 530.98 302.134 532.914 306.97 532.914H745.526C753.54 532.914 757.547 523.242 751.882 517.577L665.249 430.944Z" fill="url(#paint2_linear_2_3)"/>
</g>
<defs>
<linearGradient id="paint0_linear_2_3" x1="703.632" y1="213.247" x2="400.116" y2="794.602" gradientUnits="userSpaceOnUse">
<stop stop-color="#00FFA3"/>
<stop offset="1" stop-color="#DC1FFF"/>
</linearGradient>
<linearGradient id="paint1_linear_2_3" x1="570.918" y1="143.96" x2="267.402" y2="725.314" gradientUnits="userSpaceOnUse">
<stop stop-color="#00FFA3"/>
<stop offset="1" stop-color="#DC1FFF"/>
</linearGradient>
<linearGradient id="paint2_linear_2_3" x1="636.852" y1="178.383" x2="333.337" y2="759.738" gradientUnits="userSpaceOnUse">
<stop stop-color="#00FFA3"/>
<stop offset="1" stop-color="#DC1FFF"/>
</linearGradient>
<clipPath id="clip0_2_3">
<rect width="549.508" height="430.68" fill="white" transform="translate(205 265)"/>
</clipPath>
</defs>
</svg>
