<svg width="120" height="92" viewBox="0 0 120 92" fill="none" xmlns="http://www.w3.org/2000/svg">
<mask id="path-1-outside-1_2013_40716" maskUnits="userSpaceOnUse" x="6.2793" y="13.8926" width="113.487" height="66.7086" fill="black">
<rect fill="white" x="6.2793" y="13.8926" width="113.487" height="66.7086"/>
<path d="M23.1444 72.3572C23.1333 73.7063 22.473 74.783 21.1767 75.595C19.9984 76.3182 18.8215 76.4901 17.6382 76.1241C16.3687 75.7532 15.7649 74.8607 15.8201 73.4429C15.7681 71.8553 15.8014 69.2847 15.92 65.7311C16.0333 62.179 16.1141 59.6807 16.1636 58.2417C16.2171 54.6774 16.2245 52.3297 16.1857 51.1986C16.3032 48.3041 16.4521 46.4917 16.631 45.7558C16.8363 45.0128 17.0368 44.487 17.2378 44.1768C17.4317 43.8402 17.7781 43.4167 18.2717 42.9078C18.7931 42.3971 19.3711 41.9505 20.0137 41.5772C20.6563 41.2039 21.3158 40.8943 21.9934 40.6535C22.6641 40.3862 23.3576 40.1411 24.0687 39.9196C24.7727 39.6716 25.535 39.3227 26.354 38.8674C26.6972 38.7743 26.9964 38.6646 27.2517 38.5385C27.5281 38.4067 27.7967 38.2883 28.059 38.1887C28.6574 37.9694 29.2723 37.8763 29.9074 37.9026C30.5689 37.9218 31.1113 38.1323 31.5292 38.5357C31.9735 38.9319 32.2815 39.4333 32.444 40.048C32.6066 40.6627 32.6469 41.3504 32.5612 42.1177C32.5072 42.8764 32.3353 43.6387 32.056 44.4018C31.062 47.0628 28.703 49.6344 25.6661 49.4707C25.4678 50.5185 25.3054 51.5736 25.0818 52.6112C25.0022 52.9736 24.4214 55.8064 24.1732 55.8738C25.754 55.4957 27.2049 54.1987 28.9536 54.6269C29.8911 54.8551 30.6955 55.7784 30.5117 56.7313C30.4388 57.0976 30.2421 57.4236 30.0573 57.7521C29.596 58.5759 29.235 59.4578 28.6708 60.213C27.6229 61.6221 25.4878 62.1507 23.905 62.7565C23.8795 63.1951 23.8208 63.7222 23.7264 64.3499C23.6568 64.9425 23.5783 65.5658 23.4948 66.2132C23.2767 68.1922 23.1613 69.3822 23.1538 69.7818C23.1741 70.1795 23.1853 70.5002 23.197 70.7583C23.2292 71.522 23.2116 72.055 23.1511 72.3611L23.1444 72.3572ZM40.7613 68.0566C40.7613 68.0566 40.7655 68.0725 40.7616 68.0793C40.6433 70.8206 37.285 71.6245 35.0774 71.2584C33.6247 71.0508 32.8471 70.4213 32.7364 69.3609C32.1689 67.8565 32.0869 64.2722 32.5026 58.6103C33.1094 50.1191 34.3021 43.843 36.0751 39.7834C36.5412 38.7424 36.9815 38.0322 37.3989 37.6633C37.8357 37.2607 38.3415 36.8621 38.9243 36.4767C39.5072 36.0912 40.1192 35.7092 40.7618 35.3359C42.0457 34.5841 43.284 33.9809 44.4725 33.5105C45.6818 33.0118 46.8337 32.8524 47.9416 33.04C49.0371 33.2026 49.967 33.6374 50.7259 34.3457C51.5112 35.0469 52.1234 35.9712 52.5651 37.1065C53.0011 38.2206 53.285 39.4441 53.4077 40.7853C53.5286 42.0986 53.4822 43.4856 53.2687 44.9465C53.0481 46.3809 52.6639 47.7744 52.1042 49.1248C50.8906 52.0897 49.1289 54.2663 46.8221 55.6651L47.4027 56.2344C47.8874 56.6764 48.4601 57.1514 49.1048 57.6636C49.7813 58.1671 50.4446 58.6856 51.1017 59.2229C51.7851 59.7529 52.4105 60.2988 52.9883 60.8575C53.5661 61.4163 54.0219 61.9627 54.3622 62.5007C55.2922 63.9635 54.5773 66.5885 52.515 66.4726C51.8254 66.4326 51.1522 66.1554 50.4635 66.1833C49.9709 66.2035 49.4977 66.3831 49.0071 66.4538C47.0369 66.7502 45.7743 65.2926 44.719 63.8696C44.2784 63.2736 43.9028 62.7735 43.5989 62.3732C42.8578 61.518 42.087 60.8072 41.284 60.2528C41.1841 61.0524 41.0953 62.0648 41.0161 63.2847C40.9157 64.8739 40.8364 66.4573 40.7638 68.0446L40.7613 68.0566ZM42.8459 42.5967C42.5846 43.3208 42.5091 44.0626 42.417 44.8486C42.3182 45.7161 42.2302 46.6033 42.0663 47.46C41.9094 48.2579 41.9873 49.066 42.011 49.8832C42.5318 48.9636 43.4102 48.3048 44.1658 47.5885C44.511 47.2676 44.7986 46.8998 45.0313 46.4959C45.6287 45.459 45.823 44.2249 45.8219 43.0438C45.8215 42.1863 45.8959 39.9851 44.4253 40.373C43.7797 40.5426 43.3718 41.4826 43.0907 42.0247C42.9941 42.2156 42.9147 42.4076 42.8459 42.5967ZM64.3566 56.1464C65.9403 55.8868 67.1071 55.6552 67.8516 55.453C68.9234 55.162 69.9264 54.5034 70.971 54.2595C71.4082 54.1579 71.9183 54.2466 72.2029 54.5953C72.5374 55.0042 72.4832 55.6551 72.8543 56.0314C73.0627 56.2418 73.3607 56.3199 73.6043 56.4923C75.2898 57.6874 72.2621 61.0256 71.2693 61.7439C69.4802 62.7465 68.055 63.4345 66.983 63.8108C65.2071 64.435 63.2261 64.9047 61.0268 65.2122C58.5743 65.418 57.1866 64.7498 56.8636 63.2074C55.3811 57.6009 55.1165 51.6352 56.0646 45.3119C56.3743 43.2513 56.7657 41.0719 57.2428 38.7671C57.3405 38.2805 57.3358 37.7706 57.2207 37.2282C57.132 36.6787 57.0369 36.1479 56.9288 35.632C56.8206 35.1161 56.7807 34.6442 56.8062 34.2056C56.8317 33.767 57.0387 33.4155 57.423 33.1351C62.3706 29.4176 66.5221 27.3759 69.8707 27.0063C70.9971 26.7288 71.828 26.9178 72.3741 27.5704C72.9395 28.1893 73.1923 28.9953 73.1415 29.9804C73.1171 30.9582 72.795 31.9658 72.1829 32.9896C71.5972 34.0062 70.7138 34.7743 69.5445 35.2963C68.0969 36.1778 67.2172 36.7461 66.916 36.9982C66.3348 37.4968 65.9679 38.0565 65.819 38.6706C65.5997 39.3606 65.405 40.0155 65.2283 40.6314C65.053 41.2526 64.9773 41.8866 65.0079 42.5371L65.0821 43.4598C65.652 43.5607 66.2855 43.4738 66.9826 43.1994C67.699 42.8913 68.3549 42.6109 68.9411 42.3666C69.5519 42.0871 70.0546 41.9336 70.4452 41.9127C70.8675 41.8833 71.0532 42.2645 71.0009 43.0511C70.9733 43.8027 70.7702 44.7041 70.3903 45.7501C70.0369 46.7889 69.3669 47.658 68.3857 48.3561C67.7291 48.6764 67.2766 48.9128 67.0337 49.064C66.8101 49.1815 66.6312 49.2755 66.5062 49.3378C66.3284 49.4145 65.8064 49.6017 64.9439 49.8926C64.2572 52.368 63.9394 54.2263 63.9812 55.4759C64.0031 55.9868 64.1295 56.208 64.3724 56.1421L64.3566 56.1464ZM84.8797 50.5739C86.4635 50.3143 87.6303 50.0827 88.3748 49.8805C89.4149 49.5981 90.3548 48.9794 91.3608 48.7176C91.8149 48.5943 92.3553 48.6691 92.673 49.0145C92.9974 49.3637 93.0316 49.8997 93.314 50.2831C93.4992 50.5338 93.7692 50.699 94.0195 50.8753C95.697 52.0613 93.07 55.4383 91.7844 56.1622C89.9953 57.1648 88.5701 57.8528 87.4981 58.2291C85.7222 58.8533 83.7412 59.323 81.5419 59.6305C79.0894 59.8364 77.7017 59.1681 77.3787 57.6257C75.8962 52.0192 75.6316 46.0535 76.5797 39.7302C76.8894 37.6696 77.2808 35.4903 77.7579 33.1854C77.8556 32.6988 77.8509 32.1889 77.7358 31.6466C77.6471 31.097 77.552 30.5662 77.4439 30.0503C77.3357 29.5344 77.2958 29.0625 77.3213 28.6239C77.3468 28.1853 77.5538 27.8338 77.9381 27.5534C82.8857 23.8359 87.0372 21.7943 90.3858 21.4246C91.5122 21.1472 92.3431 21.3362 92.8892 21.9887C93.4546 22.6076 93.7074 23.4137 93.6566 24.3987C93.6322 25.3765 93.3101 26.3841 92.698 27.4079C92.1123 28.4246 91.2289 29.1927 90.0596 29.7146C88.612 30.5961 87.7323 31.1644 87.4312 31.4166C86.85 31.9151 86.483 32.4748 86.3341 33.0889C86.1148 33.7789 85.9201 34.4338 85.7434 35.0497C85.5681 35.671 85.4924 36.3049 85.523 36.9555L85.5972 37.8782C86.1671 37.979 86.8006 37.8922 87.4977 37.6177C88.2141 37.3096 88.87 37.0293 89.4562 36.7849C90.067 36.5055 90.5697 36.3519 90.9603 36.3311C91.3826 36.3016 91.5683 36.6828 91.516 37.4695C91.4884 38.221 91.2853 39.1224 90.9054 40.1684C90.552 41.2072 89.882 42.0763 88.9008 42.7744C88.2442 43.0947 87.7917 43.3311 87.5488 43.4823C87.3252 43.5998 87.1463 43.6938 87.0213 43.7562C86.8435 43.8328 86.3215 44.02 85.459 44.311C84.7723 46.7863 84.4545 48.6447 84.4963 49.8942C84.5182 50.4051 84.6446 50.6264 84.8875 50.5604L84.8797 50.5739ZM109.383 18.385C110.023 20.8467 108.673 22.5705 108.393 24.9128C107.879 27.3981 107.562 29.6479 107.436 31.6531C107.304 33.637 107.22 35.4149 107.182 37.0042C107.142 38.5882 107.072 39.9931 106.973 41.224C106.839 42.6634 106.542 43.789 106.073 44.6036C105.898 45.2249 105.418 45.7415 104.643 46.1506C103.868 46.5597 103.04 46.8301 102.162 46.9549C101.277 47.0532 100.469 46.9716 99.7426 46.7087C99.043 46.4386 98.6847 45.9395 98.6595 45.2023C98.2858 42.6117 98.1716 40.3822 98.3012 38.5181C98.4625 36.6455 98.6058 35.0901 98.7364 33.8505C98.8934 32.6038 99.014 31.4976 99.0982 30.5319C99.1754 29.5397 99.2665 28.6858 99.3609 27.9729C99.4748 27.2263 99.6238 26.4418 99.8082 25.6194C99.9855 24.7704 100.184 23.9157 100.414 23.0524C100.663 22.1554 100.925 21.3234 101.209 20.5589C101.856 18.8101 102.508 17.7016 103.156 17.2417C103.797 16.7552 104.469 16.3854 105.173 16.1374C106.188 15.7822 107.286 15.5693 108.185 16.3136C108.771 16.7962 109.123 17.5072 109.339 18.238C109.353 18.291 109.367 18.344 109.381 18.397L109.383 18.385ZM107.329 51.2998C107.328 52.4756 106.93 53.4527 106.137 54.2416C105.383 55.0485 104.488 55.6037 103.455 55.9127C102.434 56.2466 101.41 56.3091 100.382 56.1052C99.3924 55.914 98.664 55.3848 98.2062 54.5094C97.729 53.6678 97.6564 52.8583 97.9937 52.0794C98.3504 51.267 98.86 50.6685 99.529 50.2881C100.191 49.8812 100.991 49.5048 101.926 49.1659C102.887 48.8197 103.793 48.6304 104.64 48.5994C105.486 48.5684 106.191 48.7519 106.752 49.1392C107.314 49.5318 107.504 50.2525 107.323 51.3012L107.329 51.2998Z"/>
</mask>
<path d="M23.1444 72.3572C23.1333 73.7063 22.473 74.783 21.1767 75.595C19.9984 76.3182 18.8215 76.4901 17.6382 76.1241C16.3687 75.7532 15.7649 74.8607 15.8201 73.4429C15.7681 71.8553 15.8014 69.2847 15.92 65.7311C16.0333 62.179 16.1141 59.6807 16.1636 58.2417C16.2171 54.6774 16.2245 52.3297 16.1857 51.1986C16.3032 48.3041 16.4521 46.4917 16.631 45.7558C16.8363 45.0128 17.0368 44.487 17.2378 44.1768C17.4317 43.8402 17.7781 43.4167 18.2717 42.9078C18.7931 42.3971 19.3711 41.9505 20.0137 41.5772C20.6563 41.2039 21.3158 40.8943 21.9934 40.6535C22.6641 40.3862 23.3576 40.1411 24.0687 39.9196C24.7727 39.6716 25.535 39.3227 26.354 38.8674C26.6972 38.7743 26.9964 38.6646 27.2517 38.5385C27.5281 38.4067 27.7967 38.2883 28.059 38.1887C28.6574 37.9694 29.2723 37.8763 29.9074 37.9026C30.5689 37.9218 31.1113 38.1323 31.5292 38.5357C31.9735 38.9319 32.2815 39.4333 32.444 40.048C32.6066 40.6627 32.6469 41.3504 32.5612 42.1177C32.5072 42.8764 32.3353 43.6387 32.056 44.4018C31.062 47.0628 28.703 49.6344 25.6661 49.4707C25.4678 50.5185 25.3054 51.5736 25.0818 52.6112C25.0022 52.9736 24.4214 55.8064 24.1732 55.8738C25.754 55.4957 27.2049 54.1987 28.9536 54.6269C29.8911 54.8551 30.6955 55.7784 30.5117 56.7313C30.4388 57.0976 30.2421 57.4236 30.0573 57.7521C29.596 58.5759 29.235 59.4578 28.6708 60.213C27.6229 61.6221 25.4878 62.1507 23.905 62.7565C23.8795 63.1951 23.8208 63.7222 23.7264 64.3499C23.6568 64.9425 23.5783 65.5658 23.4948 66.2132C23.2767 68.1922 23.1613 69.3822 23.1538 69.7818C23.1741 70.1795 23.1853 70.5002 23.197 70.7583C23.2292 71.522 23.2116 72.055 23.1511 72.3611L23.1444 72.3572ZM40.7613 68.0566C40.7613 68.0566 40.7655 68.0725 40.7616 68.0793C40.6433 70.8206 37.285 71.6245 35.0774 71.2584C33.6247 71.0508 32.8471 70.4213 32.7364 69.3609C32.1689 67.8565 32.0869 64.2722 32.5026 58.6103C33.1094 50.1191 34.3021 43.843 36.0751 39.7834C36.5412 38.7424 36.9815 38.0322 37.3989 37.6633C37.8357 37.2607 38.3415 36.8621 38.9243 36.4767C39.5072 36.0912 40.1192 35.7092 40.7618 35.3359C42.0457 34.5841 43.284 33.9809 44.4725 33.5105C45.6818 33.0118 46.8337 32.8524 47.9416 33.04C49.0371 33.2026 49.967 33.6374 50.7259 34.3457C51.5112 35.0469 52.1234 35.9712 52.5651 37.1065C53.0011 38.2206 53.285 39.4441 53.4077 40.7853C53.5286 42.0986 53.4822 43.4856 53.2687 44.9465C53.0481 46.3809 52.6639 47.7744 52.1042 49.1248C50.8906 52.0897 49.1289 54.2663 46.8221 55.6651L47.4027 56.2344C47.8874 56.6764 48.4601 57.1514 49.1048 57.6636C49.7813 58.1671 50.4446 58.6856 51.1017 59.2229C51.7851 59.7529 52.4105 60.2988 52.9883 60.8575C53.5661 61.4163 54.0219 61.9627 54.3622 62.5007C55.2922 63.9635 54.5773 66.5885 52.515 66.4726C51.8254 66.4326 51.1522 66.1554 50.4635 66.1833C49.9709 66.2035 49.4977 66.3831 49.0071 66.4538C47.0369 66.7502 45.7743 65.2926 44.719 63.8696C44.2784 63.2736 43.9028 62.7735 43.5989 62.3732C42.8578 61.518 42.087 60.8072 41.284 60.2528C41.1841 61.0524 41.0953 62.0648 41.0161 63.2847C40.9157 64.8739 40.8364 66.4573 40.7638 68.0446L40.7613 68.0566ZM42.8459 42.5967C42.5846 43.3208 42.5091 44.0626 42.417 44.8486C42.3182 45.7161 42.2302 46.6033 42.0663 47.46C41.9094 48.2579 41.9873 49.066 42.011 49.8832C42.5318 48.9636 43.4102 48.3048 44.1658 47.5885C44.511 47.2676 44.7986 46.8998 45.0313 46.4959C45.6287 45.459 45.823 44.2249 45.8219 43.0438C45.8215 42.1863 45.8959 39.9851 44.4253 40.373C43.7797 40.5426 43.3718 41.4826 43.0907 42.0247C42.9941 42.2156 42.9147 42.4076 42.8459 42.5967ZM64.3566 56.1464C65.9403 55.8868 67.1071 55.6552 67.8516 55.453C68.9234 55.162 69.9264 54.5034 70.971 54.2595C71.4082 54.1579 71.9183 54.2466 72.2029 54.5953C72.5374 55.0042 72.4832 55.6551 72.8543 56.0314C73.0627 56.2418 73.3607 56.3199 73.6043 56.4923C75.2898 57.6874 72.2621 61.0256 71.2693 61.7439C69.4802 62.7465 68.055 63.4345 66.983 63.8108C65.2071 64.435 63.2261 64.9047 61.0268 65.2122C58.5743 65.418 57.1866 64.7498 56.8636 63.2074C55.3811 57.6009 55.1165 51.6352 56.0646 45.3119C56.3743 43.2513 56.7657 41.0719 57.2428 38.7671C57.3405 38.2805 57.3358 37.7706 57.2207 37.2282C57.132 36.6787 57.0369 36.1479 56.9288 35.632C56.8206 35.1161 56.7807 34.6442 56.8062 34.2056C56.8317 33.767 57.0387 33.4155 57.423 33.1351C62.3706 29.4176 66.5221 27.3759 69.8707 27.0063C70.9971 26.7288 71.828 26.9178 72.3741 27.5704C72.9395 28.1893 73.1923 28.9953 73.1415 29.9804C73.1171 30.9582 72.795 31.9658 72.1829 32.9896C71.5972 34.0062 70.7138 34.7743 69.5445 35.2963C68.0969 36.1778 67.2172 36.7461 66.916 36.9982C66.3348 37.4968 65.9679 38.0565 65.819 38.6706C65.5997 39.3606 65.405 40.0155 65.2283 40.6314C65.053 41.2526 64.9773 41.8866 65.0079 42.5371L65.0821 43.4598C65.652 43.5607 66.2855 43.4738 66.9826 43.1994C67.699 42.8913 68.3549 42.6109 68.9411 42.3666C69.5519 42.0871 70.0546 41.9336 70.4452 41.9127C70.8675 41.8833 71.0532 42.2645 71.0009 43.0511C70.9733 43.8027 70.7702 44.7041 70.3903 45.7501C70.0369 46.7889 69.3669 47.658 68.3857 48.3561C67.7291 48.6764 67.2766 48.9128 67.0337 49.064C66.8101 49.1815 66.6312 49.2755 66.5062 49.3378C66.3284 49.4145 65.8064 49.6017 64.9439 49.8926C64.2572 52.368 63.9394 54.2263 63.9812 55.4759C64.0031 55.9868 64.1295 56.208 64.3724 56.1421L64.3566 56.1464ZM84.8797 50.5739C86.4635 50.3143 87.6303 50.0827 88.3748 49.8805C89.4149 49.5981 90.3548 48.9794 91.3608 48.7176C91.8149 48.5943 92.3553 48.6691 92.673 49.0145C92.9974 49.3637 93.0316 49.8997 93.314 50.2831C93.4992 50.5338 93.7692 50.699 94.0195 50.8753C95.697 52.0613 93.07 55.4383 91.7844 56.1622C89.9953 57.1648 88.5701 57.8528 87.4981 58.2291C85.7222 58.8533 83.7412 59.323 81.5419 59.6305C79.0894 59.8364 77.7017 59.1681 77.3787 57.6257C75.8962 52.0192 75.6316 46.0535 76.5797 39.7302C76.8894 37.6696 77.2808 35.4903 77.7579 33.1854C77.8556 32.6988 77.8509 32.1889 77.7358 31.6466C77.6471 31.097 77.552 30.5662 77.4439 30.0503C77.3357 29.5344 77.2958 29.0625 77.3213 28.6239C77.3468 28.1853 77.5538 27.8338 77.9381 27.5534C82.8857 23.8359 87.0372 21.7943 90.3858 21.4246C91.5122 21.1472 92.3431 21.3362 92.8892 21.9887C93.4546 22.6076 93.7074 23.4137 93.6566 24.3987C93.6322 25.3765 93.3101 26.3841 92.698 27.4079C92.1123 28.4246 91.2289 29.1927 90.0596 29.7146C88.612 30.5961 87.7323 31.1644 87.4312 31.4166C86.85 31.9151 86.483 32.4748 86.3341 33.0889C86.1148 33.7789 85.9201 34.4338 85.7434 35.0497C85.5681 35.671 85.4924 36.3049 85.523 36.9555L85.5972 37.8782C86.1671 37.979 86.8006 37.8922 87.4977 37.6177C88.2141 37.3096 88.87 37.0293 89.4562 36.7849C90.067 36.5055 90.5697 36.3519 90.9603 36.3311C91.3826 36.3016 91.5683 36.6828 91.516 37.4695C91.4884 38.221 91.2853 39.1224 90.9054 40.1684C90.552 41.2072 89.882 42.0763 88.9008 42.7744C88.2442 43.0947 87.7917 43.3311 87.5488 43.4823C87.3252 43.5998 87.1463 43.6938 87.0213 43.7562C86.8435 43.8328 86.3215 44.02 85.459 44.311C84.7723 46.7863 84.4545 48.6447 84.4963 49.8942C84.5182 50.4051 84.6446 50.6264 84.8875 50.5604L84.8797 50.5739ZM109.383 18.385C110.023 20.8467 108.673 22.5705 108.393 24.9128C107.879 27.3981 107.562 29.6479 107.436 31.6531C107.304 33.637 107.22 35.4149 107.182 37.0042C107.142 38.5882 107.072 39.9931 106.973 41.224C106.839 42.6634 106.542 43.789 106.073 44.6036C105.898 45.2249 105.418 45.7415 104.643 46.1506C103.868 46.5597 103.04 46.8301 102.162 46.9549C101.277 47.0532 100.469 46.9716 99.7426 46.7087C99.043 46.4386 98.6847 45.9395 98.6595 45.2023C98.2858 42.6117 98.1716 40.3822 98.3012 38.5181C98.4625 36.6455 98.6058 35.0901 98.7364 33.8505C98.8934 32.6038 99.014 31.4976 99.0982 30.5319C99.1754 29.5397 99.2665 28.6858 99.3609 27.9729C99.4748 27.2263 99.6238 26.4418 99.8082 25.6194C99.9855 24.7704 100.184 23.9157 100.414 23.0524C100.663 22.1554 100.925 21.3234 101.209 20.5589C101.856 18.8101 102.508 17.7016 103.156 17.2417C103.797 16.7552 104.469 16.3854 105.173 16.1374C106.188 15.7822 107.286 15.5693 108.185 16.3136C108.771 16.7962 109.123 17.5072 109.339 18.238C109.353 18.291 109.367 18.344 109.381 18.397L109.383 18.385ZM107.329 51.2998C107.328 52.4756 106.93 53.4527 106.137 54.2416C105.383 55.0485 104.488 55.6037 103.455 55.9127C102.434 56.2466 101.41 56.3091 100.382 56.1052C99.3924 55.914 98.664 55.3848 98.2062 54.5094C97.729 53.6678 97.6564 52.8583 97.9937 52.0794C98.3504 51.267 98.86 50.6685 99.529 50.2881C100.191 49.8812 100.991 49.5048 101.926 49.1659C102.887 48.8197 103.793 48.6304 104.64 48.5994C105.486 48.5684 106.191 48.7519 106.752 49.1392C107.314 49.5318 107.504 50.2525 107.323 51.3012L107.329 51.2998Z" fill="black"/>
<path d="M23.1444 72.3572C23.1333 73.7063 22.473 74.783 21.1767 75.595C19.9984 76.3182 18.8215 76.4901 17.6382 76.1241C16.3687 75.7532 15.7649 74.8607 15.8201 73.4429C15.7681 71.8553 15.8014 69.2847 15.92 65.7311C16.0333 62.179 16.1141 59.6807 16.1636 58.2417C16.2171 54.6774 16.2245 52.3297 16.1857 51.1986C16.3032 48.3041 16.4521 46.4917 16.631 45.7558C16.8363 45.0128 17.0368 44.487 17.2378 44.1768C17.4317 43.8402 17.7781 43.4167 18.2717 42.9078C18.7931 42.3971 19.3711 41.9505 20.0137 41.5772C20.6563 41.2039 21.3158 40.8943 21.9934 40.6535C22.6641 40.3862 23.3576 40.1411 24.0687 39.9196C24.7727 39.6716 25.535 39.3227 26.354 38.8674C26.6972 38.7743 26.9964 38.6646 27.2517 38.5385C27.5281 38.4067 27.7967 38.2883 28.059 38.1887C28.6574 37.9694 29.2723 37.8763 29.9074 37.9026C30.5689 37.9218 31.1113 38.1323 31.5292 38.5357C31.9735 38.9319 32.2815 39.4333 32.444 40.048C32.6066 40.6627 32.6469 41.3504 32.5612 42.1177C32.5072 42.8764 32.3353 43.6387 32.056 44.4018C31.062 47.0628 28.703 49.6344 25.6661 49.4707C25.4678 50.5185 25.3054 51.5736 25.0818 52.6112C25.0022 52.9736 24.4214 55.8064 24.1732 55.8738C25.754 55.4957 27.2049 54.1987 28.9536 54.6269C29.8911 54.8551 30.6955 55.7784 30.5117 56.7313C30.4388 57.0976 30.2421 57.4236 30.0573 57.7521C29.596 58.5759 29.235 59.4578 28.6708 60.213C27.6229 61.6221 25.4878 62.1507 23.905 62.7565C23.8795 63.1951 23.8208 63.7222 23.7264 64.3499C23.6568 64.9425 23.5783 65.5658 23.4948 66.2132C23.2767 68.1922 23.1613 69.3822 23.1538 69.7818C23.1741 70.1795 23.1853 70.5002 23.197 70.7583C23.2292 71.522 23.2116 72.055 23.1511 72.3611L23.1444 72.3572ZM40.7613 68.0566C40.7613 68.0566 40.7655 68.0725 40.7616 68.0793C40.6433 70.8206 37.285 71.6245 35.0774 71.2584C33.6247 71.0508 32.8471 70.4213 32.7364 69.3609C32.1689 67.8565 32.0869 64.2722 32.5026 58.6103C33.1094 50.1191 34.3021 43.843 36.0751 39.7834C36.5412 38.7424 36.9815 38.0322 37.3989 37.6633C37.8357 37.2607 38.3415 36.8621 38.9243 36.4767C39.5072 36.0912 40.1192 35.7092 40.7618 35.3359C42.0457 34.5841 43.284 33.9809 44.4725 33.5105C45.6818 33.0118 46.8337 32.8524 47.9416 33.04C49.0371 33.2026 49.967 33.6374 50.7259 34.3457C51.5112 35.0469 52.1234 35.9712 52.5651 37.1065C53.0011 38.2206 53.285 39.4441 53.4077 40.7853C53.5286 42.0986 53.4822 43.4856 53.2687 44.9465C53.0481 46.3809 52.6639 47.7744 52.1042 49.1248C50.8906 52.0897 49.1289 54.2663 46.8221 55.6651L47.4027 56.2344C47.8874 56.6764 48.4601 57.1514 49.1048 57.6636C49.7813 58.1671 50.4446 58.6856 51.1017 59.2229C51.7851 59.7529 52.4105 60.2988 52.9883 60.8575C53.5661 61.4163 54.0219 61.9627 54.3622 62.5007C55.2922 63.9635 54.5773 66.5885 52.515 66.4726C51.8254 66.4326 51.1522 66.1554 50.4635 66.1833C49.9709 66.2035 49.4977 66.3831 49.0071 66.4538C47.0369 66.7502 45.7743 65.2926 44.719 63.8696C44.2784 63.2736 43.9028 62.7735 43.5989 62.3732C42.8578 61.518 42.087 60.8072 41.284 60.2528C41.1841 61.0524 41.0953 62.0648 41.0161 63.2847C40.9157 64.8739 40.8364 66.4573 40.7638 68.0446L40.7613 68.0566ZM42.8459 42.5967C42.5846 43.3208 42.5091 44.0626 42.417 44.8486C42.3182 45.7161 42.2302 46.6033 42.0663 47.46C41.9094 48.2579 41.9873 49.066 42.011 49.8832C42.5318 48.9636 43.4102 48.3048 44.1658 47.5885C44.511 47.2676 44.7986 46.8998 45.0313 46.4959C45.6287 45.459 45.823 44.2249 45.8219 43.0438C45.8215 42.1863 45.8959 39.9851 44.4253 40.373C43.7797 40.5426 43.3718 41.4826 43.0907 42.0247C42.9941 42.2156 42.9147 42.4076 42.8459 42.5967ZM64.3566 56.1464C65.9403 55.8868 67.1071 55.6552 67.8516 55.453C68.9234 55.162 69.9264 54.5034 70.971 54.2595C71.4082 54.1579 71.9183 54.2466 72.2029 54.5953C72.5374 55.0042 72.4832 55.6551 72.8543 56.0314C73.0627 56.2418 73.3607 56.3199 73.6043 56.4923C75.2898 57.6874 72.2621 61.0256 71.2693 61.7439C69.4802 62.7465 68.055 63.4345 66.983 63.8108C65.2071 64.435 63.2261 64.9047 61.0268 65.2122C58.5743 65.418 57.1866 64.7498 56.8636 63.2074C55.3811 57.6009 55.1165 51.6352 56.0646 45.3119C56.3743 43.2513 56.7657 41.0719 57.2428 38.7671C57.3405 38.2805 57.3358 37.7706 57.2207 37.2282C57.132 36.6787 57.0369 36.1479 56.9288 35.632C56.8206 35.1161 56.7807 34.6442 56.8062 34.2056C56.8317 33.767 57.0387 33.4155 57.423 33.1351C62.3706 29.4176 66.5221 27.3759 69.8707 27.0063C70.9971 26.7288 71.828 26.9178 72.3741 27.5704C72.9395 28.1893 73.1923 28.9953 73.1415 29.9804C73.1171 30.9582 72.795 31.9658 72.1829 32.9896C71.5972 34.0062 70.7138 34.7743 69.5445 35.2963C68.0969 36.1778 67.2172 36.7461 66.916 36.9982C66.3348 37.4968 65.9679 38.0565 65.819 38.6706C65.5997 39.3606 65.405 40.0155 65.2283 40.6314C65.053 41.2526 64.9773 41.8866 65.0079 42.5371L65.0821 43.4598C65.652 43.5607 66.2855 43.4738 66.9826 43.1994C67.699 42.8913 68.3549 42.6109 68.9411 42.3666C69.5519 42.0871 70.0546 41.9336 70.4452 41.9127C70.8675 41.8833 71.0532 42.2645 71.0009 43.0511C70.9733 43.8027 70.7702 44.7041 70.3903 45.7501C70.0369 46.7889 69.3669 47.658 68.3857 48.3561C67.7291 48.6764 67.2766 48.9128 67.0337 49.064C66.8101 49.1815 66.6312 49.2755 66.5062 49.3378C66.3284 49.4145 65.8064 49.6017 64.9439 49.8926C64.2572 52.368 63.9394 54.2263 63.9812 55.4759C64.0031 55.9868 64.1295 56.208 64.3724 56.1421L64.3566 56.1464ZM84.8797 50.5739C86.4635 50.3143 87.6303 50.0827 88.3748 49.8805C89.4149 49.5981 90.3548 48.9794 91.3608 48.7176C91.8149 48.5943 92.3553 48.6691 92.673 49.0145C92.9974 49.3637 93.0316 49.8997 93.314 50.2831C93.4992 50.5338 93.7692 50.699 94.0195 50.8753C95.697 52.0613 93.07 55.4383 91.7844 56.1622C89.9953 57.1648 88.5701 57.8528 87.4981 58.2291C85.7222 58.8533 83.7412 59.323 81.5419 59.6305C79.0894 59.8364 77.7017 59.1681 77.3787 57.6257C75.8962 52.0192 75.6316 46.0535 76.5797 39.7302C76.8894 37.6696 77.2808 35.4903 77.7579 33.1854C77.8556 32.6988 77.8509 32.1889 77.7358 31.6466C77.6471 31.097 77.552 30.5662 77.4439 30.0503C77.3357 29.5344 77.2958 29.0625 77.3213 28.6239C77.3468 28.1853 77.5538 27.8338 77.9381 27.5534C82.8857 23.8359 87.0372 21.7943 90.3858 21.4246C91.5122 21.1472 92.3431 21.3362 92.8892 21.9887C93.4546 22.6076 93.7074 23.4137 93.6566 24.3987C93.6322 25.3765 93.3101 26.3841 92.698 27.4079C92.1123 28.4246 91.2289 29.1927 90.0596 29.7146C88.612 30.5961 87.7323 31.1644 87.4312 31.4166C86.85 31.9151 86.483 32.4748 86.3341 33.0889C86.1148 33.7789 85.9201 34.4338 85.7434 35.0497C85.5681 35.671 85.4924 36.3049 85.523 36.9555L85.5972 37.8782C86.1671 37.979 86.8006 37.8922 87.4977 37.6177C88.2141 37.3096 88.87 37.0293 89.4562 36.7849C90.067 36.5055 90.5697 36.3519 90.9603 36.3311C91.3826 36.3016 91.5683 36.6828 91.516 37.4695C91.4884 38.221 91.2853 39.1224 90.9054 40.1684C90.552 41.2072 89.882 42.0763 88.9008 42.7744C88.2442 43.0947 87.7917 43.3311 87.5488 43.4823C87.3252 43.5998 87.1463 43.6938 87.0213 43.7562C86.8435 43.8328 86.3215 44.02 85.459 44.311C84.7723 46.7863 84.4545 48.6447 84.4963 49.8942C84.5182 50.4051 84.6446 50.6264 84.8875 50.5604L84.8797 50.5739ZM109.383 18.385C110.023 20.8467 108.673 22.5705 108.393 24.9128C107.879 27.3981 107.562 29.6479 107.436 31.6531C107.304 33.637 107.22 35.4149 107.182 37.0042C107.142 38.5882 107.072 39.9931 106.973 41.224C106.839 42.6634 106.542 43.789 106.073 44.6036C105.898 45.2249 105.418 45.7415 104.643 46.1506C103.868 46.5597 103.04 46.8301 102.162 46.9549C101.277 47.0532 100.469 46.9716 99.7426 46.7087C99.043 46.4386 98.6847 45.9395 98.6595 45.2023C98.2858 42.6117 98.1716 40.3822 98.3012 38.5181C98.4625 36.6455 98.6058 35.0901 98.7364 33.8505C98.8934 32.6038 99.014 31.4976 99.0982 30.5319C99.1754 29.5397 99.2665 28.6858 99.3609 27.9729C99.4748 27.2263 99.6238 26.4418 99.8082 25.6194C99.9855 24.7704 100.184 23.9157 100.414 23.0524C100.663 22.1554 100.925 21.3234 101.209 20.5589C101.856 18.8101 102.508 17.7016 103.156 17.2417C103.797 16.7552 104.469 16.3854 105.173 16.1374C106.188 15.7822 107.286 15.5693 108.185 16.3136C108.771 16.7962 109.123 17.5072 109.339 18.238C109.353 18.291 109.367 18.344 109.381 18.397L109.383 18.385ZM107.329 51.2998C107.328 52.4756 106.93 53.4527 106.137 54.2416C105.383 55.0485 104.488 55.6037 103.455 55.9127C102.434 56.2466 101.41 56.3091 100.382 56.1052C99.3924 55.914 98.664 55.3848 98.2062 54.5094C97.729 53.6678 97.6564 52.8583 97.9937 52.0794C98.3504 51.267 98.86 50.6685 99.529 50.2881C100.191 49.8812 100.991 49.5048 101.926 49.1659C102.887 48.8197 103.793 48.6304 104.64 48.5994C105.486 48.5684 106.191 48.7519 106.752 49.1392C107.314 49.5318 107.504 50.2525 107.323 51.3012L107.329 51.2998Z" stroke="black" stroke-width="1.2" stroke-linejoin="round" mask="url(#path-1-outside-1_2013_40716)"/>
<path d="M34.1591 34.1158C33.6824 34.537 33.2054 35.2939 32.7193 36.3461L32.7182 36.3486C30.8586 40.4738 29.5981 46.8087 28.9255 55.3248C28.6956 58.1658 28.5956 60.4918 28.6254 62.2996C28.6545 64.0694 28.808 65.3757 29.1047 66.1832C29.173 66.7719 29.4337 67.2566 29.8871 67.616C30.3408 67.9756 30.9671 68.1938 31.7368 68.2948C32.912 68.4779 34.3923 68.3563 35.609 67.8254C36.8339 67.291 37.8355 66.3165 37.9118 64.7917L37.9142 64.745L37.9131 64.7407C37.9911 63.1635 38.0852 61.5822 38.198 60.0073L38.1981 60.0057C38.2633 59.0256 38.3382 58.1841 38.4225 57.4803C39.0698 57.9665 39.7021 58.5563 40.3083 59.2478C40.6213 59.6478 40.9981 60.1374 41.4415 60.7268L41.4418 60.7272C42.5019 62.1318 43.8842 63.7414 46.0929 63.4035M34.1591 34.1158L44.6749 52.6604C45.1647 53.0868 45.7342 53.5539 46.3823 54.0566C47.0729 54.5582 47.7508 55.0796 48.4198 55.6138C49.1223 56.1414 49.7659 56.6906 50.3601 57.2529C50.9615 57.822 51.4422 58.3899 51.8024 58.9506C52.3356 59.7718 52.3835 60.8988 52.0194 61.8041C51.6493 62.7243 50.8313 63.459 49.6207 63.3983C49.2798 63.3842 48.9456 63.3175 48.6388 63.2562C48.6013 63.2488 48.5643 63.2414 48.5277 63.2342C48.1806 63.1658 47.8658 63.1123 47.5533 63.1266C47.3279 63.1376 47.102 63.1839 46.8576 63.2411C46.8153 63.251 46.7722 63.2613 46.7283 63.2718C46.5267 63.32 46.3101 63.3718 46.0929 63.4035M34.1591 34.1158C34.1587 34.1162 34.1582 34.1166 34.1578 34.117L34.3575 34.3398L34.1605 34.1146C34.16 34.115 34.1596 34.1154 34.1591 34.1158ZM46.0929 63.4035C46.0925 63.4036 46.0922 63.4036 46.0918 63.4037L46.0504 63.1063L46.094 63.4034C46.0936 63.4034 46.0932 63.4035 46.0929 63.4035ZM44.1063 52.5252L43.8851 52.3089C43.9739 52.2558 44.0619 52.2016 44.1492 52.1463L44.369 52.3613C44.2822 52.417 44.1946 52.4717 44.1063 52.5252ZM37.6631 31.7275C37.6629 31.7276 37.6628 31.7277 37.6626 31.7278C37.6625 31.7279 37.6623 31.728 37.6622 31.728L37.8105 31.9883L37.6631 31.7275ZM41.5039 29.8586C41.5031 29.8589 41.5022 29.8592 41.5014 29.8595C41.5006 29.8599 41.4998 29.8602 41.4989 29.8606L41.6106 30.1387L41.5039 29.8586ZM45.2091 29.3492C45.2081 29.349 45.2071 29.3489 45.2062 29.3487C45.2052 29.3486 45.2042 29.3485 45.2033 29.3483L45.161 29.6461L45.2091 29.3492ZM48.2026 30.7136C48.2018 30.7129 48.2009 30.7121 48.2001 30.7114C48.1993 30.7106 48.1985 30.7099 48.1977 30.7092L48.0003 30.9364L48.2026 30.7136ZM50.1438 33.5815L49.8658 33.695L50.1447 33.5837C50.1445 33.5834 50.1444 33.5831 50.1443 33.5827C50.1441 33.5823 50.144 33.5819 50.1438 33.5815ZM42.6443 39.6744L42.6443 39.6745C42.6384 40.8272 42.4357 41.9999 41.8569 42.9845C41.6312 43.3655 41.3538 43.7117 41.0222 44.0139L41.0216 44.0144C40.8702 44.1532 40.7049 44.298 40.5359 44.4461C40.2932 44.6587 40.043 44.878 39.8157 45.0952C39.6294 45.2731 39.447 45.4598 39.276 45.6591C39.2626 45.1493 39.2696 44.6652 39.3699 44.1794L39.3702 44.1779C39.5104 43.4813 39.5963 42.7607 39.6794 42.0646C39.7005 41.8879 39.7213 41.7127 39.7429 41.5399C39.7456 41.5183 39.7483 41.4968 39.751 41.4754C39.8475 40.7057 39.9337 40.0178 40.1836 39.349L40.1849 39.3455C40.2498 39.1649 40.3278 38.99 40.4223 38.8087L40.4227 38.808C40.4484 38.7583 40.4747 38.7068 40.5016 38.6539C40.63 38.4017 40.7737 38.1196 40.9482 37.8664C41.1635 37.5543 41.3827 37.3523 41.6043 37.2939C41.908 37.2149 42.0827 37.2742 42.1989 37.3684C42.3318 37.4761 42.4394 37.6709 42.5152 37.9501C42.6546 38.4632 42.6491 39.1072 42.6452 39.5554C42.6449 39.5968 42.6445 39.6366 42.6443 39.6744Z" fill="#FFC000" stroke="black" stroke-width="0.6"/>
<path d="M63.0064 37.3876C62.8647 37.9262 62.8033 38.4734 62.8262 39.0329L62.8775 39.7066C63.3365 39.7393 63.8525 39.6505 64.4311 39.425C65.1614 39.1137 65.8266 38.8312 66.4321 38.5817C67.0698 38.2874 67.6171 38.1217 68.0731 38.0935C68.2257 38.0828 68.378 38.1078 68.5152 38.1858C68.653 38.2642 68.7523 38.383 68.8202 38.5206C68.9494 38.7822 68.9786 39.1385 68.9516 39.5449C68.9165 40.3392 68.6932 41.2739 68.2933 42.3379C67.9031 43.4515 67.1736 44.3675 66.1163 45.105L66.0965 45.1189L66.0748 45.1293C65.4005 45.4546 64.9492 45.6882 64.7145 45.8321L64.7048 45.8381L64.6946 45.8433C64.6154 45.8839 64.5416 45.9221 64.4735 45.9573C64.3439 46.0243 64.2351 46.0806 64.1492 46.123L64.1419 46.1266L64.1344 46.1298C63.95 46.2086 63.4532 46.386 62.6613 46.6531C61.976 49.0536 61.6606 50.8289 61.6986 52.0035C61.7064 52.2092 61.7336 52.3255 61.7573 52.3827C63.3719 52.1138 64.551 51.8771 65.2968 51.6746C65.7959 51.5391 66.2843 51.3217 66.7958 51.094C66.8167 51.0847 66.8375 51.0754 66.8585 51.0661C67.3836 50.8325 67.9348 50.5911 68.5041 50.4576L68.5044 50.4575C69.0159 50.3381 69.6719 50.4202 70.0588 50.8854C70.2624 51.1299 70.3496 51.4373 70.4167 51.6739C70.4215 51.6908 70.4262 51.7074 70.4308 51.7236C70.5082 51.9933 70.5714 52.1737 70.6969 52.2984C70.7668 52.3675 70.8606 52.4225 70.9916 52.4879C71.0123 52.4983 71.0346 52.5092 71.058 52.5206C71.1679 52.5743 71.3026 52.64 71.4209 52.722C71.421 52.7221 71.4211 52.7222 71.4212 52.7222L71.25 52.9698C72.9664 54.1562 69.8501 57.5179 68.8305 58.2433L63.0064 37.3876ZM63.0064 37.3876L63.0199 37.3839L63.0676 37.2215C63.2494 36.6024 63.4568 35.9471 63.6807 35.2631L63.6839 35.2532L63.6865 35.2432C63.8231 34.7034 64.1594 34.1975 64.7192 33.7196M63.0064 37.3876L64.7192 33.7196M64.7192 33.7196C65.0082 33.4827 65.8817 32.9252 67.3624 32.0362C68.6098 31.4881 69.558 30.678 70.1945 29.5964C70.8463 28.5344 71.1981 27.4819 71.2358 26.4352C71.2966 25.387 71.0267 24.4987 70.3901 23.813C69.7386 23.0534 68.7627 22.8754 67.5589 23.1683C64.0498 23.5698 59.7538 25.6812 54.6699 29.4356C54.2093 29.76 53.943 30.1979 53.9078 30.7373C53.877 31.2082 53.9181 31.7081 54.0301 32.246C54.1364 32.7561 54.2296 33.2821 54.3164 33.8286L54.3176 33.8361L54.3192 33.8435C54.4256 34.3478 54.4261 34.8158 54.3326 35.2595C53.8355 37.5729 53.4156 39.7645 53.0855 41.8363C52.067 48.2104 52.3067 54.2216 53.7988 59.8692C53.9798 60.728 54.4741 61.354 55.2647 61.7231C56.0403 62.0852 57.0819 62.1921 58.3601 62.0794L58.3685 62.0786L58.3768 62.0774C60.6417 61.7483 62.6962 61.2655 64.532 60.6234C64.532 60.6234 64.5319 60.6234 64.5319 60.6234L64.4349 60.3397L64.7192 33.7196Z" fill="#00A3FF" stroke="black" stroke-width="0.6"/>
<path d="M97.1987 26.7789C97.284 25.7805 97.3828 24.9197 97.4845 24.1995L97.4856 24.1916L97.4857 24.1916C97.6128 23.4374 97.7656 22.6466 97.9606 21.8153C98.1478 20.9602 98.3571 20.0983 98.5991 19.2268L98.5998 19.2245L98.5998 19.2245C98.8609 18.3124 99.137 17.4742 99.4364 16.6971L99.4364 16.697C99.7788 15.8089 100.122 15.0741 100.469 14.498C100.813 13.9273 101.172 13.4935 101.552 13.2264C102.232 12.7201 102.947 12.3312 103.698 12.068L103.699 12.0678C104.74 11.705 106.01 11.4343 107.062 12.2738L107.063 12.2745C107.724 12.8066 108.104 13.5798 108.329 14.3389L105.724 33.2358L106.024 33.2426C106.024 33.2427 106.023 33.2429 106.023 33.2431C105.979 34.8328 105.898 36.2465 105.784 37.4889L105.784 37.4905C105.642 38.9371 105.326 40.1052 104.821 40.9733M97.1987 26.7789C97.1987 26.7784 97.1987 26.778 97.1988 26.7775L97.4969 26.8043L97.1985 26.7804C97.1986 26.7799 97.1986 26.7794 97.1987 26.7789ZM97.1987 26.7789C97.1072 27.7413 96.9777 28.8453 96.8101 30.0914L96.8101 30.0914L96.8093 30.0976C96.668 31.3426 96.5118 32.9034 96.3356 34.7804L96.3355 34.7804L96.3352 34.7846C96.184 36.6785 96.2943 38.927 96.661 41.5261M96.661 41.5261C96.6756 41.937 96.7862 42.3029 97.008 42.6067C97.2325 42.9143 97.555 43.1364 97.9542 43.2826L97.9542 43.2826L97.9584 43.2841C98.7488 43.5602 99.6138 43.6345 100.562 43.5305L100.562 43.5307L100.572 43.5292C101.503 43.3941 102.386 43.1135 103.211 42.677M96.661 41.5261C96.6608 41.5204 96.6607 41.5146 96.6605 41.5088L96.9599 41.4984M96.661 41.5261C96.6618 41.5315 96.6626 41.5369 96.6633 41.5423L96.9599 41.4984M103.211 42.677C104.034 42.2474 104.598 41.6848 104.821 40.9733M103.211 42.677C103.21 42.6771 103.21 42.6773 103.21 42.6774L103.073 42.411M103.211 42.677C103.211 42.6769 103.211 42.6767 103.211 42.6766L103.073 42.411M104.821 40.9733C104.814 40.984 104.808 40.9947 104.802 41.0053L104.545 40.8529M104.821 40.9733C104.824 40.961 104.828 40.9487 104.832 40.9363L104.545 40.8529M104.545 40.8529C104.362 41.4761 103.867 41.9965 103.073 42.411M104.545 40.8529C105.029 40.0342 105.345 38.9037 105.486 37.4629L103.073 42.411M103.073 42.411C102.28 42.8308 101.429 43.1013 100.531 43.2318M103.073 42.411L100.531 43.2318M100.531 43.2318C99.6183 43.3319 98.7991 43.259 98.0583 43.0002C97.346 42.7394 96.9812 42.2365 96.9599 41.4984M100.531 43.2318L96.6337 34.8069C96.4846 36.6758 96.5933 38.9063 96.9599 41.4984" fill="#FF00E5" stroke="black" stroke-width="0.6"/>
<path d="M100.18 45.1746L100.18 45.1748C99.2094 45.5245 98.3713 45.9135 97.672 46.3366C96.9233 46.7581 96.3595 47.413 95.9682 48.2766L95.9682 48.2766L95.9676 48.278C95.5731 49.1603 95.6605 50.0707 96.1811 50.9786C96.6887 51.9336 97.51 52.5163 98.6027 52.7118C99.6986 52.9258 100.795 52.8473 101.89 52.4914C102.991 52.1622 103.952 51.5742 104.767 50.7257C105.629 49.8803 106.071 48.8315 106.091 47.5882C106.283 46.5022 106.101 45.6353 105.389 45.1505C104.752 44.7166 103.971 44.532 103.052 44.5718L103.019 44.5732L103.013 44.5747C102.122 44.6161 101.175 44.8183 100.18 45.1746Z" fill="#FF00E5" stroke="black" stroke-width="0.6"/>
<path d="M84.0761 31.5636C83.9099 32.1428 83.8366 32.7316 83.8614 33.3346L83.9126 34.0083C84.3716 34.0411 84.8876 33.9522 85.4662 33.7267C86.1965 33.4155 86.8618 33.1329 87.4672 32.8834C88.1049 32.5891 88.6522 32.4234 89.1083 32.3952C89.2609 32.3845 89.4132 32.4095 89.5503 32.4875C89.6881 32.5659 89.7874 32.6847 89.8554 32.8223C89.9845 33.084 90.0138 33.4402 89.9868 33.8467C89.9516 34.641 89.7283 35.5756 89.3285 36.6396C88.9383 37.7532 88.2087 38.6692 87.1514 39.4068L87.1317 39.4206L87.1099 39.4311C86.4356 39.7563 85.9844 39.9899 85.7496 40.1338L85.7399 40.1398L85.7297 40.145C85.6505 40.1857 85.5766 40.2239 85.5085 40.2591C85.379 40.3261 85.2702 40.3824 85.1843 40.4247L85.177 40.4283L85.1695 40.4315C84.9851 40.5103 84.4884 40.6877 83.6964 40.9548C83.0112 43.3553 82.6957 45.1306 82.7337 46.3053C82.7415 46.511 82.7688 46.6272 82.7924 46.6844C84.407 46.4155 85.5861 46.1788 86.3319 45.9763C86.8375 45.8391 87.3217 45.6214 87.8278 45.3939L87.8289 45.3934L87.829 45.3934C88.3275 45.1693 88.8492 44.9348 89.3955 44.7925L89.3958 44.7924C89.9245 44.6553 90.597 44.7162 91.0257 45.1635L91.0268 45.1647C91.2379 45.3874 91.3456 45.6624 91.4295 45.8851C91.4355 45.9008 91.4413 45.9163 91.447 45.9315C91.5289 46.1495 91.5922 46.3178 91.6968 46.4574L91.6985 46.4596C91.8129 46.6152 91.974 46.725 92.1816 46.8666C92.2337 46.9021 92.2887 46.9396 92.3466 46.9803C92.8789 47.3464 93.0596 47.8923 93.0203 48.4695C92.982 49.0311 92.7378 49.6363 92.413 50.1993C92.0854 50.7669 91.6616 51.3159 91.2351 51.7703C90.8118 52.2211 90.3698 52.5956 90.0005 52.7991C88.1602 53.8168 86.6813 54.5242 85.559 54.916C85.5589 54.916 85.5588 54.916 85.5588 54.9161L85.4618 54.6323C83.6473 55.2669 81.6119 55.7458 79.3625 56.0726L84.0761 31.5636ZM84.0761 31.5636L84.0838 31.5505L84.0945 31.5141C84.2763 30.895 84.4837 30.2397 84.7076 29.5557L84.7108 29.5459L84.7134 29.5358C84.85 28.9962 85.1861 28.4905 85.7455 28.0127C86.0414 27.7732 86.9108 27.2165 88.3894 26.3288C89.6367 25.7807 90.5849 24.9706 91.2214 23.889C91.8732 22.827 92.225 21.7745 92.2627 20.7278C92.3235 19.6796 92.0537 18.7913 91.417 18.1056C90.7656 17.346 89.7896 17.168 88.5858 17.4609C85.0767 17.8624 80.7807 19.9738 75.6969 23.7282C75.2362 24.0526 74.97 24.4905 74.9347 25.0299C74.9039 25.5008 74.945 26.0007 75.0571 26.5386C75.1633 27.0487 75.2565 27.5747 75.3434 28.1212L75.3446 28.1287L75.3461 28.1361C75.4525 28.6404 75.453 29.1084 75.3596 29.5521C74.8624 31.8655 74.4425 34.0571 74.1124 36.1289L84.0761 31.5636ZM86.4086 46.2664C85.6461 46.4734 84.4516 46.7126 82.8304 46.9824L90.8092 45.3725C90.481 45.03 89.9357 44.9623 89.4692 45.0833C88.9472 45.2193 88.4447 45.4452 87.9381 45.6729C87.4395 45.897 86.9371 46.1229 86.4086 46.2664Z" fill="#FFC000" stroke="black" stroke-width="0.6"/>
<path d="M21.2805 52.1711C21.3697 51.8928 21.4634 51.5497 21.5515 51.2046C21.7125 50.5734 21.8596 49.9154 21.9295 49.6024C21.9447 49.5342 21.9563 49.4824 21.9636 49.4508L21.9638 49.4496C22.1137 48.7858 22.2397 48.1082 22.3645 47.4366C22.4202 47.1368 22.4757 46.8382 22.533 46.5426C25.6966 46.5451 28.106 43.8824 29.1323 41.2277L29.1331 41.2258C29.4314 40.4384 29.6188 39.6479 29.6817 38.8581C29.7767 38.061 29.7392 37.3355 29.5658 36.6795C29.3888 36.0104 29.0469 35.4593 28.5514 35.0259C28.0653 34.5689 27.4396 34.3417 26.7054 34.325C26.0193 34.3015 25.3522 34.4043 24.7025 34.6409L24.7025 34.6408L24.6993 34.6421C24.4208 34.7471 24.1377 34.8708 23.8494 35.0068L23.8494 35.0068L23.8458 35.0085C23.6047 35.1263 23.3165 35.2319 22.979 35.3235L22.9445 35.3329L22.9131 35.3501C22.0865 35.8036 21.3218 36.1498 20.6201 36.396C19.8883 36.6233 19.174 36.8743 18.4825 37.1476C17.7716 37.3992 17.0807 37.7205 16.4083 38.1058C15.7266 38.4963 15.1132 38.9622 14.5599 39.4932L14.5598 39.4932L14.5545 39.4986C14.0447 40.0132 13.6683 40.4583 13.4481 40.8279C13.2149 41.1816 12.9978 41.7457 12.7836 42.4902L12.7835 42.4902L12.7811 42.4994C12.5846 43.2734 12.4211 45.1238 12.284 48.0127L12.2834 48.0242L12.2838 48.0358C12.3163 49.159 12.2949 51.5013 12.2187 55.0709C12.1593 56.5132 12.0617 59.0148 11.9245 62.5699C11.7821 66.1219 11.732 68.7015 11.7753 70.3028C11.7427 71.0532 11.8872 71.6973 12.2395 72.2086C12.5944 72.7237 13.1368 73.0703 13.8337 73.2663C15.1303 73.6512 16.4208 73.4526 17.6933 72.6828L17.6956 72.6814C19.0739 71.8307 19.8252 70.6848 19.8694 69.2449L19.8715 69.2346C19.9434 68.8886 19.9625 68.3225 19.9342 67.5567L19.9342 67.5558C19.9307 67.4705 19.9274 67.3769 19.9237 67.2752C19.9165 67.0769 19.9082 66.8475 19.8963 66.5874C19.9079 66.1945 20.0304 65.0243 20.2639 63.0527C20.3529 62.4062 20.4367 61.7828 20.5115 61.1896C20.598 60.6461 20.6577 60.1737 20.6915 59.7658C20.913 59.6843 21.1484 59.6017 21.3913 59.5165C21.971 59.3133 22.5937 59.0949 23.1741 58.839C24.0744 58.4421 24.9468 57.9268 25.5332 57.1574C25.8387 56.7583 26.0867 56.3303 26.3151 55.9059C26.397 55.7535 26.4755 55.6038 26.553 55.4557C26.6954 55.1836 26.8348 54.9173 26.9876 54.652C27.0039 54.6238 27.0206 54.5951 27.0377 54.5659C27.2099 54.2706 27.4117 53.9247 27.4927 53.5373L27.4931 53.5355C27.6113 52.9521 27.4173 52.3955 27.0755 51.9654C26.7348 51.5366 26.2334 51.2136 25.6884 51.0868C25.6883 51.0867 25.6883 51.0867 25.6882 51.0867L21.2805 52.1711Z" fill="#00A3FF" stroke="black" stroke-width="0.6"/>
</svg>
