<svg width="84" height="84" viewBox="0 0 84 84" fill="none" xmlns="http://www.w3.org/2000/svg">
<g clip-path="url(#clip0_2017_30513)">
<mask id="mask0_2017_30513" style="mask-type:alpha" maskUnits="userSpaceOnUse" x="44" y="28" width="14" height="28">
<path d="M58 43.4C58 52.5 54.866 56 51 56C47.134 56 44 52.5 44 43.4C44 34.3 45.4 28 51 28C56.6 28 58 34.3 58 43.4Z" fill="white"/>
</mask>
<g mask="url(#mask0_2017_30513)">
<path d="M58 43.4C58 52.5 54.866 56 51 56C47.134 56 44 52.5 44 43.4C44 34.3 45.4 28 51 28C56.6 28 58 34.3 58 43.4Z" fill="white"/>
<path d="M51 38C51 41.866 50.3 45 47.5 45C44.7 45 44 41.866 44 38C44 34.134 44.7 31 47.5 31C50.3 31 51 34.134 51 38Z" fill="black"/>
</g>
</g>
<g clip-path="url(#clip1_2017_30513)">
<mask id="mask1_2017_30513" style="mask-type:alpha" maskUnits="userSpaceOnUse" x="26" y="28" width="14" height="28">
<path d="M40 43.4C40 52.5 36.866 56 33 56C29.134 56 26 52.5 26 43.4C26 34.3 27.4 28 33 28C38.6 28 40 34.3 40 43.4Z" fill="white"/>
</mask>
<g mask="url(#mask1_2017_30513)">
<path d="M40 43.4C40 52.5 36.866 56 33 56C29.134 56 26 52.5 26 43.4C26 34.3 27.4 28 33 28C38.6 28 40 34.3 40 43.4Z" fill="white"/>
<path d="M33 38C33 41.866 32.3 45 29.5 45C26.7 45 26 41.866 26 38C26 34.134 26.7 31 29.5 31C32.3 31 33 34.134 33 38Z" fill="black"/>
</g>
</g>
<defs>
<clipPath id="clip0_2017_30513">
<rect width="14" height="28" fill="white" transform="translate(44 28)"/>
</clipPath>
<clipPath id="clip1_2017_30513">
<rect width="14" height="28" fill="white" transform="translate(26 28)"/>
</clipPath>
</defs>
</svg>
