<svg width="24" height="24" viewBox="0 0 24 24" fill="none" xmlns="http://www.w3.org/2000/svg">
<rect width="24" height="24.0003" rx="12" fill="#DDDDDD"/>
<path d="M18.3518 11.8849L19.0261 11.0934L18.7329 10.8784L19.202 10.4484L18.8404 10.1748L19.3094 9.82303L19.0065 9.5885L19.4951 7.2041L18.7524 4.99561M18.7524 4.99561L13.9837 6.76436H10.0065L5.23779 4.99561L4.49512 7.2041L4.99349 9.5885L4.68078 9.82303L5.15961 10.1748L4.79805 10.4484L5.2671 10.8784L4.97394 11.0934L5.64821 11.8849L4.62215 15.0511L5.57004 18.2857L8.90228 17.3671L9.54724 17.8948L10.8665 18.7938H13.1238L14.443 17.8948L15.088 17.3671L18.43 18.2857L19.3876 15.0511L18.3518 11.8849" fill="#F5841F"/>
<path d="M18.7524 4.99561L12.899 9.30511L13.9837 6.76436L18.7524 4.99561Z" fill="#E27625"/>
<path d="M5.23779 4.99561L11.0424 9.3442L10.0065 6.76436L5.23779 4.99561Z" fill="#E27625"/>
<path d="M16.6515 14.9927L15.088 17.3575L18.43 18.2761L19.3876 15.0415L16.6515 14.9927Z" fill="#E27625"/>
<path d="M4.62216 15.0415L5.57004 18.2761L8.90229 17.3575L7.34855 14.9927L4.62216 15.0415Z" fill="#E27625"/>
<path d="M8.7264 10.9857L7.79807 12.3831L11.101 12.5297L10.9935 8.99219L8.7264 10.9857Z" fill="#E27625"/>
<path d="M15.2736 10.9857L12.9674 8.95312L12.899 12.5297L16.2019 12.3831L15.2736 10.9857Z" fill="#E27625"/>
<path d="M8.90228 17.3575L10.9055 16.3998L9.1759 15.0708L8.90228 17.3575Z" fill="#E27625"/>
<path d="M13.0945 16.3998L15.088 17.3575L14.8144 15.0708L13.0945 16.3998Z" fill="#E27625"/>
<path d="M15.088 17.3576L13.0945 16.3999L13.2606 17.6898L13.2411 18.2371L15.088 17.3576Z" fill="#D7C1B3"/>
<path d="M8.90228 17.3576L10.759 18.2371L10.7492 17.6898L10.9055 16.3999L8.90228 17.3576Z" fill="#D7C1B3"/>
<path d="M10.7883 14.2106L9.13681 13.7318L10.3094 13.1943L10.7883 14.2106Z" fill="#2F343B"/>
<path d="M13.202 14.2106L13.6906 13.1943L14.8632 13.7318L13.202 14.2106Z" fill="#2F343B"/>
<path d="M8.90229 17.3575L9.19545 14.9927L7.34854 15.0415L8.90229 17.3575Z" fill="#CC6228"/>
<path d="M14.8046 14.9927L15.088 17.3575L16.6515 15.0415L14.8046 14.9927Z" fill="#CC6228"/>
<path d="M16.2019 12.3833L12.899 12.5299L13.2019 14.2107L13.6905 13.1944L14.8632 13.7319L16.2019 12.3833Z" fill="#CC6228"/>
<path d="M9.13683 13.7319L10.3095 13.1944L10.7883 14.2107L11.101 12.5299L7.79807 12.3833L9.13683 13.7319Z" fill="#CC6228"/>
<path d="M7.79807 12.3833L9.17592 15.0706L9.13683 13.7319L7.79807 12.3833Z" fill="#E27625"/>
<path d="M14.8632 13.7319L14.8143 15.0706L16.202 12.3833L14.8632 13.7319Z" fill="#E27625"/>
<path d="M11.101 12.5298L10.7883 14.2106L11.1791 16.2041L11.2671 13.5852L11.101 12.5298Z" fill="#E27625"/>
<path d="M12.899 12.5298L12.7329 13.5754L12.8111 16.2041L13.202 14.2106L12.899 12.5298Z" fill="#E27625"/>
<path d="M13.202 14.2108L12.8111 16.2043L13.0945 16.3997L14.8144 15.0707L14.8632 13.7319L13.202 14.2108Z" fill="#F5841F"/>
<path d="M9.13681 13.7319L9.1759 15.0707L10.9055 16.3997L11.1792 16.2043L10.7883 14.2108L9.13681 13.7319Z" fill="#F5841F"/>
<path d="M13.241 18.2369L13.2606 17.6897L13.1042 17.5626H10.886L10.7492 17.6897L10.759 18.2369L8.90228 17.3574L9.54723 17.8851L10.8665 18.7939H13.1238L14.443 17.8851L15.088 17.3574L13.241 18.2369Z" fill="#C0AD9E"/>
<path d="M13.0945 16.3995L12.8111 16.2041H11.1792L10.9056 16.3995L10.7492 17.6895L10.886 17.5624H13.1043L13.2606 17.6895L13.0945 16.3995Z" fill="#2F343B"/>
<path d="M19.0065 9.5885L19.4951 7.2041L18.7525 4.99561L13.0945 9.15852L15.2736 10.9859L18.3518 11.8849L19.0261 11.0934L18.7329 10.8784L19.202 10.4582L18.8404 10.1748L19.3095 9.82303L19.0065 9.5885Z" fill="#763E1A"/>
<path d="M4.49512 7.2041L4.99349 9.5885L4.68078 9.82303L5.14984 10.1846L4.78828 10.4582L5.25733 10.8784L4.96417 11.0934L5.64821 11.8849L8.72639 10.9859L10.9055 9.15853L5.23779 4.99561L4.49512 7.2041Z" fill="#763E1A"/>
<path d="M18.3518 11.8849L15.2736 10.9858L16.202 12.3833L14.8143 15.0706L16.6515 15.0413H19.3876L18.3518 11.8849Z" fill="#F5841F"/>
<path d="M8.7264 10.9858L5.64822 11.8849L4.62216 15.0413H7.34855L9.17591 15.0706L7.79806 12.3833L8.7264 10.9858Z" fill="#F5841F"/>
<path d="M12.899 12.5297L13.0945 9.15833L13.9837 6.76416H10.0065L10.9056 9.15833L11.101 12.5297L11.1792 13.5851V16.204H12.8111L12.8209 13.5851L12.899 12.5297Z" fill="#F5841F"/>
</svg>
