<svg width="175" height="114" viewBox="0 0 175 114" fill="none" xmlns="http://www.w3.org/2000/svg">
<path d="M29.6022 48.2603C30.2401 47.197 31.393 46.5507 32.6329 46.5611C33.8727 46.5715 35.0146 47.2372 35.6345 48.311C36.1555 49.2134 36.6878 49.6673 37.1505 49.9142C37.621 50.1654 38.2348 50.3168 39.0825 50.2804C40.9019 50.2024 43.3834 49.2759 46.3556 47.4487C52.1868 43.864 58.4007 37.7641 62.3757 33.139C63.5618 31.6043 65.8156 29.7083 68.6297 28.9893C70.1411 28.6032 71.8942 28.5411 73.6907 29.1648C75.4937 29.7908 77.0695 31.0136 78.3724 32.7508C80.9647 36.2072 81.0917 39.8633 80.6302 42.5831C81.4037 43.0106 82.1467 43.5714 82.8016 44.2722C84.4754 46.0635 85.3834 48.5316 85.2 51.5099C85.9422 52.0088 86.6778 52.6653 87.3231 53.4956C88.726 55.3007 89.5441 57.7149 89.3454 60.6497C90.0669 61.1324 90.7786 61.7659 91.4052 62.5682C93.3044 65 94.077 68.5041 92.9232 72.9231C91.7062 77.5841 88.4606 81.6064 85.3757 84.5771C82.2355 87.601 78.8848 89.8932 76.8721 91.0553C64.9015 97.9665 50.8981 99.5752 38.0224 90.9299C22.3859 80.4309 21.6985 61.4332 29.6022 48.2603Z" fill="white"/>
<rect x="15.6882" y="25.7637" width="40" height="70" rx="6" transform="rotate(-30 15.6882 25.7637)" fill="white"/>
<path fill-rule="evenodd" clip-rule="evenodd" d="M155.635 36.3274C152.652 34.0692 147.473 32.5517 142.575 36.2389C138.632 39.2069 135.597 45.1008 133.809 54.7988C131.574 54.3782 129.006 54.3468 126.387 55.0844C126.416 54.7482 126.43 54.4117 126.428 54.0759C127.184 53.6316 127.897 53.0917 128.547 52.4575C132.596 48.5052 132.912 42.1729 129.263 37.8516L124.223 31.8819C119.785 26.6257 111.705 26.2513 106.779 31.0586C104.435 33.3464 103.282 36.345 103.298 39.33C101.204 40.3054 99.3701 41.9134 98.1188 44.0807C96.7698 46.4173 96.3226 49.0144 96.6539 51.4774C94.6154 52.9882 93.0598 55.1939 92.3745 57.8818C91.7412 60.3654 91.9511 62.8668 92.8057 65.0861C90.9282 67.1516 89.8109 69.9263 89.875 72.9993C89.9981 78.9001 94.4157 83.7597 99.965 84.7413C108.815 92.2753 116.719 95.396 123.521 95.9728C132.437 96.7286 138.739 93.0556 141.952 90.7685C149.592 85.3282 155.794 74.2934 158.861 63.9245C160.414 58.6722 161.252 53.3051 160.978 48.5822C160.708 43.9467 159.316 39.3063 155.726 36.3982C155.696 36.3742 155.666 36.3505 155.635 36.3274Z" fill="white"/>
<rect x="129.614" y="4.52979" width="40" height="70" rx="6" transform="rotate(30 129.614 4.52979)" fill="white"/>
<rect x="130.346" y="7.26172" width="36" height="59" rx="4" transform="rotate(30 130.346 7.26172)" fill="black"/>
<ellipse cx="138.055" cy="16.9089" rx="1.5" ry="1.5" transform="rotate(30 138.055 16.9089)" fill="#00A3FF"/>
<rect x="142.702" y="17.8599" width="10" height="3" rx="1.5" transform="rotate(30 142.702 17.8599)" fill="#00A3FF"/>
<path d="M139.921 87.9172C153.41 78.3128 163.452 47.1602 153.523 39.1179C149.237 35.8739 139.858 35.3856 136.626 59.3846C131.696 56.9232 120.789 56.0147 116.599 72.0711L98.8457 61.8211L94.0778 74.0794C118.023 100.606 134.156 92.0224 139.921 87.9172Z" fill="#00A3FF" stroke="black" stroke-width="3" stroke-linecap="round" stroke-linejoin="round"/>
<path d="M93.3741 72.9881C93.2723 68.1069 97.4012 64.3751 102.269 64.9485L109.741 65.8284C113.606 66.2837 116.616 69.587 116.697 73.4632C116.778 77.3395 113.904 80.5229 110.053 80.821L102.612 81.3972C97.7641 81.7726 93.476 77.8693 93.3741 72.9881Z" fill="#00A3FF" stroke="black" stroke-width="3"/>
<path d="M95.7566 58.7809C96.9526 54.0898 101.903 51.5446 106.429 53.2941L113.75 56.1241C117.34 57.5121 119.357 61.4126 118.408 65.1342C117.459 68.8559 113.855 71.18 110.084 70.503L102.393 69.1227C97.6392 68.2694 94.5605 63.472 95.7566 58.7809Z" fill="#00A3FF" stroke="black" stroke-width="3"/>
<path d="M101.15 45.8308C103.564 41.6492 109.052 40.4505 112.99 43.2445L119.804 48.0793C122.924 50.293 123.847 54.5177 121.934 57.8308C120.021 61.144 115.901 62.4571 112.424 60.8619L104.83 57.3779C100.441 55.3645 98.7354 50.0125 101.15 45.8308Z" fill="#00A3FF" stroke="black" stroke-width="3"/>
<path d="M109.249 33.5381C112.713 30.1567 118.407 30.4243 121.524 34.1149L126.564 40.0846C129.036 43.0125 128.825 47.2954 126.077 49.9779C123.328 52.6605 118.942 52.8645 115.945 50.4491L109.834 45.5243C106.055 42.4797 105.784 36.9195 109.249 33.5381Z" fill="#00A3FF" stroke="black" stroke-width="3"/>
<rect x="18.4204" y="26.4961" width="36" height="66" rx="4" transform="rotate(-30 18.4204 26.4961)" fill="black"/>
<rect x="22.5186" y="27.5942" width="15" height="15" rx="4" transform="rotate(-30 22.5186 27.5942)" fill="#FFC000"/>
<circle cx="28.6656" cy="29.2412" r="2.5" transform="rotate(-30 28.6656 29.2412)" fill="black"/>
<circle cx="35.3616" cy="28.8394" r="2.5" transform="rotate(-30 35.3616 28.8394)" fill="black"/>
<circle cx="31.6656" cy="34.4375" r="2.5" transform="rotate(-30 31.6656 34.4375)" fill="black"/>
<path d="M40.0723 88.1963C51.5731 95.9184 64.1006 94.6166 75.221 88.1963C78.8231 86.1166 87.683 79.6892 89.6356 72.211C91.4994 65.0728 86.7764 62.8921 85.5017 63.0507C87.4905 56.1289 82.6424 53.7319 81.3676 53.8905C83.3565 46.9687 78.3136 44.8817 76.3675 45.2301C77.1341 43.396 78.6438 38.9863 75.6713 35.0229C71.8369 29.9104 66.7938 33.3838 65.1961 35.5141C57.0315 45.0392 39.1024 61.3183 32.7023 50.2331C25.5128 62.2156 26.3494 78.9821 40.0723 88.1963Z" fill="#FFC000"/>
<path d="M75.221 88.1963L74.471 86.8972L74.471 86.8972L75.221 88.1963ZM40.0723 88.1963L40.9085 86.9509L40.0723 88.1963ZM32.7023 50.2331L34.0013 49.4831C33.7357 49.0229 33.2463 48.7376 32.7149 48.7331C32.1836 48.7287 31.6895 49.0057 31.4161 49.4613L32.7023 50.2331ZM65.1961 35.5141L66.335 36.4903C66.3562 36.4655 66.3766 36.4401 66.3961 36.4141L65.1961 35.5141ZM75.6713 35.0229L74.4713 35.923L74.4713 35.923L75.6713 35.0229ZM89.6356 72.211L88.1842 71.832L89.6356 72.211ZM66.1374 55.1843C65.4575 55.6576 65.2901 56.5925 65.7635 57.2724C66.2369 57.9522 67.1718 58.1196 67.8516 57.6462L66.1374 55.1843ZM71.1373 63.8444C70.4575 64.3178 70.2901 65.2526 70.7634 65.9325C71.2368 66.6124 72.1717 66.7798 72.8515 66.3064L71.1373 63.8444ZM76.0528 72.5683C75.408 73.0884 75.3069 74.0327 75.827 74.6775C76.3471 75.3224 77.2915 75.4234 77.9363 74.9033L76.0528 72.5683ZM58.6352 62.9704C59.3266 62.5139 59.517 61.5835 59.0605 60.8921C58.6041 60.2008 57.6736 60.0104 56.9823 60.4669L58.6352 62.9704ZM57.8087 61.7186L58.5587 63.0177C58.5847 63.0027 58.6102 62.9869 58.6352 62.9704L57.8087 61.7186ZM50.1558 62.9199C49.3275 62.906 48.6447 63.5661 48.6308 64.3945C48.6169 65.2228 49.2771 65.9055 50.1054 65.9194L50.1558 62.9199ZM63.5587 71.6778C64.2761 71.2636 64.5219 70.3462 64.1077 69.6288C63.6935 68.9114 62.7761 68.6655 62.0587 69.0798L63.5587 71.6778ZM54.9529 71.5905C54.1303 71.6886 53.543 72.435 53.6411 73.2576C53.7393 74.0801 54.4856 74.6675 55.3082 74.5694L54.9529 71.5905ZM68.5588 80.3382C69.2762 79.924 69.522 79.0066 69.1078 78.2892C68.6936 77.5718 67.7762 77.326 67.0588 77.7402L68.5588 80.3382ZM59.9058 79.8074C59.0775 79.7934 58.3947 80.4536 58.3808 81.2819C58.3669 82.1102 59.027 82.793 59.8554 82.8069L59.9058 79.8074ZM74.471 86.8972C63.7155 93.1069 51.8204 94.2777 40.9085 86.9509L39.2362 89.4416C51.3259 97.5591 64.4858 96.1263 75.971 89.4953L74.471 86.8972ZM40.9085 86.9509C28.0045 78.2867 27.106 62.4757 33.9885 51.0048L31.4161 49.4613C23.9196 61.9554 24.6943 79.6775 39.2362 89.4416L40.9085 86.9509ZM66.3961 36.4141C67.037 35.5595 68.4266 34.3992 69.9662 34.0058C70.7038 33.8174 71.438 33.8132 72.1496 34.0603C72.8584 34.3064 73.6604 34.8417 74.4713 35.923L76.8713 34.1229C75.765 32.6479 74.4987 31.7002 73.1336 31.2263C71.7713 30.7533 70.4258 30.792 69.2236 31.0992C66.8837 31.6969 64.9529 33.3384 63.9961 34.6141L66.3961 36.4141ZM74.4713 35.923C76.9169 39.1837 75.7286 42.8691 74.9836 44.6516L77.7515 45.8085C78.5397 43.9228 80.3708 38.7889 76.8713 34.1229L74.4713 35.923ZM76.6319 46.7066C77.0577 46.6304 78.3057 46.8505 79.2472 47.8581C80.0731 48.7419 80.8052 50.4163 79.926 53.4762L82.8093 54.3047C83.9189 50.4429 83.124 47.6129 81.4391 45.8098C79.8699 44.1305 77.6235 43.4814 76.1032 43.7535L76.6319 46.7066ZM81.5528 55.379C81.4373 55.3934 81.6568 55.3638 82.1439 55.6148C82.5675 55.8331 83.0563 56.1983 83.4741 56.7359C84.2641 57.7524 84.9406 59.5718 84.06 62.6365L86.9434 63.4649C88.0516 59.6078 87.2984 56.7678 85.8428 54.895C85.1379 53.9879 84.2999 53.3509 83.5181 52.9481C82.7999 52.578 81.9353 52.3083 81.1824 52.402L81.5528 55.379ZM85.6869 64.5392C85.5961 64.5505 85.8206 64.527 86.2817 64.7554C86.6881 64.9567 87.1582 65.299 87.5634 65.8178C88.3314 66.8012 89.0209 68.6278 88.1842 71.832L91.0869 72.5899C92.1141 68.6559 91.374 65.8231 89.9278 63.9713C89.2259 63.0725 88.3927 62.4532 87.6132 62.0671C86.8886 61.7082 86.0447 61.4716 85.3165 61.5622L85.6869 64.5392ZM88.1842 71.832C87.3111 75.176 84.8405 78.4184 82.0064 81.1476C79.196 83.8539 76.1813 85.9098 74.471 86.8972L75.971 89.4953C77.8627 88.4031 81.079 86.2054 84.0873 83.3085C87.0718 80.4345 90.0075 76.7242 91.0869 72.5899L88.1842 71.832ZM74.9836 44.6516C73.4872 48.2319 70.7609 51.9649 66.1374 55.1843L67.8516 57.6462C72.9354 54.1064 76.0314 49.924 77.7515 45.8085L74.9836 44.6516ZM79.926 53.4762C78.8724 57.1429 75.8775 60.544 71.1373 63.8444L72.8515 66.3064C77.8189 62.8478 81.4762 58.9442 82.8093 54.3047L79.926 53.4762ZM84.0784 62.577C83.0148 65.7727 80.9715 68.6008 76.0528 72.5683L77.9363 74.9033C83.091 70.7455 85.6098 67.4756 86.9249 63.5244L84.0784 62.577ZM64.0573 34.5379C60.0224 39.2451 53.6163 45.5658 47.5019 49.3246C44.4274 51.2147 41.5946 52.3509 39.2671 52.4507C38.1297 52.4994 37.1483 52.2995 36.3075 51.8507C35.4701 51.4037 34.6819 50.6618 34.0013 49.4831L31.4033 50.9831C32.3228 52.5757 33.4948 53.7499 34.8948 54.4972C36.2914 55.2428 37.8245 55.5153 39.3956 55.4479C42.485 55.3154 45.8447 53.865 49.0731 51.8803C55.5645 47.8896 62.2053 41.3082 66.335 36.4903L64.0573 34.5379ZM56.9823 60.4669L56.9823 60.4669L58.6352 62.9704L58.6352 62.9704L56.9823 60.4669ZM57.0587 60.4196C56.188 60.9223 55.0749 61.5631 53.8376 62.0774C52.5914 62.5953 51.3227 62.9395 50.1558 62.9199L50.1054 65.9194C51.8535 65.9488 53.5578 65.4425 54.989 64.8476C56.4289 64.2492 57.6974 63.515 58.5587 63.0177L57.0587 60.4196ZM62.0587 69.0798C60.0007 70.2679 57.7098 71.2617 54.9529 71.5905L55.3082 74.5694C58.6011 74.1766 61.2865 72.9897 63.5587 71.6778L62.0587 69.0798ZM67.0588 77.7402C66.7393 77.9246 65.5849 78.4668 64.1324 78.9582C62.6681 79.4535 61.1002 79.8275 59.9058 79.8074L59.8554 82.8069C61.576 82.8359 63.5392 82.3259 65.0938 81.8C66.6601 81.2701 68.0122 80.6538 68.5588 80.3382L67.0588 77.7402Z" fill="black"/>
</svg>
