<svg width="182" height="158" viewBox="0 0 182 158" fill="none" xmlns="http://www.w3.org/2000/svg">
<g clip-path="url(#clip0_95_6788)">
<mask id="path-1-outside-1_95_6788" maskUnits="userSpaceOnUse" x="26" y="37.4994" width="131" height="105" fill="black">
<rect fill="white" x="26" y="37.4994" width="131" height="105"/>
<path fill-rule="evenodd" clip-rule="evenodd" d="M112.313 44.7053C109.112 43.8477 105.822 45.7472 104.964 48.948L99.0772 70.918C95.6174 70.8599 92.2054 72.6158 90.3292 75.8656C89.678 76.9935 89.2751 78.1917 89.1011 79.3996C88.5671 78.5207 87.9456 77.8071 87.2422 77.2562C86.1164 76.3746 84.8742 75.9839 83.6668 75.9259C82.8308 75.8856 82.0209 76.0036 81.269 76.2163L74.2592 50.0552C73.4552 47.0544 70.3708 45.2737 67.37 46.0777L39.9492 53.4251C36.9485 54.2291 35.1677 57.3135 35.9717 60.3143L42.3891 84.2641C32.0226 94.5676 29.4329 111.156 38.7221 124.883C43.524 131.98 50.8149 134.77 57.6205 135.627C64.4085 136.481 70.9045 135.445 74.4733 134.714C77.9824 133.996 85.2171 131.57 91.6907 125.36C91.8926 125.39 92.0965 125.414 92.3019 125.432C93.1765 126.363 94.1393 127.268 95.1909 128.126C102.086 133.749 112.696 137.238 127.001 132.816C135.849 130.082 141.796 123.49 145.429 115.655C146.035 114.408 146.553 113.141 146.977 111.869C148.468 107.7 149.379 103.315 149.789 99.0622C150.463 92.0581 149.815 85.182 148.044 79.8292C147.736 78.899 147.387 77.995 146.996 77.1329C146.725 76.2751 146.417 75.4645 146.067 74.7147C144.983 72.3895 143.394 70.4299 141.06 69.6787L143.825 59.3607C144.683 56.1599 142.783 52.8699 139.582 52.0123L112.313 44.7053ZM110.246 76.784C112.396 78.33 113.695 80.6473 114.007 83.1067L126.25 84.723C126.375 82.7106 126.636 80.7116 127.083 78.8589C127.752 76.0845 128.886 73.4304 130.799 71.5991C132.576 69.898 134.891 69.036 137.701 69.2767C137.823 69.2657 137.945 69.2576 138.069 69.2524L140.927 58.5843C141.356 56.9839 140.406 55.3389 138.806 54.9101L111.536 47.6031C109.936 47.1743 108.291 48.124 107.862 49.7244L102.046 71.4283C102.96 71.7356 103.846 72.1835 104.674 72.7786L110.246 76.784ZM112.846 88.8656C112.421 89.6014 111.909 90.2579 111.329 90.8285C111.555 92.1152 111.51 93.468 111.152 94.8049C110.656 96.658 109.622 98.2363 108.258 99.407C109.63 101.527 110.123 104.192 109.424 106.798C109.105 107.989 108.564 109.067 107.855 109.996L111.23 110.901C111.366 107.546 112.143 103.559 114.167 100.255C115.444 98.171 117.234 96.334 119.682 95.1452C121.608 94.2101 123.866 93.7122 126.481 93.7527C126.286 91.9138 126.159 89.8554 126.159 87.737L113.892 86.1176C113.698 87.0617 113.352 87.9894 112.846 88.8656ZM109.264 115.572C109.264 115.882 109.248 116.188 109.218 116.491L112.984 118.145V114.895C112.367 114.895 111.817 114.572 111.505 114.08L109.008 113.411C109.175 114.105 109.264 114.829 109.264 115.572Z"/>
</mask>
<path fill-rule="evenodd" clip-rule="evenodd" d="M112.313 44.7053C109.112 43.8477 105.822 45.7472 104.964 48.948L99.0772 70.918C95.6174 70.8599 92.2054 72.6158 90.3292 75.8656C89.678 76.9935 89.2751 78.1917 89.1011 79.3996C88.5671 78.5207 87.9456 77.8071 87.2422 77.2562C86.1164 76.3746 84.8742 75.9839 83.6668 75.9259C82.8308 75.8856 82.0209 76.0036 81.269 76.2163L74.2592 50.0552C73.4552 47.0544 70.3708 45.2737 67.37 46.0777L39.9492 53.4251C36.9485 54.2291 35.1677 57.3135 35.9717 60.3143L42.3891 84.2641C32.0226 94.5676 29.4329 111.156 38.7221 124.883C43.524 131.98 50.8149 134.77 57.6205 135.627C64.4085 136.481 70.9045 135.445 74.4733 134.714C77.9824 133.996 85.2171 131.57 91.6907 125.36C91.8926 125.39 92.0965 125.414 92.3019 125.432C93.1765 126.363 94.1393 127.268 95.1909 128.126C102.086 133.749 112.696 137.238 127.001 132.816C135.849 130.082 141.796 123.49 145.429 115.655C146.035 114.408 146.553 113.141 146.977 111.869C148.468 107.7 149.379 103.315 149.789 99.0622C150.463 92.0581 149.815 85.182 148.044 79.8292C147.736 78.899 147.387 77.995 146.996 77.1329C146.725 76.2751 146.417 75.4645 146.067 74.7147C144.983 72.3895 143.394 70.4299 141.06 69.6787L143.825 59.3607C144.683 56.1599 142.783 52.8699 139.582 52.0123L112.313 44.7053ZM110.246 76.784C112.396 78.33 113.695 80.6473 114.007 83.1067L126.25 84.723C126.375 82.7106 126.636 80.7116 127.083 78.8589C127.752 76.0845 128.886 73.4304 130.799 71.5991C132.576 69.898 134.891 69.036 137.701 69.2767C137.823 69.2657 137.945 69.2576 138.069 69.2524L140.927 58.5843C141.356 56.9839 140.406 55.3389 138.806 54.9101L111.536 47.6031C109.936 47.1743 108.291 48.124 107.862 49.7244L102.046 71.4283C102.96 71.7356 103.846 72.1835 104.674 72.7786L110.246 76.784ZM112.846 88.8656C112.421 89.6014 111.909 90.2579 111.329 90.8285C111.555 92.1152 111.51 93.468 111.152 94.8049C110.656 96.658 109.622 98.2363 108.258 99.407C109.63 101.527 110.123 104.192 109.424 106.798C109.105 107.989 108.564 109.067 107.855 109.996L111.23 110.901C111.366 107.546 112.143 103.559 114.167 100.255C115.444 98.171 117.234 96.334 119.682 95.1452C121.608 94.2101 123.866 93.7122 126.481 93.7527C126.286 91.9138 126.159 89.8554 126.159 87.737L113.892 86.1176C113.698 87.0617 113.352 87.9894 112.846 88.8656ZM109.264 115.572C109.264 115.882 109.248 116.188 109.218 116.491L112.984 118.145V114.895C112.367 114.895 111.817 114.572 111.505 114.08L109.008 113.411C109.175 114.105 109.264 114.829 109.264 115.572Z" fill="black"/>
<path d="M104.964 48.948L99.1685 47.3951V47.3951L104.964 48.948ZM112.313 44.7053L113.865 38.9098L112.313 44.7053ZM99.0772 70.918L98.9765 76.9171L103.66 76.9958L104.873 72.4709L99.0772 70.918ZM90.3292 75.8656L85.133 72.8656V72.8656L90.3292 75.8656ZM89.1011 79.3996L83.9734 82.5152L92.6554 96.8036L95.0397 80.2552L89.1011 79.3996ZM87.2422 77.2562L83.5428 81.9801L87.2422 77.2562ZM83.6668 75.9259L83.3786 81.9189L83.6668 75.9259ZM81.269 76.2163L75.4735 77.7692L77.048 83.6454L82.9019 81.9898L81.269 76.2163ZM74.2592 50.0552L68.4636 51.6081V51.6081L74.2592 50.0552ZM67.37 46.0777L65.8171 40.2822L67.37 46.0777ZM39.9492 53.4251L41.5021 59.2206L39.9492 53.4251ZM35.9717 60.3143L41.7673 58.7614L35.9717 60.3143ZM42.3891 84.2641L46.6187 88.5197L49.0844 86.069L48.1846 82.7112L42.3891 84.2641ZM38.7221 124.883L33.7529 128.246L33.7529 128.246L38.7221 124.883ZM57.6205 135.627L58.3701 129.674H58.3701L57.6205 135.627ZM74.4733 134.714L73.2704 128.836H73.2704L74.4733 134.714ZM91.6907 125.36L92.5735 119.425L89.6617 118.992L87.5372 121.03L91.6907 125.36ZM92.3019 125.432L96.6753 121.324L95.1017 119.649L92.8116 119.453L92.3019 125.432ZM95.1909 128.126L91.3988 132.775H91.3989L95.1909 128.126ZM127.001 132.816L128.773 138.549H128.773L127.001 132.816ZM145.429 115.655L140.032 113.034L140.009 113.082L139.986 113.131L145.429 115.655ZM146.977 111.869L141.327 109.849L141.306 109.909L141.286 109.969L146.977 111.869ZM149.789 99.0622L155.761 99.6375V99.6375L149.789 99.0622ZM148.044 79.8292L153.741 77.945L153.741 77.945L148.044 79.8292ZM146.996 77.1329L141.275 78.9411L141.384 79.2849L141.533 79.6131L146.996 77.1329ZM146.067 74.7147L151.506 72.1798L151.506 72.1798L146.067 74.7147ZM141.06 69.6787L135.265 68.1257L133.787 73.6404L139.222 75.39L141.06 69.6787ZM143.825 59.3607L138.03 57.8078L143.825 59.3607ZM139.582 52.0123L138.03 57.8078H138.03L139.582 52.0123ZM114.007 83.1067L108.055 83.8613L108.636 88.4497L113.222 89.0551L114.007 83.1067ZM110.246 76.784L106.744 81.6559H106.744L110.246 76.784ZM126.25 84.723L125.465 90.6714L131.841 91.5131L132.238 85.0941L126.25 84.723ZM127.083 78.8589L121.25 77.4517V77.4517L127.083 78.8589ZM130.799 71.5991L126.65 67.2652V67.2652L130.799 71.5991ZM137.701 69.2767L137.189 75.2548L137.714 75.2998L138.239 75.2525L137.701 69.2767ZM138.069 69.2524L138.32 75.2472L142.724 75.0626L143.864 70.8054L138.069 69.2524ZM140.927 58.5843L135.132 57.0313L135.132 57.0314L140.927 58.5843ZM138.806 54.9101L140.359 49.1145V49.1145L138.806 54.9101ZM111.536 47.6031L109.983 53.3987L111.536 47.6031ZM107.862 49.7244L113.657 51.2773V51.2773L107.862 49.7244ZM102.046 71.4283L96.2508 69.8754L94.792 75.3197L100.135 77.1156L102.046 71.4283ZM104.674 72.7786L101.172 77.6505L101.172 77.6505L104.674 72.7786ZM111.329 90.8285L107.12 86.5515L104.872 88.7635L105.42 91.8697L111.329 90.8285ZM112.846 88.8656L107.65 85.8656L107.65 85.8656L112.846 88.8656ZM111.152 94.8049L105.357 93.252L105.357 93.252L111.152 94.8049ZM108.258 99.407L104.351 94.8535L100.373 98.2669L103.221 102.667L108.258 99.407ZM109.424 106.798L103.629 105.245L103.629 105.245L109.424 106.798ZM107.855 109.996L103.084 106.358L97.6569 113.475L106.302 115.792L107.855 109.996ZM111.23 110.901L109.677 116.696L116.921 118.637L117.225 111.144L111.23 110.901ZM114.167 100.255L109.051 97.121L109.051 97.121L114.167 100.255ZM119.682 95.1452L122.303 100.543L122.303 100.543L119.682 95.1452ZM126.481 93.7527L126.389 99.7519L133.163 99.8566L132.448 93.1191L126.481 93.7527ZM126.159 87.737L132.159 87.7373L132.159 82.4771L126.945 81.7887L126.159 87.737ZM113.892 86.1176L114.678 80.1692L109.141 79.4382L108.015 84.9084L113.892 86.1176ZM109.218 116.491L103.248 115.897L102.816 120.233L106.806 121.985L109.218 116.491ZM112.984 118.145L110.573 123.639L118.984 127.332V118.145H112.984ZM112.984 114.895H118.984V108.889L112.979 108.895L112.984 114.895ZM111.505 114.08L116.573 110.868L115.32 108.891L113.058 108.284L111.505 114.08ZM109.008 113.411L110.561 107.615L100.812 105.003L103.175 114.816L109.008 113.411ZM110.76 50.5009L110.76 50.5009L113.865 38.9098C107.464 37.1945 100.884 40.9935 99.1685 47.3951L110.76 50.5009ZM104.873 72.4709L110.76 50.5009L99.1685 47.3951L93.2817 69.3651L104.873 72.4709ZM95.5253 78.8656C96.2594 77.5941 97.5893 76.8939 98.9765 76.9171L99.178 64.9188C93.6455 64.826 88.1514 67.6376 85.133 72.8656L95.5253 78.8656ZM95.0397 80.2552C95.1066 79.7912 95.2616 79.3224 95.5253 78.8656L85.133 72.8656C84.0943 74.6647 83.4436 76.5922 83.1624 78.5439L95.0397 80.2552ZM83.5428 81.9801C83.6074 82.0306 83.7658 82.1735 83.9734 82.5152L94.2287 76.2839C93.3683 74.868 92.2839 73.5836 90.9415 72.5324L83.5428 81.9801ZM83.3786 81.9189C83.4342 81.9216 83.4597 81.93 83.4665 81.9325C83.471 81.9341 83.4772 81.9366 83.4866 81.9418C83.4959 81.9469 83.5146 81.958 83.5428 81.9801L90.9415 72.5324C88.7528 70.8183 86.2914 70.0452 83.9551 69.9328L83.3786 81.9189ZM82.9019 81.9898C83.1337 81.9243 83.2905 81.9147 83.3786 81.9189L83.9551 69.9328C82.3711 69.8566 80.9082 70.083 79.6362 70.4427L82.9019 81.9898ZM68.4636 51.6081L75.4735 77.7692L87.0646 74.6633L80.0548 48.5023L68.4636 51.6081ZM68.9229 51.8733C68.7229 51.9269 68.5173 51.8082 68.4636 51.6081L80.0548 48.5023C78.3931 42.3007 72.0186 38.6205 65.8171 40.2822L68.9229 51.8733ZM41.5021 59.2206L68.9229 51.8733L65.8171 40.2822L38.3963 47.6295L41.5021 59.2206ZM41.7673 58.7614C41.8209 58.9614 41.7022 59.167 41.5021 59.2206L38.3963 47.6295C32.1947 49.2912 28.5145 55.6656 30.1762 61.8672L41.7673 58.7614ZM48.1846 82.7112L41.7673 58.7614L30.1762 61.8672L36.5935 85.817L48.1846 82.7112ZM43.6913 121.521C36.0878 110.285 38.2065 96.8808 46.6187 88.5197L38.1594 80.0085C25.8387 92.2543 22.7779 112.027 33.7529 128.246L43.6913 121.521ZM58.3701 129.674C52.5854 128.945 47.1926 126.695 43.6913 121.521L33.7529 128.246C39.8554 137.264 49.0444 140.594 56.8709 141.58L58.3701 129.674ZM73.2704 128.836C69.9379 129.518 64.195 130.407 58.3701 129.674L56.8709 141.58C64.622 142.556 71.8711 141.371 75.6762 140.593L73.2704 128.836ZM87.5372 121.03C82.0749 126.27 75.9655 128.285 73.2704 128.836L75.6761 140.593C79.9993 139.708 88.3594 136.87 95.8441 129.69L87.5372 121.03ZM92.8116 119.453C92.7315 119.447 92.6522 119.437 92.5735 119.425L90.8078 131.295C91.1331 131.343 91.4614 131.382 91.7923 131.41L92.8116 119.453ZM98.983 123.476C98.1436 122.791 97.3744 122.068 96.6753 121.324L87.9286 129.539C88.9787 130.657 90.1349 131.745 91.3988 132.775L98.983 123.476ZM125.229 127.084C112.828 130.917 104.309 127.82 98.983 123.476L91.3989 132.775C99.862 139.678 112.563 143.559 128.773 138.549L125.229 127.084ZM139.986 113.131C136.856 119.882 132.028 124.982 125.229 127.084L128.773 138.549C139.67 135.181 146.737 127.097 150.873 118.18L139.986 113.131ZM141.286 109.969C140.945 110.989 140.527 112.015 140.032 113.034L150.826 118.277C151.543 116.801 152.16 115.293 152.668 113.769L141.286 109.969ZM143.816 98.4869C143.449 102.3 142.634 106.195 141.327 109.849L152.627 113.889C154.301 109.206 155.309 104.33 155.761 99.6375L143.816 98.4869ZM142.348 81.7134C143.807 86.1245 144.428 92.1397 143.816 98.4869L155.761 99.6375C156.499 91.9764 155.823 84.2395 153.741 77.945L142.348 81.7134ZM141.533 79.6131C141.827 80.262 142.1 80.9652 142.348 81.7134L153.741 77.945C153.373 76.8328 152.948 75.728 152.459 74.6526L141.533 79.6131ZM140.629 77.2497C140.851 77.7265 141.069 78.289 141.275 78.9411L152.717 75.3247C152.381 74.2611 151.982 73.2026 151.506 72.1798L140.629 77.2497ZM139.222 75.39C139.285 75.4102 139.877 75.6371 140.629 77.2497L151.506 72.1798C150.089 69.1419 147.503 65.4496 142.899 63.9673L139.222 75.39ZM138.03 57.8078L135.265 68.1257L146.856 71.2316L149.621 60.9137L138.03 57.8078ZM138.03 57.8078L138.03 57.8078L149.621 60.9137C151.336 54.5121 147.537 47.932 141.135 46.2167L138.03 57.8078ZM110.76 50.5009L138.03 57.8078L141.135 46.2167L113.865 38.9098L110.76 50.5009ZM119.959 82.3521C119.446 78.3008 117.301 74.4662 113.748 71.9122L106.744 81.6559C107.492 82.1937 107.945 82.9938 108.055 83.8613L119.959 82.3521ZM127.035 78.7746L114.792 77.1583L113.222 89.0551L125.465 90.6714L127.035 78.7746ZM121.25 77.4517C120.702 79.725 120.402 82.0838 120.261 84.3518L132.238 85.0941C132.347 83.3373 132.57 81.6983 132.916 80.2662L121.25 77.4517ZM126.65 67.2652C123.55 70.2327 122.043 74.1652 121.25 77.4517L132.916 80.2662C133.462 78.0039 134.222 76.6282 134.948 75.9329L126.65 67.2652ZM138.213 63.2986C133.742 62.9157 129.712 64.3328 126.65 67.2652L134.948 75.9329C135.439 75.4632 136.04 75.1564 137.189 75.2548L138.213 63.2986ZM137.818 63.2577C137.599 63.2669 137.38 63.2813 137.163 63.3009L138.239 75.2525C138.265 75.2501 138.292 75.2483 138.32 75.2472L137.818 63.2577ZM135.132 57.0314L132.273 67.6995L143.864 70.8054L146.723 60.1372L135.132 57.0314ZM137.253 60.7056C135.653 60.2768 134.703 58.6318 135.132 57.0313L146.723 60.1372C148.009 55.336 145.16 50.401 140.359 49.1145L137.253 60.7056ZM109.983 53.3987L137.253 60.7056L140.359 49.1145L113.089 41.8075L109.983 53.3987ZM113.657 51.2773C113.229 52.8777 111.584 53.8275 109.983 53.3987L113.089 41.8075C108.288 40.5211 103.353 43.3703 102.066 48.1715L113.657 51.2773ZM107.842 72.9812L113.657 51.2773L102.066 48.1715L96.2508 69.8754L107.842 72.9812ZM108.176 67.9068C106.857 66.9586 105.434 66.2373 103.958 65.7411L100.135 77.1156C100.486 77.2338 100.835 77.4084 101.172 77.6505L108.176 67.9068ZM113.748 71.9122L108.176 67.9068L101.172 77.6505L106.744 81.6559L113.748 71.9122ZM115.537 95.1055C116.498 94.1596 117.344 93.0745 118.042 91.8656L107.65 85.8656C107.498 86.1282 107.319 86.3561 107.12 86.5515L115.537 95.1055ZM116.948 96.3578C117.537 94.1573 117.613 91.9186 117.237 89.7873L105.42 91.8697C105.497 92.3119 105.483 92.7787 105.357 93.252L116.948 96.3578ZM112.165 103.96C114.419 102.027 116.129 99.4135 116.948 96.3578L105.357 93.252C105.182 93.9026 104.826 94.4461 104.351 94.8535L112.165 103.96ZM115.22 108.351C116.373 104.046 115.555 99.6389 113.295 96.1468L103.221 102.667C103.705 103.415 103.872 104.339 103.629 105.245L115.22 108.351ZM112.626 113.635C113.8 112.095 114.695 110.311 115.22 108.35L103.629 105.245C103.516 105.668 103.327 106.039 103.084 106.358L112.626 113.635ZM112.783 105.105L109.408 104.201L106.302 115.792L109.677 116.696L112.783 105.105ZM109.051 97.121C106.309 101.596 105.395 106.698 105.235 110.657L117.225 111.144C117.336 108.394 117.977 105.522 119.283 103.39L109.051 97.121ZM117.061 89.7479C113.413 91.5198 110.819 94.2343 109.051 97.121L119.283 103.39C120.069 102.108 121.056 101.148 122.303 100.543L117.061 89.7479ZM126.574 87.7534C123.126 87.7001 119.922 88.3587 117.061 89.7479L122.303 100.543C123.294 100.062 124.607 99.7244 126.389 99.7519L126.574 87.7534ZM120.159 87.7368C120.159 90.0877 120.3 92.3586 120.515 94.3862L132.448 93.1191C132.273 91.4689 132.159 89.623 132.159 87.7373L120.159 87.7368ZM113.107 92.066L125.374 93.6854L126.945 81.7887L114.678 80.1692L113.107 92.066ZM118.042 91.8656C118.874 90.4252 119.447 88.8918 119.769 87.3267L108.015 84.9084C107.949 85.2316 107.83 85.5536 107.65 85.8656L118.042 91.8656ZM115.189 117.085C115.238 116.585 115.264 116.08 115.264 115.572H103.264C103.264 115.683 103.258 115.791 103.248 115.897L115.189 117.085ZM115.396 112.651L111.63 110.997L106.806 121.985L110.573 123.639L115.396 112.651ZM106.984 114.895V118.145H118.984V114.895H106.984ZM106.437 117.292C107.809 119.457 110.239 120.897 112.99 120.895L112.979 108.895C114.494 108.893 115.825 109.688 116.573 110.868L106.437 117.292ZM107.455 119.207L109.952 119.876L113.058 108.284L110.561 107.615L107.455 119.207ZM115.264 115.572C115.264 114.352 115.118 113.157 114.841 112.006L103.175 114.816C103.232 115.054 103.264 115.306 103.264 115.572H115.264Z" fill="white" mask="url(#path-1-outside-1_95_6788)"/>
<path d="M90.6734 13.7891C92.0263 12.8634 93.8005 13.3388 94.5015 14.8148L95.403 16.7129C95.7572 17.4589 96.4138 17.9878 97.1943 18.1558L99.1799 18.5832C100.724 18.9156 101.616 20.5879 101.104 22.1912L100.446 24.253C100.188 25.0633 100.281 25.9405 100.701 26.6459L101.77 28.4408C102.6 29.8366 102.088 31.726 100.663 32.5175L98.8312 33.5353C98.1113 33.9352 97.5867 34.6468 97.4001 35.4765L96.9254 37.5874C96.5563 39.2288 94.9389 40.2288 93.4361 39.7448L91.5034 39.1222C90.7438 38.8776 89.9085 39.0067 89.2248 39.4746L87.4851 40.665C86.1321 41.5907 84.358 41.1153 83.6569 39.6392L82.7555 37.7412C82.4012 36.9952 81.7446 36.4662 80.9642 36.2983L78.9786 35.8709C77.4345 35.5385 76.5425 33.8662 77.0541 32.2629L77.7119 30.2011C77.9705 29.3907 77.8771 28.5135 77.4572 27.8081L76.3889 26.0133C75.5581 24.6174 76.0709 22.7281 77.4954 21.9366L79.3272 20.9188C80.0471 20.5188 80.5717 19.8072 80.7583 18.9776L81.233 16.8667C81.6022 15.2252 83.2195 14.2253 84.7224 14.7094L86.6551 15.3318C87.4146 15.5765 88.2499 15.4473 88.9336 14.9794L90.6734 13.7891Z" fill="#00A3FF"/>
<path d="M83.7847 26.359L87.4297 30.6115L95.3272 26.359" stroke="white" stroke-width="3" stroke-linecap="round" stroke-linejoin="round"/>
<path d="M122.87 16.89C118.466 17.8324 113.327 20.6066 109.335 23.2057C107.852 24.1712 106.27 22.9707 107.119 21.4181C109.755 16.5954 114.173 10.2779 117.347 5.99648C118.108 4.96962 119.647 5.01461 120.367 6.07115L124.935 12.7785C125.897 14.1913 124.541 16.5323 122.87 16.89Z" fill="#FF00E5"/>
<path d="M58.0976 21.6866C61.2361 22.1432 65.2669 25.6408 68.506 29.1248C69.5878 30.2883 68.2297 32.0204 66.7339 31.4848C62.8606 30.0979 59.8068 29.649 57.7118 29.63C56.5469 29.6194 55.4318 28.4807 55.698 27.3467L56.7896 22.6966C56.9357 22.074 57.4647 21.5945 58.0976 21.6866Z" fill="#FF00E5"/>
<rect width="37.3881" height="67.5585" rx="4.5" transform="matrix(-0.965926 -0.258819 -0.258819 0.965926 143.6 55.6768)" fill="black" stroke="black" stroke-width="2.25"/>
<path d="M128.484 95.6447C115.284 94.0447 112.651 106.145 112.984 113.145L112 114.5L92.484 109.145V96.6448C91.6507 100.311 87.9407 108.18 87.4845 111.145C86.4844 117.645 98.984 139.645 126.484 131.145C153.984 122.645 152.484 73.6447 138.484 71.1447C127.284 69.1447 127.151 86.6447 128.484 95.6447Z" fill="#00A3FF"/>
<path d="M112.984 113.145C112.651 106.145 115.284 94.0447 128.484 95.6447C127.151 86.6447 127.284 69.1447 138.484 71.1447C152.484 73.6447 153.984 122.645 126.484 131.145C98.984 139.645 86.4844 117.645 87.4845 111.145C87.9407 108.18 91.6507 100.311 92.484 96.6448" stroke="black" stroke-width="3.5" stroke-linecap="round"/>
<circle cx="119.89" cy="53.4201" r="1.125" transform="rotate(15 119.89 53.4201)" fill="#00A3FF"/>
<rect x="123.441" y="53.2067" width="8.00172" height="2.25" rx="1.125" transform="rotate(15 123.441 53.2067)" fill="#00A3FF"/>
<path d="M85.0132 115.572C85.0132 110.753 89.1738 106.988 93.9686 107.467L100.797 108.15C104.61 108.531 107.513 111.74 107.513 115.572C107.513 119.404 104.61 122.612 100.797 122.993L93.9686 123.676C89.1738 124.156 85.0132 120.39 85.0132 115.572Z" fill="#00A3FF" stroke="black" stroke-width="3.5"/>
<path d="M86.0003 100.521C87.2474 95.867 92.2408 93.3068 96.7481 95.011L103.167 97.4378C106.751 98.7929 108.725 102.644 107.734 106.345C106.742 110.046 103.107 112.394 99.3251 111.775L92.5529 110.668C87.7974 109.89 84.7531 105.176 86.0003 100.521Z" fill="#00A3FF" stroke="black" stroke-width="3.5"/>
<path d="M87.7281 88.5288C88.9752 83.8743 93.9685 81.3142 98.4758 83.0183L104.895 85.4451C108.479 86.8002 110.453 90.6509 109.461 94.3522C108.47 98.0535 104.835 100.401 101.053 99.7826L94.2807 98.6749C89.5252 97.8971 86.4809 93.1833 87.7281 88.5288Z" fill="#00A3FF" stroke="black" stroke-width="3.5"/>
<path d="M91.8443 76.7408C94.2536 72.5676 99.7394 71.3871 103.652 74.1998L109.224 78.2052C112.335 80.4418 113.246 84.6722 111.33 87.9908C109.414 91.3093 105.295 92.6361 101.802 91.0598L95.5476 88.2371C91.1555 86.2549 89.435 80.9139 91.8443 76.7408Z" fill="#00A3FF" stroke="black" stroke-width="3.5"/>
<rect x="35.8936" y="55.6768" width="37.3881" height="67.5585" rx="4.5" transform="rotate(-15 35.8936 55.6768)" fill="black" stroke="black" stroke-width="2.25"/>
<path d="M40.1719 123.903C49.0176 136.975 67.1229 134.433 74.1229 133C77.6228 132.284 85.2621 129.7 91.7334 122.833C98.2047 115.966 93.925 109.827 91.955 109.66C95.1523 103.901 90.9362 101.117 88.4145 101.268C91.6118 95.5087 88.3739 92.1602 86.4039 91.993C88.4141 89.3906 90.1379 86.284 88.3201 81.7553C85.9396 75.8246 81.1553 77.6301 79.0608 79.2742C75.85 81.9976 62.475 89.2069 56.4203 91.0412C46.912 93.9219 45.2916 88.335 43.9231 85.2116C33.8773 94.925 31.2855 110.771 40.1719 123.903Z" fill="#FFC000"/>
<path d="M74.1229 133L73.772 131.286L74.1229 133ZM40.1719 123.903L38.7225 124.884L40.1719 123.903ZM43.9231 85.2116L45.526 84.5093C45.2961 83.9845 44.8238 83.6055 44.2616 83.4946C43.6994 83.3838 43.1186 83.5552 42.7067 83.9535L43.9231 85.2116ZM56.4203 91.0412L56.9277 92.7161L56.4203 91.0412ZM79.0608 79.2742L77.9802 77.8977C77.9628 77.9113 77.9457 77.9254 77.9288 77.9397L79.0608 79.2742ZM88.3201 81.7553L89.9442 81.1034L89.9442 81.1034L88.3201 81.7553ZM86.4039 91.993L85.019 90.9233L85.019 90.9233L86.4039 91.993ZM88.4145 101.268L86.8845 100.419C86.871 100.443 86.8581 100.468 86.8458 100.493L88.4145 101.268ZM91.955 109.66L90.425 108.811L90.425 108.811L91.955 109.66ZM91.7334 122.833L90.4598 121.633L91.7334 122.833ZM74.0072 97.3429C73.0424 97.4008 72.3072 98.2299 72.3652 99.1946C72.4231 100.159 73.2521 100.895 74.2169 100.837L74.0072 97.3429ZM78.8856 107.358C78.0486 107.841 77.7618 108.911 78.2451 109.748C78.7283 110.585 79.7986 110.872 80.6356 110.389L78.8856 107.358ZM83.4045 115.185C82.5675 115.668 82.2807 116.738 82.764 117.575C83.2472 118.412 84.3175 118.699 85.1545 118.216L83.4045 115.185ZM73.772 131.286C70.3409 131.988 64.2842 132.939 58.0582 132.155C51.8497 131.373 45.6651 128.898 41.6212 122.922L38.7225 124.884C43.5244 131.98 50.8153 134.77 57.6209 135.627C64.4089 136.482 70.9049 135.445 74.4737 134.715L73.772 131.286ZM41.6212 122.922C33.2317 110.524 35.6779 95.6182 45.1396 86.4697L42.7067 83.9535C32.0767 94.2318 29.3393 111.017 38.7225 124.884L41.6212 122.922ZM42.3202 85.9139C42.9142 87.2696 43.8374 89.9746 46.0189 91.7387C48.3904 93.6564 51.8431 94.2565 56.9277 92.7161L55.9129 89.3664C51.4892 90.7066 49.3776 89.9536 48.2197 89.0172C46.8718 87.9272 46.3005 86.277 45.526 84.5093L42.3202 85.9139ZM56.9277 92.7161C60.1268 91.7468 65.1103 89.4169 69.6228 87.0394C74.108 84.6762 78.4203 82.1122 80.1928 80.6088L77.9288 77.9397C76.4905 79.1597 72.5099 81.5621 67.9912 83.9429C63.4998 86.3094 58.7684 88.5013 55.9129 89.3664L56.9277 92.7161ZM80.1413 80.6508C81.0007 79.9763 82.3155 79.3652 83.4991 79.4222C84.0472 79.4485 84.5784 79.6157 85.0846 80.0122C85.6036 80.4186 86.1867 81.1381 86.6961 82.4072L89.9442 81.1034C89.2633 79.4071 88.3556 78.1282 87.2426 77.2566C86.1168 76.375 84.8746 75.9843 83.6673 75.9262C81.34 75.8143 79.2155 76.9281 77.9802 77.8977L80.1413 80.6508ZM86.6961 82.4072C87.4693 84.3334 87.4595 85.8519 87.1092 87.136C86.745 88.4711 85.9789 89.6805 85.019 90.9233L87.7889 93.0628C88.8391 91.7031 89.94 90.0581 90.4858 88.0571C91.0456 86.0051 90.9888 83.7059 89.9442 81.1034L86.6961 82.4072ZM86.256 93.7367C86.565 93.763 89.671 95.3993 86.8845 100.419L89.9445 102.118C93.5527 95.6181 90.1828 90.5573 86.5519 90.2493L86.256 93.7367ZM88.5194 103.015C89.2025 102.974 90.2882 103.376 90.8917 104.245C91.386 104.958 91.7896 106.352 90.425 108.811L93.4851 110.509C95.3177 107.208 95.2118 104.331 93.767 102.25C92.4313 100.325 90.1481 99.4109 88.3096 99.5213L88.5194 103.015ZM91.8071 111.404C91.5911 111.385 91.835 111.353 92.3063 111.93C92.7051 112.418 93.1007 113.159 93.2971 114.094C93.6728 115.882 93.3507 118.565 90.4598 121.633L93.007 124.033C96.5874 120.234 97.361 116.414 96.7223 113.374C96.4114 111.895 95.7722 110.64 95.0166 109.716C94.3337 108.88 93.3039 108.018 92.103 107.916L91.8071 111.404ZM90.4598 121.633C84.2999 128.169 77.0229 130.621 73.772 131.286L74.4737 134.715C78.2228 133.947 86.2244 131.23 93.007 124.033L90.4598 121.633ZM85.019 90.9233C84.0192 92.2176 82.362 93.7812 80.3626 95.0495C78.3579 96.3212 76.1376 97.215 74.0072 97.3429L74.2169 100.837C77.1296 100.662 79.923 99.4731 82.2374 98.005C84.557 96.5336 86.5242 94.7002 87.7889 93.0628L85.019 90.9233ZM86.8458 100.493C86.0401 102.122 85.2469 103.113 84.1328 104.03C82.9434 105.009 81.3776 105.919 78.8856 107.358L80.6356 110.389C83.0355 109.003 84.894 107.937 86.3573 106.732C87.8958 105.465 88.9836 104.066 89.9832 102.044L86.8458 100.493ZM90.425 108.811C89.5263 110.429 88.0461 112.505 83.4045 115.185L85.1545 118.216C90.2965 115.247 92.2522 112.73 93.4851 110.509L90.425 108.811Z" fill="black"/>
<path d="M65.8856 100.722L56.6533 104.313" stroke="black" stroke-width="3.5" stroke-linecap="round"/>
<path d="M68.9259 112.011L60.2449 113.545" stroke="black" stroke-width="3.5" stroke-linecap="round"/>
<path d="M67.8497 122.198L60.3723 121.298" stroke="black" stroke-width="3.5" stroke-linecap="round"/>
<path fill-rule="evenodd" clip-rule="evenodd" d="M42.3318 56.1131C39.9312 56.7564 38.5066 59.2239 39.1498 61.6245L41.4792 70.3178C42.1224 72.7184 44.5899 74.143 46.9905 73.4998L55.6838 71.1704C58.0844 70.5272 59.5091 68.0597 58.8658 65.6591L56.5365 56.9658C55.8932 54.5652 53.4257 53.1405 51.0251 53.7838L42.3318 56.1131ZM44.2727 63.3576C45.8731 62.9288 46.8229 61.2838 46.394 59.6834C45.9652 58.083 44.3202 57.1332 42.7198 57.562C41.1194 57.9909 40.1697 59.6359 40.5985 61.2363C41.0273 62.8367 42.6723 63.7864 44.2727 63.3576ZM48.7235 68.3767C49.1523 69.9771 48.2026 71.6221 46.6022 72.051C45.0018 72.4798 43.3568 71.53 42.9279 69.9296C42.4991 68.3292 43.4489 66.6842 45.0493 66.2554C46.6497 65.8266 48.2947 66.7763 48.7235 68.3767ZM51.2329 66.1513C52.8333 65.7225 53.7831 64.0775 53.3542 62.4771C52.9254 60.8767 51.2804 59.9269 49.68 60.3557C48.0796 60.7846 47.1299 62.4296 47.5587 64.03C47.9875 65.6304 49.6325 66.5801 51.2329 66.1513Z" fill="#FFC000"/>
<path fill-rule="evenodd" clip-rule="evenodd" d="M124.528 53.4981C123.928 53.3373 123.311 53.6934 123.151 54.2936C122.99 54.8937 123.346 55.5106 123.946 55.6714L129.502 57.1601C130.102 57.3209 130.719 56.9647 130.88 56.3646C131.04 55.7644 130.684 55.1476 130.084 54.9867L124.528 53.4981ZM119.599 54.5069C120.199 54.6677 120.816 54.3115 120.977 53.7114C121.138 53.1112 120.782 52.4943 120.182 52.3335C119.582 52.1727 118.965 52.5289 118.804 53.129C118.643 53.7292 118.999 54.3461 119.599 54.5069Z" fill="#00A3FF"/>
</g>
<defs>
<clipPath id="clip0_95_6788">
<rect width="182" height="158" fill="white"/>
</clipPath>
</defs>
</svg>
