<svg width="182" height="158" viewBox="0 0 182 158" fill="none" xmlns="http://www.w3.org/2000/svg">
<g clip-path="url(#clip0_95_15279)">
<path d="M153.65 123.1C153.65 120.025 151.799 117.381 149.15 116.224V115.091C149.15 114.896 149.143 114.701 149.128 114.509C150.79 113.135 151.85 111.057 151.85 108.728V106.9C151.85 102.758 148.492 99.4 144.35 99.4H132.315C133.789 95.7626 134.602 91.8562 134.602 87.7664C134.602 86.031 134.455 84.3259 134.173 82.6581C135.01 81.8702 135.689 80.9557 136.198 79.9638C138.047 80.0548 139.945 79.6334 141.669 78.6384C146.44 75.8839 148.074 69.7833 145.32 65.0123C144.056 62.8242 141.258 62.0744 139.07 63.3378C136.882 64.6011 136.132 67.3991 137.396 69.5873L139.994 68.0873L137.396 69.5873C137.624 69.9819 137.488 70.4865 137.094 70.7143C136.699 70.9421 136.195 70.8069 135.967 70.4123C134.703 68.2239 131.905 67.4745 129.717 68.7378C129.341 68.9547 129.008 69.2169 128.72 69.5135C126.267 65.9718 123.151 62.8144 119.57 60.1286C117.372 58.4804 114.986 56.9975 112.444 55.6978C114.6 52.301 115.85 48.2693 115.85 43.9493C115.85 31.8271 106.023 22 93.9008 22C81.7785 22 71.9515 31.8271 71.9515 43.9493C71.9515 45.7077 72.1588 47.4208 72.5513 49.0643C71.9728 49.7033 71.4197 50.3771 70.8961 51.0644C70.3906 51.1837 69.8883 51.3091 69.3894 51.4406C68.6424 50.433 67.8343 49.4503 66.9777 48.5548C65.4995 47.0096 63.5787 45.406 61.2914 44.6193C58.7345 43.7399 55.8408 43.9528 53.3144 45.9316C49.4653 48.9464 48.1201 53.6449 47.6896 57.398C47.4654 59.3527 47.4602 61.2858 47.5739 63.022C42.3392 67.8586 38.4845 73.8574 36.8627 80.6277C36.0312 81.0839 35.2379 81.5933 34.491 82.1535C30.8042 84.9186 28 89.1648 28 94.3269C28 99.489 30.8042 103.735 34.491 106.5C37.5984 108.831 41.5224 110.294 45.7313 110.699C46.5296 111.532 47.368 112.337 48.2432 113.111L48.9271 123.37C49.2492 128.201 53.2616 131.955 58.1032 131.955H61.489C61.9826 131.955 62.4683 131.915 62.9429 131.84C64.6293 133.705 67.0675 134.871 69.7663 134.871H73.1521C77.9937 134.871 82.0062 131.117 82.3282 126.286L82.3436 126.055C83.3255 126.1 84.3148 126.123 85.3105 126.123C86.0226 126.123 86.7314 126.111 87.4366 126.088C88.7759 129.538 92.1266 131.955 96.0111 131.955H99.3969C99.8904 131.955 100.376 131.915 100.851 131.84C102.508 133.672 104.89 134.83 107.533 134.87C108.604 137.704 111.342 139.72 114.551 139.72H143.45C147.592 139.72 150.95 136.362 150.95 132.22V130.69C152.598 129.316 153.65 127.247 153.65 124.928V123.1Z" fill="black" stroke="white" stroke-width="6"/>
<path d="M55.3992 49.2976C59.4277 46.1422 64.3667 51.9157 67.5007 57.1437C68.6265 59.0217 67.617 61.3793 65.5389 62.069L55.6625 65.3468C53.6057 66.0294 51.4121 64.7704 51.2802 62.6074C51.0047 58.0897 51.665 52.2224 55.3992 49.2976Z" fill="#00A3FF"/>
<path d="M69.4498 60.771C66.8589 55.3075 60.4215 45.3639 55.3992 49.2976C50.3768 53.2313 50.9149 62.4882 51.8117 66.6248" stroke="black" stroke-width="3.5" stroke-linecap="round"/>
<path d="M56.2505 54.8426C59.2509 52.4925 62.994 57.4261 65.0537 61.1785C65.4751 61.9462 65.0718 62.8879 64.2406 63.1637L55.3513 66.1139C54.5286 66.387 53.651 65.8857 53.5501 65.0248C53.1814 61.8786 53.3853 57.0868 56.2505 54.8426Z" fill="black"/>
<path d="M56.5803 102.783C53.4595 102.783 50.9897 105.423 51.1972 108.537L52.1692 123.117C52.3582 125.951 54.712 128.153 57.5523 128.153H60.9381C63.7784 128.153 66.1322 125.951 66.3211 123.117L67.2931 108.537C67.5007 105.423 65.0309 102.783 61.9101 102.783H56.5803Z" fill="#00A3FF" stroke="black" stroke-width="3.5"/>
<path d="M94.4884 102.783C91.3676 102.783 88.8977 105.423 89.1053 108.537L90.0773 123.117C90.2663 125.951 92.6201 128.153 95.4604 128.153H98.8462C101.686 128.153 104.04 125.951 104.229 123.117L105.201 108.537C105.409 105.423 102.939 102.783 99.8182 102.783H94.4884Z" fill="#00A3FF" stroke="black" stroke-width="3.5"/>
<mask id="path-7-outside-1_95_15279" maskUnits="userSpaceOnUse" x="37.0195" y="50.9614" width="95" height="82" fill="black">
<rect fill="white" x="37.0195" y="50.9614" width="95" height="82"/>
<path fill-rule="evenodd" clip-rule="evenodd" d="M102.933 117.614C97.398 119.513 91.2435 120.571 84.7594 120.571C81.9824 120.571 79.266 120.377 76.6327 120.006L76.2387 125.917C76.111 127.831 74.5207 129.319 72.6018 129.319H69.2159C67.297 129.319 65.7067 127.831 65.579 125.917L64.987 117.036C50.7651 111.621 41.0195 100.547 41.0195 87.7663C41.0195 69.6487 60.6025 54.9614 84.7594 54.9614C108.916 54.9614 128.499 69.6487 128.499 87.7663C128.499 97.0419 123.366 105.418 115.115 111.385L114.146 125.917C114.018 127.831 112.428 129.319 110.509 129.319H107.123C105.204 129.319 103.614 127.831 103.486 125.917L102.933 117.614Z"/>
</mask>
<path fill-rule="evenodd" clip-rule="evenodd" d="M102.933 117.614C97.398 119.513 91.2435 120.571 84.7594 120.571C81.9824 120.571 79.266 120.377 76.6327 120.006L76.2387 125.917C76.111 127.831 74.5207 129.319 72.6018 129.319H69.2159C67.297 129.319 65.7067 127.831 65.579 125.917L64.987 117.036C50.7651 111.621 41.0195 100.547 41.0195 87.7663C41.0195 69.6487 60.6025 54.9614 84.7594 54.9614C108.916 54.9614 128.499 69.6487 128.499 87.7663C128.499 97.0419 123.366 105.418 115.115 111.385L114.146 125.917C114.018 127.831 112.428 129.319 110.509 129.319H107.123C105.204 129.319 103.614 127.831 103.486 125.917L102.933 117.614Z" fill="#00A3FF"/>
<path d="M102.933 117.614L106.425 117.382L106.121 112.82L101.797 114.304L102.933 117.614ZM76.6327 120.006L77.1211 116.54L73.391 116.015L73.1405 119.773L76.6327 120.006ZM76.2387 125.917L79.7309 126.149L76.2387 125.917ZM65.579 125.917L62.0868 126.149L65.579 125.917ZM64.987 117.036L68.4792 116.803L68.3299 114.564L66.2324 113.765L64.987 117.036ZM115.115 111.385L113.064 108.549L111.732 109.512L111.622 111.152L115.115 111.385ZM114.146 125.917L117.638 126.149L114.146 125.917ZM103.486 125.917L99.994 126.149L103.486 125.917ZM84.7594 124.071C91.6219 124.071 98.1608 122.952 104.068 120.925L101.797 114.304C96.6353 116.074 90.865 117.071 84.7594 117.071V124.071ZM76.1443 123.472C78.9398 123.866 81.8195 124.071 84.7594 124.071V117.071C82.1454 117.071 79.5921 116.888 77.1211 116.54L76.1443 123.472ZM79.7309 126.149L80.125 120.239L73.1405 119.773L72.7464 125.684L79.7309 126.149ZM72.6018 132.819C76.3633 132.819 79.4807 129.903 79.7309 126.149L72.7464 125.684C72.7413 125.76 72.6781 125.819 72.6018 125.819V132.819ZM69.2159 132.819H72.6018V125.819H69.2159V132.819ZM62.0868 126.149C62.337 129.903 65.4544 132.819 69.2159 132.819V125.819C69.1396 125.819 69.0764 125.76 69.0713 125.684L62.0868 126.149ZM61.4947 117.269L62.0868 126.149L69.0713 125.684L68.4792 116.803L61.4947 117.269ZM37.5195 87.7663C37.5195 102.489 48.685 114.574 63.7416 120.307L66.2324 113.765C52.8452 108.668 44.5195 98.6059 44.5195 87.7663H37.5195ZM84.7594 51.4614C71.9969 51.4614 60.3079 55.3368 51.7306 61.7698C43.1523 68.2035 37.5195 77.3588 37.5195 87.7663H44.5195C44.5195 80.0561 48.6783 72.809 55.9306 67.3698C63.1841 61.9297 73.365 58.4614 84.7594 58.4614V51.4614ZM131.999 87.7663C131.999 77.3588 126.366 68.2035 117.788 61.7698C109.211 55.3368 97.5219 51.4614 84.7594 51.4614V58.4614C96.1537 58.4614 106.335 61.9297 113.588 67.3698C120.84 72.809 124.999 80.0561 124.999 87.7663H131.999ZM117.166 114.221C126.094 107.765 131.999 98.4249 131.999 87.7663H124.999C124.999 95.6589 120.639 103.072 113.064 108.549L117.166 114.221ZM111.622 111.152L110.654 125.684L117.638 126.149L118.607 111.618L111.622 111.152ZM110.654 125.684C110.649 125.76 110.585 125.819 110.509 125.819V132.819C114.271 132.819 117.388 129.903 117.638 126.149L110.654 125.684ZM110.509 125.819H107.123V132.819H110.509V125.819ZM107.123 125.819C107.047 125.819 106.984 125.76 106.979 125.684L99.994 126.149C100.244 129.903 103.362 132.819 107.123 132.819V125.819ZM106.979 125.684L106.425 117.382L99.4405 117.847L99.994 126.149L106.979 125.684Z" fill="black" mask="url(#path-7-outside-1_95_15279)"/>
<mask id="mask0_95_15279" style="mask-type:alpha" maskUnits="userSpaceOnUse" x="45" y="68" width="13" height="21">
<path d="M56.6792 81.0378C54.9424 87.5194 52.0421 89.4143 49.2885 88.6764C46.5349 87.9386 44.9706 84.8475 46.7074 78.3658C48.4441 71.8842 50.6437 67.664 54.6324 68.7328C58.6211 69.8016 58.4159 74.5561 56.6792 81.0378Z" fill="white"/>
</mask>
<g mask="url(#mask0_95_15279)">
<path d="M56.6792 81.0378C54.9424 87.5194 52.0421 89.4143 49.2885 88.6764C46.5349 87.9386 44.9706 84.8475 46.7074 78.3658C48.4441 71.8842 50.6437 67.664 54.6324 68.7328C58.6211 69.8016 58.4159 74.5561 56.6792 81.0378Z" fill="white"/>
<path d="M51.4618 78.571C50.724 81.3246 49.6273 83.4233 47.6329 82.8889C45.6385 82.3545 45.7381 79.9887 46.4759 77.235C47.2138 74.4814 48.3105 72.3827 50.3048 72.9171C52.2992 73.4515 52.1997 75.8174 51.4618 78.571Z" fill="black"/>
</g>
<mask id="mask1_95_15279" style="mask-type:alpha" maskUnits="userSpaceOnUse" x="55" y="68" width="13" height="21">
<path d="M65.9241 81.0004C64.1874 87.4821 61.2871 89.3769 58.5335 88.6391C55.7799 87.9012 54.2156 84.8101 55.9523 78.3285C57.6891 71.8468 59.8887 67.6267 63.8774 68.6955C67.8661 69.7642 67.6609 74.5187 65.9241 81.0004Z" fill="white"/>
</mask>
<g mask="url(#mask1_95_15279)">
<path d="M65.9241 81.0004C64.1874 87.4821 61.2871 89.3769 58.5335 88.6391C55.7799 87.9012 54.2156 84.8101 55.9523 78.3285C57.6891 71.8468 59.8887 67.6267 63.8774 68.6955C67.8661 69.7642 67.6609 74.5187 65.9241 81.0004Z" fill="white"/>
<path d="M60.7068 78.5337C59.969 81.2873 58.8723 83.386 56.8779 82.8516C54.8835 82.3172 54.9831 79.9513 55.7209 77.1977C56.4588 74.4441 57.5555 72.3454 59.5498 72.8798C61.5442 73.4142 61.4447 75.78 60.7068 78.5337Z" fill="black"/>
</g>
<path d="M52.6827 107.012C57.0509 107.012 61.0729 105.686 64.0423 103.459C67.0123 101.232 69.0127 98.021 69.0127 94.3271C69.0127 90.6331 67.0123 87.4223 64.0423 85.1949C61.0729 82.9678 57.0509 81.6421 52.6827 81.6421C48.3146 81.6421 44.2926 82.9678 41.3232 85.1949C38.3532 87.4223 36.3528 90.6331 36.3528 94.3271C36.3528 98.021 38.3532 101.232 41.3232 103.459C44.2926 105.686 48.3146 107.012 52.6827 107.012Z" fill="#00A3FF" stroke="black" stroke-width="3.5"/>
<path d="M47.58 107.012C51.9481 107.012 55.9701 105.686 58.9395 103.459C61.9095 101.232 63.9099 98.021 63.9099 94.3271C63.9099 90.6331 61.9095 87.4223 58.9395 85.1949C55.9701 82.9678 51.9481 81.6421 47.58 81.6421C43.2118 81.6421 39.1898 82.9678 36.2204 85.1949C33.2504 87.4223 31.25 90.6331 31.25 94.3271C31.25 98.021 33.2504 101.232 36.2204 103.459C39.1898 105.686 43.2118 107.012 47.58 107.012Z" fill="#00A3FF" stroke="black" stroke-width="3.5"/>
<path d="M42.237 94.8166C41.4991 97.5703 40.4024 99.6689 38.4081 99.1345C36.4137 98.6001 36.5132 96.2343 37.2511 93.4807C37.9889 90.727 39.0856 88.6283 41.08 89.1627C43.0743 89.6971 42.9748 92.063 42.237 94.8166Z" fill="black"/>
<path d="M110.549 43.9493C110.549 53.4483 102.848 61.1487 93.3494 61.1487C83.8504 61.1487 76.15 53.4483 76.15 43.9493C76.15 34.4504 83.8504 26.75 93.3494 26.75C102.848 26.75 110.549 34.4504 110.549 43.9493Z" fill="#FFC000" stroke="black" stroke-width="3.5"/>
<path d="M88.5627 36.1911C90.4973 39.7277 94.4294 50.2877 93.2948 55.0367" stroke="black" stroke-width="3.5" stroke-linecap="round"/>
<path d="M99.6623 40.4284C99.5359 37.0116 97.098 34.7694 94.703 34.8579C92.9575 34.9225 91.946 35.1898 91.3827 35.6139C90.9699 35.9247 90.5124 36.5421 90.5761 38.2628C90.642 40.0458 91.2557 42.2432 92.2368 43.9387C93.2775 45.7371 94.3518 46.3788 95.1281 46.3501C97.5231 46.2615 99.7887 43.8452 99.6623 40.4284Z" stroke="black" stroke-width="3.5"/>
<path d="M50.9855 94.8167C50.2477 97.5704 49.1509 99.669 47.1566 99.1347C45.1622 98.6003 45.2618 96.2344 45.9996 93.4808C46.7374 90.7271 47.8342 88.6285 49.8285 89.1629C51.8229 89.6972 51.7233 92.0631 50.9855 94.8167Z" fill="black"/>
<path d="M83.5005 49.2976C79.4719 46.1422 74.5329 51.9157 71.3989 57.1437C70.2731 59.0217 71.2827 61.3793 73.3608 62.069L83.2372 65.3468C85.2939 66.0294 87.4875 64.7704 87.6194 62.6074C87.895 58.0897 87.2347 52.2224 83.5005 49.2976Z" fill="#00A3FF"/>
<path d="M69.4498 60.771C72.0407 55.3075 78.4781 45.3639 83.5005 49.2976C88.5229 53.2313 87.9848 62.4882 87.0879 66.6248" stroke="black" stroke-width="3.5" stroke-linecap="round"/>
<path d="M81.1911 54.8426C78.1906 52.4925 74.4475 57.4261 72.3878 61.1785C71.9664 61.9462 72.3697 62.8879 73.201 63.1637L82.0902 66.1139C82.9129 66.387 83.7905 65.8857 83.8914 65.0248C84.2601 61.8786 84.0562 57.0868 81.1911 54.8426Z" fill="black"/>
<path d="M107.072 66.4271C107.97 66.7861 108.988 66.3496 109.347 65.4522C109.706 64.5548 109.269 63.5364 108.372 63.1774L107.072 66.4271ZM87.7446 62.5414C90.555 62.429 98.5697 63.0261 107.072 66.4271L108.372 63.1774C99.3786 59.5801 90.8694 58.9136 87.6047 59.0442L87.7446 62.5414Z" fill="black"/>
<rect x="111.25" y="127.641" width="34.3987" height="7.3282" rx="2.75" fill="#FF00E5" stroke="black" stroke-width="3.5"/>
<rect x="113.95" y="120.35" width="34.3987" height="7.3282" rx="2.75" fill="#FFC000" stroke="black" stroke-width="3.5"/>
<rect x="109.45" y="112.341" width="34.3987" height="7.3282" rx="2.75" fill="#FF00E5" stroke="black" stroke-width="3.5"/>
<rect x="112.15" y="104.15" width="34.3987" height="7.3282" rx="2.75" fill="#FFC000" stroke="black" stroke-width="3.5"/>
</g>
<defs>
<clipPath id="clip0_95_15279">
<rect width="182" height="158" fill="white"/>
</clipPath>
</defs>
</svg>
