<svg width="182" height="158" viewBox="0 0 182 158" fill="none" xmlns="http://www.w3.org/2000/svg">
<g clip-path="url(#clip0_95_8952)">
<path fill-rule="evenodd" clip-rule="evenodd" d="M175.054 38.2247C180.115 42.5412 180.42 50.2558 175.717 54.9592L153.437 77.2393C148.733 81.9427 141.019 81.6371 136.702 76.5763L134.522 74.0206H124.797C123.985 79.5201 119.245 83.7406 113.52 83.7406H111.36C105.064 83.7406 99.96 78.6366 99.96 72.3406V52.9006C99.96 46.6045 105.064 41.5006 111.36 41.5006H111.552C111.835 39.0236 112.929 36.6275 114.817 34.7402L133.218 16.339M117.509 42.218C117.354 43.6486 117.769 45.1334 118.769 46.3055L128.079 57.2206H118.92V52.9006C118.92 50.9755 117.913 49.2856 116.396 48.3295C115.563 47.8044 114.577 47.5006 113.52 47.5006H111.36C108.378 47.5006 105.96 49.9182 105.96 52.9006V72.3406C105.96 75.3229 108.378 77.7406 111.36 77.7406H113.52C116.502 77.7406 118.92 75.3229 118.92 72.3406V68.0206H137.291L141.267 72.6826C143.312 75.0798 146.966 75.2246 149.194 72.9967L171.474 50.7165C173.702 48.4886 173.557 44.8343 171.16 42.7897L144.783 20.2915C142.64 18.4637 139.452 18.59 137.46 20.5817L119.059 38.9828C118.157 39.8852 117.637 41.033 117.509 42.218ZM133.218 16.339C137.422 12.1344 144.153 11.8677 148.677 15.7265L175.054 38.2247" fill="white"/>
<path d="M101 77.8774L108.5 64.8774L110.5 78.8774L101 77.8774Z" fill="white"/>
<mask id="path-3-outside-1_95_8952" maskUnits="userSpaceOnUse" x="31.2109" y="29.3774" width="81" height="98" fill="black">
<rect fill="white" x="31.2109" y="29.3774" width="81" height="98"/>
<path fill-rule="evenodd" clip-rule="evenodd" d="M66.8715 40.2014C69.0864 37.7695 72.9128 37.7695 75.1277 40.2014L77.9758 43.3288C79.095 44.5579 80.7039 45.2242 82.3647 45.1466L86.59 44.9492C89.8756 44.7956 92.5816 47.5014 92.428 50.7872L92.2304 55.0125C92.1528 56.6731 92.8192 58.2819 94.0483 59.4012L97.1756 62.2493C99.6078 64.4642 99.6078 68.2906 97.1756 70.5055L94.0483 73.3536C92.8192 74.4728 92.1528 76.0817 92.2304 77.7425L92.428 81.9677C92.5816 85.2533 89.8756 87.9593 86.59 87.8057L82.3647 87.6081C80.7039 87.5305 79.095 88.1969 77.9758 89.426L75.9995 91.5961V97.5727L96.5457 85.7104C99.4325 84.0437 103.162 85.7666 102.205 88.9597C101.101 92.646 97.9334 97.0335 90.2237 101.485C84.0736 105.035 79.3209 105.838 75.9995 105.344V118.377H65.9995V105.415C62.7129 105.74 58.1519 104.837 52.3453 101.485C44.6356 97.0335 41.468 92.646 40.3639 88.9597C39.4074 85.7666 43.1366 84.0437 46.0233 85.7104L65.9995 97.2436V91.5959L64.0234 89.426C62.9041 88.1969 61.2952 87.5305 59.6346 87.6081L55.4093 87.8057C52.1236 87.9593 49.4177 85.2533 49.5713 81.9677L49.7688 77.7425C49.8464 76.0817 49.18 74.4728 47.9509 73.3536L44.8235 70.5055C42.3916 68.2906 42.3916 64.4642 44.8235 62.2493L47.9509 59.4012C49.18 58.2819 49.8464 56.6731 49.7688 55.0125L49.5713 50.7872C49.4177 47.5014 52.1236 44.7956 55.4093 44.9492L59.6346 45.1466C61.2952 45.2242 62.9041 44.5579 64.0234 43.3288L66.8715 40.2014Z"/>
</mask>
<path d="M75.1277 40.2014L81.7818 34.1414L81.7816 34.1412L75.1277 40.2014ZM66.8715 40.2014L60.2176 34.1412L60.2174 34.1415L66.8715 40.2014ZM77.9758 43.3288L84.6304 37.2693L84.6299 37.2688L77.9758 43.3288ZM82.3647 45.1466L82.7848 54.1368L82.7848 54.1368L82.3647 45.1466ZM86.59 44.9492L87.0101 53.9394L87.0102 53.9394L86.59 44.9492ZM92.428 50.7872L101.418 51.2077L101.418 51.2073L92.428 50.7872ZM92.2304 55.0125L83.2402 54.5919L83.2402 54.5923L92.2304 55.0125ZM94.0483 59.4012L100.108 52.7471L100.108 52.7468L94.0483 59.4012ZM97.1756 62.2493L91.1157 68.9034L91.1157 68.9034L97.1756 62.2493ZM97.1756 70.5055L91.1158 63.8513L91.1156 63.8515L97.1756 70.5055ZM94.0483 73.3536L100.108 80.0084L100.108 80.0076L94.0483 73.3536ZM92.2304 77.7425L83.2402 78.1626L83.2402 78.163L92.2304 77.7425ZM92.428 81.9677L101.418 81.5476L101.418 81.5472L92.428 81.9677ZM86.59 87.8057L86.1694 96.7959L86.1698 96.7959L86.59 87.8057ZM82.3647 87.6081L82.7853 78.6179L82.7848 78.6179L82.3647 87.6081ZM77.9758 89.426L84.6299 95.4861L84.6306 95.4853L77.9758 89.426ZM75.9995 91.5961L69.3455 85.536C67.8361 87.1934 66.9995 89.3544 66.9995 91.5961H75.9995ZM75.9995 97.5727H66.9995C66.9995 100.788 68.7149 103.759 71.4995 105.367C74.2842 106.975 77.7149 106.975 80.4995 105.367L75.9995 97.5727ZM96.5457 85.7104L101.046 93.5046H101.046L96.5457 85.7104ZM102.205 88.9597L93.5837 86.3772V86.3772L102.205 88.9597ZM90.2237 101.485L94.7237 109.279L90.2237 101.485ZM75.9995 105.344L77.3243 96.4422C74.7346 96.0568 72.1055 96.8182 70.1226 98.5279C68.1397 100.238 66.9995 102.726 66.9995 105.344H75.9995ZM75.9995 118.377V127.377C80.9701 127.377 84.9995 123.348 84.9995 118.377H75.9995ZM65.9995 118.377H56.9995C56.9995 123.348 61.029 127.377 65.9995 127.377V118.377ZM65.9995 105.415H74.9995C74.9995 102.873 73.9252 100.45 72.0417 98.7443C70.1583 97.0382 67.6413 96.2079 65.1124 96.4584L65.9995 105.415ZM52.3453 101.485L56.8453 93.6905L52.3453 101.485ZM40.3639 88.9597L48.9854 86.3772V86.3772L40.3639 88.9597ZM46.0233 85.7104L41.5233 93.5046H41.5233L46.0233 85.7104ZM65.9995 97.2436L61.4995 105.038C64.2842 106.646 67.7149 106.646 70.4995 105.038C73.2842 103.43 74.9995 100.459 74.9995 97.2436H65.9995ZM65.9995 91.5959H74.9995C74.9995 89.3542 74.163 87.1933 72.6536 85.5359L65.9995 91.5959ZM64.0234 89.426L57.369 95.4857L57.3693 95.4861L64.0234 89.426ZM59.6346 87.6081L59.2145 78.6179L59.2141 78.6179L59.6346 87.6081ZM55.4093 87.8057L55.8294 96.7959L55.8298 96.7959L55.4093 87.8057ZM49.5713 81.9677L58.5615 82.3879L58.5615 82.3879L49.5713 81.9677ZM49.7688 77.7425L58.759 78.1626V78.1626L49.7688 77.7425ZM47.9509 73.3536L41.891 80.0077L41.8914 80.0082L47.9509 73.3536ZM44.8235 70.5055L38.7634 77.1594L38.7636 77.1596L44.8235 70.5055ZM44.8235 62.2493L38.7636 55.5951L38.7634 55.5954L44.8235 62.2493ZM47.9509 59.4012L41.891 52.747L41.891 52.7471L47.9509 59.4012ZM49.7688 55.0125L40.7786 55.4326L40.7786 55.4326L49.7688 55.0125ZM49.5713 50.7872L58.5615 50.367L58.5615 50.367L49.5713 50.7872ZM55.4093 44.9492L54.9892 53.9394L54.9892 53.9394L55.4093 44.9492ZM59.6346 45.1466L60.0548 36.1565L60.0548 36.1565L59.6346 45.1466ZM64.0234 43.3288L57.3693 37.2688L57.3692 37.2689L64.0234 43.3288ZM81.7816 34.1412C75.9966 27.7895 66.0026 27.7895 60.2176 34.1412L73.5254 46.2616C72.1703 47.7494 69.8289 47.7494 68.4738 46.2616L81.7816 34.1412ZM84.6299 37.2688L81.7818 34.1414L68.4736 46.2614L71.3217 49.3887L84.6299 37.2688ZM81.9446 36.1565C82.9601 36.109 83.9449 36.5165 84.6304 37.2693L71.3213 49.3882C74.2452 52.5993 78.4477 54.3395 82.7848 54.1368L81.9446 36.1565ZM86.1698 35.959L81.9446 36.1565L82.7848 54.1368L87.0101 53.9394L86.1698 35.959ZM101.418 51.2073C101.819 42.625 94.7515 35.5579 86.1698 35.959L87.0102 53.9394C84.9996 54.0333 83.3439 52.3778 83.4378 50.3671L101.418 51.2073ZM101.221 55.433L101.418 51.2077L83.4379 50.3666L83.2402 54.5919L101.221 55.433ZM100.108 52.7468C100.86 53.4319 101.268 54.4165 101.221 55.4326L83.2402 54.5923C83.0375 58.9297 84.778 63.1319 87.9887 66.0556L100.108 52.7468ZM103.236 55.5952L100.108 52.7471L87.9884 66.0553L91.1157 68.9034L103.236 55.5952ZM103.236 77.1596C109.588 71.3747 109.588 61.3801 103.236 55.5951L91.1157 68.9034C89.6278 67.5483 89.6278 65.2065 91.1158 63.8513L103.236 77.1596ZM100.108 80.0076L103.236 77.1595L91.1156 63.8515L87.9883 66.6996L100.108 80.0076ZM101.221 77.3223C101.268 78.3379 100.861 79.3228 100.108 80.0084L87.9891 66.6989C84.7778 69.6228 83.0375 73.8254 83.2402 78.1626L101.221 77.3223ZM101.418 81.5472L101.221 77.3219L83.2402 78.163L83.4379 82.3883L101.418 81.5472ZM86.1698 96.7959C94.7517 97.197 101.819 90.1295 101.418 81.5476L83.4378 82.3879C83.3439 80.3771 84.9994 78.7216 87.0101 78.8156L86.1698 96.7959ZM81.9442 96.5983L86.1694 96.7959L87.0105 78.8156L82.7853 78.6179L81.9442 96.5983ZM84.6306 95.4853C83.945 96.2382 82.9601 96.6457 81.9446 96.5983L82.7848 78.6179C78.4477 78.4152 74.2451 80.1555 71.3211 83.3668L84.6306 95.4853ZM82.6536 97.6561L84.6299 95.4861L71.3218 83.366L69.3455 85.536L82.6536 97.6561ZM84.9995 97.5727V91.5961H66.9995V97.5727H84.9995ZM92.0457 77.9161L71.4995 89.7785L80.4995 105.367L101.046 93.5046L92.0457 77.9161ZM110.827 91.5422C111.616 88.9075 111.579 85.9657 110.352 83.2102C109.159 80.5291 107.129 78.6713 105.029 77.5591C100.965 75.4069 96.0194 75.6219 92.0457 77.9161L101.046 93.5046C99.9588 94.1321 98.3212 94.3752 96.6045 93.4661C95.6781 92.9755 94.5814 92.0429 93.9083 90.5308C93.2021 88.9444 93.2727 87.4154 93.5837 86.3772L110.827 91.5422ZM94.7237 109.279C103.683 104.106 108.854 98.1275 110.827 91.5422L93.5837 86.3772C93.3478 87.1646 92.1835 89.9609 85.7237 93.6905L94.7237 109.279ZM74.6748 114.246C80.6222 115.131 87.4399 113.484 94.7237 109.279L85.7237 93.6905C80.7073 96.5868 78.0195 96.5456 77.3243 96.4422L74.6748 114.246ZM84.9995 118.377V105.344H66.9995V118.377H84.9995ZM65.9995 127.377H75.9995V109.377H65.9995V127.377ZM56.9995 105.415V118.377H74.9995V105.415H56.9995ZM47.8453 109.279C54.7327 113.255 61.1817 114.936 66.8867 114.371L65.1124 96.4584C64.2441 96.5444 61.5711 96.4189 56.8453 93.6905L47.8453 109.279ZM31.7423 91.5422C33.7149 98.1275 38.8857 104.106 47.8453 109.279L56.8453 93.6905C50.3855 89.9609 49.2212 87.1646 48.9854 86.3772L31.7423 91.5422ZM50.5233 77.9161C46.5497 75.6219 41.6041 75.4069 37.5402 77.5591C35.4403 78.6713 33.4102 80.5291 32.2166 83.2102C30.99 85.9657 30.9531 88.9075 31.7423 91.5422L48.9854 86.3772C49.2963 87.4154 49.367 88.9444 48.6607 90.5308C47.9876 92.0429 46.8909 92.9755 45.9645 93.4661C44.2479 94.3752 42.6102 94.1321 41.5233 93.5046L50.5233 77.9161ZM70.4995 89.4494L50.5233 77.9161L41.5233 93.5046L61.4995 105.038L70.4995 89.4494ZM56.9995 91.5959V97.2436H74.9995V91.5959H56.9995ZM57.3693 95.4861L59.3455 97.6559L72.6536 85.5359L70.6774 83.366L57.3693 95.4861ZM60.0548 96.5983C59.0387 96.6458 58.0541 96.238 57.369 95.4857L70.6777 83.3664C67.754 80.1557 63.5518 78.4152 59.2145 78.6179L60.0548 96.5983ZM55.8298 96.7959L60.0552 96.5983L59.2141 78.6179L54.9888 78.8156L55.8298 96.7959ZM40.5811 81.5475C40.18 90.1293 47.2472 97.197 55.8294 96.7959L54.9892 78.8156C56.9999 78.7216 58.6555 80.3773 58.5615 82.3879L40.5811 81.5475ZM40.7786 77.3223L40.5811 81.5476L58.5615 82.3879L58.759 78.1626L40.7786 77.3223ZM41.8914 80.0082C41.1386 79.3227 40.7311 78.3379 40.7786 77.3223L58.759 78.1626C58.9616 73.8255 57.2214 69.6229 54.0103 66.6991L41.8914 80.0082ZM38.7636 77.1596L41.891 80.0077L54.0108 66.6995L50.8834 63.8514L38.7636 77.1596ZM38.7634 55.5954C32.4116 61.3803 32.4116 71.3744 38.7634 77.1594L50.8837 63.8516C52.3715 65.2067 52.3715 67.5481 50.8837 68.9032L38.7634 55.5954ZM41.891 52.7471L38.7636 55.5951L50.8834 68.9034L54.0108 66.0554L41.891 52.7471ZM40.7786 55.4326C40.7311 54.4165 41.1389 53.432 41.891 52.747L54.0108 66.0554C57.2211 63.1317 58.9617 58.9296 58.759 54.5923L40.7786 55.4326ZM40.5811 51.2073L40.7786 55.4326L58.759 54.5923L58.5615 50.367L40.5811 51.2073ZM55.8295 35.959C47.2475 35.5579 40.18 42.6252 40.5811 51.2073L58.5615 50.367C58.6555 52.3777 56.9997 54.0333 54.9892 53.9394L55.8295 35.959ZM60.0548 36.1565L55.8295 35.959L54.9892 53.9394L59.2145 54.1368L60.0548 36.1565ZM57.3692 37.2689C58.0542 36.5167 59.0387 36.109 60.0548 36.1565L59.2145 54.1368C63.5518 54.3395 67.7539 52.599 70.6775 49.3887L57.3692 37.2689ZM60.2174 34.1415L57.3693 37.2688L70.6775 49.3887L73.5256 46.2613L60.2174 34.1415Z" fill="white" mask="url(#path-3-outside-1_95_8952)"/>
<mask id="path-5-outside-2_95_8952" maskUnits="userSpaceOnUse" x="40" y="98.3774" width="62" height="42" fill="black">
<rect fill="white" x="40" y="98.3774" width="62" height="42"/>
<path fill-rule="evenodd" clip-rule="evenodd" d="M51 104.377C48.2386 104.377 46 106.616 46 109.377V113.247C46 115.896 48.0599 118.064 50.6652 118.236L52.0924 129.033C52.421 131.52 54.5411 133.378 57.0492 133.378H84.9508C87.4589 133.378 89.579 131.52 89.9076 129.033L91.3348 118.236C93.9401 118.064 96 115.896 96 113.247V109.377C96 106.616 93.7614 104.377 91 104.377H51Z"/>
</mask>
<path fill-rule="evenodd" clip-rule="evenodd" d="M51 104.377C48.2386 104.377 46 106.616 46 109.377V113.247C46 115.896 48.0599 118.064 50.6652 118.236L52.0924 129.033C52.421 131.52 54.5411 133.378 57.0492 133.378H84.9508C87.4589 133.378 89.579 131.52 89.9076 129.033L91.3348 118.236C93.9401 118.064 96 115.896 96 113.247V109.377C96 106.616 93.7614 104.377 91 104.377H51Z" fill="#FFC000"/>
<path d="M50.6652 118.236L56.6134 117.45L55.9689 112.574L51.061 112.249L50.6652 118.236ZM52.0924 129.033L58.0406 128.247L52.0924 129.033ZM89.9076 129.033L95.8559 129.819V129.819L89.9076 129.033ZM91.3348 118.236L90.939 112.249L86.0311 112.574L85.3866 117.45L91.3348 118.236ZM52 109.377C52 109.93 51.5523 110.377 51 110.377V98.3774C44.9249 98.3774 40 103.302 40 109.377H52ZM52 113.247V109.377H40V113.247H52ZM51.061 112.249C51.5878 112.284 52 112.715 52 113.247H40C40 119.077 44.5319 123.844 50.2693 124.223L51.061 112.249ZM58.0406 128.247L56.6134 117.45L44.7169 119.022L46.1441 129.819L58.0406 128.247ZM57.0492 127.378C57.5509 127.378 57.9749 127.749 58.0406 128.247L46.1441 129.819C46.8672 135.29 51.5313 139.378 57.0492 139.378V127.378ZM84.9508 127.378H57.0492V139.378H84.9508V127.378ZM83.9594 128.247C84.0251 127.749 84.4491 127.378 84.9508 127.378V139.378C90.4687 139.378 95.1328 135.29 95.8559 129.819L83.9594 128.247ZM85.3866 117.45L83.9594 128.247L95.8559 129.819L97.2831 119.022L85.3866 117.45ZM90 113.247C90 112.715 90.4122 112.284 90.939 112.249L91.7307 124.223C97.4681 123.844 102 119.077 102 113.247H90ZM90 109.377V113.247H102V109.377H90ZM91 110.377C90.4477 110.377 90 109.93 90 109.377H102C102 103.302 97.0751 98.3774 91 98.3774V110.377ZM51 110.377H91V98.3774H51V110.377Z" fill="white" mask="url(#path-5-outside-2_95_8952)"/>
<path d="M107.099 114.767L120.37 107.105C122.447 105.906 125.023 105.8 127.129 106.914C128.215 107.49 129.26 108.448 129.873 109.825C130.502 111.239 130.524 112.754 130.114 114.121C129.059 117.645 126.276 120.908 121.314 123.773C115.161 127.325 109.286 127.594 105.673 124.379C103.692 122.618 103.451 120.136 104.127 118.254C104.709 116.632 105.903 115.458 107.099 114.767Z" fill="#00A3FF" stroke="white" stroke-width="9"/>
<path d="M110.315 114.767L97.0439 107.105C94.9668 105.906 92.3907 105.8 90.2854 106.914C89.1987 107.49 88.1545 108.448 87.5415 109.825C86.9119 111.239 86.8901 112.754 87.2997 114.121C88.355 117.645 91.1383 120.908 96.1 123.773C102.253 127.325 108.128 127.594 111.742 124.379C113.722 122.618 113.964 120.136 113.287 118.254C112.705 116.632 111.511 115.458 110.315 114.767Z" fill="#00A3FF" stroke="white" stroke-width="9"/>
<mask id="path-9-outside-3_95_8952" maskUnits="userSpaceOnUse" x="83.5" y="75.3774" width="50" height="63" fill="black">
<rect fill="white" x="83.5" y="75.3774" width="50" height="63"/>
<path fill-rule="evenodd" clip-rule="evenodd" d="M105.928 85.4034C107.174 84.0354 109.326 84.0354 110.572 85.4034L112.174 87.1626C112.804 87.8539 113.709 88.2288 114.643 88.1851L117.02 88.074C118.868 87.9877 120.39 89.5097 120.304 91.3579L120.192 93.7346C120.149 94.6687 120.524 95.5737 121.215 96.2033L122.974 97.8054C124.342 99.0513 124.342 101.204 122.974 102.449L121.215 104.052C120.524 104.681 120.149 105.586 120.192 106.52L120.304 108.897C120.39 110.745 118.868 112.267 117.02 112.181L114.643 112.07C113.709 112.026 112.804 112.401 112.174 113.092L111.323 114.027C111.155 114.211 111.062 114.451 111.062 114.7V128.377C111.062 128.93 110.615 129.377 110.062 129.377H106.438C105.885 129.377 105.438 128.93 105.438 128.377V114.7C105.438 114.451 105.345 114.211 105.177 114.027L104.326 113.092C103.696 112.401 102.791 112.026 101.857 112.07L99.4805 112.181C97.6323 112.267 96.1102 110.745 96.1966 108.897L96.3077 106.52C96.3513 105.586 95.9765 104.681 95.2851 104.052L93.526 102.449C92.158 101.204 92.158 99.0513 93.526 97.8054L95.2851 96.2033C95.9765 95.5737 96.3513 94.6687 96.3077 93.7346L96.1966 91.3579C96.1102 89.5097 97.6323 87.9877 99.4805 88.074L101.857 88.1851C102.791 88.2288 103.696 87.8539 104.326 87.1626L105.928 85.4034Z"/>
</mask>
<path fill-rule="evenodd" clip-rule="evenodd" d="M105.928 85.4034C107.174 84.0354 109.326 84.0354 110.572 85.4034L112.174 87.1626C112.804 87.8539 113.709 88.2288 114.643 88.1851L117.02 88.074C118.868 87.9877 120.39 89.5097 120.304 91.3579L120.192 93.7346C120.149 94.6687 120.524 95.5737 121.215 96.2033L122.974 97.8054C124.342 99.0513 124.342 101.204 122.974 102.449L121.215 104.052C120.524 104.681 120.149 105.586 120.192 106.52L120.304 108.897C120.39 110.745 118.868 112.267 117.02 112.181L114.643 112.07C113.709 112.026 112.804 112.401 112.174 113.092L111.323 114.027C111.155 114.211 111.062 114.451 111.062 114.7V128.377C111.062 128.93 110.615 129.377 110.062 129.377H106.438C105.885 129.377 105.438 128.93 105.438 128.377V114.7C105.438 114.451 105.345 114.211 105.177 114.027L104.326 113.092C103.696 112.401 102.791 112.026 101.857 112.07L99.4805 112.181C97.6323 112.267 96.1102 110.745 96.1966 108.897L96.3077 106.52C96.3513 105.586 95.9765 104.681 95.2851 104.052L93.526 102.449C92.158 101.204 92.158 99.0513 93.526 97.8054L95.2851 96.2033C95.9765 95.5737 96.3513 94.6687 96.3077 93.7346L96.1966 91.3579C96.1102 89.5097 97.6323 87.9877 99.4805 88.074L101.857 88.1851C102.791 88.2288 103.696 87.8539 104.326 87.1626L105.928 85.4034Z" fill="#00A3FF"/>
<path d="M110.572 85.4034L117.226 79.3435L117.226 79.3432L110.572 85.4034ZM105.928 85.4034L99.2741 79.3432L99.2738 79.3435L105.928 85.4034ZM112.174 87.1626L118.829 81.1031L118.828 81.1026L112.174 87.1626ZM114.643 88.1851L115.063 97.1753L115.063 97.1753L114.643 88.1851ZM117.02 88.074L117.44 97.0642L117.44 97.0642L117.02 88.074ZM120.304 91.3579L129.294 91.7785L129.294 91.778L120.304 91.3579ZM120.192 93.7346L111.202 93.3141L111.202 93.3145L120.192 93.7346ZM121.215 96.2033L127.275 89.5492L127.275 89.5489L121.215 96.2033ZM122.974 97.8054L116.914 104.459L116.914 104.46L122.974 97.8054ZM122.974 102.449L116.914 95.7953L116.914 95.7954L122.974 102.449ZM121.215 104.052L127.274 110.706L127.275 110.706L121.215 104.052ZM120.192 106.52L111.202 106.94L111.202 106.941L120.192 106.52ZM120.304 108.897L129.294 108.477L129.294 108.476L120.304 108.897ZM117.02 112.181L116.599 121.171L116.599 121.171L117.02 112.181ZM114.643 112.07L115.063 103.08L115.063 103.079L114.643 112.07ZM112.174 113.092L118.828 119.152L118.829 119.152L112.174 113.092ZM104.326 113.092L97.6716 119.152L97.6719 119.152L104.326 113.092ZM101.857 112.07L101.437 103.08L101.437 103.08L101.857 112.07ZM99.4805 112.181L99.9006 121.171L99.901 121.171L99.4805 112.181ZM96.1966 108.897L105.187 109.317L105.187 109.317L96.1966 108.897ZM96.3077 106.52L105.298 106.94L105.298 106.94L96.3077 106.52ZM95.2851 104.052L89.2252 110.706L89.2257 110.706L95.2851 104.052ZM93.526 102.449L87.4658 109.103L87.4661 109.104L93.526 102.449ZM93.526 97.8054L87.4661 91.1512L87.4658 91.1515L93.526 97.8054ZM95.2851 96.2033L89.2253 89.5491L89.2252 89.5492L95.2851 96.2033ZM96.3077 93.7346L87.3175 94.1548L87.3175 94.1548L96.3077 93.7346ZM96.1966 91.3579L105.187 90.9378L105.187 90.9377L96.1966 91.3579ZM99.4805 88.074L99.0603 97.0642L99.0604 97.0642L99.4805 88.074ZM101.857 88.1851L102.277 79.1949L102.277 79.1949L101.857 88.1851ZM104.326 87.1626L97.6718 81.1026L97.6718 81.1027L104.326 87.1626ZM105.177 114.027L111.831 107.967L105.177 114.027ZM111.323 114.027L104.669 107.967L111.323 114.027ZM117.226 79.3432C112.41 74.0555 104.09 74.0555 99.2741 79.3432L112.582 91.4636C110.258 94.0154 106.242 94.0154 103.918 91.4636L117.226 79.3432ZM118.828 81.1026L117.226 79.3435L103.918 91.4634L105.52 93.2225L118.828 81.1026ZM114.223 79.1949C115.965 79.1135 117.654 79.8125 118.829 81.1031L105.52 93.222C107.954 95.8953 111.453 97.344 115.063 97.1753L114.223 79.1949ZM116.599 79.0839L114.223 79.1949L115.063 97.1753L117.44 97.0642L116.599 79.0839ZM129.294 91.778C129.628 84.6333 123.744 78.7499 116.599 79.0839L117.44 97.0642C113.992 97.2254 111.152 94.3861 111.313 90.9378L129.294 91.778ZM129.183 94.1552L129.294 91.7785L111.313 90.9374L111.202 93.3141L129.183 94.1552ZM127.275 89.5489C128.565 90.7237 129.264 92.4122 129.183 94.1548L111.202 93.3145C111.033 96.9253 112.482 100.424 115.155 102.858L127.275 89.5489ZM129.034 91.1513L127.275 89.5492L115.155 102.857L116.914 104.459L129.034 91.1513ZM129.034 109.104C134.322 104.288 134.322 95.9672 129.034 91.1512L116.914 104.46C114.362 102.135 114.362 98.1195 116.914 95.7953L129.034 109.104ZM127.275 110.706L129.034 109.104L116.914 95.7954L115.155 97.3975L127.275 110.706ZM129.183 106.1C129.264 107.842 128.565 109.531 127.274 110.706L115.156 97.3968C112.482 99.8311 111.033 103.33 111.202 106.94L129.183 106.1ZM129.294 108.476L129.183 106.1L111.202 106.941L111.313 109.318L129.294 108.476ZM116.599 121.171C123.744 121.505 129.628 115.621 129.294 108.477L111.313 109.317C111.152 105.869 113.992 103.03 117.44 103.191L116.599 121.171ZM114.222 121.06L116.599 121.171L117.44 103.191L115.063 103.08L114.222 121.06ZM118.829 119.152C117.654 120.442 115.965 121.141 114.223 121.06L115.063 103.079C111.452 102.911 107.954 104.359 105.519 107.033L118.829 119.152ZM117.977 120.087L118.828 119.152L105.52 107.032L104.669 107.967L117.977 120.087ZM102.062 114.7V128.377H120.062V114.7H102.062ZM110.062 120.377H106.438V138.377H110.062V120.377ZM114.438 128.377V114.7H96.4375V128.377H114.438ZM97.6719 119.152L98.5228 120.087L111.831 107.967L110.98 107.032L97.6719 119.152ZM102.277 121.06C100.535 121.141 98.8463 120.442 97.6716 119.152L110.98 107.033C108.546 104.36 105.048 102.911 101.437 103.08L102.277 121.06ZM99.901 121.171L102.278 121.06L101.437 103.08L99.06 103.191L99.901 121.171ZM87.2064 108.477C86.8725 115.621 92.7559 121.505 99.9006 121.171L99.0604 103.191C102.509 103.03 105.348 105.869 105.187 109.317L87.2064 108.477ZM87.3175 106.1L87.2064 108.477L105.187 109.317L105.298 106.94L87.3175 106.1ZM89.2257 110.706C87.9351 109.531 87.2361 107.842 87.3175 106.1L105.298 106.94C105.467 103.33 104.018 99.8312 101.345 97.397L89.2257 110.706ZM87.4661 109.104L89.2252 110.706L101.345 97.3974L99.5859 95.7954L87.4661 109.104ZM87.4658 91.1515C82.1781 95.9674 82.1781 104.287 87.4658 109.103L99.5861 95.7956C102.138 98.1197 102.138 102.135 99.5861 104.459L87.4658 91.1515ZM89.2252 89.5492L87.4661 91.1512L99.5859 104.46L101.345 102.857L89.2252 89.5492ZM87.3175 94.1548C87.2361 92.4122 87.9354 90.7238 89.2253 89.5491L101.345 102.857C104.018 100.424 105.467 96.9253 105.298 93.3145L87.3175 94.1548ZM87.2064 91.778L87.3175 94.1548L105.298 93.3145L105.187 90.9378L87.2064 91.778ZM99.9007 79.0839C92.7562 78.7499 86.8725 84.6334 87.2064 91.7781L105.187 90.9377C105.348 94.3859 102.508 97.2254 99.0603 97.0642L99.9007 79.0839ZM102.277 79.1949L99.9006 79.0839L99.0604 97.0642L101.437 97.1753L102.277 79.1949ZM97.6718 81.1027C98.8465 79.8128 100.535 79.1135 102.277 79.1949L101.437 97.1753C105.048 97.3441 108.546 95.8951 110.98 93.2225L97.6718 81.1027ZM99.2738 79.3435L97.6718 81.1026L110.98 93.2225L112.582 91.4633L99.2738 79.3435ZM114.438 114.7C114.438 112.209 113.508 109.808 111.831 107.967L98.5228 120.087C97.1811 118.613 96.4375 116.693 96.4375 114.7H114.438ZM106.438 120.377C110.856 120.377 114.438 123.959 114.438 128.377H96.4375C96.4375 133.9 100.915 138.377 106.438 138.377V120.377ZM102.062 128.377C102.062 123.959 105.644 120.377 110.062 120.377V138.377C115.585 138.377 120.062 133.9 120.062 128.377H102.062ZM104.669 107.967C102.992 109.808 102.062 112.209 102.062 114.7H120.062C120.062 116.693 119.319 118.614 117.977 120.087L104.669 107.967Z" fill="white" mask="url(#path-9-outside-3_95_8952)"/>
<path d="M104.635 84.225L104.634 84.2251L103.032 85.9842L104.305 87.1436L103.032 85.9842C102.754 86.2904 102.353 86.4564 101.939 86.437L99.5626 86.326C99.5626 86.326 99.5626 86.326 99.5626 86.326C96.6845 86.1914 94.3144 88.5615 94.4489 91.4396C94.4489 91.4396 94.4489 91.4396 94.4489 91.4396L94.56 93.8163C94.5793 94.23 94.4133 94.6307 94.1072 94.9094L95.2855 96.2033L94.1072 94.9094L92.3481 96.5115L92.348 96.5115C90.2178 98.4516 90.2178 101.803 92.348 103.743L92.348 103.743L94.1072 105.345L94.1073 105.345C94.4133 105.624 94.5793 106.025 94.56 106.439L94.4489 108.815C94.4489 108.815 94.4489 108.815 94.4489 108.815C94.4431 108.94 94.442 109.063 94.4453 109.185C93.2882 108.739 92.0101 108.799 90.9797 109.345C90.3554 109.675 89.7889 110.207 89.461 110.943C89.1267 111.694 89.0998 112.526 89.3412 113.332C90.1312 115.97 92.3025 118.747 96.8822 121.391C99.459 122.879 101.737 123.626 103.688 123.819V129.377C103.688 130.344 104.471 131.127 105.438 131.127H111.063C112.029 131.127 112.813 130.344 112.813 129.377V123.847C114.834 123.706 117.222 122.96 119.939 121.391C124.519 118.747 126.69 115.97 127.48 113.332C127.722 112.526 127.695 111.694 127.36 110.943C127.032 110.207 126.466 109.675 125.842 109.345C124.713 108.747 123.288 108.732 122.05 109.326C122.059 109.158 122.06 108.988 122.052 108.815L122.052 108.815L121.941 106.439C121.941 106.439 121.941 106.439 121.941 106.438C121.922 106.025 122.088 105.624 122.394 105.346L122.394 105.345L124.153 103.743C124.153 103.743 124.153 103.743 124.153 103.743C126.283 101.803 126.283 98.4516 124.153 96.5115L122.394 94.9095L122.394 94.9094C122.087 94.6306 121.922 94.23 121.941 93.8164C121.941 93.8164 121.941 93.8164 121.941 93.8163L122.052 91.4397L122.052 91.4396C122.186 88.5615 119.816 86.1914 116.938 86.326C116.938 86.326 116.938 86.326 116.938 86.326L114.562 86.437C114.148 86.4564 113.747 86.2903 113.468 85.9843L113.468 85.9842L111.866 84.2251L111.866 84.225C109.926 82.0949 106.575 82.0949 104.635 84.225ZM113.478 114.26C113.67 114.054 113.917 113.913 114.186 113.851L113.478 114.26Z" fill="white" stroke="black" stroke-width="3.5" stroke-linecap="round" stroke-linejoin="round"/>
<path d="M122.62 111.002L109.349 118.665C108.426 119.197 107.867 120.309 108.663 121.017C110.149 122.339 113.641 123.007 119.064 119.876C123.4 117.372 125.182 114.904 125.803 112.83C126.341 111.034 124.244 110.065 122.62 111.002Z" fill="#FFC000"/>
<path d="M94.2007 111.002L107.472 118.665C108.395 119.197 108.953 120.309 108.157 121.017C106.671 122.339 103.18 123.007 97.7569 119.876C93.4201 117.372 91.6384 114.904 91.0173 112.83C90.4793 111.034 92.5769 110.065 94.2007 111.002Z" fill="#FFC000"/>
<path d="M105.438 104.627C105.438 103.074 106.697 101.815 108.25 101.815C109.803 101.815 111.062 103.074 111.062 104.627V129.377H105.438V104.627Z" fill="#FFC000"/>
<path d="M105.928 85.4034C107.174 84.0354 109.326 84.0354 110.572 85.4034L112.174 87.1626C112.804 87.8539 113.709 88.2288 114.643 88.1851L117.02 88.074C118.868 87.9877 120.39 89.5097 120.304 91.3579L120.192 93.7346C120.149 94.6687 120.524 95.5737 121.215 96.2033L122.974 97.8054C124.342 99.0513 124.342 101.204 122.974 102.449L121.215 104.052C120.524 104.681 120.149 105.586 120.192 106.52L120.304 108.897C120.39 110.745 118.868 112.267 117.02 112.181L114.643 112.07C113.709 112.026 112.804 112.401 112.174 113.092L110.572 114.851C109.326 116.219 107.174 116.219 105.928 114.851L104.326 113.092C103.696 112.401 102.791 112.026 101.857 112.07L99.4805 112.181C97.6323 112.267 96.1102 110.745 96.1966 108.897L96.3077 106.52C96.3513 105.586 95.9765 104.681 95.2851 104.052L93.526 102.449C92.158 101.204 92.158 99.0513 93.526 97.8054L95.2851 96.2033C95.9765 95.5737 96.3513 94.6687 96.3077 93.7346L96.1966 91.3579C96.1102 89.5097 97.6323 87.9877 99.4805 88.074L101.857 88.1851C102.791 88.2288 103.696 87.8539 104.326 87.1626L105.928 85.4034Z" fill="#00A3FF"/>
<path d="M103.001 99.0774L107.201 103.277L113.501 96.9774" stroke="white" stroke-width="3.5" stroke-linecap="round" stroke-linejoin="round"/>
<path d="M65.5775 39.023L65.5774 39.0231L62.7293 42.1504L64.0232 43.3288L62.7293 42.1504C61.9608 42.9943 60.8563 43.4518 59.7161 43.3985L59.6344 45.1466L59.7161 43.3985L55.4908 43.2011C51.1752 42.9994 47.6213 46.5533 47.823 50.8688L48.0205 55.0942L49.7652 55.0126L48.0205 55.0942C48.0738 56.2343 47.6162 57.3388 46.7724 58.1073L47.9507 59.4012L46.7724 58.1073L43.645 60.9554L43.6449 60.9555C40.4508 63.8646 40.4508 68.8902 43.6449 71.7993L43.645 71.7994L46.7724 74.6475L46.7724 74.6475C47.6162 75.4158 48.0738 76.5204 48.0205 77.6608L47.823 81.886C47.7705 83.0095 47.9725 84.0814 48.3763 85.0488L46.8978 84.1952C44.9625 83.0778 42.6684 83.0474 40.9329 83.9665C40.0518 84.4331 39.2812 85.167 38.8395 86.1592C38.3913 87.1659 38.3409 88.3069 38.687 89.4623C39.96 93.7123 43.5171 98.4092 51.4698 103.001C56.5097 105.91 60.7857 107.123 64.2493 107.221V118.377C64.2493 119.344 65.0328 120.127 65.9993 120.127H75.9993C76.9658 120.127 77.7493 119.344 77.7493 118.377V107.227C81.3105 107.252 85.7808 106.071 91.0987 103.001C99.0515 98.4092 102.609 93.7123 103.882 89.4623C104.228 88.3069 104.177 87.1659 103.729 86.1592C103.287 85.167 102.517 84.4331 101.636 83.9665C99.9001 83.0474 97.6061 83.0778 95.6707 84.1952L93.4181 85.4958C93.9568 84.4161 94.2366 83.1856 94.1759 81.886L94.1759 81.8859L93.9783 77.6608C93.9783 77.6607 93.9783 77.6607 93.9783 77.6607C93.925 76.5203 94.3826 75.4158 95.2263 74.6476L95.2265 74.6474L98.3537 71.7994C98.3537 71.7994 98.3538 71.7993 98.3538 71.7993C101.548 68.8902 101.548 63.8645 98.3538 60.9554L95.2265 58.1074L95.2264 58.1073C94.3825 57.3388 93.925 56.2343 93.9783 55.0942L94.1759 50.869L94.1759 50.8689C94.3776 46.5532 90.8235 42.9994 86.5081 43.2011L82.2828 43.3985C81.1424 43.4518 80.0379 42.9943 79.2696 42.1505L79.2695 42.1504L76.4214 39.0231L76.4213 39.023C73.5122 35.8289 68.4866 35.8289 65.5775 39.023ZM64.2493 94.2131L56.1276 89.524L59.7161 89.3562C60.8562 89.3029 61.9608 89.7604 62.7293 90.6043L62.7293 90.6044L64.2493 92.2734V94.2131ZM86.3983 89.5487L77.7493 94.5422V92.2735L79.2695 90.6044L79.2696 90.6042C80.0379 89.7605 81.1424 89.3029 82.2827 89.3562C82.2827 89.3562 82.2828 89.3562 82.2828 89.3562L86.3983 89.5487Z" fill="white" stroke="black" stroke-width="3.5" stroke-linecap="round" stroke-linejoin="round"/>
<path d="M96.5459 85.7103L72.9526 99.3319C71.3125 100.279 70.3189 102.255 71.7339 103.514C74.3761 105.865 80.5831 107.051 90.2239 101.485C97.9336 97.0335 101.101 92.646 102.205 88.9597C103.162 85.7665 99.4326 84.0437 96.5459 85.7103Z" fill="#FFC000"/>
<path d="M46.0235 85.7103L69.6167 99.3319C71.2569 100.279 72.2504 102.255 70.8354 103.514C68.1933 105.865 61.9863 107.051 52.3455 101.485C44.6357 97.0335 41.4682 92.646 40.364 88.9597C39.4075 85.7665 43.1367 84.0437 46.0235 85.7103Z" fill="#FFC000"/>
<path d="M65.9995 74.3774C65.9995 71.616 68.2381 69.3774 70.9995 69.3774C73.7609 69.3774 75.9995 71.616 75.9995 74.3774V118.377H65.9995V74.3774Z" fill="#FFC000"/>
<path d="M66.8714 40.2014C69.0864 37.7695 72.9127 37.7695 75.1277 40.2014L77.9758 43.3288C79.095 44.5579 80.7039 45.2242 82.3647 45.1466L86.5899 44.9492C89.8755 44.7956 92.5815 47.5014 92.428 50.7872L92.2303 55.0125C92.1527 56.6731 92.8191 58.2819 94.0483 59.4012L97.1756 62.2493C99.6078 64.4642 99.6078 68.2906 97.1756 70.5055L94.0483 73.3536C92.8191 74.4728 92.1527 76.0817 92.2303 77.7425L92.428 81.9677C92.5815 85.2533 89.8755 87.9593 86.5899 87.8057L82.3647 87.6081C80.7039 87.5305 79.095 88.1969 77.9758 89.426L75.1277 92.5533C72.9127 94.9855 69.0864 94.9855 66.8714 92.5533L64.0234 89.426C62.904 88.1969 61.2952 87.5305 59.6346 87.6081L55.4093 87.8057C52.1235 87.9593 49.4177 85.2533 49.5713 81.9677L49.7687 77.7425C49.8463 76.0817 49.18 74.4728 47.9508 73.3536L44.8235 70.5055C42.3915 68.2906 42.3915 64.4642 44.8235 62.2493L47.9508 59.4012C49.18 58.2819 49.8463 56.6731 49.7687 55.0125L49.5713 50.7872C49.4177 47.5014 52.1235 44.7956 55.4093 44.9492L59.6346 45.1466C61.2952 45.2242 62.904 44.5579 64.0234 43.3288L66.8714 40.2014Z" fill="#00A3FF"/>
<path d="M61.6675 64.5107L69.1342 71.9773L80.3342 60.7773" stroke="white" stroke-width="4.53601" stroke-linecap="round" stroke-linejoin="round"/>
<path fill-rule="evenodd" clip-rule="evenodd" d="M171.16 42.7896C173.557 44.8343 173.702 48.4886 171.474 50.7165L149.194 72.9967C146.966 75.2246 143.312 75.0798 141.267 72.6826L137.291 68.0206H118.92V72.3405C118.92 75.3229 116.502 77.7405 113.52 77.7405H111.36C108.378 77.7405 105.96 75.3229 105.96 72.3405V52.9006C105.96 49.9182 108.378 47.5006 111.36 47.5006H113.52C116.502 47.5006 118.92 49.9182 118.92 52.9006V57.2206H128.079L118.769 46.3055C116.941 44.1625 117.068 40.9745 119.059 38.9828L137.46 20.5816C139.452 18.59 142.64 18.4637 144.783 20.2915L171.16 42.7896Z" fill="black"/>
<path d="M116.76 68.02C113.778 68.02 111.36 65.6024 111.36 62.62C111.36 59.6377 113.778 57.22 116.76 57.22L149.16 57.22V68.02L116.76 68.02Z" fill="black"/>
<path fill-rule="evenodd" clip-rule="evenodd" d="M116.76 69.77C112.812 69.77 109.61 66.5689 109.61 62.62C109.61 58.6712 112.812 55.47 116.76 55.47L150.91 55.47V69.77L116.76 69.77ZM113.11 62.62C113.11 64.6359 114.745 66.27 116.76 66.27L147.41 66.27V58.97L116.76 58.97C114.745 58.97 113.11 60.6042 113.11 62.62Z" fill="black"/>
<path d="M111.36 77.7402C108.378 77.7402 105.96 75.3226 105.96 72.3402V52.9002C105.96 49.9179 108.378 47.5002 111.36 47.5002H113.52C116.502 47.5002 118.92 49.9179 118.92 52.9002V72.3402C118.92 75.3226 116.502 77.7402 113.52 77.7402H111.36Z" fill="#FF00E5"/>
<path fill-rule="evenodd" clip-rule="evenodd" d="M109.46 52.9002V72.3402C109.46 73.3896 110.311 74.2402 111.36 74.2402H113.52C114.569 74.2402 115.42 73.3896 115.42 72.3402V52.9002C115.42 51.8509 114.569 51.0002 113.52 51.0002H111.36C110.311 51.0002 109.46 51.8509 109.46 52.9002ZM105.96 72.3402C105.96 75.3226 108.378 77.7402 111.36 77.7402H113.52C116.502 77.7402 118.92 75.3226 118.92 72.3402V52.9002C118.92 49.9179 116.502 47.5002 113.52 47.5002H111.36C108.378 47.5002 105.96 49.9179 105.96 52.9002V72.3402Z" fill="black"/>
<path d="M171.16 42.7897C173.557 44.8344 173.702 48.4886 171.474 50.7166L149.194 72.9967C146.966 75.2246 143.312 75.0799 141.267 72.6827L118.769 46.3055C116.941 44.1625 117.068 40.9745 119.059 38.9829L137.46 20.5817C139.452 18.59 142.64 18.4637 144.783 20.2916L171.16 42.7897Z" fill="#FF00E5"/>
<path d="M135.178 38.7808C137.579 42.5084 146 52.0002 151 55" stroke="black" stroke-width="3.5" stroke-linecap="round"/>
<path d="M148.279 39.4697C146.649 36 143.122 34.7104 140.628 35.8819C138.884 36.7007 137.931 37.4258 137.515 38.1475C137.193 38.706 137.012 39.592 137.832 41.338C138.679 43.1403 140.264 45.123 142.01 46.434C143.851 47.8163 145.289 48.0553 146.154 47.6487C148.649 46.4772 149.908 42.9394 148.279 39.4697Z" stroke="black" stroke-width="3.5"/>
<path fill-rule="evenodd" clip-rule="evenodd" d="M146.719 70.5218L168.999 48.2417C169.783 47.4578 169.732 46.172 168.889 45.4526L142.512 22.9545C141.758 22.3114 140.636 22.3558 139.935 23.0566L121.534 41.4577C120.833 42.1585 120.789 43.2802 121.432 44.0342L143.93 70.4113C144.65 71.2548 145.935 71.3057 146.719 70.5218ZM171.474 50.7166C173.702 48.4886 173.557 44.8344 171.16 42.7897L144.783 20.2916C142.64 18.4637 139.452 18.59 137.46 20.5817L119.059 38.9829C117.068 40.9745 116.941 44.1625 118.769 46.3055L141.267 72.6827C143.312 75.0799 146.966 75.2246 149.194 72.9967L171.474 50.7166Z" fill="black"/>
<path d="M51.4824 111.064C51.2251 109.117 52.7403 107.388 54.7044 107.388H87.2956C89.2597 107.388 90.7749 109.117 90.5176 111.064L88.1727 128.803C87.9591 130.42 86.5811 131.627 84.9508 131.627H57.0492C55.4189 131.627 54.0409 130.42 53.8273 128.803L51.4824 111.064Z" fill="#FFC000" stroke="black" stroke-width="3.5"/>
<rect x="47.75" y="106.127" width="46.5" height="10.3696" rx="3.25" fill="#FFC000" stroke="black" stroke-width="3.5"/>
</g>
<defs>
<clipPath id="clip0_95_8952">
<rect width="182" height="158" fill="white"/>
</clipPath>
</defs>
</svg>
