<svg width="32" height="32" viewBox="0 0 32 32" fill="none" xmlns="http://www.w3.org/2000/svg">
<path d="M8.81867 11.4392C12.7847 7.55607 19.215 7.55607 23.1811 11.4392L23.6584 11.9065C23.8567 12.1007 23.8567 12.4155 23.6584 12.6097L22.0256 14.2083C21.9264 14.3054 21.7657 14.3054 21.6665 14.2083L21.0096 13.5653C18.2428 10.8563 13.7569 10.8563 10.9901 13.5653L10.2866 14.2539C10.1875 14.351 10.0268 14.351 9.92757 14.2539L8.29478 12.6553C8.09642 12.4611 8.09642 12.1463 8.29478 11.9521L8.81867 11.4392ZM26.5579 14.7455L28.0111 16.1683C28.2094 16.3625 28.2094 16.6772 28.0111 16.8714L21.4585 23.2872C21.2602 23.4813 20.9386 23.4813 20.7404 23.2872L16.0897 18.7337C16.0401 18.6852 15.9597 18.6852 15.9101 18.7337L11.2595 23.2872C11.0612 23.4813 10.7397 23.4813 10.5414 23.2872L3.98857 16.8713C3.79027 16.6772 3.79027 16.3624 3.98857 16.1682L5.44179 14.7454C5.6401 14.5512 5.96161 14.5512 6.15992 14.7454L10.8107 19.2989C10.8602 19.3474 10.9406 19.3474 10.9902 19.2989L15.6407 14.7454C15.839 14.5512 16.1605 14.5512 16.3588 14.7454L21.0096 19.2989C21.0592 19.3474 21.1395 19.3474 21.1891 19.2989L25.8398 14.7455C26.0381 14.5513 26.3596 14.5513 26.5579 14.7455Z" fill="#3396FF"/>
</svg>
