<svg width="121" height="120" viewBox="0 0 121 120" fill="none" xmlns="http://www.w3.org/2000/svg">
<path d="M67.4485 99.279L67.4485 99.279L71.6334 94.6837C73.0777 93.0978 75.1535 92.238 77.2961 92.3381L83.5047 92.6282C88.9213 92.8814 93.3818 88.4209 93.1286 83.0044L92.8385 76.7958C92.7383 74.6531 93.5982 72.5773 95.184 71.133L99.7794 66.9481L99.7794 66.9481C103.788 63.2968 103.788 56.9892 99.7794 53.3379L99.7794 53.3378L95.1841 49.1529L95.184 49.1528C93.5982 47.7088 92.7383 45.633 92.8385 43.49L93.1286 37.2814C93.3818 31.8652 88.9213 27.4044 83.5048 27.6575L77.2961 27.9479C75.1535 28.0481 73.0777 27.1883 71.6334 25.6023L70.8941 26.2756L71.6334 25.6022L67.4485 21.007C63.7972 16.9977 57.4895 16.9977 53.8382 21.007L49.6532 25.6022L49.6532 25.6023C48.2092 27.1882 46.1333 28.0481 43.9904 27.9479L37.7819 27.6575C32.3656 27.4044 27.9048 31.8652 28.1579 37.2814L28.4483 43.49C28.5485 45.6329 27.6886 47.7088 26.1027 49.1528L26.1026 49.1529L21.5074 53.3378C17.4981 56.9891 17.4981 63.2968 21.5074 66.9481L26.1026 71.133L26.7759 70.3937L26.1026 71.1331C27.6886 72.5773 28.5484 74.6531 28.4483 76.7957L28.1579 83.0043C27.9048 88.4209 32.3656 92.8814 37.7818 92.6282L43.9903 92.3381C46.1333 92.238 48.2092 93.0978 49.6532 94.6836L49.6532 94.6837L53.8382 99.279L53.8382 99.279C57.4895 103.288 63.7972 103.288 67.4485 99.279Z" fill="black" stroke="white" stroke-width="2"/>
<g clip-path="url(#clip0_1054_24429)">
<mask id="mask0_1054_24429" style="mask-type:alpha" maskUnits="userSpaceOnUse" x="61" y="43" width="17" height="32">
<path d="M77.1484 60.4067C77.1484 70.6924 73.606 74.6485 69.2363 74.6485C64.8666 74.6485 61.3242 70.6924 61.3242 60.4067C61.3242 50.121 62.9066 43.0001 69.2363 43.0001C75.566 43.0001 77.1484 50.121 77.1484 60.4067Z" fill="white"/>
</mask>
<g mask="url(#mask0_1054_24429)">
<path d="M77.1484 60.4067C77.1484 70.6924 73.606 74.6485 69.2363 74.6485C64.8666 74.6485 61.3242 70.6924 61.3242 60.4067C61.3242 50.121 62.9066 43.0001 69.2363 43.0001C75.566 43.0001 77.1484 50.121 77.1484 60.4067Z" fill="white"/>
<path d="M72.0058 65.8242C72.0058 70.1939 71.2146 73.7363 68.0498 73.7363C64.885 73.7363 64.0938 70.1939 64.0938 65.8242C64.0938 61.4545 64.885 57.9121 68.0498 57.9121C71.2146 57.9121 72.0058 61.4545 72.0058 65.8242Z" fill="black"/>
</g>
</g>
<g clip-path="url(#clip1_1054_24429)">
<mask id="mask1_1054_24429" style="mask-type:alpha" maskUnits="userSpaceOnUse" x="45" y="43" width="17" height="32">
<path d="M61.3252 60.4067C61.3252 70.6924 57.7828 74.6485 53.4131 74.6485C49.0433 74.6485 45.501 70.6924 45.501 60.4067C45.501 50.121 47.0834 43.0001 53.4131 43.0001C59.7427 43.0001 61.3252 50.121 61.3252 60.4067Z" fill="white"/>
</mask>
<g mask="url(#mask1_1054_24429)">
<path d="M61.3252 60.4067C61.3252 70.6924 57.7828 74.6485 53.4131 74.6485C49.0433 74.6485 45.501 70.6924 45.501 60.4067C45.501 50.121 47.0834 43.0001 53.4131 43.0001C59.7427 43.0001 61.3252 50.121 61.3252 60.4067Z" fill="white"/>
<path d="M58.0058 65.8242C58.0058 70.1939 57.2146 73.7363 54.0498 73.7363C50.885 73.7363 50.0938 70.1939 50.0938 65.8242C50.0938 61.4545 50.885 57.9121 54.0498 57.9121C57.2146 57.9121 58.0058 61.4545 58.0058 65.8242Z" fill="black"/>
</g>
</g>
<path d="M61.5 40H79.5V54L61.5 45V40Z" fill="black"/>
<path d="M60.5 40H42.5V54L60.5 45V40Z" fill="black"/>
<circle cx="47.5" cy="72" r="2" fill="#00A3FF"/>
<circle cx="78.5" cy="77" r="1" fill="#00A3FF"/>
<circle cx="75.5" cy="72" r="2" fill="#00A3FF"/>
<defs>
<clipPath id="clip0_1054_24429">
<rect width="15.8242" height="31.6484" fill="white" transform="translate(61.3242 43.0001)"/>
</clipPath>
<clipPath id="clip1_1054_24429">
<rect width="15.8242" height="31.6484" fill="white" transform="translate(45.501 43.0001)"/>
</clipPath>
</defs>
</svg>
