<svg width="240" height="240" viewBox="0 0 240 240" fill="none" xmlns="http://www.w3.org/2000/svg" xmlns:xlink="http://www.w3.org/1999/xlink">
<mask id="mask_0_i_1_2064;10268_4837;349_11904" style="mask-type:alpha" maskUnits="userSpaceOnUse" x="134" y="108" width="7.5" height="15">
<path d="M149,124.5C149,134.25 145.642,138 141.5,138C137.358,138 134,134.25 134,124.5C134,114.75 135.5,108 141.5,108C147.5,108 149,114.75 149,124.5Z" fill="#FFFFFF"/>
</mask>
<mask id="mask_0_i_1_2064;10268_4838;349_11904" style="mask-type:alpha" maskUnits="userSpaceOnUse" x="151" y="108.000122" width="7.5" height="15">
<path d="M166,124.5C166,134.25 162.642,138 158.5,138C154.358,138 151,134.25 151,124.5C151,114.75 152.5,108 158.5,108C164.5,108 166,114.75 166,124.5Z" fill="#FFFFFF"/>
</mask>
<rect  x="58" y="82" width="26" height="26" fill="#FFFFFF"/>
<path d="M84.07,98.891C78.13,92.37 67.869,92.37 61.929,98.891L57.352,103.918C56.756,104.572 55.899,104.927 55.015,104.886L48.224,104.568C39.413,104.156 32.156,111.413 32.568,120.224L32.886,127.015C32.927,127.899 32.572,128.756 31.917,129.352L26.891,133.93C20.37,139.869 20.37,150.131 26.891,156.07L31.918,160.648C32.572,161.244 32.927,162.1 32.886,162.985L32.568,169.776C32.156,178.587 39.413,185.844 48.224,185.432L55.015,185.114C55.899,185.073 56.756,185.428 57.352,186.082L61.929,191.108C67.869,197.631 78.131,197.63 84.07,191.108L88.648,186.082C89.244,185.428 90.1,185.073 90.985,185.114L97.776,185.432C106.587,185.844 113.843,178.587 113.432,169.775L113.114,162.985C113.073,162.1 113.428,161.243 114.082,160.648L119.108,156.07C125.63,150.131 125.63,139.869 119.108,133.929L114.082,129.352C113.428,128.756 113.073,127.899 113.114,127.015L113.432,120.224C113.843,111.413 106.587,104.156 97.776,104.568L90.985,104.886C90.1,104.927 89.243,104.572 88.648,103.918L84.07,98.891Z" clip-rule="evenodd" fill-rule="evenodd" stroke="#FFFFFF" stroke-width="2" stroke-miterlimit="3.999327"/>
<path d="M63,96.75C63,91.365 67.365,87 72.75,87C78.135,87 82.5,91.365 82.5,96.75L82.5,109.684C82.5,114.103 86.082,117.684 90.5,117.684L95.5,117.684C99.918,117.684 103.5,114.103 103.5,109.684L103.5,96.75C103.5,79.767 89.733,66 72.75,66C55.767,66 42,79.767 42,96.75L42,134C42,138.418 45.582,142 50,142L55,142C59.418,142 63,138.418 63,134L63,96.75Z" clip-rule="evenodd" fill-rule="evenodd" fill="#FFFFFF" stroke="#FFFFFF" stroke-width="2" stroke-miterlimit="3.999327"/>
<rect  x="90" y="26" width="128" height="188" rx="18" fill="#FFFFFF"/>
<rect  x="94" y="30" width="120" height="180" rx="14" fill="#000000"/>
<rect  x="100" y="36" width="108" height="168" rx="8" fill="#FF00E5"/>
<circle cx="114" cy="50" r="8" transform="rotate(0 114 50)" fill="#000000"/>
<rect  x="106" y="64" width="50" height="6" rx="4.706" transform="rotate(0 106 64)" fill="#000000"/>
<rect  x="106" y="76" width="22" height="6" rx="4.706" transform="rotate(0 106 76)" fill="#000000"/>
<rect  x="134" y="76" width="12" height="6" rx="4.706" transform="rotate(0 134 76)" fill="#000000"/>
<path d="M148.692,90.345C151.54,87.218 156.46,87.218 159.308,90.345L162.969,94.366C164.408,95.946 166.477,96.803 168.612,96.703L174.045,96.449C178.269,96.252 181.748,99.731 181.551,103.955L181.297,109.388C181.197,111.523 182.054,113.591 183.634,115.031L187.655,118.692C190.782,121.54 190.782,126.46 187.655,129.308L183.634,132.969C182.054,134.408 181.197,136.477 181.297,138.612L181.551,144.045C181.748,148.269 178.269,151.748 174.045,151.551L168.612,151.297C166.477,151.197 164.408,152.054 162.969,153.634L159.308,157.655C156.46,160.782 151.54,160.782 148.692,157.655L145.031,153.634C143.591,152.054 141.523,151.197 139.388,151.297L133.955,151.551C129.731,151.748 126.252,148.269 126.449,144.045L126.703,138.612C126.803,136.477 125.946,134.408 124.366,132.969L120.345,129.308C117.218,126.46 117.218,121.54 120.345,118.692L124.366,115.031C125.946,113.591 126.803,111.523 126.703,109.388L126.449,103.955C126.252,99.731 129.731,96.252 133.955,96.449L139.388,96.703C141.523,96.803 143.591,95.946 145.031,94.366L148.692,90.345Z" transform="rotate(0 154 124)" fill="#000000"/>
<path d="M149,124.5C149,134.25 145.642,138 141.5,138C137.358,138 134,134.25 134,124.5C134,114.75 135.5,108 141.5,108C147.5,108 149,114.75 149,124.5Z" fill="#FFFFFF"/>
<path d="M140.75,123C140.75,127.142 140,130.5 137,130.5C134,130.5 133.25,127.142 133.25,123C133.25,118.858 134,115.5 137,115.5C140,115.5 140.75,118.858 140.75,123Z" fill="#000000"/>
<path d="M166,124.5C166,134.25 162.642,138 158.5,138C154.358,138 151,134.25 151,124.5C151,114.75 152.5,108 158.5,108C164.5,108 166,114.75 166,124.5Z" fill="#FFFFFF"/>
<path d="M157.75,123C157.75,127.142 157,130.5 154,130.5C151,130.5 150.25,127.142 150.25,123C150.25,118.858 151,115.5 154,115.5C157,115.5 157.75,118.858 157.75,123Z" fill="#000000"/>
<path d="M72.75,81C64.052,81 57,88.052 57,96.75L57,134C57,135.105 56.105,136 55,136L50,136C48.895,136 48,135.105 48,134L48,96.75C48,83.081 59.081,72 72.75,72C86.419,72 97.5,83.081 97.5,96.75L97.5,109.684C97.5,110.789 96.605,111.684 95.5,111.684L90.5,111.684C89.395,111.684 88.5,110.789 88.5,109.684L88.5,96.75C88.5,88.052 81.448,81 72.75,81Z" clip-rule="evenodd" fill-rule="evenodd" fill="#FF00E5" stroke="#000000" stroke-width="3" stroke-miterlimit="3.999327"/>
<path d="M66.365,102.931C69.925,99.023 76.075,99.023 79.634,102.931L84.212,107.957C86.01,109.933 88.596,111.004 91.265,110.879L98.056,110.562C103.336,110.315 107.685,114.664 107.438,119.944L107.121,126.735C106.996,129.404 108.067,131.989 110.042,133.788L115.068,138.365C118.977,141.925 118.977,148.075 115.068,151.634L110.042,156.212C108.067,158.01 106.996,160.596 107.121,163.265L107.438,170.056C107.685,175.336 103.336,179.685 98.056,179.438L91.265,179.121C88.596,178.996 86.01,180.067 84.212,182.042L79.634,187.068C76.075,190.977 69.925,190.977 66.365,187.068L61.788,182.042C59.989,180.067 57.404,178.996 54.735,179.121L47.944,179.438C42.664,179.685 38.315,175.336 38.562,170.056L38.879,163.265C39.004,160.596 37.933,158.01 35.957,156.212L30.931,151.634C27.023,148.075 27.023,141.925 30.931,138.365L35.957,133.788C37.933,131.989 39.004,129.404 38.879,126.735L38.562,119.944C38.315,114.664 42.664,110.315 47.944,110.562L54.735,110.879C57.404,111.004 59.989,109.933 61.788,107.957L66.365,102.931Z" fill="#00A3FF" stroke="#000000" stroke-width="3" stroke-miterlimit="3.999327"/>
<path d="M68.751,130.526C70.347,128.303 73.653,128.303 75.249,130.526L76.705,132.554C77.376,133.488 78.416,134.089 79.559,134.202L82.044,134.449C84.767,134.72 86.421,137.584 85.293,140.077L84.265,142.352C83.791,143.4 83.791,144.6 84.265,145.648L85.293,147.923C86.421,150.416 84.767,153.28 82.044,153.551L79.559,153.798C78.416,153.911 77.376,154.512 76.705,155.445L75.249,157.474C73.653,159.697 70.347,159.697 68.751,157.474L67.294,155.445C66.624,154.512 65.584,153.911 64.441,153.798L61.956,153.551C59.233,153.28 57.579,150.416 58.707,147.923L59.735,145.648C60.209,144.6 60.209,143.4 59.735,142.352L58.707,140.077C57.579,137.584 59.233,134.72 61.956,134.449L64.441,134.202C65.584,134.089 66.624,133.488 67.294,132.554L68.751,130.526Z" fill="#000000"/>
<rect  x="68" y="150" width="8" height="16" rx="10" fill="#000000"/>
</svg>
