<svg width="242" height="240" viewBox="0 0 242 240" fill="none" xmlns="http://www.w3.org/2000/svg" xmlns:xlink="http://www.w3.org/1999/xlink">
<mask id="mask_0_i_1_2065;10268_4864;349_11904" style="mask-type:alpha" maskUnits="userSpaceOnUse" x="130.023026" y="103.232544" width="11.126729" height="16.43003">
<path d="M148.65,121.163C148.65,130.913 145.292,134.663 141.15,134.663C137.008,134.663 133.65,130.913 133.65,121.163C133.65,111.413 135.15,104.663 141.15,104.663C147.15,104.663 148.65,111.413 148.65,121.163Z" transform="rotate(30 141.15 119.663)" fill="#FFFFFF"/>
</mask>
<mask id="mask_0_i_1_2065;10268_4865;349_11904" style="mask-type:alpha" maskUnits="userSpaceOnUse" x="146.443925" y="107.63269" width="11.126729" height="16.43003">
<path d="M165.071,125.563C165.071,135.313 161.713,139.063 157.571,139.063C153.429,139.063 150.071,135.313 150.071,125.563C150.071,115.813 151.571,109.063 157.571,109.063C163.571,109.063 165.071,115.813 165.071,125.563Z" transform="rotate(30 157.571 124.063)" fill="#FFFFFF"/>
</mask>
<rect  x="45.053" y="81.654" width="26" height="26" transform="rotate(-30 45.053 81.654)" fill="#FFFFFF"/>
<path d="M88.47,98.312C82.53,91.79 72.269,91.79 66.329,98.312L61.752,103.338C61.156,103.993 60.299,104.348 59.415,104.306L52.624,103.989C43.813,103.577 36.556,110.834 36.968,119.645L37.286,126.436C37.327,127.32 36.972,128.177 36.317,128.773L31.291,133.35C24.769,139.29 24.77,149.552 31.291,155.491L36.318,160.069C36.972,160.664 37.327,161.521 37.286,162.406L36.968,169.196C36.556,178.008 43.813,185.264 52.624,184.853L59.415,184.535C60.299,184.494 61.156,184.849 61.752,185.503L66.329,190.529C72.269,197.051 82.531,197.051 88.47,190.529L93.048,185.503C93.644,184.849 94.5,184.494 95.385,184.535L102.176,184.853C110.987,185.264 118.243,178.007 117.832,169.196L117.514,162.406C117.473,161.521 117.828,160.664 118.482,160.069L123.508,155.491C130.03,149.551 130.03,139.29 123.508,133.35L118.482,128.773C117.828,128.177 117.473,127.32 117.514,126.436L117.832,119.645C118.243,110.833 110.987,103.577 102.176,103.989L95.385,104.306C94.5,104.348 93.643,103.992 93.048,103.338L88.47,98.312Z" clip-rule="evenodd" fill-rule="evenodd" transform="rotate(-30 77.4 144.421)" stroke="#FFFFFF" stroke-width="2" stroke-miterlimit="3.999327"/>
<path d="M55.244,91.837C55.244,86.452 59.609,82.087 64.994,82.087C70.379,82.087 74.744,86.452 74.744,91.837L74.744,104.771C74.744,109.19 78.326,112.771 82.744,112.771L87.744,112.771C92.162,112.771 95.744,109.19 95.744,104.771L95.744,91.837C95.744,74.854 81.977,61.087 64.994,61.087C48.011,61.087 34.244,74.854 34.244,91.837L34.244,129.087C34.244,133.505 37.826,137.087 42.244,137.087L47.244,137.087C51.662,137.087 55.244,133.505 55.244,129.087L55.244,91.837Z" clip-rule="evenodd" fill-rule="evenodd" transform="rotate(-30 64.994 99.087)" fill="#FFFFFF" stroke="#FFFFFF" stroke-width="2" stroke-miterlimit="3.999327"/>
<rect  x="116.51" y="12.639" width="128" height="188" rx="18" transform="rotate(30 116.51 12.639)" fill="#FFFFFF"/>
<rect  x="119.338" y="17.538" width="120" height="180" rx="14" transform="rotate(30 119.338 17.538)" fill="#000000"/>
<rect  x="123.581" y="24.886" width="108" height="168" rx="8" transform="rotate(30 123.581 24.886)" fill="#FF00E5"/>
<circle cx="133.481" cy="42.032" r="8" transform="rotate(30 133.481 42.032)" fill="#000000"/>
<rect  x="122.13" y="53.485" width="50" height="6" rx="4.706" transform="rotate(30 122.13 53.485)" fill="#000000"/>
<rect  x="119.024" y="65.076" width="22" height="6" rx="4.706" transform="rotate(30 119.024 65.076)" fill="#000000"/>
<rect  x="146.07" y="72.323" width="12" height="6" rx="4.706" transform="rotate(30 146.07 72.323)" fill="#000000"/>
<path d="M147.657,90.209C150.505,87.082 155.425,87.082 158.272,90.209L161.934,94.23C163.373,95.81 165.442,96.667 167.577,96.567L173.009,96.313C177.234,96.116 180.713,99.595 180.515,103.819L180.261,109.252C180.162,111.387 181.018,113.455 182.599,114.894L186.62,118.556C189.747,121.404 189.747,126.324 186.62,129.171L182.599,132.833C181.018,134.272 180.162,136.341 180.261,138.476L180.515,143.908C180.713,148.133 177.234,151.612 173.009,151.414L167.577,151.16C165.442,151.061 163.373,151.917 161.934,153.498L158.272,157.519C155.425,160.646 150.505,160.646 147.657,157.519L143.995,153.498C142.556,151.917 140.488,151.061 138.353,151.16L132.92,151.414C128.696,151.612 125.217,148.133 125.414,143.908L125.668,138.476C125.768,136.341 124.911,134.272 123.331,132.833L119.31,129.171C116.183,126.324 116.183,121.404 119.31,118.556L123.331,114.894C124.911,113.455 125.768,111.387 125.668,109.252L125.414,103.819C125.217,99.595 128.696,96.116 132.92,96.313L138.353,96.567C140.488,96.667 142.556,95.81 143.995,94.23L147.657,90.209Z" transform="rotate(30 152.965 123.864)" fill="#000000"/>
<path d="M148.65,121.163C148.65,130.913 145.292,134.663 141.15,134.663C137.008,134.663 133.65,130.913 133.65,121.163C133.65,111.413 135.15,104.663 141.15,104.663C147.15,104.663 148.65,111.413 148.65,121.163Z" transform="rotate(30 141.15 119.663)" fill="#FFFFFF"/>
<path d="M140.553,118.498C140.553,122.64 139.803,125.998 136.803,125.998C133.803,125.998 133.053,122.64 133.053,118.498C133.053,114.356 133.803,110.998 136.803,110.998C139.803,110.998 140.553,114.356 140.553,118.498Z" transform="rotate(30 136.803 118.498)" fill="#000000"/>
<path d="M165.071,125.563C165.071,135.313 161.713,139.063 157.571,139.063C153.429,139.063 150.071,135.313 150.071,125.563C150.071,115.813 151.571,109.063 157.571,109.063C163.571,109.063 165.071,115.813 165.071,125.563Z" transform="rotate(30 157.571 124.063)" fill="#FFFFFF"/>
<path d="M156.974,122.898C156.974,127.04 156.224,130.398 153.224,130.398C150.224,130.398 149.474,127.04 149.474,122.898C149.474,118.756 150.224,115.398 153.224,115.398C156.224,115.398 156.974,118.756 156.974,122.898Z" transform="rotate(30 153.224 122.898)" fill="#000000"/>
<path d="M64.994,76.087C56.295,76.087 49.244,83.139 49.244,91.837L49.244,129.087C49.244,130.192 48.348,131.087 47.244,131.087L42.244,131.087C41.139,131.087 40.244,130.192 40.244,129.087L40.244,91.837C40.244,78.168 51.325,67.087 64.994,67.087C78.663,67.087 89.744,78.168 89.744,91.837L89.744,104.771C89.744,105.876 88.848,106.771 87.744,106.771L82.744,106.771C81.639,106.771 80.744,105.876 80.744,104.771L80.744,91.837C80.744,83.139 73.692,76.087 64.994,76.087Z" clip-rule="evenodd" fill-rule="evenodd" transform="rotate(-30 64.994 99.087)" fill="#FF00E5" stroke="#000000" stroke-width="3" stroke-miterlimit="3.999327"/>
<path d="M70.765,102.352C74.325,98.444 80.474,98.444 84.034,102.352L88.611,107.378C90.41,109.354 92.996,110.425 95.665,110.3L102.455,109.982C107.736,109.736 112.085,114.084 111.838,119.365L111.52,126.156C111.396,128.824 112.467,131.41 114.442,133.209L119.468,137.786C123.377,141.346 123.377,147.495 119.468,151.055L114.442,155.633C112.467,157.431 111.396,160.017 111.52,162.686L111.838,169.477C112.085,174.757 107.736,179.106 102.455,178.859L95.665,178.541C92.996,178.417 90.41,179.488 88.611,181.463L84.034,186.489C80.474,190.398 74.325,190.398 70.765,186.489L66.188,181.463C64.389,179.488 61.803,178.417 59.134,178.541L52.344,178.859C47.063,179.106 42.715,174.757 42.961,169.477L43.279,162.686C43.403,160.017 42.332,157.431 40.357,155.633L35.331,151.055C31.423,147.495 31.423,141.346 35.331,137.786L40.357,133.209C42.332,131.41 43.403,128.824 43.279,126.156L42.961,119.365C42.715,114.084 47.063,109.736 52.344,109.982L59.134,110.3C61.803,110.425 64.389,109.354 66.188,107.378L70.765,102.352Z" transform="rotate(-30 77.4 144.421)" fill="#00A3FF" stroke="#000000" stroke-width="3" stroke-miterlimit="3.999327"/>
<path d="M72.925,130.24C74.521,128.017 77.828,128.017 79.424,130.24L80.88,132.268C81.551,133.202 82.59,133.802 83.734,133.916L86.219,134.163C88.942,134.433 90.595,137.297 89.468,139.791L88.44,142.066C87.966,143.113 87.966,144.314 88.44,145.361L89.468,147.636C90.595,150.13 88.942,152.994 86.219,153.265L83.734,153.511C82.59,153.625 81.551,154.225 80.88,155.159L79.424,157.187C77.828,159.41 74.521,159.41 72.925,157.187L71.469,155.159C70.799,154.225 69.759,153.625 68.615,153.511L66.131,153.265C63.408,152.994 61.754,150.13 62.881,147.636L63.91,145.361C64.383,144.314 64.383,143.113 63.91,142.066L62.881,139.791C61.754,137.297 63.408,134.433 66.131,134.163L68.615,133.916C69.759,133.802 70.799,133.202 71.469,132.268L72.925,130.24Z" transform="rotate(-30 76.175 143.714)" fill="#000000"/>
<rect  x="73.864" y="150.544" width="8" height="16" rx="10" transform="rotate(-30 73.864 150.544)" fill="#000000"/>
</svg>
