<svg width="364" height="316" viewBox="0 0 364 316" fill="none" xmlns="http://www.w3.org/2000/svg" xmlns:xlink="http://www.w3.org/1999/xlink">
<mask id="mask_0_i_1_2078;10203_3753;349_11904" style="mask-type:alpha" maskUnits="userSpaceOnUse" x="204" y="138" width="7.5" height="15">
<path d="M219,154.5C219,164.25 215.642,168 211.5,168C207.358,168 204,164.25 204,154.5C204,144.75 205.5,138 211.5,138C217.5,138 219,144.75 219,154.5Z" fill="#FFFFFF"/>
</mask>
<mask id="mask_0_i_1_2078;10203_3754;349_11904" style="mask-type:alpha" maskUnits="userSpaceOnUse" x="221" y="138.000122" width="7.5" height="15">
<path d="M236,154.5C236,164.25 232.642,168 228.5,168C224.358,168 221,164.25 221,154.5C221,144.75 222.5,138 228.5,138C234.5,138 236,144.75 236,154.5Z" fill="#FFFFFF"/>
</mask>
<path d="M94,128C84.059,128 76,136.059 76,146L76,150.382L76,164L76,226C76,244.778 91.222,260 110,260L208,260C217.941,260 226,251.941 226,242L226,168.382C226,158.441 217.941,150.382 208,150.382L112,150.382L112,128L94,128Z" clip-rule="evenodd" fill-rule="evenodd" fill="#FFFFFF"/>
<rect  x="160" y="56" width="128" height="188" rx="18" fill="#FFFFFF"/>
<rect  x="98" y="70" width="128" height="188" rx="18" fill="#FFFFFF"/>
<rect  x="102" y="74" width="120" height="180" rx="14" fill="#000000"/>
<rect  x="108" y="80" width="108" height="168" rx="8" fill="#FF00E5"/>
<circle cx="122" cy="94" r="8" transform="rotate(0 122 94)" fill="#000000"/>
<rect  x="114" y="108" width="50" height="6" rx="4.706" transform="rotate(0 114 108)" fill="#000000"/>
<rect  x="114" y="120" width="22" height="6" rx="4.706" transform="rotate(0 114 120)" fill="#000000"/>
<rect  x="142" y="120" width="12" height="6" rx="4.706" transform="rotate(0 142 120)" fill="#000000"/>
<rect  x="164" y="60" width="120" height="180" rx="14" fill="#000000"/>
<rect  x="170" y="66" width="108" height="168" rx="8" fill="#00A3FF"/>
<circle cx="184" cy="80" r="8" transform="rotate(0 184 80)" fill="#000000"/>
<rect  x="176" y="94" width="50" height="6" rx="4.706" transform="rotate(0 176 94)" fill="#000000"/>
<rect  x="176" y="106" width="22" height="6" rx="4.706" transform="rotate(0 176 106)" fill="#000000"/>
<rect  x="204" y="106" width="12" height="6" rx="4.706" transform="rotate(0 204 106)" fill="#000000"/>
<path d="M218.692,120.345C221.54,117.218 226.46,117.218 229.308,120.345L232.969,124.366C234.408,125.946 236.477,126.803 238.612,126.703L244.045,126.449C248.269,126.252 251.748,129.731 251.551,133.955L251.297,139.388C251.197,141.523 252.054,143.591 253.634,145.031L257.655,148.692C260.782,151.54 260.782,156.46 257.655,159.308L253.634,162.969C252.054,164.408 251.197,166.477 251.297,168.612L251.551,174.045C251.748,178.269 248.269,181.748 244.045,181.551L238.612,181.297C236.477,181.197 234.408,182.054 232.969,183.634L229.308,187.655C226.46,190.782 221.54,190.782 218.692,187.655L215.031,183.634C213.591,182.054 211.523,181.197 209.388,181.297L203.955,181.551C199.731,181.748 196.252,178.269 196.449,174.045L196.703,168.612C196.803,166.477 195.946,164.408 194.366,162.969L190.345,159.308C187.218,156.46 187.218,151.54 190.345,148.692L194.366,145.031C195.946,143.591 196.803,141.523 196.703,139.388L196.449,133.955C196.252,129.731 199.731,126.252 203.955,126.449L209.388,126.703C211.523,126.803 213.591,125.946 215.031,124.366L218.692,120.345Z" transform="rotate(0 224 154)" fill="#000000"/>
<path d="M219,154.5C219,164.25 215.642,168 211.5,168C207.358,168 204,164.25 204,154.5C204,144.75 205.5,138 211.5,138C217.5,138 219,144.75 219,154.5Z" fill="#FFFFFF"/>
<path d="M210.75,153C210.75,157.142 210,160.5 207,160.5C204,160.5 203.25,157.142 203.25,153C203.25,148.858 204,145.5 207,145.5C210,145.5 210.75,148.858 210.75,153Z" fill="#000000"/>
<path d="M236,154.5C236,164.25 232.642,168 228.5,168C224.358,168 221,164.25 221,154.5C221,144.75 222.5,138 228.5,138C234.5,138 236,144.75 236,154.5Z" fill="#FFFFFF"/>
<path d="M227.75,153C227.75,157.142 227,160.5 224,160.5C221,160.5 220.25,157.142 220.25,153C220.25,148.858 221,145.5 224,145.5C227,145.5 227.75,148.858 227.75,153Z" fill="#000000"/>
<path d="M80,146C80,138.268 86.268,132 94,132L108,132L108,160L80,160Z" fill="#000000"/>
<path d="M80,154L208,154C215.732,154 222,160.268 222,168L222,242C222,249.732 215.732,256 208,256L110,256C93.431,256 80,242.569 80,226Z" fill="#000000"/>
<path d="M86,160L208,160C212.418,160 216,163.582 216,168L216,242C216,246.418 212.418,250 208,250L110,250C96.745,250 86,239.255 86,226Z" fill="#FFC000"/>
<rect  x="182" y="176" width="52" height="52" rx="14" fill="#000000"/>
<rect  x="188" y="182" width="40" height="40" rx="8" fill="#FFC000"/>
<circle cx="208" cy="202" r="8" transform="rotate(0 208 202)" fill="#000000"/>
<path d="M86,146C86,141.582 89.582,138 94,138L102,138L102,154L94,154C89.582,154 86,150.418 86,146Z" fill="#00A3FF"/>
</svg>
