<svg width="364" height="316" viewBox="0 0 364 316" fill="none" xmlns="http://www.w3.org/2000/svg" xmlns:xlink="http://www.w3.org/1999/xlink">
<mask id="mask_0_i_1_2079;10203_3788;349_11904" style="mask-type:alpha" maskUnits="userSpaceOnUse" x="220.023026" y="113.232056" width="11.126729" height="16.43003">
<path d="M238.65,131.162C238.65,140.912 235.292,144.662 231.15,144.662C227.008,144.662 223.65,140.912 223.65,131.162C223.65,121.412 225.15,114.662 231.15,114.662C237.15,114.662 238.65,121.412 238.65,131.162Z" transform="rotate(30 231.15 129.662)" fill="#FFFFFF"/>
</mask>
<mask id="mask_0_i_1_2079;10203_3789;349_11904" style="mask-type:alpha" maskUnits="userSpaceOnUse" x="236.443925" y="117.632202" width="11.126729" height="16.43003">
<path d="M255.071,135.562C255.071,145.312 251.713,149.062 247.571,149.062C243.429,149.062 240.071,145.312 240.071,135.562C240.071,125.812 241.571,119.062 247.571,119.062C253.571,119.062 255.071,125.812 255.071,135.562Z" transform="rotate(30 247.571 134.062)" fill="#FFFFFF"/>
</mask>
<path d="M81.642,148.047C71.701,148.047 63.642,156.106 63.642,166.047L63.642,170.429L63.642,184.047L63.642,246.047C63.642,264.824 78.865,280.047 97.642,280.047L195.642,280.047C205.583,280.047 213.642,271.988 213.642,262.047L213.642,188.429C213.642,178.488 205.583,170.429 195.642,170.429L99.642,170.429L99.642,148.047L81.642,148.047Z" clip-rule="evenodd" fill-rule="evenodd" transform="rotate(-30 138.642 214.047)" fill="#FFFFFF"/>
<rect  x="206.51" y="22.639" width="128" height="188" rx="18" transform="rotate(30 206.51 22.639)" fill="#FFFFFF"/>
<rect  x="55.354" y="107.989" width="128" height="188" rx="18" transform="rotate(-30 55.354 107.989)" fill="#FFFFFF"/>
<rect  x="60.253" y="110.818" width="120" height="180" rx="14" transform="rotate(-30 60.253 110.818)" fill="#000000"/>
<rect  x="67.602" y="115.061" width="108" height="168" rx="8" transform="rotate(-30 67.602 115.061)" fill="#FF00E5"/>
<circle cx="84.748" cy="124.96" r="8" transform="rotate(-30 84.748 124.96)" fill="#000000"/>
<rect  x="80.644" y="140.554" width="50" height="6" rx="4.706" transform="rotate(-30 80.644 140.554)" fill="#000000"/>
<rect  x="83.75" y="152.145" width="22" height="6" rx="4.706" transform="rotate(-30 83.75 152.145)" fill="#000000"/>
<rect  x="110.796" y="144.898" width="12" height="6" rx="4.706" transform="rotate(-30 110.796 144.898)" fill="#000000"/>
<rect  x="209.338" y="27.537" width="120" height="180" rx="14" transform="rotate(30 209.338 27.537)" fill="#000000"/>
<rect  x="213.581" y="34.886" width="108" height="168" rx="8" transform="rotate(30 213.581 34.886)" fill="#00A3FF"/>
<circle cx="223.481" cy="52.032" r="8" transform="rotate(30 223.481 52.032)" fill="#000000"/>
<rect  x="212.13" y="63.484" width="50" height="6" rx="4.706" transform="rotate(30 212.13 63.484)" fill="#000000"/>
<rect  x="209.024" y="75.075" width="22" height="6" rx="4.706" transform="rotate(30 209.024 75.075)" fill="#000000"/>
<rect  x="236.07" y="82.322" width="12" height="6" rx="4.706" transform="rotate(30 236.07 82.322)" fill="#000000"/>
<path d="M237.657,100.208C240.505,97.082 245.425,97.082 248.272,100.208L251.934,104.229C253.373,105.81 255.442,106.666 257.577,106.567L263.009,106.313C267.234,106.115 270.713,109.594 270.515,113.819L270.261,119.251C270.162,121.386 271.018,123.455 272.599,124.894L276.62,128.556C279.747,131.403 279.747,136.323 276.62,139.171L272.599,142.833C271.018,144.272 270.162,146.34 270.261,148.475L270.515,153.908C270.713,158.132 267.234,161.611 263.009,161.414L257.577,161.16C255.442,161.06 253.373,161.917 251.934,163.497L248.272,167.518C245.425,170.645 240.505,170.645 237.657,167.518L233.995,163.497C232.556,161.917 230.488,161.06 228.353,161.16L222.92,161.414C218.696,161.611 215.217,158.132 215.414,153.908L215.668,148.475C215.768,146.34 214.911,144.272 213.331,142.833L209.31,139.171C206.183,136.323 206.183,131.403 209.31,128.556L213.331,124.894C214.911,123.455 215.768,121.386 215.668,119.251L215.414,113.819C215.217,109.594 218.696,106.115 222.92,106.313L228.353,106.567C230.488,106.666 232.556,105.81 233.995,104.229L237.657,100.208Z" transform="rotate(30 242.965 133.863)" fill="#000000"/>
<path d="M238.65,131.162C238.65,140.912 235.292,144.662 231.15,144.662C227.008,144.662 223.65,140.912 223.65,131.162C223.65,121.412 225.15,114.662 231.15,114.662C237.15,114.662 238.65,121.412 238.65,131.162Z" transform="rotate(30 231.15 129.662)" fill="#FFFFFF"/>
<path d="M230.553,128.497C230.553,132.64 229.803,135.997 226.803,135.997C223.803,135.997 223.053,132.64 223.053,128.497C223.053,124.355 223.803,120.997 226.803,120.997C229.803,120.997 230.553,124.355 230.553,128.497Z" transform="rotate(30 226.803 128.497)" fill="#000000"/>
<path d="M255.071,135.562C255.071,145.312 251.713,149.062 247.571,149.062C243.429,149.062 240.071,145.312 240.071,135.562C240.071,125.812 241.571,119.062 247.571,119.062C253.571,119.062 255.071,125.812 255.071,135.562Z" transform="rotate(30 247.571 134.062)" fill="#FFFFFF"/>
<path d="M246.974,132.898C246.974,137.04 246.224,140.398 243.224,140.398C240.224,140.398 239.474,137.04 239.474,132.898C239.474,128.755 240.224,125.398 243.224,125.398C246.224,125.398 246.974,128.755 246.974,132.898Z" transform="rotate(30 243.224 132.898)" fill="#000000"/>
<path d="M57.638,186.059C55.637,178.591 60.069,170.914 67.538,168.913L81.061,165.289L88.308,192.335L61.262,199.582Z" fill="#000000"/>
<path d="M59.708,193.786L183.347,160.658C190.816,158.656 198.492,163.089 200.493,170.557L219.646,242.036C221.647,249.504 217.215,257.181 209.747,259.182L115.086,284.546C99.082,288.835 82.632,279.337 78.343,263.333Z" fill="#000000"/>
<path d="M67.057,198.029L184.9,166.453C189.168,165.31 193.555,167.842 194.698,172.11L213.851,243.589C214.994,247.856 212.462,252.243 208.194,253.387L113.533,278.751C100.73,282.181 87.57,274.583 84.139,261.78Z" fill="#FFC000"/>
<rect  x="163.927" y="188.637" width="52" height="52" rx="14" transform="rotate(-30 163.927 188.637)" fill="#000000"/>
<rect  x="171.275" y="192.88" width="40" height="40" rx="8" transform="rotate(-30 171.275 192.88)" fill="#FFC000"/>
<circle cx="195.771" cy="207.022" r="8" transform="rotate(-30 195.771 207.022)" fill="#000000"/>
<path d="M63.434,184.506C62.29,180.238 64.823,175.852 69.091,174.708L76.818,172.638L80.959,188.093L73.232,190.163C68.964,191.307 64.577,188.774 63.434,184.506Z" fill="#00A3FF"/>
</svg>
