<svg width="24" height="38" viewBox="0 0 24 38" fill="none" xmlns="http://www.w3.org/2000/svg" xmlns:xlink="http://www.w3.org/1999/xlink">
<path d="M0,4.781C0,4.322 0.312,3.922 0.757,3.811L14.757,0.311C15.389,0.153 16,0.63 16,1.281L16,3C16,3.552 16.448,4 17,4L23,4C23.552,4 24,4.448 24,5L24,37C24,37.552 23.552,38 23,38L1,38C0.448,38 0,37.552 0,37L0,4.781Z" fill="#FFFFFF" stroke="#FFFFFF" stroke-width="1" stroke-miterlimit="3.999327"/>
<rect  x="0" y="4" width="24" height="34" rx="1" fill="#00A3FF"/>
<path d="M0,4.781C0,4.322 0.312,3.922 0.757,3.811L14.757,0.311C15.389,0.153 16,0.63 16,1.281L16,37C16,37.552 15.552,38 15,38L1,38C0.448,38 0,37.552 0,37L0,4.781Z" fill="#000000"/>
<path d="M12,18.5C12,18.224 12.224,18 12.5,18L12.5,18C12.776,18 13,18.224 13,18.5L13,23.5C13,23.776 12.776,24 12.5,24L12.5,24C12.224,24 12,23.776 12,23.5L12,18.5Z" fill="#FFFFFF"/>
<path d="M0,4.781C0,4.322 0.312,3.922 0.757,3.811L14.757,0.311C15.389,0.153 16,0.63 16,1.281L16,3C16,3.552 16.448,4 17,4L23,4C23.552,4 24,4.448 24,5L24,37C24,37.552 23.552,38 23,38L1,38C0.448,38 0,37.552 0,37L0,4.781Z" stroke="#000000" stroke-width="1" stroke-miterlimit="3.999327"/>
</svg>
