<svg width="160" height="96" viewBox="0 0 160 96" fill="none" xmlns="http://www.w3.org/2000/svg" xmlns:xlink="http://www.w3.org/1999/xlink">
<path d="M65.126,0C52.261,22.513 36.717,15.276 30.553,8.844C32.482,24.925 16.884,25.729 8.844,24.121C24.925,36.342 9.648,50.653 0,56.281C16.884,53.065 19.832,68.61 19.296,78.794C44.382,69.789 48.509,82.546 47.437,90.05C65.447,68.181 79.062,83.618 83.618,94.07C91.98,76.704 105.863,84.154 111.759,90.05C116.905,73.97 132.127,75.846 139.095,78.794C132.663,57.889 147.94,53.869 158.392,49.849C140.704,42.613 143.384,35.645 152.764,27.337C131.538,31.196 128.375,17.152 129.447,9.648C104.362,23.799 99.698,9.648 100.503,0.804C79.276,20.744 68.074,8.576 65.126,0Z" fill="#FF00E5" stroke="#000000" stroke-width="1" stroke-miterlimit="3.999327" stroke-linejoin="round"/>
<path d="M65.126,0C52.261,22.513 36.717,15.276 30.553,8.844C32.482,24.925 16.884,25.729 8.844,24.121C24.925,36.342 9.648,50.653 0,56.281C16.884,53.065 19.832,68.61 19.296,78.794C44.382,69.789 48.509,82.546 47.437,90.05C65.447,68.181 79.062,83.618 83.618,94.07C91.98,76.704 105.863,84.154 111.759,90.05C116.905,73.97 132.127,75.846 139.095,78.794C132.663,57.889 147.94,53.869 158.392,49.849C140.704,42.613 143.384,35.645 152.764,27.337C131.538,31.196 128.375,17.152 129.447,9.648C104.362,23.799 99.698,9.648 100.503,0.804C79.276,20.744 68.074,8.576 65.126,0Z" fill="#FF00E5" stroke="#000000" stroke-width="1" stroke-miterlimit="3.999327" stroke-linejoin="round"/>
<path d="M129.76,31.638C129.882,32.005 130.02,32.264 130.172,32.417C130.325,32.539 130.432,32.631 130.493,32.692C130.646,32.845 130.57,33.12 130.264,33.517C129.989,34.067 129.607,34.708 129.119,35.441C128.233,36.755 127.668,37.717 127.423,38.328C126.171,40.833 125.193,43.139 124.491,45.247C123.788,47.324 123.192,49.203 122.704,50.883C122.215,52.563 121.741,54.045 121.283,55.328C120.733,56.824 120.092,57.939 119.359,58.673C118.992,59.284 118.335,59.696 117.388,59.91C116.441,60.124 115.479,60.169 114.502,60.047C113.524,59.894 112.684,59.574 111.982,59.085C111.309,58.596 111.065,57.955 111.248,57.16C111.584,54.289 112.088,51.876 112.76,49.921C113.463,47.966 114.059,46.347 114.547,45.064C115.067,43.781 115.51,42.635 115.876,41.627C116.243,40.589 116.579,39.703 116.884,38.97C117.22,38.206 117.602,37.412 118.03,36.587C118.458,35.732 118.916,34.876 119.405,34.021C119.924,33.135 120.443,32.325 120.962,31.592C122.154,29.912 123.162,28.919 123.987,28.614C124.811,28.278 125.636,28.079 126.461,28.018C127.316,27.957 128.049,28.049 128.66,28.293C129.302,28.538 129.745,28.935 129.989,29.485C130.234,30.034 130.157,30.752 129.76,31.638ZM118.809,66.187C118.473,67.44 117.77,68.371 116.701,68.982C115.662,69.624 114.547,69.96 113.356,69.99C112.165,70.051 111.05,69.822 110.011,69.303C109.003,68.814 108.377,68.035 108.133,66.966C107.858,65.928 108.01,65.042 108.591,64.309C109.202,63.545 109.92,63.056 110.744,62.842C111.569,62.598 112.531,62.43 113.631,62.338C114.761,62.247 115.785,62.308 116.701,62.522C117.618,62.735 118.32,63.132 118.809,63.713C119.298,64.293 119.298,65.118 118.809,66.187Z" fill="#000000" stroke="#000000" stroke-width="1" stroke-miterlimit="3.999327"/>
<path d="M103.844,52.945C103.02,55.328 102.179,57.619 101.324,59.818C100.469,62.018 99.751,63.682 99.171,64.813C98.621,65.973 98.132,66.768 97.704,67.195C97.277,67.623 96.834,67.913 96.375,68.066C95.948,68.219 95.505,68.28 95.047,68.249C94.619,68.219 94.176,68.188 93.718,68.158C91.152,67.76 90.358,65.912 91.335,62.613C91.977,59.986 92.496,57.848 92.893,56.198C93.29,54.518 93.611,53.144 93.855,52.074C94.13,50.975 94.359,50.074 94.543,49.371C94.726,48.638 94.924,47.92 95.138,47.217C95.352,46.515 95.612,45.721 95.917,44.835C96.253,43.949 96.681,42.773 97.2,41.306C96.039,41.459 95.001,41.337 94.084,40.94C92.74,40.359 92.19,39.107 92.435,37.183C92.557,36.297 93.031,35.472 93.855,34.708C94.283,34.311 94.787,33.883 95.367,33.425C96.559,32.478 98.926,31.47 102.47,30.401C106.135,29.301 109.282,28.782 111.909,28.843C112.611,28.721 113.329,28.813 114.062,29.118C114.826,29.393 115.437,29.775 115.895,30.264C116.353,30.752 116.582,31.287 116.582,31.867C116.613,32.448 116.246,32.967 115.483,33.425C115.116,33.67 114.857,34.082 114.704,34.662C114.551,35.212 114.383,35.808 114.2,36.449C114.016,37.06 113.742,37.625 113.375,38.145C113.039,38.664 112.489,38.97 111.725,39.061C111.328,39.275 110.763,39.428 110.03,39.519C109.328,39.611 108.854,39.687 108.61,39.749C108.396,39.779 108.274,39.855 108.243,39.978C107.693,41.597 107.036,43.567 106.273,45.889C105.509,48.18 104.7,50.532 103.844,52.945ZM97.658,40.802C97.597,40.802 97.567,40.818 97.567,40.848C97.567,40.848 97.597,40.848 97.658,40.848L97.658,40.802Z" fill="#000000" stroke="#000000" stroke-width="1" stroke-miterlimit="3.999327"/>
<path d="M67.936,34.342C69.86,32.142 71.998,30.768 74.351,30.218C75.97,29.821 77.497,29.882 78.933,30.401C80.063,29.21 81.529,28.782 83.331,29.118C84.981,29.423 86.386,30.355 87.547,31.913C87.608,32.127 87.73,32.448 87.913,32.875C88.127,33.303 88.326,33.776 88.509,34.296C89.853,37.412 89.96,41.505 88.83,46.576C87.425,52.868 84.935,58.199 81.361,62.567C80.261,63.911 79.024,65.026 77.65,65.912C75.45,67.592 72.823,68.341 69.768,68.157C67.875,68.066 66.286,67.592 65.003,66.737C59.902,64.201 58.237,58.917 60.009,50.883C61.475,44.285 64.117,38.771 67.936,34.342ZM68.485,58.672L68.44,58.947L68.531,59.451C68.715,60.398 69.02,61.131 69.448,61.651C69.875,62.14 70.227,62.445 70.502,62.567C70.807,62.323 71.113,62.094 71.418,61.88C71.723,61.666 71.998,61.406 72.243,61.101C74.32,58.535 75.939,55.175 77.1,51.02C78.261,46.866 78.688,43.017 78.383,39.474C77.191,41.001 75.939,42.757 74.625,44.743C73.312,46.729 72.273,48.424 71.51,49.829C69.768,53.098 68.76,56.045 68.485,58.672Z" fill="#000000" stroke="#000000" stroke-width="1" stroke-miterlimit="3.999327"/>
<path d="M42.647,54.686L40.448,60.276C40.143,61.131 39.868,62.017 39.623,62.934C39.379,63.85 39.119,64.644 38.844,65.316C38.569,66.019 38.142,66.569 37.561,66.966C37.011,67.363 36.385,67.653 35.683,67.837C34.98,68.05 34.247,68.142 33.483,68.111C32.75,68.081 32.093,67.943 31.513,67.699C30.199,67.088 29.741,66.08 30.138,64.675C31.543,58.504 32.857,53.556 34.079,49.829C35.331,46.102 36.355,43.17 37.149,41.031C37.974,38.893 38.829,36.633 39.715,34.25C39.806,33.364 40.173,32.57 40.815,31.867C41.456,31.165 42.204,30.584 43.06,30.126C43.946,29.668 44.862,29.347 45.809,29.164C46.756,28.95 47.596,28.919 48.329,29.072C49.062,29.225 49.597,29.561 49.933,30.08C50.3,30.599 50.33,31.348 50.025,32.325C48.925,35.136 48.146,37.121 47.688,38.282C47.23,39.443 46.817,40.481 46.451,41.398L45.168,44.422C45.809,44.453 46.619,44.361 47.596,44.147C49.368,43.75 50.651,43.613 51.445,43.735C51.445,43.582 51.521,43.322 51.674,42.956C52.529,39.229 53.492,35.808 54.561,32.692C55.325,30.126 57.295,28.782 60.472,28.66C61.724,28.66 62.671,28.965 63.313,29.576C64.015,30.218 64.107,31.088 63.588,32.188C60.777,40.069 58.792,46.285 57.631,50.837C56.317,56.091 55.447,59.635 55.019,61.467C54.622,63.3 54.271,64.385 53.965,64.721C53.66,65.057 53.339,65.286 53.003,65.408C52.697,65.561 52.392,65.698 52.087,65.82C51.781,65.943 51.537,66.248 51.353,66.737L51.216,66.737C50.972,67.287 50.437,67.714 49.612,68.02C48.787,68.325 47.947,68.432 47.092,68.341C46.267,68.279 45.565,67.974 44.984,67.424C44.434,66.905 44.297,66.095 44.572,64.996C44.877,63.254 45.381,61.391 46.084,59.405C46.787,57.389 47.336,55.816 47.734,54.686C48.161,53.556 48.513,52.502 48.787,51.524C48.543,51.646 48.299,51.738 48.054,51.799C47.84,51.86 47.566,51.982 47.23,52.166C46.893,52.319 46.542,52.456 46.176,52.578C45.84,52.7 45.504,52.823 45.168,52.945C44.312,53.281 43.61,53.617 43.06,53.953L42.647,54.686ZM47.825,51.616C47.856,51.616 48.008,51.57 48.283,51.478C48.1,51.54 47.947,51.585 47.825,51.616Z" fill="#000000" stroke="#000000" stroke-width="1" stroke-miterlimit="3.999327"/>
<path d="M125.76,27.638C125.882,28.005 126.02,28.264 126.172,28.417C126.325,28.539 126.432,28.631 126.493,28.692C126.646,28.845 126.57,29.12 126.264,29.517C125.989,30.067 125.607,30.708 125.119,31.441C124.233,32.755 123.668,33.717 123.423,34.328C122.171,36.833 121.193,39.139 120.491,41.247C119.788,43.324 119.192,45.203 118.704,46.883C118.215,48.563 117.741,50.045 117.283,51.328C116.733,52.824 116.092,53.939 115.359,54.673C114.992,55.284 114.335,55.696 113.388,55.91C112.441,56.124 111.479,56.169 110.502,56.047C109.524,55.894 108.684,55.574 107.982,55.085C107.309,54.596 107.065,53.955 107.248,53.16C107.584,50.289 108.088,47.876 108.76,45.921C109.463,43.966 110.059,42.347 110.547,41.064C111.067,39.781 111.51,38.635 111.876,37.627C112.243,36.589 112.579,35.703 112.884,34.97C113.22,34.206 113.602,33.412 114.03,32.587C114.458,31.732 114.916,30.876 115.405,30.021C115.924,29.135 116.443,28.325 116.962,27.592C118.154,25.912 119.162,24.919 119.987,24.614C120.811,24.278 121.636,24.079 122.461,24.018C123.316,23.957 124.049,24.049 124.66,24.293C125.302,24.538 125.745,24.935 125.989,25.485C126.234,26.034 126.157,26.752 125.76,27.638ZM114.809,62.187C114.473,63.44 113.77,64.371 112.701,64.982C111.662,65.624 110.547,65.96 109.356,65.99C108.165,66.051 107.05,65.822 106.011,65.303C105.003,64.814 104.377,64.035 104.133,62.966C103.858,61.928 104.01,61.042 104.591,60.309C105.202,59.545 105.92,59.056 106.744,58.842C107.569,58.598 108.531,58.43 109.631,58.338C110.761,58.247 111.785,58.308 112.701,58.522C113.618,58.735 114.32,59.132 114.809,59.713C115.298,60.293 115.298,61.118 114.809,62.187Z" fill="#FFFFFF" stroke="#000000" stroke-width="1" stroke-miterlimit="3.999327"/>
<path d="M99.844,48.945C99.02,51.328 98.179,53.619 97.324,55.818C96.469,58.018 95.751,59.682 95.171,60.813C94.621,61.973 94.132,62.768 93.704,63.195C93.277,63.623 92.834,63.913 92.375,64.066C91.948,64.219 91.505,64.28 91.047,64.249C90.619,64.219 90.176,64.188 89.718,64.158C87.152,63.76 86.358,61.912 87.335,58.613C87.977,55.986 88.496,53.848 88.893,52.198C89.29,50.518 89.611,49.144 89.855,48.074C90.13,46.975 90.359,46.074 90.543,45.371C90.726,44.638 90.924,43.92 91.138,43.217C91.352,42.515 91.612,41.721 91.917,40.835C92.253,39.949 92.681,38.773 93.2,37.306C92.039,37.459 91.001,37.337 90.084,36.94C88.74,36.359 88.19,35.107 88.435,33.183C88.557,32.297 89.031,31.472 89.855,30.708C90.283,30.311 90.787,29.883 91.367,29.425C92.559,28.478 94.926,27.47 98.47,26.401C102.135,25.301 105.282,24.782 107.909,24.843C108.611,24.721 109.329,24.813 110.062,25.118C110.826,25.393 111.437,25.775 111.895,26.264C112.353,26.752 112.582,27.287 112.582,27.867C112.613,28.448 112.246,28.967 111.483,29.425C111.116,29.67 110.857,30.082 110.704,30.662C110.551,31.212 110.383,31.808 110.2,32.449C110.016,33.06 109.742,33.625 109.375,34.145C109.039,34.664 108.489,34.97 107.725,35.061C107.328,35.275 106.763,35.428 106.03,35.519C105.328,35.611 104.854,35.687 104.61,35.749C104.396,35.779 104.274,35.855 104.243,35.978C103.693,37.597 103.036,39.567 102.273,41.889C101.509,44.18 100.7,46.532 99.844,48.945ZM93.658,36.802C93.597,36.802 93.567,36.818 93.567,36.848C93.567,36.848 93.597,36.848 93.658,36.848L93.658,36.802Z" fill="#FFFFFF" stroke="#000000" stroke-width="1" stroke-miterlimit="3.999327"/>
<path d="M63.936,30.342C65.86,28.142 67.998,26.768 70.351,26.218C71.97,25.821 73.497,25.882 74.933,26.401C76.063,25.21 77.529,24.782 79.331,25.118C80.981,25.423 82.386,26.355 83.547,27.913C83.608,28.127 83.73,28.448 83.913,28.875C84.127,29.303 84.326,29.776 84.509,30.296C85.853,33.412 85.96,37.505 84.83,42.576C83.425,48.868 80.935,54.199 77.361,58.567C76.261,59.911 75.024,61.026 73.65,61.912C71.45,63.592 68.823,64.341 65.768,64.157C63.875,64.066 62.286,63.592 61.003,62.737C55.902,60.201 54.237,54.917 56.009,46.883C57.475,40.285 60.117,34.771 63.936,30.342ZM64.485,54.672L64.44,54.947L64.531,55.451C64.715,56.398 65.02,57.131 65.448,57.651C65.875,58.14 66.227,58.445 66.502,58.567C66.807,58.323 67.113,58.094 67.418,57.88C67.723,57.666 67.998,57.406 68.243,57.101C70.32,54.535 71.939,51.175 73.1,47.02C74.261,42.866 74.688,39.017 74.383,35.474C73.191,37.001 71.939,38.757 70.625,40.743C69.312,42.729 68.273,44.424 67.51,45.829C65.768,49.098 64.76,52.045 64.485,54.672Z" fill="#FFFFFF" stroke="#000000" stroke-width="1" stroke-miterlimit="3.999327"/>
<path d="M38.647,50.686L36.448,56.276C36.143,57.131 35.868,58.017 35.623,58.934C35.379,59.85 35.119,60.644 34.844,61.316C34.569,62.019 34.142,62.569 33.561,62.966C33.011,63.363 32.385,63.653 31.683,63.837C30.98,64.05 30.247,64.142 29.483,64.111C28.75,64.081 28.093,63.943 27.513,63.699C26.199,63.088 25.741,62.08 26.138,60.675C27.543,54.504 28.857,49.556 30.079,45.829C31.331,42.102 32.355,39.17 33.149,37.031C33.974,34.893 34.829,32.633 35.715,30.25C35.806,29.364 36.173,28.57 36.815,27.867C37.456,27.165 38.204,26.584 39.06,26.126C39.946,25.668 40.862,25.347 41.809,25.164C42.756,24.95 43.596,24.919 44.329,25.072C45.062,25.225 45.597,25.561 45.933,26.08C46.3,26.599 46.33,27.348 46.025,28.325C44.925,31.136 44.146,33.121 43.688,34.282C43.23,35.443 42.817,36.481 42.451,37.398L41.168,40.422C41.809,40.453 42.619,40.361 43.596,40.147C45.368,39.75 46.651,39.613 47.445,39.735C47.445,39.582 47.521,39.322 47.674,38.956C48.529,35.229 49.492,31.808 50.561,28.692C51.325,26.126 53.295,24.782 56.472,24.66C57.724,24.66 58.671,24.965 59.313,25.576C60.015,26.218 60.107,27.088 59.588,28.188C56.777,36.069 54.792,42.285 53.631,46.837C52.317,52.091 51.447,55.635 51.019,57.467C50.622,59.3 50.271,60.385 49.965,60.721C49.66,61.057 49.339,61.286 49.003,61.408C48.697,61.561 48.392,61.698 48.087,61.82C47.781,61.943 47.537,62.248 47.353,62.737L47.216,62.737C46.972,63.287 46.437,63.714 45.612,64.02C44.787,64.325 43.947,64.432 43.092,64.341C42.267,64.279 41.565,63.974 40.984,63.424C40.434,62.905 40.297,62.095 40.572,60.996C40.877,59.254 41.381,57.391 42.084,55.405C42.787,53.389 43.336,51.816 43.734,50.686C44.161,49.556 44.513,48.502 44.787,47.524C44.543,47.646 44.299,47.738 44.054,47.799C43.84,47.86 43.566,47.982 43.23,48.166C42.893,48.319 42.542,48.456 42.176,48.578C41.84,48.7 41.504,48.823 41.168,48.945C40.312,49.281 39.61,49.617 39.06,49.953L38.647,50.686ZM43.825,47.616C43.856,47.616 44.008,47.57 44.283,47.478C44.1,47.54 43.947,47.585 43.825,47.616Z" fill="#FFFFFF" stroke="#000000" stroke-width="1" stroke-miterlimit="3.999327"/>
</svg>
