<svg width="200" height="120" viewBox="0 0 200 120" fill="none" xmlns="http://www.w3.org/2000/svg" xmlns:xlink="http://www.w3.org/1999/xlink">
<path d="M85.126,12C72.261,34.513 56.717,27.276 50.553,20.844C52.482,36.925 36.884,37.729 28.844,36.121C44.925,48.342 29.648,62.653 20,68.281C36.884,65.065 39.832,80.61 39.296,90.794C64.382,81.789 68.509,94.546 67.437,102.05C85.447,80.181 99.062,95.618 103.618,106.07C111.98,88.704 125.863,96.154 131.759,102.05C136.905,85.97 152.127,87.846 159.095,90.794C152.663,69.889 167.94,65.869 178.392,61.849C160.704,54.613 163.384,47.645 172.764,39.337C151.538,43.196 148.375,29.152 149.447,21.648C124.362,35.799 119.698,21.648 120.503,12.804C99.276,32.744 88.074,20.576 85.126,12Z" fill="#FF00E5" stroke="#000000" stroke-width="1" stroke-miterlimit="3.999327" stroke-linejoin="round"/>
<path d="M149.76,43.638C149.882,44.005 150.02,44.264 150.172,44.417C150.325,44.539 150.432,44.631 150.493,44.692C150.646,44.845 150.57,45.12 150.264,45.517C149.989,46.067 149.607,46.708 149.119,47.441C148.233,48.755 147.668,49.717 147.423,50.328C146.171,52.833 145.193,55.139 144.491,57.247C143.788,59.324 143.192,61.203 142.704,62.883C142.215,64.563 141.741,66.045 141.283,67.328C140.733,68.824 140.092,69.939 139.359,70.673C138.992,71.284 138.335,71.696 137.388,71.91C136.441,72.124 135.479,72.169 134.502,72.047C133.524,71.894 132.684,71.574 131.982,71.085C131.309,70.596 131.065,69.955 131.248,69.16C131.584,66.289 132.088,63.876 132.76,61.921C133.463,59.966 134.059,58.347 134.547,57.064C135.067,55.781 135.51,54.635 135.876,53.627C136.243,52.589 136.579,51.703 136.884,50.97C137.22,50.206 137.602,49.412 138.03,48.587C138.458,47.732 138.916,46.876 139.405,46.021C139.924,45.135 140.443,44.325 140.962,43.592C142.154,41.912 143.162,40.919 143.987,40.614C144.811,40.278 145.636,40.079 146.461,40.018C147.316,39.957 148.049,40.049 148.66,40.293C149.302,40.538 149.745,40.935 149.989,41.485C150.234,42.034 150.157,42.752 149.76,43.638ZM138.809,78.187C138.473,79.44 137.77,80.371 136.701,80.982C135.662,81.624 134.547,81.96 133.356,81.99C132.165,82.051 131.05,81.822 130.011,81.303C129.003,80.814 128.377,80.035 128.133,78.966C127.858,77.928 128.01,77.042 128.591,76.309C129.202,75.545 129.92,75.056 130.744,74.842C131.569,74.598 132.531,74.43 133.631,74.338C134.761,74.247 135.785,74.308 136.701,74.522C137.618,74.735 138.32,75.132 138.809,75.713C139.298,76.293 139.298,77.118 138.809,78.187Z" fill="#000000" stroke="#000000" stroke-width="1" stroke-miterlimit="3.999327"/>
<path d="M123.844,64.945C123.02,67.328 122.179,69.619 121.324,71.818C120.469,74.018 119.751,75.682 119.171,76.813C118.621,77.973 118.132,78.768 117.704,79.195C117.277,79.623 116.834,79.913 116.375,80.066C115.948,80.219 115.505,80.28 115.047,80.249C114.619,80.219 114.176,80.188 113.718,80.158C111.152,79.76 110.358,77.912 111.335,74.613C111.977,71.986 112.496,69.848 112.893,68.198C113.29,66.518 113.611,65.144 113.855,64.074C114.13,62.975 114.359,62.074 114.543,61.371C114.726,60.638 114.924,59.92 115.138,59.217C115.352,58.515 115.612,57.721 115.917,56.835C116.253,55.949 116.681,54.773 117.2,53.306C116.039,53.459 115.001,53.337 114.084,52.94C112.74,52.359 112.19,51.107 112.435,49.183C112.557,48.297 113.031,47.472 113.855,46.708C114.283,46.311 114.787,45.883 115.367,45.425C116.559,44.478 118.926,43.47 122.47,42.401C126.135,41.301 129.282,40.782 131.909,40.843C132.611,40.721 133.329,40.813 134.062,41.118C134.826,41.393 135.437,41.775 135.895,42.264C136.353,42.752 136.582,43.287 136.582,43.867C136.613,44.448 136.246,44.967 135.483,45.425C135.116,45.67 134.857,46.082 134.704,46.662C134.551,47.212 134.383,47.808 134.2,48.449C134.016,49.06 133.742,49.625 133.375,50.145C133.039,50.664 132.489,50.97 131.725,51.061C131.328,51.275 130.763,51.428 130.03,51.519C129.328,51.611 128.854,51.687 128.61,51.749C128.396,51.779 128.274,51.855 128.243,51.978C127.693,53.597 127.036,55.567 126.273,57.889C125.509,60.18 124.7,62.532 123.844,64.945ZM117.658,52.802C117.597,52.802 117.567,52.818 117.567,52.848C117.567,52.848 117.597,52.848 117.658,52.848L117.658,52.802Z" fill="#000000" stroke="#000000" stroke-width="1" stroke-miterlimit="3.999327"/>
<path d="M87.936,46.342C89.86,44.142 91.998,42.768 94.351,42.218C95.97,41.821 97.497,41.882 98.933,42.401C100.063,41.21 101.529,40.782 103.331,41.118C104.981,41.423 106.386,42.355 107.547,43.913C107.608,44.127 107.73,44.448 107.913,44.875C108.127,45.303 108.326,45.776 108.509,46.296C109.853,49.412 109.96,53.505 108.83,58.576C107.425,64.868 104.935,70.199 101.361,74.567C100.261,75.911 99.024,77.026 97.65,77.912C95.45,79.592 92.823,80.341 89.768,80.157C87.875,80.066 86.286,79.592 85.003,78.737C79.902,76.201 78.237,70.917 80.009,62.883C81.475,56.285 84.117,50.771 87.936,46.342ZM88.485,70.672L88.44,70.947L88.531,71.451C88.715,72.398 89.02,73.131 89.448,73.651C89.875,74.14 90.227,74.445 90.502,74.567C90.807,74.323 91.113,74.094 91.418,73.88C91.723,73.666 91.998,73.406 92.243,73.101C94.32,70.535 95.939,67.175 97.1,63.02C98.261,58.866 98.688,55.017 98.383,51.474C97.191,53.001 95.939,54.757 94.625,56.743C93.312,58.729 92.273,60.424 91.51,61.829C89.768,65.098 88.76,68.045 88.485,70.672Z" fill="#000000" stroke="#000000" stroke-width="1" stroke-miterlimit="3.999327"/>
<path d="M62.647,66.686L60.448,72.276C60.143,73.131 59.868,74.017 59.623,74.934C59.379,75.85 59.119,76.644 58.844,77.316C58.569,78.019 58.142,78.569 57.561,78.966C57.011,79.363 56.385,79.653 55.683,79.837C54.98,80.05 54.247,80.142 53.483,80.111C52.75,80.081 52.093,79.943 51.513,79.699C50.199,79.088 49.741,78.08 50.138,76.675C51.543,70.504 52.857,65.556 54.079,61.829C55.331,58.102 56.355,55.17 57.149,53.031C57.974,50.893 58.829,48.633 59.715,46.25C59.806,45.364 60.173,44.57 60.815,43.867C61.456,43.165 62.204,42.584 63.06,42.126C63.946,41.668 64.862,41.347 65.809,41.164C66.756,40.95 67.596,40.919 68.329,41.072C69.062,41.225 69.597,41.561 69.933,42.08C70.3,42.599 70.33,43.348 70.025,44.325C68.925,47.136 68.146,49.121 67.688,50.282C67.23,51.443 66.817,52.481 66.451,53.398L65.168,56.422C65.809,56.453 66.619,56.361 67.596,56.147C69.368,55.75 70.651,55.613 71.445,55.735C71.445,55.582 71.521,55.322 71.674,54.956C72.529,51.229 73.492,47.808 74.561,44.692C75.325,42.126 77.295,40.782 80.472,40.66C81.724,40.66 82.671,40.965 83.313,41.576C84.015,42.218 84.107,43.088 83.588,44.188C80.777,52.069 78.792,58.285 77.631,62.837C76.317,68.091 75.447,71.635 75.019,73.467C74.622,75.3 74.271,76.385 73.965,76.721C73.66,77.057 73.339,77.286 73.003,77.408C72.697,77.561 72.392,77.698 72.087,77.82C71.781,77.943 71.537,78.248 71.353,78.737L71.216,78.737C70.972,79.287 70.437,79.714 69.612,80.02C68.787,80.325 67.947,80.432 67.092,80.341C66.267,80.279 65.565,79.974 64.984,79.424C64.434,78.905 64.297,78.095 64.572,76.996C64.877,75.254 65.381,73.391 66.084,71.405C66.787,69.389 67.336,67.816 67.734,66.686C68.161,65.556 68.513,64.502 68.787,63.524C68.543,63.646 68.299,63.738 68.054,63.799C67.84,63.86 67.566,63.982 67.23,64.166C66.893,64.319 66.542,64.456 66.176,64.578C65.84,64.7 65.504,64.823 65.168,64.945C64.312,65.281 63.61,65.617 63.06,65.953L62.647,66.686ZM67.825,63.616C67.856,63.616 68.008,63.57 68.283,63.478C68.1,63.54 67.947,63.585 67.825,63.616Z" fill="#000000" stroke="#000000" stroke-width="1" stroke-miterlimit="3.999327"/>
<path d="M145.76,39.638C145.882,40.005 146.02,40.264 146.172,40.417C146.325,40.539 146.432,40.631 146.493,40.692C146.646,40.845 146.57,41.12 146.264,41.517C145.989,42.067 145.607,42.708 145.119,43.441C144.233,44.755 143.668,45.717 143.423,46.328C142.171,48.833 141.193,51.139 140.491,53.247C139.788,55.324 139.192,57.203 138.704,58.883C138.215,60.563 137.741,62.045 137.283,63.328C136.733,64.824 136.092,65.939 135.359,66.673C134.992,67.284 134.335,67.696 133.388,67.91C132.441,68.124 131.479,68.169 130.502,68.047C129.524,67.894 128.684,67.574 127.982,67.085C127.309,66.596 127.065,65.955 127.248,65.16C127.584,62.289 128.088,59.876 128.76,57.921C129.463,55.966 130.059,54.347 130.547,53.064C131.067,51.781 131.51,50.635 131.876,49.627C132.243,48.589 132.579,47.703 132.884,46.97C133.22,46.206 133.602,45.412 134.03,44.587C134.458,43.732 134.916,42.876 135.405,42.021C135.924,41.135 136.443,40.325 136.962,39.592C138.154,37.912 139.162,36.919 139.987,36.614C140.811,36.278 141.636,36.079 142.461,36.018C143.316,35.957 144.049,36.049 144.66,36.293C145.302,36.538 145.745,36.935 145.989,37.485C146.234,38.034 146.157,38.752 145.76,39.638ZM134.809,74.187C134.473,75.44 133.77,76.371 132.701,76.982C131.662,77.624 130.547,77.96 129.356,77.99C128.165,78.051 127.05,77.822 126.011,77.303C125.003,76.814 124.377,76.035 124.133,74.966C123.858,73.928 124.01,73.042 124.591,72.309C125.202,71.545 125.92,71.056 126.744,70.842C127.569,70.598 128.531,70.43 129.631,70.338C130.761,70.247 131.785,70.308 132.701,70.522C133.618,70.735 134.32,71.132 134.809,71.713C135.298,72.293 135.298,73.118 134.809,74.187Z" fill="#FFFFFF" stroke="#000000" stroke-width="1" stroke-miterlimit="3.999327"/>
<path d="M119.844,60.945C119.02,63.328 118.179,65.619 117.324,67.818C116.469,70.018 115.751,71.682 115.171,72.813C114.621,73.973 114.132,74.768 113.704,75.195C113.277,75.623 112.834,75.913 112.375,76.066C111.948,76.219 111.505,76.28 111.047,76.249C110.619,76.219 110.176,76.188 109.718,76.158C107.152,75.76 106.358,73.912 107.335,70.613C107.977,67.986 108.496,65.848 108.893,64.198C109.29,62.518 109.611,61.144 109.855,60.074C110.13,58.975 110.359,58.074 110.543,57.371C110.726,56.638 110.924,55.92 111.138,55.217C111.352,54.515 111.612,53.721 111.917,52.835C112.253,51.949 112.681,50.773 113.2,49.306C112.039,49.459 111.001,49.337 110.084,48.94C108.74,48.359 108.19,47.107 108.435,45.183C108.557,44.297 109.031,43.472 109.855,42.708C110.283,42.311 110.787,41.883 111.367,41.425C112.559,40.478 114.926,39.47 118.47,38.401C122.135,37.301 125.282,36.782 127.909,36.843C128.611,36.721 129.329,36.813 130.062,37.118C130.826,37.393 131.437,37.775 131.895,38.264C132.353,38.752 132.582,39.287 132.582,39.867C132.613,40.448 132.246,40.967 131.483,41.425C131.116,41.67 130.857,42.082 130.704,42.662C130.551,43.212 130.383,43.808 130.2,44.449C130.016,45.06 129.742,45.625 129.375,46.145C129.039,46.664 128.489,46.97 127.725,47.061C127.328,47.275 126.763,47.428 126.03,47.519C125.328,47.611 124.854,47.687 124.61,47.749C124.396,47.779 124.274,47.855 124.243,47.978C123.693,49.597 123.036,51.567 122.273,53.889C121.509,56.18 120.7,58.532 119.844,60.945ZM113.658,48.802C113.597,48.802 113.567,48.818 113.567,48.848C113.567,48.848 113.597,48.848 113.658,48.848L113.658,48.802Z" fill="#FFFFFF" stroke="#000000" stroke-width="1" stroke-miterlimit="3.999327"/>
<path d="M83.936,42.342C85.86,40.142 87.998,38.768 90.351,38.218C91.97,37.821 93.497,37.882 94.933,38.401C96.063,37.21 97.529,36.782 99.331,37.118C100.981,37.423 102.386,38.355 103.547,39.913C103.608,40.127 103.73,40.448 103.913,40.875C104.127,41.303 104.326,41.776 104.509,42.296C105.853,45.412 105.96,49.505 104.83,54.576C103.425,60.868 100.935,66.199 97.361,70.567C96.261,71.911 95.024,73.026 93.65,73.912C91.45,75.592 88.823,76.341 85.768,76.157C83.875,76.066 82.286,75.592 81.003,74.737C75.902,72.201 74.237,66.917 76.009,58.883C77.475,52.285 80.117,46.771 83.936,42.342ZM84.485,66.672L84.44,66.947L84.531,67.451C84.715,68.398 85.02,69.131 85.448,69.651C85.875,70.14 86.227,70.445 86.502,70.567C86.807,70.323 87.113,70.094 87.418,69.88C87.723,69.666 87.998,69.406 88.243,69.101C90.32,66.535 91.939,63.175 93.1,59.02C94.261,54.866 94.688,51.017 94.383,47.474C93.191,49.001 91.939,50.757 90.625,52.743C89.312,54.729 88.273,56.424 87.51,57.829C85.768,61.098 84.76,64.045 84.485,66.672Z" fill="#FFFFFF" stroke="#000000" stroke-width="1" stroke-miterlimit="3.999327"/>
<path d="M58.647,62.686L56.448,68.276C56.143,69.131 55.868,70.017 55.623,70.934C55.379,71.85 55.119,72.644 54.844,73.316C54.569,74.019 54.142,74.569 53.561,74.966C53.011,75.363 52.385,75.653 51.683,75.837C50.98,76.05 50.247,76.142 49.483,76.111C48.75,76.081 48.093,75.943 47.513,75.699C46.199,75.088 45.741,74.08 46.138,72.675C47.543,66.504 48.857,61.556 50.079,57.829C51.331,54.102 52.355,51.17 53.149,49.031C53.974,46.893 54.829,44.633 55.715,42.25C55.806,41.364 56.173,40.57 56.815,39.867C57.456,39.165 58.204,38.584 59.06,38.126C59.946,37.668 60.862,37.347 61.809,37.164C62.756,36.95 63.596,36.919 64.329,37.072C65.062,37.225 65.597,37.561 65.933,38.08C66.3,38.599 66.33,39.348 66.025,40.325C64.925,43.136 64.146,45.121 63.688,46.282C63.23,47.443 62.817,48.481 62.451,49.398L61.168,52.422C61.809,52.453 62.619,52.361 63.596,52.147C65.368,51.75 66.651,51.613 67.445,51.735C67.445,51.582 67.521,51.322 67.674,50.956C68.529,47.229 69.492,43.808 70.561,40.692C71.325,38.126 73.295,36.782 76.472,36.66C77.724,36.66 78.671,36.965 79.313,37.576C80.015,38.218 80.107,39.088 79.588,40.188C76.777,48.069 74.792,54.285 73.631,58.837C72.317,64.091 71.447,67.635 71.019,69.467C70.622,71.3 70.271,72.385 69.965,72.721C69.66,73.057 69.339,73.286 69.003,73.408C68.697,73.561 68.392,73.698 68.087,73.82C67.781,73.943 67.537,74.248 67.353,74.737L67.216,74.737C66.972,75.287 66.437,75.714 65.612,76.02C64.787,76.325 63.947,76.432 63.092,76.341C62.267,76.279 61.565,75.974 60.984,75.424C60.434,74.905 60.297,74.095 60.572,72.996C60.877,71.254 61.381,69.391 62.084,67.405C62.787,65.389 63.336,63.816 63.734,62.686C64.161,61.556 64.513,60.502 64.787,59.524C64.543,59.646 64.299,59.738 64.054,59.799C63.84,59.86 63.566,59.982 63.23,60.166C62.893,60.319 62.542,60.456 62.176,60.578C61.84,60.7 61.504,60.823 61.168,60.945C60.312,61.281 59.61,61.617 59.06,61.953L58.647,62.686ZM63.825,59.616C63.856,59.616 64.008,59.57 64.283,59.478C64.1,59.54 63.947,59.585 63.825,59.616Z" fill="#FFFFFF" stroke="#000000" stroke-width="1" stroke-miterlimit="3.999327"/>
<path d="M168,4L151,18L161,3L168,4Z" fill="#055AFF"/>
<path d="M37,0L50,18L32,4L37,0Z" fill="#FF00E5"/>
<path d="M156.663,96.371L167.781,110.977L149.781,96.977L156.663,96.371Z" transform="rotate(324.948 158.781 103.674)" fill="#FFC000"/>
<path d="M142.143,94.291L155.143,112.291L140.357,99.879L142.143,94.291Z" transform="rotate(-355.365 147.75 103.291)" fill="#FF0001"/>
<path d="M165.496,9.163L156.02,25.789L161.964,9.89L165.496,9.163Z" transform="rotate(90.644 160.758 17.476)" fill="#FF0001"/>
<path d="M17.831,71.412L5.928,83.349L12.831,69.412L17.831,71.412Z" transform="rotate(-350.299 11.88 76.381)" fill="#055AFF"/>
<path d="M17.043,68.496L4.809,75.591L10.847,67.228L17.043,68.496Z" transform="rotate(249.701 10.926 71.409)" fill="#FF00E5"/>
<path d="M58.098,110.294L58.098,94.294L52.098,112.294L58.098,110.294Z" transform="rotate(60 55.098 103.294)" fill="#FF00E5"/>
<path d="M166.618,38.122L169.946,19.631L161.978,36.259L166.618,38.122Z" transform="rotate(-210 165.962 28.876)" fill="#FF00E5"/>
<path d="M172.599,31.418L170.179,12.919L168.925,29.297L172.599,31.418Z" transform="rotate(-210 170.762 22.168)" fill="#FFC000"/>
</svg>
