<svg width="128" height="84" viewBox="0 0 128 84" fill="none" xmlns="http://www.w3.org/2000/svg" xmlns:xlink="http://www.w3.org/1999/xlink">
<mask id="mask_0_i_1_2027;10154_1476;10154_1466;10154_1456" style="mask-type:alpha" maskUnits="userSpaceOnUse" x="50.666748" y="54.666626" width="6.666667" height="13.333334">
<path d="M64,69.333C64,78 61.015,81.333 57.333,81.333C53.652,81.333 50.667,78 50.667,69.333C50.667,60.667 52,54.667 57.333,54.667C62.667,54.667 64,60.667 64,69.333Z" fill="#FFFFFF"/>
</mask>
<mask id="mask_0_i_1_2027;10154_1476;10154_1467;10154_1456" style="mask-type:alpha" maskUnits="userSpaceOnUse" x="64" y="54.666626" width="6.666667" height="13.333334">
<path d="M77.333,69.333C77.333,78 74.349,81.333 70.667,81.333C66.985,81.333 64,78 64,69.333C64,60.667 65.333,54.667 70.667,54.667C76,54.667 77.333,60.667 77.333,69.333Z" fill="#FFFFFF"/>
</mask>
<path d="M65.898,28.498C65.123,27.192 63.234,27.192 62.459,28.498L49.266,50.725C48.814,51.487 47.915,51.86 47.056,51.643L22.159,45.344C20.695,44.973 19.364,46.298 19.728,47.765L25.981,72.96C26.192,73.81 25.825,74.699 25.076,75.153L24.336,75.6L104.021,75.6L103.281,75.153C102.532,74.699 102.164,73.81 102.376,72.96L108.629,47.765C108.993,46.298 107.662,44.973 106.198,45.344L81.301,51.643C80.442,51.86 79.543,51.487 79.091,50.725L65.898,28.498Z" clip-rule="evenodd" fill-rule="evenodd" fill="#FFC000"/>
<path d="M62.304,14.716C63.087,13.462 64.913,13.462 65.696,14.716L67.636,17.823C67.989,18.387 68.599,18.739 69.263,18.762L72.924,18.889C74.401,18.94 75.315,20.522 74.62,21.827L72.9,25.061C72.587,25.648 72.587,26.352 72.9,26.939L74.62,30.173C75.315,31.478 74.401,33.06 72.924,33.111L69.263,33.238C68.599,33.261 67.989,33.613 67.636,34.177L65.696,37.284C64.913,38.538 63.087,38.538 62.304,37.284L60.364,34.177C60.011,33.613 59.401,33.261 58.737,33.238L55.076,33.111C53.599,33.06 52.685,31.478 53.38,30.173L55.1,26.939C55.413,26.352 55.413,25.648 55.1,25.061L53.38,21.827C52.685,20.522 53.599,18.94 55.076,18.889L58.737,18.762C59.401,18.739 60.011,18.387 60.364,17.823L62.304,14.716Z" fill="#FFC000"/>
<path d="M62.954,17.858C63.413,17.043 64.587,17.043 65.046,17.858L66.502,20.445C66.716,20.826 67.122,21.061 67.56,21.056L70.528,21.023C71.464,21.013 72.051,22.03 71.574,22.835L70.062,25.389C69.839,25.766 69.839,26.234 70.062,26.611L71.574,29.165C72.051,29.97 71.464,30.987 70.528,30.977L67.56,30.944C67.122,30.939 66.716,31.174 66.502,31.555L65.046,34.142C64.587,34.957 63.413,34.957 62.954,34.142L61.498,31.555C61.284,31.174 60.878,30.939 60.44,30.944L57.472,30.977C56.536,30.987 55.949,29.97 56.426,29.165L57.938,26.611C58.161,26.234 58.161,25.766 57.938,25.389L56.426,22.835C55.949,22.03 56.536,21.013 57.472,21.023L60.44,21.056C60.878,21.061 61.284,20.826 61.498,20.445L62.954,17.858Z" fill="#00A3FF"/>
<path d="M64,69.333C64,78 61.015,81.333 57.333,81.333C53.652,81.333 50.667,78 50.667,69.333C50.667,60.667 52,54.667 57.333,54.667C62.667,54.667 64,60.667 64,69.333Z" fill="#FFFFFF"/>
<path d="M58,62.667C58,66.349 57.333,69.333 54.667,69.333C52,69.333 51.333,66.349 51.333,62.667C51.333,58.985 52,56 54.667,56C57.333,56 58,58.985 58,62.667Z" fill="#000000"/>
<path d="M60.919,77.873C61.936,76.258 62.667,73.547 62.667,69.333C62.667,65.019 62.328,61.567 61.423,59.231C60.979,58.082 60.429,57.288 59.794,56.782C59.179,56.292 58.398,56 57.333,56C56.269,56 55.488,56.292 54.873,56.782C54.238,57.288 53.688,58.082 53.244,59.231C52.339,61.567 52,65.019 52,69.333C52,73.547 52.731,76.258 53.748,77.873C54.718,79.414 55.965,80 57.333,80C58.702,80 59.949,79.414 60.919,77.873ZM57.333,81.333C61.015,81.333 64,78 64,69.333C64,60.667 62.667,54.667 57.333,54.667C52,54.667 50.667,60.667 50.667,69.333C50.667,78 53.652,81.333 57.333,81.333Z" clip-rule="evenodd" fill-rule="evenodd" fill="#000000"/>
<path d="M77.333,69.333C77.333,78 74.349,81.333 70.667,81.333C66.985,81.333 64,78 64,69.333C64,60.667 65.333,54.667 70.667,54.667C76,54.667 77.333,60.667 77.333,69.333Z" fill="#FFFFFF"/>
<path d="M71.333,62.667C71.333,66.349 70.667,69.333 68,69.333C65.333,69.333 64.667,66.349 64.667,62.667C64.667,58.985 65.333,56 68,56C70.667,56 71.333,58.985 71.333,62.667Z" fill="#000000"/>
<path d="M74.252,77.873C75.269,76.258 76,73.547 76,69.333C76,65.019 75.661,61.567 74.757,59.231C74.312,58.082 73.762,57.288 73.127,56.782C72.513,56.292 71.731,56 70.667,56C69.603,56 68.821,56.292 68.206,56.782C67.572,57.288 67.021,58.082 66.577,59.231C65.673,61.567 65.333,65.019 65.333,69.333C65.333,73.547 66.065,76.258 67.081,77.873C68.051,79.414 69.298,80 70.667,80C72.035,80 73.282,79.414 74.252,77.873ZM70.667,81.333C74.349,81.333 77.333,78 77.333,69.333C77.333,60.667 76,54.667 70.667,54.667C65.333,54.667 64,60.667 64,69.333C64,78 66.985,81.333 70.667,81.333Z" clip-rule="evenodd" fill-rule="evenodd" fill="#000000"/>
</svg>
