<svg width="64" height="48" viewBox="0 0 64 48" fill="none" xmlns="http://www.w3.org/2000/svg" xmlns:xlink="http://www.w3.org/1999/xlink">
<path d="M9.648,32.149C9.459,32.833 8.972,33.289 8.194,33.523C7.488,33.728 6.858,33.653 6.299,33.304C5.695,32.94 5.506,32.403 5.727,31.69C5.917,30.875 6.284,29.573 6.829,27.783C7.371,25.993 7.753,24.734 7.975,24.009C8.488,22.204 8.812,21.012 8.946,20.432C9.401,18.976 9.724,18.075 9.917,17.726C10.124,17.377 10.298,17.137 10.444,17.007C10.59,16.863 10.826,16.695 11.15,16.505C11.488,16.317 11.846,16.17 12.228,16.069C12.61,15.968 12.992,15.901 13.374,15.872C13.756,15.829 14.147,15.8 14.543,15.786C14.94,15.757 15.38,15.685 15.864,15.566C16.053,15.566 16.222,15.552 16.371,15.523C16.531,15.494 16.686,15.471 16.835,15.456C17.173,15.428 17.502,15.465 17.826,15.566C18.164,15.667 18.415,15.849 18.575,16.112C18.75,16.375 18.84,16.672 18.84,17.007C18.84,17.342 18.767,17.697 18.619,18.075C18.488,18.454 18.295,18.817 18.047,19.167C17.173,20.382 15.607,21.364 14.065,20.862C13.82,21.367 13.593,21.881 13.336,22.378C13.246,22.551 12.561,23.911 12.424,23.911C13.29,23.937 14.214,23.478 15.056,23.937C15.508,24.182 15.797,24.763 15.572,25.222C15.485,25.398 15.339,25.537 15.199,25.678C14.849,26.033 14.543,26.432 14.15,26.738C13.418,27.309 12.246,27.283 11.348,27.373C11.275,27.592 11.173,27.852 11.039,28.158C10.922,28.45 10.797,28.756 10.666,29.074C10.284,30.05 10.062,30.639 10.004,30.841C9.96,31.046 9.922,31.21 9.893,31.343C9.806,31.736 9.724,32.004 9.651,32.152L9.648,32.149ZM19.31,32.394C19.31,32.394 19.31,32.403 19.307,32.406C18.872,33.783 17.033,33.728 15.945,33.237C15.225,32.931 14.91,32.504 14.998,31.95C14.91,31.106 15.356,29.273 16.342,26.452C17.811,22.219 19.281,19.193 20.747,17.374C21.129,16.909 21.452,16.609 21.718,16.479C21.998,16.334 22.312,16.201 22.665,16.086C23.018,15.97 23.385,15.861 23.767,15.76C24.531,15.555 25.251,15.419 25.928,15.344C26.618,15.257 27.234,15.335 27.779,15.584C28.321,15.817 28.741,16.167 29.035,16.632C29.344,17.097 29.534,17.651 29.607,18.289C29.68,18.916 29.659,19.577 29.54,20.276C29.423,20.96 29.21,21.659 28.901,22.372C28.592,23.071 28.204,23.726 27.732,24.335C26.703,25.675 25.499,26.538 24.12,26.931L24.341,27.301C24.531,27.592 24.761,27.913 25.024,28.262C25.304,28.612 25.575,28.967 25.84,29.331C26.12,29.694 26.368,30.058 26.589,30.422C26.811,30.786 26.971,31.127 27.073,31.447C27.353,32.319 26.627,33.555 25.58,33.211C25.231,33.096 24.922,32.862 24.563,32.781C24.307,32.723 24.038,32.749 23.776,32.718C22.721,32.596 22.269,31.681 21.919,30.812C21.773,30.448 21.648,30.142 21.546,29.897C21.28,29.36 20.98,28.892 20.642,28.499C20.482,28.892 20.298,29.394 20.091,30.003C19.823,30.797 19.566,31.591 19.313,32.388L19.31,32.394ZM23.852,19.739C23.618,20.071 23.479,20.437 23.324,20.824C23.155,21.252 22.989,21.69 22.788,22.103C22.598,22.487 22.528,22.909 22.429,23.328C22.823,22.932 23.365,22.718 23.852,22.459C24.073,22.343 24.272,22.196 24.446,22.023C24.895,21.578 25.164,20.977 25.324,20.377C25.441,19.941 25.779,18.832 24.968,18.826C24.613,18.823 24.274,19.245 24.056,19.482C23.98,19.565 23.913,19.652 23.852,19.739ZM33.088,29.596C33.939,29.683 34.571,29.726 34.982,29.726C35.574,29.726 36.181,29.53 36.752,29.55C36.991,29.559 37.242,29.674 37.341,29.891C37.458,30.145 37.341,30.468 37.481,30.711C37.56,30.847 37.702,30.927 37.804,31.049C38.51,31.889 36.496,33.168 35.886,33.396C34.828,33.659 34,33.812 33.397,33.855C32.397,33.927 31.312,33.893 30.137,33.746C28.846,33.512 28.222,32.98 28.266,32.152C28.266,29.097 28.942,26.027 30.292,22.944C30.732,21.939 31.23,20.885 31.79,19.779C31.907,19.545 31.974,19.285 31.988,18.994C32.018,18.702 32.041,18.419 32.055,18.142C32.07,17.865 32.114,17.619 32.187,17.4C32.26,17.18 32.414,17.03 32.65,16.941C35.705,15.734 38.122,15.269 39.898,15.543C40.516,15.558 40.918,15.768 41.11,16.175C41.317,16.568 41.338,17.013 41.178,17.507C41.032,18 40.729,18.468 40.274,18.904C39.834,19.34 39.274,19.609 38.6,19.713C37.735,19.961 37.204,20.128 37.014,20.215C36.647,20.388 36.382,20.622 36.221,20.914C36.014,21.234 35.825,21.54 35.65,21.829C35.475,22.121 35.35,22.433 35.277,22.767L35.189,23.247C35.469,23.377 35.808,23.42 36.204,23.377C36.615,23.319 36.991,23.267 37.326,23.224C37.679,23.166 37.959,23.157 38.163,23.201C38.385,23.244 38.428,23.463 38.294,23.856C38.178,24.234 37.95,24.665 37.612,25.144C37.288,25.623 36.825,25.973 36.224,26.192C35.842,26.264 35.577,26.322 35.431,26.365C35.3,26.394 35.195,26.417 35.122,26.432C35.02,26.446 34.726,26.469 34.242,26.498C33.551,27.662 33.134,28.563 32.985,29.204C32.927,29.466 32.962,29.596 33.096,29.596L33.088,29.596ZM44.419,29.596C45.271,29.683 45.903,29.726 46.314,29.726C46.889,29.726 47.457,29.541 48.011,29.547C48.262,29.547 48.53,29.66 48.647,29.879C48.766,30.102 48.711,30.379 48.804,30.613C48.865,30.766 48.982,30.887 49.087,31.011C49.789,31.846 47.976,33.2 47.215,33.39C46.157,33.653 45.329,33.806 44.725,33.849C43.725,33.922 42.641,33.887 41.466,33.74C40.175,33.506 39.551,32.975 39.594,32.146C39.594,29.091 40.271,26.022 41.621,22.938C42.061,21.933 42.559,20.879 43.119,19.773C43.236,19.539 43.303,19.279 43.317,18.988C43.347,18.696 43.37,18.413 43.384,18.136C43.399,17.859 43.443,17.613 43.516,17.394C43.588,17.175 43.743,17.024 43.979,16.935C47.034,15.728 49.451,15.263 51.227,15.537C51.845,15.552 52.247,15.763 52.439,16.17C52.646,16.562 52.667,17.007 52.506,17.501C52.361,17.995 52.057,18.462 51.603,18.898C51.162,19.334 50.603,19.603 49.929,19.707C49.063,19.955 48.533,20.123 48.343,20.209C47.976,20.382 47.711,20.616 47.55,20.908C47.343,21.228 47.154,21.535 46.979,21.823C46.804,22.115 46.679,22.427 46.606,22.762L46.518,23.241C46.798,23.371 47.136,23.414 47.533,23.371C47.944,23.313 48.32,23.261 48.655,23.218C49.008,23.16 49.288,23.152 49.492,23.195C49.714,23.238 49.757,23.458 49.623,23.85C49.507,24.229 49.279,24.659 48.941,25.138C48.617,25.617 48.154,25.967 47.553,26.186C47.171,26.258 46.906,26.316 46.76,26.359C46.629,26.388 46.524,26.411 46.451,26.426C46.349,26.44 46.055,26.463 45.571,26.492C44.88,27.656 44.463,28.557 44.314,29.198C44.256,29.461 44.291,29.59 44.425,29.59L44.419,29.596ZM61.427,16.614C61.421,17.954 60.491,18.644 60.028,19.796C59.424,20.989 58.955,22.089 58.617,23.091C58.279,24.081 57.993,24.973 57.757,25.776C57.521,26.576 57.293,27.281 57.075,27.893C56.809,28.606 56.503,29.137 56.151,29.487C55.976,29.778 55.658,29.975 55.203,30.076C54.748,30.177 54.285,30.2 53.815,30.142C53.346,30.07 52.941,29.917 52.603,29.683C52.279,29.449 52.162,29.146 52.25,28.768C52.41,27.399 52.655,26.25 52.976,25.32C53.314,24.39 53.6,23.619 53.836,23.007C54.087,22.395 54.299,21.849 54.474,21.37C54.649,20.876 54.812,20.455 54.958,20.105C55.119,19.741 55.302,19.363 55.509,18.97C55.716,18.563 55.935,18.156 56.171,17.749C56.422,17.328 56.669,16.941 56.92,16.591C57.492,15.791 57.978,15.318 58.375,15.174C58.771,15.015 59.168,14.919 59.564,14.891C60.136,14.85 60.731,14.893 61.092,15.396C61.328,15.722 61.413,16.132 61.424,16.533C61.424,16.562 61.424,16.591 61.424,16.62L61.427,16.614ZM55.885,33.064C55.725,33.662 55.387,34.104 54.871,34.395C54.372,34.701 53.836,34.86 53.261,34.875C52.69,34.903 52.154,34.794 51.652,34.548C51.168,34.314 50.865,33.945 50.748,33.437C50.617,32.943 50.69,32.521 50.97,32.172C51.264,31.808 51.608,31.574 52.005,31.473C52.401,31.358 52.865,31.277 53.393,31.233C53.935,31.19 54.428,31.219 54.868,31.32C55.308,31.421 55.646,31.612 55.882,31.886C56.118,32.163 56.118,32.556 55.882,33.064L55.885,33.064Z" transform="rotate(-30 33.532 24.879)" fill="#000000" stroke="#000000" stroke-width="0.5" stroke-miterlimit="3.999327" stroke-linejoin="round"/>
<path d="M28.438,19.457C28.364,18.816 28.17,18.262 27.853,17.797C27.551,17.332 27.124,16.983 26.566,16.749C26.011,16.504 25.378,16.423 24.67,16.51C23.98,16.582 23.243,16.72 22.46,16.925C22.069,17.026 21.693,17.136 21.332,17.252C20.97,17.37 20.648,17.5 20.361,17.644C20.089,17.777 19.758,18.074 19.367,18.539C17.865,20.358 16.36,23.383 14.855,27.615C13.846,30.436 13.389,32.269 13.478,33.112C13.389,33.666 13.711,34.096 14.449,34.399C15.563,34.89 17.447,34.945 17.892,33.568C17.892,33.565 17.895,33.559 17.895,33.556C18.152,32.76 18.417,31.963 18.692,31.172C18.901,30.56 19.089,30.058 19.256,29.665C19.6,30.058 19.91,30.525 20.179,31.062C20.287,31.31 20.415,31.614 20.564,31.977C20.923,32.846 21.385,33.761 22.466,33.883C22.732,33.914 23.007,33.888 23.273,33.946C23.64,34.027 23.953,34.261 24.315,34.373C25.39,34.72 26.133,33.484 25.843,32.612C25.739,32.292 25.575,31.948 25.348,31.585C25.121,31.221 24.867,30.857 24.58,30.496C24.309,30.133 24.031,29.775 23.744,29.425C23.476,29.076 23.243,28.756 23.046,28.467L22.822,28.094C24.234,27.702 25.467,26.836 26.521,25.499C27.002,24.887 27.402,24.235 27.719,23.536C28.032,22.823 28.25,22.125 28.373,21.44C28.492,20.742 28.516,20.081 28.438,19.457ZM24.058,21.541C23.894,22.142 23.619,22.739 23.159,23.187C22.98,23.36 22.777,23.507 22.55,23.623C22.048,23.88 21.496,24.093 21.093,24.492C21.194,24.07 21.266,23.652 21.46,23.268C21.666,22.855 21.833,22.413 22.006,21.989C22.165,21.602 22.311,21.235 22.55,20.903C22.613,20.814 22.681,20.73 22.759,20.646C22.98,20.407 23.329,19.985 23.694,19.988C24.524,19.997 24.177,21.105 24.058,21.541Z" transform="rotate(-30 20.973 25.596)" fill="#FFC000" stroke="#000000" stroke-width="0.5" stroke-miterlimit="3.999327"/>
<path d="M34.251,19.682C34.43,19.39 34.627,19.084 34.836,18.767C35,18.475 35.272,18.244 35.648,18.068C35.842,17.981 36.386,17.814 37.273,17.566C37.965,17.465 38.536,17.196 38.987,16.757C39.452,16.321 39.76,15.857 39.912,15.36C40.076,14.866 40.056,14.422 39.843,14.029C39.646,13.622 39.234,13.411 38.601,13.397C36.78,13.12 34.307,13.588 31.178,14.794C30.936,14.881 30.778,15.034 30.703,15.253C30.629,15.473 30.584,15.718 30.569,15.995C30.554,16.272 30.53,16.555 30.5,16.847C30.485,17.138 30.417,17.398 30.297,17.632C29.727,18.738 29.213,19.791 28.762,20.796C27.377,23.879 26.687,26.948 26.687,30.002C26.642,30.831 27.281,31.362 28.604,31.596C29.808,31.74 30.921,31.777 31.943,31.705C32.561,31.662 33.409,31.509 34.493,31.246C35.117,31.018 37.18,29.739 36.457,28.899C36.356,28.781 36.207,28.697 36.126,28.562C35.983,28.319 36.102,27.996 35.983,27.742C35.881,27.525 35.624,27.41 35.379,27.401C34.791,27.381 34.17,27.577 33.567,27.577C33.146,27.577 32.498,27.534 31.626,27.447C31.492,27.447 31.453,27.317 31.513,27.055C31.662,26.414 32.092,25.513 32.8,24.35C33.295,24.321 33.597,24.298 33.701,24.283C33.776,24.269 33.88,24.246 34.018,24.217C34.167,24.174 34.439,24.116 34.83,24.044C35.448,23.824 35.92,23.478 36.251,22.996C36.598,22.517 36.831,22.086 36.95,21.708C37.084,21.316 37.04,21.096 36.816,21.053C36.604,21.01 36.32,21.015 35.959,21.076C35.612,21.119 35.23,21.171 34.809,21.229C34.403,21.272 34.057,21.229 33.77,21.099L33.86,20.62C33.934,20.285 34.063,19.973 34.242,19.682L34.251,19.682Z" transform="rotate(-30 33.353 22.53)" fill="#00A3FF" stroke="#000000" stroke-width="0.5" stroke-miterlimit="3.999327"/>
<path d="M59.334,8.61C59.322,8.208 59.236,7.798 58.994,7.472C58.621,6.973 58.011,6.927 57.429,6.967C57.023,6.996 56.617,7.091 56.211,7.25C55.805,7.394 55.309,7.868 54.721,8.667C54.464,9.017 54.21,9.401 53.953,9.825C53.712,10.232 53.488,10.639 53.276,11.046C53.064,11.439 52.879,11.817 52.711,12.181C52.562,12.53 52.395,12.951 52.216,13.445C52.036,13.924 51.818,14.47 51.562,15.082C51.32,15.694 51.027,16.465 50.681,17.394C50.349,18.324 50.102,19.473 49.937,20.841C49.848,21.219 49.967,21.525 50.299,21.756C50.645,21.99 51.057,22.14 51.541,22.215C52.022,22.273 52.496,22.253 52.962,22.149C53.428,22.048 53.753,21.852 53.933,21.56C54.294,21.211 54.61,20.68 54.879,19.966C55.106,19.354 55.339,18.65 55.578,17.85C55.82,17.051 56.112,16.156 56.459,15.166C56.805,14.161 57.286,13.064 57.904,11.872C58.382,10.72 59.334,10.027 59.337,8.69C59.337,8.662 59.337,8.633 59.337,8.604L59.334,8.61Z" transform="rotate(-30 54.623 14.601)" fill="#FF00E5" stroke="#000000" stroke-width="0.5" stroke-miterlimit="3.999327"/>
<path d="M55.463,23.955C55.012,23.854 54.508,23.825 53.952,23.868C53.412,23.912 52.937,23.992 52.531,24.108C52.125,24.209 51.772,24.443 51.471,24.806C51.184,25.156 51.11,25.577 51.244,26.071C51.363,26.579 51.674,26.951 52.17,27.182C52.68,27.431 53.23,27.537 53.818,27.509C54.403,27.494 54.952,27.335 55.466,27.029C55.992,26.738 56.338,26.296 56.505,25.699C56.747,25.19 56.747,24.798 56.505,24.521C56.263,24.244 55.92,24.056 55.466,23.955L55.463,23.955Z" transform="rotate(-30 53.933 25.681)" fill="#FF00E5" stroke="#000000" stroke-width="0.5" stroke-miterlimit="3.999327"/>
<path d="M45.465,16.678C45.644,16.386 45.841,16.08 46.05,15.763C46.215,15.471 46.486,15.24 46.863,15.064C47.06,14.977 47.6,14.81 48.487,14.562C49.18,14.461 49.75,14.192 50.201,13.753C50.667,13.317 50.974,12.853 51.127,12.356C51.291,11.862 51.27,11.418 51.058,11.025C50.861,10.618 50.449,10.408 49.816,10.393C47.994,10.116 45.522,10.584 42.392,11.79C42.151,11.877 41.992,12.03 41.918,12.249C41.843,12.469 41.798,12.714 41.783,12.991C41.768,13.268 41.745,13.551 41.715,13.843C41.7,14.134 41.631,14.394 41.512,14.628C40.941,15.734 40.428,16.787 39.977,17.792C38.591,20.875 37.902,23.944 37.902,26.998C37.857,27.827 38.496,28.358 39.819,28.592C41.022,28.736 42.136,28.774 43.157,28.701C43.775,28.658 44.623,28.505 45.707,28.242C46.486,28.055 48.347,26.698 47.624,25.864C47.516,25.737 47.394,25.615 47.334,25.465C47.239,25.231 47.295,24.954 47.173,24.732C47.051,24.513 46.779,24.403 46.522,24.4C45.952,24.394 45.373,24.579 44.784,24.579C44.363,24.579 43.715,24.536 42.843,24.449C42.709,24.449 42.67,24.319 42.73,24.056C42.879,23.416 43.309,22.515 44.017,21.352C44.513,21.323 44.814,21.3 44.919,21.285C44.993,21.271 45.098,21.248 45.235,21.219C45.384,21.175 45.656,21.118 46.047,21.046C46.665,20.826 47.137,20.48 47.469,19.998C47.815,19.518 48.048,19.088 48.167,18.71C48.302,18.317 48.257,18.098 48.033,18.055C47.821,18.011 47.537,18.017 47.176,18.078C46.83,18.121 46.447,18.173 46.026,18.231C45.62,18.274 45.274,18.231 44.987,18.101L45.077,17.622C45.152,17.287 45.28,16.975 45.459,16.684L45.465,16.678Z" transform="rotate(-30 44.567 19.526)" fill="#FFC000" stroke="#000000" stroke-width="0.5" stroke-miterlimit="3.999327"/>
<path d="M8.379,35.978C8.185,36.662 7.686,37.118 6.889,37.352C6.167,37.557 5.522,37.482 4.948,37.133C4.33,36.769 4.136,36.232 4.363,35.519C4.557,34.705 4.933,33.403 5.492,31.613C6.047,29.823 6.438,28.565 6.665,27.84C7.191,26.036 7.522,24.844 7.66,24.263C8.125,22.808 8.457,21.908 8.654,21.558C8.866,21.209 9.045,20.97 9.194,20.84C9.344,20.695 9.586,20.528 9.917,20.337C10.263,20.15 10.631,20.002 11.022,19.901C11.413,19.8 11.804,19.734 12.195,19.705C12.586,19.662 12.987,19.633 13.393,19.618C13.799,19.59 14.25,19.517 14.745,19.399C14.939,19.399 15.113,19.385 15.265,19.356C15.429,19.327 15.587,19.304 15.74,19.289C16.086,19.261 16.423,19.298 16.755,19.399C17.101,19.5 17.358,19.682 17.522,19.945C17.701,20.207 17.794,20.505 17.794,20.84C17.794,21.174 17.719,21.53 17.567,21.908C17.433,22.286 17.236,22.65 16.982,22.999C16.086,24.214 14.483,25.196 12.903,24.694C12.652,25.199 12.419,25.713 12.157,26.209C12.064,26.382 11.362,27.742 11.222,27.742C12.109,27.768 13.055,27.309 13.918,27.768C14.381,28.013 14.677,28.594 14.447,29.053C14.357,29.229 14.208,29.367 14.065,29.509C13.706,29.864 13.393,30.262 12.99,30.568C12.24,31.14 11.04,31.114 10.12,31.203C10.045,31.423 9.941,31.683 9.804,31.989C9.684,32.28 9.556,32.586 9.421,32.904C9.03,33.879 8.803,34.468 8.744,34.67C8.699,34.875 8.66,35.04 8.63,35.173C8.54,35.565 8.457,35.834 8.382,35.981L8.379,35.978Z" transform="rotate(-30 11.033 28.373)" fill="#00A3FF" stroke="#000000" stroke-width="0.5" stroke-miterlimit="3.999327"/>
</svg>
