<svg width="72" height="72" viewBox="0 0 72 72" fill="none" xmlns="http://www.w3.org/2000/svg" xmlns:xlink="http://www.w3.org/1999/xlink">
<path d="M4.385,30C3.62,30 3,30.62 3,31.385L3,38C3,53.464 15.536,66 31,66C42.941,66 53.136,58.525 57.161,48L62,48C66.971,48 71,43.971 71,39C71,34.029 66.971,30 62,30L59,30L47,30L4.385,30ZM65,39C65,41.209 63.209,43 61,43C58.791,43 57,41.209 57,39C57,36.791 58.791,35 61,35C63.209,35 65,36.791 65,39ZM22.179,38.521C21.547,37.826 20.453,37.826 19.821,38.521L19.007,39.415C18.687,39.766 18.227,39.956 17.753,39.934L16.546,39.878C15.607,39.834 14.834,40.607 14.878,41.546L14.934,42.753C14.956,43.227 14.766,43.687 14.415,44.007L13.521,44.821C12.826,45.453 12.826,46.547 13.521,47.179L14.415,47.993C14.766,48.313 14.956,48.773 14.934,49.247L14.878,50.454C14.834,51.393 15.607,52.166 16.546,52.122L17.753,52.066C18.227,52.044 18.687,52.234 19.007,52.585L19.821,53.479C20.453,54.174 21.547,54.174 22.179,53.479L22.993,52.585C23.313,52.234 23.773,52.044 24.247,52.066L25.454,52.122C26.393,52.166 27.166,51.393 27.122,50.454L27.066,49.247C27.044,48.773 27.234,48.313 27.585,47.993L28.479,47.179C29.174,46.547 29.174,45.453 28.479,44.821L27.585,44.007C27.234,43.687 27.044,43.227 27.066,42.753L27.122,41.546C27.166,40.607 26.393,39.834 25.454,39.878L24.247,39.934C23.773,39.956 23.313,39.766 22.993,39.415L22.179,38.521Z" clip-rule="evenodd" fill-rule="evenodd" fill="#FFFFFF"/>
<path d="M5.697,69.589C4.177,68.428 4.998,66 6.911,66L55.089,66C57.002,66 57.823,68.428 56.303,69.589L53.686,71.589C53.337,71.856 52.91,72 52.471,72L9.529,72C9.09,72 8.663,71.856 8.314,71.589L5.697,69.589Z" fill="#FFFFFF"/>
<path d="M12.591,15.193C12.145,14.867 11.52,14.964 11.193,15.409C10.867,15.855 10.963,16.48 11.409,16.807L12.591,15.193ZM27.409,16.807C27.854,17.133 28.48,17.036 28.807,16.591C29.133,16.145 29.036,15.52 28.591,15.193L27.409,16.807ZM22,14L22.263,14.965L22,14ZM18,18L17.737,17.035L18,18ZM22.263,14.965C22.639,14.862 23.13,14.876 23.716,15.012C24.294,15.147 24.897,15.385 25.458,15.657C26.016,15.926 26.508,16.217 26.863,16.441C27.039,16.553 27.179,16.647 27.273,16.711C27.321,16.744 27.356,16.769 27.379,16.785C27.391,16.794 27.399,16.8 27.404,16.803C27.407,16.805 27.408,16.806 27.409,16.807C27.409,16.807 27.41,16.807 27.41,16.807C27.41,16.807 27.41,16.807 27.409,16.807C27.409,16.807 27.409,16.807 27.409,16.807C27.409,16.807 27.409,16.807 28,16C28.591,15.193 28.591,15.193 28.591,15.193C28.59,15.193 28.59,15.193 28.59,15.193C28.59,15.192 28.589,15.192 28.589,15.192C28.588,15.191 28.587,15.19 28.586,15.189C28.583,15.187 28.579,15.185 28.575,15.182C28.566,15.175 28.554,15.166 28.538,15.155C28.507,15.133 28.463,15.102 28.406,15.063C28.294,14.986 28.133,14.878 27.932,14.751C27.534,14.499 26.973,14.168 26.329,13.856C25.688,13.546 24.94,13.244 24.17,13.064C23.407,12.887 22.552,12.813 21.737,13.035L22.263,14.965ZM12,16C11.409,16.807 11.409,16.807 11.409,16.807C11.409,16.807 11.41,16.807 11.41,16.807C11.41,16.808 11.411,16.808 11.411,16.808C11.412,16.809 11.413,16.81 11.414,16.811C11.417,16.813 11.421,16.815 11.425,16.818C11.434,16.825 11.446,16.834 11.462,16.845C11.493,16.867 11.537,16.898 11.594,16.937C11.706,17.014 11.867,17.122 12.067,17.249C12.466,17.501 13.027,17.832 13.671,18.144C14.312,18.454 15.06,18.756 15.83,18.936C16.592,19.113 17.447,19.187 18.263,18.965L17.737,17.035C17.361,17.138 16.87,17.124 16.284,16.988C15.706,16.853 15.103,16.615 14.542,16.343C13.984,16.074 13.491,15.783 13.137,15.559C12.961,15.447 12.821,15.353 12.726,15.289C12.679,15.256 12.644,15.231 12.621,15.215C12.609,15.206 12.601,15.2 12.596,15.197C12.593,15.195 12.592,15.194 12.591,15.193C12.59,15.193 12.59,15.193 12.59,15.193C12.59,15.193 12.59,15.193 12.59,15.193C12.59,15.193 12.591,15.193 12.591,15.193C12.591,15.193 12.591,15.193 12,16ZM18.263,18.965C19.796,18.547 20.44,17.279 20.877,16.48C21.375,15.57 21.664,15.128 22.263,14.965L21.737,13.035C20.204,13.453 19.56,14.721 19.122,15.52C18.625,16.43 18.336,16.872 17.737,17.035L18.263,18.965Z" transform="rotate(180 20 16)" fill="#FFFFFF"/>
<path d="M21.452,12.108C20.959,11.858 20.358,12.055 20.108,12.548C19.858,13.041 20.055,13.642 20.548,13.892L21.452,12.108ZM42.548,13.892C43.041,14.142 43.642,13.945 43.892,13.452C44.142,12.959 43.945,12.358 43.452,12.108L42.548,13.892ZM34.75,11.098L34.935,12.08L34.75,11.098ZM29.25,14.902L29.065,13.92L29.25,14.902ZM34.935,12.08C36.304,11.822 38.155,12.22 39.786,12.765C40.578,13.03 41.273,13.314 41.77,13.532C42.019,13.641 42.216,13.732 42.35,13.796C42.417,13.828 42.469,13.853 42.502,13.869C42.519,13.877 42.531,13.884 42.539,13.887C42.543,13.889 42.545,13.891 42.547,13.891C42.548,13.892 42.548,13.892 42.548,13.892C42.548,13.892 42.548,13.892 42.548,13.892C42.548,13.892 42.548,13.892 42.548,13.892C42.548,13.892 42.548,13.892 43,13C43.452,12.108 43.452,12.108 43.452,12.108C43.452,12.108 43.451,12.108 43.451,12.108C43.451,12.107 43.45,12.107 43.45,12.107C43.449,12.106 43.448,12.106 43.446,12.105C43.443,12.103 43.438,12.101 43.432,12.098C43.421,12.093 43.405,12.085 43.385,12.075C43.344,12.054 43.285,12.026 43.209,11.99C43.059,11.918 42.842,11.818 42.573,11.7C42.035,11.464 41.283,11.157 40.421,10.869C38.747,10.309 36.473,9.755 34.565,10.115L34.935,12.08ZM21,13C20.548,13.892 20.548,13.892 20.548,13.892C20.548,13.892 20.549,13.892 20.549,13.892C20.549,13.893 20.55,13.893 20.55,13.893C20.551,13.894 20.552,13.894 20.554,13.895C20.557,13.897 20.562,13.899 20.568,13.902C20.579,13.907 20.595,13.915 20.615,13.925C20.656,13.946 20.715,13.974 20.791,14.01C20.941,14.082 21.158,14.182 21.427,14.3C21.965,14.536 22.717,14.843 23.579,15.131C25.253,15.691 27.527,16.245 29.435,15.885L29.065,13.92C27.696,14.178 25.845,13.78 24.214,13.235C23.422,12.97 22.727,12.686 22.23,12.468C21.981,12.359 21.784,12.268 21.65,12.204C21.583,12.172 21.531,12.147 21.498,12.131C21.481,12.123 21.469,12.116 21.461,12.113C21.457,12.111 21.455,12.109 21.453,12.109C21.452,12.108 21.452,12.108 21.452,12.108C21.452,12.108 21.452,12.108 21.452,12.108C21.452,12.108 21.452,12.108 21.452,12.108C21.452,12.108 21.452,12.108 21,13ZM29.435,15.885C31.288,15.536 32.128,14.451 32.785,13.62C33.413,12.825 33.857,12.284 34.935,12.08L34.565,10.115C32.712,10.464 31.872,11.549 31.215,12.38C30.587,13.175 30.143,13.716 29.065,13.92L29.435,15.885Z" transform="rotate(180 32 13)" fill="#FFFFFF"/>
<path d="M47.46,22.858C47.906,23.184 48.532,23.088 48.858,22.642C49.184,22.197 49.088,21.571 48.642,21.245L47.46,22.858ZM41.788,19.087C41.255,19.232 40.941,19.782 41.086,20.314C41.232,20.847 41.782,21.161 42.314,21.016L41.788,19.087ZM42.314,21.016C42.69,20.914 43.181,20.927 43.767,21.064C44.345,21.198 44.948,21.437 45.51,21.708C46.067,21.978 46.56,22.268 46.914,22.492C47.09,22.604 47.23,22.698 47.325,22.763C47.372,22.795 47.408,22.82 47.431,22.837C47.442,22.845 47.45,22.851 47.455,22.854C47.458,22.856 47.46,22.857 47.46,22.858C47.461,22.858 47.461,22.859 47.461,22.859C47.461,22.858 47.461,22.858 47.461,22.858C47.461,22.858 47.461,22.858 47.461,22.858C47.46,22.858 47.46,22.858 48.051,22.051C48.642,21.245 48.642,21.244 48.642,21.244C48.642,21.244 48.642,21.244 48.641,21.244C48.641,21.244 48.641,21.243 48.64,21.243C48.639,21.242 48.638,21.242 48.637,21.241C48.634,21.239 48.631,21.236 48.626,21.233C48.617,21.227 48.605,21.218 48.589,21.207C48.558,21.185 48.514,21.153 48.458,21.115C48.345,21.037 48.184,20.929 47.984,20.803C47.585,20.55 47.025,20.219 46.38,19.907C45.739,19.597 44.991,19.295 44.221,19.116C43.459,18.938 42.604,18.864 41.788,19.087L42.314,21.016Z" transform="rotate(180 45.051 21)" fill="#FFFFFF"/>
<path d="M44.41,0.261C44.727,-0.087 45.273,-0.087 45.59,0.261L45.997,0.707C46.156,0.883 46.386,0.978 46.624,0.967L47.227,0.939C47.697,0.917 48.083,1.303 48.061,1.773L48.033,2.376C48.022,2.614 48.117,2.843 48.293,3.003L48.739,3.41C49.087,3.727 49.087,4.273 48.739,4.59L48.293,4.997C48.117,5.156 48.022,5.386 48.033,5.624L48.061,6.227C48.083,6.697 47.697,7.083 47.227,7.061L46.624,7.033C46.386,7.022 46.156,7.117 45.997,7.293L45.59,7.739C45.273,8.087 44.727,8.087 44.41,7.739L44.003,7.293C43.843,7.117 43.614,7.022 43.376,7.033L42.773,7.061C42.303,7.083 41.917,6.697 41.939,6.227L41.967,5.624C41.978,5.386 41.883,5.156 41.707,4.997L41.261,4.59C40.913,4.273 40.913,3.727 41.261,3.41L41.707,3.003C41.883,2.843 41.978,2.614 41.967,2.376L41.939,1.773C41.917,1.303 42.303,0.917 42.773,0.939L43.376,0.967C43.614,0.978 43.843,0.883 44.003,0.707L44.41,0.261Z" fill="#FFFFFF"/>
</svg>
