<svg width="32" height="40" viewBox="0 0 32 40" fill="none" xmlns="http://www.w3.org/2000/svg" xmlns:xlink="http://www.w3.org/1999/xlink">
<path d="M8.568,9.827C3.474,12.504 0,17.846 0,24C0,32.837 7.163,40 16,40C24.837,40 32,32.837 32,24C32,19.866 30.432,16.099 27.859,13.259C27.292,15.759 25.15,17.425 24,18C24,6.8 16,1.333 12,0C11.855,0.578 11.774,1.282 11.683,2.059C11.406,4.439 11.048,7.514 8.568,9.827Z" fill="#FF0001" stroke="#FFFFFF" stroke-width="1" stroke-miterlimit="3.999327"/>
<path d="M8.568,9.827C3.474,12.504 0,17.846 0,24C0,32.837 7.163,40 16,40C24.837,40 32,32.837 32,24C32,19.866 30.432,16.099 27.859,13.259C27.292,15.759 25.15,17.425 24,18C24,6.8 16,1.333 12,0C11.855,0.578 11.774,1.282 11.683,2.059C11.406,4.439 11.048,7.514 8.568,9.827Z" fill="#FF0001" stroke="#000000" stroke-width="1" stroke-miterlimit="3.999327"/>
<path d="M11.355,19.896C8.171,21.502 6,24.708 6,28.4C6,33.702 10.477,38 16,38C21.523,38 26,33.702 26,28.4C26,25.92 25.02,23.659 23.412,21.955C23.057,23.456 21.719,24.455 21,24.8C21,18.08 16,14.8 13.5,14C13.41,14.347 13.358,14.769 13.302,15.236C13.129,16.663 12.905,18.508 11.355,19.896Z" fill="#FFC000"/>
<path d="M16.339,25.171C16.339,20.551 18.649,19.396 19.804,19.396C22.114,19.396 22.691,21.706 22.691,25.171C22.691,28.636 22.114,32.679 19.804,32.679C17.494,32.679 16.339,30.946 16.339,25.171Z" fill="#FFFFFF" stroke="#000000" stroke-width="0.75" stroke-miterlimit="3.999327" stroke-linecap="round" stroke-linejoin="round"/>
<path d="M16.339,25.873C16.339,23.463 17.599,22.86 18.229,22.86C19.489,22.86 19.804,24.065 19.804,25.873C19.804,27.681 19.489,29.79 18.229,29.79C16.969,29.79 16.339,28.886 16.339,25.873Z" transform="rotate(-360 18.071 26.325)" fill="#000000"/>
<path d="M9.409,25.171C9.409,20.551 11.719,19.396 12.874,19.396C15.184,19.396 15.761,21.706 15.761,25.171C15.761,28.636 15.184,32.679 12.874,32.679C10.564,32.679 9.409,30.946 9.409,25.171Z" fill="#FFFFFF" stroke="#000000" stroke-width="0.75" stroke-miterlimit="3.999327" stroke-linecap="round" stroke-linejoin="round"/>
<path d="M9.409,25.873C9.409,23.463 10.669,22.86 11.299,22.86C12.559,22.86 12.874,24.065 12.874,25.873C12.874,27.681 12.559,29.79 11.299,29.79C10.039,29.79 9.409,28.886 9.409,25.873Z" transform="rotate(-360 11.142 26.325)" fill="#000000"/>
</svg>
