<svg width="238" height="134" viewBox="0 0 238 134" fill="none" xmlns="http://www.w3.org/2000/svg" xmlns:xlink="http://www.w3.org/1999/xlink">
<mask id="mask_0_i_1_2025;10290_1560;349_11904" style="mask-type:alpha" maskUnits="userSpaceOnUse" x="68.403202" y="69.43457" width="11.064536" height="13.234872">
<path d="M85.397,83.855C85.397,91.564 82.742,94.528 79.468,94.528C76.193,94.528 73.538,91.564 73.538,83.855C73.538,76.147 74.724,70.811 79.468,70.811C84.211,70.811 85.397,76.147 85.397,83.855Z" transform="rotate(300 79.468 82.669)" fill="#FFFFFF"/>
</mask>
<mask id="mask_0_i_1_2025;10290_1561;349_11904" style="mask-type:alpha" maskUnits="userSpaceOnUse" x="58.133914" y="75.364258" width="11.064536" height="13.234872">
<path d="M75.128,89.785C75.128,97.493 72.473,100.458 69.198,100.458C65.924,100.458 63.269,97.493 63.269,89.785C63.269,82.077 64.455,76.74 69.198,76.74C73.942,76.74 75.128,82.077 75.128,89.785Z" transform="rotate(300 69.198 88.599)" fill="#FFFFFF"/>
</mask>
<path d="M65.839,61.828C68.278,59.15 72.491,59.15 74.93,61.828L78.067,65.272C79.299,66.625 81.071,67.359 82.9,67.274L87.552,67.056C91.17,66.887 94.15,69.867 93.981,73.485L93.764,78.138C93.678,79.967 94.412,81.738 95.765,82.971L99.209,86.107C101.887,88.546 101.887,92.76 99.209,95.199L95.765,98.335C94.412,99.567 93.678,101.339 93.764,103.168L93.981,107.821C94.15,111.439 91.17,114.418 87.552,114.249L82.9,114.032C81.071,113.946 79.299,114.68 78.067,116.034L74.93,119.477C72.491,122.156 68.278,122.156 65.839,119.477L62.702,116.034C61.47,114.68 59.698,113.946 57.87,114.032L53.217,114.249C49.599,114.418 46.619,111.439 46.788,107.821L47.006,103.168C47.091,101.339 46.357,99.567 45.004,98.335L41.56,95.199C38.882,92.76 38.882,88.546 41.56,86.107L45.004,82.971C46.357,81.738 47.091,79.967 47.006,78.138L46.788,73.485C46.619,69.867 49.599,66.887 53.217,67.056L57.87,67.274C59.698,67.359 61.47,66.625 62.702,65.272L65.839,61.828Z" transform="rotate(300 70.385 90.653)" stroke="#FFFFFF" stroke-width="1.142" stroke-miterlimit="3.999327"/>
<path d="M153.882,41.967C153.882,33.926 160.401,27.407 168.442,27.407C176.483,27.407 183.002,33.926 183.002,41.967L183.002,52.99C183.268,52.684 183.509,52.372 183.729,52.06C185.892,48.995 186.573,45.009 186.441,42.454C186.172,37.258 190.166,32.828 195.363,32.559C200.559,32.29 204.989,36.285 205.258,41.481C205.554,47.203 204.266,55.636 199.126,62.922C195.467,68.109 190.132,72.301 183.002,74.515L183.002,110.2C183.002,113.669 180.19,116.481 176.721,116.481L160.163,116.481C156.694,116.481 153.882,113.669 153.882,110.2L153.882,94.205C146.765,91.99 141.44,87.801 137.786,82.621C132.645,75.335 131.358,66.902 131.654,61.18C131.922,55.984 136.353,51.989 141.549,52.258C146.745,52.527 150.74,56.957 150.471,62.153C150.339,64.708 151.02,68.694 153.182,71.759C153.395,72.06 153.627,72.361 153.882,72.657L153.882,41.967ZM168.442,30.833C162.293,30.833 157.308,35.818 157.308,41.967L157.308,76.337C157.308,76.958 156.972,77.53 156.431,77.833C155.889,78.135 155.226,78.122 154.698,77.797C152.765,76.609 151.391,75.163 150.383,73.734C147.68,69.904 146.888,65.11 147.05,61.976C147.221,58.67 144.679,55.85 141.372,55.679C138.065,55.508 135.246,58.05 135.075,61.357C134.809,66.505 135.987,74.129 140.585,80.646C144.006,85.496 149.081,89.383 156.042,91.266C156.789,91.468 157.308,92.146 157.308,92.919L157.308,110.2C157.308,111.777 158.586,113.055 160.163,113.055L176.721,113.055C178.298,113.055 179.576,111.777 179.576,110.2L179.576,73.228C179.576,72.454 180.096,71.776 180.843,71.574C187.818,69.694 192.901,65.803 196.326,60.947C200.925,54.43 202.103,46.806 201.837,41.658C201.666,38.351 198.846,35.809 195.54,35.98C192.233,36.151 189.691,38.97 189.862,42.277C190.024,45.411 189.231,50.205 186.529,54.035C185.515,55.472 184.132,56.925 182.183,58.117C181.654,58.44 180.992,58.453 180.451,58.15C179.911,57.847 179.576,57.275 179.576,56.655L179.576,41.967C179.576,35.818 174.591,30.833 168.442,30.833Z" clip-rule="evenodd" fill-rule="evenodd" fill="#000000" stroke="#FFFFFF" stroke-width="1.142" stroke-miterlimit="3.999327" stroke-linejoin="round"/>
<path d="M123.048,3.426C114.534,3.426 107.632,10.328 107.632,18.843L107.632,62.994C107.632,63.665 107.24,64.275 106.629,64.553C106.018,64.831 105.301,64.727 104.794,64.286C103.54,63.195 102.537,62.027 101.72,60.869C98.207,55.889 97.168,49.632 97.379,45.551C97.624,40.827 93.992,36.799 89.269,36.555C84.545,36.31 80.517,39.942 80.273,44.666C79.913,51.625 81.502,61.926 87.723,70.744C91.994,76.797 98.163,81.736 106.455,84.468C107.157,84.699 107.632,85.355 107.632,86.095L107.632,111.342C107.632,112.919 108.91,114.197 110.487,114.197L135.61,114.197C137.187,114.197 138.465,112.919 138.465,111.342L138.465,59.841C138.465,59.101 138.94,58.445 139.643,58.214C147.953,55.485 154.134,50.54 158.41,44.478C164.631,35.661 166.221,25.36 165.861,18.4C165.616,13.676 161.589,10.045 156.865,10.289C152.141,10.534 148.51,14.561 148.754,19.285C148.965,23.367 147.927,29.624 144.414,34.604C143.588,35.774 142.571,36.955 141.298,38.056C140.791,38.495 140.075,38.597 139.466,38.319C138.856,38.04 138.465,37.431 138.465,36.761L138.465,18.843C138.465,10.328 131.563,3.426 123.048,3.426ZM104.206,18.843C104.206,8.436 112.642,0 123.048,0C133.455,0 141.891,8.436 141.891,18.843L141.891,32.224C144.645,28.071 145.508,22.854 145.333,19.462C144.991,12.849 150.075,7.21 156.688,6.868C163.301,6.526 168.94,11.61 169.282,18.223C169.672,25.757 167.973,36.867 161.21,46.453C156.731,52.801 150.34,58.023 141.891,61.063L141.891,111.342C141.891,114.811 139.079,117.623 135.61,117.623L110.487,117.623C107.018,117.623 104.206,114.811 104.206,111.342L104.206,87.315C95.775,84.273 89.396,79.057 84.924,72.719C78.16,63.132 76.462,52.022 76.851,44.489C77.193,37.875 82.832,32.791 89.445,33.133C96.059,33.476 101.143,39.114 100.801,45.728C100.626,49.104 101.481,54.29 104.206,58.434L104.206,18.843Z" clip-rule="evenodd" fill-rule="evenodd" stroke="#FFFFFF" stroke-width="1.142" stroke-miterlimit="3.999327" stroke-linejoin="round"/>
<path d="M195.452,34.27C199.703,34.05 203.328,37.318 203.548,41.569C203.829,47.004 202.596,55.033 197.727,61.935C192.553,69.268 183.827,74.514 171.012,74.514L171.012,59.097C179.096,59.097 183.002,56.064 185.13,53.048C187.562,49.6 188.299,45.21 188.152,42.366C187.932,38.114 191.2,34.49 195.452,34.27Z" clip-rule="evenodd" fill-rule="evenodd" fill="#FFC000"/>
<path d="M157.767,53.969C162.019,53.749 165.643,57.017 165.863,61.268C166.144,66.703 164.911,74.732 160.042,81.634C154.869,88.967 146.142,94.213 133.327,94.213L133.327,78.796C141.411,78.796 145.317,75.763 147.445,72.747C149.877,69.299 150.614,64.909 150.467,62.065C150.247,57.813 153.516,54.189 157.767,53.969Z" clip-rule="evenodd" fill-rule="evenodd" transform="rotate(360 149.614 74.085)" fill="#FFC000"/>
<path d="M156.167,41.967C156.167,34.872 161.918,29.12 169.014,29.12L169.014,29.12C176.109,29.12 181.861,34.872 181.861,41.967L181.861,110.2C181.861,112.723 179.816,114.768 177.293,114.768L160.734,114.768C158.212,114.768 156.167,112.723 156.167,110.2L156.167,41.967Z" fill="#FFC000"/>
<line x1="162.447" y1="54.244" x2="162.447" y2="113.912" stroke="#BD8E00" stroke-width="1.713" stroke-miterlimit="3.999327" stroke-linecap="round"/>
<line x1="171.012" y1="54.244" x2="171.012" y2="113.912" stroke="#BD8E00" stroke-width="1.713" stroke-miterlimit="3.999327" stroke-linecap="round"/>
<path d="M181.289,56.655L179.576,56.655C179.576,57.275 179.911,57.846 180.451,58.149C180.992,58.452 181.654,58.44 182.182,58.117L181.289,56.655ZM185.129,53.047L183.729,52.06L183.729,52.06L185.129,53.047ZM188.151,42.366L189.862,42.277L189.862,42.277L188.151,42.366ZM195.451,34.269L195.362,32.559L195.362,32.559L195.451,34.269ZM203.547,41.569L201.836,41.658L201.836,41.658L203.547,41.569ZM197.726,61.935L199.126,62.922L199.126,62.922L197.726,61.935ZM181.289,73.228L180.843,71.574C180.096,71.775 179.576,72.453 179.576,73.228L181.289,73.228ZM155.595,92.919L157.308,92.919C157.308,92.145 156.789,91.468 156.042,91.266L155.595,92.919ZM139.185,81.634L137.786,82.621L137.786,82.621L139.185,81.634ZM133.364,61.268L135.075,61.357L135.075,61.357L133.364,61.268ZM141.46,53.968L141.549,52.258L141.549,52.258L141.46,53.968ZM148.76,62.065L150.471,62.153L150.471,62.153L148.76,62.065ZM151.782,72.746L150.383,73.734L150.383,73.734L151.782,72.746ZM155.595,76.337L154.698,77.797C155.226,78.122 155.889,78.135 156.431,77.832C156.972,77.53 157.308,76.958 157.308,76.337L155.595,76.337ZM168.442,27.407C160.4,27.407 153.882,33.926 153.882,41.967L157.308,41.967C157.308,35.818 162.293,30.833 168.442,30.833L168.442,27.407ZM183.002,41.967C183.002,33.926 176.483,27.407 168.442,27.407L168.442,30.833C174.591,30.833 179.576,35.818 179.576,41.967L183.002,41.967ZM183.002,56.655L183.002,41.967L179.576,41.967L179.576,56.655L183.002,56.655ZM183.729,52.06C182.942,53.176 181.886,54.282 180.396,55.194L182.182,58.117C184.132,56.925 185.515,55.471 186.529,54.035L183.729,52.06ZM186.44,42.454C186.573,45.009 185.892,48.995 183.729,52.06L186.529,54.035C189.231,50.205 190.024,45.411 189.862,42.277L186.44,42.454ZM195.362,32.559C190.166,32.827 186.172,37.258 186.44,42.454L189.862,42.277C189.691,38.97 192.233,36.151 195.539,35.98L195.362,32.559ZM205.258,41.481C204.989,36.284 200.559,32.29 195.362,32.559L195.539,35.98C198.846,35.809 201.665,38.351 201.836,41.658L205.258,41.481ZM199.126,62.922C204.266,55.636 205.554,47.203 205.258,41.481L201.836,41.658C202.103,46.806 200.924,54.43 196.326,60.947L199.126,62.922ZM181.735,74.882C189.504,72.787 195.253,68.411 199.126,62.922L196.326,60.947C192.901,65.802 187.818,69.694 180.843,71.574L181.735,74.882ZM183.002,110.2L183.002,73.228L179.576,73.228L179.576,110.2L183.002,110.2ZM160.163,116.481L176.721,116.481L176.721,113.055L160.163,113.055L160.163,116.481ZM153.882,92.919L153.882,110.2L157.308,110.2L157.308,92.919L153.882,92.919ZM137.786,82.621C141.653,88.103 147.393,92.475 155.147,94.573L156.042,91.266C149.081,89.383 144.006,85.495 140.585,80.646L137.786,82.621ZM131.654,61.18C131.358,66.902 132.645,75.335 137.786,82.621L140.585,80.646C135.987,74.129 134.809,66.505 135.075,61.357L131.654,61.18ZM141.549,52.258C136.353,51.989 131.922,55.983 131.654,61.18L135.075,61.357C135.246,58.05 138.065,55.508 141.372,55.679L141.549,52.258ZM150.471,62.153C150.74,56.957 146.745,52.526 141.549,52.258L141.372,55.679C144.679,55.85 147.221,58.669 147.05,61.976L150.471,62.153ZM153.182,71.759C151.02,68.694 150.339,64.708 150.471,62.153L147.05,61.976C146.888,65.11 147.68,69.904 150.383,73.734L153.182,71.759ZM156.492,74.878C155.014,73.969 153.966,72.87 153.182,71.759L150.383,73.734C151.391,75.163 152.765,76.609 154.698,77.797L156.492,74.878ZM153.882,41.967L153.882,76.337L157.308,76.337L157.308,41.967L153.882,41.967ZM160.163,113.055C158.586,113.055 157.308,111.777 157.308,110.2L153.882,110.2C153.882,113.669 156.694,116.481 160.163,116.481L160.163,113.055ZM179.576,110.2C179.576,111.777 178.298,113.055 176.721,113.055L176.721,116.481C180.19,116.481 183.002,113.669 183.002,110.2L179.576,110.2Z" fill="#000000"/>
<path d="M111.099,34.844C116.768,34.551 121.601,38.909 121.894,44.577C122.269,51.824 120.625,62.529 114.133,71.731C107.235,81.509 95.599,88.503 78.513,88.503L78.513,67.947C89.291,67.947 94.5,63.903 97.337,59.881C100.58,55.285 101.563,49.431 101.366,45.639C101.073,39.97 105.431,35.137 111.099,34.844Z" clip-rule="evenodd" fill-rule="evenodd" transform="rotate(360 100.229 61.667)" fill="#00A3FF"/>
<path d="M156.778,8.579C162.446,8.285 167.279,12.643 167.573,18.312C167.947,25.558 166.303,36.264 159.811,45.466C152.913,55.243 141.278,62.238 124.191,62.238L124.191,41.682C134.969,41.682 140.178,37.637 143.015,33.616C146.258,29.019 147.241,23.166 147.045,19.374C146.751,13.705 151.109,8.872 156.778,8.579Z" clip-rule="evenodd" fill-rule="evenodd" fill="#00A3FF"/>
<path d="M159.019,18.754C158.97,17.809 158.165,17.083 157.22,17.132C156.275,17.181 155.549,17.986 155.598,18.931L159.019,18.754ZM155.598,18.931C155.869,24.163 154.61,32.038 150.013,38.553C145.484,44.973 137.598,50.247 124.191,50.247L124.191,53.673C138.649,53.673 147.607,47.907 152.813,40.528C157.951,33.245 159.32,24.561 159.019,18.754L155.598,18.931Z" fill="#0C0C0E" fill-opacity="0.5"/>
<path d="M123.618,45.019C123.569,44.075 122.764,43.348 121.819,43.397C120.874,43.446 120.148,44.251 120.197,45.196L123.618,45.019ZM120.197,45.196C120.468,50.428 119.209,58.303 114.612,64.819C110.083,71.238 102.197,76.512 88.79,76.512L88.79,79.938C103.248,79.938 112.206,74.173 117.412,66.794C122.55,59.51 123.919,50.827 123.618,45.019L120.197,45.196Z" transform="rotate(360 105.368 61.666)" fill="#0C0C0E" fill-opacity="0.5"/>
<path d="M105.92,18.842C105.92,9.382 113.589,1.713 123.05,1.713L123.05,1.713C132.51,1.713 140.179,9.382 140.179,18.842L140.179,111.342C140.179,113.865 138.134,115.91 135.611,115.91L110.488,115.91C107.965,115.91 105.92,113.865 105.92,111.342L105.92,18.842Z" fill="#00A3FF"/>
<line x1="115.627" y1="22.268" x2="115.627" y2="114.768" stroke="#0C0C0E" stroke-opacity="0.5" stroke-width="1.713" stroke-miterlimit="3.999327" stroke-linecap="round"/>
<line x1="127.046" y1="22.268" x2="127.046" y2="114.768" stroke="#0C0C0E" stroke-opacity="0.5" stroke-width="1.713" stroke-miterlimit="3.999327" stroke-linecap="round"/>
<path d="M105.921,62.994L104.797,64.286C105.303,64.727 106.02,64.831 106.631,64.553C107.242,64.275 107.634,63.665 107.634,62.994L105.921,62.994ZM103.122,59.881L101.722,60.869L101.722,60.869L103.122,59.881ZM99.093,45.639L100.803,45.727L100.803,45.727L99.093,45.639ZM89.359,34.844L89.448,33.133L89.448,33.133L89.359,34.844ZM78.565,44.577L80.275,44.666L80.275,44.666L78.565,44.577ZM86.326,71.731L87.726,70.744L87.726,70.744L86.326,71.731ZM105.921,86.094L107.634,86.094C107.634,85.355 107.16,84.699 106.457,84.468L105.921,86.094ZM140.18,59.841L139.646,58.214C138.943,58.445 138.468,59.101 138.468,59.841L140.18,59.841ZM159.813,45.466L161.212,46.453L161.212,46.453L159.813,45.466ZM167.574,18.312L165.863,18.4L165.863,18.4L167.574,18.312ZM147.046,19.374L148.757,19.285L148.757,19.285L147.046,19.374ZM143.017,33.616L141.617,32.628L141.617,32.628L143.017,33.616ZM140.18,36.761L138.468,36.761C138.468,37.431 138.859,38.04 139.468,38.319C140.078,38.597 140.794,38.495 141.301,38.056L140.18,36.761ZM107.634,18.842C107.634,10.328 114.537,3.426 123.051,3.426L123.051,0C112.644,0 104.208,8.436 104.208,18.842L107.634,18.842ZM107.634,62.994L107.634,18.842L104.208,18.842L104.208,62.994L107.634,62.994ZM101.722,60.869C102.539,62.027 103.543,63.195 104.797,64.286L107.046,61.702C106.025,60.814 105.202,59.857 104.522,58.894L101.722,60.869ZM97.382,45.55C97.171,49.632 98.209,55.889 101.722,60.869L104.522,58.894C101.549,54.68 100.622,49.23 100.803,45.727L97.382,45.55ZM89.271,36.555C93.995,36.799 97.626,40.826 97.382,45.55L100.803,45.727C101.145,39.114 96.061,33.475 89.448,33.133L89.271,36.555ZM80.275,44.666C80.52,39.942 84.547,36.31 89.271,36.555L89.448,33.133C82.835,32.791 77.196,37.875 76.854,44.489L80.275,44.666ZM87.726,70.744C81.505,61.926 79.915,51.625 80.275,44.666L76.854,44.489C76.464,52.022 78.163,63.132 84.926,72.719L87.726,70.744ZM106.457,84.468C98.165,81.736 91.996,76.797 87.726,70.744L84.926,72.719C89.604,79.349 96.369,84.751 105.385,87.721L106.457,84.468ZM107.634,111.342L107.634,86.094L104.208,86.094L104.208,111.342L107.634,111.342ZM110.489,114.197C108.912,114.197 107.634,112.919 107.634,111.342L104.208,111.342C104.208,114.811 107.02,117.623 110.489,117.623L110.489,114.197ZM135.613,114.197L110.489,114.197L110.489,117.623L135.613,117.623L135.613,114.197ZM138.468,111.342C138.468,112.919 137.189,114.197 135.613,114.197L135.613,117.623C139.081,117.623 141.893,114.811 141.893,111.342L138.468,111.342ZM138.468,59.841L138.468,111.342L141.893,111.342L141.893,59.841L138.468,59.841ZM140.715,61.469C149.751,58.501 156.528,53.093 161.212,46.453L158.413,44.478C154.136,50.54 147.956,55.485 139.646,58.214L140.715,61.469ZM161.212,46.453C167.976,36.867 169.674,25.757 169.285,18.223L165.863,18.4C166.223,25.36 164.634,35.661 158.413,44.478L161.212,46.453ZM169.285,18.223C168.943,11.61 163.304,6.526 156.691,6.868L156.868,10.289C161.592,10.045 165.619,13.676 165.863,18.4L169.285,18.223ZM156.691,6.868C150.077,7.21 144.993,12.849 145.335,19.462L148.757,19.285C148.512,14.561 152.144,10.534 156.868,10.289L156.691,6.868ZM145.335,19.462C145.517,22.965 144.59,28.414 141.617,32.628L144.416,34.603C147.929,29.624 148.968,23.367 148.757,19.285L145.335,19.462ZM141.617,32.628C140.93,33.602 140.096,34.569 139.06,35.465L141.301,38.056C142.574,36.955 143.59,35.774 144.416,34.603L141.617,32.628ZM138.468,18.842L138.468,36.761L141.893,36.761L141.893,18.842L138.468,18.842ZM123.051,3.426C131.565,3.426 138.468,10.328 138.468,18.842L141.893,18.842C141.893,8.436 133.457,0 123.051,0L123.051,3.426Z" fill="#000000"/>
<path d="M54.849,9.099C56.204,7.611 58.545,7.611 59.9,9.099L61.642,11.012C62.327,11.764 63.311,12.171 64.327,12.124L66.912,12.003C68.922,11.909 70.577,13.564 70.483,15.575L70.362,18.16C70.315,19.175 70.723,20.16 71.475,20.844L73.388,22.587C74.876,23.942 74.876,26.283 73.388,27.638L71.475,29.38C70.723,30.065 70.315,31.049 70.362,32.065L70.483,34.65C70.577,36.66 68.922,38.315 66.912,38.221L64.327,38.1C63.311,38.053 62.327,38.461 61.642,39.213L59.9,41.126C58.545,42.614 56.204,42.614 54.849,41.126L53.106,39.213C52.422,38.461 51.437,38.053 50.421,38.1L47.837,38.221C45.826,38.315 44.171,36.66 44.265,34.65L44.386,32.065C44.433,31.049 44.026,30.065 43.274,29.38L41.361,27.638C39.873,26.283 39.873,23.942 41.361,22.587L43.274,20.844C44.026,20.16 44.433,19.175 44.386,18.16L44.265,15.575C44.171,13.564 45.826,11.909 47.837,12.003L50.421,12.124C51.437,12.171 52.422,11.764 53.106,11.012L54.849,9.099Z" transform="rotate(-300 57.374 25.112)" fill="#FFFFFF" fill-opacity="0.5"/>
<path d="M220.717,97.423C221.62,96.432 223.181,96.432 224.084,97.423L225.246,98.699C225.702,99.2 226.358,99.472 227.036,99.44L228.759,99.36C230.099,99.297 231.202,100.401 231.14,101.741L231.059,103.464C231.028,104.141 231.299,104.797 231.801,105.254L233.076,106.416C234.068,107.319 234.068,108.879 233.076,109.783L231.801,110.944C231.299,111.401 231.028,112.057 231.059,112.734L231.14,114.458C231.202,115.798 230.099,116.901 228.759,116.839L227.036,116.758C226.358,116.727 225.702,116.998 225.246,117.5L224.084,118.775C223.181,119.767 221.62,119.767 220.717,118.775L219.555,117.5C219.099,116.998 218.442,116.727 217.765,116.758L216.042,116.839C214.702,116.901 213.598,115.798 213.661,114.458L213.741,112.734C213.773,112.057 213.501,111.401 213,110.944L211.725,109.783C210.733,108.879 210.733,107.319 211.725,106.416L213,105.254C213.501,104.797 213.773,104.141 213.741,103.464L213.661,101.741C213.598,100.401 214.702,99.297 216.042,99.36L217.765,99.44C218.442,99.472 219.099,99.2 219.555,98.699L220.717,97.423Z" transform="rotate(-300 222.4 108.099)" fill="#FFFFFF" fill-opacity="0.5"/>
<path d="M35.635,32.726C36.365,32.125 36.47,31.046 35.868,30.315C35.267,29.585 34.188,29.48 33.457,30.082L35.635,32.726ZM1.018,33.998C0.243,34.54 0.054,35.608 0.597,36.383C1.139,37.158 2.207,37.347 2.982,36.804L1.018,33.998ZM33.457,30.082C31.982,31.297 29.315,32.98 26.241,33.971C23.163,34.963 19.888,35.197 16.999,33.849L15.55,36.953C19.513,38.803 23.756,38.371 27.292,37.231C30.832,36.09 33.875,34.176 35.635,32.726L33.457,30.082ZM16.999,33.849C9.576,30.385 3.407,32.325 1.018,33.998L2.982,36.804C4.399,35.813 9.269,34.022 15.55,36.953L16.999,33.849Z" fill="#FFFFFF" fill-opacity="0.5"/>
<path d="M205.457,104.629C206.379,104.842 207.298,104.267 207.511,103.345C207.724,102.423 207.149,101.504 206.227,101.291L205.457,104.629ZM194.57,105.69C194.186,106.555 194.575,107.567 195.44,107.951C196.304,108.335 197.316,107.946 197.701,107.082L194.57,105.69ZM206.227,101.291C204.802,100.962 202.57,100.764 200.379,101.244C198.162,101.73 195.778,102.972 194.57,105.69L197.701,107.082C198.32,105.688 199.552,104.932 201.113,104.59C202.7,104.242 204.407,104.387 205.457,104.629L206.227,101.291Z" fill="#FFFFFF" fill-opacity="0.5"/>
<path d="M65.839,61.828C68.278,59.15 72.491,59.15 74.93,61.828L78.066,65.272C79.299,66.625 81.071,67.359 82.899,67.274L87.552,67.056C91.17,66.887 94.15,69.867 93.981,73.485L93.763,78.138C93.678,79.967 94.412,81.738 95.765,82.971L99.209,86.107C101.887,88.546 101.887,92.76 99.209,95.199L95.765,98.335C94.412,99.567 93.678,101.339 93.763,103.168L93.981,107.821C94.15,111.439 91.17,114.418 87.552,114.249L82.899,114.032C81.071,113.946 79.299,114.68 78.066,116.034L74.93,119.477C72.491,122.156 68.278,122.156 65.839,119.477L62.702,116.034C61.47,114.68 59.698,113.946 57.869,114.032L53.217,114.249C49.598,114.418 46.619,111.439 46.788,107.821L47.005,103.168C47.091,101.339 46.357,99.567 45.004,98.335L41.56,95.199C38.882,92.76 38.882,88.546 41.56,86.107L45.004,82.971C46.357,81.738 47.091,79.967 47.005,78.138L46.788,73.485C46.619,69.867 49.598,66.887 53.217,67.056L57.869,67.274C59.698,67.359 61.47,66.625 62.702,65.272L65.839,61.828Z" transform="rotate(300 70.384 90.653)" fill="#000000"/>
<path d="M85.397,83.855C85.397,91.564 82.742,94.528 79.468,94.528C76.193,94.528 73.538,91.564 73.538,83.855C73.538,76.147 74.724,70.811 79.468,70.811C84.211,70.811 85.397,76.147 85.397,83.855Z" transform="rotate(300 79.468 82.669)" fill="#FFFFFF"/>
<path d="M85.514,80.891C85.514,84.165 84.921,86.82 82.549,86.82C80.177,86.82 79.584,84.165 79.584,80.891C79.584,77.616 80.177,74.961 82.549,74.961C84.921,74.961 85.514,77.616 85.514,80.891Z" transform="rotate(300 82.549 80.891)" fill="#000000"/>
<path d="M75.128,89.785C75.128,97.493 72.473,100.458 69.198,100.458C65.924,100.458 63.269,97.493 63.269,89.785C63.269,82.077 64.455,76.74 69.198,76.74C73.942,76.74 75.128,82.077 75.128,89.785Z" transform="rotate(300 69.198 88.599)" fill="#FFFFFF"/>
<path d="M75.244,86.82C75.244,90.095 74.651,92.75 72.28,92.75C69.908,92.75 69.315,90.095 69.315,86.82C69.315,83.546 69.908,80.891 72.28,80.891C74.651,80.891 75.244,83.546 75.244,86.82Z" transform="rotate(300 72.28 86.82)" fill="#000000"/>
<path d="M58.736,87.912C63.122,83.526 67.415,77.406 69.014,74.893L58.736,74.893L58.736,87.912Z" transform="rotate(0 63.875 81.402)" fill="#000000"/>
<path d="M81.347,70.782C78.058,72.975 71.755,74.436 69.014,74.893L71.069,68.727L81.347,70.782Z" transform="rotate(0 75.181 71.81)" fill="#000000"/>
</svg>
