<svg width="98" height="66" viewBox="0 0 98 66" fill="none" xmlns="http://www.w3.org/2000/svg" xmlns:xlink="http://www.w3.org/1999/xlink">
<mask id="mask_0_i_1_2050;10245_4328;349_11904" style="mask-type:alpha" maskUnits="userSpaceOnUse" x="16.171387" y="5.314941" width="7.912088" height="15.824176">
<path d="M31.996,22.722C31.996,33.007 28.453,36.963 24.083,36.963C19.714,36.963 16.171,33.007 16.171,22.722C16.171,12.436 17.754,5.315 24.083,5.315C30.413,5.315 31.996,12.436 31.996,22.722Z" fill="#FFFFFF"/>
</mask>
<mask id="mask_0_i_1_2050;10245_4329;349_11904" style="mask-type:alpha" maskUnits="userSpaceOnUse" x="31.995605" y="5.314941" width="7.912088" height="15.824176">
<path d="M47.82,22.722C47.82,33.007 44.277,36.963 39.908,36.963C35.538,36.963 31.996,33.007 31.996,22.722C31.996,12.436 33.578,5.315 39.908,5.315C46.237,5.315 47.82,12.436 47.82,22.722Z" fill="#FFFFFF"/>
</mask>
<path d="M82.645,28.563C90.58,28.563 97.013,22.131 97.013,14.196C97.013,6.261 90.58,-0.171 82.645,-0.171L71.87,-0.171L8.85,-0.171C5.965,-0.171 3.626,2.168 3.626,5.053L3.626,19.584C3.626,40.412 20.511,57.297 41.34,57.297C59.331,57.297 74.379,44.7 78.146,27.844C79.561,28.311 81.074,28.563 82.645,28.563ZM82.645,21.379C86.613,21.379 89.829,18.163 89.829,14.196C89.829,10.228 86.613,7.012 82.645,7.012C78.678,7.012 75.462,10.228 75.462,14.196C75.462,18.163 78.678,21.379 82.645,21.379Z" clip-rule="evenodd" fill-rule="evenodd" fill="#000000"/>
<rect  x="-0.286" y="53.229" width="93.876" height="11.734" rx="10" fill="#000000"/>
<path d="M31.996,22.722C31.996,33.007 28.453,36.963 24.083,36.963C19.714,36.963 16.171,33.007 16.171,22.722C16.171,12.436 17.754,5.315 24.083,5.315C30.413,5.315 31.996,12.436 31.996,22.722Z" fill="#FFFFFF"/>
<path d="M23.292,21.139C23.292,25.509 22.501,29.051 19.336,29.051C16.171,29.051 15.38,25.509 15.38,21.139C15.38,16.769 16.171,13.227 19.336,13.227C22.501,13.227 23.292,16.769 23.292,21.139Z" fill="#000000"/>
<path d="M47.82,22.722C47.82,33.007 44.277,36.963 39.908,36.963C35.538,36.963 31.996,33.007 31.996,22.722C31.996,12.436 33.578,5.315 39.908,5.315C46.237,5.315 47.82,12.436 47.82,22.722Z" fill="#FFFFFF"/>
<path d="M39.116,21.139C39.116,25.509 38.325,29.051 35.16,29.051C31.996,29.051 31.204,25.509 31.204,21.139C31.204,16.769 31.996,13.227 35.16,13.227C38.325,13.227 39.116,16.769 39.116,21.139Z" fill="#000000"/>
</svg>
