<svg width="40" height="40" viewBox="0 0 40 40" fill="none" xmlns="http://www.w3.org/2000/svg" xmlns:xlink="http://www.w3.org/1999/xlink">
<path d="M30.038,29.449C35.995,26.715 40,21.622 40,15.789C40,7.069 31.046,0 20,0C8.954,0 0,7.069 0,15.789C0,23.903 7.752,30.588 17.729,31.478L17.729,37.826C17.729,38.68 18.731,39.141 19.379,38.585L30.038,29.449Z" stroke="#FFFFFF" stroke-width="1" stroke-miterlimit="3.999327" stroke-linejoin="round"/>
<path d="M30.038,29.449C35.995,26.715 40,21.622 40,15.789C40,7.069 31.046,0 20,0C8.954,0 0,7.069 0,15.789C0,23.903 7.752,30.588 17.729,31.478L17.729,37.826C17.729,38.68 18.731,39.141 19.379,38.585L30.038,29.449Z" fill="#FF00E5" stroke="#000000" stroke-width="1" stroke-miterlimit="3.999327" stroke-linejoin="round"/>
<path d="M17.035,15.217C17.035,11.043 19.122,10 20.165,10C22.252,10 22.774,12.087 22.774,15.217C22.774,18.348 22.252,22 20.165,22C18.078,22 17.035,20.435 17.035,15.217Z" fill="#FFFFFF"/>
<path d="M17.034,15.851C17.034,13.674 18.173,13.129 18.742,13.129C19.88,13.129 20.165,14.218 20.165,15.851C20.165,17.485 19.88,19.39 18.742,19.39C17.604,19.39 17.034,18.574 17.034,15.851Z" transform="rotate(-360 18.6 16.26)" fill="#000000"/>
<path d="M26.069,15.217C26.069,11.043 28.156,10 29.2,10C31.286,10 31.808,12.087 31.808,15.217C31.808,18.348 31.286,22 29.2,22C27.113,22 26.069,20.435 26.069,15.217Z" fill="#FFFFFF"/>
<path d="M8.001,15.217C8.001,11.043 10.088,10 11.131,10C13.218,10 13.74,12.087 13.74,15.217C13.74,18.348 13.218,22 11.131,22C9.044,22 8.001,20.435 8.001,15.217Z" fill="#FFFFFF"/>
<path d="M8,15.851C8,13.674 9.138,13.129 9.708,13.129C10.846,13.129 11.13,14.218 11.13,15.851C11.13,17.485 10.846,19.39 9.708,19.39C8.569,19.39 8,18.574 8,15.851Z" transform="rotate(-360 9.565 16.26)" fill="#000000"/>
</svg>
