<svg width="48" height="44" viewBox="0 0 48 44" fill="none" xmlns="http://www.w3.org/2000/svg" xmlns:xlink="http://www.w3.org/1999/xlink">
<path d="M45.606,-0.414L26.875,13.376L30.346,5.246L45.606,-0.414Z" fill="#E27625"/>
<path d="M2.359,-0.414L20.934,13.501L17.619,5.246L2.359,-0.414Z" fill="#E27625"/>
<path d="M38.886,31.576L33.883,39.144L44.577,42.083L47.642,31.732L38.886,31.576Z" fill="#E27625"/>
<path d="M0.391,31.732L3.424,42.083L14.087,39.143L9.115,31.576L0.391,31.732Z" fill="#E27625"/>
<path d="M13.525,18.755L10.555,23.227L21.124,23.696L20.78,12.376L13.525,18.755Z" fill="#E27625"/>
<path d="M34.474,18.755L27.094,12.25L26.875,23.695L37.444,23.226L34.474,18.755Z" fill="#E27625"/>
<path d="M14.086,39.143L20.496,36.079L14.962,31.826L14.086,39.143Z" fill="#E27625"/>
<path d="M27.504,36.079L33.883,39.143L33.007,31.826L27.504,36.079Z" fill="#E27625"/>
<path d="M33.883,39.144L27.504,36.079L28.036,40.207L27.973,41.958L33.883,39.144Z" fill="#D7C1B3"/>
<path d="M14.086,39.144L20.027,41.958L19.996,40.207L20.496,36.079L14.086,39.144Z" fill="#D7C1B3"/>
<path d="M20.121,29.074L14.836,27.542L18.588,25.822L20.121,29.074Z" fill="#2F343B"/>
<path d="M27.848,29.074L29.411,25.822L33.164,27.542L27.848,29.074Z" fill="#2F343B"/>
<path d="M14.089,39.144L15.027,31.576L9.117,31.732L14.089,39.144Z" fill="#CC6228"/>
<path d="M32.977,31.576L33.883,39.144L38.887,31.732L32.977,31.576Z" fill="#CC6228"/>
<path d="M37.444,23.226L26.875,23.696L27.844,29.074L29.408,25.822L33.16,27.542L37.444,23.226Z" fill="#CC6228"/>
<path d="M14.839,27.542L18.591,25.822L20.123,29.074L21.124,23.696L10.555,23.226L14.839,27.542Z" fill="#CC6228"/>
<path d="M10.555,23.226L14.964,31.826L14.839,27.542L10.555,23.226Z" fill="#E27625"/>
<path d="M33.164,27.542L33.008,31.826L37.448,23.226L33.164,27.542Z" fill="#E27625"/>
<path d="M21.122,23.696L20.121,29.074L21.372,35.453L21.653,27.073L21.122,23.696Z" fill="#E27625"/>
<path d="M26.875,23.696L26.344,27.042L26.594,35.453L27.845,29.074L26.875,23.696Z" fill="#E27625"/>
<path d="M27.845,29.074L26.594,35.453L27.501,36.079L33.004,31.826L33.161,27.542L27.845,29.074Z" fill="#F5841F"/>
<path d="M14.836,27.542L14.961,31.826L20.496,36.079L21.371,35.453L20.121,29.074L14.836,27.542Z" fill="#F5841F"/>
<path d="M27.97,41.958L28.033,40.207L27.532,39.8L20.434,39.8L19.996,40.207L20.027,41.958L14.086,39.143L16.15,40.832L20.371,43.74L27.595,43.74L31.816,40.832L33.88,39.143L27.97,41.958Z" fill="#C0AD9E"/>
<path d="M27.501,36.079L26.594,35.453L21.372,35.453L20.496,36.079L19.996,40.207L20.434,39.8L27.532,39.8L28.033,40.207L27.501,36.079Z" fill="#2F343B"/>
<path d="M46.422,14.283L47.986,6.653L45.609,-0.414L27.504,12.907L34.477,18.755L44.327,21.632L46.485,19.099L45.547,18.411L47.048,17.066L45.891,16.159L47.392,15.034L46.422,14.283Z" fill="#763E1A"/>
<path d="M-0.016,6.653L1.579,14.283L0.579,15.034L2.079,16.191L0.922,17.066L2.423,18.411L1.485,19.099L3.674,21.632L13.524,18.755L20.498,12.907L2.361,-0.414L-0.016,6.653Z" fill="#763E1A"/>
<path d="M44.328,21.632L34.478,18.755L37.448,23.226L33.008,31.826L38.887,31.732L47.642,31.732L44.328,21.632Z" fill="#F5841F"/>
<path d="M13.524,18.755L3.674,21.632L0.391,31.732L9.115,31.732L14.963,31.826L10.554,23.227L13.524,18.755Z" fill="#F5841F"/>
<path d="M26.877,23.696L27.502,12.907L30.348,5.246L17.621,5.246L20.498,12.907L21.123,23.696L21.373,27.073L21.373,35.453L26.595,35.453L26.627,27.073L26.877,23.696Z" fill="#F5841F"/>
</svg>
