<svg width="60" height="36" viewBox="0 0 60 36" fill="none" xmlns="http://www.w3.org/2000/svg" xmlns:xlink="http://www.w3.org/1999/xlink">
<path d="M58.328,11.099C58.319,11.341 58.297,11.57 58.275,11.75C58.216,12.266 57.902,12.701 57.588,13.137C57.372,13.438 57.155,13.739 57.021,14.067C56.454,15.179 56.01,16.207 55.693,17.142C55.373,18.066 55.103,18.9 54.884,19.647C54.664,20.394 54.447,21.053 54.239,21.623C53.989,22.288 53.7,22.784 53.366,23.111C53.199,23.384 52.902,23.566 52.474,23.662C52.046,23.757 51.61,23.776 51.165,23.722C50.723,23.654 50.342,23.512 50.023,23.294C49.717,23.076 49.608,22.792 49.689,22.438C49.842,21.162 50.07,20.088 50.376,19.219C50.695,18.349 50.965,17.63 51.184,17.06C51.421,16.49 51.621,15.981 51.788,15.533C51.954,15.073 52.107,14.678 52.243,14.353C52.396,14.013 52.569,13.661 52.763,13.293C52.958,12.914 53.163,12.532 53.386,12.154C53.622,11.761 53.855,11.401 54.092,11.074C54.631,10.327 55.09,9.886 55.462,9.749C55.837,9.599 56.21,9.512 56.585,9.485C57.096,9.45 57.883,9.531 58.164,10.036C58.311,10.303 58.342,10.714 58.328,11.101L58.328,11.099Z" transform="rotate(-30 30.719 18.811)" fill="#000000" stroke="#000000" stroke-width="0.5" stroke-miterlimit="3.999327" stroke-linejoin="round"/>
<path d="M53.116,26.45C52.963,27.006 52.646,27.421 52.16,27.693C51.69,27.979 51.184,28.127 50.645,28.14C50.106,28.167 49.6,28.067 49.13,27.835C48.675,27.617 48.388,27.271 48.28,26.796C48.155,26.336 48.224,25.94 48.488,25.616C48.766,25.275 49.091,25.06 49.464,24.965C49.839,24.856 50.273,24.782 50.773,24.741C51.284,24.7 51.749,24.727 52.166,24.823C52.58,24.918 52.899,25.095 53.122,25.352C53.344,25.611 53.344,25.976 53.122,26.453L53.116,26.45Z" transform="rotate(-30 30.719 18.811)" fill="#000000" stroke="#000000" stroke-width="0.5" stroke-miterlimit="3.999327" stroke-linejoin="round"/>
<path d="M35.619,27.18C35.325,27.263 35.048,27.305 34.782,27.305C34.516,27.319 34.244,27.333 33.967,27.347C33.701,27.361 33.332,27.366 32.859,27.366C32.386,27.366 31.675,27.352 30.726,27.325C30.502,27.338 30.281,27.344 30.057,27.344C29.833,27.344 29.626,27.302 29.43,27.219C28.999,27.038 28.705,26.624 28.551,25.973C28.481,25.667 28.406,25.453 28.322,25.328C28.224,25.202 28.148,25.086 28.092,24.974C27.952,24.752 27.966,24.385 28.134,23.873C28.288,23.361 28.49,22.73 28.742,21.982C28.994,21.22 29.279,20.416 29.598,19.57C30.351,17.562 31.028,15.969 31.627,14.789C31.865,14.264 32.067,13.805 32.235,13.418C32.417,13.032 32.576,12.698 32.716,12.42C32.856,12.128 32.926,11.977 32.926,11.964C33.066,11.438 33.604,10.993 34.536,10.634C35.442,10.259 36.265,10.164 37.004,10.342C37.827,10.551 38.188,11.09 38.093,11.964C37.897,12.823 37.606,13.682 37.214,14.542C36.836,15.401 36.405,16.302 35.918,17.242C35.431,18.185 34.899,19.181 34.328,20.235C33.757,21.289 33.192,22.432 32.635,23.664C32.621,23.72 32.649,23.767 32.719,23.809C32.901,23.795 33.15,23.739 33.472,23.642C33.808,23.545 34.149,23.461 34.496,23.392C34.86,23.308 35.216,23.267 35.563,23.267C35.91,23.267 36.204,23.356 36.442,23.536C36.543,23.613 36.549,23.738 36.555,23.86C36.56,23.966 36.565,24.069 36.629,24.14L37.046,24.554C37.396,24.916 37.424,25.392 37.13,25.99C36.85,26.571 36.349,26.966 35.624,27.174L35.619,27.18Z" transform="rotate(-30 30.719 18.811)" fill="#000000" stroke="#000000" stroke-width="0.5" stroke-miterlimit="3.999327" stroke-linejoin="round"/>
<path d="M40.242,13.672C40.2,14.922 40.298,16.54 40.537,18.527L40.543,18.527C40.543,19.033 40.599,19.443 40.711,19.76C40.866,20.142 41.06,20.308 41.299,20.253L40.354,21.898C40.045,22.445 39.743,22.981 39.448,23.505L39.137,24.059C39.085,24.148 39.028,24.245 38.968,24.346C38.368,25.36 37.465,26.886 38.799,27.636C39.457,28.033 40.242,28.198 41.153,28.129C42.148,28.049 42.98,27.664 43.652,26.979C43.917,26.703 43.939,26.359 43.714,25.949C43.63,25.784 43.54,25.66 43.441,25.578C43.343,25.484 43.287,25.448 43.273,25.476C43.765,24.075 44.442,22.603 45.311,21.053C45.688,20.368 46.081,19.683 46.486,18.998C46.908,18.299 47.271,17.668 47.58,17.107C47.901,16.546 48.216,16.05 48.525,15.626C49.841,13.774 50.513,12.417 50.541,11.553C50.583,11.185 50.513,10.904 50.33,10.711C50.161,10.521 49.883,10.384 49.489,10.301C49.11,10.205 48.654,10.26 48.123,10.466C47.574,10.863 46.945,11.562 46.231,12.563C45.938,12.973 45.623,13.441 45.286,13.961C44.948,14.481 44.704,14.845 44.549,15.051C44.395,14.49 44.234,13.953 44.066,13.447C43.9,12.938 43.759,12.492 43.647,12.109C43.478,11.424 43.098,11.102 42.511,11.143C41.979,11.198 41.468,11.479 40.978,11.985C40.458,12.522 40.214,13.083 40.242,13.672Z" transform="rotate(-30 30.719 18.811)" fill="#000000" stroke="#000000" stroke-width="0.5" stroke-miterlimit="3.999327" stroke-linejoin="round"/>
<path d="M17.379,17.689C17.65,16.763 17.865,16.053 18.027,15.554C18.204,15.043 18.372,14.586 18.534,14.186C18.697,13.787 18.879,13.399 19.082,13.027C19.299,12.653 19.527,12.314 19.771,12.012C20.029,11.693 20.297,11.446 20.582,11.266C20.867,11.086 21.162,10.997 21.474,10.997C22.166,10.997 22.638,11.593 22.838,12.214C22.891,12.377 22.947,12.543 23.003,12.711C23.162,13.182 23.326,13.669 23.438,14.147C23.6,14.838 23.75,15.812 23.882,17.071C24.004,16.752 24.14,16.422 24.287,16.075C24.449,15.714 24.604,15.357 24.753,14.996C25.171,14.084 25.436,13.393 25.542,12.924C25.84,11.956 26.453,11.233 27.386,10.747C28.026,10.42 29.846,9.799 30.231,10.803C30.394,11.226 30.322,11.798 30.261,12.284C30.248,12.389 30.235,12.491 30.226,12.586C30.134,13.479 29.817,14.232 29.488,15.009C29.359,15.316 29.228,15.626 29.108,15.95C28.837,16.669 28.561,17.437 28.278,18.249C28.007,19.065 27.731,19.894 27.449,20.737C27.164,21.58 26.887,22.346 26.619,23.036C26.025,24.625 25.537,25.502 25.16,25.668C24.647,25.987 24.268,26.173 24.026,26.229C23.714,26.284 23.278,26.284 22.708,26.229C22.356,26.201 22.052,25.738 21.797,24.839C21.648,24.356 21.512,23.685 21.393,22.828C21.176,21.336 21.027,20.515 20.948,20.363C20.408,22.16 20.023,23.291 19.793,23.76C19.576,24.229 19.408,24.54 19.286,24.692C19.177,24.845 19.042,25.044 18.882,25.294C18.705,25.79 18.288,26.156 17.626,26.392C17.059,26.614 16.544,26.647 16.086,26.495C15.587,26.328 15.437,26.012 15.641,25.541C15.79,23.882 16.37,21.264 17.385,17.686L17.379,17.689Z" transform="rotate(-30 30.719 18.811)" fill="#000000" stroke="#000000" stroke-width="0.5" stroke-miterlimit="3.999327" stroke-linejoin="round"/>
<path d="M9.682,10.783C8.655,11.024 7.718,11.624 6.875,12.586L6.878,12.583C5.206,14.52 4.05,16.927 3.408,19.809C2.633,23.321 3.36,25.627 5.593,26.733C6.153,27.108 6.849,27.314 7.678,27.354C9.014,27.435 10.163,27.108 11.126,26.374C11.727,25.988 12.269,25.501 12.75,24.914C14.314,23.007 15.404,20.677 16.018,17.929C16.531,15.636 16.799,10.896 13.611,10.304C12.988,10.187 12.457,10.28 12.017,10.58C11.799,10.73 11.527,10.799 11.268,10.743C10.764,10.634 10.235,10.647 9.682,10.783ZM7.138,23.215C7.138,23.214 7.138,23.213 7.137,23.212C7.136,23.211 7.136,23.21 7.136,23.209C7.099,21.884 7.885,20.39 8.44,19.349C8.773,18.735 9.229,17.996 9.803,17.128C10.019,16.802 10.232,16.49 10.442,16.192C10.789,15.696 11.504,15.917 11.47,16.521C11.409,17.582 11.215,18.698 10.887,19.871C10.423,21.532 9.698,23.57 8.316,24.7C8.241,24.762 8.158,24.823 8.061,24.842C7.836,24.885 7.64,24.692 7.517,24.502C7.265,24.109 7.152,23.673 7.138,23.215Z" clip-rule="evenodd" fill-rule="evenodd" transform="rotate(-30 30.719 18.811)" fill="#000000" stroke="#000000" stroke-width="0.5" stroke-miterlimit="3.999327" stroke-linejoin="round"/>
<path d="M33.906,23.633C33.612,23.717 33.335,23.758 33.069,23.758C32.803,23.772 32.532,23.786 32.255,23.8C31.989,23.814 31.619,23.819 31.146,23.819C30.673,23.819 29.962,23.806 29.013,23.778C28.79,23.792 28.568,23.797 28.344,23.797C28.121,23.797 27.913,23.755 27.717,23.672C27.286,23.491 26.993,23.077 26.839,22.426C26.769,22.12 26.693,21.906 26.609,21.781C26.511,21.656 26.436,21.539 26.38,21.428C26.24,21.205 26.254,20.838 26.422,20.326C26.575,19.814 26.777,19.183 27.029,18.435C27.281,17.673 27.566,16.869 27.885,16.024C28.638,14.015 29.316,12.422 29.915,11.243C30.153,10.717 30.354,10.258 30.522,9.871C30.704,9.485 30.864,9.151 31.004,8.873C31.143,8.581 31.213,8.431 31.213,8.417C31.353,7.891 31.891,7.446 32.823,7.087C33.73,6.712 34.553,6.617 35.292,6.795C36.114,7.004 36.476,7.543 36.38,8.417C36.184,9.276 35.893,10.136 35.501,10.995C35.124,11.854 34.693,12.756 34.206,13.696C33.719,14.638 33.187,15.634 32.616,16.688C32.045,17.742 31.479,18.885 30.922,20.118C30.908,20.173 30.936,20.22 31.006,20.262C31.188,20.248 31.437,20.193 31.759,20.095C32.095,19.998 32.437,19.915 32.784,19.845C33.148,19.762 33.503,19.72 33.85,19.72C34.197,19.72 34.491,19.809 34.729,19.99C34.917,20.131 34.777,20.44 34.917,20.593C35.056,20.732 35.196,20.871 35.334,21.008C35.683,21.369 35.711,21.845 35.418,22.443C35.138,23.024 34.637,23.419 33.912,23.628L33.906,23.633Z" transform="rotate(-30 31.34 15.264)" fill="#00A3FF" stroke="#000000" stroke-width="0.5" stroke-miterlimit="3.999327" stroke-linejoin="round"/>
<path d="M55.926,2.318C55.917,2.561 55.895,2.79 55.873,2.969C55.773,3.842 54.947,4.482 54.619,5.286C54.052,6.398 53.608,7.426 53.291,8.361C52.971,9.285 52.702,10.119 52.482,10.866C52.262,11.613 52.046,12.272 51.837,12.842C51.587,13.507 51.298,14.003 50.964,14.33C50.798,14.603 50.5,14.786 50.072,14.881C49.644,14.976 49.208,14.995 48.763,14.941C48.321,14.873 47.94,14.731 47.621,14.513C47.315,14.295 47.207,14.011 47.287,13.657C47.44,12.381 47.668,11.308 47.974,10.438C48.293,9.568 48.563,8.849 48.783,8.279C49.019,7.71 49.219,7.2 49.386,6.753C49.552,6.292 49.705,5.897 49.842,5.573C49.994,5.232 50.167,4.88 50.361,4.512C50.556,4.133 50.762,3.752 50.984,3.373C51.22,2.98 51.454,2.621 51.69,2.293C52.229,1.547 52.688,1.105 53.06,0.969C53.435,0.819 53.808,0.732 54.183,0.704C54.695,0.669 55.481,0.751 55.762,1.255C55.909,1.522 55.94,1.934 55.926,2.321L55.926,2.318ZM50.714,17.669C50.561,18.226 50.245,18.64 49.758,18.912C49.288,19.199 48.783,19.346 48.243,19.359C47.704,19.387 47.198,19.286 46.729,19.054C46.273,18.836 45.986,18.49 45.878,18.016C45.753,17.555 45.822,17.16 46.086,16.835C46.364,16.495 46.69,16.279 47.062,16.184C47.437,16.075 47.871,16.001 48.371,15.96C48.883,15.92 49.347,15.947 49.764,16.042C50.178,16.138 50.498,16.315 50.72,16.571C50.942,16.83 50.942,17.195 50.72,17.672L50.714,17.669Z" transform="rotate(-30 50.873 10.03)" fill="#FF00E5" stroke="#000000" stroke-width="0.5" stroke-miterlimit="3.999327" stroke-linejoin="round"/>
<path d="M38.541,12.049C38.302,10.062 38.203,8.443 38.245,7.194C38.217,6.605 38.462,6.044 38.982,5.507C39.471,5.001 39.983,4.72 40.514,4.665C41.102,4.624 41.482,4.946 41.65,5.631C41.763,6.013 41.903,6.459 42.069,6.968C42.238,7.475 42.398,8.011 42.553,8.573C42.707,8.366 42.952,8.003 43.289,7.483C43.627,6.963 43.942,6.495 44.234,6.085C44.948,5.083 45.578,4.384 46.126,3.988C46.658,3.782 47.113,3.726 47.493,3.823C47.887,3.905 48.165,4.043 48.334,4.233C48.516,4.425 48.587,4.706 48.544,5.075C48.516,5.939 47.844,7.296 46.529,9.148C46.219,9.572 45.904,10.067 45.584,10.629C45.275,11.19 44.912,11.82 44.49,12.519C44.085,13.204 43.692,13.89 43.315,14.575C42.446,16.124 41.768,17.597 41.276,18.998C41.29,18.97 41.347,19.006 41.445,19.099C41.543,19.182 41.633,19.306 41.718,19.471C41.943,19.881 41.92,20.225 41.656,20.5C40.984,21.185 40.152,21.571 39.156,21.651C38.245,21.719 37.461,21.554 36.803,21.158C35.335,20.332 36.575,18.568 37.14,17.58C37.534,16.881 37.939,16.16 38.358,15.42L39.303,13.774C39.064,13.829 38.87,13.664 38.715,13.282C38.602,12.965 38.546,12.555 38.546,12.049L38.541,12.049Z" transform="rotate(-30 42.334 12.721)" fill="#FFC000" stroke="#000000" stroke-width="0.5" stroke-miterlimit="3.999327" stroke-linejoin="round"/>
<path d="M15.91,16.773C16.181,15.846 16.396,15.136 16.558,14.637C16.735,14.127 16.903,13.669 17.065,13.27C17.228,12.871 17.41,12.482 17.613,12.111C17.83,11.736 18.058,11.398 18.302,11.096C18.56,10.777 18.828,10.53 19.113,10.35C19.398,10.169 19.693,10.08 20.005,10.08C20.697,10.08 21.169,10.677 21.369,11.298C21.57,11.919 21.817,12.582 21.969,13.231C22.131,13.922 22.28,14.895 22.413,16.154C22.535,15.835 22.671,15.505 22.817,15.159C22.98,14.798 23.135,14.44 23.284,14.08C23.701,13.167 23.967,12.477 24.073,12.008C24.371,11.04 24.984,10.316 25.917,9.831C26.557,9.504 28.377,8.882 28.762,9.886C28.96,10.402 28.811,11.137 28.757,11.67C28.629,12.915 28.062,13.886 27.639,15.034C27.368,15.752 27.091,16.52 26.809,17.333C26.538,18.148 26.262,18.978 25.979,19.821C25.695,20.664 25.418,21.429 25.15,22.12C24.556,23.709 24.068,24.585 23.691,24.752C23.178,25.071 22.798,25.257 22.557,25.312C22.245,25.368 21.809,25.368 21.239,25.312C20.887,25.284 20.583,24.821 20.328,23.923C20.179,23.44 20.043,22.769 19.924,21.912C19.707,20.42 19.558,19.599 19.479,19.446C18.939,21.244 18.554,22.375 18.324,22.844C18.107,23.312 17.939,23.623 17.817,23.776C17.708,23.928 17.573,24.128 17.413,24.377C17.236,24.874 16.819,25.24 16.157,25.476C15.59,25.698 15.075,25.731 14.617,25.578C14.118,25.412 13.968,25.096 14.172,24.624C14.321,22.966 14.901,20.348 15.916,16.77L15.91,16.773Z" transform="rotate(-30 21.473 17.505)" fill="#FFC000" stroke="#000000" stroke-width="0.5" stroke-miterlimit="3.999327" stroke-linejoin="round"/>
<path d="M5.957,15.078C6.8,14.117 7.737,13.517 8.764,13.276C9.24,13.159 9.697,13.133 10.136,13.197C10.529,13.254 10.934,13.145 11.286,12.961C11.687,12.751 12.156,12.696 12.693,12.796C15.881,13.388 15.613,18.129 15.1,20.422C14.486,23.17 13.396,25.5 11.832,27.407C11.351,27.994 10.809,28.481 10.208,28.867C9.245,29.601 8.096,29.927 6.76,29.847C5.931,29.807 5.236,29.601 4.675,29.226C2.442,28.119 1.715,25.813 2.49,22.302C3.132,19.42 4.288,17.012 5.96,15.076L5.957,15.078ZM6.219,25.705C6.22,25.706 6.22,25.707 6.221,25.708C6.234,26.165 6.347,26.601 6.599,26.995C6.722,27.185 6.918,27.378 7.144,27.335C7.24,27.316 7.323,27.254 7.399,27.193C8.781,26.062 9.505,24.024 9.969,22.364C10.211,21.498 10.38,20.663 10.477,19.858C10.585,18.956 9.551,18.629 9.044,19.383C8.991,19.462 8.938,19.541 8.885,19.621C8.311,20.489 7.855,21.228 7.522,21.841C6.967,22.883 6.181,24.376 6.218,25.702C6.218,25.703 6.218,25.704 6.219,25.705L6.219,25.705Z" transform="rotate(-30 8.801 21.303)" fill="#00A3FF" stroke="#000000" stroke-width="0.5" stroke-miterlimit="3.999327" stroke-linejoin="round"/>
</svg>
