<svg width="40" height="40" viewBox="0 0 40 40" fill="none" xmlns="http://www.w3.org/2000/svg" xmlns:xlink="http://www.w3.org/1999/xlink">
<path d="M22.949,1.303C21.367,-0.434 18.633,-0.434 17.051,1.303L15.017,3.537C14.217,4.415 13.068,4.891 11.882,4.835L8.864,4.694C6.517,4.584 4.584,6.517 4.694,8.864L4.835,11.882C4.891,13.068 4.415,14.217 3.537,15.017L1.303,17.051C-0.434,18.633 -0.434,21.367 1.303,22.949L3.537,24.983C4.415,25.782 4.891,26.932 4.835,28.118L4.694,31.136C4.584,33.483 6.517,35.416 8.864,35.306L11.882,35.165C13.068,35.109 14.217,35.585 15.017,36.463L17.051,38.697C18.633,40.434 21.367,40.434 22.949,38.697L24.983,36.463C25.782,35.585 26.932,35.109 28.118,35.165L31.136,35.306C33.483,35.416 35.416,33.483 35.306,31.136L35.165,28.118C35.109,26.932 35.585,25.782 36.463,24.983L38.697,22.949C40.434,21.367 40.434,18.633 38.697,17.051L36.463,15.017C35.585,14.217 35.109,13.068 35.165,11.882L35.306,8.864C35.416,6.517 33.483,4.584 31.136,4.694L28.118,4.835C26.932,4.891 25.782,4.415 24.983,3.537L22.949,1.303Z" clip-rule="evenodd" fill-rule="evenodd" fill="#FFFFFF" stroke="#FFFFFF" stroke-width="1" stroke-miterlimit="3.999327"/>
<path d="M17.051,1.303C18.633,-0.434 21.367,-0.434 22.949,1.303L24.983,3.537C25.782,4.415 26.932,4.891 28.118,4.835L31.136,4.694C33.483,4.584 35.416,6.517 35.306,8.864L35.165,11.882C35.109,13.068 35.585,14.217 36.463,15.017L38.697,17.051C40.434,18.633 40.434,21.367 38.697,22.949L36.463,24.983C35.585,25.782 35.109,26.932 35.165,28.118L35.306,31.136C35.416,33.483 33.483,35.416 31.136,35.306L28.118,35.165C26.932,35.109 25.782,35.585 24.983,36.463L22.949,38.697C21.367,40.434 18.633,40.434 17.051,38.697L15.017,36.463C14.217,35.585 13.068,35.109 11.882,35.165L8.864,35.306C6.517,35.416 4.584,33.483 4.694,31.136L4.835,28.118C4.891,26.932 4.415,25.782 3.537,24.983L1.303,22.949C-0.434,21.367 -0.434,18.633 1.303,17.051L3.537,15.017C4.415,14.217 4.891,13.068 4.835,11.882L4.694,8.864C4.584,6.517 6.517,4.584 8.864,4.694L11.882,4.835C13.068,4.891 14.217,4.415 15.017,3.537L17.051,1.303Z" fill="#00A3FF" stroke="#000000" stroke-width="1" stroke-miterlimit="3.999327"/>
<path d="M24.491,15.489L26.717,15.489L26.717,22.175L30.18,22.175L30.18,23.974L24.491,23.974L24.491,15.489Z" fill="#FFFFFF"/>
<path d="M17.955,15.489L20.182,15.489L20.182,22.175L23.645,22.175L23.645,23.974L17.955,23.974L17.955,15.489Z" fill="#FFFFFF"/>
<path d="M8.565,23.974L11.383,15.489L14.413,15.489L17.231,23.974L14.823,23.974L12.936,17.769L12.866,17.769L10.973,23.974L8.565,23.974ZM15.21,20.622L15.21,22.304L10.551,22.304L10.551,20.622L15.21,20.622Z" fill="#FFFFFF"/>
</svg>
