<svg width="56" height="58" viewBox="0 0 56 58" fill="none" xmlns="http://www.w3.org/2000/svg" xmlns:xlink="http://www.w3.org/1999/xlink">
<path d="M55,28.638C55,26.644 54.821,24.726 54.489,22.885L28,22.885L28,33.765L43.136,33.765C42.484,37.28 40.503,40.259 37.524,42.253L37.524,49.31L46.614,49.31C51.932,44.414 55,37.203 55,28.638Z" clip-rule="evenodd" fill-rule="evenodd" fill="#4285F4"/>
<path d="M27.999,56.125C35.593,56.125 41.96,53.607 46.613,49.312L37.523,42.255C35.005,43.942 31.783,44.939 27.999,44.939C20.674,44.939 14.474,39.992 12.262,33.344L2.866,33.344L2.866,40.631C7.494,49.823 17.005,56.125 27.999,56.125Z" clip-rule="evenodd" fill-rule="evenodd" fill="#34A853"/>
<path d="M12.263,33.343C11.7,31.655 11.381,29.853 11.381,27.999C11.381,26.145 11.7,24.343 12.263,22.655L12.263,15.368L2.866,15.368C0.962,19.165 -0.125,23.46 -0.125,27.999C-0.125,32.537 0.962,36.833 2.866,40.63L12.263,33.343Z" clip-rule="evenodd" fill-rule="evenodd" fill="#FBBC05"/>
<path d="M27.999,11.061C32.129,11.061 35.836,12.48 38.751,15.267L46.818,7.2C41.947,2.662 35.58,-0.125 27.999,-0.125C17.005,-0.125 7.494,6.178 2.866,15.369L12.262,22.656C14.474,16.009 20.674,11.061 27.999,11.061Z" clip-rule="evenodd" fill-rule="evenodd" fill="#EA4335"/>
</svg>
