<svg width="70" height="74" viewBox="0 0 70 74" fill="none" xmlns="http://www.w3.org/2000/svg" xmlns:xlink="http://www.w3.org/1999/xlink">
<mask id="mask_0_i_1_1916;9748_1224" style="mask-type:alpha" maskUnits="userSpaceOnUse" x="36.000122" y="0" width="17" height="17">
<path d="M70,0L36,0L36,12L57.384,12C60.885,12 62.697,16.181 60.302,18.736L45.991,34L70,34L70,0ZM58.843,17.368C59.679,16.476 59.489,15.187 58.702,14.491C59.489,15.187 59.679,16.476 58.843,17.368L58.843,17.368Z" clip-rule="evenodd" fill-rule="evenodd" fill="#D9D9D9"/>
</mask>
<path d="M30,68L46,74L14,74L30,68Z" fill="#FFFFFF"/>
<path d="M8,24C8,24 15.876,21.646 21,22C27.657,22.46 30.331,27.775 37,28C43.059,28.204 52,24 52,24L30,46L8,24Z" fill="#FFFFFF"/>
<path d="M2.616,14C0.865,14 -0.04,16.091 1.157,17.368L28,46L32,46L58.843,17.368C60.04,16.091 59.134,14 57.383,14L2.616,14ZM7.751,17C6.328,17 5.592,18.699 6.565,19.736L28.375,43L31.625,43L53.435,19.736C54.407,18.699 53.672,17 52.249,17L7.751,17Z" clip-rule="evenodd" fill-rule="evenodd" fill="#FFFFFF"/>
<rect  x="28" y="46" width="4" height="24" fill="#FFFFFF"/>
<line x1="8.852" y1="7.476" x2="24.852" y2="33.476" stroke="#FFFFFF" stroke-width="1" stroke-miterlimit="3.999327"/>
<path d="M49.936,2.912L49.197,2.239L49.197,2.239L49.936,2.912ZM54.064,2.912L54.803,2.239L54.803,2.239L54.064,2.912ZM55.488,4.476L56.227,3.802L56.227,3.802L55.488,4.476ZM57.682,5.385L57.729,6.383L57.729,6.383L57.682,5.385ZM59.795,5.286L59.842,6.285L59.842,6.285L59.795,5.286ZM62.714,8.205L63.713,8.252L63.713,8.252L62.714,8.205ZM62.615,10.318L61.616,10.271L61.616,10.271L62.615,10.318ZM63.524,12.512L64.198,11.773L64.198,11.773L63.524,12.512ZM65.088,13.936L64.415,14.675L64.415,14.675L65.088,13.936ZM65.088,18.064L64.415,17.325L64.415,17.325L65.088,18.064ZM63.524,19.488L64.198,20.227L64.198,20.227L63.524,19.488ZM62.615,21.682L61.616,21.729L61.616,21.729L62.615,21.682ZM62.714,23.795L63.713,23.748L63.713,23.748L62.714,23.795ZM59.795,26.714L59.748,27.713L59.748,27.713L59.795,26.714ZM57.682,26.615L57.729,25.616L57.729,25.616L57.682,26.615ZM55.488,27.524L56.227,28.198L56.227,28.198L55.488,27.524ZM54.064,29.088L53.325,28.415L53.325,28.415L54.064,29.088ZM49.936,29.088L50.675,28.415L50.675,28.415L49.936,29.088ZM48.512,27.524L47.773,28.198L47.773,28.198L48.512,27.524ZM46.318,26.615L46.271,25.616L46.271,25.616L46.318,26.615ZM44.205,26.714L44.252,27.713L44.252,27.713L44.205,26.714ZM41.286,23.795L42.285,23.842L42.285,23.842L41.286,23.795ZM41.385,21.682L42.383,21.729L42.383,21.729L41.385,21.682ZM40.476,19.488L39.802,20.227L39.802,20.227L40.476,19.488ZM38.912,18.064L38.239,18.803L38.239,18.803L38.912,18.064ZM38.912,13.936L38.239,13.197L38.239,13.197L38.912,13.936ZM40.476,12.512L39.802,11.773L39.802,11.773L40.476,12.512ZM41.385,10.318L40.386,10.364L40.386,10.364L41.385,10.318ZM41.286,8.205L42.285,8.158L42.285,8.158L41.286,8.205ZM44.205,5.286L44.158,6.285L44.158,6.285L44.205,5.286ZM46.318,5.385L46.364,4.386L46.364,4.386L46.318,5.385ZM48.512,4.476L47.773,3.802L47.773,3.802L48.512,4.476ZM50.675,3.585C51.386,2.805 52.614,2.805 53.325,3.585L54.803,2.239C53.299,0.587 50.701,0.587 49.197,2.239L50.675,3.585ZM53.325,3.585L54.749,5.149L56.227,3.802L54.803,2.239L53.325,3.585ZM54.749,5.149C55.509,5.984 56.601,6.436 57.729,6.383L57.636,4.386C57.103,4.411 56.587,4.197 56.227,3.802L54.749,5.149ZM57.729,6.383L59.842,6.285L59.748,4.287L57.636,4.386L57.729,6.383ZM59.842,6.285C60.896,6.236 61.765,7.104 61.715,8.158L63.713,8.252C63.817,6.02 61.98,4.183 59.748,4.287L59.842,6.285ZM61.715,8.158L61.616,10.271L63.614,10.364L63.713,8.252L61.715,8.158ZM61.616,10.271C61.564,11.399 62.016,12.491 62.851,13.251L64.198,11.773C63.803,11.413 63.589,10.897 63.614,10.364L61.616,10.271ZM62.851,13.251L64.415,14.675L65.761,13.197L64.198,11.773L62.851,13.251ZM64.415,14.675C65.195,15.386 65.195,16.614 64.415,17.325L65.761,18.803C67.413,17.299 67.413,14.701 65.761,13.197L64.415,14.675ZM64.415,17.325L62.851,18.749L64.198,20.227L65.761,18.803L64.415,17.325ZM62.851,18.749C62.016,19.509 61.564,20.601 61.616,21.729L63.614,21.636C63.589,21.103 63.803,20.587 64.198,20.227L62.851,18.749ZM61.616,21.729L61.715,23.842L63.713,23.748L63.614,21.636L61.616,21.729ZM61.715,23.842C61.765,24.896 60.896,25.765 59.842,25.715L59.748,27.713C61.98,27.817 63.817,25.98 63.713,23.748L61.715,23.842ZM59.842,25.715L57.729,25.616L57.636,27.614L59.748,27.713L59.842,25.715ZM57.729,25.616C56.601,25.564 55.509,26.016 54.749,26.851L56.227,28.198C56.587,27.803 57.103,27.589 57.636,27.614L57.729,25.616ZM54.749,26.851L53.325,28.415L54.803,29.761L56.227,28.198L54.749,26.851ZM53.325,28.415C52.614,29.195 51.386,29.195 50.675,28.415L49.197,29.761C50.701,31.413 53.299,31.413 54.803,29.761L53.325,28.415ZM50.675,28.415L49.251,26.851L47.773,28.198L49.197,29.761L50.675,28.415ZM49.251,26.851C48.491,26.016 47.399,25.564 46.271,25.616L46.364,27.614C46.897,27.589 47.413,27.803 47.773,28.198L49.251,26.851ZM46.271,25.616L44.158,25.715L44.252,27.713L46.364,27.614L46.271,25.616ZM44.158,25.715C43.104,25.765 42.236,24.896 42.285,23.842L40.287,23.748C40.183,25.98 42.02,27.817 44.252,27.713L44.158,25.715ZM42.285,23.842L42.383,21.729L40.386,21.636L40.287,23.748L42.285,23.842ZM42.383,21.729C42.436,20.601 41.984,19.509 41.149,18.749L39.802,20.227C40.197,20.587 40.411,21.103 40.386,21.636L42.383,21.729ZM41.149,18.749L39.585,17.325L38.239,18.803L39.802,20.227L41.149,18.749ZM39.585,17.325C38.805,16.614 38.805,15.386 39.585,14.675L38.239,13.197C36.587,14.701 36.587,17.299 38.239,18.803L39.585,17.325ZM39.585,14.675L41.149,13.251L39.802,11.773L38.239,13.197L39.585,14.675ZM41.149,13.251C41.984,12.491 42.436,11.399 42.383,10.271L40.386,10.364C40.411,10.897 40.197,11.413 39.802,11.773L41.149,13.251ZM42.383,10.271L42.285,8.158L40.287,8.252L40.386,10.364L42.383,10.271ZM42.285,8.158C42.236,7.104 43.104,6.236 44.158,6.285L44.252,4.287C42.02,4.183 40.183,6.02 40.287,8.252L42.285,8.158ZM44.158,6.285L46.271,6.383L46.364,4.386L44.252,4.287L44.158,6.285ZM46.271,6.383C47.399,6.436 48.491,5.984 49.251,5.149L47.773,3.802C47.413,4.197 46.897,4.411 46.364,4.386L46.271,6.383ZM49.251,5.149L50.675,3.585L49.197,2.239L47.773,3.802L49.251,5.149Z" fill="#FFFFFF"/>
</svg>
