<svg width="166" height="166" viewBox="0 0 166 166" fill="none" xmlns="http://www.w3.org/2000/svg" xmlns:xlink="http://www.w3.org/1999/xlink">
<mask id="mask_0_i_1_2026;10291_1648" style="mask-type:alpha" maskUnits="userSpaceOnUse" x="83.64917" y="48.000122" width="15.824176" height="31.648352">
<path d="M115.298,82.813C115.298,103.385 108.213,111.297 99.473,111.297C90.734,111.297 83.649,103.385 83.649,82.813C83.649,62.242 86.814,48 99.473,48C112.133,48 115.298,62.242 115.298,82.813Z" fill="#FFFFFF"/>
</mask>
<mask id="mask_0_i_1_2026;10291_1653" style="mask-type:alpha" maskUnits="userSpaceOnUse" x="52.001221" y="48.000122" width="15.824176" height="31.648352">
<path d="M83.65,82.813C83.65,103.385 76.565,111.297 67.825,111.297C59.086,111.297 52.001,103.385 52.001,82.813C52.001,62.242 55.166,48 67.825,48C80.485,48 83.65,62.242 83.65,82.813Z" fill="#FFFFFF"/>
</mask>
<path d="M70.154,5.36C76.663,-1.787 87.908,-1.787 94.417,5.36L102.787,14.551C106.076,18.163 110.804,20.121 115.685,19.893L128.102,19.313C137.758,18.862 145.71,26.813 145.259,36.469L144.678,48.887C144.45,53.767 146.408,58.495 150.021,61.784L159.211,70.154C166.359,76.663 166.359,87.908 159.211,94.417L150.021,102.787C146.408,106.076 144.45,110.804 144.678,115.685L145.259,128.102C145.71,137.758 137.758,145.71 128.102,145.259L115.685,144.678C110.804,144.45 106.076,146.408 102.787,150.02L94.417,159.211C87.908,166.358 76.663,166.358 70.154,159.211L61.784,150.02C58.495,146.408 53.767,144.45 48.887,144.678L36.47,145.259C26.814,145.71 18.862,137.758 19.313,128.102L19.893,115.685C20.121,110.804 18.163,106.076 14.551,102.787L5.36,94.417C-1.787,87.908 -1.787,76.663 5.36,70.154L14.551,61.784C18.163,58.495 20.121,53.767 19.893,48.887L19.313,36.469C18.862,26.813 26.814,18.862 36.47,19.313L48.887,19.893C53.767,20.121 58.495,18.163 61.784,14.551L70.154,5.36Z" transform="rotate(-360 82.286 82.286)" fill="#000000" stroke="#FFFFFF" stroke-width="2" stroke-miterlimit="3.999327"/>
<path d="M115.298,82.813C115.298,103.385 108.213,111.297 99.473,111.297C90.734,111.297 83.649,103.385 83.649,82.813C83.649,62.242 86.814,48 99.473,48C112.133,48 115.298,62.242 115.298,82.813Z" fill="#FFFFFF"/>
<path d="M105.011,93.648C105.011,102.388 103.429,109.473 97.099,109.473C90.77,109.473 89.187,102.388 89.187,93.648C89.187,84.909 90.77,77.824 97.099,77.824C103.429,77.824 105.011,84.909 105.011,93.648Z" fill="#000000"/>
<path d="M83.65,82.813C83.65,103.385 76.565,111.297 67.825,111.297C59.086,111.297 52.001,103.385 52.001,82.813C52.001,62.242 55.166,48 67.825,48C80.485,48 83.65,62.242 83.65,82.813Z" fill="#FFFFFF"/>
<path d="M77.012,93.648C77.012,102.388 75.43,109.473 69.1,109.473C62.77,109.473 61.188,102.388 61.188,93.648C61.188,84.909 62.77,77.824 69.1,77.824C75.43,77.824 77.012,84.909 77.012,93.648Z" fill="#000000"/>
<path d="M84,42L120,42L120,70L84,52L84,42Z" fill="#000000"/>
<path d="M46,42L82,42L82,70L46,52L46,42Z" transform="rotate(360 64 56)" fill="#000000"/>
<circle cx="56" cy="106" r="4" fill="#00A3FF"/>
<circle cx="118" cy="116" r="2" fill="#00A3FF"/>
<circle cx="112" cy="106" r="4" fill="#00A3FF"/>
</svg>
