<svg width="84" height="84" viewBox="0 0 84 84" fill="none" xmlns="http://www.w3.org/2000/svg" xmlns:xlink="http://www.w3.org/1999/xlink">
<mask id="mask_0_i_1_2049;10245_4350;349_11904" style="mask-type:alpha" maskUnits="userSpaceOnUse" x="17.349121" y="23.011475" width="7.912088" height="15.824176">
<path d="M33.173,40.418C33.173,50.704 29.631,54.66 25.261,54.66C20.891,54.66 17.349,50.704 17.349,40.418C17.349,30.132 18.932,23.011 25.261,23.011C31.591,23.011 33.173,30.132 33.173,40.418Z" fill="#FFFFFF"/>
</mask>
<mask id="mask_0_i_1_2049;10245_4351;349_11904" style="mask-type:alpha" maskUnits="userSpaceOnUse" x="33.17334" y="23.011475" width="7.912088" height="15.824176">
<path d="M48.998,40.418C48.998,50.704 45.455,54.66 41.085,54.66C36.716,54.66 33.173,50.704 33.173,40.418C33.173,30.132 34.756,23.011 41.085,23.011C47.415,23.011 48.998,30.132 48.998,40.418Z" fill="#FFFFFF"/>
</mask>
<path d="M35.02,3.537C38.274,-0.036 43.897,-0.036 47.151,3.537L51.336,8.133C52.981,9.939 55.345,10.918 57.785,10.804L63.994,10.514C68.822,10.288 72.798,14.264 72.572,19.092L72.282,25.301C72.168,27.741 73.147,30.105 74.953,31.749L79.548,35.934C83.122,39.189 83.122,44.811 79.548,48.066L74.953,52.251C73.147,53.895 72.168,56.259 72.282,58.7L72.572,64.908C72.798,69.736 68.822,73.712 63.994,73.487L57.785,73.196C55.345,73.082 52.981,74.061 51.336,75.867L47.151,80.463C43.897,84.036 38.274,84.036 35.02,80.463L30.835,75.867C29.19,74.061 26.826,73.082 24.386,73.196L18.178,73.487C13.35,73.712 9.374,69.736 9.599,64.908L9.889,58.7C10.003,56.259 9.024,53.895 7.218,52.251L2.623,48.066C-0.95,44.811 -0.95,39.189 2.623,35.934L7.218,31.749C9.024,30.105 10.003,27.741 9.889,25.301L9.599,19.092C9.374,14.264 13.35,10.288 18.178,10.514L24.386,10.804C26.826,10.918 29.19,9.939 30.835,8.133L35.02,3.537Z" fill="#000000"/>
<path d="M33.173,40.418C33.173,50.704 29.631,54.66 25.261,54.66C20.891,54.66 17.349,50.704 17.349,40.418C17.349,30.132 18.932,23.011 25.261,23.011C31.591,23.011 33.173,30.132 33.173,40.418Z" fill="#FFFFFF"/>
<path d="M24.47,38.836C24.47,43.205 23.679,46.748 20.514,46.748C17.349,46.748 16.558,43.205 16.558,38.836C16.558,34.466 17.349,30.924 20.514,30.924C23.679,30.924 24.47,34.466 24.47,38.836Z" fill="#000000"/>
<path d="M48.998,40.418C48.998,50.704 45.455,54.66 41.085,54.66C36.716,54.66 33.173,50.704 33.173,40.418C33.173,30.132 34.756,23.011 41.085,23.011C47.415,23.011 48.998,30.132 48.998,40.418Z" fill="#FFFFFF"/>
<path d="M40.294,38.836C40.294,43.205 39.503,46.748 36.338,46.748C33.173,46.748 32.382,43.205 32.382,38.836C32.382,34.466 33.173,30.924 36.338,30.924C39.503,30.924 40.294,34.466 40.294,38.836Z" fill="#000000"/>
</svg>
