<svg width="40" height="32" viewBox="0 0 40 32" fill="none" xmlns="http://www.w3.org/2000/svg" xmlns:xlink="http://www.w3.org/1999/xlink">
<path d="M0,0.5C0,-0.328 0.625,-1 1.395,-1L38.605,-1C39.375,-1 40,-0.328 40,0.5C40,1.328 39.375,2 38.605,2L1.395,2C0.625,2 0,1.328 0,0.5Z" fill="#FFFFFF"/>
<path d="M1.395,9C0.625,9 0,9.672 0,10.5C0,11.328 0.625,12 1.395,12L38.605,12C39.375,12 40,11.328 40,10.5C40,9.672 39.375,9 38.605,9L1.395,9Z" fill="#FFFFFF"/>
<path d="M1.395,19C0.625,19 0,19.672 0,20.5C0,21.328 0.625,22 1.395,22L38.605,22C39.375,22 40,21.328 40,20.5C40,19.672 39.375,19 38.605,19L1.395,19Z" fill="#FFFFFF"/>
<path d="M1.395,29C0.625,29 0,29.672 0,30.5C0,31.328 0.625,32 1.395,32L38.605,32C39.375,32 40,31.328 40,30.5C40,29.672 39.375,29 38.605,29L1.395,29Z" fill="#FFFFFF"/>
</svg>
