<svg width="64" height="64" viewBox="0 0 64 64" fill="none" xmlns="http://www.w3.org/2000/svg" xmlns:xlink="http://www.w3.org/1999/xlink">
<path d="M19.061,16.939C18.475,16.354 17.525,16.354 16.939,16.939C16.354,17.525 16.354,18.475 16.939,19.061L19.061,16.939ZM44.939,47.061C45.525,47.646 46.475,47.646 47.061,47.061C47.646,46.475 47.646,45.525 47.061,44.939L44.939,47.061ZM16.939,19.061L44.939,47.061L47.061,44.939L19.061,16.939L16.939,19.061Z" fill="#FFFFFF"/>
<path d="M19.061,16.939C18.475,16.354 17.525,16.354 16.939,16.939C16.354,17.525 16.354,18.475 16.939,19.061L19.061,16.939ZM44.939,47.061C45.525,47.646 46.475,47.646 47.061,47.061C47.646,46.475 47.646,45.525 47.061,44.939L44.939,47.061ZM16.939,19.061L44.939,47.061L47.061,44.939L19.061,16.939L16.939,19.061Z" transform="rotate(-180 32 32)" fill="#FFFFFF"/>
</svg>
