<svg width="36" height="38" viewBox="0 0 36 38" fill="none" xmlns="http://www.w3.org/2000/svg" xmlns:xlink="http://www.w3.org/1999/xlink">
<path d="M3.6,2C3.6,1.337 4.137,0.8 4.8,0.8C5.463,0.8 6,1.337 6,2L30,2C30,1.337 30.537,0.8 31.2,0.8C31.863,0.8 32.4,1.337 32.4,2L34.8,2C35.463,2 36,2.537 36,3.2L36,36.8C36,37.463 35.463,38 34.8,38L1.2,38C0.537,38 0,37.463 0,36.8L0,3.2C0,2.537 0.537,2 1.2,2L3.6,2ZM2.4,15.2L33.6,15.2L33.6,35.6L2.4,35.6L2.4,15.2Z" clip-rule="evenodd" fill-rule="evenodd" fill="#FFFFFF"/>
</svg>
