<svg width="52" height="46" viewBox="0 0 52 46" fill="none" xmlns="http://www.w3.org/2000/svg" xmlns:xlink="http://www.w3.org/1999/xlink">
<path d="M31.196,3C28.887,-1 23.113,-1 20.804,3L1.751,36C-0.558,40 2.329,45 6.947,45L45.052,45C49.671,45 52.558,40 50.249,36L31.196,3ZM24.268,5C25.038,3.667 26.962,3.667 27.732,5L46.785,38C47.554,39.333 46.592,41 45.052,41L6.947,41C5.408,41 4.446,39.333 5.215,38L24.268,5ZM26.208,16C24.916,16 23.9,17.104 24.008,18.392L24.917,29.3C24.969,29.922 25.488,30.4 26.113,30.4L26.304,30.4C26.928,30.4 27.448,29.922 27.5,29.3L28.409,18.392C28.516,17.104 27.5,16 26.208,16ZM26.208,35.8C27.203,35.8 28.008,34.994 28.008,34C28.008,33.006 27.203,32.2 26.208,32.2C25.214,32.2 24.408,33.006 24.408,34C24.408,34.994 25.214,35.8 26.208,35.8Z" clip-rule="evenodd" fill-rule="evenodd" fill="#FFFFFF"/>
</svg>
