<svg width="48" height="48" viewBox="0 0 48 48" fill="none" xmlns="http://www.w3.org/2000/svg" xmlns:xlink="http://www.w3.org/1999/xlink">
<path d="M24,3.692C12.784,3.692 3.692,12.784 3.692,24C3.692,35.216 12.784,44.308 24,44.308C35.216,44.308 44.308,35.216 44.308,24C44.308,12.784 35.216,3.692 24,3.692ZM0,24C0,10.745 10.745,0 24,0C37.255,0 48,10.745 48,24C48,37.255 37.255,48 24,48C10.745,48 0,37.255 0,24Z" clip-rule="evenodd" fill-rule="evenodd" fill="#FFFFFF"/>
<path d="M26.216,14.4C26.216,15.624 25.224,16.615 24,16.615C22.777,16.615 21.785,15.624 21.785,14.4C21.785,13.176 22.777,12.185 24,12.185C25.224,12.185 26.216,13.176 26.216,14.4Z" fill="#FFFFFF"/>
<path d="M21.785,21.046C21.785,20.23 22.446,19.569 23.262,19.569L24.739,19.569C25.554,19.569 26.216,20.23 26.216,21.046L26.216,34.338C26.216,35.154 25.554,35.815 24.739,35.815L23.262,35.815C22.446,35.815 21.785,35.154 21.785,34.338L21.785,21.046Z" fill="#FFFFFF"/>
</svg>
