<svg width="34" height="34" viewBox="0 0 34 34" fill="none" xmlns="http://www.w3.org/2000/svg" xmlns:xlink="http://www.w3.org/1999/xlink">
<path d="M-0.8,8.4C-0.8,3.982 2.782,0.4 7.2,0.4L24.8,0.4C29.218,0.4 32.8,3.982 32.8,8.4L32.8,16.836C32.8,21.255 29.218,24.836 24.8,24.836L19.054,24.836L19.054,34L12.945,24.836L7.2,24.836C2.782,24.836 -0.8,21.255 -0.8,16.836L-0.8,8.4ZM10.654,12.618C10.654,13.883 9.629,14.909 8.363,14.909C7.098,14.909 6.073,13.883 6.073,12.618C6.073,11.353 7.098,10.327 8.363,10.327C9.629,10.327 10.654,11.353 10.654,12.618ZM18.291,12.618C18.291,13.883 17.265,14.909 16,14.909C14.735,14.909 13.709,13.883 13.709,12.618C13.709,11.353 14.735,10.327 16,10.327C17.265,10.327 18.291,11.353 18.291,12.618ZM23.636,14.909C24.901,14.909 25.927,13.883 25.927,12.618C25.927,11.353 24.901,10.327 23.636,10.327C22.371,10.327 21.345,11.353 21.345,12.618C21.345,13.883 22.371,14.909 23.636,14.909Z" clip-rule="evenodd" fill-rule="evenodd" fill="#FFFFFF"/>
</svg>
