<svg width="54" height="52" viewBox="0 0 54 52" fill="none" xmlns="http://www.w3.org/2000/svg" xmlns:xlink="http://www.w3.org/1999/xlink">
<path d="M51.268,15.006C49.943,11.897 48.07,9.107 45.647,6.683C43.225,4.259 40.483,2.384 37.376,1.058C34.131,-0.314 30.704,-1 27.185,-1C23.621,-1 20.193,-0.314 16.994,1.058C13.887,2.384 11.099,4.259 8.677,6.683C6.255,9.107 4.382,11.897 3.056,15.006C1.685,18.208 1,21.638 1,25.205C1,28.726 1.685,32.156 3.056,35.403C4.382,38.513 6.255,41.302 8.677,43.726C11.099,46.15 13.887,48.025 16.994,49.306C20.239,50.678 23.666,51.364 27.185,51.364C30.704,51.364 34.131,50.678 37.376,49.306C40.483,47.979 43.271,46.104 45.693,43.681C48.115,41.257 49.989,38.467 51.314,35.357C52.685,32.11 53.371,28.68 53.371,25.159C53.371,21.638 52.639,18.208 51.268,15.006ZM18.503,22.735C19.554,18.528 23.392,15.464 27.916,15.464L46.104,15.464C47.293,17.705 48.024,20.174 48.298,22.735L18.503,22.735ZM48.298,27.674C48.024,30.235 47.247,32.705 46.104,34.946L27.916,34.946C23.392,34.946 19.599,31.836 18.503,27.674L48.298,27.674ZM12.15,10.159C16.172,6.134 21.519,3.939 27.185,3.939C32.852,3.939 38.199,6.134 42.22,10.159C42.357,10.296 42.449,10.387 42.586,10.525L27.916,10.525C23.986,10.525 20.331,12.034 17.543,14.823C15.349,17.019 13.933,19.763 13.476,22.735L6.073,22.735C6.621,17.979 8.723,13.589 12.15,10.159ZM27.185,46.47C21.519,46.47 16.172,44.275 12.15,40.251C8.723,36.821 6.621,32.385 6.073,27.674L13.476,27.674C13.978,30.647 15.395,33.391 17.543,35.586C20.331,38.376 23.986,39.885 27.916,39.885L42.586,39.885C42.449,40.022 42.357,40.113 42.22,40.251C38.199,44.275 32.852,46.47 27.185,46.47Z" fill="#000000"/>
</svg>
