<svg width="36" height="36" viewBox="0 0 36 36" fill="none" xmlns="http://www.w3.org/2000/svg" xmlns:xlink="http://www.w3.org/1999/xlink">
<path d="M34,35.5C34.828,35.5 35.5,34.828 35.5,34C35.5,33.172 34.828,32.5 34,32.5L34,35.5ZM2,32.5C1.172,32.5 0.5,33.172 0.5,34C0.5,34.828 1.172,35.5 2,35.5L2,32.5ZM29.727,17.283C30.313,16.697 30.313,15.747 29.727,15.162C29.142,14.576 28.192,14.576 27.606,15.162L29.727,17.283ZM18,26.889L16.939,27.95C17.525,28.535 18.475,28.535 19.061,27.95L18,26.889ZM8.394,15.162C7.808,14.576 6.858,14.576 6.273,15.162C5.687,15.747 5.687,16.697 6.273,17.283L8.394,15.162ZM19.5,2C19.5,1.172 18.828,0.5 18,0.5C17.172,0.5 16.5,1.172 16.5,2L19.5,2ZM34,32.5L2,32.5L2,35.5L34,35.5L34,32.5ZM27.606,15.162L16.939,25.828L19.061,27.95L29.727,17.283L27.606,15.162ZM19.061,25.828L8.394,15.162L6.273,17.283L16.939,27.95L19.061,25.828ZM16.5,2L16.5,26.889L19.5,26.889L19.5,2L16.5,2Z" fill="#FFFFFF"/>
</svg>
