<svg width="82" height="80" viewBox="0 0 82 80" fill="none" xmlns="http://www.w3.org/2000/svg" xmlns:xlink="http://www.w3.org/1999/xlink">
<path d="M36.577,11.954C38.95,9.349 43.05,9.349 45.423,11.954L48.474,15.305C49.674,16.622 51.397,17.336 53.177,17.253L57.704,17.041C61.224,16.877 64.123,19.776 63.959,23.296L63.747,27.823C63.664,29.602 64.378,31.326 65.695,32.525L69.046,35.577C71.651,37.95 71.651,42.05 69.046,44.423L65.695,47.474C64.378,48.674 63.664,50.397 63.747,52.177L63.959,56.704C64.123,60.224 61.224,63.123 57.704,62.959L53.177,62.747C51.397,62.664 49.674,63.378 48.474,64.695L45.423,68.046C43.05,70.651 38.95,70.651 36.577,68.046L33.525,64.695C32.326,63.378 30.602,62.664 28.823,62.747L24.296,62.959C20.776,63.123 17.877,60.224 18.041,56.704L18.253,52.177C18.336,50.397 17.622,48.674 16.305,47.474L12.954,44.423C10.349,42.05 10.349,37.95 12.954,35.577L16.305,32.525C17.622,31.326 18.336,29.602 18.253,27.823L18.041,23.296C17.877,19.776 20.776,16.877 24.296,17.041L28.823,17.253C30.602,17.336 32.326,16.622 33.525,15.305L36.577,11.954Z" fill="#00A3FF"/>
<path d="M51.951,33.652C52.889,34.589 52.889,36.109 51.951,37.046L41.151,47.846C40.214,48.784 38.694,48.784 37.757,47.846L30.557,40.646C29.62,39.709 29.62,38.189 30.557,37.252C31.494,36.315 33.014,36.315 33.951,37.252L39.454,42.755L48.557,33.652C49.494,32.715 51.014,32.715 51.951,33.652Z" clip-rule="evenodd" fill-rule="evenodd" fill="#FFFFFF"/>
</svg>
