<svg width="40" height="42" viewBox="0 0 40 42" fill="none" xmlns="http://www.w3.org/2000/svg" xmlns:xlink="http://www.w3.org/1999/xlink">
<path d="M23.478,41.5C24.306,41.5 24.978,40.828 24.978,40C24.978,39.172 24.306,38.5 23.478,38.5L23.478,41.5ZM15.478,38.5C14.65,38.5 13.978,39.172 13.978,40C13.978,40.828 14.65,41.5 15.478,41.5L15.478,38.5ZM19.478,2L19.478,0.5L19.478,2ZM7.478,14L5.978,14L7.478,14ZM36.555,31.803L35.661,30.598L35.661,30.598L36.555,31.803ZM34.779,27.211L36.052,26.418L34.779,27.211ZM36.955,31.082L35.46,30.959L36.955,31.082ZM4.177,27.211L2.904,26.418L2.904,26.418L4.177,27.211ZM2.001,31.082L0.506,31.204L2.001,31.082ZM2.402,31.803L1.508,33.008L2.402,31.803ZM23.478,38.5L15.478,38.5L15.478,41.5L23.478,41.5L23.478,38.5ZM32.978,14C32.978,10.42 31.556,6.986 29.024,4.454L26.903,6.575C28.872,8.545 29.978,11.215 29.978,14L32.978,14ZM29.024,4.454C26.492,1.922 23.058,0.5 19.478,0.5L19.478,3.5C22.263,3.5 24.934,4.606 26.903,6.575L29.024,4.454ZM19.478,0.5C15.898,0.5 12.464,1.922 9.932,4.454L12.053,6.575C14.023,4.606 16.693,3.5 19.478,3.5L19.478,0.5ZM9.932,4.454C7.4,6.986 5.978,10.42 5.978,14L8.978,14C8.978,11.215 10.084,8.545 12.053,6.575L9.932,4.454ZM5.978,14C5.978,19.914 4.49,23.869 2.904,26.418L5.451,28.003C7.348,24.955 8.978,20.447 8.978,14L5.978,14ZM6.256,33.5L32.7,33.5L32.7,30.5L6.256,30.5L6.256,33.5ZM36.052,26.418C34.466,23.869 32.978,19.914 32.978,14L29.978,14C29.978,20.447 31.608,24.955 33.505,28.003L36.052,26.418ZM32.7,33.5C33.882,33.5 34.816,33.5 35.484,33.474C35.816,33.461 36.129,33.44 36.397,33.401C36.58,33.374 37.05,33.303 37.448,33.008L35.661,30.598C35.926,30.402 36.147,30.405 35.957,30.433C35.851,30.449 35.666,30.465 35.367,30.477C34.772,30.5 33.911,30.5 32.7,30.5L32.7,33.5ZM33.505,28.003C34.246,29.194 34.78,30.053 35.128,30.657C35.304,30.961 35.41,31.163 35.467,31.29C35.496,31.353 35.499,31.367 35.492,31.346C35.489,31.333 35.478,31.296 35.469,31.241C35.461,31.188 35.45,31.089 35.46,30.959L38.45,31.204C38.476,30.888 38.408,30.624 38.367,30.489C38.32,30.331 38.258,30.18 38.199,30.05C38.08,29.789 37.916,29.486 37.728,29.159C37.348,28.5 36.78,27.588 36.052,26.418L33.505,28.003ZM37.448,33.008C37.65,32.858 37.949,32.615 38.165,32.226C38.381,31.837 38.43,31.455 38.45,31.204L35.46,30.959C35.451,31.073 35.446,30.943 35.543,30.769C35.639,30.595 35.753,30.53 35.661,30.598L37.448,33.008ZM2.904,26.418C2.176,27.588 1.608,28.5 1.228,29.159C1.04,29.486 0.876,29.789 0.757,30.05C0.698,30.18 0.636,30.331 0.589,30.489C0.549,30.624 0.48,30.888 0.506,31.204L3.496,30.959C3.506,31.089 3.495,31.188 3.487,31.241C3.478,31.296 3.468,31.333 3.464,31.346C3.457,31.367 3.46,31.353 3.489,31.29C3.546,31.163 3.652,30.961 3.828,30.657C4.176,30.053 4.71,29.194 5.451,28.003L2.904,26.418ZM6.256,30.5C5.045,30.5 4.184,30.5 3.589,30.477C3.29,30.465 3.105,30.449 2.999,30.433C2.809,30.405 3.03,30.402 3.295,30.598L1.508,33.008C1.906,33.303 2.376,33.374 2.56,33.401C2.827,33.44 3.141,33.461 3.473,33.474C4.14,33.5 5.074,33.5 6.256,33.5L6.256,30.5ZM0.506,31.204C0.526,31.455 0.575,31.837 0.791,32.226C1.007,32.615 1.306,32.858 1.508,33.008L3.295,30.598C3.204,30.53 3.317,30.595 3.413,30.769C3.51,30.943 3.505,31.073 3.496,30.959L0.506,31.204Z" fill="#FFFFFF"/>
</svg>
