<svg width="44" height="36" viewBox="0 0 44 36" fill="none" xmlns="http://www.w3.org/2000/svg" xmlns:xlink="http://www.w3.org/1999/xlink">
<path d="M31.6,34L31.6,35.5L31.6,35.5L31.6,34ZM8.4,34L8.4,32.5L8.4,32.5L8.4,34ZM31.6,2L31.6,0.5L31.6,0.5L31.6,2ZM36.5,13C36.5,13.828 37.172,14.5 38,14.5C38.828,14.5 39.5,13.828 39.5,13L36.5,13ZM39.5,23C39.5,22.172 38.828,21.5 38,21.5C37.172,21.5 36.5,22.172 36.5,23L39.5,23ZM2.436,4.184L3.772,4.865L3.772,4.865L2.436,4.184ZM4.184,2.436L4.865,3.772L4.865,3.772L4.184,2.436ZM4.184,33.564L4.865,32.228L4.865,32.228L4.184,33.564ZM2.436,31.816L3.772,31.135L3.772,31.135L2.436,31.816ZM35.816,33.564L35.135,32.228L35.135,32.228L35.816,33.564ZM37.564,31.816L36.228,31.135L36.228,31.135L37.564,31.816ZM35.816,2.436L36.497,1.099L36.497,1.099L35.816,2.436ZM37.564,4.184L36.228,4.865L36.228,4.865L37.564,4.184ZM28,18L26.5,18L26.5,18L28,18ZM28.077,16.22L29.548,16.512L28.077,16.22ZM33,13L33,14.5L33,14.5L33,13ZM31.22,13.077L30.927,11.606L31.22,13.077ZM33,23L33,24.5L33,24.5L33,23ZM31.22,22.923L31.512,21.452L31.22,22.923ZM28.077,19.78L29.548,19.488L28.077,19.78ZM41.923,19.78L40.452,19.488L41.923,19.78ZM37,23L37,21.5L37,21.5L37,23ZM38.78,22.923L39.073,24.394L38.78,22.923ZM41.923,16.22L40.452,16.512L41.923,16.22ZM37,13L37,11.5L37,11.5L37,13ZM38.78,13.077L39.073,11.606L38.78,13.077ZM31.6,32.5L8.4,32.5L8.4,35.5L31.6,35.5L31.6,32.5ZM3.5,27.6L3.5,8.4L0.5,8.4L0.5,27.6L3.5,27.6ZM8.4,3.5L31.6,3.5L31.6,0.5L8.4,0.5L8.4,3.5ZM39.5,13L39.5,8.4L36.5,8.4L36.5,13L39.5,13ZM39.5,27.6L39.5,23L36.5,23L36.5,27.6L39.5,27.6ZM3.5,8.4C3.5,7.255 3.501,6.487 3.55,5.895C3.596,5.321 3.68,5.046 3.772,4.865L1.099,3.503C0.756,4.178 0.622,4.891 0.559,5.651C0.499,6.393 0.5,7.305 0.5,8.4L3.5,8.4ZM8.4,0.5C7.305,0.5 6.393,0.499 5.651,0.559C4.891,0.622 4.178,0.756 3.503,1.099L4.865,3.772C5.046,3.68 5.321,3.596 5.895,3.55C6.487,3.501 7.255,3.5 8.4,3.5L8.4,0.5ZM3.772,4.865C4.012,4.395 4.395,4.012 4.865,3.772L3.503,1.099C2.468,1.627 1.627,2.468 1.099,3.503L3.772,4.865ZM8.4,32.5C7.255,32.5 6.487,32.499 5.895,32.45C5.321,32.404 5.046,32.32 4.865,32.228L3.503,34.901C4.178,35.244 4.891,35.378 5.651,35.441C6.393,35.501 7.305,35.5 8.4,35.5L8.4,32.5ZM0.5,27.6C0.5,28.695 0.499,29.607 0.559,30.349C0.622,31.109 0.756,31.822 1.099,32.497L3.772,31.135C3.68,30.954 3.596,30.679 3.55,30.105C3.501,29.513 3.5,28.745 3.5,27.6L0.5,27.6ZM4.865,32.228C4.395,31.988 4.012,31.605 3.772,31.135L1.099,32.497C1.627,33.532 2.468,34.373 3.503,34.901L4.865,32.228ZM31.6,35.5C32.695,35.5 33.607,35.501 34.349,35.441C35.109,35.378 35.822,35.244 36.497,34.901L35.135,32.228C34.954,32.32 34.679,32.404 34.105,32.45C33.513,32.499 32.745,32.5 31.6,32.5L31.6,35.5ZM36.5,27.6C36.5,28.745 36.499,29.513 36.45,30.105C36.404,30.679 36.32,30.954 36.228,31.135L38.901,32.497C39.244,31.822 39.378,31.109 39.441,30.349C39.501,29.607 39.5,28.695 39.5,27.6L36.5,27.6ZM36.497,34.901C37.532,34.373 38.373,33.532 38.901,32.497L36.228,31.135C35.988,31.605 35.605,31.988 35.135,32.228L36.497,34.901ZM31.6,3.5C32.745,3.5 33.513,3.501 34.105,3.55C34.679,3.596 34.954,3.68 35.135,3.772L36.497,1.099C35.822,0.756 35.109,0.622 34.349,0.559C33.607,0.499 32.695,0.5 31.6,0.5L31.6,3.5ZM39.5,8.4C39.5,7.305 39.501,6.393 39.441,5.651C39.378,4.891 39.244,4.178 38.901,3.503L36.228,4.865C36.32,5.046 36.404,5.321 36.45,5.895C36.499,6.487 36.5,7.255 36.5,8.4L39.5,8.4ZM35.135,3.772C35.605,4.012 35.988,4.395 36.228,4.865L38.901,3.503C38.373,2.468 37.532,1.627 36.497,1.099L35.135,3.772ZM37,21.5L33,21.5L33,24.5L37,24.5L37,21.5ZM33,14.5L37,14.5L37,11.5L33,11.5L33,14.5ZM29.5,18C29.5,16.999 29.507,16.717 29.548,16.512L26.606,15.927C26.493,16.495 26.5,17.143 26.5,18L29.5,18ZM33,11.5C32.143,11.5 31.495,11.493 30.927,11.606L31.512,14.548C31.717,14.507 31.999,14.5 33,14.5L33,11.5ZM29.548,16.512C29.745,15.521 30.521,14.745 31.512,14.548L30.927,11.606C28.745,12.04 27.04,13.745 26.606,15.927L29.548,16.512ZM33,21.5C31.999,21.5 31.717,21.493 31.512,21.452L30.927,24.394C31.495,24.507 32.143,24.5 33,24.5L33,21.5ZM26.5,18C26.5,18.857 26.493,19.505 26.606,20.073L29.548,19.488C29.507,19.283 29.5,19.001 29.5,18L26.5,18ZM31.512,21.452C30.521,21.255 29.745,20.479 29.548,19.488L26.606,20.073C27.04,22.255 28.745,23.96 30.927,24.394L31.512,21.452ZM40.5,18C40.5,19.001 40.493,19.283 40.452,19.488L43.394,20.073C43.507,19.505 43.5,18.857 43.5,18L40.5,18ZM37,24.5C37.857,24.5 38.505,24.507 39.073,24.394L38.488,21.452C38.283,21.493 38.001,21.5 37,21.5L37,24.5ZM40.452,19.488C40.255,20.479 39.479,21.255 38.488,21.452L39.073,24.394C41.255,23.96 42.96,22.255 43.394,20.073L40.452,19.488ZM43.5,18C43.5,17.143 43.507,16.495 43.394,15.927L40.452,16.512C40.493,16.717 40.5,16.999 40.5,18L43.5,18ZM37,14.5C38.001,14.5 38.283,14.507 38.488,14.548L39.073,11.606C38.505,11.493 37.857,11.5 37,11.5L37,14.5ZM43.394,15.927C42.96,13.745 41.255,12.04 39.073,11.606L38.488,14.548C39.479,14.745 40.255,15.521 40.452,16.512L43.394,15.927Z" fill="#FFFFFF"/>
</svg>
