<svg width="42" height="40" viewBox="0 0 42 40" fill="none" xmlns="http://www.w3.org/2000/svg" xmlns:xlink="http://www.w3.org/1999/xlink">
<path d="M32.732,7.276L33.793,6.216L33.793,6.216L32.732,7.276ZM40,16L40,17.5C40.828,17.5 41.5,16.828 41.5,16L40,16ZM38.738,25.416C38.967,24.62 38.508,23.788 37.712,23.559C36.916,23.329 36.085,23.788 35.855,24.584L38.738,25.416ZM41.5,4C41.5,3.172 40.828,2.5 40,2.5C39.172,2.5 38.5,3.172 38.5,4L41.5,4ZM28,14.5C27.172,14.5 26.5,15.172 26.5,16C26.5,16.828 27.172,17.5 28,17.5L28,14.5ZM0.5,20C0.5,30.77 9.23,39.5 20,39.5L20,36.5C10.887,36.5 3.5,29.113 3.5,20L0.5,20ZM20,0.5C9.23,0.5 0.5,9.23 0.5,20L3.5,20C3.5,10.887 10.887,3.5 20,3.5L20,0.5ZM33.793,6.216C30.266,2.686 25.387,0.5 20,0.5L20,3.5C24.559,3.5 28.683,5.347 31.671,8.337L33.793,6.216ZM31.671,8.337C33.238,9.905 35.012,12.031 36.414,13.794C37.11,14.67 37.706,15.445 38.127,16.001C38.338,16.279 38.505,16.502 38.618,16.655C38.675,16.731 38.719,16.79 38.748,16.829C38.762,16.849 38.773,16.864 38.781,16.874C38.784,16.879 38.787,16.882 38.789,16.885C38.789,16.886 38.79,16.887 38.79,16.887C38.791,16.887 38.791,16.887 38.791,16.888C38.791,16.888 38.791,16.888 38.791,16.888C38.791,16.888 38.791,16.888 40,16C41.209,15.112 41.209,15.112 41.209,15.112C41.209,15.112 41.209,15.112 41.209,15.112C41.209,15.112 41.208,15.111 41.208,15.111C41.208,15.11 41.207,15.109 41.206,15.108C41.203,15.105 41.2,15.1 41.196,15.095C41.188,15.084 41.176,15.067 41.16,15.046C41.129,15.004 41.083,14.942 41.024,14.863C40.906,14.704 40.734,14.475 40.518,14.189C40.086,13.619 39.476,12.825 38.762,11.927C37.344,10.143 35.484,7.908 33.793,6.216L31.671,8.337ZM20,39.5C28.892,39.5 36.391,33.549 38.738,25.416L35.855,24.584C33.869,31.468 27.52,36.5 20,36.5L20,39.5ZM38.5,4L38.5,16L41.5,16L41.5,4L38.5,4ZM40,14.5L28,14.5L28,17.5L40,17.5L40,14.5Z" fill="#FFFFFF"/>
</svg>
