<svg width="44" height="44" viewBox="0 0 44 44" fill="none" xmlns="http://www.w3.org/2000/svg" xmlns:xlink="http://www.w3.org/1999/xlink">
<path d="M35.061,0.939C34.475,0.354 33.525,0.354 32.939,0.939C32.354,1.525 32.354,2.475 32.939,3.061L35.061,0.939ZM40.939,11.061C41.525,11.646 42.475,11.646 43.061,11.061C43.646,10.475 43.646,9.525 43.061,8.939L40.939,11.061ZM2,42L0.553,41.605C0.411,42.125 0.559,42.68 0.939,43.061C1.32,43.441 1.875,43.589 2.395,43.447L2,42ZM6.202,29.798L5.141,28.738L5.141,28.738L6.202,29.798ZM5.347,30.722L4.134,29.839L4.134,29.839L5.347,30.722ZM4.553,32.64L3.106,32.245L4.553,32.64ZM4.93,31.439L6.299,32.053L6.299,32.053L4.93,31.439ZM29.131,9.131L30.192,8.071L30.192,8.071L29.131,9.131ZM28.309,8.463L28.773,7.037L28.773,7.037L28.309,8.463ZM26.869,9.131L27.929,10.192L27.929,10.192L26.869,9.131ZM27.691,8.463L27.227,7.037L27.227,7.037L27.691,8.463ZM34.869,17.131L35.929,18.192L35.929,18.192L34.869,17.131ZM35.537,16.309L36.963,16.773L36.963,16.773L35.537,16.309ZM34.869,14.869L33.808,15.929L33.808,15.929L34.869,14.869ZM35.537,15.691L36.963,15.227L36.963,15.227L35.537,15.691ZM14.202,37.798L13.141,36.738L13.141,36.738L14.202,37.798ZM13.278,38.653L14.161,39.866L14.161,39.866L13.278,38.653ZM11.36,39.447L10.966,38L10.966,38L11.36,39.447ZM12.561,39.07L11.947,37.701L11.947,37.701L12.561,39.07ZM32.939,3.061L40.939,11.061L43.061,8.939L35.061,0.939L32.939,3.061ZM15.262,38.859L35.929,18.192L33.808,16.071L13.141,36.738L15.262,38.859ZM35.929,13.808L30.192,8.071L28.071,10.192L33.808,15.929L35.929,13.808ZM25.808,8.071L5.141,28.738L7.262,30.859L27.929,10.192L25.808,8.071ZM3.106,32.245L0.553,41.605L3.447,42.395L6,33.034L3.106,32.245ZM2.395,43.447L11.755,40.894L10.966,38L1.605,40.553L2.395,43.447ZM5.141,28.738C4.725,29.153 4.403,29.47 4.134,29.839L6.559,31.605C6.658,31.469 6.783,31.338 7.262,30.859L5.141,28.738ZM6,33.034C6.178,32.38 6.23,32.207 6.299,32.053L3.562,30.825C3.375,31.241 3.26,31.678 3.106,32.245L6,33.034ZM4.134,29.839C3.91,30.147 3.718,30.477 3.562,30.825L6.299,32.053C6.37,31.895 6.457,31.745 6.559,31.605L4.134,29.839ZM30.192,8.071C30.012,7.89 29.813,7.69 29.628,7.533C29.43,7.365 29.15,7.159 28.773,7.037L27.845,9.89C27.696,9.841 27.63,9.772 27.687,9.82C27.714,9.844 27.756,9.882 27.824,9.948C27.892,10.013 27.969,10.091 28.071,10.192L30.192,8.071ZM27.929,10.192C28.031,10.091 28.108,10.013 28.176,9.948C28.244,9.882 28.286,9.844 28.313,9.82C28.37,9.772 28.304,9.841 28.155,9.89L27.227,7.037C26.85,7.159 26.57,7.365 26.372,7.533C26.187,7.69 25.988,7.89 25.808,8.071L27.929,10.192ZM28.773,7.037C28.27,6.873 27.73,6.873 27.227,7.037L28.155,9.89C28.054,9.922 27.946,9.922 27.845,9.89L28.773,7.037ZM35.929,18.192C36.11,18.012 36.31,17.813 36.467,17.628C36.635,17.43 36.841,17.15 36.963,16.773L34.11,15.845C34.159,15.696 34.228,15.63 34.18,15.687C34.156,15.714 34.118,15.756 34.052,15.824C33.987,15.892 33.909,15.969 33.808,16.071L35.929,18.192ZM33.808,15.929C33.909,16.031 33.987,16.108 34.052,16.176C34.118,16.244 34.156,16.286 34.18,16.313C34.228,16.37 34.159,16.304 34.11,16.155L36.963,15.227C36.841,14.85 36.635,14.57 36.467,14.372C36.31,14.187 36.11,13.988 35.929,13.808L33.808,15.929ZM36.963,16.773C37.127,16.27 37.127,15.73 36.963,15.227L34.11,16.155C34.078,16.054 34.078,15.946 34.11,15.845L36.963,16.773ZM13.141,36.738C12.662,37.217 12.531,37.342 12.395,37.441L14.161,39.866C14.53,39.597 14.847,39.275 15.262,38.859L13.141,36.738ZM11.755,40.894C12.322,40.74 12.759,40.625 13.175,40.438L11.947,37.701C11.793,37.77 11.62,37.822 10.966,38L11.755,40.894ZM12.395,37.441C12.255,37.543 12.105,37.63 11.947,37.701L13.175,40.438C13.523,40.282 13.853,40.09 14.161,39.866L12.395,37.441Z" fill="#FFFFFF"/>
</svg>
