<svg width="56" height="56" viewBox="0 0 56 56" fill="none" xmlns="http://www.w3.org/2000/svg" xmlns:xlink="http://www.w3.org/1999/xlink">
<path d="M27.333,56C42.797,56 55.333,43.464 55.333,28C55.333,12.536 42.797,0 27.333,0C11.869,0 -0.667,12.536 -0.667,28C-0.667,43.464 11.869,56 27.333,56Z" fill="#6F41D8"/>
<path d="M36.245,22.213C35.599,21.837 34.761,21.837 34.05,22.213L29.012,25.108L25.591,26.994L20.552,29.887C19.907,30.265 19.068,30.265 18.358,29.887L14.354,27.622C13.708,27.246 13.257,26.555 13.257,25.799L13.257,21.333C13.257,20.579 13.643,19.887 14.354,19.509L18.291,17.308C18.939,16.93 19.779,16.93 20.489,17.308L24.427,19.509C25.074,19.887 25.526,20.579 25.526,21.333L25.526,24.227L28.947,22.276L28.947,19.383C28.951,19.008 28.85,18.638 28.657,18.316C28.463,17.994 28.184,17.732 27.85,17.56L20.552,13.409C19.907,13.031 19.068,13.031 18.358,13.409L10.931,17.56C10.597,17.732 10.318,17.994 10.124,18.316C9.93,18.638 9.83,19.008 9.834,19.383L9.834,27.748C9.834,28.504 10.22,29.196 10.931,29.574L18.358,33.725C19.004,34.101 19.844,34.101 20.552,33.725L25.591,30.893L29.012,28.944L34.05,26.114C34.696,25.736 35.534,25.736 36.245,26.114L40.184,28.315C40.831,28.692 41.281,29.383 41.281,30.139L41.281,34.605C41.281,35.359 40.896,36.05 40.184,36.428L36.246,38.693C35.599,39.071 34.759,39.071 34.05,38.693L30.111,36.491C29.463,36.113 29.012,35.422 29.012,34.668L29.012,31.773L25.591,33.725L25.591,36.617C25.591,37.372 25.977,38.065 26.688,38.441L34.115,42.592C34.761,42.97 35.599,42.97 36.309,42.592L43.736,38.441C44.382,38.065 44.834,37.373 44.834,36.617L44.834,28.252C44.837,27.877 44.737,27.507 44.543,27.185C44.349,26.863 44.07,26.601 43.736,26.429L36.246,22.213L36.245,22.213Z" fill="#FFFFFF"/>
</svg>
