<svg width="56" height="56" viewBox="0 0 56 56" fill="none" xmlns="http://www.w3.org/2000/svg" xmlns:xlink="http://www.w3.org/1999/xlink">
<path d="M27.333,56C42.797,56 55.333,43.464 55.333,28C55.333,12.536 42.797,0 27.333,0C11.869,0 -0.667,12.536 -0.667,28C-0.667,43.464 11.869,56 27.333,56Z" fill="#627EEA"/>
<path d="M28.205,7.001L28.205,22.523L41.325,28.386L28.205,7.001Z" fill="#FFFFFF" fill-opacity="0.7"/>
<path d="M28.205,7L15.083,28.385L28.205,22.523L28.205,7Z" fill="#FFFFFF"/>
<path d="M28.205,38.445L28.205,48.992L41.333,30.829L28.205,38.445Z" fill="#FFFFFF" fill-opacity="0.7"/>
<path d="M28.205,48.992L28.205,38.443L15.083,30.829L28.205,48.992Z" fill="#FFFFFF"/>
<path d="M28.205,36.004L41.325,28.386L28.205,22.527L28.205,36.004Z" fill="#FFFFFF" fill-opacity="0.2"/>
<path d="M15.083,28.386L28.205,36.004L28.205,22.527L15.083,28.386Z" fill="#FFFFFF" fill-opacity="0.7"/>
</svg>
