<svg width="60" height="66" viewBox="0 0 60 66" fill="none" xmlns="http://www.w3.org/2000/svg" xmlns:xlink="http://www.w3.org/1999/xlink">
<path d="M9.629,44.147C10.522,43.167 12.066,43.167 12.959,44.147L14.108,45.409C14.559,45.905 15.208,46.173 15.878,46.142L17.583,46.063C18.908,46.001 19.999,47.092 19.937,48.417L19.858,50.122C19.826,50.791 20.095,51.44 20.591,51.892L21.852,53.041C22.833,53.934 22.833,55.478 21.852,56.371L20.591,57.52C20.095,57.971 19.826,58.62 19.858,59.29L19.937,60.994C19.999,62.32 18.908,63.411 17.583,63.349L15.878,63.269C15.208,63.238 14.559,63.507 14.108,64.003L12.959,65.264C12.066,66.245 10.522,66.245 9.629,65.264L8.48,64.003C8.029,63.507 7.38,63.238 6.71,63.269L5.006,63.349C3.68,63.411 2.589,62.32 2.651,60.994L2.73,59.29C2.762,58.62 2.493,57.971 1.997,57.52L0.736,56.371C-0.245,55.478 -0.245,53.934 0.736,53.041L1.997,51.892C2.493,51.44 2.762,50.791 2.73,50.122L2.651,48.417C2.589,47.092 3.68,46.001 5.006,46.063L6.71,46.142C7.38,46.173 8.029,45.905 8.48,45.409L9.629,44.147Z" transform="rotate(0 11.294 54.706)" fill="#FFFFFF"/>
<path d="M46.439,32.853C47.333,31.872 48.876,31.872 49.77,32.853L50.918,34.115C51.37,34.611 52.019,34.879 52.689,34.848L54.393,34.768C55.718,34.707 56.81,35.798 56.748,37.123L56.668,38.828C56.637,39.497 56.906,40.146 57.401,40.598L58.663,41.747C59.644,42.64 59.644,44.183 58.663,45.077L57.401,46.226C56.906,46.677 56.637,47.326 56.668,47.996L56.748,49.7C56.81,51.026 55.718,52.117 54.393,52.055L52.689,51.975C52.019,51.944 51.37,52.213 50.918,52.709L49.77,53.97C48.876,54.951 47.333,54.951 46.439,53.97L45.29,52.709C44.839,52.213 44.19,51.944 43.52,51.975L41.816,52.055C40.491,52.117 39.399,51.026 39.461,49.7L39.541,47.996C39.572,47.326 39.303,46.677 38.807,46.226L37.546,45.077C36.565,44.183 36.565,42.64 37.546,41.747L38.807,40.598C39.303,40.146 39.572,39.497 39.541,38.828L39.461,37.123C39.399,35.798 40.491,34.707 41.816,34.768L43.52,34.848C44.19,34.879 44.839,34.611 45.29,34.115L46.439,32.853Z" transform="rotate(0 48.104 43.412)" fill="#FFFFFF"/>
<path d="M55.634,2L57.634,2C57.634,1.366 57.333,0.769 56.823,0.392C56.313,0.015 55.654,-0.098 55.047,0.088L55.634,2ZM18.824,13.294L18.237,11.382C17.397,11.64 16.824,12.416 16.824,13.294L18.824,13.294ZM57.634,43.412L57.634,2L53.634,2L53.634,43.412L57.634,43.412ZM55.047,0.088L18.237,11.382L19.41,15.206L56.221,3.912L55.047,0.088ZM16.824,13.294L16.824,54.706L20.824,54.706L20.824,13.294L16.824,13.294Z" transform="rotate(0 37.229 28.353)" fill="#FFFFFF"/>
<path d="M55.047,13.474L18.237,24.768L19.41,28.592L56.221,17.298L55.047,13.474Z" transform="rotate(0 37.229 21.033)" fill="#FFFFFF"/>
</svg>
