<svg width="200" height="120" viewBox="0 0 200 120" fill="none" xmlns="http://www.w3.org/2000/svg" xmlns:xlink="http://www.w3.org/1999/xlink">
<path d="M85.126,12C72.261,34.513 56.717,27.276 50.553,20.844C52.482,36.925 36.884,37.729 28.844,36.121C44.925,48.342 29.648,62.653 20,68.281C36.884,65.065 39.832,80.61 39.296,90.794C64.382,81.789 68.509,94.546 67.437,102.05C85.447,80.181 99.062,95.618 103.618,106.07C111.98,88.704 125.863,96.154 131.759,102.05C136.905,85.97 152.127,87.846 159.095,90.794C152.663,69.889 167.94,65.869 178.392,61.849C160.704,54.613 163.384,47.645 172.764,39.337C151.538,43.196 148.375,29.152 149.447,21.648C124.362,35.799 119.698,21.648 120.503,12.804C99.276,32.744 88.074,20.576 85.126,12Z" fill="#055AFF" stroke="#000000" stroke-width="1" stroke-miterlimit="3.999327" stroke-linejoin="round"/>
<path d="M154.247,44.608C154.372,44.981 154.513,45.246 154.669,45.402C154.825,45.526 154.935,45.619 154.997,45.682C155.154,45.837 155.075,46.118 154.763,46.522C154.481,47.083 154.09,47.737 153.59,48.484C152.683,49.822 152.105,50.803 151.855,51.426C150.573,53.979 149.572,56.329 148.853,58.477C148.134,60.595 147.524,62.509 147.024,64.222C146.524,65.934 146.039,67.444 145.57,68.751C145.007,70.277 144.35,71.413 143.6,72.16C143.225,72.783 142.553,73.203 141.583,73.421C140.614,73.639 139.629,73.686 138.628,73.561C137.628,73.406 136.768,73.079 136.049,72.581C135.361,72.083 135.111,71.429 135.298,70.619C135.642,67.693 136.158,65.233 136.846,63.241C137.565,61.248 138.175,59.598 138.675,58.291C139.207,56.983 139.66,55.816 140.036,54.788C140.411,53.73 140.755,52.827 141.067,52.08C141.411,51.301 141.802,50.492 142.24,49.651C142.678,48.779 143.147,47.908 143.647,47.036C144.179,46.133 144.71,45.308 145.242,44.561C146.461,42.849 147.493,41.837 148.337,41.525C149.181,41.183 150.026,40.981 150.87,40.918C151.745,40.856 152.496,40.949 153.121,41.199C153.778,41.448 154.231,41.852 154.481,42.413C154.731,42.973 154.653,43.705 154.247,44.608ZM143.037,79.819C142.693,81.096 141.974,82.045 140.88,82.668C139.817,83.322 138.675,83.664 137.456,83.695C136.236,83.758 135.095,83.524 134.032,82.995C133,82.497 132.359,81.703 132.109,80.613C131.828,79.555 131.984,78.652 132.578,77.905C133.203,77.126 133.938,76.628 134.782,76.41C135.627,76.161 136.612,75.99 137.737,75.896C138.894,75.803 139.942,75.865 140.88,76.083C141.818,76.301 142.537,76.706 143.037,77.297C143.538,77.889 143.538,78.73 143.037,79.819Z" fill="#000000" stroke="#000000" stroke-width="1" stroke-miterlimit="3.999327"/>
<path d="M122.31,58.571C125.499,49.013 127.625,44.234 128.689,44.234C128.814,44.234 128.954,44.25 129.111,44.281C129.611,44.312 130.174,44.109 130.799,43.674C131.612,42.989 132.55,42.459 133.613,42.086C134.708,41.712 135.771,41.572 136.803,41.666C139.21,41.883 140.727,43.144 141.352,45.448L141.352,45.588C141.196,46.024 141.039,46.382 140.883,46.662L141.071,46.662C140.289,47.628 139.539,48.888 138.819,50.445C138.1,51.971 137.553,53.169 137.178,54.041C136.803,54.882 136.271,55.956 135.583,57.263C134.895,58.571 134.098,60.174 133.191,62.073C132.316,63.972 131.393,65.856 130.424,67.724C128.11,72.207 125.812,75.725 123.529,78.278C122.372,79.679 120.809,80.364 118.839,80.333C117.995,80.302 117.182,80.084 116.4,79.679C115.618,79.274 115.009,78.652 114.571,77.811L113.586,74.869C113.18,75.212 112.711,75.647 112.179,76.177C111.647,76.706 111.085,77.251 110.491,77.811C109.115,79.119 108.052,79.804 107.301,79.866C106.551,79.928 105.91,79.928 105.378,79.866C104.847,79.835 104.346,79.726 103.877,79.539C102.814,79.134 102.126,78.356 101.814,77.204C101.282,71.88 101.548,65.078 102.611,56.796C102.892,54.773 103.143,52.78 103.361,50.819C103.893,48.048 104.894,46.055 106.363,44.841C107.614,43.783 108.833,43.471 110.022,43.907C110.553,44.094 110.96,44.405 111.241,44.841C111.522,45.277 111.616,45.806 111.522,46.429C111.585,48.328 111.569,49.745 111.475,50.679C111.35,52.266 111.304,53.434 111.335,54.181C111.366,54.928 111.35,55.551 111.288,56.049C111.257,56.516 111.225,56.968 111.194,57.403C111.194,57.808 111.21,58.151 111.241,58.431C111.304,58.68 111.429,58.727 111.616,58.571C112.335,57.045 112.945,55.94 113.445,55.255C113.946,54.57 114.477,53.854 115.04,53.107C115.916,52.329 116.682,52.033 117.338,52.22C117.682,52.282 118.042,52.406 118.417,52.593C118.792,52.749 119.292,52.889 119.918,53.014C120.324,53.356 120.59,53.73 120.715,54.134C120.809,54.228 120.903,54.321 120.997,54.415C121.09,54.477 121.153,54.57 121.184,54.695C121.247,54.788 121.325,55.022 121.419,55.395C121.544,55.769 121.669,56.174 121.794,56.609C121.919,57.014 122.028,57.419 122.122,57.824C122.216,58.197 122.279,58.446 122.31,58.571ZM123.435,78.138C123.435,78.2 123.435,78.216 123.435,78.185C123.467,78.122 123.482,78.06 123.482,77.998L123.435,78.138Z" fill="#000000" stroke="#000000" stroke-width="1" stroke-miterlimit="3.999327"/>
<path d="M85.425,72.394C87.239,72.581 88.583,72.674 89.459,72.674C90.366,72.674 91.726,72.55 93.539,72.301C94.102,72.487 94.431,72.721 94.524,73.001C94.618,73.281 94.649,73.577 94.618,73.888C94.587,74.169 94.603,74.449 94.665,74.729C94.728,75.009 95.025,75.243 95.556,75.429C95.838,75.523 95.916,75.803 95.791,76.27C95.697,76.706 95.447,77.189 95.04,77.718C94.008,79.056 92.789,79.991 91.382,80.52C89.131,81.08 87.364,81.407 86.082,81.5C83.956,81.656 81.642,81.578 79.141,81.267C76.389,80.769 75.06,79.632 75.154,77.858C75.154,71.32 76.592,64.751 79.469,58.151C80.407,56.002 81.47,53.745 82.658,51.379C82.908,50.881 83.049,50.321 83.08,49.698C83.143,49.075 83.19,48.468 83.221,47.877C83.252,47.285 83.346,46.756 83.502,46.289C83.659,45.822 83.987,45.495 84.487,45.308C90.991,42.724 96.135,41.728 99.918,42.319C101.231,42.35 102.091,42.802 102.498,43.674C102.935,44.514 102.982,45.464 102.638,46.522C102.326,47.581 101.685,48.577 100.715,49.511C99.777,50.445 98.589,51.021 97.151,51.239C95.306,51.768 94.18,52.126 93.774,52.313C92.992,52.687 92.429,53.185 92.085,53.807C91.648,54.492 91.241,55.146 90.866,55.769C90.491,56.392 90.225,57.061 90.069,57.777L89.881,58.804C90.475,59.085 91.194,59.178 92.039,59.085C92.914,58.96 93.711,58.851 94.431,58.758C95.181,58.633 95.775,58.618 96.213,58.711C96.682,58.804 96.776,59.271 96.494,60.112C96.244,60.921 95.759,61.84 95.04,62.867C94.352,63.895 93.367,64.642 92.085,65.109C91.272,65.264 90.71,65.389 90.397,65.482C90.116,65.545 89.897,65.591 89.74,65.623C89.521,65.654 88.896,65.7 87.864,65.763C86.395,68.253 85.504,70.184 85.191,71.553C85.066,72.114 85.144,72.394 85.425,72.394Z" fill="#000000" stroke="#000000" stroke-width="1" stroke-miterlimit="3.999327"/>
<path d="M49.92,60.159C50.545,58.073 51.046,56.469 51.421,55.349C51.827,54.197 52.218,53.169 52.593,52.266C52.969,51.364 53.391,50.492 53.86,49.651C54.36,48.811 54.891,48.048 55.454,47.363C56.048,46.647 56.674,46.086 57.33,45.682C57.987,45.277 58.675,45.075 59.394,45.075C60.113,45.075 60.864,45.355 61.645,45.915C62.896,49.029 63.662,51.114 63.944,52.173C64.319,53.73 64.663,55.925 64.975,58.758C65.257,58.042 65.57,57.294 65.914,56.516C66.289,55.707 66.648,54.897 66.992,54.088C67.962,52.033 68.571,50.476 68.821,49.418C69.509,47.238 70.932,45.604 73.09,44.514C74.966,43.58 76.717,43.284 78.343,43.627C78.999,43.751 79.453,44.016 79.703,44.421C79.984,44.826 79.984,45.246 79.703,45.682C79.453,46.118 79.359,46.538 79.421,46.943C79.515,47.316 79.593,47.768 79.656,48.297C79.75,49.729 79.499,51.006 78.905,52.126C78.311,53.216 77.702,54.586 77.076,56.236C76.451,57.855 75.81,59.583 75.153,61.42C74.528,63.256 73.887,65.124 73.23,67.024C72.574,68.923 71.933,70.651 71.307,72.207C69.931,75.788 68.806,77.764 67.93,78.138C66.742,78.854 65.867,79.274 65.304,79.399C64.585,79.523 63.568,79.523 62.255,79.399C61.442,79.337 60.739,78.294 60.145,76.27C59.801,75.18 59.488,73.67 59.206,71.74C58.706,68.378 58.362,66.525 58.175,66.183C56.924,70.23 56.033,72.783 55.501,73.842C55.001,74.9 54.61,75.601 54.329,75.943C54.079,76.286 53.766,76.737 53.391,77.297C52.984,78.418 52.015,79.243 50.483,79.773C49.169,80.271 47.981,80.349 46.918,80.006C45.761,79.632 45.417,78.916 45.886,77.858C46.23,74.122 47.575,68.222 49.92,60.159Z" fill="#000000" stroke="#000000" stroke-width="1" stroke-miterlimit="3.999327"/>
<path d="M151.076,41.437C151.201,41.81 151.342,42.075 151.498,42.231C151.654,42.355 151.764,42.449 151.826,42.511C151.983,42.666 151.905,42.947 151.592,43.351C151.311,43.912 150.92,44.566 150.419,45.313C149.513,46.652 148.934,47.632 148.684,48.255C147.402,50.808 146.401,53.158 145.682,55.307C144.963,57.424 144.353,59.338 143.853,61.051C143.353,62.763 142.868,64.273 142.399,65.581C141.836,67.106 141.18,68.242 140.429,68.99C140.054,69.612 139.382,70.033 138.412,70.251C137.443,70.469 136.458,70.515 135.458,70.391C134.457,70.235 133.597,69.908 132.878,69.41C132.19,68.912 131.94,68.258 132.128,67.449C132.472,64.522 132.987,62.063 133.675,60.07C134.395,58.077 135.004,56.427 135.505,55.12C136.036,53.812 136.489,52.645 136.865,51.617C137.24,50.559 137.584,49.656 137.897,48.909C138.241,48.13 138.631,47.321 139.069,46.48C139.507,45.609 139.976,44.737 140.476,43.865C141.008,42.962 141.539,42.137 142.071,41.39C143.29,39.678 144.322,38.666 145.166,38.355C146.011,38.012 146.855,37.81 147.699,37.747C148.575,37.685 149.325,37.779 149.95,38.028C150.607,38.277 151.06,38.681 151.311,39.242C151.561,39.802 151.483,40.534 151.076,41.437ZM139.866,76.648C139.522,77.925 138.803,78.874 137.709,79.497C136.646,80.151 135.505,80.493 134.285,80.525C133.066,80.587 131.924,80.353 130.861,79.824C129.829,79.326 129.188,78.532 128.938,77.442C128.657,76.384 128.813,75.481 129.407,74.734C130.033,73.955 130.767,73.457 131.612,73.239C132.456,72.99 133.441,72.819 134.567,72.726C135.723,72.632 136.771,72.695 137.709,72.912C138.647,73.13 139.366,73.535 139.866,74.127C140.367,74.718 140.367,75.559 139.866,76.648Z" fill="#FFFFFF" stroke="#000000" stroke-width="1" stroke-miterlimit="3.999327"/>
<path d="M119.139,55.4C122.328,45.842 124.455,41.063 125.518,41.063C125.643,41.063 125.784,41.079 125.94,41.11C126.44,41.141 127.003,40.939 127.628,40.503C128.441,39.818 129.379,39.289 130.442,38.915C131.537,38.541 132.6,38.401 133.632,38.495C136.039,38.713 137.556,39.973 138.181,42.277L138.181,42.417C138.025,42.853 137.869,43.211 137.712,43.492L137.387,44.161C136.583,45.769 136.368,45.718 135.649,47.274C134.929,48.8 134.382,49.998 134.007,50.87C133.632,51.711 133.1,52.785 132.412,54.092C131.724,55.4 130.927,57.003 130.02,58.903C129.145,60.802 128.222,62.685 127.253,64.553C124.939,69.036 122.641,72.554 120.359,75.107C119.202,76.508 117.638,77.193 115.668,77.162C114.824,77.131 114.011,76.913 113.229,76.508C112.448,76.104 111.838,75.481 111.4,74.64L110.415,71.698C110.009,72.041 109.54,72.477 109.008,73.006C108.477,73.535 107.914,74.08 107.32,74.64C105.944,75.948 104.881,76.633 104.13,76.695C103.38,76.757 102.739,76.757 102.207,76.695C101.676,76.664 101.176,76.555 100.707,76.368C99.643,75.964 98.956,75.185 98.643,74.033C98.111,68.709 98.377,61.907 99.44,53.625C99.722,51.602 99.972,49.609 100.191,47.648C100.722,44.877 101.723,42.884 103.192,41.67C104.443,40.612 105.663,40.3 106.851,40.736C107.382,40.923 107.789,41.234 108.07,41.67C108.352,42.106 108.445,42.635 108.352,43.258C108.414,45.157 108.398,46.574 108.305,47.508C108.18,49.095 108.133,50.263 108.164,51.01C108.195,51.757 108.18,52.38 108.117,52.878C108.086,53.345 108.055,53.797 108.023,54.232C108.023,54.637 108.039,54.98 108.07,55.26C108.133,55.509 108.258,55.556 108.445,55.4C109.165,53.874 109.774,52.769 110.275,52.084C110.775,51.399 111.306,50.683 111.869,49.936C112.745,49.158 113.511,48.862 114.167,49.049C114.511,49.111 114.871,49.236 115.246,49.422C115.621,49.578 116.122,49.718 116.747,49.843C117.154,50.185 117.419,50.559 117.544,50.963C117.638,51.057 117.732,51.15 117.826,51.244C117.92,51.306 117.982,51.399 118.013,51.524C118.076,51.617 118.154,51.851 118.248,52.224C118.373,52.598 118.498,53.003 118.623,53.439C118.748,53.843 118.858,54.248 118.951,54.653C119.045,55.026 119.108,55.275 119.139,55.4ZM120.265,74.967C120.265,75.03 120.265,75.045 120.265,75.014C120.296,74.952 120.312,74.889 120.312,74.827L120.265,74.967Z" fill="#FFFFFF" stroke="#000000" stroke-width="1" stroke-miterlimit="3.999327"/>
<path d="M82.255,69.223C84.068,69.41 85.413,69.503 86.288,69.503C87.195,69.503 88.555,69.379 90.369,69.13C90.931,69.317 91.26,69.55 91.354,69.83C91.447,70.11 91.479,70.406 91.447,70.718C91.416,70.998 91.432,71.278 91.494,71.558C91.557,71.838 91.854,72.072 92.385,72.259C92.667,72.352 92.745,72.632 92.62,73.099C92.526,73.535 92.276,74.018 91.87,74.547C90.838,75.886 89.618,76.82 88.211,77.349C85.96,77.909 84.193,78.236 82.911,78.33C80.785,78.485 78.471,78.407 75.97,78.096C73.218,77.598 71.889,76.462 71.983,74.687C71.983,68.149 73.421,61.58 76.298,54.98C77.236,52.831 78.299,50.574 79.487,48.208C79.738,47.71 79.878,47.15 79.909,46.527C79.972,45.904 80.019,45.297 80.05,44.706C80.081,44.114 80.175,43.585 80.332,43.118C80.488,42.651 80.816,42.324 81.317,42.137C87.82,39.553 92.964,38.557 96.747,39.148C98.061,39.18 98.92,39.631 99.327,40.503C99.765,41.343 99.812,42.293 99.468,43.351C99.155,44.41 98.514,45.406 97.545,46.34C96.607,47.274 95.418,47.85 93.98,48.068C92.135,48.597 91.01,48.955 90.603,49.142C89.821,49.516 89.259,50.014 88.915,50.637C88.477,51.322 88.07,51.975 87.695,52.598C87.32,53.221 87.054,53.89 86.898,54.606L86.71,55.633C87.304,55.914 88.024,56.007 88.868,55.914C89.743,55.789 90.541,55.68 91.26,55.587C92.01,55.462 92.604,55.447 93.042,55.54C93.511,55.633 93.605,56.1 93.323,56.941C93.073,57.751 92.589,58.669 91.87,59.696C91.182,60.724 90.197,61.471 88.915,61.938C88.102,62.094 87.539,62.218 87.226,62.312C86.945,62.374 86.726,62.421 86.57,62.452C86.351,62.483 85.725,62.53 84.693,62.592C83.224,65.082 82.333,67.013 82.02,68.383C81.895,68.943 81.973,69.223 82.255,69.223Z" fill="#FFFFFF" stroke="#000000" stroke-width="1" stroke-miterlimit="3.999327"/>
<path d="M46.749,56.988C47.374,54.902 47.875,53.298 48.25,52.178C48.656,51.026 49.047,49.998 49.423,49.095C49.798,48.193 50.22,47.321 50.689,46.48C51.189,45.64 51.721,44.877 52.284,44.192C52.878,43.476 53.503,42.916 54.16,42.511C54.816,42.106 55.504,41.904 56.223,41.904C56.942,41.904 57.693,42.184 58.475,42.744C59.725,45.858 60.491,47.944 60.773,49.002C61.148,50.559 61.492,52.754 61.805,55.587C62.086,54.871 62.399,54.124 62.743,53.345C63.118,52.536 63.478,51.726 63.821,50.917C64.791,48.862 65.401,47.305 65.651,46.247C66.339,44.067 67.761,42.433 69.919,41.343C71.795,40.409 73.546,40.114 75.172,40.456C75.828,40.581 76.282,40.845 76.532,41.25C76.813,41.655 76.813,42.075 76.532,42.511C76.282,42.947 76.188,43.367 76.251,43.772C76.344,44.145 76.422,44.597 76.485,45.126C76.579,46.558 76.329,47.835 75.735,48.955C75.14,50.045 74.531,51.415 73.905,53.065C73.28,54.684 72.639,56.412 71.982,58.249C71.357,60.086 70.716,61.954 70.059,63.853C69.403,65.752 68.762,67.48 68.136,69.036C66.761,72.617 65.635,74.594 64.76,74.967C63.571,75.683 62.696,76.104 62.133,76.228C61.414,76.353 60.398,76.353 59.084,76.228C58.271,76.166 57.568,75.123 56.974,73.099C56.63,72.01 56.317,70.5 56.036,68.569C55.535,65.207 55.191,63.355 55.004,63.012C53.753,67.059 52.862,69.612 52.33,70.671C51.83,71.729 51.439,72.43 51.158,72.772C50.908,73.115 50.595,73.566 50.22,74.127C49.813,75.247 48.844,76.072 47.312,76.602C45.999,77.1 44.81,77.178 43.747,76.835C42.59,76.462 42.246,75.746 42.716,74.687C43.059,70.951 44.404,65.051 46.749,56.988Z" fill="#FFFFFF" stroke="#000000" stroke-width="1" stroke-miterlimit="3.999327"/>
<path d="M162,88L162.962,95.038L170,96L162.962,96.962L162,104L161.038,96.962L154,96L161.038,95.038L162,88Z" fill="#FF00E5"/>
<path d="M142,30L142.962,37.038L150,38L142.962,38.962L142,46L141.038,38.962L134,38L141.038,37.038L142,30Z" fill="#FFC000"/>
<path d="M102,68L102.962,75.038L110,76L102.962,76.962L102,84L101.038,76.962L94,76L101.038,75.038L102,68Z" fill="#FF00E5"/>
<path d="M54,26L55.923,40.077L70,42L55.923,43.923L54,58L52.077,43.923L38,42L52.077,40.077L54,26Z" fill="#FFC000"/>
</svg>
