<svg width="204" height="170" viewBox="0 0 204 170" fill="none" xmlns="http://www.w3.org/2000/svg" xmlns:xlink="http://www.w3.org/1999/xlink">
<mask id="mask_0_i_1_2024;10253_4734;349_11904" style="mask-type:alpha" maskUnits="userSpaceOnUse" x="151.5" y="51.25" width="4.6875" height="9.375">
<path d="M160.875,61.563C160.875,67.656 158.776,70 156.188,70C153.599,70 151.5,67.656 151.5,61.563C151.5,55.469 152.438,51.25 156.188,51.25C159.938,51.25 160.875,55.469 160.875,61.563Z" fill="#FFFFFF"/>
</mask>
<mask id="mask_0_i_1_2024;10253_4735;349_11904" style="mask-type:alpha" maskUnits="userSpaceOnUse" x="162.125" y="51.250122" width="4.6875" height="9.375">
<path d="M171.5,61.563C171.5,67.656 169.401,70 166.813,70C164.224,70 162.125,67.656 162.125,61.563C162.125,55.469 163.063,51.25 166.813,51.25C170.563,51.25 171.5,55.469 171.5,61.563Z" fill="#FFFFFF"/>
</mask>
<mask id="mask_0_i_1_2024;10253_4689;349_11904" style="mask-type:alpha" maskUnits="userSpaceOnUse" x="30.25" y="70.5" width="5.15625" height="10.3125">
<path d="M40.563,81.844C40.563,88.547 38.254,91.125 35.406,91.125C32.559,91.125 30.25,88.547 30.25,81.844C30.25,75.141 31.281,70.5 35.406,70.5C39.531,70.5 40.563,75.141 40.563,81.844Z" fill="#FFFFFF"/>
</mask>
<mask id="mask_0_i_1_2024;10253_4690;349_11904" style="mask-type:alpha" maskUnits="userSpaceOnUse" x="41.9375" y="70.500122" width="5.15625" height="10.3125">
<path d="M52.25,81.844C52.25,88.547 49.941,91.125 47.094,91.125C44.246,91.125 41.938,88.547 41.938,81.844C41.938,75.141 42.969,70.5 47.094,70.5C51.219,70.5 52.25,75.141 52.25,81.844Z" fill="#FFFFFF"/>
</mask>
<mask id="mask_0_i_1_2024;10253_4712;349_11904" style="mask-type:alpha" maskUnits="userSpaceOnUse" x="89" y="89.75" width="5.625" height="11.25">
<path d="M100.25,102.125C100.25,109.438 97.732,112.25 94.625,112.25C91.518,112.25 89,109.438 89,102.125C89,94.813 90.125,89.75 94.625,89.75C99.125,89.75 100.25,94.813 100.25,102.125Z" fill="#FFFFFF"/>
</mask>
<mask id="mask_0_i_1_2024;10253_4713;349_11904" style="mask-type:alpha" maskUnits="userSpaceOnUse" x="101.75" y="89.750122" width="5.625" height="11.25">
<path d="M113,102.125C113,109.438 110.482,112.25 107.375,112.25C104.268,112.25 101.75,109.438 101.75,102.125C101.75,94.813 102.875,89.75 107.375,89.75C111.875,89.75 113,94.813 113,102.125Z" fill="#FFFFFF"/>
</mask>
<rect  x="124" y="0" width="80" height="117.5" rx="11.25" fill="#FFFFFF"/>
<rect  x="126.5" y="2.5" width="75" height="112.5" rx="8.75" fill="#000000"/>
<rect  x="130.25" y="6.25" width="67.5" height="105" rx="5" fill="#FFC000"/>
<circle cx="139" cy="15" r="5" transform="rotate(0 139 15)" fill="#000000"/>
<rect  x="134" y="23.75" width="31.25" height="3.75" rx="2.942" transform="rotate(0 134 23.75)" fill="#000000"/>
<rect  x="134" y="31.25" width="13.75" height="3.75" rx="2.942" transform="rotate(0 134 31.25)" fill="#000000"/>
<rect  x="151.5" y="31.25" width="7.5" height="3.75" rx="2.942" transform="rotate(0 151.5 31.25)" fill="#000000"/>
<path d="M160.683,40.216C162.463,38.261 165.537,38.261 167.317,40.216L169.606,42.729C170.505,43.716 171.798,44.252 173.133,44.19L176.528,44.031C179.168,43.907 181.343,46.082 181.219,48.722L181.06,52.117C180.998,53.452 181.533,54.745 182.521,55.644L185.034,57.933C186.989,59.713 186.989,62.787 185.034,64.567L182.521,66.856C181.533,67.755 180.998,69.048 181.06,70.383L181.219,73.778C181.343,76.418 179.168,78.593 176.528,78.469L173.133,78.31C171.798,78.248 170.505,78.783 169.606,79.771L167.317,82.284C165.537,84.239 162.463,84.239 160.683,82.284L158.394,79.771C157.495,78.783 156.202,78.248 154.867,78.31L151.472,78.469C148.832,78.593 146.657,76.418 146.781,73.778L146.94,70.383C147.002,69.048 146.466,67.755 145.479,66.856L142.966,64.567C141.011,62.787 141.011,59.713 142.966,57.933L145.479,55.644C146.466,54.745 147.002,53.452 146.94,52.117L146.781,48.722C146.657,46.082 148.832,43.907 151.472,44.031L154.867,44.19C156.202,44.252 157.495,43.716 158.394,42.729L160.683,40.216Z" transform="rotate(0 164 61.25)" fill="#000000"/>
<path d="M160.875,61.563C160.875,67.656 158.776,70 156.188,70C153.599,70 151.5,67.656 151.5,61.563C151.5,55.469 152.438,51.25 156.188,51.25C159.938,51.25 160.875,55.469 160.875,61.563Z" fill="#FFFFFF"/>
<path d="M155.719,60.625C155.719,63.214 155.25,65.313 153.375,65.313C151.5,65.313 151.031,63.214 151.031,60.625C151.031,58.036 151.5,55.938 153.375,55.938C155.25,55.938 155.719,58.036 155.719,60.625Z" fill="#000000"/>
<path d="M171.5,61.563C171.5,67.656 169.401,70 166.813,70C164.224,70 162.125,67.656 162.125,61.563C162.125,55.469 163.063,51.25 166.813,51.25C170.563,51.25 171.5,55.469 171.5,61.563Z" fill="#FFFFFF"/>
<path d="M166.344,60.625C166.344,63.214 165.875,65.313 164,65.313C162.125,65.313 161.656,63.214 161.656,60.625C161.656,58.036 162.125,55.938 164,55.938C165.875,55.938 166.344,58.036 166.344,60.625Z" fill="#000000"/>
<rect  x="0" y="14.125" width="88" height="129.25" rx="12.375" fill="#FFFFFF"/>
<rect  x="2.75" y="16.875" width="82.5" height="123.75" rx="9.625" fill="#000000"/>
<rect  x="6.875" y="21" width="74.25" height="115.5" rx="5.5" fill="#FF00E5"/>
<circle cx="16.5" cy="30.625" r="5.5" transform="rotate(0 16.5 30.625)" fill="#000000"/>
<rect  x="11" y="40.25" width="34.375" height="4.125" rx="3.236" transform="rotate(0 11 40.25)" fill="#000000"/>
<rect  x="11" y="48.5" width="15.125" height="4.125" rx="3.236" transform="rotate(0 11 48.5)" fill="#000000"/>
<rect  x="30.25" y="48.5" width="8.25" height="4.125" rx="3.236" transform="rotate(0 30.25 48.5)" fill="#000000"/>
<path d="M40.351,58.362C42.309,56.213 45.691,56.213 47.649,58.362L50.166,61.127C51.156,62.213 52.578,62.802 54.046,62.733L57.781,62.559C60.685,62.423 63.077,64.815 62.941,67.719L62.766,71.454C62.698,72.922 63.287,74.344 64.373,75.334L67.138,77.851C69.287,79.809 69.287,83.191 67.138,85.149L64.373,87.666C63.287,88.656 62.698,90.078 62.766,91.546L62.941,95.281C63.077,98.185 60.685,100.577 57.781,100.441L54.046,100.266C52.578,100.198 51.156,100.787 50.166,101.873L47.649,104.638C45.691,106.787 42.309,106.787 40.351,104.638L37.834,101.873C36.844,100.787 35.422,100.198 33.954,100.266L30.219,100.441C27.315,100.577 24.923,98.185 25.059,95.281L25.233,91.546C25.302,90.078 24.713,88.656 23.627,87.666L20.862,85.149C18.713,83.191 18.713,79.809 20.862,77.851L23.627,75.334C24.713,74.344 25.302,72.922 25.233,71.454L25.059,67.719C24.923,64.815 27.315,62.423 30.219,62.559L33.954,62.733C35.422,62.802 36.844,62.213 37.834,61.127L40.351,58.362Z" transform="rotate(0 44 81.5)" fill="#000000"/>
<path d="M40.563,81.844C40.563,88.547 38.254,91.125 35.406,91.125C32.559,91.125 30.25,88.547 30.25,81.844C30.25,75.141 31.281,70.5 35.406,70.5C39.531,70.5 40.563,75.141 40.563,81.844Z" fill="#FFFFFF"/>
<path d="M34.891,80.812C34.891,83.66 34.375,85.969 32.312,85.969C30.25,85.969 29.734,83.66 29.734,80.812C29.734,77.965 30.25,75.656 32.312,75.656C34.375,75.656 34.891,77.965 34.891,80.812Z" fill="#000000"/>
<path d="M52.25,81.844C52.25,88.547 49.941,91.125 47.094,91.125C44.246,91.125 41.938,88.547 41.938,81.844C41.938,75.141 42.969,70.5 47.094,70.5C51.219,70.5 52.25,75.141 52.25,81.844Z" fill="#FFFFFF"/>
<path d="M46.578,80.813C46.578,83.66 46.062,85.969 44,85.969C41.937,85.969 41.422,83.66 41.422,80.813C41.422,77.965 41.937,75.656 44,75.656C46.062,75.656 46.578,77.965 46.578,80.813Z" fill="#000000"/>
<rect  x="56" y="28.25" width="96" height="141" rx="13.5" fill="#FFFFFF"/>
<rect  x="59" y="31.25" width="90" height="135" rx="10.5" fill="#000000"/>
<rect  x="63.5" y="35.75" width="81" height="126" rx="6" fill="#00A3FF"/>
<circle cx="74" cy="46.25" r="6" transform="rotate(0 74 46.25)" fill="#000000"/>
<rect  x="68" y="56.75" width="37.5" height="4.5" rx="3.53" transform="rotate(0 68 56.75)" fill="#000000"/>
<rect  x="68" y="65.75" width="16.5" height="4.5" rx="3.53" transform="rotate(0 68 65.75)" fill="#000000"/>
<rect  x="89" y="65.75" width="9" height="4.5" rx="3.53" transform="rotate(0 89 65.75)" fill="#000000"/>
<path d="M100.019,76.509C102.155,74.164 105.845,74.164 107.981,76.509L110.727,79.524C111.806,80.71 113.358,81.352 114.959,81.277L119.033,81.087C122.202,80.939 124.811,83.548 124.663,86.717L124.472,90.791C124.398,92.392 125.04,93.944 126.225,95.023L129.241,97.769C131.586,99.905 131.586,103.595 129.241,105.731L126.225,108.477C125.04,109.556 124.398,111.108 124.472,112.709L124.663,116.783C124.811,119.952 122.202,122.561 119.033,122.413L114.959,122.222C113.358,122.148 111.806,122.79 110.727,123.975L107.981,126.991C105.845,129.336 102.155,129.336 100.019,126.991L97.273,123.975C96.194,122.79 94.642,122.148 93.041,122.222L88.967,122.413C85.798,122.561 83.189,119.952 83.337,116.783L83.527,112.709C83.602,111.108 82.96,109.556 81.774,108.477L78.759,105.731C76.414,103.595 76.414,99.905 78.759,97.769L81.774,95.023C82.96,93.944 83.602,92.392 83.527,90.791L83.337,86.717C83.189,83.548 85.798,80.939 88.967,81.087L93.041,81.277C94.642,81.352 96.194,80.71 97.273,79.524L100.019,76.509Z" transform="rotate(0 104 101.75)" fill="#000000"/>
<path d="M100.25,102.125C100.25,109.438 97.732,112.25 94.625,112.25C91.518,112.25 89,109.438 89,102.125C89,94.813 90.125,89.75 94.625,89.75C99.125,89.75 100.25,94.813 100.25,102.125Z" fill="#FFFFFF"/>
<path d="M94.063,101C94.063,104.107 93.5,106.625 91.25,106.625C89,106.625 88.438,104.107 88.438,101C88.438,97.893 89,95.375 91.25,95.375C93.5,95.375 94.063,97.893 94.063,101Z" fill="#000000"/>
<path d="M113,102.125C113,109.438 110.482,112.25 107.375,112.25C104.268,112.25 101.75,109.438 101.75,102.125C101.75,94.813 102.875,89.75 107.375,89.75C111.875,89.75 113,94.813 113,102.125Z" fill="#FFFFFF"/>
<path d="M106.813,101C106.813,104.107 106.25,106.625 104,106.625C101.75,106.625 101.188,104.107 101.188,101C101.188,97.894 101.75,95.375 104,95.375C106.25,95.375 106.813,97.894 106.813,101Z" fill="#000000"/>
</svg>
