<svg width="160" height="160" viewBox="0 0 160 160" fill="none" xmlns="http://www.w3.org/2000/svg" xmlns:xlink="http://www.w3.org/1999/xlink">
<mask id="mask_0_i_1_2056;10268_4928" style="mask-type:alpha" maskUnits="userSpaceOnUse" x="98.584717" y="80.808838" width="6.32967" height="12.659341">
<path d="M111.244,94.734C111.244,102.963 108.41,106.127 104.914,106.127C101.419,106.127 98.585,102.963 98.585,94.734C98.585,86.506 99.851,80.809 104.914,80.809C109.978,80.809 111.244,86.506 111.244,94.734Z" fill="#FFFFFF"/>
</mask>
<mask id="mask_0_i_1_2056;10268_4933" style="mask-type:alpha" maskUnits="userSpaceOnUse" x="85.925293" y="80.808838" width="6.32967" height="12.659341">
<path d="M98.585,94.734C98.585,102.963 95.751,106.127 92.255,106.127C88.759,106.127 85.925,102.963 85.925,94.734C85.925,86.506 87.191,80.809 92.255,80.809C97.319,80.809 98.585,86.506 98.585,94.734Z" fill="#FFFFFF"/>
</mask>
<mask id="mask_0_i_1_2056;10268_4938" style="mask-type:alpha" maskUnits="userSpaceOnUse" x="60.044028" y="48.123047" width="6.32967" height="12.659341">
<path d="M72.703,62.048C72.703,70.277 69.869,73.442 66.374,73.442C62.878,73.442 60.044,70.277 60.044,62.048C60.044,53.82 61.31,48.123 66.374,48.123C71.437,48.123 72.703,53.82 72.703,62.048Z" transform="rotate(360 66.374 60.782)" fill="#FFFFFF"/>
</mask>
<mask id="mask_0_i_1_2056;10268_4943" style="mask-type:alpha" maskUnits="userSpaceOnUse" x="47.384604" y="48.123047" width="6.32967" height="12.659341">
<path d="M60.044,62.048C60.044,70.277 57.21,73.442 53.714,73.442C50.218,73.442 47.385,70.277 47.385,62.048C47.385,53.82 48.651,48.123 53.714,48.123C58.778,48.123 60.044,53.82 60.044,62.048Z" transform="rotate(360 53.714 60.782)" fill="#FFFFFF"/>
</mask>
<path d="M100.061,65.23C102.665,62.371 107.163,62.371 109.767,65.23L113.115,68.906C114.43,70.351 116.321,71.134 118.274,71.043L123.241,70.811C127.103,70.63 130.284,73.811 130.103,77.674L129.871,82.64C129.78,84.592 130.563,86.484 132.008,87.799L135.684,91.147C138.543,93.751 138.543,98.249 135.684,100.853L132.008,104.201C130.563,105.516 129.78,107.407 129.871,109.36L130.103,114.327C130.284,118.189 127.103,121.37 123.241,121.189L118.274,120.957C116.321,120.866 114.43,121.649 113.115,123.094L109.767,126.77C107.163,129.629 102.665,129.629 100.061,126.77L96.713,123.094C95.398,121.649 93.506,120.866 91.554,120.957L86.588,121.189C82.725,121.37 79.544,118.189 79.725,114.327L79.957,109.36C80.048,107.407 79.265,105.516 77.82,104.201L74.144,100.853C71.285,98.249 71.285,93.751 74.144,91.147L77.82,87.799C79.265,86.484 80.048,84.592 79.957,82.64L79.725,77.673C79.544,73.811 82.725,70.63 86.588,70.811L91.554,71.043C93.506,71.134 95.398,70.351 96.713,68.906L100.061,65.23Z" transform="rotate(-360 104.914 96)" fill="#000000" stroke="#FFFFFF" stroke-width="1" stroke-miterlimit="3.999327"/>
<path d="M48.862,32.544C51.465,29.685 55.963,29.685 58.567,32.544L61.915,36.22C63.23,37.665 65.122,38.448 67.074,38.357L72.041,38.125C75.903,37.945 79.084,41.125 78.903,44.988L78.671,49.955C78.58,51.907 79.363,53.798 80.808,55.114L84.484,58.462C87.343,61.065 87.343,65.563 84.484,68.167L80.808,71.515C79.363,72.83 78.58,74.722 78.671,76.674L78.903,81.641C79.084,85.503 75.903,88.684 72.041,88.503L67.074,88.271C65.122,88.18 63.23,88.963 61.915,90.408L58.567,94.084C55.963,96.943 51.465,96.943 48.862,94.084L45.514,90.408C44.198,88.963 42.307,88.18 40.355,88.271L35.388,88.503C31.525,88.684 28.345,85.503 28.525,81.641L28.757,76.674C28.849,74.722 28.065,72.83 26.62,71.515L22.944,68.167C20.085,65.563 20.085,61.065 22.944,58.462L26.62,55.114C28.065,53.798 28.849,51.907 28.757,49.955L28.525,44.988C28.345,41.125 31.525,37.945 35.388,38.125L40.355,38.357C42.307,38.448 44.198,37.665 45.514,36.22L48.862,32.544Z" transform="rotate(-360 53.714 63.314)" fill="#000000" stroke="#FFFFFF" stroke-width="1" stroke-miterlimit="3.999327"/>
<path d="M111.244,94.734C111.244,102.963 108.41,106.127 104.914,106.127C101.419,106.127 98.585,102.963 98.585,94.734C98.585,86.506 99.851,80.809 104.914,80.809C109.978,80.809 111.244,86.506 111.244,94.734Z" fill="#FFFFFF"/>
<path d="M108.33,93.33C108.33,96.826 107.697,99.66 105.165,99.66C102.633,99.66 102,96.826 102,93.33C102,89.834 102.633,87 105.165,87C107.697,87 108.33,89.834 108.33,93.33Z" fill="#000000"/>
<path d="M98.585,94.734C98.585,102.963 95.751,106.127 92.255,106.127C88.759,106.127 85.925,102.963 85.925,94.734C85.925,86.506 87.191,80.809 92.255,80.809C97.319,80.809 98.585,86.506 98.585,94.734Z" fill="#FFFFFF"/>
<path d="M95.33,93.33C95.33,96.826 94.697,99.66 92.165,99.66C89.633,99.66 89,96.826 89,93.33C89,89.834 89.633,87 92.165,87C94.697,87 95.33,89.834 95.33,93.33Z" fill="#000000"/>
<path d="M72.703,62.048C72.703,70.277 69.869,73.442 66.374,73.442C62.878,73.442 60.044,70.277 60.044,62.048C60.044,53.82 61.31,48.123 66.374,48.123C71.437,48.123 72.703,53.82 72.703,62.048Z" transform="rotate(360 66.374 60.782)" fill="#FFFFFF"/>
<path d="M69.33,61.33C69.33,64.825 68.697,67.659 66.165,67.659C63.633,67.659 63,64.825 63,61.33C63,57.834 63.633,55 66.165,55C68.697,55 69.33,57.834 69.33,61.33Z" transform="rotate(360 66.165 61.33)" fill="#000000"/>
<path d="M60.044,62.048C60.044,70.277 57.21,73.442 53.714,73.442C50.218,73.442 47.385,70.277 47.385,62.048C47.385,53.82 48.651,48.123 53.714,48.123C58.778,48.123 60.044,53.82 60.044,62.048Z" transform="rotate(360 53.714 60.782)" fill="#FFFFFF"/>
<path d="M57.33,61.33C57.33,64.825 56.697,67.659 54.165,67.659C51.633,67.659 51,64.825 51,61.33C51,57.834 51.633,55 54.165,55C56.697,55 57.33,57.834 57.33,61.33Z" transform="rotate(360 54.165 61.33)" fill="#000000"/>
</svg>
