<svg width="80" height="80" viewBox="0 0 80 80" fill="none" xmlns="http://www.w3.org/2000/svg" xmlns:xlink="http://www.w3.org/1999/xlink">
<path d="M54.422,5.954C52.049,3.349 47.949,3.349 45.576,5.954L42.525,9.305C41.325,10.622 39.602,11.336 37.823,11.253L33.295,11.041C29.775,10.877 26.876,13.776 27.04,17.296L27.252,21.823C27.324,23.357 26.803,24.849 25.815,26L62.19,26C63.218,26 64.078,26.779 64.18,27.801L67.096,56.965C70.436,56.905 73.116,54.092 72.958,50.704L72.746,46.177C72.663,44.397 73.377,42.674 74.694,41.474L78.045,38.423C80.651,36.05 80.651,31.95 78.045,29.577L74.694,26.525C73.377,25.326 72.663,23.602 72.746,21.823L72.958,17.296C73.123,13.776 70.223,10.877 66.703,11.041L62.176,11.253C60.397,11.336 58.673,10.622 57.474,9.305L54.422,5.954Z" clip-rule="evenodd" fill-rule="evenodd" fill="#FFFFFF" fill-opacity="0.7"/>
<path d="M2.21,30C1.027,30 0.102,31.022 0.22,32.199L4,70L64,70L60.18,31.801C60.078,30.779 59.218,30 58.19,30L2.21,30ZM32.474,42.651C31.683,41.783 30.317,41.783 29.526,42.651L28.509,43.768C28.109,44.207 27.534,44.445 26.941,44.418L25.432,44.347C24.259,44.292 23.292,45.259 23.347,46.432L23.418,47.941C23.445,48.534 23.207,49.109 22.768,49.508L21.651,50.526C20.783,51.317 20.783,52.683 21.651,53.474L22.768,54.491C23.207,54.891 23.445,55.466 23.418,56.059L23.347,57.568C23.292,58.741 24.259,59.708 25.432,59.653L26.941,59.582C27.534,59.555 28.109,59.793 28.509,60.232L29.526,61.349C30.317,62.217 31.683,62.217 32.474,61.349L33.492,60.232C33.891,59.793 34.466,59.555 35.059,59.582L36.568,59.653C37.741,59.708 38.708,58.741 38.653,57.568L38.582,56.059C38.555,55.466 38.793,54.891 39.232,54.491L40.349,53.474C41.217,52.683 41.217,51.317 40.349,50.526L39.232,49.508C38.793,49.109 38.555,48.534 38.582,47.941L38.653,46.432C38.708,45.259 37.741,44.292 36.568,44.347L35.059,44.418C34.466,44.445 33.891,44.207 33.492,43.768L32.474,42.651Z" clip-rule="evenodd" fill-rule="evenodd" fill="#FFFFFF"/>
<path d="M4,70L74.793,70C75.238,70 75.461,70.539 75.146,70.854L72.586,73.414C72.211,73.789 71.702,74 71.172,74L7.236,74C6.479,74 5.786,73.572 5.447,72.894L4,70Z" fill="#FFFFFF"/>
</svg>
