<svg width="234" height="260" viewBox="0 0 234 260" fill="none" xmlns="http://www.w3.org/2000/svg" xmlns:xlink="http://www.w3.org/1999/xlink">
<mask id="mask_0_i_1_2089;10203_3323" style="mask-type:alpha" maskUnits="userSpaceOnUse" x="28.000282" y="133.681396" width="15.171744" height="22.516011">
<path d="M53.365,158.255C53.365,171.632 48.801,176.776 43.172,176.776C37.543,176.776 32.979,171.632 32.979,158.255C32.979,144.879 35.018,135.618 43.172,135.618C51.326,135.618 53.365,144.879 53.365,158.255Z" transform="rotate(30 43.172 156.197)" fill="#FFFFFF"/>
</mask>
<mask id="mask_0_i_1_2089;10203_3328" style="mask-type:alpha" maskUnits="userSpaceOnUse" x="46.26786" y="133.562744" width="15.171744" height="22.516011">
<path d="M71.632,158.137C71.632,171.513 67.069,176.658 61.44,176.658C55.81,176.658 51.247,171.513 51.247,158.137C51.247,144.76 53.285,135.5 61.44,135.5C69.594,135.5 71.632,144.76 71.632,158.137Z" transform="rotate(30 61.44 156.079)" fill="#FFFFFF"/>
</mask>
<path d="M80,188C80,205.121 62.091,219 40,219C17.909,219 0,205.121 0,188C0,170.879 17.909,157 40,157C62.091,157 80,170.879 80,188Z" fill="#FFFFFF"/>
<path d="M202,173C202,211.66 159.915,243 108,243C56.085,243 14,211.66 14,173C14,134.34 56.085,103 108,103C159.915,103 202,134.34 202,173Z" fill="#FFFFFF"/>
<path d="M115.937,204.757C114.899,194.172 123.216,185 133.851,185L144.149,185C154.784,185 163.101,194.172 162.063,204.757L158.926,236.756C158.022,245.973 150.273,253 141.012,253L136.988,253C127.727,253 119.978,245.973 119.074,236.756L115.937,204.757Z" fill="#FFFFFF"/>
<path d="M37.937,204.757C36.899,194.172 45.216,185 55.851,185L66.149,185C76.784,185 85.101,194.172 84.063,204.757L80.926,236.756C80.022,245.973 72.273,253 63.012,253L58.988,253C49.727,253 41.978,245.973 41.074,236.756L37.937,204.757Z" fill="#FFFFFF"/>
<path d="M59.937,210.757C58.899,200.172 67.216,191 77.851,191L88.149,191C98.784,191 107.101,200.172 106.063,210.757L102.926,242.756C102.022,251.973 94.273,259 85.012,259L80.988,259C71.727,259 63.978,251.973 63.074,242.756L59.937,210.757Z" fill="#FFFFFF"/>
<path d="M137.937,210.757C136.899,200.172 145.216,191 155.851,191L166.149,191C176.784,191 185.101,200.172 184.063,210.757L180.926,242.756C180.022,251.973 172.273,259 163.012,259L158.988,259C149.727,259 141.978,251.973 141.074,242.756L137.937,210.757Z" fill="#FFFFFF"/>
<rect  x="142" y="173" width="92" height="32" rx="18" fill="#FFFFFF"/>
<rect  x="136" y="191" width="92" height="32" rx="18" fill="#FFFFFF"/>
<rect  x="142" y="209" width="92" height="32" rx="18" fill="#FFFFFF"/>
<rect  x="136" y="227" width="92" height="32" rx="18" fill="#FFFFFF"/>
<circle cx="113" cy="168" r="43" fill="#FFFFFF"/>
<path d="M90.32,111.957C85.627,116.474 81.383,123.11 78.926,127.881C78.167,129.354 76.358,129.933 74.885,129.174C73.412,128.416 72.833,126.607 73.591,125.134C76.212,120.045 80.814,112.779 86.159,107.634C88.822,105.071 91.874,102.833 95.148,101.796C98.571,100.712 102.217,100.965 105.549,103.369C111.45,107.624 113.844,114.566 114.637,120.928C115.436,127.343 114.689,133.749 113.745,137.758C113.365,139.371 111.75,140.371 110.137,139.991C108.525,139.611 107.525,137.996 107.905,136.383C108.718,132.928 109.378,127.249 108.683,121.67C107.981,116.038 105.982,111.079 102.04,108.235C100.451,107.09 98.829,106.924 96.959,107.516C94.941,108.155 92.676,109.688 90.32,111.957Z" clip-rule="evenodd" fill-rule="evenodd" transform="rotate(-2.62 94.116 120.627)" fill="#000000" stroke="#FFFFFF" stroke-width="2" stroke-miterlimit="3.999327" stroke-linecap="round"/>
<path d="M50.295,111.957C45.603,116.474 41.358,123.11 38.901,127.881C38.142,129.354 36.333,129.933 34.86,129.174C33.387,128.416 32.808,126.607 33.567,125.134C36.187,120.045 40.789,112.779 46.134,107.634C48.797,105.071 51.849,102.833 55.123,101.796C58.546,100.712 62.192,100.965 65.524,103.369C71.425,107.624 73.819,114.566 74.612,120.928C75.411,127.343 74.664,133.749 73.72,137.758C73.34,139.371 71.725,140.371 70.112,139.991C68.5,139.611 67.5,137.996 67.88,136.383C68.693,132.928 69.353,127.249 68.658,121.67C67.956,116.038 65.957,111.079 62.015,108.235C60.426,107.09 58.804,106.924 56.934,107.516C54.916,108.155 52.652,109.688 50.295,111.957Z" clip-rule="evenodd" fill-rule="evenodd" transform="rotate(-357.38 54.092 120.627)" fill="#000000" stroke="#FFFFFF" stroke-width="2" stroke-miterlimit="3.999327" stroke-linecap="round"/>
<path d="M184.925,135.066C181.093,134.555 177.572,137.247 177.061,141.079C176.55,144.911 179.243,148.432 183.075,148.943L184.925,135.066ZM195,134.004L197.214,127.363C195.208,126.695 193.008,126.968 191.227,128.108C189.447,129.247 188.276,131.13 188.043,133.231L195,134.004ZM209.957,127.777C210.384,123.935 207.615,120.474 203.773,120.047C199.931,119.62 196.47,122.389 196.043,126.231L209.957,127.777ZM183.075,148.943C185.204,149.227 189.842,149.946 194.025,147.942C199.121,145.5 201.326,140.455 201.957,134.777L188.043,133.231C187.858,134.896 187.542,135.57 187.459,135.717C187.444,135.744 187.617,135.488 187.975,135.316C188.212,135.203 188.195,135.294 187.595,135.302C186.969,135.31 186.17,135.232 184.925,135.066L183.075,148.943ZM192.786,140.645C193.74,140.963 195.285,141.475 196.913,141.683C198.653,141.904 201.142,141.871 203.618,140.446C206.081,139.027 207.516,136.816 208.368,134.736C209.201,132.702 209.673,130.334 209.957,127.777L196.043,126.231C195.939,127.169 195.818,127.889 195.698,128.435C195.576,128.985 195.469,129.293 195.413,129.429C195.297,129.713 195.544,128.94 196.632,128.313C197.149,128.015 197.657,127.871 198.061,127.815C198.436,127.763 198.669,127.793 198.681,127.795C198.689,127.796 198.583,127.782 198.306,127.705C198.028,127.629 197.69,127.522 197.214,127.363L192.786,140.645Z" fill="#FFFFFF"/>
<path d="M184.396,139.03C182.754,138.811 181.245,139.965 181.026,141.607C180.807,143.25 181.961,144.759 183.604,144.978L184.396,139.03ZM195,134.004L195.949,131.158C195.089,130.871 194.146,130.989 193.383,131.477C192.62,131.965 192.118,132.772 192.018,133.673L195,134.004ZM205.982,127.335C206.165,125.688 204.978,124.205 203.331,124.022C201.685,123.839 200.201,125.026 200.018,126.673L205.982,127.335ZM183.604,144.978C185.945,145.29 189.361,145.741 192.296,144.334C195.623,142.74 197.426,139.34 197.982,134.335L192.018,133.673C191.574,137.668 190.377,138.601 189.704,138.923C188.639,139.433 187.055,139.385 184.396,139.03L183.604,144.978ZM194.051,136.85C195.031,137.177 196.229,137.563 197.418,137.714C198.655,137.872 200.168,137.816 201.622,136.979C203.071,136.145 204.025,134.787 204.667,133.219C205.301,131.672 205.717,129.717 205.982,127.335L200.018,126.673C199.783,128.791 199.449,130.128 199.115,130.945C198.788,131.742 198.554,131.821 198.628,131.779C198.707,131.734 198.658,131.824 198.176,131.762C197.646,131.695 196.969,131.498 195.949,131.158L194.051,136.85Z" fill="#000000"/>
<path d="M119.428,204.305C118.662,196.095 125.122,189.004 133.368,189.004L144.632,189.004C152.878,189.004 159.338,196.095 158.572,204.305L155.585,236.305C154.914,243.502 148.874,249.004 141.646,249.004L136.354,249.004C129.126,249.004 123.086,243.502 122.415,236.305L119.428,204.305Z" fill="#000000"/>
<path d="M124.722,203.668C124.333,199.004 128.014,195.004 132.694,195.004L145.306,195.004C149.986,195.004 153.667,199.004 153.278,203.668L150.611,235.668C150.266,239.815 146.8,243.004 142.639,243.004L135.361,243.004C131.2,243.004 127.734,239.815 127.389,235.668L124.722,203.668Z" fill="#00A3FF"/>
<path d="M63.768,105.801C56.334,100.438 47.317,109.365 41.162,118.303C38.332,122.411 40.621,127.847 45.392,129.305L62.631,134.573C67.053,135.925 71.712,133.235 71.906,128.615C72.241,120.651 70.731,110.822 63.768,105.801Z" transform="rotate(-357.38 54.091 120.625)" fill="#00A3FF"/>
<path d="M33.566,125.132C32.807,126.605 33.386,128.414 34.859,129.173C36.332,129.931 38.141,129.352 38.9,127.879L33.566,125.132ZM67.879,136.382C67.499,137.995 68.499,139.61 70.111,139.99C71.724,140.369 73.339,139.37 73.719,137.757L67.879,136.382ZM38.9,127.879C41.357,123.108 45.601,116.472 50.294,111.955C52.65,109.687 54.915,108.154 56.933,107.514C58.803,106.922 60.425,107.088 62.014,108.234L65.523,103.367C62.191,100.964 58.545,100.71 55.122,101.795C51.848,102.831 48.796,105.069 46.133,107.632C40.788,112.778 36.186,120.044 33.566,125.132L38.9,127.879ZM62.014,108.234C65.956,111.077 67.955,116.037 68.657,121.669C69.352,127.247 68.692,132.927 67.879,136.382L73.719,137.757C74.663,133.747 75.41,127.341 74.611,120.927C73.818,114.565 71.424,107.623 65.523,103.367L62.014,108.234Z" transform="rotate(-357.38 54.091 120.625)" fill="#000000"/>
<path d="M62.284,115.952C56.374,111.689 48.965,120.97 45.078,127.658C44.451,128.736 45.024,130.09 46.216,130.455L64.929,136.173C66.035,136.511 67.197,135.844 67.37,134.701C68.206,129.174 68.037,120.101 62.284,115.952Z" transform="rotate(-357.38 55.832 125.835)" fill="#000000"/>
<path d="M41.428,204.305C40.662,196.095 47.122,189.004 55.368,189.004L66.632,189.004C74.878,189.004 81.338,196.095 80.572,204.305L77.585,236.305C76.914,243.502 70.874,249.004 63.646,249.004L58.354,249.004C51.126,249.004 45.086,243.502 44.415,236.305L41.428,204.305Z" fill="#000000"/>
<path d="M46.722,203.668C46.333,199.004 50.014,195.004 54.694,195.004L67.306,195.004C71.986,195.004 75.667,199.004 75.278,203.668L72.611,235.668C72.266,239.815 68.8,243.004 64.639,243.004L57.361,243.004C53.2,243.004 49.734,239.815 49.389,235.668L46.722,203.668Z" fill="#00A3FF"/>
<path d="M63.428,210.305C62.662,202.095 69.122,195.004 77.368,195.004L88.632,195.004C96.878,195.004 103.338,202.095 102.572,210.305L99.585,242.305C98.914,249.502 92.874,255.004 85.646,255.004L80.354,255.004C73.126,255.004 67.086,249.502 66.415,242.305L63.428,210.305Z" fill="#000000"/>
<path d="M141.428,210.305C140.662,202.095 147.122,195.004 155.368,195.004L166.632,195.004C174.878,195.004 181.338,202.095 180.572,210.305L177.585,242.305C176.914,249.502 170.874,255.004 163.646,255.004L158.354,255.004C151.126,255.004 145.086,249.502 144.415,242.305L141.428,210.305Z" fill="#000000"/>
<path d="M198,173.004C198,209.455 157.706,239.004 108,239.004C58.294,239.004 18,209.455 18,173.004C18,136.553 58.294,107.004 108,107.004C157.706,107.004 198,136.553 198,173.004Z" fill="#000000"/>
<path d="M192.375,173.004C192.375,206.141 154.599,233.004 108,233.004C61.401,233.004 23.625,206.141 23.625,173.004C23.625,139.867 61.401,113.004 108,113.004C154.599,113.004 192.375,139.867 192.375,173.004Z" fill="#00A3FF"/>
<path d="M146.913,131.895C148.457,132.495 150.195,131.73 150.796,130.186C151.397,128.642 150.632,126.903 149.087,126.303L146.913,131.895ZM107.864,120.102C106.209,120.177 104.928,121.58 105.003,123.235C105.078,124.89 106.481,126.171 108.136,126.095L107.864,120.102ZM149.087,126.303C142.781,123.85 125.962,119.279 107.864,120.102L108.136,126.095C125.238,125.318 141.219,129.68 146.913,131.895L149.087,126.303Z" fill="#000000"/>
<circle cx="113" cy="168" r="39" fill="#000000"/>
<circle cx="113" cy="168" r="33" fill="#FFC000"/>
<path d="M108.086,152.634C108.292,150.99 107.125,149.49 105.481,149.285C103.837,149.079 102.338,150.246 102.132,151.89L108.086,152.634ZM107.697,192.514C108.647,193.872 110.518,194.202 111.875,193.252C113.232,192.302 113.562,190.431 112.612,189.074L107.697,192.514ZM102.132,151.89C101.599,156.154 101.469,164.01 102.169,171.797C102.521,175.707 103.088,179.679 103.947,183.229C104.793,186.724 105.978,190.06 107.697,192.514L112.612,189.074C111.531,187.529 110.561,185.048 109.779,181.818C109.011,178.643 108.48,174.982 108.145,171.259C107.472,163.78 107.619,156.369 108.086,152.634L102.132,151.89Z" transform="rotate(360 107.421 171.528)" fill="#000000"/>
<path d="M131.279,165.305C131.279,173.589 125.459,180.305 118.279,180.305C111.099,180.305 106.279,178.589 106.279,170.305C106.279,162.021 111.099,150.305 118.279,150.305C125.459,150.305 131.279,157.021 131.279,165.305Z" transform="rotate(38.874 118.779 165.305)" stroke="#000000" stroke-width="3" stroke-miterlimit="3.999327"/>
<path d="M146.722,209.668C146.333,205.004 150.014,201.004 154.694,201.004L167.306,201.004C171.986,201.004 175.667,205.004 175.278,209.668L172.611,241.668C172.266,245.815 168.8,249.004 164.639,249.004L157.361,249.004C153.2,249.004 149.734,245.815 149.389,241.668L146.722,209.668Z" fill="#00A3FF"/>
<path d="M68.722,209.668C68.333,205.004 72.014,201.004 76.694,201.004L89.306,201.004C93.986,201.004 97.667,205.004 97.278,209.668L94.611,241.668C94.266,245.815 90.8,249.004 86.639,249.004L79.361,249.004C75.2,249.004 71.734,245.815 71.389,241.668L68.722,209.668Z" fill="#00A3FF"/>
<path d="M53.365,158.255C53.365,171.632 48.801,176.776 43.172,176.776C37.543,176.776 32.979,171.632 32.979,158.255C32.979,144.879 35.018,135.618 43.172,135.618C51.326,135.618 53.365,144.879 53.365,158.255Z" transform="rotate(30 43.172 156.197)" fill="#FFFFFF"/>
<path d="M42.289,154.6C42.289,160.282 41.27,164.889 37.193,164.889C33.116,164.889 32.096,160.282 32.096,154.6C32.096,148.917 33.116,144.31 37.193,144.31C41.27,144.31 42.289,148.917 42.289,154.6Z" transform="rotate(30 37.193 154.6)" fill="#000000"/>
<path d="M71.632,158.137C71.632,171.513 67.069,176.658 61.44,176.658C55.81,176.658 51.247,171.513 51.247,158.137C51.247,144.76 53.285,135.5 61.44,135.5C69.594,135.5 71.632,144.76 71.632,158.137Z" transform="rotate(30 61.44 156.079)" fill="#FFFFFF"/>
<path d="M60.557,154.481C60.557,160.164 59.537,164.771 55.46,164.771C51.383,164.771 50.364,160.164 50.364,154.481C50.364,148.798 51.383,144.191 55.46,144.191C59.537,144.191 60.557,148.798 60.557,154.481Z" transform="rotate(30 55.46 154.481)" fill="#000000"/>
<path d="M88,188.004C88,202.916 71.882,215.004 52,215.004C32.118,215.004 16,202.916 16,188.004C16,173.092 32.118,161.004 52,161.004C71.882,161.004 88,173.092 88,188.004Z" fill="#000000"/>
<path d="M82,188.004C82,199.602 68.569,209.004 52,209.004C35.431,209.004 22,199.602 22,188.004C22,176.406 35.431,167.004 52,167.004C68.569,167.004 82,176.406 82,188.004Z" fill="#00A3FF"/>
<path d="M76,188.004C76,202.916 59.882,215.004 40,215.004C20.118,215.004 4,202.916 4,188.004C4,173.092 20.118,161.004 40,161.004C59.882,161.004 76,173.092 76,188.004Z" fill="#000000"/>
<path d="M70,188.004C70,199.602 56.569,209.004 40,209.004C23.431,209.004 10,199.602 10,188.004C10,176.406 23.431,167.004 40,167.004C56.569,167.004 70,176.406 70,188.004Z" fill="#00A3FF"/>
<path d="M28.67,187.789C28.67,193.312 27.67,197.789 23.67,197.789C19.67,197.789 18.67,193.312 18.67,187.789C18.67,182.266 19.67,177.789 23.67,177.789C27.67,177.789 28.67,182.266 28.67,187.789Z" transform="rotate(27.519 23.67 187.789)" fill="#000000"/>
<path d="M47.055,187.789C47.055,193.312 46.055,197.789 42.055,197.789C38.055,197.789 37.055,193.312 37.055,187.789C37.055,182.266 38.055,177.789 42.055,177.789C46.055,177.789 47.055,182.266 47.055,187.789Z" transform="rotate(27.519 42.055 187.789)" fill="#000000"/>
<path d="M103.794,105.801C96.359,100.438 87.342,109.365 81.187,118.303C78.358,122.411 80.646,127.847 85.417,129.305L102.656,134.573C107.078,135.925 111.737,133.235 111.931,128.615C112.266,120.651 110.756,110.822 103.794,105.801Z" transform="rotate(-2.62 94.116 120.625)" fill="#00A3FF"/>
<path d="M73.591,125.132C72.832,126.605 73.411,128.414 74.884,129.173C76.357,129.931 78.167,129.352 78.925,127.879L73.591,125.132ZM107.904,136.382C107.524,137.995 108.524,139.61 110.137,139.99C111.75,140.369 113.365,139.37 113.744,137.757L107.904,136.382ZM78.925,127.879C81.382,123.108 85.627,116.472 90.32,111.955C92.676,109.687 94.941,108.154 96.959,107.514C98.828,106.922 100.451,107.088 102.039,108.234L105.549,103.367C102.216,100.964 98.57,100.71 95.147,101.795C91.873,102.831 88.821,105.069 86.159,107.632C80.813,112.778 76.211,120.044 73.591,125.132L78.925,127.879ZM102.039,108.234C105.981,111.077 107.981,116.037 108.682,121.669C109.377,127.247 108.718,132.927 107.904,136.382L113.744,137.757C114.689,133.747 115.435,127.341 114.636,120.927C113.844,114.565 111.449,107.623 105.549,103.367L102.039,108.234Z" transform="rotate(-2.62 94.116 120.625)" fill="#000000"/>
<path d="M98.827,115.952C92.917,111.689 85.507,120.97 81.62,127.658C80.994,128.736 81.566,130.09 82.759,130.455L101.472,136.173C102.577,136.511 103.74,135.844 103.913,134.701C104.748,129.174 104.58,120.101 98.827,115.952Z" transform="rotate(-2.62 92.375 125.835)" fill="#000000"/>
<rect  x="146" y="177" width="84" height="24" rx="14" fill="#000000"/>
<rect  x="152" y="183" width="72" height="12" rx="6" fill="#FFC000"/>
<rect  x="140" y="195" width="84" height="24" rx="14" fill="#000000"/>
<rect  x="146" y="201" width="72" height="12" rx="6" fill="#FF00E5"/>
<rect  x="146" y="213" width="84" height="24" rx="14" fill="#000000"/>
<rect  x="152" y="219" width="72" height="12" rx="6" fill="#FFC000"/>
<rect  x="140" y="231" width="84" height="24" rx="14" fill="#000000"/>
<rect  x="146" y="237" width="72" height="12" rx="6" fill="#FF00E5"/>
</svg>
