<svg width="274" height="274" viewBox="0 0 274 274" fill="none" xmlns="http://www.w3.org/2000/svg" xmlns:xlink="http://www.w3.org/1999/xlink">
<rect  x="138" y="203.653" width="30" height="70" rx="12" fill="#FFFFFF"/>
<path d="M163.922,180.285L168.275,180.138C173.327,179.968 177.648,183.258 179.046,187.818L179.065,187.882L179.084,187.947C179.402,189.03 179.555,190.183 179.514,191.377L179.367,195.731L182.55,198.706C183.221,199.333 183.794,200.023 184.269,200.759C186.238,203.808 186.527,207.631 185.137,210.907C184.562,212.263 183.7,213.525 182.55,214.6L179.367,217.574L179.514,221.928C179.541,222.715 179.484,223.484 179.351,224.227C178.42,229.427 173.782,233.353 168.275,233.167L163.922,233.02L160.947,236.203C156.648,240.803 149.352,240.803 145.053,236.203L142.078,233.02L137.725,233.167C132.624,233.339 128.269,229.984 126.915,225.355C126.703,224.63 126.564,223.873 126.508,223.094C126.48,222.71 126.472,222.321 126.486,221.928L126.633,217.574L123.45,214.6C121.103,212.406 119.953,209.432 120.001,206.474C120.048,203.635 121.197,200.811 123.45,198.706L126.633,195.731L126.486,191.377C126.469,190.885 126.485,190.401 126.532,189.925C127.086,184.311 131.923,179.942 137.725,180.138L142.078,180.285L145.053,177.103C149.352,172.503 156.648,172.503 160.947,177.103L163.922,180.285Z" clip-rule="evenodd" fill-rule="evenodd" fill="#000000" stroke="#FFFFFF" stroke-width="2" stroke-miterlimit="3.999327"/>
<rect  x="20" y="197.653" width="116" height="40" rx="16" fill="#000000" stroke="#FFFFFF" stroke-width="2" stroke-miterlimit="3.999327"/>
<path d="M32.033,218.717C30.955,210.344 37.477,202.929 45.919,202.929L116.081,202.929C124.523,202.929 131.045,210.344 129.967,218.717L125.073,256.717C124.173,263.7 118.228,268.929 111.187,268.929L50.813,268.929C43.772,268.929 37.827,263.7 36.927,256.717L32.033,218.717Z" fill="#000000" stroke="#FFFFFF" stroke-width="2" stroke-miterlimit="3.999327"/>
<path d="M20.029,147.36L73.531,178.25C77.472,180.525 79.966,184.516 80.306,188.735C80.664,193.18 78.557,197.831 73.717,200.128C63.333,205.057 48.636,205.446 28.297,193.703C5.183,180.358 -0.451,163.264 4.007,151.891C5.47,148.157 8.641,146.197 11.808,145.709C14.751,145.255 17.694,146.012 20.029,147.36Z" clip-rule="evenodd" fill-rule="evenodd" fill="#000000" stroke="#FFFFFF" stroke-width="2" stroke-miterlimit="3.999327"/>
<path d="M139.521,147.36L86.018,178.25C82.077,180.525 79.583,184.516 79.243,188.735C78.885,193.18 80.992,197.831 85.833,200.128C96.216,205.057 110.913,205.446 131.253,193.703C154.366,180.358 160.001,163.264 155.543,151.891C154.079,148.157 150.908,146.197 147.741,145.709C144.798,145.255 141.856,146.012 139.521,147.36Z" clip-rule="evenodd" fill-rule="evenodd" fill="#000000" stroke="#FFFFFF" stroke-width="2" stroke-miterlimit="3.999327"/>
<path d="M98.316,74.116L93.411,68.636C86.256,60.644 73.743,60.644 66.589,68.636L61.683,74.116C59.657,76.378 56.713,77.598 53.681,77.43L46.338,77.024C35.627,76.432 26.779,85.28 27.372,95.99L27.777,103.333C27.945,106.366 26.726,109.31 24.463,111.336L18.983,116.241C10.991,123.396 10.991,135.909 18.983,143.063L24.463,147.969C26.726,149.994 27.945,152.939 27.777,155.971L27.372,163.314C26.779,174.025 35.627,182.873 46.338,182.281L53.681,181.875C56.713,181.707 59.657,182.927 61.683,185.189L66.589,190.669C73.743,198.661 86.256,198.661 93.411,190.669L98.316,185.189C100.342,182.927 103.286,181.707 106.319,181.875L113.662,182.281C124.372,182.873 133.22,174.025 132.628,163.314L132.222,155.971C132.054,152.939 133.274,149.994 135.537,147.969L141.016,143.063C149.008,135.909 149.008,123.396 141.016,116.241L135.537,111.336C133.274,109.31 132.054,106.366 132.222,103.333L132.628,95.99C133.22,85.28 124.372,76.432 113.662,77.024L106.319,77.43C103.286,77.598 100.342,76.378 98.316,74.116Z" fill="#FFFFFF"/>
<path d="M27.775,208.132L27.775,146.352C27.775,143.222 29.717,140.207 32.813,140.675C40.719,141.87 51.775,151.507 51.775,176.684C51.775,198.763 44.643,209.171 37.222,214.293C32.895,217.279 27.775,213.388 27.775,208.132Z" transform="rotate(240 39.775 179.545)" fill="#FFC000" stroke="#000000" stroke-width="3" stroke-miterlimit="3.999327"/>
<path d="M107.775,208.132L107.775,146.352C107.775,143.222 109.717,140.207 112.813,140.675C120.719,141.87 131.775,151.507 131.775,176.684C131.775,198.763 124.643,209.171 117.221,214.293C112.895,217.279 107.775,213.388 107.775,208.132Z" transform="rotate(120 119.775 179.545)" fill="#FFC000" stroke="#000000" stroke-width="3" stroke-miterlimit="3.999327"/>
<path d="M70,146.407C70,140.885 74.477,136.407 80,136.407L80,136.407C85.523,136.407 90,140.885 90,146.407L90,234.407L70,234.407Z" fill="#FFC000"/>
<path d="M72.049,77.47C76.002,73.241 82.708,73.241 86.661,77.47L93.473,84.759C95.444,86.868 98.231,88.023 101.117,87.925L111.088,87.588C116.873,87.393 121.615,92.135 121.42,97.92L121.083,107.891C120.985,110.777 122.14,113.564 124.249,115.535L131.538,122.347C135.767,126.3 135.767,133.007 131.538,136.959L124.249,143.771C122.14,145.743 120.985,148.53 121.083,151.415L121.42,161.386C121.615,167.172 116.873,171.914 111.088,171.718L101.117,171.381C98.231,171.284 95.444,172.438 93.473,174.547L86.661,181.836C82.708,186.065 76.002,186.065 72.049,181.836L65.237,174.547C63.265,172.438 60.478,171.284 57.593,171.381L47.622,171.718C41.837,171.914 37.094,167.172 37.29,161.386L37.627,151.415C37.724,148.53 36.57,145.743 34.461,143.771L27.172,136.959C22.943,133.007 22.943,126.3 27.172,122.347L34.461,115.535C36.57,113.564 37.724,110.777 37.627,107.891L37.29,97.92C37.094,92.135 41.837,87.393 47.622,87.588L57.593,87.925C60.478,88.023 63.265,86.868 65.237,84.759L72.049,77.47Z" stroke="#000000" stroke-width="3" stroke-miterlimit="3.999327"/>
<path d="M72.049,77.47C76.002,73.241 82.708,73.241 86.661,77.47L93.473,84.759C95.444,86.868 98.231,88.023 101.117,87.925L111.088,87.588C116.873,87.393 121.615,92.135 121.42,97.92L121.083,107.891C120.985,110.777 122.14,113.564 124.249,115.535L131.538,122.347C135.767,126.3 135.767,133.007 131.538,136.959L124.249,143.771C122.14,145.743 120.985,148.53 121.083,151.415L121.42,161.386C121.615,167.172 116.873,171.914 111.088,171.718L101.117,171.381C98.231,171.284 95.444,172.438 93.473,174.547L86.661,181.836C82.708,186.065 76.002,186.065 72.049,181.836L65.237,174.547C63.265,172.438 60.478,171.284 57.593,171.381L47.622,171.718C41.837,171.914 37.094,167.172 37.29,161.386L37.627,151.415C37.724,148.53 36.57,145.743 34.461,143.771L27.172,136.959C22.943,133.007 22.943,126.3 27.172,122.347L34.461,115.535C36.57,113.564 37.724,110.777 37.627,107.891L37.29,97.92C37.094,92.135 41.837,87.393 47.622,87.588L57.593,87.925C60.478,88.023 63.265,86.868 65.237,84.759L72.049,77.47Z" fill="#00A3FF"/>
<path d="M64.121,124.998C62.95,123.827 61.05,123.827 59.879,124.998C58.707,126.17 58.707,128.069 59.879,129.241L64.121,124.998ZM76.933,142.053L74.812,144.174C75.984,145.346 77.883,145.346 79.055,144.174L76.933,142.053ZM101.455,121.774C102.626,120.603 102.626,118.703 101.455,117.532C100.283,116.36 98.384,116.36 97.212,117.532L101.455,121.774ZM59.879,129.241L74.812,144.174L79.055,139.931L64.121,124.998L59.879,129.241ZM79.055,144.174L101.455,121.774L97.212,117.532L74.812,139.931L79.055,144.174Z" fill="#FFFFFF"/>
<path d="M125.231,216.947L151.983,232.392C154.785,234.01 156.609,236.874 156.86,239.992C157.13,243.333 155.515,246.905 151.861,248.639C145.551,251.634 137.144,251.538 126.365,245.314C114.154,238.264 109.928,228.367 112.927,220.716C114.105,217.711 116.685,216.136 119.164,215.754C121.418,215.407 123.574,215.99 125.231,216.947Z" clip-rule="evenodd" fill-rule="evenodd" fill="#000000" stroke="#FFFFFF" stroke-width="2" stroke-miterlimit="3.999327"/>
<path d="M181.942,216.948L155.191,232.393C152.388,234.011 150.565,236.875 150.313,239.993C150.044,243.334 151.659,246.906 155.312,248.64C161.623,251.635 170.029,251.539 180.809,245.315C193.02,238.265 197.246,228.368 194.247,220.717C193.069,217.712 190.488,216.137 188.01,215.755C185.756,215.407 183.6,215.991 181.942,216.948Z" clip-rule="evenodd" fill-rule="evenodd" fill="#000000" stroke="#FFFFFF" stroke-width="2" stroke-miterlimit="3.999327"/>
<rect  x="142" y="207.653" width="22" height="62" rx="8" fill="#000000"/>
<path d="M127.57,249.515L127.57,218.625C127.57,217.06 128.541,215.553 130.089,215.787C134.042,216.384 139.57,221.203 139.57,233.791C139.57,244.831 136.004,250.035 132.293,252.596C130.13,254.089 127.57,252.143 127.57,249.515Z" transform="rotate(240 133.57 235.222)" fill="#FFC000"/>
<path d="M167.57,249.515L167.57,218.625C167.57,217.06 168.541,215.553 170.089,215.787C174.041,216.384 179.57,221.203 179.57,233.791C179.57,244.831 176.004,250.035 172.293,252.596C170.13,254.089 167.57,252.143 167.57,249.515Z" transform="rotate(120 173.57 235.222)" fill="#FFC000"/>
<rect  x="148" y="213.653" width="10" height="50" rx="2" fill="#FFC000"/>
<path d="M149.436,181.2C151.364,179.137 154.636,179.137 156.564,181.2L159.886,184.755C160.848,185.784 162.207,186.347 163.615,186.299L168.478,186.135C171.3,186.04 173.613,188.353 173.518,191.174L173.353,196.038C173.306,197.445 173.869,198.805 174.898,199.766L178.453,203.089C180.516,205.017 180.516,208.288 178.453,210.216L174.898,213.539C173.869,214.5 173.306,215.86 173.353,217.267L173.518,222.131C173.613,224.953 171.3,227.266 168.478,227.17L163.615,227.006C162.207,226.958 160.848,227.521 159.886,228.55L156.564,232.106C154.636,234.168 151.364,234.168 149.436,232.106L146.114,228.55C145.152,227.521 143.793,226.958 142.385,227.006L137.522,227.17C134.7,227.266 132.387,224.953 132.482,222.131L132.647,217.267C132.694,215.86 132.131,214.5 131.102,213.539L127.547,210.216C125.484,208.288 125.484,205.017 127.547,203.089L131.102,199.766C132.131,198.805 132.694,197.445 132.647,196.038L132.482,191.174C132.387,188.353 134.7,186.04 137.522,186.135L142.385,186.299C143.793,186.347 145.152,185.784 146.114,184.755L149.436,181.2Z" fill="#00A3FF" stroke="#000000" stroke-width="3" stroke-miterlimit="3.999327"/>
<path d="M149.436,181.2C151.364,179.137 154.636,179.137 156.564,181.2L159.886,184.755C160.848,185.784 162.207,186.347 163.615,186.299L168.478,186.135C171.3,186.04 173.613,188.353 173.518,191.174L173.353,196.038C173.306,197.445 173.869,198.805 174.898,199.766L178.453,203.089C180.516,205.017 180.516,208.288 178.453,210.216L174.898,213.539C173.869,214.5 173.306,215.86 173.353,217.267L173.518,222.131C173.613,224.953 171.3,227.266 168.478,227.17L163.615,227.006C162.207,226.958 160.848,227.521 159.886,228.55L156.564,232.106C154.636,234.168 151.364,234.168 149.436,232.106L146.114,228.55C145.152,227.521 143.793,226.958 142.385,227.006L137.522,227.17C134.7,227.266 132.387,224.953 132.482,222.131L132.647,217.267C132.694,215.86 132.131,214.5 131.102,213.539L127.547,210.216C125.484,208.288 125.484,205.017 127.547,203.089L131.102,199.766C132.131,198.805 132.694,197.445 132.647,196.038L132.482,191.174C132.387,188.353 134.7,186.04 137.522,186.135L142.385,186.299C143.793,186.347 145.152,185.784 146.114,184.755L149.436,181.2Z" fill="#00A3FF"/>
<path d="M146.414,204.649C145.633,203.868 144.367,203.868 143.586,204.649C142.805,205.43 142.805,206.696 143.586,207.477L146.414,204.649ZM152.467,213.53L151.052,214.944C151.834,215.725 153.1,215.725 153.881,214.944L152.467,213.53ZM165.081,203.744C165.862,202.963 165.862,201.697 165.081,200.916C164.3,200.135 163.034,200.135 162.253,200.916L165.081,203.744ZM143.586,207.477L151.052,214.944L153.881,212.116L146.414,204.649L143.586,207.477ZM153.881,214.944L165.081,203.744L162.253,200.916L151.052,212.116L153.881,214.944Z" fill="#FFFFFF"/>
<path d="M32.033,218.717C30.955,210.345 37.477,202.929 45.919,202.929L116.081,202.929C124.523,202.929 131.045,210.345 129.967,218.717L125.073,256.717C124.173,263.7 118.228,268.929 111.187,268.929L50.813,268.929C43.772,268.929 37.827,263.7 36.927,256.717L32.033,218.717Z" fill="#000000"/>
<path d="M37.264,218.03C36.596,213.22 40.332,208.929 45.188,208.929L116.812,208.929C121.668,208.929 125.404,213.22 124.736,218.03L119.458,256.03C118.909,259.985 115.527,262.929 111.534,262.929L50.466,262.929C46.473,262.929 43.091,259.985 42.542,256.03L37.264,218.03Z" fill="#FFC000"/>
<rect  x="24" y="201.653" width="112" height="36" rx="14" fill="#000000"/>
<rect  x="30" y="207.653" width="100" height="24" rx="8" fill="#FFC000"/>
<path d="M178.035,57.622L178.035,43.622L191.035,57.622L178.035,57.622Z" transform="rotate(120 184.535 50.622)" fill="#FFFFFF"/>
<path d="M181.208,42.581C181.643,35.181 187.771,29.403 195.184,29.403L240.782,29.403C248.195,29.403 254.323,35.181 254.758,42.581L259.111,116.581C259.584,124.623 253.19,131.403 245.135,131.403L190.831,131.403C182.775,131.403 176.382,124.623 176.855,116.581L181.208,42.581Z" transform="rotate(30 217.983 80.403)" fill="#000000" stroke="#FFFFFF" stroke-width="2" stroke-miterlimit="3.999327"/>
<rect  x="189.948" y="111.583" width="84" height="20" rx="10" transform="rotate(-240 189.948 111.583)" fill="#000000" stroke="#FFFFFF" stroke-width="2" stroke-miterlimit="3.999327"/>
<rect  x="123.895" y="41.177" width="64" height="34" rx="16" transform="rotate(-60 123.895 41.177)" fill="#000000" stroke="#FFFFFF" stroke-width="2" stroke-miterlimit="3.999327"/>
<path d="M181.116,42.342C181.542,34.934 187.673,29.145 195.093,29.145L238.941,29.145C246.361,29.145 252.492,34.934 252.918,42.342L257.167,116.342C257.628,124.376 251.238,131.145 243.19,131.145L190.844,131.145C182.796,131.145 176.406,124.376 176.867,116.342L181.116,42.342Z" transform="rotate(30 217.017 80.145)" fill="#000000"/>
<rect  x="125.163" y="40.445" width="60" height="30" rx="14" transform="rotate(-60 125.163 40.445)" fill="#000000"/>
<rect  x="189.216" y="107.387" width="80" height="16" rx="8" transform="rotate(-240 189.216 107.387)" fill="#000000"/>
<rect  x="133.359" y="42.641" width="48" height="18" rx="8" transform="rotate(-60 133.359 42.641)" fill="#FF00E5"/>
<path d="M186.695,42.947C186.937,38.713 190.441,35.403 194.682,35.403L241.285,35.403C245.526,35.403 249.03,38.713 249.272,42.947L253.5,116.947C253.762,121.537 250.111,125.403 245.513,125.403L190.454,125.403C185.856,125.403 182.204,121.537 182.467,116.947L186.695,42.947Z" transform="rotate(30 217.983 80.403)" fill="#FF00E5"/>
<path d="M208.466,58.94C208.671,57.296 207.505,55.797 205.861,55.591C204.217,55.386 202.718,56.552 202.512,58.196L208.466,58.94ZM208.561,102.521C209.511,103.879 211.382,104.209 212.739,103.259C214.097,102.309 214.427,100.438 213.477,99.081L208.561,102.521ZM202.512,58.196C201.931,62.845 201.787,71.433 202.553,79.953C202.938,84.23 203.558,88.568 204.495,92.442C205.419,96.26 206.708,99.874 208.561,102.521L213.477,99.081C212.261,97.344 211.187,94.583 210.327,91.031C209.481,87.533 208.897,83.506 208.529,79.416C207.791,71.204 207.951,63.06 208.466,58.94L202.512,58.196Z" transform="rotate(-330 208.023 79.685)" fill="#000000"/>
<path d="M235.514,76.317C235.514,85.397 229.135,92.758 221.266,92.758C213.397,92.758 208.113,90.877 208.113,81.797C208.113,72.717 213.397,59.877 221.266,59.877C229.135,59.877 235.514,67.237 235.514,76.317Z" transform="rotate(68.874 221.814 76.317)" stroke="#000000" stroke-width="3" stroke-miterlimit="3.999327"/>
</svg>
