<svg width="284" height="184" viewBox="0 0 284 184" fill="none" xmlns="http://www.w3.org/2000/svg" xmlns:xlink="http://www.w3.org/1999/xlink">
<path d="M68.693,56.508C70.456,55.529 72.606,55.556 74.343,56.579C76.081,57.602 77.148,59.468 77.148,61.485C77.148,63.179 77.529,64.251 77.98,64.975C78.438,65.712 79.18,66.424 80.403,67.062C83.029,68.432 87.278,69.145 92.95,68.988C104.078,68.681 117.791,65.143 127.15,61.861C130.069,60.664 134.785,59.826 139.334,61.102C141.776,61.787 144.296,63.125 146.319,65.464C148.349,67.812 149.575,70.816 149.997,74.322C150.838,81.298 148.043,86.551 145.182,90.007C145.923,91.238 146.514,92.632 146.866,94.152C147.767,98.036 147.039,102.25 144.359,106.296C144.999,107.602 145.501,109.125 145.735,110.819C146.243,114.503 145.432,118.568 142.765,122.54C143.389,123.807 143.876,125.278 144.106,126.917C144.804,131.887 143.043,137.451 137.824,142.737C132.32,148.312 124.477,151.338 117.717,153.014C110.835,154.719 104.251,155.223 100.471,155.223C77.991,155.223 56.959,146.101 45.854,123.454C32.368,95.951 46.849,68.634 68.693,56.508Z" transform="rotate(-60 95.395 105.508)" fill="#FFFFFF"/>
<rect  x="25.142" y="39.835" width="65.055" height="113.846" rx="12" transform="rotate(-60 25.142 39.835)" fill="#FFFFFF"/>
<path d="M226.991,38.119C220.953,37.364 212.425,39.438 208.524,48.615C205.384,56.002 205.902,66.771 211.271,81.884C207.78,83.109 204.138,85.153 201.048,88.322C200.816,87.825 200.562,87.34 200.287,86.868C200.99,85.628 201.555,84.288 201.954,82.866C204.444,74.006 199.74,64.831 191.086,61.711L179.132,57.402C168.607,53.607 156.922,59.651 153.894,70.427C152.453,75.556 153.268,80.716 155.717,84.908C153.561,87.985 152.285,91.741 152.285,95.811C152.285,100.199 153.768,104.221 156.237,107.42C154.594,111.206 154.197,115.578 155.418,119.921C156.545,123.934 158.875,127.286 161.883,129.717C160.919,134.153 161.601,138.97 164.19,143.246C169.162,151.457 179.336,154.709 187.95,151.579C206.543,154.994 220.212,152.963 230.262,148.243C243.435,142.057 249.325,131.759 251.989,125.925C258.327,112.05 258.089,91.464 253.976,74.366C251.892,65.705 248.709,57.464 244.482,51.035C240.333,44.725 234.598,39.321 227.176,38.145C227.115,38.135 227.053,38.127 226.991,38.119Z" clip-rule="evenodd" fill-rule="evenodd" transform="rotate(60 204.607 95.629)" fill="#FFFFFF"/>
<rect  x="210.427" y="5.301" width="65.055" height="113.846" rx="12" transform="rotate(60 210.427 5.301)" fill="#FFFFFF"/>
<rect  x="211.618" y="9.745" width="58.549" height="95.956" rx="8" transform="rotate(60 211.618 9.745)" fill="#000000"/>
<path d="M226.595,25.434C226.595,26.782 225.503,27.874 224.156,27.874C222.808,27.874 221.716,26.782 221.716,25.434C221.716,24.087 222.808,22.995 224.156,22.995C225.503,22.995 226.595,24.087 226.595,25.434Z" transform="rotate(60 224.156 25.434)" fill="#00A3FF"/>
<rect  x="231.713" y="26.981" width="16.264" height="4.879" rx="22.5" transform="rotate(60 231.713 26.981)" fill="#00A3FF"/>
<path d="M246.159,126.001C257.347,101.504 246.159,49.46 225.633,46.208C216.959,45.123 203.352,52.062 218.314,88.493C209.369,89.035 193.268,96.625 200.424,122.647L167.084,122.647L170.336,143.79C225.633,161.68 241.377,136.471 246.159,126.001Z" transform="rotate(60 208.834 98.067)" fill="#00A3FF" stroke="#000000" stroke-width="3" stroke-miterlimit="3.999327" stroke-linecap="round" stroke-linejoin="round"/>
<path d="M151.484,117.026C151.484,109.086 158.33,102.876 166.233,103.648L178.362,104.832C184.638,105.445 189.423,110.721 189.423,117.026L189.423,117.026C189.423,123.332 184.638,128.608 178.362,129.221L166.233,130.405C158.33,131.177 151.484,124.967 151.484,117.026L151.484,117.026Z" transform="rotate(2.334 170.454 117.026)" fill="#00A3FF" stroke="#000000" stroke-width="3" stroke-miterlimit="3.999327"/>
<path d="M154.652,98.701C154.652,90.827 161.433,84.665 169.271,85.417L181.948,86.634C188.166,87.23 192.913,92.454 192.913,98.701L192.913,98.701C192.913,104.947 188.166,110.171 181.948,110.767L169.271,111.984C161.433,112.736 154.652,106.574 154.652,98.701L154.652,98.701Z" transform="rotate(31.336 173.782 98.701)" fill="#00A3FF" stroke="#000000" stroke-width="3" stroke-miterlimit="3.999327"/>
<path d="M161.519,82.231C161.519,74.378 168.273,68.227 176.092,68.96L189.622,70.228C195.817,70.809 200.552,76.009 200.552,82.231L200.552,82.231C200.552,88.453 195.817,93.653 189.622,94.233L176.092,95.502C168.274,96.235 161.519,90.084 161.519,82.231L161.519,82.231Z" transform="rotate(60 181.035 82.231)" fill="#00A3FF" stroke="#000000" stroke-width="3" stroke-miterlimit="3.999327"/>
<path d="M171.859,65.848C171.859,57.975 178.641,51.813 186.478,52.565L199.156,53.782C205.374,54.378 210.12,59.602 210.12,65.848L210.12,65.848C210.12,72.095 205.374,77.319 199.156,77.915L186.478,79.132C178.641,79.884 171.859,73.722 171.859,65.848L171.859,65.848Z" transform="rotate(88.664 190.99 65.848)" fill="#00A3FF" stroke="#000000" stroke-width="3" stroke-miterlimit="3.999327"/>
<rect  x="29.585" y="41.026" width="58.549" height="107.341" rx="8" transform="rotate(-60 29.585 41.026)" fill="#000000"/>
<rect  x="36.25" y="42.812" width="24.396" height="24.396" rx="8" transform="rotate(-60 36.25 42.812)" fill="#FFC000"/>
<circle cx="46.248" cy="45.491" r="4.066" transform="rotate(-60 46.248 45.491)" fill="#000000"/>
<circle cx="57.138" cy="44.837" r="4.066" transform="rotate(-60 57.138 44.837)" fill="#000000"/>
<circle cx="51.127" cy="53.942" r="4.066" transform="rotate(-60 51.127 53.942)" fill="#000000"/>
<path d="M56.022,132.499C70.839,149.471 91.067,152.699 111.239,147.294C117.773,145.543 134.397,139.176 140.613,128.25C146.545,117.82 140.044,112.406 137.974,112.119C144.012,102.082 137.405,96.276 135.336,95.989C141.374,85.952 134.33,80.551 131.126,80.279C133.103,77.72 137.331,71.428 134.329,63.951C130.458,54.305 121.073,57.639 117.666,60.313C100.831,71.84 65.812,89.866 60.424,69.758C44.086,85.556 38.343,112.247 56.022,132.499Z" transform="rotate(-30 94.119 103.603)" fill="#FFC000" stroke="#000000" stroke-width="3" stroke-miterlimit="3.999327" stroke-linecap="round" stroke-linejoin="round"/>
</svg>
