<svg width="350" height="226" viewBox="0 0 350 226" fill="none" xmlns="http://www.w3.org/2000/svg" xmlns:xlink="http://www.w3.org/1999/xlink">
<path d="M84.934,70.03C87.102,68.826 89.745,68.859 91.882,70.117C94.019,71.375 95.331,73.67 95.331,76.15C95.331,78.234 95.799,79.552 96.353,80.443C96.917,81.348 97.829,82.224 99.334,83.009C102.563,84.693 107.788,85.57 114.763,85.377C128.447,85 145.31,80.648 156.82,76.612C160.409,75.14 166.209,74.11 171.802,75.679C174.806,76.522 177.905,78.167 180.392,81.044C182.889,83.931 184.396,87.625 184.915,91.937C185.949,100.516 182.513,106.975 178.994,111.224C179.906,112.738 180.632,114.453 181.066,116.322C182.173,121.098 181.278,126.281 177.982,131.256C178.769,132.862 179.386,134.735 179.674,136.818C180.299,141.348 179.301,146.347 176.022,151.232C176.789,152.79 177.389,154.598 177.671,156.615C178.529,162.726 176.363,169.568 169.946,176.068C163.177,182.924 153.533,186.645 145.219,188.706C136.756,190.803 128.661,191.423 124.012,191.423C96.367,191.423 70.504,180.206 56.848,152.356C40.264,118.534 58.071,84.942 84.934,70.03Z" transform="rotate(-60 117.77 130.286)" fill="#FFFFFF"/>
<rect  x="31.376" y="49.527" width="80" height="140" rx="12" transform="rotate(-60 31.376 49.527)" fill="#FFFFFF"/>
<path d="M279.597,47.417C272.172,46.488 261.684,49.039 256.887,60.324C253.026,69.408 253.663,82.651 260.265,101.236C255.973,102.743 251.494,105.256 247.694,109.153C247.409,108.542 247.096,107.945 246.758,107.365C247.623,105.839 248.317,104.192 248.808,102.444C251.87,91.549 246.085,80.265 235.444,76.429L220.744,71.129C207.801,66.463 193.431,73.895 189.707,87.147C187.935,93.454 188.937,99.8 191.949,104.954C189.298,108.738 187.729,113.357 187.729,118.362C187.729,123.758 189.552,128.704 192.588,132.639C190.568,137.294 190.08,142.67 191.581,148.011C192.968,152.946 195.832,157.068 199.532,160.058C198.345,165.513 199.185,171.436 202.369,176.694C208.483,186.792 220.994,190.791 231.587,186.942C254.451,191.141 271.26,188.643 283.62,182.839C299.818,175.233 307.061,162.569 310.338,155.395C318.131,138.332 317.839,113.017 312.781,91.991C310.219,81.34 306.304,71.206 301.106,63.3C296.003,55.54 288.952,48.895 279.825,47.449C279.749,47.437 279.673,47.426 279.597,47.417Z" clip-rule="evenodd" fill-rule="evenodd" transform="rotate(60 252.071 118.139)" fill="#FFFFFF"/>
<rect  x="259.228" y="7.06" width="80" height="140" rx="12" transform="rotate(60 259.228 7.06)" fill="#FFFFFF"/>
<rect  x="260.691" y="12.524" width="72" height="118" rx="8" transform="rotate(60 260.691 12.524)" fill="#000000"/>
<path d="M279.11,31.818C279.11,33.475 277.767,34.818 276.11,34.818C274.453,34.818 273.11,33.475 273.11,31.818C273.11,30.161 274.453,28.818 276.11,28.818C277.767,28.818 279.11,30.161 279.11,31.818Z" transform="rotate(60 276.11 31.818)" fill="#00A3FF"/>
<rect  x="285.404" y="33.719" width="20" height="6" rx="22.5" transform="rotate(60 285.404 33.719)" fill="#00A3FF"/>
<path d="M303.168,155.487C316.926,125.363 303.168,61.363 277.926,57.363C267.26,56.03 250.526,64.563 268.926,109.363C257.926,110.03 238.126,119.363 246.926,151.363L205.926,151.363L209.926,177.363C277.926,199.363 297.287,168.363 303.168,155.487Z" transform="rotate(60 257.268 121.136)" fill="#00A3FF" stroke="#000000" stroke-width="3" stroke-miterlimit="3.999327" stroke-linecap="round" stroke-linejoin="round"/>
<path d="M186.743,144.451C186.743,134.687 195.162,127.05 204.881,127.999L219.796,129.456C227.514,130.209 233.399,136.697 233.399,144.451L233.399,144.451C233.399,152.206 227.514,158.694 219.796,159.447L204.881,160.904C195.162,161.853 186.743,154.216 186.743,144.451L186.743,144.451Z" transform="rotate(2.334 210.071 144.451)" fill="#00A3FF" stroke="#000000" stroke-width="3" stroke-miterlimit="3.999327"/>
<path d="M190.639,121.915C190.639,112.233 198.978,104.656 208.616,105.581L224.206,107.077C231.853,107.81 237.69,114.234 237.69,121.915L237.69,121.915C237.69,129.597 231.853,136.021 224.206,136.754L208.617,138.251C198.978,139.175 190.639,131.598 190.639,121.915L190.639,121.915Z" transform="rotate(31.336 214.164 121.915)" fill="#00A3FF" stroke="#000000" stroke-width="3" stroke-miterlimit="3.999327"/>
<path d="M199.084,101.662C199.084,92.005 207.39,84.441 217.005,85.342L233.643,86.902C241.261,87.616 247.084,94.011 247.084,101.662L247.084,101.662C247.084,109.313 241.261,115.708 233.643,116.422L217.005,117.982C207.39,118.883 199.084,111.319 199.084,101.662L199.084,101.662Z" transform="rotate(60 223.084 101.662)" fill="#00A3FF" stroke="#000000" stroke-width="3" stroke-miterlimit="3.999327"/>
<path d="M211.8,81.516C211.8,71.834 220.14,64.257 229.778,65.181L245.368,66.677C253.014,67.411 258.851,73.835 258.851,81.516L258.851,81.516C258.851,89.198 253.014,95.622 245.368,96.355L229.778,97.851C220.14,98.776 211.8,91.199 211.8,81.516L211.8,81.516Z" transform="rotate(88.664 235.325 81.516)" fill="#00A3FF" stroke="#000000" stroke-width="3" stroke-miterlimit="3.999327"/>
<rect  x="36.841" y="50.992" width="72" height="132" rx="8" transform="rotate(-60 36.841 50.992)" fill="#000000"/>
<rect  x="45.037" y="53.188" width="30" height="30" rx="8" transform="rotate(-60 45.037 53.188)" fill="#FFC000"/>
<circle cx="57.331" cy="56.482" r="5" transform="rotate(-60 57.331 56.482)" fill="#000000"/>
<circle cx="70.723" cy="55.678" r="5" transform="rotate(-60 70.723 55.678)" fill="#000000"/>
<circle cx="63.331" cy="66.874" r="5" transform="rotate(-60 63.331 66.874)" fill="#000000"/>
<path d="M69.351,163.478C87.572,184.349 112.447,188.319 137.253,181.672C145.288,179.519 165.732,171.689 173.375,158.253C180.67,145.428 172.675,138.77 170.13,138.417C177.555,126.074 169.43,118.934 166.886,118.58C174.311,106.238 165.649,99.596 161.709,99.262C164.14,96.115 169.339,88.378 165.648,79.183C160.887,67.321 149.346,71.421 145.157,74.709C124.454,88.884 81.391,111.052 74.765,86.324C54.673,105.751 47.61,138.574 69.351,163.478Z" transform="rotate(-30 116.2 127.944)" fill="#FFC000" stroke="#000000" stroke-width="3" stroke-miterlimit="3.999327" stroke-linecap="round" stroke-linejoin="round"/>
</svg>
