<svg width="250" height="262" viewBox="0 0 250 262" fill="none" xmlns="http://www.w3.org/2000/svg" xmlns:xlink="http://www.w3.org/1999/xlink">
<rect  x="126" y="191.653" width="30" height="70" rx="12" fill="#FFFFFF"/>
<path d="M151.922,172.286L156.275,172.139C161.327,171.968 165.648,175.258 167.046,179.818L167.065,179.882L167.084,179.947C167.402,181.03 167.555,182.183 167.514,183.377L167.367,187.731L170.55,190.706C171.221,191.333 171.794,192.023 172.269,192.759C174.238,195.808 174.527,199.631 173.137,202.907C172.562,204.263 171.7,205.525 170.55,206.6L167.367,209.575L167.514,213.928C167.541,214.715 167.484,215.484 167.351,216.227C166.42,221.427 161.782,225.353 156.275,225.167L151.922,225.02L148.947,228.203C144.648,232.803 137.352,232.803 133.053,228.203L130.078,225.02L125.725,225.167C120.624,225.34 116.269,221.984 114.915,217.356C114.703,216.63 114.564,215.873 114.508,215.094C114.48,214.711 114.472,214.322 114.486,213.928L114.633,209.575L111.45,206.6C109.103,204.406 107.953,201.432 108.001,198.475C108.048,195.636 109.197,192.811 111.45,190.706L114.633,187.731L114.486,183.377C114.469,182.886 114.485,182.401 114.532,181.925C115.086,176.311 119.923,171.942 125.725,172.139L130.078,172.286L133.053,169.103C137.352,164.503 144.648,164.503 148.947,169.103L151.922,172.286Z" clip-rule="evenodd" fill-rule="evenodd" fill="#000000" stroke="#FFFFFF" stroke-width="2" stroke-miterlimit="3.999327"/>
<path d="M86.316,82.116L81.411,76.636C74.256,68.644 61.743,68.644 54.589,76.636L49.683,82.116C47.657,84.378 44.713,85.598 41.681,85.43L34.338,85.024C23.627,84.432 14.779,93.28 15.372,103.99L15.777,111.333C15.945,114.366 14.726,117.31 12.463,119.336L6.983,124.241C-1.009,131.396 -1.009,143.909 6.983,151.063L12.463,155.969C14.726,157.994 15.945,160.939 15.777,163.971L15.372,171.314C14.779,182.025 23.627,190.873 34.338,190.281L41.681,189.875C44.713,189.707 47.657,190.927 49.683,193.189L54.589,198.669C61.743,206.661 74.256,206.661 81.411,198.669L86.316,193.189C88.342,190.927 91.286,189.707 94.319,189.875L101.662,190.281C112.372,190.873 121.22,182.025 120.628,171.314L120.222,163.971C120.054,160.939 121.274,157.994 123.537,155.969L129.016,151.063C137.008,143.909 137.008,131.396 129.016,124.241L123.537,119.336C121.274,117.31 120.054,114.366 120.222,111.333L120.628,103.99C121.22,93.28 112.372,84.432 101.662,85.024L94.319,85.43C91.286,85.598 88.342,84.378 86.316,82.116Z" fill="#FFFFFF"/>
<rect  x="8" y="185.653" width="116" height="40" rx="16" fill="#000000" stroke="#FFFFFF" stroke-width="2" stroke-miterlimit="3.999327"/>
<path d="M20.033,206.717C18.955,198.344 25.477,190.929 33.919,190.929L104.081,190.929C112.523,190.929 119.045,198.344 117.967,206.717L113.073,244.717C112.173,251.7 106.228,256.929 99.187,256.929L38.813,256.929C31.772,256.929 25.827,251.7 24.927,244.717L20.033,206.717Z" fill="#000000" stroke="#FFFFFF" stroke-width="2" stroke-miterlimit="3.999327"/>
<path d="M28.029,161.36L81.532,192.25C85.473,194.526 87.967,198.516 88.307,202.736C88.665,207.18 86.558,211.831 81.717,214.129C71.333,219.057 56.637,219.446 36.297,207.703C13.183,194.358 7.549,177.264 12.007,165.891C13.471,162.157 16.642,160.197 19.809,159.709C22.752,159.255 25.694,160.012 28.029,161.36Z" clip-rule="evenodd" fill-rule="evenodd" transform="rotate(50 49.474 188.478)" fill="#000000" stroke="#FFFFFF" stroke-width="2" stroke-miterlimit="3.999327"/>
<path d="M107.521,161.36L54.018,192.25C50.077,194.526 47.583,198.516 47.243,202.736C46.885,207.18 48.992,211.831 53.833,214.129C64.217,219.057 78.913,219.446 99.253,207.703C122.367,194.358 128.001,177.264 123.543,165.891C122.08,162.158 118.908,160.197 115.741,159.709C112.799,159.255 109.856,160.012 107.521,161.36Z" clip-rule="evenodd" fill-rule="evenodd" transform="rotate(-50 86.076 188.478)" fill="#000000" stroke="#FFFFFF" stroke-width="2" stroke-miterlimit="3.999327"/>
<path d="M35.776,222.132L35.776,160.352C35.776,157.221 37.718,154.206 40.814,154.674C48.72,155.87 59.776,165.506 59.776,190.684C59.776,212.762 52.644,223.171 45.222,228.293C40.896,231.279 35.776,227.388 35.776,222.132Z" transform="rotate(280 47.776 193.545)" fill="#FFC000" stroke="#000000" stroke-width="3" stroke-miterlimit="3.999327"/>
<path d="M75.775,222.131L75.775,160.352C75.775,157.221 77.717,154.206 80.813,154.674C88.719,155.869 99.775,165.506 99.775,190.683C99.775,212.762 92.643,223.171 85.221,228.293C80.895,231.278 75.775,227.388 75.775,222.131Z" transform="rotate(70 87.775 193.545)" fill="#FFC000" stroke="#000000" stroke-width="3" stroke-miterlimit="3.999327"/>
<path d="M58,134.407C58,128.885 62.477,124.407 68,124.407L68,124.407C73.523,124.407 78,128.885 78,134.407L78,222.407L58,222.407Z" fill="#FFC000"/>
<path d="M60.049,85.47C64.002,81.241 70.708,81.241 74.661,85.47L81.473,92.759C83.444,94.868 86.231,96.023 89.117,95.925L99.088,95.588C104.873,95.393 109.615,100.135 109.42,105.92L109.083,115.891C108.985,118.777 110.14,121.564 112.249,123.535L119.538,130.347C123.767,134.3 123.767,141.007 119.538,144.959L112.249,151.771C110.14,153.743 108.985,156.53 109.083,159.415L109.42,169.386C109.615,175.172 104.873,179.914 99.088,179.718L89.117,179.381C86.231,179.284 83.444,180.438 81.473,182.547L74.661,189.836C70.708,194.065 64.002,194.065 60.049,189.836L53.237,182.547C51.265,180.438 48.478,179.284 45.593,179.381L35.622,179.718C29.837,179.914 25.094,175.172 25.29,169.386L25.627,159.415C25.724,156.53 24.57,153.743 22.461,151.771L15.172,144.959C10.943,141.007 10.943,134.3 15.172,130.347L22.461,123.535C24.57,121.564 25.724,118.777 25.627,115.891L25.29,105.92C25.094,100.135 29.837,95.393 35.622,95.588L45.593,95.925C48.478,96.023 51.265,94.868 53.237,92.759L60.049,85.47Z" stroke="#000000" stroke-width="3" stroke-miterlimit="3.999327"/>
<path d="M60.049,85.47C64.002,81.241 70.708,81.241 74.661,85.47L81.473,92.759C83.444,94.868 86.231,96.023 89.117,95.925L99.088,95.588C104.873,95.393 109.615,100.135 109.42,105.92L109.083,115.891C108.985,118.777 110.14,121.564 112.249,123.535L119.538,130.347C123.767,134.3 123.767,141.007 119.538,144.959L112.249,151.771C110.14,153.743 108.985,156.53 109.083,159.415L109.42,169.386C109.615,175.172 104.873,179.914 99.088,179.718L89.117,179.381C86.231,179.284 83.444,180.438 81.473,182.547L74.661,189.836C70.708,194.065 64.002,194.065 60.049,189.836L53.237,182.547C51.265,180.438 48.478,179.284 45.593,179.381L35.622,179.718C29.837,179.914 25.094,175.172 25.29,169.386L25.627,159.415C25.724,156.53 24.57,153.743 22.461,151.771L15.172,144.959C10.943,141.007 10.943,134.3 15.172,130.347L22.461,123.535C24.57,121.564 25.724,118.777 25.627,115.891L25.29,105.92C25.094,100.135 29.837,95.393 35.622,95.588L45.593,95.925C48.478,96.023 51.265,94.868 53.237,92.759L60.049,85.47Z" fill="#00A3FF"/>
<path d="M52.121,132.998C50.95,131.827 49.05,131.827 47.879,132.998C46.707,134.17 46.707,136.069 47.879,137.241L52.121,132.998ZM64.933,150.053L62.812,152.174C63.984,153.346 65.883,153.346 67.055,152.174L64.933,150.053ZM89.455,129.774C90.626,128.603 90.626,126.703 89.455,125.532C88.283,124.36 86.384,124.36 85.212,125.532L89.455,129.774ZM47.879,137.241L62.812,152.174L67.055,147.931L52.121,132.998L47.879,137.241ZM67.055,152.174L89.455,129.774L85.212,125.532L62.812,147.931L67.055,152.174Z" fill="#FFFFFF"/>
<path d="M115.231,212.946L141.982,228.391C144.785,230.01 146.609,232.874 146.86,235.991C147.129,239.333 145.514,242.905 141.861,244.639C135.551,247.634 127.144,247.537 116.365,241.314C104.153,234.264 99.928,224.366 102.927,216.715C104.105,213.71 106.685,212.136 109.163,211.754C111.418,211.406 113.574,211.99 115.231,212.946Z" clip-rule="evenodd" fill-rule="evenodd" transform="rotate(30 124.444 229.104)" fill="#000000" stroke="#FFFFFF" stroke-width="2" stroke-miterlimit="3.999327"/>
<path d="M167.942,212.947L141.191,228.392C138.388,230.011 136.565,232.875 136.313,235.992C136.044,239.334 137.659,242.906 141.312,244.64C147.623,247.635 156.029,247.538 166.809,241.315C179.02,234.265 183.246,224.367 180.247,216.716C179.069,213.711 176.488,212.137 174.01,211.755C171.756,211.407 169.6,211.991 167.942,212.947Z" clip-rule="evenodd" fill-rule="evenodd" transform="rotate(-30 158.729 229.105)" fill="#000000" stroke="#FFFFFF" stroke-width="2" stroke-miterlimit="3.999327"/>
<rect  x="130" y="195.653" width="22" height="62" rx="8" fill="#000000"/>
<path d="M117.57,245.516L117.57,214.626C117.57,213.06 118.541,211.553 120.089,211.787C124.042,212.385 129.57,217.203 129.57,229.792C129.57,240.831 126.004,246.035 122.293,248.596C120.13,250.089 117.57,248.144 117.57,245.516Z" transform="rotate(270 123.57 231.222)" fill="#FFC000"/>
<path d="M153.569,245.516L153.569,214.626C153.569,213.06 154.541,211.553 156.088,211.787C160.041,212.385 165.569,217.203 165.569,229.792C165.569,240.831 162.003,246.035 158.293,248.596C156.13,250.089 153.569,248.144 153.569,245.516Z" transform="rotate(90 159.569 231.222)" fill="#FFC000"/>
<rect  x="136" y="201.653" width="10" height="50" rx="2" fill="#FFC000"/>
<path d="M137.436,173.2C139.364,171.137 142.636,171.137 144.564,173.2L147.886,176.755C148.848,177.784 150.207,178.347 151.615,178.299L156.478,178.135C159.3,178.04 161.613,180.353 161.518,183.175L161.353,188.038C161.306,189.446 161.869,190.805 162.898,191.766L166.453,195.089C168.516,197.017 168.516,200.288 166.453,202.216L162.898,205.539C161.869,206.501 161.306,207.86 161.353,209.267L161.518,214.131C161.613,216.953 159.3,219.266 156.478,219.171L151.615,219.006C150.207,218.959 148.848,219.522 147.886,220.55L144.564,224.106C142.636,226.168 139.364,226.168 137.436,224.106L134.114,220.55C133.152,219.522 131.793,218.959 130.385,219.006L125.522,219.171C122.7,219.266 120.387,216.953 120.482,214.131L120.647,209.267C120.694,207.86 120.131,206.501 119.102,205.539L115.547,202.216C113.484,200.288 113.484,197.017 115.547,195.089L119.102,191.766C120.131,190.805 120.694,189.446 120.647,188.038L120.482,183.175C120.387,180.353 122.7,178.04 125.522,178.135L130.385,178.299C131.793,178.347 133.152,177.784 134.114,176.755L137.436,173.2Z" fill="#00A3FF" stroke="#000000" stroke-width="3" stroke-miterlimit="3.999327"/>
<path d="M137.436,173.2C139.364,171.137 142.636,171.137 144.564,173.2L147.886,176.755C148.848,177.784 150.207,178.347 151.615,178.299L156.478,178.135C159.3,178.04 161.613,180.353 161.518,183.175L161.353,188.038C161.306,189.446 161.869,190.805 162.898,191.766L166.453,195.089C168.516,197.017 168.516,200.288 166.453,202.216L162.898,205.539C161.869,206.501 161.306,207.86 161.353,209.267L161.518,214.131C161.613,216.953 159.3,219.266 156.478,219.171L151.615,219.006C150.207,218.959 148.848,219.522 147.886,220.55L144.564,224.106C142.636,226.168 139.364,226.168 137.436,224.106L134.114,220.55C133.152,219.522 131.793,218.959 130.385,219.006L125.522,219.171C122.7,219.266 120.387,216.953 120.482,214.131L120.647,209.267C120.694,207.86 120.131,206.501 119.102,205.539L115.547,202.216C113.484,200.288 113.484,197.017 115.547,195.089L119.102,191.766C120.131,190.805 120.694,189.446 120.647,188.038L120.482,183.175C120.387,180.353 122.7,178.04 125.522,178.135L130.385,178.299C131.793,178.347 133.152,177.784 134.114,176.755L137.436,173.2Z" fill="#00A3FF"/>
<path d="M134.414,196.649C133.633,195.868 132.367,195.868 131.586,196.649C130.805,197.43 130.805,198.697 131.586,199.478L134.414,196.649ZM140.467,205.53L139.052,206.944C139.834,207.725 141.1,207.725 141.881,206.944L140.467,205.53ZM153.081,195.744C153.862,194.963 153.862,193.697 153.081,192.916C152.3,192.135 151.034,192.135 150.253,192.916L153.081,195.744ZM131.586,199.478L139.052,206.944L141.881,204.116L134.414,196.649L131.586,199.478ZM141.881,206.944L153.081,195.744L150.253,192.916L139.052,204.116L141.881,206.944Z" fill="#FFFFFF"/>
<path d="M20.033,206.717C18.955,198.345 25.477,190.929 33.919,190.929L104.081,190.929C112.523,190.929 119.045,198.345 117.967,206.717L113.073,244.717C112.173,251.7 106.228,256.929 99.187,256.929L38.813,256.929C31.772,256.929 25.827,251.7 24.927,244.717L20.033,206.717Z" fill="#000000"/>
<path d="M25.264,206.03C24.596,201.22 28.332,196.929 33.188,196.929L104.812,196.929C109.668,196.929 113.404,201.22 112.736,206.03L107.458,244.03C106.909,247.985 103.527,250.929 99.534,250.929L38.466,250.929C34.473,250.929 31.091,247.985 30.542,244.03L25.264,206.03Z" fill="#FFC000"/>
<rect  x="12" y="189.653" width="112" height="36" rx="14" fill="#000000"/>
<rect  x="18" y="195.653" width="100" height="24" rx="8" fill="#FFC000"/>
<path d="M161.231,47.89L161.231,33.89L174.231,47.89L161.231,47.89Z" transform="rotate(90 167.731 40.89)" fill="#FFFFFF"/>
<path d="M170.972,23.178C171.408,15.778 177.536,10 184.948,10L230.547,10C237.96,10 244.087,15.778 244.523,23.178L248.876,97.178C249.349,105.219 242.955,112 234.9,112L180.595,112C172.54,112 166.146,105.219 166.619,97.178L170.972,23.178Z" transform="rotate(0 207.748 61)" fill="#000000" stroke="#FFFFFF" stroke-width="2" stroke-miterlimit="3.999327"/>
<rect  x="188.601" y="98.995" width="84" height="20" rx="10" transform="rotate(-270 188.601 98.995)" fill="#000000" stroke="#FFFFFF" stroke-width="2" stroke-miterlimit="3.999327"/>
<rect  x="106.576" y="48.083" width="64" height="34" rx="16" transform="rotate(-90 106.576 48.083)" fill="#000000" stroke="#FFFFFF" stroke-width="2" stroke-miterlimit="3.999327"/>
<path d="M170.847,23.197C171.272,15.789 177.404,10 184.824,10L228.671,10C236.092,10 242.223,15.789 242.648,23.197L246.898,97.197C247.359,105.232 240.968,112 232.921,112L180.575,112C172.527,112 166.136,105.232 166.598,97.197L170.847,23.197Z" transform="rotate(0 206.748 61)" fill="#000000"/>
<rect  x="107.748" y="46.426" width="60" height="30" rx="14" transform="rotate(-90 107.748 46.426)" fill="#000000"/>
<rect  x="186.944" y="94.51" width="80" height="16" rx="8" transform="rotate(-270 186.944 94.51)" fill="#000000"/>
<rect  x="116.233" y="46.426" width="48" height="18" rx="8" transform="rotate(-90 116.233 46.426)" fill="#FF00E5"/>
<path d="M176.459,23.543C176.701,19.309 180.205,16 184.446,16L231.049,16C235.29,16 238.794,19.309 239.036,23.543L243.264,97.543C243.527,102.133 239.875,106 235.277,106L180.218,106C175.62,106 171.968,102.133 172.231,97.543L176.459,23.543Z" transform="rotate(0 207.748 61)" fill="#FF00E5"/>
<path d="M198.384,42.139C198.589,40.495 197.423,38.996 195.779,38.79C194.135,38.585 192.636,39.751 192.43,41.395L198.384,42.139ZM198.479,85.721C199.429,87.078 201.3,87.408 202.657,86.458C204.015,85.508 204.345,83.637 203.395,82.28L198.479,85.721ZM192.43,41.395C191.849,46.044 191.705,54.632 192.471,63.153C192.856,67.429 193.476,71.768 194.413,75.641C195.337,79.459 196.626,83.074 198.479,85.721L203.395,82.28C202.179,80.543 201.105,77.782 200.245,74.23C199.399,70.732 198.815,66.705 198.447,62.615C197.709,54.403 197.869,46.259 198.384,42.139L192.43,41.395Z" transform="rotate(360 197.941 62.884)" fill="#000000"/>
<path d="M224.091,56.062C224.091,65.141 217.711,72.502 209.842,72.502C201.973,72.502 196.69,70.622 196.69,61.542C196.69,52.462 201.973,39.621 209.842,39.621C217.711,39.621 224.091,46.982 224.091,56.062Z" transform="rotate(38.874 210.39 56.062)" stroke="#000000" stroke-width="3" stroke-miterlimit="3.999327"/>
</svg>
