<svg width="232" height="240" viewBox="0 0 232 240" fill="none" xmlns="http://www.w3.org/2000/svg" xmlns:xlink="http://www.w3.org/1999/xlink">
<path d="M117.973,11.115C119.702,9.091 122.69,9.091 124.419,11.115L126.642,13.717C127.516,14.74 128.772,15.294 130.069,15.23L133.368,15.065C135.933,14.938 138.045,17.189 137.925,19.923L137.771,23.439C137.71,24.821 138.231,26.16 139.19,27.091L141.632,29.461C143.531,31.304 143.531,34.488 141.632,36.331L139.19,38.701C138.231,39.633 137.71,40.971 137.771,42.353L137.925,45.869C138.045,48.603 135.933,50.855 133.368,50.727L130.069,50.563C128.772,50.498 127.516,51.053 126.642,52.076L124.419,54.678C122.69,56.702 119.702,56.702 117.973,54.678L115.75,52.076C114.876,51.053 113.62,50.498 112.323,50.563L109.025,50.727C106.46,50.855 104.347,48.603 104.467,45.869L104.621,42.353C104.682,40.971 104.162,39.633 103.202,38.701L100.76,36.331C98.862,34.488 98.862,31.304 100.76,29.461L103.202,27.091C104.162,26.16 104.682,24.821 104.621,23.439L104.467,19.923C104.347,17.189 106.46,14.938 109.025,15.065L112.323,15.23C113.62,15.294 114.876,14.74 115.75,13.717L117.973,11.115Z" transform="rotate(30 121.196 32.896)" fill="#00A3FF"/>
<path d="M114.863,29.532C113.785,28.274 111.891,28.129 110.633,29.207C109.375,30.285 109.229,32.179 110.308,33.437L114.863,29.532ZM118.514,38.401L116.236,40.353C117.154,41.424 118.694,41.711 119.936,41.042L118.514,38.401ZM132.78,34.126C134.239,33.341 134.785,31.521 133.999,30.062C133.214,28.603 131.394,28.058 129.936,28.843L132.78,34.126ZM110.308,33.437L116.236,40.353L120.791,36.448L114.863,29.532L110.308,33.437ZM119.936,41.042L132.78,34.126L129.936,28.843L117.091,35.759L119.936,41.042Z" transform="rotate(0 121.972 34.943)" fill="#FFFFFF"/>
<path d="M170.179,23.022C164.592,26.04 158.792,31.055 154.083,35.808C151.592,38.322 148.057,36.71 149.07,33.319C151.47,25.284 155.471,15.228 158.61,7.903C159.617,5.553 162.634,4.935 164.518,6.664L172.2,13.717C174.719,16.029 173.187,21.398 170.179,23.022Z" transform="rotate(26.381 163.132 23.432)" fill="#FF00E5"/>
<path d="M85.309,30.499C88.783,33.504 91.336,40.202 93.042,46.84C93.833,49.917 89.747,51.602 87.603,49.257C84.297,45.638 81.276,43.194 78.836,41.634C76.873,40.379 76.099,37.243 77.694,35.545L82.063,30.894C82.939,29.962 84.341,29.662 85.309,30.499Z" transform="rotate(-60 84.747 44.431)" fill="#FF00E5"/>
<path d="M53.264,122.098C55.027,121.12 57.176,121.147 58.914,122.17C60.652,123.193 61.719,125.059 61.719,127.075C61.719,128.77 62.099,129.842 62.55,130.566C63.009,131.303 63.75,132.015 64.974,132.653C67.6,134.023 71.848,134.736 77.521,134.579C88.649,134.272 102.361,130.733 111.721,127.451C114.64,126.254 119.356,125.416 123.904,126.692C126.347,127.377 128.867,128.716 130.89,131.055C132.92,133.403 134.145,136.407 134.568,139.913C135.408,146.889 132.614,152.142 129.752,155.598C130.494,156.829 131.085,158.223 131.437,159.742C132.338,163.626 131.61,167.841 128.93,171.887C129.569,173.193 130.072,174.716 130.305,176.41C130.813,180.094 130.002,184.159 127.336,188.131C127.96,189.398 128.447,190.869 128.677,192.508C129.374,197.478 127.613,203.042 122.395,208.327C116.89,213.903 109.048,216.929 102.287,218.604C95.405,220.31 88.822,220.814 85.042,220.814C62.562,220.814 41.53,211.692 30.425,189.045C16.939,161.542 31.419,134.225 53.264,122.098Z" transform="rotate(-30 79.965 171.098)" fill="#FFFFFF"/>
<rect  x="29.103" y="89.482" width="65.055" height="113.846" rx="12" transform="rotate(-30 29.103 89.482)" fill="#FFFFFF"/>
<path d="M188.507,102.384C182.469,101.63 173.94,103.704 170.039,112.88C166.899,120.267 167.418,131.036 172.786,146.149C169.296,147.375 165.654,149.419 162.564,152.588C162.332,152.09 162.078,151.605 161.802,151.134C162.506,149.893 163.07,148.553 163.47,147.132C165.959,138.272 161.255,129.096 152.602,125.977L140.648,121.667C130.123,117.873 118.438,123.916 115.409,134.693C113.968,139.821 114.783,144.982 117.233,149.173C115.076,152.25 113.801,156.006 113.801,160.076C113.801,164.464 115.283,168.486 117.753,171.686C116.11,175.471 115.713,179.843 116.933,184.186C118.061,188.199 120.39,191.552 123.399,193.983C122.434,198.419 123.117,203.235 125.706,207.511C130.678,215.722 140.852,218.975 149.466,215.845C168.058,219.259 181.727,217.228 191.778,212.508C204.95,206.323 210.84,196.024 213.505,190.191C219.842,176.315 219.604,155.729 215.491,138.632C213.408,129.971 210.224,121.73 205.997,115.3C201.848,108.991 196.114,103.587 188.692,102.411C188.631,102.401 188.569,102.392 188.507,102.384Z" clip-rule="evenodd" fill-rule="evenodd" transform="rotate(30 166.123 159.895)" fill="#FFFFFF"/>
<rect  x="148.366" y="71.138" width="65.055" height="113.846" rx="12" transform="rotate(30 148.366 71.138)" fill="#FFFFFF"/>
<rect  x="150.666" y="75.122" width="58.549" height="95.956" rx="8" transform="rotate(30 150.666 75.122)" fill="#000000"/>
<path d="M169.277,87.032C169.277,88.379 168.185,89.471 166.837,89.471C165.49,89.471 164.398,88.379 164.398,87.032C164.398,85.684 165.49,84.592 166.837,84.592C168.185,84.592 169.277,85.684 169.277,87.032Z" transform="rotate(30 166.837 87.032)" fill="#00A3FF"/>
<rect  x="174.538" y="86.569" width="16.264" height="4.879" rx="22.5" transform="rotate(30 174.538 86.569)" fill="#00A3FF"/>
<path d="M208.161,189.089C219.35,164.592 208.161,112.548 187.635,109.296C178.961,108.211 165.354,115.151 180.317,151.581C171.372,152.123 155.27,159.713 162.426,185.735L129.086,185.735L132.339,206.878C187.635,224.768 203.379,199.559 208.161,189.089Z" transform="rotate(30 170.836 161.155)" fill="#00A3FF" stroke="#000000" stroke-width="3" stroke-miterlimit="3.999327" stroke-linecap="round" stroke-linejoin="round"/>
<path d="M119.701,189.402C119.701,181.462 126.547,175.251 134.45,176.023L146.579,177.208C152.855,177.82 157.641,183.096 157.641,189.402L157.641,189.402C157.641,195.708 152.855,200.984 146.579,201.596L134.45,202.781C126.547,203.553 119.701,197.342 119.701,189.402L119.701,189.402Z" transform="rotate(-27.666 138.671 189.402)" fill="#00A3FF" stroke="#000000" stroke-width="3" stroke-miterlimit="3.999327"/>
<path d="M118.013,170.839C118.013,162.965 124.794,156.804 132.632,157.556L145.309,158.772C151.527,159.369 156.274,164.593 156.274,170.839L156.274,170.839C156.274,177.085 151.527,182.309 145.309,182.906L132.632,184.122C124.794,184.875 118.013,178.713 118.013,170.839L118.013,170.839Z" transform="rotate(1.336 137.143 170.839)" fill="#00A3FF" stroke="#000000" stroke-width="3" stroke-miterlimit="3.999327"/>
<path d="M120.37,153.053C120.37,145.2 127.125,139.049 134.943,139.782L148.473,141.05C154.668,141.631 159.403,146.831 159.403,153.053L159.403,153.053C159.403,159.275 154.668,164.475 148.473,165.056L134.943,166.324C127.125,167.057 120.37,160.906 120.37,153.053L120.37,153.053Z" transform="rotate(30 139.886 153.053)" fill="#00A3FF" stroke="#000000" stroke-width="3" stroke-miterlimit="3.999327"/>
<path d="M126.131,134.653C126.131,126.779 132.913,120.617 140.75,121.369L153.428,122.586C159.646,123.183 164.392,128.406 164.392,134.653L164.392,134.653C164.392,140.899 159.646,146.123 153.428,146.72L140.75,147.936C132.913,148.688 126.131,142.526 126.131,134.653L126.131,134.653Z" transform="rotate(58.664 145.262 134.653)" fill="#00A3FF" stroke="#000000" stroke-width="3" stroke-miterlimit="3.999327"/>
<rect  x="33.086" y="91.782" width="58.549" height="107.341" rx="8" transform="rotate(-30 33.086 91.782)" fill="#000000"/>
<rect  x="39.062" y="95.232" width="24.396" height="24.396" rx="8" transform="rotate(-30 39.062 95.232)" fill="#FFC000"/>
<circle cx="48.026" cy="100.407" r="4.066" transform="rotate(-30 48.026 100.407)" fill="#000000"/>
<circle cx="58.714" cy="102.594" r="4.066" transform="rotate(-30 58.714 102.594)" fill="#000000"/>
<circle cx="50.551" cy="109.833" r="4.066" transform="rotate(-30 50.551 109.833)" fill="#000000"/>
<path d="M41.129,197.825C55.946,214.797 76.174,218.025 96.346,212.62C102.88,210.869 119.504,204.502 125.72,193.576C131.652,183.146 125.151,177.732 123.081,177.445C129.119,167.408 122.512,161.602 120.443,161.315C126.481,151.278 119.437,145.877 116.233,145.605C118.21,143.046 122.438,136.754 119.436,129.277C115.565,119.631 106.18,122.965 102.773,125.639C85.938,137.166 50.919,155.192 45.531,135.084C29.193,150.882 23.45,177.573 41.129,197.825Z" fill="#FFC000" stroke="#000000" stroke-width="3" stroke-miterlimit="3.999327" stroke-linecap="round" stroke-linejoin="round"/>
</svg>
