<svg width="234" height="260" viewBox="0 0 234 260" fill="none" xmlns="http://www.w3.org/2000/svg" xmlns:xlink="http://www.w3.org/1999/xlink">
<mask id="mask_0_i_1_2088;10203_3229" style="mask-type:alpha" maskUnits="userSpaceOnUse" x="28.000282" y="133.681396" width="15.171744" height="22.516011">
<path d="M53.365,158.255C53.365,171.632 48.801,176.776 43.172,176.776C37.543,176.776 32.979,171.632 32.979,158.255C32.979,144.879 35.018,135.618 43.172,135.618C51.326,135.618 53.365,144.879 53.365,158.255Z" transform="rotate(30 43.172 156.197)" fill="#FFFFFF"/>
</mask>
<mask id="mask_0_i_1_2088;10203_3234" style="mask-type:alpha" maskUnits="userSpaceOnUse" x="46.26786" y="133.562744" width="15.171744" height="22.516011">
<path d="M71.632,158.137C71.632,171.513 67.069,176.658 61.44,176.658C55.81,176.658 51.247,171.513 51.247,158.137C51.247,144.76 53.285,135.5 61.44,135.5C69.594,135.5 71.632,144.76 71.632,158.137Z" transform="rotate(30 61.44 156.079)" fill="#FFFFFF"/>
</mask>
<path d="M80,188C80,205.121 62.091,219 40,219C17.909,219 0,205.121 0,188C0,170.879 17.909,157 40,157C62.091,157 80,170.879 80,188Z" fill="#FFFFFF"/>
<path d="M202,178C202,214.451 159.915,244 108,244C56.085,244 14,214.451 14,178C14,141.549 56.085,112 108,112C159.915,112 202,141.549 202,178Z" fill="#FFFFFF"/>
<path d="M115.937,204.757C114.899,194.172 123.216,185 133.851,185L144.149,185C154.784,185 163.101,194.172 162.063,204.757L158.926,236.756C158.022,245.973 150.273,253 141.012,253L136.988,253C127.727,253 119.978,245.973 119.074,236.756L115.937,204.757Z" fill="#FFFFFF"/>
<path d="M37.937,204.757C36.899,194.172 45.216,185 55.851,185L66.149,185C76.784,185 85.101,194.172 84.063,204.757L80.926,236.756C80.022,245.973 72.273,253 63.012,253L58.988,253C49.727,253 41.978,245.973 41.074,236.756L37.937,204.757Z" fill="#FFFFFF"/>
<path d="M59.937,210.757C58.899,200.172 67.216,191 77.851,191L88.149,191C98.784,191 107.101,200.172 106.063,210.757L102.926,242.756C102.022,251.973 94.273,259 85.012,259L80.988,259C71.727,259 63.978,251.973 63.074,242.756L59.937,210.757Z" fill="#FFFFFF"/>
<path d="M137.937,210.757C136.899,200.172 145.216,191 155.851,191L166.149,191C176.784,191 185.101,200.172 184.063,210.757L180.926,242.756C180.022,251.973 172.273,259 163.012,259L158.988,259C149.727,259 141.978,251.973 141.074,242.756L137.937,210.757Z" fill="#FFFFFF"/>
<rect  x="142" y="173" width="92" height="32" rx="18" fill="#FFFFFF"/>
<rect  x="136" y="191" width="92" height="32" rx="18" fill="#FFFFFF"/>
<rect  x="142" y="209" width="92" height="32" rx="18" fill="#FFFFFF"/>
<rect  x="136" y="227" width="92" height="32" rx="18" fill="#FFFFFF"/>
<circle cx="113" cy="48" r="43" fill="#FFFFFF"/>
<path d="M90.32,121.956C85.627,126.473 81.382,133.109 78.925,137.88C78.167,139.353 76.358,139.932 74.885,139.174C73.412,138.415 72.832,136.606 73.591,135.133C76.211,130.045 80.813,122.778 86.159,117.633C88.821,115.07 91.873,112.832 95.147,111.795C98.57,110.711 102.216,110.965 105.549,113.368C111.449,117.624 113.844,124.566 114.636,130.928C115.435,137.342 114.689,143.748 113.744,147.758C113.365,149.371 111.75,150.37 110.137,149.99C108.524,149.611 107.524,147.996 107.904,146.383C108.718,142.928 109.377,137.248 108.682,131.669C107.981,126.038 105.981,121.078 102.039,118.235C100.451,117.089 98.828,116.923 96.959,117.515C94.941,118.155 92.676,119.688 90.32,121.956Z" clip-rule="evenodd" fill-rule="evenodd" transform="rotate(-2.62 94.116 130.627)" fill="#000000" stroke="#FFFFFF" stroke-width="2" stroke-miterlimit="3.999327" stroke-linecap="round"/>
<path d="M50.295,121.956C45.602,126.473 41.357,133.109 38.9,137.88C38.142,139.353 36.333,139.932 34.86,139.174C33.387,138.415 32.808,136.606 33.566,135.133C36.187,130.045 40.789,122.778 46.134,117.633C48.796,115.07 51.848,112.832 55.123,111.795C58.545,110.711 62.191,110.965 65.524,113.368C71.424,117.624 73.819,124.566 74.611,130.928C75.41,137.342 74.664,143.748 73.72,147.758C73.34,149.371 71.725,150.37 70.112,149.99C68.499,149.611 67.5,147.996 67.879,146.383C68.693,142.928 69.352,137.248 68.657,131.669C67.956,126.038 65.957,121.078 62.014,118.235C60.426,117.089 58.804,116.923 56.934,117.515C54.916,118.155 52.651,119.688 50.295,121.956Z" clip-rule="evenodd" fill-rule="evenodd" transform="rotate(-357.38 54.091 130.627)" fill="#000000" stroke="#FFFFFF" stroke-width="2" stroke-miterlimit="3.999327" stroke-linecap="round"/>
<path d="M184.925,135.066C181.093,134.555 177.572,137.247 177.061,141.079C176.55,144.911 179.243,148.432 183.075,148.943L184.925,135.066ZM191,138.004L193.214,131.363C191.208,130.695 189.008,130.968 187.227,132.108C185.447,133.247 184.276,135.13 184.043,137.231L191,138.004ZM205.957,131.777C206.384,127.935 203.615,124.474 199.773,124.047C195.931,123.62 192.47,126.389 192.043,130.231L205.957,131.777ZM183.075,148.943C183.351,148.98 183.641,149.067 184.231,149.328C184.381,149.394 185.08,149.716 185.546,149.903C186.027,150.095 187.221,150.561 188.709,150.623C190.549,150.7 192.607,150.153 194.318,148.63C195.749,147.356 196.424,145.843 196.757,144.938C197.402,143.186 197.714,140.967 197.957,138.777L184.043,137.231C183.926,138.28 183.821,139.026 183.727,139.553C183.626,140.117 183.571,140.23 183.618,140.102C183.648,140.022 183.741,139.783 183.932,139.463C184.125,139.14 184.464,138.658 185.01,138.172C185.582,137.663 186.301,137.222 187.143,136.942C187.969,136.667 188.718,136.611 189.291,136.635C189.841,136.658 190.249,136.755 190.451,136.81C190.656,136.866 190.772,136.915 190.75,136.906C190.73,136.898 190.669,136.872 190.505,136.799C190.389,136.747 190.115,136.622 189.894,136.524C188.859,136.066 187.149,135.362 184.925,135.066L183.075,148.943ZM188.786,144.645C189.74,144.963 191.285,145.475 192.913,145.683C194.653,145.904 197.142,145.871 199.618,144.446C202.081,143.027 203.516,140.816 204.368,138.736C205.201,136.702 205.673,134.334 205.957,131.777L192.043,130.231C191.939,131.169 191.818,131.889 191.698,132.435C191.576,132.985 191.469,133.293 191.413,133.429C191.297,133.713 191.544,132.94 192.632,132.313C193.149,132.015 193.657,131.871 194.061,131.815C194.436,131.763 194.669,131.793 194.681,131.795C194.689,131.796 194.583,131.782 194.306,131.705C194.028,131.629 193.69,131.522 193.214,131.363L188.786,144.645Z" fill="#FFFFFF"/>
<path d="M184.396,139.03C182.754,138.811 181.245,139.965 181.026,141.607C180.807,143.25 181.961,144.759 183.604,144.978L184.396,139.03ZM191,138.004L191.949,135.158C191.089,134.871 190.146,134.989 189.383,135.477C188.62,135.965 188.118,136.772 188.018,137.673L191,138.004ZM201.982,131.335C202.165,129.688 200.978,128.205 199.331,128.022C197.685,127.839 196.201,129.026 196.018,130.673L201.982,131.335ZM183.604,144.978C184.436,145.089 185.132,145.352 185.849,145.669C186.145,145.8 186.65,146.036 187.033,146.189C187.422,146.345 188.095,146.594 188.875,146.626C189.807,146.665 190.814,146.393 191.659,145.641C192.384,144.996 192.771,144.186 193.003,143.556C193.458,142.32 193.735,140.559 193.982,138.335L188.018,137.673C187.765,139.949 187.542,141.021 187.372,141.483C187.292,141.702 187.335,141.457 187.67,141.159C188.124,140.755 188.693,140.614 189.125,140.632C189.405,140.643 189.515,140.72 189.264,140.619C189.006,140.516 188.792,140.41 188.276,140.182C187.368,139.781 186.064,139.253 184.396,139.03L183.604,144.978ZM190.051,140.85C191.031,141.177 192.229,141.563 193.418,141.714C194.655,141.872 196.168,141.816 197.622,140.979C199.071,140.145 200.025,138.787 200.667,137.219C201.301,135.672 201.717,133.717 201.982,131.335L196.018,130.673C195.783,132.791 195.449,134.128 195.115,134.945C194.788,135.742 194.554,135.821 194.628,135.779C194.707,135.734 194.658,135.824 194.176,135.762C193.646,135.695 192.969,135.498 191.949,135.158L190.051,140.85Z" fill="#000000"/>
<path d="M119.428,204.305C118.662,196.095 125.122,189.004 133.368,189.004L144.632,189.004C152.878,189.004 159.338,196.095 158.572,204.305L155.585,236.305C154.914,243.502 148.874,249.004 141.646,249.004L136.354,249.004C129.126,249.004 123.086,243.502 122.415,236.305L119.428,204.305Z" fill="#000000"/>
<path d="M124.722,203.668C124.333,199.004 128.014,195.004 132.694,195.004L145.306,195.004C149.986,195.004 153.667,199.004 153.278,203.668L150.611,235.668C150.266,239.815 146.8,243.004 142.639,243.004L135.361,243.004C131.2,243.004 127.734,239.815 127.389,235.668L124.722,203.668Z" fill="#00A3FF"/>
<path d="M63.768,115.801C56.334,110.439 47.317,119.366 41.162,128.303C38.332,132.412 40.621,137.847 45.392,139.305L62.631,144.574C67.053,145.925 71.712,143.235 71.906,138.616C72.241,130.651 70.731,120.823 63.768,115.801Z" transform="rotate(-357.38 54.091 130.626)" fill="#00A3FF"/>
<path d="M33.566,135.133C32.807,136.606 33.386,138.415 34.859,139.173C36.332,139.932 38.141,139.353 38.9,137.88L33.566,135.133ZM67.879,146.382C67.499,147.995 68.499,149.61 70.111,149.99C71.724,150.37 73.339,149.37 73.719,147.758L67.879,146.382ZM38.9,137.88C41.357,133.109 45.601,126.473 50.294,121.956C52.65,119.688 54.915,118.154 56.933,117.515C58.803,116.923 60.425,117.089 62.014,118.234L65.523,113.368C62.191,110.964 58.545,110.711 55.122,111.795C51.848,112.832 48.796,115.07 46.133,117.633C40.788,122.778 36.186,130.044 33.566,135.133L38.9,137.88ZM62.014,118.234C65.956,121.078 67.955,126.038 68.657,131.669C69.352,137.248 68.692,142.927 67.879,146.382L73.719,147.758C74.663,143.748 75.41,137.342 74.611,130.927C73.818,124.566 71.424,117.623 65.523,113.368L62.014,118.234Z" transform="rotate(-357.38 54.091 130.626)" fill="#000000"/>
<path d="M62.284,125.952C56.374,121.69 48.965,130.97 45.078,137.659C44.451,138.737 45.024,140.091 46.216,140.455L64.929,146.174C66.035,146.512 67.197,145.845 67.37,144.702C68.206,139.175 68.037,130.102 62.284,125.952Z" transform="rotate(-357.38 55.832 135.835)" fill="#000000"/>
<path d="M41.428,204.305C40.662,196.095 47.122,189.004 55.368,189.004L66.632,189.004C74.878,189.004 81.338,196.095 80.572,204.305L77.585,236.305C76.914,243.502 70.874,249.004 63.646,249.004L58.354,249.004C51.126,249.004 45.086,243.502 44.415,236.305L41.428,204.305Z" fill="#000000"/>
<path d="M46.722,203.668C46.333,199.004 50.014,195.004 54.694,195.004L67.306,195.004C71.986,195.004 75.667,199.004 75.278,203.668L72.611,235.668C72.266,239.815 68.8,243.004 64.639,243.004L57.361,243.004C53.2,243.004 49.734,239.815 49.389,235.668L46.722,203.668Z" fill="#00A3FF"/>
<path d="M63.428,210.305C62.662,202.095 69.122,195.004 77.368,195.004L88.632,195.004C96.878,195.004 103.338,202.095 102.572,210.305L99.585,242.305C98.914,249.502 92.874,255.004 85.646,255.004L80.354,255.004C73.126,255.004 67.086,249.502 66.415,242.305L63.428,210.305Z" fill="#000000"/>
<path d="M141.428,210.305C140.662,202.095 147.122,195.004 155.368,195.004L166.632,195.004C174.878,195.004 181.338,202.095 180.572,210.305L177.585,242.305C176.914,249.502 170.874,255.004 163.646,255.004L158.354,255.004C151.126,255.004 145.086,249.502 144.415,242.305L141.428,210.305Z" fill="#000000"/>
<path d="M198,178C198,212.242 157.706,240 108,240C58.294,240 18,212.242 18,178C18,143.758 58.294,116 108,116C157.706,116 198,143.758 198,178Z" fill="#000000"/>
<path d="M192,178C192,209.081 154.392,234.277 108,234.277C61.608,234.277 24,209.081 24,178C24,146.919 61.608,121.723 108,121.723C154.392,121.723 192,146.919 192,178Z" fill="#00A3FF"/>
<path d="M146.957,137.03C148.51,137.606 150.236,136.814 150.813,135.261C151.389,133.707 150.597,131.981 149.043,131.404L146.957,137.03ZM107.87,125.497C106.215,125.569 104.931,126.969 105.003,128.624C105.075,130.279 106.475,131.563 108.13,131.491L107.87,125.497ZM149.043,131.404C142.746,129.068 125.944,124.713 107.87,125.497L108.13,131.491C125.256,130.749 141.254,134.915 146.957,137.03L149.043,131.404Z" fill="#000000"/>
<circle cx="113" cy="48" r="39" fill="#000000"/>
<circle cx="113" cy="48" r="33" fill="#FFC000"/>
<path d="M108.086,32.634C108.292,30.99 107.125,29.491 105.481,29.285C103.837,29.08 102.338,30.246 102.132,31.89L108.086,32.634ZM107.697,72.514C108.647,73.872 110.518,74.202 111.875,73.252C113.232,72.302 113.562,70.431 112.612,69.074L107.697,72.514ZM102.132,31.89C101.599,36.154 101.469,44.01 102.169,51.797C102.521,55.707 103.088,59.679 103.947,63.229C104.793,66.724 105.978,70.06 107.697,72.514L112.612,69.074C111.531,67.529 110.561,65.048 109.779,61.818C109.011,58.643 108.48,54.982 108.145,51.259C107.472,43.78 107.619,36.369 108.086,32.634L102.132,31.89Z" transform="rotate(360 107.421 51.528)" fill="#000000"/>
<path d="M131.279,45.305C131.279,53.589 125.459,60.305 118.279,60.305C111.099,60.305 106.279,58.589 106.279,50.305C106.279,42.021 111.099,30.305 118.279,30.305C125.459,30.305 131.279,37.021 131.279,45.305Z" transform="rotate(38.874 118.779 45.305)" stroke="#000000" stroke-width="3" stroke-miterlimit="3.999327"/>
<path d="M146.722,209.668C146.333,205.004 150.014,201.004 154.694,201.004L167.306,201.004C171.986,201.004 175.667,205.004 175.278,209.668L172.611,241.668C172.266,245.815 168.8,249.004 164.639,249.004L157.361,249.004C153.2,249.004 149.734,245.815 149.389,241.668L146.722,209.668Z" fill="#00A3FF"/>
<path d="M68.722,209.668C68.333,205.004 72.014,201.004 76.694,201.004L89.306,201.004C93.986,201.004 97.667,205.004 97.278,209.668L94.611,241.668C94.266,245.815 90.8,249.004 86.639,249.004L79.361,249.004C75.2,249.004 71.734,245.815 71.389,241.668L68.722,209.668Z" fill="#00A3FF"/>
<path d="M53.365,158.255C53.365,171.632 48.801,176.776 43.172,176.776C37.543,176.776 32.979,171.632 32.979,158.255C32.979,144.879 35.018,135.618 43.172,135.618C51.326,135.618 53.365,144.879 53.365,158.255Z" transform="rotate(30 43.172 156.197)" fill="#FFFFFF"/>
<path d="M48.289,154.6C48.289,160.283 47.27,164.89 43.193,164.89C39.116,164.89 38.096,160.283 38.096,154.6C38.096,148.917 39.116,144.31 43.193,144.31C47.27,144.31 48.289,148.917 48.289,154.6Z" transform="rotate(30 43.193 154.6)" fill="#000000"/>
<path d="M71.632,158.137C71.632,171.513 67.069,176.658 61.44,176.658C55.81,176.658 51.247,171.513 51.247,158.137C51.247,144.76 53.285,135.5 61.44,135.5C69.594,135.5 71.632,144.76 71.632,158.137Z" transform="rotate(30 61.44 156.079)" fill="#FFFFFF"/>
<path d="M66.557,154.481C66.557,160.164 65.537,164.771 61.46,164.771C57.383,164.771 56.364,160.164 56.364,154.481C56.364,148.799 57.383,144.192 61.46,144.192C65.537,144.192 66.557,148.799 66.557,154.481Z" transform="rotate(30 61.46 154.481)" fill="#000000"/>
<path d="M88,188.004C88,202.916 71.882,215.004 52,215.004C32.118,215.004 16,202.916 16,188.004C16,173.092 32.118,161.004 52,161.004C71.882,161.004 88,173.092 88,188.004Z" fill="#000000"/>
<path d="M82,188.004C82,199.602 68.569,209.004 52,209.004C35.431,209.004 22,199.602 22,188.004C22,176.406 35.431,167.004 52,167.004C68.569,167.004 82,176.406 82,188.004Z" fill="#00A3FF"/>
<path d="M76,188.004C76,202.916 59.882,215.004 40,215.004C20.118,215.004 4,202.916 4,188.004C4,173.092 20.118,161.004 40,161.004C59.882,161.004 76,173.092 76,188.004Z" fill="#000000"/>
<path d="M70,188.004C70,199.602 56.569,209.004 40,209.004C23.431,209.004 10,199.602 10,188.004C10,176.406 23.431,167.004 40,167.004C56.569,167.004 70,176.406 70,188.004Z" fill="#00A3FF"/>
<path d="M28.67,187.789C28.67,193.312 27.67,197.789 23.67,197.789C19.67,197.789 18.67,193.312 18.67,187.789C18.67,182.266 19.67,177.789 23.67,177.789C27.67,177.789 28.67,182.266 28.67,187.789Z" transform="rotate(27.519 23.67 187.789)" fill="#000000"/>
<path d="M47.055,187.789C47.055,193.312 46.055,197.789 42.055,197.789C38.055,197.789 37.055,193.312 37.055,187.789C37.055,182.266 38.055,177.789 42.055,177.789C46.055,177.789 47.055,182.266 47.055,187.789Z" transform="rotate(27.519 42.055 187.789)" fill="#000000"/>
<path d="M103.794,115.801C96.359,110.439 87.342,119.366 81.187,128.303C78.358,132.412 80.646,137.847 85.417,139.305L102.656,144.574C107.078,145.925 111.737,143.235 111.931,138.616C112.266,130.651 110.756,120.823 103.794,115.801Z" transform="rotate(-2.62 94.116 130.626)" fill="#00A3FF"/>
<path d="M73.591,135.133C72.832,136.606 73.411,138.415 74.884,139.173C76.357,139.932 78.167,139.353 78.925,137.88L73.591,135.133ZM107.904,146.382C107.524,147.995 108.524,149.61 110.137,149.99C111.75,150.37 113.365,149.37 113.744,147.758L107.904,146.382ZM78.925,137.88C81.382,133.109 85.627,126.473 90.32,121.956C92.676,119.688 94.941,118.154 96.959,117.515C98.828,116.923 100.451,117.089 102.039,118.234L105.549,113.368C102.216,110.964 98.57,110.711 95.147,111.795C91.873,112.832 88.821,115.07 86.159,117.633C80.813,122.778 76.211,130.044 73.591,135.133L78.925,137.88ZM102.039,118.234C105.981,121.078 107.981,126.038 108.682,131.669C109.377,137.248 108.718,142.927 107.904,146.382L113.744,147.758C114.689,143.748 115.435,137.342 114.636,130.927C113.844,124.566 111.449,117.623 105.549,113.368L102.039,118.234Z" transform="rotate(-2.62 94.116 130.626)" fill="#000000"/>
<path d="M98.827,125.952C92.917,121.69 85.507,130.97 81.62,137.659C80.994,138.737 81.566,140.091 82.759,140.455L101.472,146.174C102.577,146.512 103.74,145.845 103.913,144.702C104.748,139.175 104.58,130.102 98.827,125.952Z" transform="rotate(-2.62 92.375 135.835)" fill="#000000"/>
<rect  x="146" y="177" width="84" height="24" rx="14" fill="#000000"/>
<rect  x="152" y="183" width="72" height="12" rx="6" fill="#FFC000"/>
<rect  x="140" y="195" width="84" height="24" rx="14" fill="#000000"/>
<rect  x="146" y="201" width="72" height="12" rx="6" fill="#FF00E5"/>
<rect  x="146" y="213" width="84" height="24" rx="14" fill="#000000"/>
<rect  x="152" y="219" width="72" height="12" rx="6" fill="#FFC000"/>
<rect  x="140" y="231" width="84" height="24" rx="14" fill="#000000"/>
<rect  x="146" y="237" width="72" height="12" rx="6" fill="#FF00E5"/>
</svg>
