<svg width="268" height="268" viewBox="0 0 268 268" fill="none" xmlns="http://www.w3.org/2000/svg" xmlns:xlink="http://www.w3.org/1999/xlink">
<rect  x="126" y="197.653" width="30" height="70" rx="12" fill="#FFFFFF"/>
<path d="M151.922,178.286L156.275,178.139C161.327,177.968 165.648,181.258 167.046,185.818L167.065,185.882L167.084,185.947C167.402,187.03 167.555,188.183 167.514,189.377L167.367,193.731L170.55,196.706C171.221,197.333 171.794,198.023 172.269,198.759C174.238,201.808 174.527,205.631 173.137,208.907C172.562,210.263 171.7,211.525 170.55,212.6L167.367,215.575L167.514,219.928C167.541,220.715 167.484,221.484 167.351,222.227C166.42,227.427 161.782,231.353 156.275,231.167L151.922,231.02L148.947,234.203C144.648,238.803 137.352,238.803 133.053,234.203L130.078,231.02L125.725,231.167C120.624,231.34 116.269,227.984 114.915,223.356C114.703,222.63 114.564,221.873 114.508,221.094C114.48,220.711 114.472,220.322 114.486,219.928L114.633,215.575L111.45,212.6C109.103,210.406 107.953,207.432 108.001,204.475C108.048,201.636 109.197,198.811 111.45,196.706L114.633,193.731L114.486,189.377C114.469,188.886 114.485,188.401 114.532,187.925C115.086,182.311 119.923,177.942 125.725,178.139L130.078,178.286L133.053,175.103C137.352,170.503 144.648,170.503 148.947,175.103L151.922,178.286Z" clip-rule="evenodd" fill-rule="evenodd" fill="#000000" stroke="#FFFFFF" stroke-width="2" stroke-miterlimit="3.999327"/>
<path d="M86.316,88.116L81.411,82.636C74.256,74.644 61.743,74.644 54.589,82.636L49.683,88.116C47.657,90.378 44.713,91.598 41.681,91.43L34.338,91.024C23.627,90.432 14.779,99.28 15.372,109.99L15.777,117.333C15.945,120.366 14.726,123.31 12.463,125.336L6.983,130.241C-1.009,137.396 -1.009,149.909 6.983,157.063L12.463,161.969C14.726,163.994 15.945,166.939 15.777,169.971L15.372,177.314C14.779,188.025 23.627,196.873 34.338,196.281L41.681,195.875C44.713,195.707 47.657,196.927 49.683,199.189L54.589,204.669C61.743,212.661 74.256,212.661 81.411,204.669L86.316,199.189C88.342,196.927 91.286,195.707 94.319,195.875L101.662,196.281C112.372,196.873 121.22,188.025 120.628,177.314L120.222,169.971C120.054,166.939 121.274,163.994 123.537,161.969L129.016,157.063C137.008,149.909 137.008,137.396 129.016,130.241L123.537,125.336C121.274,123.31 120.054,120.366 120.222,117.333L120.628,109.99C121.22,99.28 112.372,90.432 101.662,91.024L94.319,91.43C91.286,91.598 88.342,90.378 86.316,88.116Z" fill="#FFFFFF"/>
<rect  x="8" y="191.653" width="116" height="40" rx="16" fill="#000000" stroke="#FFFFFF" stroke-width="2" stroke-miterlimit="3.999327"/>
<path d="M20.033,212.717C18.955,204.344 25.477,196.929 33.919,196.929L104.081,196.929C112.523,196.929 119.045,204.344 117.967,212.717L113.073,250.717C112.173,257.7 106.228,262.929 99.187,262.929L38.813,262.929C31.772,262.929 25.827,257.7 24.927,250.717L20.033,212.717Z" fill="#000000" stroke="#FFFFFF" stroke-width="2" stroke-miterlimit="3.999327"/>
<path d="M28.029,167.36L81.532,198.25C85.473,200.526 87.967,204.516 88.307,208.736C88.665,213.18 86.558,217.831 81.717,220.129C71.333,225.057 56.637,225.446 36.297,213.703C13.183,200.358 7.549,183.264 12.007,171.891C13.471,168.157 16.642,166.197 19.809,165.709C22.752,165.255 25.694,166.012 28.029,167.36Z" clip-rule="evenodd" fill-rule="evenodd" transform="rotate(50 49.474 194.478)" fill="#000000" stroke="#FFFFFF" stroke-width="2" stroke-miterlimit="3.999327"/>
<path d="M107.521,167.36L54.018,198.25C50.077,200.526 47.583,204.516 47.243,208.736C46.885,213.18 48.992,217.831 53.833,220.129C64.217,225.057 78.913,225.446 99.253,213.703C122.367,200.358 128.001,183.264 123.543,171.891C122.08,168.158 118.908,166.197 115.741,165.709C112.799,165.255 109.856,166.012 107.521,167.36Z" clip-rule="evenodd" fill-rule="evenodd" transform="rotate(-50 86.076 194.478)" fill="#000000" stroke="#FFFFFF" stroke-width="2" stroke-miterlimit="3.999327"/>
<path d="M35.776,228.132L35.776,166.352C35.776,163.221 37.718,160.206 40.814,160.674C48.72,161.87 59.776,171.506 59.776,196.684C59.776,218.762 52.644,229.171 45.222,234.293C40.896,237.279 35.776,233.388 35.776,228.132Z" transform="rotate(280 47.776 199.545)" fill="#FFC000" stroke="#000000" stroke-width="3" stroke-miterlimit="3.999327"/>
<path d="M75.775,228.131L75.775,166.352C75.775,163.221 77.717,160.206 80.813,160.674C88.719,161.869 99.775,171.506 99.775,196.683C99.775,218.762 92.643,229.171 85.221,234.293C80.895,237.278 75.775,233.388 75.775,228.131Z" transform="rotate(70 87.775 199.545)" fill="#FFC000" stroke="#000000" stroke-width="3" stroke-miterlimit="3.999327"/>
<path d="M58,140.407C58,134.885 62.477,130.407 68,130.407L68,130.407C73.523,130.407 78,134.885 78,140.407L78,228.407L58,228.407Z" fill="#FFC000"/>
<path d="M60.049,91.47C64.002,87.241 70.708,87.241 74.661,91.47L81.473,98.759C83.444,100.868 86.231,102.023 89.117,101.925L99.088,101.588C104.873,101.393 109.615,106.135 109.42,111.92L109.083,121.891C108.985,124.777 110.14,127.564 112.249,129.535L119.538,136.347C123.767,140.3 123.767,147.007 119.538,150.959L112.249,157.771C110.14,159.743 108.985,162.53 109.083,165.415L109.42,175.386C109.615,181.172 104.873,185.914 99.088,185.718L89.117,185.381C86.231,185.284 83.444,186.438 81.473,188.547L74.661,195.836C70.708,200.065 64.002,200.065 60.049,195.836L53.237,188.547C51.265,186.438 48.478,185.284 45.593,185.381L35.622,185.718C29.837,185.914 25.094,181.172 25.29,175.386L25.627,165.415C25.724,162.53 24.57,159.743 22.461,157.771L15.172,150.959C10.943,147.007 10.943,140.3 15.172,136.347L22.461,129.535C24.57,127.564 25.724,124.777 25.627,121.891L25.29,111.92C25.094,106.135 29.837,101.393 35.622,101.588L45.593,101.925C48.478,102.023 51.265,100.868 53.237,98.759L60.049,91.47Z" stroke="#000000" stroke-width="3" stroke-miterlimit="3.999327"/>
<path d="M60.049,91.47C64.002,87.241 70.708,87.241 74.661,91.47L81.473,98.759C83.444,100.868 86.231,102.023 89.117,101.925L99.088,101.588C104.873,101.393 109.615,106.135 109.42,111.92L109.083,121.891C108.985,124.777 110.14,127.564 112.249,129.535L119.538,136.347C123.767,140.3 123.767,147.007 119.538,150.959L112.249,157.771C110.14,159.743 108.985,162.53 109.083,165.415L109.42,175.386C109.615,181.172 104.873,185.914 99.088,185.718L89.117,185.381C86.231,185.284 83.444,186.438 81.473,188.547L74.661,195.836C70.708,200.065 64.002,200.065 60.049,195.836L53.237,188.547C51.265,186.438 48.478,185.284 45.593,185.381L35.622,185.718C29.837,185.914 25.094,181.172 25.29,175.386L25.627,165.415C25.724,162.53 24.57,159.743 22.461,157.771L15.172,150.959C10.943,147.007 10.943,140.3 15.172,136.347L22.461,129.535C24.57,127.564 25.724,124.777 25.627,121.891L25.29,111.92C25.094,106.135 29.837,101.393 35.622,101.588L45.593,101.925C48.478,102.023 51.265,100.868 53.237,98.759L60.049,91.47Z" fill="#00A3FF"/>
<path d="M52.121,138.998C50.95,137.827 49.05,137.827 47.879,138.998C46.707,140.17 46.707,142.069 47.879,143.241L52.121,138.998ZM64.933,156.053L62.812,158.174C63.984,159.346 65.883,159.346 67.055,158.174L64.933,156.053ZM89.455,135.774C90.626,134.603 90.626,132.703 89.455,131.532C88.283,130.36 86.384,130.36 85.212,131.532L89.455,135.774ZM47.879,143.241L62.812,158.174L67.055,153.931L52.121,138.998L47.879,143.241ZM67.055,158.174L89.455,135.774L85.212,131.532L62.812,153.931L67.055,158.174Z" fill="#FFFFFF"/>
<path d="M115.231,218.946L141.982,234.391C144.785,236.01 146.609,238.874 146.86,241.991C147.129,245.333 145.514,248.905 141.861,250.639C135.551,253.634 127.144,253.537 116.365,247.314C104.153,240.264 99.928,230.366 102.927,222.715C104.105,219.71 106.685,218.136 109.163,217.754C111.418,217.406 113.574,217.99 115.231,218.946Z" clip-rule="evenodd" fill-rule="evenodd" transform="rotate(30 124.444 235.104)" fill="#000000" stroke="#FFFFFF" stroke-width="2" stroke-miterlimit="3.999327"/>
<path d="M167.942,218.947L141.191,234.392C138.388,236.011 136.565,238.875 136.313,241.992C136.044,245.334 137.659,248.906 141.312,250.64C147.623,253.635 156.029,253.538 166.809,247.315C179.02,240.265 183.246,230.367 180.247,222.716C179.069,219.711 176.488,218.137 174.01,217.755C171.756,217.407 169.6,217.991 167.942,218.947Z" clip-rule="evenodd" fill-rule="evenodd" transform="rotate(-30 158.729 235.105)" fill="#000000" stroke="#FFFFFF" stroke-width="2" stroke-miterlimit="3.999327"/>
<rect  x="130" y="201.653" width="22" height="62" rx="8" fill="#000000"/>
<path d="M117.57,251.516L117.57,220.626C117.57,219.06 118.541,217.553 120.089,217.787C124.042,218.385 129.57,223.203 129.57,235.792C129.57,246.831 126.004,252.035 122.293,254.596C120.13,256.089 117.57,254.144 117.57,251.516Z" transform="rotate(270 123.57 237.222)" fill="#FFC000"/>
<path d="M153.569,251.516L153.569,220.626C153.569,219.06 154.541,217.553 156.088,217.787C160.041,218.385 165.569,223.203 165.569,235.792C165.569,246.831 162.003,252.035 158.293,254.596C156.13,256.089 153.569,254.144 153.569,251.516Z" transform="rotate(90 159.569 237.222)" fill="#FFC000"/>
<rect  x="136" y="207.653" width="10" height="50" rx="2" fill="#FFC000"/>
<path d="M137.436,179.2C139.364,177.137 142.636,177.137 144.564,179.2L147.886,182.755C148.848,183.784 150.207,184.347 151.615,184.299L156.478,184.135C159.3,184.04 161.613,186.353 161.518,189.175L161.353,194.038C161.306,195.446 161.869,196.805 162.898,197.766L166.453,201.089C168.516,203.017 168.516,206.288 166.453,208.216L162.898,211.539C161.869,212.501 161.306,213.86 161.353,215.267L161.518,220.131C161.613,222.953 159.3,225.266 156.478,225.171L151.615,225.006C150.207,224.959 148.848,225.522 147.886,226.55L144.564,230.106C142.636,232.168 139.364,232.168 137.436,230.106L134.114,226.55C133.152,225.522 131.793,224.959 130.385,225.006L125.522,225.171C122.7,225.266 120.387,222.953 120.482,220.131L120.647,215.267C120.694,213.86 120.131,212.501 119.102,211.539L115.547,208.216C113.484,206.288 113.484,203.017 115.547,201.089L119.102,197.766C120.131,196.805 120.694,195.446 120.647,194.038L120.482,189.175C120.387,186.353 122.7,184.04 125.522,184.135L130.385,184.299C131.793,184.347 133.152,183.784 134.114,182.755L137.436,179.2Z" fill="#00A3FF" stroke="#000000" stroke-width="3" stroke-miterlimit="3.999327"/>
<path d="M137.436,179.2C139.364,177.137 142.636,177.137 144.564,179.2L147.886,182.755C148.848,183.784 150.207,184.347 151.615,184.299L156.478,184.135C159.3,184.04 161.613,186.353 161.518,189.175L161.353,194.038C161.306,195.446 161.869,196.805 162.898,197.766L166.453,201.089C168.516,203.017 168.516,206.288 166.453,208.216L162.898,211.539C161.869,212.501 161.306,213.86 161.353,215.267L161.518,220.131C161.613,222.953 159.3,225.266 156.478,225.171L151.615,225.006C150.207,224.959 148.848,225.522 147.886,226.55L144.564,230.106C142.636,232.168 139.364,232.168 137.436,230.106L134.114,226.55C133.152,225.522 131.793,224.959 130.385,225.006L125.522,225.171C122.7,225.266 120.387,222.953 120.482,220.131L120.647,215.267C120.694,213.86 120.131,212.501 119.102,211.539L115.547,208.216C113.484,206.288 113.484,203.017 115.547,201.089L119.102,197.766C120.131,196.805 120.694,195.446 120.647,194.038L120.482,189.175C120.387,186.353 122.7,184.04 125.522,184.135L130.385,184.299C131.793,184.347 133.152,183.784 134.114,182.755L137.436,179.2Z" fill="#00A3FF"/>
<path d="M134.414,202.649C133.633,201.868 132.367,201.868 131.586,202.649C130.805,203.43 130.805,204.697 131.586,205.478L134.414,202.649ZM140.467,211.53L139.052,212.944C139.834,213.725 141.1,213.725 141.881,212.944L140.467,211.53ZM153.081,201.744C153.862,200.963 153.862,199.697 153.081,198.916C152.3,198.135 151.034,198.135 150.253,198.916L153.081,201.744ZM131.586,205.478L139.052,212.944L141.881,210.116L134.414,202.649L131.586,205.478ZM141.881,212.944L153.081,201.744L150.253,198.916L139.052,210.116L141.881,212.944Z" fill="#FFFFFF"/>
<path d="M20.033,212.717C18.955,204.345 25.477,196.929 33.919,196.929L104.081,196.929C112.523,196.929 119.045,204.345 117.967,212.717L113.073,250.717C112.173,257.7 106.228,262.929 99.187,262.929L38.813,262.929C31.772,262.929 25.827,257.7 24.927,250.717L20.033,212.717Z" fill="#000000"/>
<path d="M25.264,212.03C24.596,207.22 28.332,202.929 33.188,202.929L104.812,202.929C109.668,202.929 113.404,207.22 112.736,212.03L107.458,250.03C106.909,253.985 103.527,256.929 99.534,256.929L38.466,256.929C34.473,256.929 31.091,253.985 30.542,250.03L25.264,212.03Z" fill="#FFC000"/>
<rect  x="12" y="195.653" width="112" height="36" rx="14" fill="#000000"/>
<rect  x="18" y="201.653" width="100" height="24" rx="8" fill="#FFC000"/>
<path d="M152.359,91.079L152.359,77.079L165.359,91.079L152.359,91.079Z" fill="#FFFFFF"/>
<path d="M164.6,32.181C165.035,24.781 171.163,19.003 178.575,19.003L224.174,19.003C231.587,19.003 237.714,24.781 238.15,32.181L242.503,106.181C242.976,114.222 236.582,121.003 228.527,121.003L174.222,121.003C166.167,121.003 159.774,114.222 160.247,106.181L164.6,32.181Z" transform="rotate(-90 201.375 70.003)" fill="#000000" stroke="#FFFFFF" stroke-width="2" stroke-miterlimit="3.999327"/>
<rect  x="212.359" y="110.408" width="84" height="20" rx="10" transform="rotate(360 212.359 110.408)" fill="#000000" stroke="#FFFFFF" stroke-width="2" stroke-miterlimit="3.999327"/>
<rect  x="118.359" y="132.408" width="64" height="34" rx="16" transform="rotate(-180 118.359 132.408)" fill="#000000" stroke="#FFFFFF" stroke-width="2" stroke-miterlimit="3.999327"/>
<path d="M164.767,32.908C165.192,25.5 171.324,19.71 178.744,19.71L222.591,19.71C230.012,19.71 236.143,25.5 236.568,32.908L240.818,106.908C241.279,114.942 234.888,121.71 226.841,121.71L174.495,121.71C166.447,121.71 160.056,114.942 160.518,106.908L164.767,32.908Z" transform="rotate(-90 200.668 70.71)" fill="#000000"/>
<rect  x="120.359" y="130.408" width="60" height="30" rx="14" transform="rotate(-180 120.359 130.408)" fill="#000000"/>
<rect  x="210.359" y="108.408" width="80" height="16" rx="8" transform="rotate(360 210.359 108.408)" fill="#000000"/>
<rect  x="126.359" y="124.408" width="48" height="18" rx="8" transform="rotate(-180 126.359 124.408)" fill="#FF00E5"/>
<path d="M170.087,32.546C170.329,28.312 173.833,25.003 178.074,25.003L224.676,25.003C228.917,25.003 232.421,28.312 232.663,32.546L236.892,106.546C237.154,111.136 233.502,115.003 228.905,115.003L173.845,115.003C169.247,115.003 165.596,111.136 165.858,106.546L170.087,32.546Z" transform="rotate(-90 201.375 70.003)" fill="#FF00E5"/>
<path d="M196.215,57.525C196.421,55.881 195.255,54.381 193.611,54.176C191.967,53.97 190.467,55.137 190.262,56.781L196.215,57.525ZM196.311,101.106C197.261,102.463 199.131,102.794 200.489,101.843C201.846,100.893 202.176,99.023 201.226,97.665L196.311,101.106ZM190.262,56.781C189.681,61.429 189.537,70.018 190.303,78.538C190.687,82.814 191.308,87.153 192.245,91.026C193.169,94.844 194.458,98.459 196.311,101.106L201.226,97.665C200.01,95.928 198.936,93.168 198.077,89.615C197.23,86.118 196.646,82.09 196.279,78.001C195.54,69.788 195.7,61.644 196.215,57.525L190.262,56.781Z" transform="rotate(270 195.772 78.269)" fill="#000000"/>
<path d="M213.452,64.642C213.452,73.722 207.073,81.083 199.204,81.083C191.334,81.083 186.051,79.202 186.051,70.122C186.051,61.043 191.334,48.202 199.204,48.202C207.073,48.202 213.452,55.562 213.452,64.642Z" transform="rotate(-51.126 199.752 64.642)" stroke="#000000" stroke-width="3" stroke-miterlimit="3.999327"/>
</svg>
