<svg width="286" height="296" viewBox="0 0 286 296" fill="none" xmlns="http://www.w3.org/2000/svg" xmlns:xlink="http://www.w3.org/1999/xlink">
<path d="M145.508,13.668C147.634,11.18 151.308,11.18 153.434,13.668L156.168,16.868C157.243,18.126 158.788,18.808 160.382,18.729L164.438,18.526C167.593,18.369 170.191,21.138 170.043,24.5L169.854,28.824C169.779,30.523 170.419,32.17 171.599,33.315L174.601,36.229C176.936,38.496 176.936,42.411 174.601,44.678L171.599,47.592C170.419,48.738 169.779,50.384 169.854,52.083L170.043,56.407C170.191,59.769 167.593,62.538 164.438,62.381L160.382,62.179C158.788,62.099 157.243,62.781 156.168,64.039L153.434,67.239C151.308,69.728 147.634,69.728 145.508,67.239L142.773,64.039C141.699,62.781 140.154,62.099 138.56,62.179L134.503,62.381C131.349,62.538 128.751,59.769 128.899,56.407L129.088,52.083C129.163,50.384 128.523,48.738 127.343,47.592L124.341,44.678C122.006,42.411 122.006,38.496 124.341,36.229L127.343,33.315C128.523,32.17 129.163,30.523 129.088,28.824L128.899,24.5C128.751,21.138 131.349,18.369 134.503,18.526L138.56,18.729C140.154,18.808 141.699,18.126 142.773,16.868L145.508,13.668Z" transform="rotate(30 149.471 40.454)" fill="#00A3FF"/>
<path d="M141.16,36.765C140.081,35.507 138.187,35.362 136.929,36.44C135.671,37.518 135.526,39.412 136.604,40.67L141.16,36.765ZM146.172,47.223L143.894,49.175C144.812,50.246 146.352,50.533 147.594,49.864L146.172,47.223ZM163.389,41.359C164.848,40.574 165.394,38.754 164.608,37.295C163.823,35.837 162.003,35.291 160.544,36.076L163.389,41.359ZM136.604,40.67L143.894,49.175L148.45,45.27L141.16,36.765L136.604,40.67ZM147.594,49.864L163.389,41.359L160.544,36.076L144.75,44.581L147.594,49.864Z" transform="rotate(0 150.424 42.97)" fill="#FFFFFF"/>
<path d="M211.677,27.313C203.532,31.158 194.792,38.905 188.205,45.789C185.758,48.345 182.129,46.73 183.073,43.319C186.005,32.725 191.725,18.407 195.952,8.622C196.965,6.275 199.983,5.66 201.866,7.389L213.822,18.365C216.34,20.677 214.769,25.854 211.677,27.313Z" transform="rotate(26.381 201.041 28.815)" fill="#FF00E5"/>
<path d="M104.96,37.192C109.94,41.121 113.423,51.21 115.55,60.484C116.26,63.581 112.175,65.223 110.12,62.799C104.799,56.524 99.958,52.692 96.348,50.565C94.341,49.381 93.549,46.294 95.144,44.596L101.684,37.633C102.56,36.701 103.956,36.4 104.96,37.192Z" transform="rotate(-60 104.648 54.638)" fill="#FF00E5"/>
<path d="M65.932,150.148C68.1,148.944 70.744,148.978 72.881,150.236C75.018,151.494 76.33,153.788 76.33,156.268C76.33,158.352 76.798,159.671 77.352,160.561C77.916,161.467 78.828,162.343 80.333,163.127C83.562,164.812 88.786,165.688 95.762,165.496C109.446,165.118 126.309,160.767 137.819,156.731C141.408,155.259 147.208,154.228 152.801,155.797C155.805,156.64 158.903,158.285 161.391,161.162C163.888,164.049 165.395,167.743 165.914,172.055C166.948,180.634 163.512,187.094 159.993,191.343C160.905,192.857 161.631,194.571 162.064,196.44C163.172,201.216 162.277,206.399 158.981,211.374C159.768,212.981 160.385,214.853 160.673,216.937C161.297,221.466 160.3,226.466 157.021,231.35C157.788,232.908 158.387,234.717 158.67,236.733C159.528,242.844 157.362,249.686 150.945,256.186C144.176,263.042 134.532,266.764 126.218,268.824C117.755,270.922 109.659,271.541 105.011,271.541C77.366,271.541 51.503,260.324 37.847,232.474C21.263,198.653 39.07,165.06 65.932,150.148Z" transform="rotate(-30 98.768 210.405)" fill="#FFFFFF"/>
<rect  x="36.221" y="110.038" width="80" height="140" rx="12" transform="rotate(-30 36.221 110.038)" fill="#FFFFFF"/>
<path d="M232.245,125.905C224.82,124.977 214.332,127.528 209.535,138.812C205.673,147.896 206.311,161.139 212.913,179.724C208.621,181.231 204.142,183.745 200.342,187.642C200.057,187.03 199.744,186.433 199.406,185.853C200.271,184.328 200.965,182.68 201.456,180.932C204.518,170.037 198.733,158.753 188.092,154.917L173.392,149.618C160.448,144.952 146.079,152.383 142.355,165.636C140.583,171.942 141.585,178.288 144.597,183.443C141.945,187.226 140.377,191.845 140.377,196.851C140.377,202.247 142.2,207.192 145.236,211.127C143.216,215.782 142.728,221.158 144.229,226.499C145.615,231.434 148.48,235.557 152.18,238.546C150.993,244.001 151.833,249.924 155.017,255.183C161.131,265.28 173.642,269.28 184.235,265.431C207.099,269.63 223.908,267.132 236.268,261.328C252.466,253.721 259.709,241.057 262.985,233.883C270.779,216.82 270.486,191.505 265.428,170.479C262.866,159.829 258.952,149.694 253.753,141.788C248.651,134.029 241.6,127.384 232.473,125.937C232.397,125.925 232.321,125.915 232.245,125.905Z" clip-rule="evenodd" fill-rule="evenodd" transform="rotate(30 204.719 196.627)" fill="#FFFFFF"/>
<rect  x="182.882" y="87.48" width="80" height="140" rx="12" transform="rotate(30 182.882 87.48)" fill="#FFFFFF"/>
<rect  x="185.71" y="92.379" width="72" height="118" rx="8" transform="rotate(30 185.71 92.379)" fill="#000000"/>
<path d="M208.597,107.025C208.597,108.682 207.254,110.025 205.597,110.025C203.941,110.025 202.597,108.682 202.597,107.025C202.597,105.369 203.941,104.025 205.597,104.025C207.254,104.025 208.597,105.369 208.597,107.025Z" transform="rotate(30 205.597 107.025)" fill="#00A3FF"/>
<rect  x="215.067" y="106.457" width="20" height="6" rx="22.5" transform="rotate(30 215.067 106.457)" fill="#00A3FF"/>
<path d="M256.414,232.528C270.173,202.404 256.414,138.404 231.173,134.404C220.507,133.071 203.773,141.604 222.173,186.404C211.173,187.071 191.373,196.404 200.173,228.404L159.173,228.404L163.173,254.404C231.173,276.404 250.533,245.404 256.414,232.528Z" transform="rotate(30 210.515 198.177)" fill="#00A3FF" stroke="#000000" stroke-width="3" stroke-miterlimit="3.999327" stroke-linecap="round" stroke-linejoin="round"/>
<path d="M147.633,232.913C147.633,223.149 156.052,215.512 165.77,216.461L180.685,217.917C188.403,218.671 194.288,225.159 194.288,232.913L194.288,232.913C194.288,240.667 188.403,247.155 180.685,247.909L165.77,249.366C156.051,250.315 147.633,242.678 147.633,232.913L147.633,232.913Z" transform="rotate(-27.666 170.96 232.913)" fill="#00A3FF" stroke="#000000" stroke-width="3" stroke-miterlimit="3.999327"/>
<path d="M145.556,210.086C145.556,200.403 153.896,192.826 163.534,193.751L179.124,195.247C186.77,195.981 192.607,202.404 192.607,210.086L192.607,210.086C192.607,217.767 186.77,224.191 179.124,224.925L163.534,226.421C153.896,227.346 145.556,219.768 145.556,210.086L145.556,210.086Z" transform="rotate(1.336 169.082 210.086)" fill="#00A3FF" stroke="#000000" stroke-width="3" stroke-miterlimit="3.999327"/>
<path d="M148.455,188.214C148.455,178.557 156.762,170.993 166.377,171.894L183.014,173.454C190.632,174.168 196.455,180.562 196.455,188.214L196.455,188.214C196.455,195.865 190.632,202.26 183.014,202.974L166.377,204.534C156.762,205.435 148.455,197.871 148.455,188.214L148.455,188.214Z" transform="rotate(30 172.455 188.214)" fill="#00A3FF" stroke="#000000" stroke-width="3" stroke-miterlimit="3.999327"/>
<path d="M155.54,165.587C155.54,155.904 163.879,148.327 173.517,149.252L189.107,150.748C196.754,151.481 202.591,157.905 202.591,165.587L202.591,165.587C202.591,173.268 196.754,179.692 189.107,180.425L173.517,181.922C163.879,182.846 155.54,175.269 155.54,165.587L155.54,165.587Z" transform="rotate(58.664 179.065 165.587)" fill="#00A3FF" stroke="#000000" stroke-width="3" stroke-miterlimit="3.999327"/>
<rect  x="41.12" y="112.867" width="72" height="132" rx="8" transform="rotate(-30 41.12 112.867)" fill="#000000"/>
<rect  x="48.469" y="117.109" width="30" height="30" rx="8" transform="rotate(-30 48.469 117.109)" fill="#FFC000"/>
<circle cx="59.491" cy="123.473" r="5" transform="rotate(-30 59.491 123.473)" fill="#000000"/>
<circle cx="72.635" cy="126.163" r="5" transform="rotate(-30 72.635 126.163)" fill="#000000"/>
<circle cx="62.597" cy="135.064" r="5" transform="rotate(-30 62.597 135.064)" fill="#000000"/>
<path d="M51.01,243.271C69.231,264.142 94.106,268.112 118.912,261.465C126.947,259.312 147.39,251.482 155.034,238.046C162.329,225.22 154.334,218.563 151.789,218.209C159.214,205.867 151.089,198.727 148.544,198.373C155.97,186.031 147.308,179.389 143.368,179.054C145.798,175.908 150.998,168.171 147.307,158.975C142.545,147.114 131.005,151.214 126.816,154.502C106.113,168.677 63.049,190.845 56.424,166.117C36.332,185.544 29.269,218.367 51.01,243.271Z" fill="#FFC000" stroke="#000000" stroke-width="3" stroke-miterlimit="3.999327" stroke-linecap="round" stroke-linejoin="round"/>
</svg>
