<svg width="46" height="56" viewBox="0 0 46 56" fill="none" xmlns="http://www.w3.org/2000/svg" xmlns:xlink="http://www.w3.org/1999/xlink">
<path d="M23.168,12.481C25.664,12.481 28.793,10.764 30.656,8.476C32.344,6.402 33.574,3.505 33.574,0.609C33.574,0.215 33.539,-0.178 33.469,-0.5C30.691,-0.393 27.352,1.395 25.348,3.791C23.766,5.615 22.324,8.476 22.324,11.408C22.324,11.837 22.395,12.266 22.43,12.409C22.605,12.445 22.887,12.481 23.168,12.481ZM14.379,55.75C17.789,55.75 19.301,53.426 23.555,53.426C27.879,53.426 28.828,55.678 32.625,55.678C36.352,55.678 38.848,52.174 41.203,48.741C43.84,44.808 44.93,40.945 45,40.767C44.754,40.695 37.617,37.727 37.617,29.395C37.617,22.172 43.242,18.918 43.559,18.667C39.832,13.232 34.172,13.089 32.625,13.089C28.441,13.089 25.031,15.663 22.887,15.663C20.566,15.663 17.508,13.232 13.887,13.232C6.996,13.232 0,19.025 0,29.967C0,36.762 2.602,43.949 5.801,48.598C8.543,52.532 10.934,55.75 14.379,55.75Z" fill="#000000"/>
</svg>
