<svg width="40" height="40" viewBox="0 0 40 40" fill="none" xmlns="http://www.w3.org/2000/svg" xmlns:xlink="http://www.w3.org/1999/xlink">
<path d="M0,5.714C0,2.558 2.558,0 5.714,0L34.286,0C37.442,0 40,2.558 40,5.714L40,23.377C40,26.533 37.442,29.091 34.286,29.091L23.636,29.091L23.636,40L16.364,29.091L5.714,29.091C2.558,29.091 0,26.533 0,23.377L0,5.714ZM13.636,14.545C13.636,16.052 12.415,17.273 10.909,17.273C9.403,17.273 8.182,16.052 8.182,14.545C8.182,13.039 9.403,11.818 10.909,11.818C12.415,11.818 13.636,13.039 13.636,14.545ZM22.727,14.545C22.727,16.052 21.506,17.273 20,17.273C18.494,17.273 17.273,16.052 17.273,14.545C17.273,13.039 18.494,11.818 20,11.818C21.506,11.818 22.727,13.039 22.727,14.545ZM29.091,17.273C30.597,17.273 31.818,16.052 31.818,14.545C31.818,13.039 30.597,11.818 29.091,11.818C27.584,11.818 26.363,13.039 26.363,14.545C26.363,16.052 27.584,17.273 29.091,17.273Z" clip-rule="evenodd" fill-rule="evenodd" fill="#FFFFFF"/>
</svg>
