<svg width="44" height="44" viewBox="0 0 44 44" fill="none" xmlns="http://www.w3.org/2000/svg" xmlns:xlink="http://www.w3.org/1999/xlink">
<path d="M0,4C0,1.791 1.791,0 4,0L40,0C42.209,0 44,1.791 44,4L44,28C44,30.209 42.209,32 40,32L26,32L26,44L18,32L4,32C1.791,32 0,30.209 0,28L0,4ZM15,16C15,17.657 13.657,19 12,19C10.343,19 9,17.657 9,16C9,14.343 10.343,13 12,13C13.657,13 15,14.343 15,16ZM25,16C25,17.657 23.657,19 22,19C20.343,19 19,17.657 19,16C19,14.343 20.343,13 22,13C23.657,13 25,14.343 25,16ZM32,19C33.657,19 35,17.657 35,16C35,14.343 33.657,13 32,13C30.343,13 29,14.343 29,16C29,17.657 30.343,19 32,19Z" clip-rule="evenodd" fill-rule="evenodd" fill="#FFFFFF"/>
</svg>
