<svg width="72" height="72" viewBox="0 0 72 72" fill="none" xmlns="http://www.w3.org/2000/svg" xmlns:xlink="http://www.w3.org/1999/xlink">
<path d="M30.692,2.345C33.54,-0.782 38.46,-0.782 41.308,2.345L44.969,6.366C46.408,7.946 48.477,8.803 50.612,8.703L56.045,8.449C60.269,8.252 63.748,11.731 63.551,15.955L63.297,21.388C63.197,23.523 64.054,25.591 65.634,27.031L69.655,30.692C72.782,33.54 72.782,38.46 69.655,41.308L65.634,44.969C64.054,46.408 63.197,48.477 63.297,50.612L63.411,53.048C59.643,52.378 55.363,52.69 51.891,55.584C49.132,57.883 46.081,58.368 43.326,58.028C40.535,57.682 38.099,56.49 36.747,55.525C36.236,55.16 35.535,55.218 35.091,55.662L35.031,55.722L34.896,55.858C33.573,57.19 31.633,59.143 28.286,59.143C26.502,59.143 25.255,58.592 24.451,57.765C23.641,56.931 23.143,55.673 23.143,54C23.143,53.633 22.986,53.283 22.712,53.039C22.437,52.795 22.072,52.68 21.707,52.723C18.1,53.147 14.146,53.246 11.147,52.321C10.185,52.025 9.358,51.634 8.679,51.141L8.703,50.612C8.803,48.477 7.946,46.408 6.366,44.969L2.345,41.308C-0.782,38.46 -0.782,33.54 2.345,30.692L6.366,27.031C7.946,25.591 8.803,23.523 8.703,21.388L8.449,15.955C8.252,11.731 11.731,8.252 15.955,8.449L21.388,8.703C23.523,8.803 25.591,7.946 27.031,6.366L30.692,2.345ZM38.275,21.576C37.054,20.236 34.946,20.236 33.725,21.576L32.156,23.3C31.539,23.977 30.653,24.344 29.738,24.301L27.409,24.193C25.599,24.108 24.108,25.599 24.193,27.409L24.301,29.738C24.344,30.653 23.977,31.539 23.3,32.156L21.576,33.725C20.236,34.946 20.236,37.054 21.576,38.275L23.3,39.844C23.977,40.461 24.344,41.347 24.301,42.262L24.193,44.591C24.108,46.401 25.599,47.892 27.409,47.807L29.738,47.699C30.653,47.656 31.539,48.023 32.156,48.7L33.725,50.423C34.946,51.764 37.054,51.764 38.275,50.423L39.844,48.7C40.461,48.023 41.347,47.656 42.262,47.699L44.591,47.807C46.401,47.892 47.892,46.401 47.807,44.591L47.699,42.262C47.656,41.347 48.023,40.461 48.7,39.844L50.423,38.275C51.764,37.054 51.764,34.946 50.423,33.725L48.7,32.156C48.023,31.539 47.656,30.653 47.699,29.738L47.807,27.409C47.892,25.599 46.401,24.108 44.591,24.193L42.262,24.301C41.347,24.344 40.461,23.977 39.844,23.3L38.275,21.576ZM29.948,17.403C29.446,16.901 29.446,16.087 29.948,15.585L33.585,11.948C34.087,11.446 34.901,11.446 35.403,11.948C35.905,12.45 35.905,13.264 35.403,13.766L31.766,17.403C31.264,17.905 30.45,17.905 29.948,17.403ZM12.402,35.075C13.017,34.72 13.228,33.933 12.873,33.318C12.518,32.703 11.732,32.493 11.117,32.848L6.663,35.419C6.048,35.774 5.837,36.561 6.192,37.175C6.547,37.79 7.334,38.001 7.948,37.646L12.402,35.075ZM58.155,41.66C58.77,42.015 58.981,42.801 58.626,43.416L56.055,47.87C55.7,48.485 54.913,48.695 54.298,48.34C53.683,47.985 53.473,47.199 53.828,46.584L56.399,42.13C56.754,41.515 57.541,41.305 58.155,41.66ZM18.156,22.546C18.658,23.048 19.472,23.048 19.974,22.546C20.476,22.044 20.476,21.229 19.974,20.727L16.338,17.091C15.836,16.589 15.022,16.589 14.519,17.091C14.017,17.593 14.017,18.407 14.519,18.909L18.156,22.546ZM55.458,27.643C55.813,27.028 56.599,26.817 57.214,27.172L61.668,29.744C62.283,30.099 62.494,30.885 62.139,31.5C61.784,32.115 60.997,32.326 60.382,31.971L55.929,29.399C55.314,29.044 55.103,28.258 55.458,27.643ZM51.43,13.19C51.614,12.504 51.207,11.799 50.521,11.615C49.835,11.431 49.13,11.839 48.946,12.524L47.615,17.492C47.431,18.178 47.838,18.883 48.524,19.067C49.21,19.25 49.915,18.843 50.099,18.158L51.43,13.19Z" clip-rule="evenodd" fill-rule="evenodd" fill="#FFFFFF"/>
<path d="M62.997,55.587C63.177,55.619 63.356,55.654 63.534,55.692L63.551,56.045C63.748,60.269 60.269,63.748 56.045,63.551L50.612,63.297C48.477,63.197 46.408,64.054 44.969,65.634L41.308,69.655C38.46,72.782 33.54,72.782 30.692,69.655L27.031,65.634C25.591,64.054 23.523,63.197 21.388,63.297L15.955,63.551C11.731,63.748 8.252,60.269 8.449,56.045L8.543,54.049C9.131,54.342 9.751,54.582 10.389,54.779C13.506,55.739 17.296,55.73 20.67,55.418C20.899,57.026 21.536,58.455 22.606,59.557C23.988,60.979 25.955,61.714 28.286,61.714C32.22,61.714 34.728,59.631 36.173,58.218C37.859,59.228 40.282,60.242 43.01,60.58C46.319,60.989 50.125,60.403 53.537,57.559C56.223,55.321 59.639,54.982 62.997,55.587Z" fill="#FFFFFF"/>
</svg>
