<svg width="48" height="44" viewBox="0 0 48 44" fill="none" xmlns="http://www.w3.org/2000/svg" xmlns:xlink="http://www.w3.org/1999/xlink">
<path d="M44.326,21.632L46.483,19.099L45.545,18.411L47.046,17.035L45.889,16.159L47.39,15.034L46.421,14.283L47.984,6.653L45.608,-0.414M45.608,-0.414L30.348,5.246L17.621,5.246L2.361,-0.414L-0.016,6.653L1.579,14.283L0.579,15.034L2.111,16.159L0.954,17.035L2.455,18.411L1.517,19.099L3.674,21.632L0.391,31.763L3.424,42.114L14.087,39.175L16.151,40.863L20.373,43.74L27.596,43.74L31.818,40.863L33.881,39.175L44.576,42.114L47.64,31.763L44.326,21.632Z" fill="#F5841F"/>
</svg>
