<svg width="24" height="24" viewBox="0 0 24 24" fill="none" xmlns="http://www.w3.org/2000/svg">
<g clip-path="url(#clip0_1146_9958)">
<path d="M19.7561 8.33545C19.3144 7.29885 18.6898 6.36896 17.8825 5.56102C17.0751 4.75307 16.1612 4.12807 15.1253 3.68599C14.0438 3.22866 12.9014 3 11.7284 3C10.5403 3 9.3978 3.22866 8.33149 3.68599C7.29566 4.12807 6.36646 4.75307 5.55911 5.56102C4.75178 6.36896 4.12723 7.29885 3.68548 8.33545C3.22849 9.40255 3 10.5459 3 11.7349C3 12.9087 3.22849 14.052 3.68548 15.1343C4.12723 16.1709 4.75178 17.1008 5.55911 17.9088C6.36646 18.7167 7.29566 19.3417 8.33149 19.7686C9.41302 20.2259 10.5555 20.4545 11.7284 20.4545C12.9014 20.4545 14.0438 20.2259 15.1253 19.7686C16.1612 19.3265 17.0903 18.7015 17.8977 17.8935C18.7051 17.0856 19.3296 16.1557 19.7714 15.1191C20.2283 14.0368 20.4568 12.8935 20.4568 11.7196C20.4568 10.5459 20.2131 9.40255 19.7561 8.33545ZM8.83418 10.9117C9.18453 9.50924 10.4641 8.48787 11.9721 8.48787H18.0348C18.4309 9.23487 18.6746 10.058 18.766 10.9117H8.83418ZM18.766 12.5581C18.6746 13.4117 18.4156 14.2349 18.0348 14.9819H11.9721C10.4641 14.9819 9.19975 13.9453 8.83418 12.5581H18.766ZM6.71681 6.71957C8.0573 5.37809 9.83956 4.64637 11.7284 4.64637C13.6173 4.64637 15.3995 5.37809 16.74 6.71957C16.7857 6.76531 16.8162 6.79579 16.8619 6.84153H11.9721C10.6621 6.84153 9.44351 7.34458 8.51427 8.27448C7.78311 9.00622 7.31089 9.92084 7.15856 10.9117H4.69084C4.87364 9.32635 5.57435 7.86288 6.71681 6.71957ZM11.7284 18.8234C9.83956 18.8234 8.0573 18.0917 6.71681 16.7502C5.57435 15.6069 4.87364 14.1282 4.69084 12.5581H7.15856C7.32613 13.5489 7.79834 14.4636 8.51427 15.1953C9.44351 16.1252 10.6621 16.6283 11.9721 16.6283H16.8619C16.8162 16.674 16.7857 16.7045 16.74 16.7502C15.3995 18.0917 13.6173 18.8234 11.7284 18.8234Z" fill="black"/>
</g>
<defs>
<clipPath id="clip0_1146_9958">
<rect width="18" height="17.4545" fill="white" transform="translate(3 3)"/>
</clipPath>
</defs>
</svg>
