<svg width="60" height="60" viewBox="0 0 60 60" fill="none" xmlns="http://www.w3.org/2000/svg">
<rect width="60" height="60" rx="30" fill="white"/>
<path d="M29.584 22.2404C30.832 22.2404 32.3965 21.3822 33.3281 20.2378C34.1719 19.2008 34.7871 17.7525 34.7871 16.3043C34.7871 16.1076 34.7695 15.9109 34.7344 15.75C33.3457 15.8036 31.6758 16.6976 30.6738 17.8956C29.8828 18.8075 29.1621 20.2378 29.1621 21.704C29.1621 21.9185 29.1973 22.1331 29.2148 22.2046C29.3027 22.2225 29.4434 22.2404 29.584 22.2404ZM25.1895 43.875C26.8945 43.875 27.6504 42.7128 29.7773 42.7128C31.9395 42.7128 32.4141 43.8392 34.3125 43.8392C36.1758 43.8392 37.4238 42.087 38.6016 40.3705C39.9199 38.4038 40.4648 36.4727 40.5 36.3833C40.377 36.3476 36.8086 34.8636 36.8086 30.6976C36.8086 27.0858 39.6211 25.4588 39.7793 25.3336C37.916 22.6159 35.0859 22.5443 34.3125 22.5443C32.2207 22.5443 30.5156 23.8317 29.4434 23.8317C28.2832 23.8317 26.7539 22.6159 24.9434 22.6159C21.498 22.6159 18 25.5124 18 30.9836C18 34.3808 19.3008 37.9746 20.9004 40.299C22.2715 42.2658 23.4668 43.875 25.1895 43.875Z" fill="black"/>
</svg>
