<svg width="88" height="88" viewBox="0 0 88 88" fill="none" xmlns="http://www.w3.org/2000/svg">
<circle cx="44" cy="44" r="44" fill="#1877F4"/>
<mask id="mask0_2055_19720" style="mask-type:alpha" maskUnits="userSpaceOnUse" x="0" y="0" width="88" height="88">
<circle cx="44" cy="44" r="44" fill="#1877F4"/>
</mask>
<g mask="url(#mask0_2055_19720)">
<rect x="25.5" y="9.5" width="65.7692" height="99" rx="4.5" fill="#FF0001" stroke="black" stroke-width="3"/>
<path d="M55.5102 39.7686C57.1375 37.9819 59.9487 37.9819 61.576 39.7686L63.6685 42.0663C64.4907 42.9693 65.6727 43.4589 66.8929 43.4019L69.9972 43.2568C72.4111 43.144 74.3992 45.1319 74.2864 47.546L74.1411 50.6502C74.0841 51.8703 74.5737 53.0523 75.4768 53.8746L77.7744 55.9671C79.5613 57.5944 79.5613 60.4056 77.7744 62.0329L75.4768 64.1254C74.5737 64.9476 74.0841 66.1297 74.1411 67.3498L74.2864 70.4541C74.3992 72.868 72.4111 74.8561 69.9972 74.7433L66.8929 74.598C65.6727 74.541 64.4907 75.0306 63.6685 75.9337L61.576 78.2313C59.9487 80.0182 57.1375 80.0182 55.5102 78.2313L53.4177 75.9337C52.5953 75.0306 51.4134 74.541 50.1933 74.598L47.089 74.7433C44.675 74.8561 42.6871 72.868 42.7999 70.4541L42.945 67.3498C43.002 66.1297 42.5124 64.9476 41.6094 64.1254L39.3117 62.0329C37.525 60.4056 37.525 57.5944 39.3117 55.9671L41.6094 53.8746C42.5124 53.0523 43.002 51.8703 42.945 50.6502L42.7999 47.5459C42.6871 45.1319 44.675 43.144 47.089 43.2568L50.1933 43.4019C51.4134 43.4589 52.5953 42.9693 53.4177 42.0663L55.5102 39.7686Z" fill="black"/>
<g clip-path="url(#clip0_2055_19720)">
<mask id="mask1_2055_19720" style="mask-type:alpha" maskUnits="userSpaceOnUse" x="46" y="49" width="9" height="17">
<path d="M54.5869 58.209C54.5869 63.3519 52.8157 65.3299 50.6308 65.3299C48.446 65.3299 46.6748 63.3519 46.6748 58.209C46.6748 53.0662 47.466 49.5057 50.6308 49.5057C53.7957 49.5057 54.5869 53.0662 54.5869 58.209Z" fill="white"/>
</mask>
<g mask="url(#mask1_2055_19720)">
<path d="M54.5869 58.209C54.5869 63.3519 52.8157 65.3299 50.6308 65.3299C48.446 65.3299 46.6748 63.3519 46.6748 58.209C46.6748 53.0662 47.466 49.5057 50.6308 49.5057C53.7957 49.5057 54.5869 53.0662 54.5869 58.209Z" fill="white"/>
<path d="M50.2353 57.4178C50.2353 59.6027 49.8397 61.3739 48.2573 61.3739C46.6749 61.3739 46.2793 59.6027 46.2793 57.4178C46.2793 55.233 46.6749 53.4618 48.2573 53.4618C49.8397 53.4618 50.2353 55.233 50.2353 57.4178Z" fill="black"/>
</g>
</g>
<g clip-path="url(#clip1_2055_19720)">
<mask id="mask2_2055_19720" style="mask-type:alpha" maskUnits="userSpaceOnUse" x="54" y="49" width="9" height="17">
<path d="M62.499 58.209C62.499 63.3519 60.7278 65.3299 58.543 65.3299C56.3581 65.3299 54.5869 63.3519 54.5869 58.209C54.5869 53.0662 55.3781 49.5057 58.543 49.5057C61.7078 49.5057 62.499 53.0662 62.499 58.209Z" fill="white"/>
</mask>
<g mask="url(#mask2_2055_19720)">
<path d="M62.499 58.209C62.499 63.3519 60.7278 65.3299 58.543 65.3299C56.3581 65.3299 54.5869 63.3519 54.5869 58.209C54.5869 53.0662 55.3781 49.5057 58.543 49.5057C61.7078 49.5057 62.499 53.0662 62.499 58.209Z" fill="white"/>
<path d="M58.1475 57.4178C58.1475 59.6027 57.7518 61.3739 56.1694 61.3739C54.587 61.3739 54.1914 59.6027 54.1914 57.4178C54.1914 55.233 54.587 53.4618 56.1694 53.4618C57.7518 53.4618 58.1475 55.233 58.1475 57.4178Z" fill="black"/>
</g>
</g>
<rect x="31.1143" y="24.7143" width="27.4286" height="2.74286" rx="1.37143" fill="black"/>
<rect x="31.1143" y="28.8286" width="8.22857" height="2.74286" rx="1.37143" fill="black"/>
<rect x="40.7139" y="28.8286" width="8.22857" height="2.74286" rx="1.37143" fill="black"/>
<circle cx="35.2285" cy="19.2285" r="4.11429" fill="black"/>
</g>
<defs>
<clipPath id="clip0_2055_19720">
<rect width="7.91209" height="15.8242" fill="white" transform="translate(46.6748 49.5057)"/>
</clipPath>
<clipPath id="clip1_2055_19720">
<rect width="7.91209" height="15.8242" fill="white" transform="translate(54.5869 49.5057)"/>
</clipPath>
</defs>
</svg>
