<svg width="84" height="84" viewBox="0 0 84 84" fill="none" xmlns="http://www.w3.org/2000/svg">
<g clip-path="url(#clip0_2017_30543)">
<mask id="mask0_2017_30543" style="mask-type:alpha" maskUnits="userSpaceOnUse" x="44" y="28" width="14" height="28">
<path d="M58 43.4C58 52.5 54.866 56 51 56C47.134 56 44 52.5 44 43.4C44 34.3 45.4 28 51 28C56.6 28 58 34.3 58 43.4Z" fill="white"/>
</mask>
<g mask="url(#mask0_2017_30543)">
<path d="M58 43.4C58 52.5 54.866 56 51 56C47.134 56 44 52.5 44 43.4C44 34.3 45.4 28 51 28C56.6 28 58 34.3 58 43.4Z" fill="white"/>
<path d="M57 46C57 49.866 56.3 53 53.5 53C50.7 53 50 49.866 50 46C50 42.134 50.7 39 53.5 39C56.3 39 57 42.134 57 46Z" fill="black"/>
</g>
</g>
<g clip-path="url(#clip1_2017_30543)">
<mask id="mask1_2017_30543" style="mask-type:alpha" maskUnits="userSpaceOnUse" x="26" y="28" width="14" height="28">
<path d="M40 43.4C40 52.5 36.866 56 33 56C29.134 56 26 52.5 26 43.4C26 34.3 27.4 28 33 28C38.6 28 40 34.3 40 43.4Z" fill="white"/>
</mask>
<g mask="url(#mask1_2017_30543)">
<path d="M40 43.4C40 52.5 36.866 56 33 56C29.134 56 26 52.5 26 43.4C26 34.3 27.4 28 33 28C38.6 28 40 34.3 40 43.4Z" fill="white"/>
<path d="M39 46C39 49.866 38.3 53 35.5 53C32.7 53 32 49.866 32 46C32 42.134 32.7 39 35.5 39C38.3 39 39 42.134 39 46Z" fill="black"/>
</g>
</g>
<defs>
<clipPath id="clip0_2017_30543">
<rect width="14" height="28" fill="white" transform="translate(44 28)"/>
</clipPath>
<clipPath id="clip1_2017_30543">
<rect width="14" height="28" fill="white" transform="translate(26 28)"/>
</clipPath>
</defs>
</svg>
