<svg width="182" height="158" viewBox="0 0 182 158" fill="none" xmlns="http://www.w3.org/2000/svg">
<path d="M47.7925 62.53C42.5595 62.53 38.2865 66.6335 38.0138 71.8H38V112.555C38 122.869 46.3611 131.23 56.675 131.23H102.655C106.969 131.23 110.507 127.909 110.852 123.685H136.474C140.08 123.685 143.004 120.761 143.004 117.155V33.5299C143.004 29.9235 140.08 27 136.474 27H84.2399C80.6335 27 77.71 29.9235 77.71 33.5298V34.315H58.1149C54.5085 34.315 51.585 37.2385 51.585 40.8448V62.53H47.7925Z" fill="black" stroke="white" stroke-width="6"/>
<path d="M42.7499 72.3225C42.7499 69.5376 45.0075 67.28 47.7924 67.28H62.2399V77.365H47.7924C45.0075 77.365 42.7499 75.1074 42.7499 72.3225Z" fill="#00A3FF" stroke="black" stroke-width="3.5"/>
<rect x="56.3349" y="39.0651" width="43.525" height="87.415" rx="1.77985" fill="#FF00E5" stroke="black" stroke-width="3.5"/>
<rect x="61.1754" y="53.8767" width="25.91" height="2.591" rx="1.2955" fill="black"/>
<rect x="61.1763" y="57.7645" width="7.77299" height="2.591" rx="1.2955" fill="black"/>
<rect x="70.245" y="57.764" width="7.77299" height="2.591" rx="1.2955" fill="black"/>
<circle cx="65.0619" cy="48.6955" r="3.8865" fill="black"/>
<rect x="82.4599" y="31.75" width="55.794" height="87.1849" rx="1.77985" fill="#00A3FF" stroke="black" stroke-width="3.5"/>
<path d="M107.927 53.983C109.311 52.464 111.701 52.464 113.084 53.983L114.863 55.9364C115.562 56.7041 116.567 57.1204 117.605 57.0719L120.244 56.9486C122.296 56.8526 123.986 58.5427 123.89 60.5951L123.767 63.2342C123.718 64.2715 124.135 65.2764 124.902 65.9755L126.856 67.7545C128.375 69.138 128.375 71.5279 126.856 72.9114L124.902 74.6904C124.135 75.3895 123.718 76.3944 123.767 77.4317L123.89 80.0709C123.986 82.1231 122.296 83.8133 120.244 83.7174L117.605 83.594C116.567 83.5455 115.562 83.9617 114.863 84.7295L113.084 86.6828C111.701 88.202 109.311 88.202 107.927 86.6828L106.148 84.7295C105.449 83.9617 104.444 83.5455 103.407 83.594L100.768 83.7174C98.7155 83.8133 97.0254 82.1231 97.1214 80.0709L97.2447 77.4317C97.2932 76.3944 96.8769 75.3895 96.1092 74.6904L94.1558 72.9114C92.6368 71.5279 92.6368 69.138 94.1558 67.7545L96.1092 65.9755C96.8769 65.2764 97.2932 64.2715 97.2447 63.2342L97.1214 60.595C97.0254 58.5427 98.7155 56.8526 100.768 56.9486L103.407 57.0719C104.444 57.1204 105.449 56.7041 106.148 55.9364L107.927 53.983Z" fill="black"/>
<g clip-path="url(#clip0_95_4806)">
<mask id="mask0_95_4806" style="mask-type:alpha" maskUnits="userSpaceOnUse" x="101" y="63" width="7" height="14">
<path d="M107.891 70.6146C107.891 74.9869 106.386 76.6686 104.528 76.6686C102.671 76.6686 101.165 74.9869 101.165 70.6146C101.165 66.2423 101.837 63.2153 104.528 63.2153C107.219 63.2153 107.891 66.2423 107.891 70.6146Z" fill="white"/>
</mask>
<g mask="url(#mask0_95_4806)">
<path d="M107.891 70.6146C107.891 74.9869 106.386 76.6686 104.528 76.6686C102.671 76.6686 101.165 74.9869 101.165 70.6146C101.165 66.2423 101.837 63.2153 104.528 63.2153C107.219 63.2153 107.891 66.2423 107.891 70.6146Z" fill="white"/>
<path d="M104.192 69.9419C104.192 71.7994 103.855 73.3052 102.51 73.3052C101.165 73.3052 100.828 71.7994 100.828 69.9419C100.828 68.0844 101.165 66.5786 102.51 66.5786C103.855 66.5786 104.192 68.0844 104.192 69.9419Z" fill="black"/>
</g>
</g>
<g clip-path="url(#clip1_95_4806)">
<mask id="mask1_95_4806" style="mask-type:alpha" maskUnits="userSpaceOnUse" x="107" y="62" width="7" height="14">
<path d="M113.87 69.6615C113.87 74.0338 112.364 75.7155 110.507 75.7155C108.649 75.7155 107.143 74.0338 107.143 69.6615C107.143 65.2892 107.816 62.2622 110.507 62.2622C113.197 62.2622 113.87 65.2892 113.87 69.6615Z" fill="white"/>
</mask>
<g mask="url(#mask1_95_4806)">
<path d="M113.87 69.6615C113.87 74.0338 112.364 75.7155 110.507 75.7155C108.649 75.7155 107.143 74.0338 107.143 69.6615C107.143 65.2892 107.816 62.2622 110.507 62.2622C113.197 62.2622 113.87 65.2892 113.87 69.6615Z" fill="white"/>
<path d="M110.17 68.9888C110.17 70.8463 109.834 72.3521 108.489 72.3521C107.143 72.3521 106.807 70.8463 106.807 68.9888C106.807 67.1313 107.143 65.6255 108.489 65.6255C109.834 65.6255 110.17 67.1313 110.17 68.9888Z" fill="black"/>
</g>
</g>
<rect x="87.6096" y="46.3524" width="25.91" height="2.591" rx="1.2955" fill="black"/>
<rect x="87.6101" y="50.2402" width="7.77299" height="2.591" rx="1.2955" fill="black"/>
<rect x="96.6788" y="50.24" width="7.77299" height="2.591" rx="1.2955" fill="black"/>
<circle cx="91.4961" cy="41.1712" r="3.8865" fill="black"/>
<mask id="path-20-inside-1_95_4806" fill="white">
<path fill-rule="evenodd" clip-rule="evenodd" d="M41 71.8003L41 71.8H40.9999V75.98V112.555C40.9999 121.212 48.0178 128.23 56.6749 128.23H102.655C105.541 128.23 107.88 125.891 107.88 123.005V81.205C107.88 78.3194 105.541 75.98 102.655 75.98H45.1313C42.8452 75.9539 41 74.0926 41 71.8003Z"/>
</mask>
<path fill-rule="evenodd" clip-rule="evenodd" d="M41 71.8003L41 71.8H40.9999V75.98V112.555C40.9999 121.212 48.0178 128.23 56.6749 128.23H102.655C105.541 128.23 107.88 125.891 107.88 123.005V81.205C107.88 78.3194 105.541 75.98 102.655 75.98H45.1313C42.8452 75.9539 41 74.0926 41 71.8003Z" fill="#FFC000"/>
<path d="M41 71.8L44.5 71.8002L44.5001 68.3H41V71.8ZM41 71.8003L37.5 71.8002V71.8003H41ZM40.9999 71.8V68.3H37.4999V71.8H40.9999ZM45.1313 75.98L45.0913 79.4798L45.1113 79.48H45.1313V75.98ZM37.5 71.7999V71.8002L44.5 71.8004V71.8002L37.5 71.7999ZM40.9999 75.3H41V68.3H40.9999V75.3ZM44.4999 75.98V71.8H37.4999V75.98H44.4999ZM44.4999 112.555V75.98H37.4999V112.555H44.4999ZM56.6749 124.73C49.9508 124.73 44.4999 119.279 44.4999 112.555H37.4999C37.4999 123.145 46.0849 131.73 56.6749 131.73V124.73ZM102.655 124.73H56.6749V131.73H102.655V124.73ZM104.38 123.005C104.38 123.958 103.608 124.73 102.655 124.73V131.73C107.474 131.73 111.38 127.824 111.38 123.005H104.38ZM104.38 81.205V123.005H111.38V81.205H104.38ZM102.655 79.48C103.608 79.48 104.38 80.2524 104.38 81.205H111.38C111.38 76.3864 107.474 72.48 102.655 72.48V79.48ZM45.1313 79.48H102.655V72.48H45.1313V79.48ZM37.5 71.8003C37.5 76.0122 40.8901 79.4318 45.0913 79.4798L45.1712 72.4803C44.8002 72.476 44.5 72.173 44.5 71.8003H37.5Z" fill="black" mask="url(#path-20-inside-1_95_4806)"/>
<rect x="91.4999" y="87.8151" width="24.4" height="24.4" rx="6.975" fill="#FFC000" stroke="black" stroke-width="3.5"/>
<circle cx="103.7" cy="100.015" r="4.18" fill="black"/>
<defs>
<clipPath id="clip0_95_4806">
<rect width="6.72663" height="13.4533" fill="white" transform="translate(101.165 63.2153)"/>
</clipPath>
<clipPath id="clip1_95_4806">
<rect width="6.72663" height="13.4533" fill="white" transform="translate(107.143 62.2622)"/>
</clipPath>
</defs>
</svg>
