<svg width="32" height="32" viewBox="0 0 32 32" fill="none" xmlns="http://www.w3.org/2000/svg">
<g clip-path="url(#clip0_361_46488)">
<path fill-rule="evenodd" clip-rule="evenodd" d="M13.4971 21.0259C12.1304 23.0494 9.84017 25.6103 6.79271 25.6103C5.35209 25.6103 3.96684 25.0374 3.9668 22.5483C3.96668 16.209 12.9244 6.39564 21.2358 6.39551C25.9639 6.39542 27.848 9.56495 27.848 13.1643C27.848 17.7844 24.7451 23.0672 21.6608 23.0672C20.6819 23.0672 20.2017 22.5479 20.2017 21.7243C20.2017 21.5094 20.2385 21.2765 20.3126 21.0259C19.2596 22.7628 17.228 24.3748 15.3256 24.3748C13.9404 24.3748 13.2386 23.533 13.2386 22.351C13.2386 21.9212 13.3309 21.4736 13.4971 21.0259ZM19.6663 11.2697C18.9139 11.271 18.401 11.8886 18.4026 12.7696C18.4042 13.6506 18.9194 14.2841 19.6718 14.2828C20.4059 14.2816 20.9186 13.6464 20.917 12.7653C20.9154 11.8843 20.4004 11.2685 19.6663 11.2697ZM23.657 11.2655C22.9047 11.2668 22.3918 11.8844 22.3934 12.7654C22.395 13.6464 22.9099 14.2799 23.6625 14.2786C24.3967 14.2774 24.9093 13.6422 24.9077 12.7611C24.9061 11.8801 24.3911 11.2643 23.657 11.2655Z" fill="white"/>
</g>
<defs>
<clipPath id="clip0_361_46488">
<rect width="32" height="32.0004" fill="white"/>
</clipPath>
</defs>
</svg>
