<svg width="50" height="50" viewBox="0 0 50 50" fill="none" xmlns="http://www.w3.org/2000/svg">
<g clip-path="url(#clip0_2167_96449)">
<path d="M25 50C38.8071 50 50 38.8071 50 25C50 11.1929 38.8071 0 25 0C11.1929 0 0 11.1929 0 25C0 38.8071 11.1929 50 25 50Z" fill="#939393"/>
<path d="M50 25C50 11.1938 38.8062 0 25 0C11.1938 0 0 11.1938 0 25C0 35.2417 6.16042 44.0438 14.9771 47.9083C15.6562 46.3229 16.6104 44.0708 17.1479 42.6958C17.6833 41.3271 17.9708 39.5708 18.2229 38.0208C18.3979 36.95 18.5625 35.9375 18.7875 35.1604C19.0271 34.3354 19.5125 33.8083 20.0437 33.4646C17.0625 33.0604 14.1708 31.9375 11.6875 30.2479C10.3917 29.3417 9.1625 28.1938 8.56042 26.6938C8.06458 25.4479 8.1 23.9625 8.77708 22.7875C8.81042 22.7312 8.84583 22.6771 8.88125 22.6229C6.83333 22.3125 4.69792 22.5063 2.75208 23.1854L2.14792 23.3979C2.10417 23.4167 2.05417 23.3958 2.03958 23.35C2.025 23.3083 2.04583 23.2625 2.08958 23.2479L2.7 23.0312C4.70625 22.325 6.9 22.1229 9.00625 22.45C9.4 21.9271 9.91458 21.5167 10.4854 21.1917C9.23125 20.4917 7.81042 20.0604 6.425 19.7354C5.325 19.5021 4.15208 19.3562 3.03333 19.275C3.03333 19.275 1.66042 19.2208 1.65833 19.2208C1.55208 19.2167 1.55 19.0479 1.66458 19.0521L3.04375 19.1021C5.33125 19.2583 7.64792 19.6667 9.75417 20.6063C10.0708 20.7563 10.3854 20.9104 10.6917 21.0792C11.0938 20.8687 11.5146 20.6958 11.9375 20.5521C11.9875 19.2563 12.1854 17.9771 12.4958 16.725C13.2729 13.5562 15.0104 10.4083 17.9833 8.8375C20.9354 7.35208 24.3771 7.05208 27.6188 7.46042C32.6458 8.1 36.8792 10.9354 38.025 15.8187C38.8563 15.2896 39.7604 14.9104 40.7125 14.7646C42.8354 14.4313 44.8083 15.9812 44.9875 18.1229C45.4271 22.0854 40.7958 27.9208 36.7354 28.0479C36.4 28.0604 36.0583 28.0229 35.725 27.9438C35.5812 28.1479 35.4292 28.3479 35.2729 28.5458C34.5229 29.5292 33.5958 30.3292 32.5667 30.9833C33.4062 31.2083 34.1875 31.625 34.8646 32.1625C34.9562 32.2375 35.0417 32.3167 35.1292 32.3958C35.5604 32.7687 35.9937 33.225 36.4187 33.7792L36.4437 33.8125C36.5271 33.9208 36.6083 34.0333 36.6896 34.15C36.7354 34.2146 36.7812 34.2792 36.8271 34.3458C36.8688 34.4062 36.9083 34.4687 36.95 34.5333C37.025 34.6458 37.0979 34.7604 37.1688 34.8771C37.1771 34.8917 37.1854 34.9021 37.1937 34.9167C37.225 34.9688 37.2562 35.0229 37.2875 35.075C38.9604 37.9292 39.675 41.5938 39.9354 45.0583C46.0438 40.5 50 33.2167 50 25.0083V25Z" fill="#656565"/>
</g>
<rect x="0.5" y="0.5" width="49" height="49" rx="24.5" stroke="#000000" stroke-linecap="round" stroke-linejoin="round"/>
<defs>
<clipPath id="clip0_2167_96449">
<rect width="50" height="50" rx="25" fill="white"/>
</clipPath>
</defs>
</svg>
