<svg width="158" height="139" viewBox="0 0 158 139" fill="none" xmlns="http://www.w3.org/2000/svg">
<g filter="url(#filter0_d_1066_25423)">
<path d="M79.8974 110.394C76.7332 113.869 71.267 113.869 68.1028 110.394L64.034 105.927C62.4352 104.171 60.1368 103.219 57.7643 103.33L51.7282 103.612C47.0345 103.831 43.1688 99.9657 43.3881 95.2718L43.6705 89.2357C43.7814 86.8634 42.8294 84.5651 41.0734 82.966L36.6059 78.8974C33.1314 75.7331 33.1314 70.267 36.6059 67.1028L41.0734 63.034C42.8294 61.4352 43.7814 59.1368 43.6705 56.7643L43.3881 50.7282C43.1688 46.0345 47.0345 42.1688 51.7282 42.3881L57.7643 42.6705C60.1368 42.7814 62.4352 41.8294 64.034 40.0734L68.1028 35.6059C71.267 32.1314 76.7332 32.1314 79.8974 35.6059L83.966 40.0734C85.5651 41.8294 87.8634 42.7814 90.2357 42.6705L96.2718 42.3881C100.966 42.1688 104.831 46.0345 104.612 50.7282L104.33 56.7643C104.219 59.1368 105.171 61.4352 106.927 63.034L111.394 67.1028C114.869 70.267 114.869 75.7332 111.394 78.8974L106.927 82.966C105.171 84.5651 104.219 86.8634 104.33 89.2357L104.612 95.2718C104.831 99.9657 100.966 103.831 96.2718 103.612L90.2357 103.33C87.8634 103.219 85.5651 104.171 83.966 105.927L79.8974 110.394Z" fill="#00A3FF"/>
</g>
<path d="M79.8974 110.394C76.7332 113.869 71.267 113.869 68.1028 110.394L64.034 105.927C62.4352 104.171 60.1368 103.219 57.7643 103.33L51.7282 103.612C47.0345 103.831 43.1688 99.9657 43.3881 95.2718L43.6705 89.2357C43.7814 86.8634 42.8294 84.5651 41.0734 82.966L36.6059 78.8974C33.1314 75.7331 33.1314 70.267 36.6059 67.1028L41.0734 63.034C42.8294 61.4352 43.7814 59.1368 43.6705 56.7643L43.3881 50.7282C43.1688 46.0345 47.0345 42.1688 51.7282 42.3881L57.7643 42.6705C60.1368 42.7814 62.4352 41.8294 64.034 40.0734L68.1028 35.6059C71.267 32.1314 76.7332 32.1314 79.8974 35.6059L83.966 40.0734C85.5651 41.8294 87.8634 42.7814 90.2357 42.6705L96.2718 42.3881C100.966 42.1688 104.831 46.0345 104.612 50.7282L104.33 56.7643C104.219 59.1368 105.171 61.4352 106.927 63.034L111.394 67.1028C114.869 70.267 114.869 75.7332 111.394 78.8974L106.927 82.966C105.171 84.5651 104.219 86.8634 104.33 89.2357L104.612 95.2718C104.831 99.9657 100.966 103.831 96.2718 103.612L90.2357 103.33C87.8634 103.219 85.5651 104.171 83.966 105.927L79.8974 110.394Z" fill="black"/>
<path fill-rule="evenodd" clip-rule="evenodd" d="M81.376 111.741C77.4185 116.086 70.5817 116.086 66.6242 111.741L62.5554 107.273C61.3576 105.958 59.6355 105.244 57.8577 105.328L51.8216 105.61C45.951 105.884 41.116 101.049 41.3903 95.1783L41.6727 89.1423C41.7558 87.3648 41.0425 85.6429 39.7268 84.4448L35.2592 80.376C30.9136 76.4185 30.9136 69.5816 35.2592 65.6241L39.7268 61.5554C41.0423 60.3576 41.7558 58.6354 41.6727 56.8576L41.3903 50.8215C41.116 44.9509 45.9509 40.116 51.8217 40.3903L57.8577 40.6727C59.6355 40.7557 61.3574 40.0424 62.5552 38.7269L66.6241 34.2592C70.5817 29.9136 77.4185 29.9136 81.3761 34.2592L85.4448 38.7267C86.6428 40.0424 88.3649 40.7557 90.1423 40.6727L96.1785 40.3903C102.049 40.116 106.884 44.951 106.61 50.8216L106.328 56.8576C106.244 58.6354 106.958 60.3574 108.273 61.5553L112.741 65.6241C117.086 69.5816 117.086 76.4185 112.741 80.376L108.273 84.4447L106.927 82.966L111.394 78.8974C114.869 75.7332 114.869 70.267 111.394 67.1028L106.927 63.034C105.171 61.4352 104.219 59.1368 104.33 56.7643L104.612 50.7282C104.831 46.0345 100.966 42.1688 96.2719 42.3881L90.2357 42.6705C87.8634 42.7814 85.5651 41.8294 83.9661 40.0734L79.8974 35.6059C76.7332 32.1314 71.267 32.1314 68.1028 35.6059L64.0341 40.0734C62.4352 41.8294 60.1369 42.7814 57.7643 42.6705L51.7282 42.3881C47.0345 42.1688 43.1688 46.0345 43.3882 50.7282L43.6705 56.7643C43.7814 59.1368 42.8294 61.4352 41.0734 63.034L36.6059 67.1028C33.1314 70.267 33.1314 75.7331 36.6059 78.8974L41.0734 82.966C42.8294 84.5651 43.7814 86.8634 43.6705 89.2357L43.3882 95.2718C43.1688 99.9657 47.0345 103.831 51.7282 103.612L57.7643 103.33C60.1368 103.219 62.4352 104.171 64.0341 105.927L68.1028 110.394C71.267 113.869 76.7332 113.869 79.8974 110.394L83.9661 105.927L85.4448 107.273L81.376 111.741ZM90.2357 103.33C87.8634 103.219 85.5651 104.171 83.9661 105.927L85.4448 107.273C86.6429 105.958 88.3649 105.244 90.1423 105.328L90.2357 103.33ZM90.2357 103.33L90.1423 105.328L96.1784 105.61C102.049 105.884 106.884 101.049 106.61 95.1785L106.328 89.1423C106.244 87.3649 106.958 85.6428 108.273 84.4447L106.927 82.966C105.171 84.5651 104.219 86.8634 104.33 89.2357L104.612 95.2718C104.831 99.9657 100.966 103.831 96.2718 103.612L90.2357 103.33Z" fill="white"/>
<g clip-path="url(#clip0_1066_25423)">
<mask id="mask0_1066_25423" style="mask-type:alpha" maskUnits="userSpaceOnUse" x="76" y="59" width="14" height="29">
<path d="M90 74.4001C90 83.5001 86.866 87.0001 83 87.0001C79.134 87.0001 76 83.5001 76 74.4001C76 65.3001 77.4 59.0001 83 59.0001C88.6 59.0001 90 65.3001 90 74.4001Z" fill="white"/>
</mask>
<g mask="url(#mask0_1066_25423)">
<path d="M90 74.4001C90 83.5001 86.866 87.0001 83 87.0001C79.134 87.0001 76 83.5001 76 74.4001C76 65.3001 77.4 59.0001 83 59.0001C88.6 59.0001 90 65.3001 90 74.4001Z" fill="white"/>
<path d="M83 69.0001C83 72.8661 82.3 76.0001 79.5 76.0001C76.7 76.0001 76 72.8661 76 69.0001C76 65.1341 76.7 62.0001 79.5 62.0001C82.3 62.0001 83 65.1341 83 69.0001Z" fill="black"/>
</g>
</g>
<g clip-path="url(#clip1_1066_25423)">
<mask id="mask1_1066_25423" style="mask-type:alpha" maskUnits="userSpaceOnUse" x="58" y="59" width="14" height="28">
<path d="M72 74.4C72 83.5 68.866 87 65 87C61.134 87 58 83.5 58 74.4C58 65.3 59.4 59 65 59C70.6 59 72 65.3 72 74.4Z" fill="white"/>
</mask>
<g mask="url(#mask1_1066_25423)">
<path d="M72 74.4C72 83.5 68.866 87 65 87C61.134 87 58 83.5 58 74.4C58 65.3 59.4 59 65 59C70.6 59 72 65.3 72 74.4Z" fill="white"/>
<path d="M65 69C65 72.866 64.3 76 61.5 76C58.7 76 58 72.866 58 69C58 65.134 58.7 62 61.5 62C64.3 62 65 65.134 65 69Z" fill="black"/>
</g>
</g>
<g filter="url(#filter1_d_1066_25423)">
<path d="M107.346 84.1725C108.77 82.6092 111.23 82.6092 112.654 84.1725L114.485 86.183C115.204 86.9731 116.238 87.4015 117.306 87.3516L120.022 87.2247C122.134 87.126 123.874 88.8654 123.775 90.9777L123.648 93.6939C123.598 94.7615 124.027 95.7957 124.817 96.5153L126.827 98.3462C128.391 99.7701 128.391 102.23 126.827 103.654L124.817 105.485C124.027 106.204 123.598 107.238 123.648 108.306L123.775 111.022C123.874 113.134 122.134 114.874 120.022 114.775L117.306 114.648C116.238 114.598 115.204 115.027 114.485 115.817L112.654 117.827C111.23 119.391 108.77 119.391 107.346 117.827L105.515 115.817C104.796 115.027 103.761 114.598 102.694 114.648L99.9777 114.775C97.8654 114.874 96.126 113.134 96.2247 111.022L96.3516 108.306C96.4015 107.238 95.9731 106.204 95.183 105.485L93.1725 103.654C91.6092 102.23 91.6092 99.7701 93.1725 98.3462L95.183 96.5153C95.9731 95.7957 96.4015 94.7615 96.3516 93.6939L96.2247 90.9777C96.126 88.8654 97.8654 87.126 99.9777 87.2247L102.694 87.3516C103.761 87.4015 104.796 86.9731 105.515 86.183L107.346 84.1725Z" fill="#4E4E55"/>
</g>
<path d="M107.346 84.1725C108.77 82.6092 111.23 82.6092 112.654 84.1725L114.485 86.183C115.204 86.9731 116.238 87.4015 117.306 87.3516L120.022 87.2247C122.134 87.126 123.874 88.8654 123.775 90.9777L123.648 93.6939C123.598 94.7615 124.027 95.7957 124.817 96.5153L126.827 98.3462C128.391 99.7701 128.391 102.23 126.827 103.654L124.817 105.485C124.027 106.204 123.598 107.238 123.648 108.306L123.775 111.022C123.874 113.134 122.134 114.874 120.022 114.775L117.306 114.648C116.238 114.598 115.204 115.027 114.485 115.817L112.654 117.827C111.23 119.391 108.77 119.391 107.346 117.827L105.515 115.817C104.796 115.027 103.761 114.598 102.694 114.648L99.9777 114.775C97.8654 114.874 96.126 113.134 96.2247 111.022L96.3516 108.306C96.4015 107.238 95.9731 106.204 95.183 105.485L93.1725 103.654C91.6092 102.23 91.6092 99.7701 93.1725 98.3462L95.183 96.5153C95.9731 95.7957 96.4015 94.7615 96.3516 93.6939L96.2247 90.9777C96.126 88.8654 97.8654 87.126 99.9777 87.2247L102.694 87.3516C103.761 87.4015 104.796 86.9731 105.515 86.183L107.346 84.1725Z" fill="#00A3FF"/>
<path fill-rule="evenodd" clip-rule="evenodd" d="M117.258 97.4218C117.821 97.9841 117.821 98.8959 117.258 99.4582L110.778 105.938C110.216 106.501 109.304 106.501 108.742 105.938L104.422 101.618C103.859 101.056 103.859 100.144 104.422 99.5818C104.984 99.0194 105.896 99.0194 106.458 99.5818L109.76 102.884L115.222 97.4218C115.784 96.8594 116.696 96.8594 117.258 97.4218Z" fill="white"/>
<defs>
<filter id="filter0_d_1066_25423" x="14" y="13" width="120" height="120" filterUnits="userSpaceOnUse" color-interpolation-filters="sRGB">
<feFlood flood-opacity="0" result="BackgroundImageFix"/>
<feColorMatrix in="SourceAlpha" type="matrix" values="0 0 0 0 0 0 0 0 0 0 0 0 0 0 0 0 0 0 127 0" result="hardAlpha"/>
<feOffset/>
<feGaussianBlur stdDeviation="10"/>
<feComposite in2="hardAlpha" operator="out"/>
<feColorMatrix type="matrix" values="0 0 0 0 0 0 0 0 0 0.639216 0 0 0 0 1 0 0 0 1 0"/>
<feBlend mode="normal" in2="BackgroundImageFix" result="effect1_dropShadow_1066_25423"/>
<feBlend mode="normal" in="SourceGraphic" in2="effect1_dropShadow_1066_25423" result="shape"/>
</filter>
<filter id="filter1_d_1066_25423" x="72" y="63" width="76" height="76" filterUnits="userSpaceOnUse" color-interpolation-filters="sRGB">
<feFlood flood-opacity="0" result="BackgroundImageFix"/>
<feColorMatrix in="SourceAlpha" type="matrix" values="0 0 0 0 0 0 0 0 0 0 0 0 0 0 0 0 0 0 127 0" result="hardAlpha"/>
<feOffset/>
<feGaussianBlur stdDeviation="10"/>
<feComposite in2="hardAlpha" operator="out"/>
<feColorMatrix type="matrix" values="0 0 0 0 0 0 0 0 0 0.639216 0 0 0 0 1 0 0 0 1 0"/>
<feBlend mode="normal" in2="BackgroundImageFix" result="effect1_dropShadow_1066_25423"/>
<feBlend mode="normal" in="SourceGraphic" in2="effect1_dropShadow_1066_25423" result="shape"/>
</filter>
<clipPath id="clip0_1066_25423">
<rect width="14" height="28" fill="white" transform="translate(76 59.0001)"/>
</clipPath>
<clipPath id="clip1_1066_25423">
<rect width="14" height="28" fill="white" transform="translate(58 59)"/>
</clipPath>
</defs>
</svg>
