<svg width="158" height="136" viewBox="0 0 158 136" fill="none" xmlns="http://www.w3.org/2000/svg">
<g clip-path="url(#clip0_1066_25146)">
<path d="M79.8974 100.394C76.7332 103.869 71.267 103.869 68.1028 100.394L64.034 95.9267C62.4352 94.1708 60.1368 93.2188 57.7643 93.3297L51.7282 93.6118C47.0345 93.8312 43.1688 89.9657 43.3881 85.2718L43.6705 79.2357C43.7814 76.8634 42.8294 74.5651 41.0734 72.966L36.6059 68.8974C33.1314 65.7332 33.1314 60.267 36.6059 57.1028L41.0734 53.034C42.8294 51.4352 43.7814 49.1368 43.6705 46.7643L43.3881 40.7282C43.1688 36.0345 47.0345 32.1688 51.7282 32.3881L57.7643 32.6705C60.1368 32.7814 62.4352 31.8294 64.034 30.0734L68.1028 25.6059C71.267 22.1314 76.7332 22.1314 79.8974 25.6059L83.966 30.0734C85.5651 31.8294 87.8634 32.7814 90.2357 32.6705L96.2718 32.3881C100.966 32.1688 104.831 36.0345 104.612 40.7282L104.33 46.7643C104.219 49.1368 105.171 51.4352 106.927 53.034L111.394 57.1028C114.869 60.267 114.869 65.7332 111.394 68.8974L106.927 72.966C105.171 74.5651 104.219 76.8634 104.33 79.2357L104.612 85.2718C104.831 89.9657 100.966 93.8312 96.2718 93.6118L90.2357 93.3297C87.8634 93.2188 85.5651 94.1708 83.966 95.9267L79.8974 100.394Z" fill="black"/>
<path fill-rule="evenodd" clip-rule="evenodd" d="M81.376 101.741C77.4185 106.086 70.5817 106.086 66.6242 101.741L62.5554 97.2733C61.3576 95.9579 59.6355 95.2445 57.8577 95.3275L51.8216 95.6096C45.951 95.884 41.116 91.0494 41.3903 85.1783L41.6727 79.1423C41.7558 77.3649 41.0425 75.6429 39.7268 74.4448L35.2592 70.376C30.9136 66.4185 30.9136 59.5816 35.2592 55.6241L39.7268 51.5554C41.0423 50.3576 41.7558 48.6354 41.6727 46.8576L41.3903 40.8215C41.116 34.9509 45.9509 30.116 51.8217 30.3903L57.8577 30.6727C59.6355 30.7558 61.3574 30.0424 62.5552 28.7269L66.6241 24.2592C70.5817 19.9136 77.4185 19.9136 81.3761 24.2592L85.4448 28.7268C86.6428 30.0424 88.3649 30.7558 90.1423 30.6727L96.1785 30.3903C102.049 30.116 106.884 34.951 106.61 40.8216L106.328 46.8576C106.244 48.6355 106.958 50.3575 108.273 51.5553L112.741 55.6241C117.086 59.5816 117.086 66.4185 112.741 70.376L108.273 74.4447L106.927 72.966L111.394 68.8974C114.869 65.7332 114.869 60.267 111.394 57.1028L106.927 53.034C105.171 51.4352 104.219 49.1368 104.33 46.7643L104.612 40.7282C104.831 36.0345 100.966 32.1688 96.2719 32.3881L90.2357 32.6705C87.8634 32.7814 85.5651 31.8294 83.9661 30.0734L79.8974 25.6059C76.7332 22.1314 71.267 22.1314 68.1028 25.6059L64.0341 30.0734C62.4352 31.8294 60.1369 32.7814 57.7643 32.6705L51.7282 32.3881C47.0345 32.1688 43.1688 36.0345 43.3882 40.7282L43.6705 46.7643C43.7814 49.1368 42.8294 51.4352 41.0734 53.034L36.6059 57.1028C33.1314 60.267 33.1314 65.7332 36.6059 68.8974L41.0734 72.966C42.8294 74.5651 43.7814 76.8634 43.6705 79.2357L43.3882 85.2718C43.1688 89.9657 47.0345 93.8312 51.7282 93.6118L57.7643 93.3297C60.1368 93.2188 62.4352 94.1708 64.0341 95.9267L68.1028 100.394C71.267 103.869 76.7332 103.869 79.8974 100.394L83.9661 95.9267L85.4448 97.2733L81.376 101.741ZM90.2357 93.3297C87.8634 93.2188 85.5651 94.1708 83.9661 95.9267L85.4448 97.2733C86.6429 95.9577 88.3649 95.2445 90.1423 95.3275L90.2357 93.3297ZM90.2357 93.3297L90.1423 95.3275L96.1784 95.6096C102.049 95.884 106.884 91.0493 106.61 85.1785L106.328 79.1423C106.244 77.3649 106.958 75.6428 108.273 74.4447L106.927 72.966C105.171 74.5651 104.219 76.8634 104.33 79.2357L104.612 85.2718C104.831 89.9657 100.966 93.8312 96.2718 93.6118L90.2357 93.3297Z" fill="white"/>
<g clip-path="url(#clip1_1066_25146)">
<mask id="mask0_1066_25146" style="mask-type:alpha" maskUnits="userSpaceOnUse" x="76" y="49" width="14" height="29">
<path d="M90 64.4001C90 73.5001 86.866 77.0001 83 77.0001C79.134 77.0001 76 73.5001 76 64.4001C76 55.3001 77.4 49.0001 83 49.0001C88.6 49.0001 90 55.3001 90 64.4001Z" fill="white"/>
</mask>
<g mask="url(#mask0_1066_25146)">
<path d="M90 64.4001C90 73.5001 86.866 77.0001 83 77.0001C79.134 77.0001 76 73.5001 76 64.4001C76 55.3001 77.4 49.0001 83 49.0001C88.6 49.0001 90 55.3001 90 64.4001Z" fill="white"/>
<path d="M83 59.0001C83 62.8661 82.3 66.0001 79.5 66.0001C76.7 66.0001 76 62.8661 76 59.0001C76 55.1341 76.7 52.0001 79.5 52.0001C82.3 52.0001 83 55.1341 83 59.0001Z" fill="black"/>
</g>
</g>
<g clip-path="url(#clip2_1066_25146)">
<mask id="mask1_1066_25146" style="mask-type:alpha" maskUnits="userSpaceOnUse" x="58" y="49" width="14" height="28">
<path d="M72 64.4C72 73.5 68.866 77 65 77C61.134 77 58 73.5 58 64.4C58 55.3 59.4 49 65 49C70.6 49 72 55.3 72 64.4Z" fill="white"/>
</mask>
<g mask="url(#mask1_1066_25146)">
<path d="M72 64.4C72 73.5 68.866 77 65 77C61.134 77 58 73.5 58 64.4C58 55.3 59.4 49 65 49C70.6 49 72 55.3 72 64.4Z" fill="white"/>
<path d="M65 59C65 62.866 64.3 66 61.5 66C58.7 66 58 62.866 58 59C58 55.134 58.7 52 61.5 52C64.3 52 65 55.134 65 59Z" fill="black"/>
</g>
</g>
<g clip-path="url(#clip3_1066_25146)">
<path d="M107.346 74.1725C108.77 72.6092 111.23 72.6092 112.654 74.1725L114.485 76.183C115.204 76.9731 116.238 77.4015 117.306 77.3516L120.022 77.2247C122.134 77.126 123.874 78.8654 123.775 80.9777L123.648 83.6939C123.598 84.7615 124.027 85.7957 124.817 86.5153L126.827 88.3462C128.391 89.7701 128.391 92.2299 126.827 93.6538L124.817 95.4847C124.027 96.2042 123.598 97.2384 123.648 98.3061L123.775 101.022C123.874 103.134 122.134 104.874 120.022 104.775L117.306 104.648C116.238 104.598 115.204 105.027 114.485 105.817L112.654 107.827C111.23 109.391 108.77 109.391 107.346 107.827L105.515 105.817C104.796 105.027 103.761 104.598 102.694 104.648L99.9777 104.775C97.8654 104.874 96.126 103.134 96.2247 101.022L96.3516 98.3061C96.4015 97.2384 95.9731 96.2042 95.183 95.4847L93.1725 93.6538C91.6092 92.2299 91.6092 89.7701 93.1725 88.3462L95.183 86.5153C95.9731 85.7957 96.4015 84.7615 96.3516 83.6939L96.2247 80.9777C96.126 78.8654 97.8654 77.126 99.9777 77.2247L102.694 77.3516C103.761 77.4015 104.796 76.9731 105.515 76.183L107.346 74.1725Z" fill="#00A3FF"/>
<path fill-rule="evenodd" clip-rule="evenodd" d="M117.258 87.4218C117.821 87.9841 117.821 88.8959 117.258 89.4582L110.778 95.9382C110.216 96.5006 109.304 96.5006 108.742 95.9382L104.422 91.6182C103.859 91.0559 103.859 90.1441 104.422 89.5818C104.984 89.0194 105.896 89.0194 106.458 89.5818L109.76 92.8835L115.222 87.4218C115.784 86.8594 116.696 86.8594 117.258 87.4218Z" fill="white"/>
</g>
</g>
<defs>
<clipPath id="clip0_1066_25146">
<rect width="96" height="88" fill="white" transform="translate(32 21)"/>
</clipPath>
<clipPath id="clip1_1066_25146">
<rect width="14" height="28" fill="white" transform="translate(76 49.0001)"/>
</clipPath>
<clipPath id="clip2_1066_25146">
<rect width="14" height="28" fill="white" transform="translate(58 49)"/>
</clipPath>
<clipPath id="clip3_1066_25146">
<rect width="36" height="36" fill="white" transform="translate(92 73)"/>
</clipPath>
</defs>
</svg>
