<svg width="32" height="32" viewBox="0 0 32 32" fill="none" xmlns="http://www.w3.org/2000/svg">
<path d="M26.1629 15.8159L27.2417 14.5494L26.7726 14.2055L27.5231 13.5175L26.9446 13.0797L27.6951 12.5168L27.2104 12.1416L27.9922 8.32656L26.8039 4.79297M26.8039 4.79297L19.1739 7.62297H12.8104L5.18046 4.79297L3.99219 8.32656L4.78958 12.1416L4.28926 12.5168L5.05538 13.0797L4.47688 13.5175L5.22737 14.2055L4.75831 14.5494L5.83714 15.8159L4.19544 20.8818L5.71206 26.0571L11.0437 24.5874L12.0756 25.4317L14.1863 26.8701H17.7981L19.9088 25.4317L20.9407 24.5874L26.288 26.0571L27.8202 20.8818L26.1629 15.8159" fill="#F5841F"/>
<path d="M26.803 4.79297L17.4375 11.6882L19.173 7.62297L26.803 4.79297Z" fill="#E27625"/>
<path d="M5.17969 4.79297L14.467 11.7507L12.8097 7.62297L5.17969 4.79297Z" fill="#E27625"/>
<path d="M23.443 20.7881L20.9414 24.5718L26.2886 26.0416L27.8209 20.8663L23.443 20.7881Z" fill="#E27625"/>
<path d="M4.19556 20.8663L5.71217 26.0416L11.0438 24.5718L8.55777 20.7881L4.19556 20.8663Z" fill="#E27625"/>
<path d="M10.7627 14.3776L9.27734 16.6135L14.562 16.848L14.39 11.188L10.7627 14.3776Z" fill="#E27625"/>
<path d="M21.2368 14.3772L17.5469 11.125L17.4375 16.8475L22.7222 16.613L21.2368 14.3772Z" fill="#E27625"/>
<path d="M11.043 24.5718L14.2482 23.0395L11.4808 20.9131L11.043 24.5718Z" fill="#E27625"/>
<path d="M17.752 23.0395L20.9415 24.5718L20.5037 20.9131L17.752 23.0395Z" fill="#E27625"/>
<path d="M20.9415 24.5718L17.752 23.0396L18.0178 25.1034L17.9865 25.979L20.9415 24.5718Z" fill="#D7C1B3"/>
<path d="M11.043 24.5718L14.0137 25.979L13.998 25.1034L14.2482 23.0396L11.043 24.5718Z" fill="#D7C1B3"/>
<path d="M14.0603 19.5372L11.418 18.7711L13.2942 17.9111L14.0603 19.5372Z" fill="#2F343B"/>
<path d="M17.9238 19.5372L18.7056 17.9111L20.5818 18.7711L17.9238 19.5372Z" fill="#2F343B"/>
<path d="M11.0446 24.5718L11.5136 20.7881L8.55859 20.8663L11.0446 24.5718Z" fill="#CC6228"/>
<path d="M20.4883 20.7881L20.9417 24.5718L23.4433 20.8663L20.4883 20.7881Z" fill="#CC6228"/>
<path d="M22.7222 16.6133L17.4375 16.8478L17.9222 19.5371L18.7039 17.911L20.5802 18.771L22.7222 16.6133Z" fill="#CC6228"/>
<path d="M11.4194 18.771L13.2956 17.911L14.0617 19.5371L14.562 16.8478L9.27734 16.6133L11.4194 18.771Z" fill="#CC6228"/>
<path d="M9.27734 16.6133L11.4819 20.913L11.4194 18.771L9.27734 16.6133Z" fill="#E27625"/>
<path d="M20.5821 18.771L20.5039 20.913L22.7241 16.6133L20.5821 18.771Z" fill="#E27625"/>
<path d="M14.5609 16.8477L14.0605 19.5369L14.686 22.7266L14.8267 18.5363L14.5609 16.8477Z" fill="#E27625"/>
<path d="M17.4377 16.8477L17.1719 18.5206L17.297 22.7266L17.9224 19.5369L17.4377 16.8477Z" fill="#E27625"/>
<path d="M17.9223 19.5371L17.2969 22.7267L17.7503 23.0395L20.5021 20.913L20.5803 18.771L17.9223 19.5371Z" fill="#F5841F"/>
<path d="M11.418 18.771L11.4805 20.913L14.2479 23.0395L14.6857 22.7267L14.0603 19.5371L11.418 18.771Z" fill="#F5841F"/>
<path d="M17.985 25.979L18.0163 25.1034L17.7661 24.9001H14.2169L13.998 25.1034L14.0137 25.979L11.043 24.5718L12.0749 25.4161L14.1856 26.8702H17.7974L19.9081 25.4161L20.94 24.5718L17.985 25.979Z" fill="#C0AD9E"/>
<path d="M17.7505 23.0393L17.2971 22.7266H14.686L14.2482 23.0393L13.998 25.1031L14.2169 24.8999H17.7661L18.0163 25.1031L17.7505 23.0393Z" fill="#2F343B"/>
<path d="M27.2112 12.1416L27.993 8.32656L26.8047 4.79297L17.752 11.4536L21.2386 14.3775L26.1637 15.8159L27.2425 14.5494L26.7735 14.2055L27.5239 13.5331L26.9454 13.0797L27.6959 12.5168L27.2112 12.1416Z" fill="#763E1A"/>
<path d="M3.99219 8.32656L4.78958 12.1416L4.28926 12.5168L5.03974 13.0954L4.46124 13.5331L5.21173 14.2055L4.74268 14.5494L5.83714 15.8159L10.7622 14.3775L14.2489 11.4536L5.18046 4.79297L3.99219 8.32656Z" fill="#763E1A"/>
<path d="M26.1638 15.8159L21.2388 14.3774L22.7241 16.6133L20.5039 20.913L23.4433 20.8661H27.8212L26.1638 15.8159Z" fill="#F5841F"/>
<path d="M10.7623 14.3774L5.83725 15.8159L4.19556 20.8661H8.55777L11.4815 20.913L9.27699 16.6133L10.7623 14.3774Z" fill="#F5841F"/>
<path d="M17.4386 16.8479L17.7513 11.4537L19.1741 7.62305H12.8105L14.249 11.4537L14.5617 16.8479L14.6868 18.5365V22.7268H17.2978L17.3135 18.5365L17.4386 16.8479Z" fill="#F5841F"/>
</svg>
