<svg data-v-ea7ca29c="" width="49" height="12" fill="none" xmlns="http://www.w3.org/2000/svg"><path d="M10.1 4.8V3.7l-.1-.1v-.2h-.1v-.2L9.7 3l-.1-.1v-.2h-.1v-.2h-.1l-.1-.2-.1-.2h-.1V2L9 1.7l-.2-.2-.1-.1v-.1l-.2-.1-.2-.1V1H8V1L8 .8a5.2 5.2 0 0 0-7 1l-.1.3H.7v.1l-.1.1v.1l-.1.1-.1.2-.1.2a4.9 4.9 0 0 0 0 4l1 2 .8 2c.1.3.4.5.6.7.3.2.6.3 1 .3.3 0 .6 0 .9-.3l.6-.6.6-1.4h.4l.2-.1h.1a5 5 0 0 0 2.5-1.7c.6-.8 1-1.7 1-2.7v-.3ZM8.4 5v.2A3.3 3.3 0 0 1 6 7.9h-.2V8H4.7l-.3.6-.5 1-.2.6-.3-.7-1-2c-.2-.7-.6-1.3-.7-2A3 3 0 0 1 2 3.7v-.1l.1-.2v-.1h.1v-.1h.1l.1-.2c.5-.7 1.3-1.1 2.1-1.3.9 0 1.7 0 2.4.6h.2v.1h.1v.1h.1v.1h.1l.1.1.1.1.1.2h.1v.2H8v.1l.1.1v.2h.1v.1l.1.2V4.2h.1V5Z" fill="#CFD4DD"></path><path d="m4.8 3.7-.6.3-.4.6v.7l.5.6a1.3 1.3 0 0 0 1.5 0c.2 0 .3-.3.4-.5.1-.2.2-.5.1-.7 0-.3-.2-.6-.5-.8-.3-.2-.6-.3-1-.2ZM41.2 2.7h-1.8v6.7h1.8V2.7ZM40.3 0a1 1 0 0 0-.6.2 1 1 0 0 0-.4.4 1 1 0 0 0 .3 1.1 1 1 0 0 0 1.6-.1l.2-.6a1 1 0 0 0-.4-.7 1 1 0 0 0-.7-.3ZM34.9 2.5c-1 0-1.8.3-2.4.9A3.5 3.5 0 0 0 31.3 6v6H33V9c.5.4 1.1.6 1.8.6a3.6 3.6 0 1 0 0-7.1Zm0 5.4A1.8 1.8 0 0 1 33 5.8c.1-1 .9-1.6 1.8-1.6 1 0 1.8.8 1.8 1.8S36 8 35 8ZM49 5.7v-.2a3 3 0 0 0-.7-1.8c-.3-.5-.9-.8-1.5-1l-.2-.1h-.2a4.2 4.2 0 0 0-.5-.1h-.3l-.8.1h-.1l-.2.1c-.6.3-1 .6-1.4 1a3 3 0 0 0-.6 1.6V9.4h1.8V5.6c0-.3.1-.7.4-1 .2-.2.6-.3 1-.4.3 0 .7.1 1 .3a1.4 1.4 0 0 1 .5 1.2v3.7H49V5.7ZM21.1 2.7V3l-.1.1v.3L20 7l-.4-1-.2-.7-.6-1.8a1 1 0 0 0-.2-.4 1 1 0 0 0-.7-.3H17.6a1 1 0 0 0-.7.4 1 1 0 0 0-.2.4v.1l-.1.3-.4 1-.6 2.1-.3-1-.8-3v-.4h-2L13.8 7l.5 1.8.2.3a1.2 1.2 0 0 0 1 .5h.2c.3 0 .4 0 .6-.2l.4-.5.2-.6.3-1 .5-1.6 1.1 3.1a1.1 1.1 0 0 0 .9.8h.3c.3 0 .6 0 .8-.2l.3-.5.1-.2 1-3.4.8-2.4v-.1H21ZM26.8 8c-.4-.1-.8-.2-1-.4-.4-.3-.6-.6-.7-1h5.2V6a3.5 3.5 0 0 0-3.5-3.4c-2 0-3.6 1.6-3.6 3.5 0 2 1.6 3.6 3.6 3.6a3.5 3.5 0 0 0 3.4-2.3h-2a1.8 1.8 0 0 1-1.4.6Zm0-3.8c.4 0 .7.1 1 .3.4.2.6.5.7.9h-3.4c.1-.4.3-.7.6-.9.3-.2.7-.3 1-.3Z" fill="#CFD4DD"></path></svg>