<svg width="20" height="21" viewBox="0 0 20 21" fill="none" xmlns="http://www.w3.org/2000/svg">
<path d="M8.89425 3.48856C9.48753 2.83715 10.5124 2.83715 11.1057 3.48856L11.8686 4.32625C12.1684 4.65547 12.5993 4.83397 13.0442 4.81318L14.176 4.76029C15.056 4.71915 15.7809 5.44392 15.7397 6.32404L15.6868 7.45581C15.666 7.90061 15.8445 8.33154 16.1737 8.63137L17.0114 9.39425C17.6629 9.98753 17.6629 11.0124 17.0114 11.6057L16.1737 12.3686C15.8445 12.6684 15.666 13.0993 15.6868 13.5442L15.7397 14.676C15.7809 15.556 15.056 16.2809 14.176 16.2397L13.0442 16.1868C12.5993 16.166 12.1684 16.3445 11.8686 16.6737L11.1057 17.5114C10.5124 18.1629 9.48753 18.1629 8.89425 17.5114L8.13137 16.6737C7.83154 16.3445 7.40061 16.166 6.95581 16.1868L5.82403 16.2397C4.94392 16.2809 4.21915 15.556 4.26029 14.676L4.31318 13.5442C4.33397 13.0993 4.15547 12.6684 3.82625 12.3686L2.98856 11.6057C2.33715 11.0124 2.33715 9.98753 2.98856 9.39425L3.82625 8.63137C4.15547 8.33154 4.33397 7.90061 4.31318 7.45581L4.26029 6.32403C4.21915 5.44392 4.94392 4.71915 5.82404 4.76029L6.95581 4.81318C7.40061 4.83397 7.83154 4.65547 8.13137 4.32625L8.89425 3.48856Z" fill="#00A3FF"/>
<path fill-rule="evenodd" clip-rule="evenodd" d="M12.7376 8.91304C12.972 9.14736 12.972 9.52725 12.7376 9.76157L10.0376 12.4616C9.80333 12.6959 9.42343 12.6959 9.18912 12.4616L7.38911 10.6616C7.1548 10.4273 7.1548 10.0474 7.38911 9.81304C7.62343 9.57873 8.00333 9.57873 8.23764 9.81304L9.61338 11.1888L11.8891 8.91304C12.1234 8.67873 12.5033 8.67873 12.7376 8.91304Z" fill="white"/>
</svg>
