<svg width="46" height="46" viewBox="0 0 46 46" fill="none" xmlns="http://www.w3.org/2000/svg" xmlns:xlink="http://www.w3.org/1999/xlink">
<path d="M20,46L34,46C40.627,46 46,40.627 46,34L46,10C46,5.582 42.418,2 38,2L36,2C40.418,2 44,5.582 44,10L44,22C44,35.255 33.255,46 20,46Z" clip-rule="evenodd" fill-rule="evenodd" fill="#FFFFFF" fill-opacity="0.7"/>
<path d="M16,2L16,1C16,0.448 15.553,0 15,0C14.448,0 14,0.448 14,1L14,2L12,2C7.582,2 4,5.577 4,9.996L4,29C4,34.208 2.305,39.84 1.122,43.137C0.633,44.499 1.631,46 3.078,46L20,46C33.255,46 44,35.255 44,22L44,10C44,5.582 40.419,2 36,2L32,2L32,1C32,0.448 31.553,0 31,0C30.448,0 30,0.448 30,1L30,2L24,2L24,1C24,0.448 23.553,0 23,0C22.448,0 22,0.448 22,1L22,2L16,2ZM22,2L22,5C22,5.552 22.448,6 23,6C23.553,6 24,5.552 24,5L24,2L22,2ZM30,2L30,5C30,5.552 30.448,6 31,6C31.553,6 32,5.552 32,5L32,2L30,2ZM16,2L16,5C16,5.552 15.553,6 15,6C14.448,6 14,5.552 14,5L14,2L16,2Z" clip-rule="evenodd" fill-rule="evenodd" fill="#FFFFFF"/>
<path d="M20.526,14.651C21.317,13.783 22.683,13.783 23.474,14.651L24.491,15.768C24.891,16.207 25.466,16.445 26.059,16.418L27.568,16.347C28.741,16.292 29.708,17.259 29.653,18.432L29.582,19.941C29.555,20.534 29.793,21.109 30.232,21.508L31.349,22.526C32.217,23.317 32.217,24.683 31.349,25.474L30.232,26.491C29.793,26.891 29.555,27.466 29.582,28.059L29.653,29.568C29.708,30.741 28.741,31.708 27.568,31.653L26.059,31.582C25.466,31.555 24.891,31.793 24.491,32.232L23.474,33.349C22.683,34.217 21.317,34.217 20.526,33.349L19.508,32.232C19.109,31.793 18.534,31.555 17.941,31.582L16.432,31.653C15.259,31.708 14.292,30.741 14.347,29.568L14.418,28.059C14.445,27.466 14.207,26.891 13.768,26.491L12.651,25.474C11.783,24.683 11.783,23.317 12.651,22.526L13.768,21.508C14.207,21.109 14.445,20.534 14.418,19.941L14.347,18.432C14.292,17.259 15.259,16.292 16.432,16.347L17.941,16.418C18.534,16.445 19.109,16.207 19.508,15.768L20.526,14.651Z" fill="#18181B"/>
<path d="M19.373,22.626C18.983,22.236 18.349,22.236 17.959,22.626C17.568,23.017 17.568,23.65 17.959,24.04L19.373,22.626ZM21.333,26L20.626,26.707C20.813,26.895 21.067,27 21.333,27C21.598,27 21.852,26.895 22.04,26.707L21.333,26ZM26.04,22.707C26.43,22.317 26.43,21.683 26.04,21.293C25.649,20.902 25.016,20.902 24.626,21.293L26.04,22.707ZM17.959,24.04L20.626,26.707L22.04,25.293L19.373,22.626L17.959,24.04ZM22.04,26.707L26.04,22.707L24.626,21.293L20.626,25.293L22.04,26.707Z" fill="#FFFFFF"/>
</svg>
