<svg width="32" height="32" viewBox="0 0 32 32" fill="none" xmlns="http://www.w3.org/2000/svg">
<g opacity="0.5">
<path d="M7.0516 20.859C7.40897 20.4666 8.02633 20.4666 8.3837 20.859L8.84323 21.3636C9.0238 21.5619 9.28338 21.6694 9.55134 21.6569L10.2331 21.625C10.7632 21.6002 11.1998 22.0368 11.175 22.5669L11.1431 23.2487C11.1306 23.5166 11.2381 23.7762 11.4364 23.9568L11.941 24.4163C12.3334 24.7737 12.3334 25.391 11.941 25.7484L11.4364 26.2079C11.2381 26.3885 11.1306 26.6481 11.1431 26.916L11.175 27.5977C11.1998 28.1279 10.7632 28.5645 10.2331 28.5397L9.55134 28.5078C9.28338 28.4953 9.0238 28.6028 8.84323 28.8011L8.3837 29.3057C8.02633 29.6981 7.40897 29.6981 7.0516 29.3057L6.59208 28.8011C6.41148 28.6028 6.15191 28.4953 5.88398 28.5078L5.20225 28.5397C4.67212 28.5645 4.23555 28.1279 4.26033 27.5977L4.29219 26.916C4.30471 26.6481 4.19719 26.3885 3.99888 26.2079L3.4943 25.7484C3.10192 25.391 3.10192 24.7737 3.4943 24.4163L3.99888 23.9568C4.19719 23.7762 4.30471 23.5166 4.29219 23.2487L4.26033 22.5669C4.23555 22.0368 4.67212 21.6002 5.20226 21.625L5.88398 21.6569C6.15191 21.6694 6.41148 21.5619 6.59208 21.3636L7.0516 20.859Z" fill="white"/>
<path d="M21.7757 16.3413C22.1331 15.949 22.7505 15.949 23.1078 16.3413L23.5673 16.8459C23.7479 17.0442 24.0075 17.1518 24.2755 17.1392L24.9572 17.1074C25.4873 17.0826 25.9239 17.5192 25.8991 18.0493L25.8672 18.731C25.8547 18.999 25.9622 19.2585 26.1605 19.4391L26.6651 19.8987C27.0575 20.256 27.0575 20.8734 26.6651 21.2307L26.1605 21.6903C25.9622 21.8708 25.8547 22.1304 25.8672 22.3984L25.8991 23.0801C25.9239 23.6102 25.4873 24.0468 24.9572 24.022L24.2755 23.9902C24.0075 23.9776 23.7479 24.0851 23.5673 24.2835L23.1078 24.788C22.7505 25.1805 22.1331 25.1805 21.7757 24.788L21.3162 24.2835C21.1356 24.0851 20.876 23.9776 20.6081 23.9902L19.9264 24.022C19.3962 24.0468 18.9597 23.6102 18.9844 23.0801L19.0163 22.3984C19.0288 22.1304 18.9213 21.8708 18.723 21.6903L18.2184 21.2307C17.826 20.8734 17.826 20.256 18.2184 19.8987L18.723 19.4391C18.9213 19.2585 19.0288 18.999 19.0163 18.731L18.9844 18.0493C18.9597 17.5192 19.3962 17.0826 19.9264 17.1074L20.6081 17.1392C20.876 17.1518 21.1356 17.0442 21.3162 16.8459L21.7757 16.3413Z" fill="white"/>
<path d="M25.4537 20.5647V4L10.7295 8.51765L10.7295 25.0824" stroke="white" stroke-width="1.6" stroke-linejoin="round"/>
<path d="M25.4537 9.35425L10.7295 13.8719" stroke="white" stroke-width="1.6" stroke-linejoin="round"/>
</g>
</svg>
