<svg width="32" height="32" viewBox="0 0 32 32" fill="none" xmlns="http://www.w3.org/2000/svg">
<path fill-rule="evenodd" clip-rule="evenodd" d="M4.7998 9.60001C4.7998 7.39087 6.59067 5.60001 8.7998 5.60001H23.1998C25.4089 5.60001 27.1998 7.39087 27.1998 9.60001V17.8909C27.1998 20.1 25.4089 21.8909 23.1998 21.8909H18.0362V28L13.9635 21.8909H8.7998C6.59066 21.8909 4.7998 20.1001 4.7998 17.8909V9.60001ZM12.4361 13.7455C12.4361 14.589 11.7523 15.2727 10.9088 15.2727C10.0653 15.2727 9.38152 14.589 9.38152 13.7455C9.38152 12.902 10.0653 12.2182 10.9088 12.2182C11.7523 12.2182 12.4361 12.902 12.4361 13.7455ZM17.527 13.7455C17.527 14.589 16.8432 15.2727 15.9997 15.2727C15.1562 15.2727 14.4724 14.589 14.4724 13.7455C14.4724 12.902 15.1562 12.2182 15.9997 12.2182C16.8432 12.2182 17.527 12.902 17.527 13.7455ZM21.0906 15.2727C21.9341 15.2727 22.6179 14.589 22.6179 13.7455C22.6179 12.902 21.9341 12.2182 21.0906 12.2182C20.2471 12.2182 19.5633 12.902 19.5633 13.7455C19.5633 14.589 20.2471 15.2727 21.0906 15.2727Z" fill="white"/>
</svg>
