<svg width="120" height="120" viewBox="0 0 120 120" fill="none" xmlns="http://www.w3.org/2000/svg" xmlns:xlink="http://www.w3.org/1999/xlink">
<path d="M64.794,60.631C65.451,60.631 65.983,60.365 65.983,60.036C65.983,59.708 65.451,59.442 64.794,59.442C64.138,59.442 63.606,59.708 63.606,60.036C63.606,60.365 64.138,60.631 64.794,60.631Z" transform="rotate(-328 64.794 60.036)" fill="#66FFB2"/>
<path d="M64.728,61.353C64.962,61.06 64.915,60.633 64.622,60.399C64.329,60.164 63.902,60.212 63.668,60.505L64.728,61.353ZM61.29,63.477C61.056,63.77 61.103,64.197 61.396,64.431C61.689,64.665 62.116,64.618 62.35,64.325L61.29,63.477ZM63.668,60.505L61.29,63.477L62.35,64.325L64.728,61.353L63.668,60.505Z" fill="#ABFF66"/>
<path d="M61.228,66.575C62.049,66.575 62.714,66.309 62.714,65.981C62.714,65.653 62.049,65.386 61.228,65.386C60.408,65.386 59.742,65.653 59.742,65.981C59.742,66.309 60.408,66.575 61.228,66.575Z" transform="rotate(12 61.228 65.981)" fill="#66FFAD"/>
<rect  x="56.172" y="64.793" width="0.594" height="0.297" fill="#FF66FA"/>
<path d="M53.203,62.712C53.531,62.712 53.797,62.579 53.797,62.415C53.797,62.251 53.531,62.118 53.203,62.118C52.875,62.118 52.609,62.251 52.609,62.415C52.609,62.579 52.875,62.712 53.203,62.712Z" transform="rotate(-248 53.203 62.415)" fill="#F5FF66"/>
<path d="M52.31,58.255C52.638,58.255 52.904,58.122 52.904,57.957C52.904,57.793 52.638,57.66 52.31,57.66C51.981,57.66 51.715,57.793 51.715,57.957C51.715,58.122 51.981,58.255 52.31,58.255Z" transform="rotate(32 52.31 57.957)" fill="#8066FF"/>
<path d="M55.28,54.687C55.937,54.687 56.469,54.421 56.469,54.093C56.469,53.765 55.937,53.499 55.28,53.499C54.623,53.499 54.091,53.765 54.091,54.093C54.091,54.421 54.623,54.687 55.28,54.687Z" transform="rotate(158 55.28 54.093)" fill="#FF8F66"/>
<path d="M60.036,52.904C60.529,52.904 60.928,52.504 60.928,52.012C60.928,51.52 60.529,51.12 60.036,51.12C59.544,51.12 59.145,51.52 59.145,52.012C59.145,52.504 59.544,52.904 60.036,52.904Z" transform="rotate(286 60.036 52.012)" fill="#E066FF"/>
<path d="M65.159,51.565C65.241,51.199 65.01,50.837 64.644,50.755C64.278,50.674 63.915,50.905 63.834,51.271L65.159,51.565ZM63.24,53.946C63.158,54.312 63.389,54.674 63.755,54.756C64.121,54.837 64.484,54.606 64.565,54.24L63.24,53.946ZM63.834,51.271L63.24,53.946L64.565,54.24L65.159,51.565L63.834,51.271Z" fill="#FF6669"/>
<path d="M66.866,56.963C66.329,56.44 65.469,56.451 64.946,56.988C64.422,57.524 64.433,58.384 64.97,58.907L66.866,56.963ZM67.645,57.553L68.905,58.058L69.002,57.815L69.002,57.553L67.645,57.553ZM68.283,58.019C68.868,58.488 69.723,58.393 70.191,57.807C70.659,57.222 70.565,56.367 69.979,55.899L68.283,58.019ZM64.97,58.907C65.422,59.348 66.214,59.938 67.209,59.718C68.193,59.5 68.671,58.642 68.905,58.058L66.384,57.049C66.319,57.212 66.278,57.257 66.289,57.244C66.309,57.221 66.417,57.112 66.623,57.066C66.831,57.02 66.979,57.074 67.015,57.091C67.039,57.101 66.988,57.082 66.866,56.963L64.97,58.907ZM69.002,57.553C69.002,57.328 69.029,57.269 69.016,57.304C68.999,57.352 68.88,57.63 68.52,57.774C68.359,57.839 68.214,57.846 68.117,57.839C68.07,57.835 68.034,57.828 68.012,57.822C67.99,57.816 67.978,57.811 67.976,57.811C67.976,57.811 68.003,57.822 68.06,57.858C68.116,57.893 68.19,57.945 68.283,58.019L69.979,55.899C69.68,55.66 69.345,55.434 68.985,55.29C68.634,55.149 68.089,55.021 67.512,55.252C66.905,55.495 66.6,55.996 66.459,56.391C66.323,56.773 66.287,57.184 66.287,57.553L69.002,57.553Z" fill="#D6FF66"/>
<path d="M66.454,66.624C66.645,67.349 67.388,67.782 68.113,67.591C68.838,67.401 69.271,66.658 69.08,65.933L66.454,66.624ZM67.594,60.286C67.403,59.561 66.661,59.127 65.936,59.318C65.211,59.509 64.777,60.252 64.968,60.977L67.594,60.286ZM69.08,65.933L67.594,60.286L64.968,60.977L66.454,66.624L69.08,65.933Z" fill="#FFE366"/>
<path d="M63.89,66.631C64.26,66.567 64.507,66.216 64.444,65.846C64.38,65.477 64.029,65.229 63.659,65.293L63.89,66.631ZM61.584,69.464C61.213,69.517 60.955,69.861 61.008,70.232C61.061,70.603 61.405,70.861 61.776,70.808L61.584,69.464ZM63.659,65.293C62.974,65.411 62.313,65.708 62.026,66.371C61.752,67.004 61.938,67.713 62.261,68.359L63.476,67.752C63.204,67.209 63.244,66.975 63.272,66.91C63.288,66.875 63.377,66.72 63.89,66.631L63.659,65.293ZM62.261,68.359C62.525,68.887 62.454,69.084 62.428,69.131C62.391,69.195 62.22,69.373 61.584,69.464L61.776,70.808C62.526,70.701 63.247,70.433 63.607,69.804C63.976,69.157 63.806,68.413 63.476,67.752L62.261,68.359Z" fill="#FFE666"/>
<path d="M58.337,72.274C58.38,72.647 58.717,72.914 59.09,72.871C59.462,72.828 59.729,72.491 59.686,72.119L58.337,72.274ZM56.03,68.945L55.866,69.604L55.883,69.608L56.03,68.945ZM54.03,65.601C53.989,65.228 53.653,64.96 53.281,65.001C52.908,65.042 52.639,65.378 52.681,65.751L54.03,65.601ZM59.686,72.119C59.571,71.122 59.226,70.265 58.614,69.596C58.002,68.929 57.172,68.503 56.178,68.282L55.883,69.608C56.672,69.783 57.231,70.097 57.613,70.514C57.994,70.93 58.248,71.5 58.337,72.274L59.686,72.119ZM56.195,68.287C55.521,68.118 55.037,67.815 54.698,67.401C54.355,66.982 54.119,66.398 54.03,65.601L52.681,65.751C52.79,66.737 53.099,67.59 53.647,68.26C54.2,68.936 54.955,69.376 55.866,69.604L56.195,68.287Z" fill="#BAFF66"/>
<path d="M50.823,65.981C51.151,65.981 51.417,65.848 51.417,65.684C51.417,65.519 51.151,65.386 50.823,65.386C50.494,65.386 50.228,65.519 50.228,65.684C50.228,65.848 50.494,65.981 50.823,65.981Z" transform="rotate(-288 50.823 65.684)" fill="#BDFF66"/>
<rect  x="47.852" y="58.551" width="0.297" height="1.486" fill="#FFCC66"/>
<path d="M51.118,52.012L50.227,52.607L50.524,51.418L51.118,52.012Z" fill="#FFF766"/>
<path d="M56.77,47.554L57.067,47.257L57.067,47.554L56.77,47.554Z" fill="#FFBF66"/>
<path d="M65.086,48.445L65.383,48.743L64.789,48.743L65.086,48.445Z" fill="#6680FF"/>
<path d="M71.333,54.39L71.035,54.984L70.738,54.39L71.333,54.39Z" fill="#FFA166"/>
<path d="M72.224,63.901L71.927,64.199L71.035,63.01L71.332,63.01L72.224,63.901Z" fill="#66FFED"/>
<path d="M63.889,70.116C63.218,70.451 62.946,71.267 63.282,71.938C63.617,72.608 64.433,72.88 65.103,72.545L63.889,70.116ZM69.264,70.464C69.935,70.129 70.207,69.313 69.871,68.643C69.536,67.972 68.721,67.7 68.05,68.036L69.264,70.464ZM65.103,72.545L69.264,70.464L68.05,68.036L63.889,70.116L65.103,72.545Z" fill="#B366FF"/>
<path d="M56.129,75.187C55.501,75.597 55.324,76.439 55.734,77.067C56.145,77.694 56.986,77.871 57.614,77.461L56.129,75.187ZM57.89,72.996L59.138,72.461L59.089,72.346L59.02,72.242L57.89,72.996ZM59.455,71.202C60.106,70.83 60.332,70.001 59.96,69.35C59.588,68.699 58.759,68.473 58.108,68.845L59.455,71.202ZM57.614,77.461C58.433,76.926 59.091,76.208 59.379,75.265C59.668,74.321 59.523,73.359 59.138,72.461L56.642,73.53C56.851,74.019 56.833,74.305 56.783,74.471C56.732,74.638 56.583,74.89 56.129,75.187L57.614,77.461ZM59.02,72.242C58.889,72.046 58.84,71.913 58.824,71.84C58.809,71.777 58.817,71.756 58.819,71.751C58.825,71.731 58.904,71.517 59.455,71.202L58.108,68.845C57.272,69.322 56.509,70 56.218,70.971C55.913,71.986 56.23,72.953 56.76,73.749L59.02,72.242Z" fill="#FF66DB"/>
<path d="M48.254,67.827C48.356,67.467 48.146,67.091 47.786,66.989C47.425,66.887 47.05,67.097 46.948,67.458L48.254,67.827ZM48.857,69.804L48.745,70.474L48.761,70.477L48.857,69.804ZM49.699,71.67C49.58,72.026 49.772,72.41 50.128,72.529C50.484,72.648 50.868,72.455 50.987,72.1L49.699,71.67ZM46.948,67.458C46.749,68.161 46.722,68.868 47.064,69.456C47.414,70.059 48.043,70.357 48.745,70.474L48.968,69.135C48.481,69.054 48.307,68.893 48.238,68.774C48.161,68.642 48.101,68.367 48.254,67.827L46.948,67.458ZM48.761,70.477C49.384,70.566 49.628,70.745 49.716,70.868C49.786,70.966 49.862,71.18 49.699,71.67L50.987,72.1C51.22,71.401 51.246,70.674 50.821,70.079C50.413,69.508 49.717,69.242 48.953,69.132L48.761,70.477Z" fill="#F7FF66"/>
<path d="M46.374,61.052C46.934,60.554 46.985,59.696 46.487,59.135C45.988,58.575 45.13,58.524 44.57,59.022L46.374,61.052ZM41.895,61.4C41.334,61.898 41.284,62.756 41.782,63.317C42.28,63.877 43.138,63.928 43.699,63.43L41.895,61.4ZM44.57,59.022L41.895,61.4L43.699,63.43L46.374,61.052L44.57,59.022Z" fill="#669CFF"/>
<path d="M44.279,54.001C43.954,54.188 43.842,54.603 44.029,54.928C44.215,55.253 44.63,55.365 44.955,55.178L44.279,54.001ZM46.949,48.681C47.261,48.473 47.346,48.052 47.138,47.74C46.93,47.428 46.508,47.343 46.196,47.551L46.949,48.681ZM44.955,55.178C45.703,54.749 46.26,54.18 46.505,53.441C46.75,52.702 46.645,51.912 46.305,51.118L45.057,51.653C45.311,52.247 45.326,52.683 45.217,53.013C45.107,53.342 44.836,53.681 44.279,54.001L44.955,55.178ZM46.305,51.118C46.048,50.518 46.017,50.061 46.113,49.707C46.208,49.358 46.454,49.011 46.949,48.681L46.196,47.551C45.503,48.014 45.005,48.608 44.803,49.349C44.603,50.085 44.72,50.866 45.057,51.653L46.305,51.118Z" fill="#E866FF"/>
<path d="M53.795,45.474C54.124,45.474 54.39,45.208 54.39,44.879C54.39,44.551 54.124,44.285 53.795,44.285C53.467,44.285 53.201,44.551 53.201,44.879C53.201,45.208 53.467,45.474 53.795,45.474Z" transform="rotate(-76 53.795 44.879)" fill="#FF7866"/>
<path d="M62.3,41.129C62.035,40.864 61.605,40.864 61.34,41.129C61.075,41.394 61.075,41.824 61.34,42.089L62.3,41.129ZM65.501,46.25C65.766,46.516 66.196,46.516 66.461,46.25C66.726,45.985 66.726,45.555 66.461,45.29L65.501,46.25ZM61.34,42.089L65.501,46.25L66.461,45.29L62.3,41.129L61.34,42.089Z" fill="#FFBA66"/>
<path d="M73.411,50.526L72.816,50.229L73.114,49.634L73.411,49.931L73.411,50.526Z" fill="#FF66D9"/>
<path d="M74.526,57.784C74.54,57.409 74.247,57.094 73.872,57.08C73.498,57.067 73.183,57.359 73.169,57.734L74.526,57.784ZM75.836,60.863L76.075,60.227L76.049,60.217L76.023,60.21L75.836,60.863ZM77.245,63.739C77.192,64.11 77.45,64.454 77.821,64.507C78.192,64.56 78.536,64.302 78.589,63.931L77.245,63.739ZM73.169,57.734C73.135,58.66 73.299,59.487 73.727,60.156C74.163,60.836 74.827,61.28 75.65,61.515L76.023,60.21C75.459,60.049 75.098,59.778 74.87,59.423C74.636,59.058 74.499,58.531 74.526,57.784L73.169,57.734ZM75.598,61.498C76.312,61.766 76.747,62.094 76.989,62.441C77.221,62.773 77.324,63.187 77.245,63.739L78.589,63.931C78.708,63.096 78.563,62.321 78.101,61.662C77.65,61.018 76.946,60.554 76.075,60.227L75.598,61.498Z" fill="#FA66FF"/>
<path d="M74.181,71.555C74.491,71.766 74.913,71.685 75.124,71.375C75.334,71.064 75.254,70.642 74.943,70.432L74.181,71.555ZM71.515,71.516L71.995,71.996L72.043,71.948L72.08,71.892L71.515,71.516ZM68.726,71.333C68.461,71.068 68.031,71.068 67.766,71.333C67.501,71.598 67.501,72.028 67.766,72.293L68.726,71.333ZM74.943,70.432C74.244,69.957 73.502,69.697 72.757,69.825C72.003,69.954 71.409,70.451 70.951,71.139L72.08,71.892C72.414,71.392 72.724,71.208 72.986,71.163C73.256,71.116 73.641,71.189 74.181,71.555L74.943,70.432ZM71.035,71.036C70.496,71.575 70.066,71.777 69.745,71.806C69.454,71.832 69.122,71.729 68.726,71.333L67.766,72.293C68.361,72.888 69.069,73.231 69.868,73.158C70.636,73.088 71.346,72.645 71.995,71.996L71.035,71.036Z" fill="#FF66A6"/>
<path d="M58.92,77.192C58.612,76.979 58.189,77.057 57.976,77.365C57.763,77.674 57.841,78.097 58.15,78.31L58.92,77.192ZM61.123,77.136L61.73,77.44L61.739,77.422L61.747,77.404L61.123,77.136ZM63.076,76.775C63.369,77.009 63.796,76.962 64.031,76.669C64.265,76.376 64.217,75.949 63.925,75.715L63.076,76.775ZM58.15,78.31C58.787,78.749 59.487,79.008 60.187,78.842C60.895,78.674 61.389,78.123 61.73,77.44L60.516,76.833C60.263,77.339 60.028,77.484 59.873,77.521C59.711,77.56 59.414,77.532 58.92,77.192L58.15,78.31ZM61.747,77.404C62.024,76.758 62.273,76.557 62.401,76.509C62.475,76.481 62.667,76.447 63.076,76.775L63.925,75.715C63.343,75.25 62.644,74.968 61.925,75.238C61.261,75.487 60.816,76.128 60.499,76.869L61.747,77.404Z" fill="#69FF66"/>
<path d="M50.23,76.681C50.886,76.681 51.418,76.282 51.418,75.789C51.418,75.297 50.886,74.898 50.23,74.898C49.573,74.898 49.041,75.297 49.041,75.789C49.041,76.282 49.573,76.681 50.23,76.681Z" transform="rotate(-252 50.23 75.789)" fill="#66FFBF"/>
<path d="M39.092,68.183C38.488,68.629 38.361,69.479 38.806,70.082C39.252,70.685 40.102,70.813 40.705,70.367L39.092,68.183ZM41.04,65.395L42.311,64.918L42.3,64.889L42.288,64.86L41.04,65.395ZM43.113,62.562C43.682,62.074 43.748,61.217 43.26,60.648C42.772,60.078 41.915,60.012 41.345,60.5L43.113,62.562ZM40.705,70.367C41.561,69.735 42.21,68.932 42.503,67.937C42.796,66.943 42.685,65.915 42.311,64.918L39.769,65.872C39.989,66.46 39.986,66.872 39.898,67.171C39.81,67.469 39.592,67.814 39.092,68.183L40.705,70.367ZM42.288,64.86C42.101,64.425 42.097,64.088 42.189,63.788C42.289,63.462 42.547,63.047 43.113,62.562L41.345,60.5C40.524,61.204 39.89,62.027 39.594,62.99C39.29,63.978 39.384,64.979 39.792,65.93L42.288,64.86Z" fill="#6696FF"/>
<path d="M41.018,53.499C41.346,53.499 41.612,53.366 41.612,53.202C41.612,53.037 41.346,52.904 41.018,52.904C40.69,52.904 40.424,53.037 40.424,53.202C40.424,53.366 40.69,53.499 41.018,53.499Z" transform="rotate(334 41.018 53.202)" fill="#66ABFF"/>
<path d="M49.634,43.988L48.445,43.096L49.634,42.502L49.634,43.988Z" fill="#EBFF66"/>
<path d="M60.927,37.449L60.63,38.638L59.441,38.935L60.63,39.53L60.63,40.719L61.522,40.124L62.711,40.124L62.116,39.233L62.711,38.044L61.522,38.341L60.927,37.449Z" fill="#66A8FF"/>
<path d="M74.601,46.366C75.257,46.366 75.79,46.099 75.79,45.771C75.79,45.443 75.257,45.177 74.601,45.177C73.944,45.177 73.412,45.443 73.412,45.771C73.412,46.099 73.944,46.366 74.601,46.366Z" transform="rotate(18 74.601 45.771)" fill="#8FFF66"/>
<path d="M79.949,57.064L80.246,57.362L79.949,57.362L79.949,57.064Z" fill="#FFF066"/>
<path d="M75.699,70.555C75.537,70.216 75.132,70.073 74.794,70.234C74.455,70.396 74.312,70.801 74.473,71.139L75.699,70.555ZM77.947,71.321C78.14,71.642 78.557,71.747 78.878,71.554C79.2,71.361 79.304,70.944 79.111,70.622L77.947,71.321ZM74.473,71.139C74.617,71.441 74.785,71.716 74.987,71.928C75.191,72.141 75.473,72.333 75.834,72.36C76.2,72.388 76.509,72.235 76.74,72.044C76.966,71.857 77.159,71.602 77.328,71.321L76.164,70.622C76.035,70.836 75.936,70.948 75.875,70.998C75.819,71.044 75.846,71 75.936,71.007C76.02,71.013 76.031,71.055 75.969,70.99C75.904,70.923 75.811,70.79 75.699,70.555L74.473,71.139ZM77.328,71.321C77.455,71.109 77.557,70.993 77.626,70.936C77.69,70.882 77.69,70.907 77.637,70.907C77.584,70.907 77.585,70.882 77.648,70.936C77.717,70.993 77.82,71.109 77.947,71.321L79.111,70.622C78.802,70.107 78.329,69.55 77.637,69.55C76.945,69.55 76.473,70.107 76.164,70.622L77.328,71.321Z" fill="#BFFF66"/>
<path d="M66.551,81.637C66.477,82.005 66.715,82.363 67.082,82.437C67.45,82.511 67.808,82.273 67.882,81.906L66.551,81.637ZM64.685,78.291C64.746,77.921 64.497,77.572 64.127,77.51C63.757,77.448 63.407,77.698 63.345,78.068L64.685,78.291ZM67.882,81.906C68.025,81.196 67.964,80.477 67.463,79.948C66.985,79.444 66.262,79.284 65.501,79.284L65.501,80.642C66.127,80.642 66.384,80.783 66.478,80.882C66.548,80.956 66.651,81.141 66.551,81.637L67.882,81.906ZM65.501,79.284C64.999,79.284 64.822,79.157 64.76,79.083C64.695,79.005 64.6,78.799 64.685,78.291L63.345,78.068C63.232,78.749 63.286,79.435 63.717,79.952C64.15,80.471 64.814,80.642 65.501,80.642L65.501,79.284Z" fill="#F2FF66"/>
<path d="M51.081,79.233L50.784,79.827L50.189,79.827L50.487,80.422L50.189,81.016L50.784,80.719L51.378,81.016L51.378,80.422L51.676,79.827L51.081,79.827L51.081,79.233Z" transform="rotate(296 50.933 80.124)" fill="#9666FF"/>
<path d="M39.828,71.926C40.157,71.926 40.423,71.659 40.423,71.331C40.423,71.003 40.157,70.737 39.828,70.737C39.5,70.737 39.234,71.003 39.234,71.331C39.234,71.659 39.5,71.926 39.828,71.926Z" transform="rotate(264 39.828 71.331)" fill="#66F7FF"/>
<path d="M35.965,55.876L36.262,55.876L35.965,56.173L35.965,55.876Z" fill="#FFC766"/>
<path d="M42.867,43.344C42.738,44.083 43.233,44.786 43.971,44.915C44.71,45.044 45.413,44.549 45.542,43.81L42.867,43.344ZM42.629,40.278C42.735,39.536 42.219,38.848 41.477,38.742C40.734,38.636 40.047,39.152 39.941,39.894L42.629,40.278ZM45.542,43.81C45.674,43.051 45.705,42.042 45.061,41.275C44.354,40.433 43.307,40.403 42.548,40.53L42.994,43.208C43.085,43.193 43.149,43.189 43.192,43.189C43.234,43.188 43.246,43.192 43.234,43.19C43.221,43.187 43.182,43.176 43.131,43.147C43.078,43.116 43.025,43.073 42.981,43.021C42.891,42.913 42.892,42.837 42.899,42.892C42.903,42.918 42.906,42.968 42.902,43.046C42.899,43.124 42.888,43.223 42.867,43.344L45.542,43.81ZM42.548,40.53C42.363,40.561 42.301,40.543 42.32,40.548C42.334,40.551 42.371,40.562 42.418,40.59C42.467,40.619 42.513,40.658 42.551,40.703C42.626,40.794 42.62,40.849 42.609,40.776C42.597,40.699 42.591,40.542 42.629,40.278L39.941,39.894C39.828,40.683 39.833,41.683 40.465,42.441C41.169,43.286 42.207,43.34 42.994,43.208L42.548,40.53Z" fill="#BF66FF"/>
<path d="M55.102,34.192C54.568,33.666 53.709,33.671 53.182,34.205C52.655,34.739 52.661,35.599 53.195,36.125L55.102,34.192ZM59.094,36.061C59.624,36.591 60.483,36.591 61.014,36.061C61.544,35.53 61.544,34.671 61.014,34.14L59.094,36.061ZM53.195,36.125C53.835,36.757 54.654,37.235 55.632,37.216C56.599,37.196 57.405,36.697 58.042,36.061L56.121,34.14C55.767,34.495 55.589,34.5 55.578,34.501C55.567,34.501 55.533,34.501 55.462,34.467C55.384,34.429 55.263,34.351 55.102,34.192L53.195,36.125ZM58.042,36.061C58.389,35.713 58.559,35.715 58.568,35.715C58.576,35.715 58.746,35.713 59.094,36.061L61.014,34.14C60.37,33.497 59.55,33 58.568,33C57.585,33 56.765,33.497 56.121,34.14L58.042,36.061Z" fill="#66FF91"/>
<path d="M74.302,40.124L72.816,40.124L73.114,38.936L74.302,40.124Z" fill="#ED66FF"/>
<path d="M83.814,53.795C84.47,53.795 85.003,53.396 85.003,52.903C85.003,52.411 84.47,52.012 83.814,52.012C83.157,52.012 82.625,52.411 82.625,52.903C82.625,53.396 83.157,53.795 83.814,53.795Z" transform="rotate(0 83.814 52.903)" fill="#A3FF66"/>
<path d="M82.07,68.193L82.07,68.788L81.772,68.788L82.07,69.085L82.367,69.382L82.367,69.085L82.961,69.085L82.664,68.788L82.961,68.49L82.367,68.49L82.07,68.193Z" transform="rotate(-316 82.367 68.788)" fill="#FF66F2"/>
<path d="M71.926,82.328C72.254,82.328 72.521,82.195 72.521,82.031C72.521,81.867 72.254,81.734 71.926,81.734C71.598,81.734 71.332,81.867 71.332,82.031C71.332,82.195 71.598,82.328 71.926,82.328Z" transform="rotate(-56 71.926 82.031)" fill="#66FFF2"/>
<path d="M53.881,85.858C53.512,85.925 53.268,86.279 53.336,86.648C53.404,87.017 53.758,87.261 54.127,87.193L53.881,85.858ZM54.561,84.718L55.091,84.294L55.037,84.227L54.968,84.175L54.561,84.718ZM54.991,84.195C55.359,84.121 55.597,83.764 55.523,83.396C55.45,83.029 55.092,82.79 54.725,82.864L54.991,84.195ZM54.127,87.193C54.74,87.08 55.449,86.812 55.665,86.113C55.769,85.774 55.717,85.438 55.606,85.147C55.496,84.858 55.313,84.573 55.091,84.294L54.03,85.142C54.204,85.359 54.295,85.521 54.337,85.63C54.378,85.737 54.355,85.751 54.367,85.713C54.381,85.667 54.405,85.673 54.342,85.711C54.269,85.755 54.128,85.812 53.881,85.858L54.127,87.193ZM54.968,84.175C54.885,84.113 54.822,84.059 54.774,84.014C54.751,83.991 54.732,83.972 54.718,83.956C54.704,83.94 54.695,83.928 54.689,83.92C54.684,83.913 54.684,83.911 54.686,83.915C54.688,83.92 54.694,83.932 54.699,83.951C54.705,83.971 54.71,83.998 54.711,84.032C54.712,84.066 54.708,84.102 54.699,84.14C54.69,84.177 54.676,84.21 54.66,84.238C54.645,84.265 54.629,84.285 54.617,84.298C54.605,84.31 54.597,84.317 54.595,84.318C54.593,84.319 54.597,84.317 54.607,84.311C54.617,84.305 54.633,84.298 54.655,84.289C54.677,84.28 54.704,84.27 54.736,84.259C54.802,84.238 54.886,84.216 54.991,84.195L54.725,82.864C54.446,82.919 54.179,82.998 53.957,83.119C53.74,83.237 53.472,83.45 53.382,83.81C53.29,84.177 53.433,84.492 53.577,84.699C53.723,84.907 53.929,85.093 54.153,85.261L54.968,84.175Z" fill="#66FF9E"/>
<path d="M39.189,75.375L38.594,75.969L37.703,75.969L38,76.861L37.703,77.753L38.594,77.456L39.189,78.05L39.486,77.158L40.378,76.564L39.486,76.267L39.189,75.375Z" transform="rotate(-68 39.04 76.712)" fill="#FF668A"/>
<path d="M31.449,59.565L31.449,60.159L30.855,60.456L31.449,60.754L31.449,61.348L31.747,61.051L32.341,61.051L32.044,60.754L32.341,60.159L31.747,60.159L31.449,59.565Z" transform="rotate(-102 31.598 60.456)" fill="#66FCFF"/>
<path d="M37.45,42.502L37.153,43.691L36.559,43.394L36.856,42.502L37.45,42.502Z" fill="#7566FF"/>
<path d="M52.012,32.991C52.504,32.991 52.903,32.858 52.903,32.693C52.903,32.529 52.504,32.396 52.012,32.396C51.519,32.396 51.12,32.529 51.12,32.693C51.12,32.858 51.519,32.991 52.012,32.991Z" transform="rotate(224 52.012 32.693)" fill="#BAFF66"/>
<path d="M70.145,33.585L70.145,33.288L70.442,33.288L70.145,33.585Z" fill="#FF66FC"/>
<path d="M87.061,45.328C87.637,44.848 87.715,43.992 87.235,43.416C86.755,42.84 85.898,42.762 85.322,43.242L87.061,45.328ZM81.756,46.214C81.18,46.694 81.102,47.55 81.582,48.126C82.062,48.703 82.918,48.78 83.494,48.3L81.756,46.214ZM85.322,43.242L81.756,46.214L83.494,48.3L87.061,45.328L85.322,43.242Z" fill="#BAFF66"/>
<path d="M89.146,64.819C89.489,64.666 89.643,64.265 89.491,63.923C89.338,63.58 88.937,63.426 88.595,63.578L89.146,64.819ZM85.92,64.767C85.577,64.919 85.423,65.32 85.575,65.663C85.727,66.005 86.128,66.16 86.471,66.007L85.92,64.767ZM88.595,63.578L85.92,64.767L86.471,66.007L89.146,64.819L88.595,63.578Z" fill="#FFF066"/>
<rect  x="77.871" y="82.031" width="0.892" height="0.297" fill="#C2FF66"/>
<path d="M60.04,89.461L59.743,90.056L59.148,89.758L59.446,89.164L60.04,89.461Z" fill="#6694FF"/>
<path d="M40.417,81.493L40.12,82.979L38.634,83.277L39.823,84.168L40.12,85.357L41.011,84.466L42.498,84.763L41.903,83.574L42.498,82.385L41.309,82.682L40.417,81.493Z" transform="rotate(306 40.566 83.425)" fill="#FF6699"/>
<path d="M29.472,68.767C29.697,69.067 30.122,69.128 30.422,68.903C30.722,68.678 30.783,68.252 30.558,67.952L29.472,68.767ZM27.883,64.386C27.658,64.086 27.232,64.025 26.933,64.25C26.633,64.475 26.572,64.9 26.797,65.2L27.883,64.386ZM30.558,67.952L27.883,64.386L26.797,65.2L29.472,68.767L30.558,67.952Z" fill="#78FF66"/>
<path d="M30.519,43.911L29.925,45.1L28.736,45.1L29.33,45.991L29.033,47.18L29.925,46.586L31.114,47.478L31.114,46.289L32.005,45.397L30.816,45.1L30.519,43.911Z" transform="rotate(-72 30.371 45.694)" fill="#BA66FF"/>
<path d="M44.831,30.304L44.534,30.601L44.831,30.601L44.831,30.898L45.129,30.601L45.129,30.304L44.831,30.304Z" transform="rotate(-240 44.831 30.601)" fill="#FF7A66"/>
<path d="M68.21,25.126C68.861,24.753 69.086,23.924 68.714,23.273C68.341,22.622 67.512,22.396 66.861,22.769L68.21,25.126ZM65.904,27.599L67.252,27.43L67.241,27.349L67.222,27.269L65.904,27.599ZM63.447,29.986C62.796,30.359 62.57,31.188 62.942,31.839C63.314,32.49 64.144,32.716 64.795,32.344L63.447,29.986ZM66.861,22.769C65.94,23.296 65.194,24.006 64.775,24.943C64.354,25.887 64.332,26.909 64.587,27.928L67.222,27.269C67.08,26.703 67.133,26.324 67.255,26.051C67.38,25.771 67.647,25.448 68.21,25.126L66.861,22.769ZM64.557,27.767C64.63,28.348 64.548,28.762 64.393,29.072C64.238,29.382 63.956,29.696 63.447,29.986L64.795,32.344C65.673,31.842 66.382,31.165 66.822,30.286C67.261,29.407 67.377,28.434 67.252,27.43L64.557,27.767Z" fill="#87FF66"/>
<path d="M84.406,38.935L85.298,38.638L85.001,39.529L84.406,38.935Z" fill="#FF6673"/>
<path d="M93.623,59.443L93.028,60.929L92.137,59.443L93.623,59.443Z" fill="#FFBA66"/>
<path d="M85,81.436L84.703,81.139L85.892,80.248L86.189,80.545L85,81.436Z" fill="#75FF66"/>
<path d="M65.954,90.636L65.359,91.824L64.171,92.122L65.359,93.013L65.062,94.499L66.251,93.608L67.44,94.202L67.143,93.013L68.034,91.824L66.845,91.824L65.954,90.636Z" transform="rotate(-230 66.102 92.567)" fill="#6675FF"/>
<path d="M43.871,88.688L43.277,89.58L42.385,89.877L42.98,90.472L42.98,91.363L43.574,91.066L44.466,91.363L44.466,90.472L45.06,89.877L44.169,89.58L43.871,88.688Z" transform="rotate(138 43.723 90.026)" fill="#FF66B8"/>
<path d="M27.059,73.787L26.762,73.787L27.059,74.084L27.357,74.084L27.357,73.787L27.059,73.787Z" transform="rotate(-96 27.059 73.935)" fill="#AD66FF"/>
<path d="M24.07,51.121L24.368,50.824L24.962,51.419L24.07,51.121Z" fill="#FFBF66"/>
<rect  x="37.152" y="30.613" width="0.594" height="0.594" fill="#66FFB8"/>
<path d="M59.713,22.291L59.416,22.588L59.118,22.886L59.416,22.886L59.416,23.48L59.713,23.183L60.01,23.183L60.01,22.886L60.307,22.588L59.713,22.588L59.713,22.291Z" transform="rotate(-358 59.713 22.886)" fill="#EBFF66"/>
<path d="M84.306,31.156C84.539,31.45 84.966,31.501 85.26,31.268C85.554,31.036 85.604,30.609 85.372,30.315L84.306,31.156ZM82.569,31.149L82.004,30.773L81.995,30.786L81.987,30.8L82.569,31.149ZM80.615,30.916C80.323,30.682 79.896,30.73 79.661,31.022C79.427,31.315 79.475,31.742 79.767,31.977L80.615,30.916ZM85.372,30.315C84.944,29.772 84.348,29.352 83.609,29.486C82.946,29.607 82.423,30.144 82.004,30.773L83.134,31.526C83.507,30.966 83.759,30.839 83.853,30.822C83.87,30.819 84.014,30.786 84.306,31.156L85.372,30.315ZM81.987,30.8C81.747,31.2 81.554,31.279 81.445,31.293C81.313,31.31 81.049,31.264 80.615,30.916L79.767,31.977C80.324,32.422 80.952,32.723 81.613,32.64C82.297,32.555 82.797,32.089 83.151,31.499L81.987,30.8Z" fill="#FF668F"/>
<path d="M95.997,52.31L95.7,53.201L95.105,52.31L95.997,52.31Z" fill="#C966FF"/>
<path d="M93.325,77.276L92.434,77.87L92.434,76.682L93.325,77.276Z" fill="#FFE366"/>
<path d="M74.896,95.406C75.552,95.406 76.085,95.139 76.085,94.811C76.085,94.483 75.552,94.217 74.896,94.217C74.239,94.217 73.707,94.483 73.707,94.811C73.707,95.139 74.239,95.406 74.896,95.406Z" transform="rotate(162 74.896 94.811)" fill="#FF66CF"/>
<path d="M48.746,96.297L49.043,96L49.638,96.892L49.043,97.189L48.746,96.297Z" fill="#6685FF"/>
<path d="M28.234,83.22C28.726,83.22 29.126,82.954 29.126,82.625C29.126,82.297 28.726,82.031 28.234,82.031C27.742,82.031 27.342,82.297 27.342,82.625C27.342,82.954 27.742,83.22 28.234,83.22Z" transform="rotate(-102 28.234 82.625)" fill="#66FFFC"/>
<path d="M21.913,58.717C22.661,58.764 23.306,58.195 23.353,57.446C23.399,56.698 22.831,56.053 22.082,56.007L21.913,58.717ZM17.327,55.709C16.578,55.663 15.934,56.231 15.887,56.98C15.84,57.728 16.409,58.373 17.157,58.42L17.327,55.709ZM22.082,56.007L17.327,55.709L17.157,58.42L21.913,58.717L22.082,56.007Z" fill="#C2FF66"/>
<path d="M30.021,34.18L28.832,33.585L30.021,32.991L30.021,34.18Z" fill="#FF667D"/>
<path d="M52.153,18.848L51.856,19.145L51.559,19.145L51.559,19.442L51.559,19.739L51.856,19.739L52.153,20.037L52.153,19.442L52.451,19.442L52.153,19.145L52.153,18.848Z" transform="rotate(-356 52.005 19.442)" fill="#FF66F0"/>
<path d="M81.785,24.354C82.462,24.676 83.272,24.389 83.595,23.713C83.918,23.036 83.631,22.226 82.954,21.903L81.785,24.354ZM75.486,22.977C74.835,22.605 74.006,22.831 73.634,23.482C73.262,24.133 73.488,24.962 74.139,25.334L75.486,22.977ZM82.954,21.903C82.059,21.475 81.123,21.251 80.184,21.361C79.226,21.474 78.398,21.919 77.716,22.601L79.636,24.521C79.945,24.212 80.228,24.09 80.501,24.058C80.794,24.024 81.209,24.079 81.785,24.354L82.954,21.903ZM77.716,22.601C77.267,23.051 76.898,23.216 76.612,23.259C76.335,23.302 75.975,23.256 75.486,22.977L74.139,25.334C75.037,25.848 76.014,26.099 77.025,25.943C78.028,25.789 78.897,25.261 79.636,24.521L77.716,22.601Z" fill="#8266FF"/>
<path d="M97.485,43.987L97.485,44.285L96.891,43.987L97.485,43.987Z" fill="#6691FF"/>
<path d="M99.27,72.224C99.598,72.224 99.864,71.958 99.864,71.629C99.864,71.301 99.598,71.035 99.27,71.035C98.942,71.035 98.676,71.301 98.676,71.629C98.676,71.958 98.942,72.224 99.27,72.224Z" transform="rotate(-228 99.27 71.629)" fill="#FCFF66"/>
<path d="M82.625,94.811L83.814,93.622L83.814,95.405L82.625,94.811Z" fill="#FF6687"/>
<path d="M56.643,102.026C57.139,102.588 57.997,102.642 58.559,102.146C59.122,101.65 59.176,100.793 58.68,100.23L56.643,102.026ZM55.678,101.375L54.514,100.676L54.458,100.77L54.417,100.871L55.678,101.375ZM54.855,100.712C54.324,100.182 53.465,100.182 52.934,100.712C52.404,101.242 52.404,102.102 52.934,102.632L54.855,100.712ZM58.68,100.23C58.215,99.702 57.458,99.097 56.452,99.223C55.483,99.343 54.873,100.077 54.514,100.676L56.842,102.073C56.89,101.993 56.932,101.935 56.964,101.894C56.996,101.854 57.015,101.837 57.018,101.834C57.021,101.832 57.003,101.848 56.962,101.868C56.92,101.888 56.861,101.908 56.787,101.917C56.714,101.927 56.645,101.922 56.587,101.91C56.532,101.898 56.498,101.881 56.487,101.876C56.478,101.871 56.488,101.875 56.517,101.899C56.546,101.924 56.589,101.964 56.643,102.026L58.68,100.23ZM54.417,100.871C54.354,101.029 54.316,101.062 54.339,101.037C54.373,100.999 54.497,100.889 54.712,100.853C54.918,100.819 55.049,100.88 55.059,100.885C55.06,100.886 54.991,100.849 54.855,100.712L52.934,102.632C53.388,103.085 54.167,103.697 55.158,103.531C56.196,103.358 56.7,102.475 56.938,101.879L54.417,100.871Z" fill="#6685FF"/>
<path d="M30.026,88.976L29.134,89.868L27.945,89.571L28.54,90.759L27.945,91.651L29.134,91.354L30.026,92.245L30.026,91.057L31.214,90.462L30.026,90.165L30.026,88.976Z" transform="rotate(258 29.58 90.611)" fill="#66FFBF"/>
<path d="M16.942,66.278L16.645,66.575L16.051,65.981L16.348,65.684L16.942,66.278Z" fill="#E866FF"/>
<path d="M19.756,38.191C19.673,38.936 20.21,39.607 20.956,39.69C21.701,39.773 22.372,39.236 22.455,38.49L19.756,38.191ZM22.752,35.815C22.835,35.07 22.298,34.399 21.553,34.316C20.807,34.233 20.136,34.77 20.053,35.516L22.752,35.815ZM22.455,38.49L22.752,35.815L20.053,35.516L19.756,38.191L22.455,38.49Z" fill="#FFEB66"/>
<path d="M43.985,18.427L43.985,18.724L43.094,18.427L43.094,18.13L43.985,18.427Z" fill="#66FF99"/>
<path d="M73.708,17.833L72.52,17.536L73.411,16.941L73.708,17.833Z" fill="#66FFC4"/>
<path d="M96.598,35.963L96.895,34.477L98.084,35.963L96.598,35.963Z" fill="#CC66FF"/>
<path d="M106.115,61.604C106.796,61.291 107.095,60.485 106.782,59.804C106.469,59.122 105.663,58.823 104.982,59.136L106.115,61.604ZM104.037,63.715L102.72,64.044L102.725,64.066L102.731,64.088L104.037,63.715ZM102.016,65.439C101.327,65.734 101.007,66.532 101.303,67.222C101.598,67.911 102.396,68.23 103.086,67.935L102.016,65.439ZM104.982,59.136C104.063,59.558 103.299,60.203 102.88,61.131C102.466,62.048 102.472,63.054 102.72,64.044L105.354,63.385C105.205,62.79 105.265,62.447 105.355,62.249C105.439,62.062 105.63,61.827 106.115,61.604L104.982,59.136ZM102.731,64.088C102.865,64.556 102.803,64.782 102.748,64.891C102.689,65.01 102.521,65.222 102.016,65.439L103.086,67.935C103.967,67.557 104.741,66.977 105.177,66.105C105.618,65.223 105.605,64.26 105.342,63.342L102.731,64.088Z" fill="#7AFF66"/>
<path d="M92.735,93.028C93.391,93.028 93.924,92.629 93.924,92.136C93.924,91.644 93.391,91.244 92.735,91.244C92.078,91.244 91.546,91.644 91.546,92.136C91.546,92.629 92.078,93.028 92.735,93.028Z" transform="rotate(170 92.735 92.136)" fill="#FFFA66"/>
<path d="M64.534,103.385L63.939,104.277L62.75,104.574L63.642,105.466L63.345,106.654L64.534,106.06L65.425,106.357L65.425,105.168L66.02,104.574L64.831,104.277L64.534,103.385Z" transform="rotate(80 64.385 105.02)" fill="#FF66D6"/>
<path d="M35.368,98.377L35.665,99.864L35.071,99.864L34.773,98.377L35.368,98.377Z" fill="#66FFCF"/>
<path d="M12.594,75.607C12.329,75.872 12.329,76.302 12.594,76.567C12.859,76.832 13.289,76.832 13.554,76.567L12.594,75.607ZM16.229,73.892C16.494,73.627 16.494,73.197 16.229,72.932C15.964,72.667 15.534,72.667 15.269,72.932L16.229,73.892ZM13.554,76.567L16.229,73.892L15.269,72.932L12.594,75.607L13.554,76.567Z" fill="#FF6966"/>
<path d="M12.994,46.031C12.973,46.405 13.26,46.726 13.634,46.746C14.009,46.767 14.329,46.481 14.35,46.106L12.994,46.031ZM14.647,40.756C14.668,40.382 14.381,40.062 14.007,40.041C13.632,40.02 13.312,40.307 13.291,40.681L14.647,40.756ZM14.35,46.106L14.647,40.756L13.291,40.681L12.994,46.031L14.35,46.106Z" fill="#FF66B5"/>
<path d="M32.786,16.411C32.886,16.05 32.675,15.676 32.314,15.575C31.952,15.475 31.578,15.687 31.478,16.048L32.786,16.411ZM33.398,18.388L33.286,19.058L33.342,19.067L33.398,19.067L33.398,18.388ZM34.231,20.282C34.128,20.643 34.337,21.018 34.698,21.121C35.058,21.224 35.434,21.016 35.537,20.655L34.231,20.282ZM31.478,16.048C31.282,16.751 31.26,17.457 31.604,18.043C31.956,18.643 32.585,18.941 33.286,19.058L33.51,17.719C33.023,17.637 32.846,17.476 32.775,17.357C32.697,17.224 32.637,16.949 32.786,16.411L31.478,16.048ZM33.398,19.067C34.011,19.067 34.201,19.224 34.257,19.303C34.322,19.394 34.411,19.653 34.231,20.282L35.537,20.655C35.753,19.897 35.793,19.117 35.362,18.514C34.924,17.9 34.172,17.709 33.398,17.709L33.398,19.067Z" fill="#F7FF66"/>
<path d="M62.765,12.373C62.541,12.673 62.601,13.099 62.901,13.324C63.201,13.548 63.627,13.488 63.852,13.188L62.765,12.373ZM66.527,9.621C66.752,9.321 66.691,8.896 66.391,8.671C66.091,8.446 65.665,8.507 65.44,8.807L66.527,9.621ZM63.852,13.188L66.527,9.621L65.44,8.807L62.765,12.373L63.852,13.188Z" fill="#8A66FF"/>
<path d="M94.81,26.453C95.467,26.453 95.999,26.186 95.999,25.858C95.999,25.53 95.467,25.264 94.81,25.264C94.154,25.264 93.621,25.53 93.621,25.858C93.621,26.186 94.154,26.453 94.81,26.453Z" transform="rotate(-18 94.81 25.858)" fill="#66FFF2"/>
<path d="M108.485,54.687L107.891,54.984L108.188,54.39L108.485,54.687Z" fill="#9CFF66"/>
<path d="M101.646,86.786L100.755,87.381L100.16,86.786L101.349,85.895L101.646,86.786Z" fill="#F2FF66"/>
<path d="M74.305,107.294L75.494,106.699L75.791,107.294L74.602,107.888L74.305,107.294Z" fill="#D966FF"/>
<path d="M41.61,106.403L42.205,107.889L40.719,107.889L41.61,106.403Z" fill="#6EFF66"/>
<path d="M16.403,82.533C16.516,82.175 16.318,81.794 15.96,81.681C15.603,81.568 15.221,81.766 15.109,82.124L16.403,82.533ZM13.325,87.771C13.212,88.128 13.411,88.51 13.768,88.623C14.126,88.735 14.507,88.537 14.62,88.18L13.325,87.771ZM15.109,82.124L13.325,87.771L14.62,88.18L16.403,82.533L15.109,82.124Z" fill="#FFA866"/>
<path d="M8.023,52.607L8.618,51.418L9.212,51.715L8.915,52.904L8.023,52.607Z" fill="#FF6699"/>
<rect  x="23.184" y="21.398" width="1.189" height="0.594" fill="#66FF70"/>
<path d="M56.173,6.836L55.282,7.728L54.984,7.431L55.579,6.539L56.173,6.836Z" fill="#8066FF"/>
<path d="M90.353,16.941L89.164,17.238L89.461,15.752L90.353,16.941Z" fill="#FF6675"/>
<path d="M110.564,43.987L110.861,45.176L109.672,44.582L110.564,43.987Z" fill="#FFBF66"/>
<path d="M108.595,79.003L108.595,79.3L108.298,79.3L108.595,79.3L108.595,79.597L108.893,79.597L108.893,79.3L108.595,79.003Z" transform="rotate(172 108.595 79.3)" fill="#FF8266"/>
<path d="M83.454,108.444C82.821,108.847 82.636,109.686 83.039,110.319C83.442,110.951 84.281,111.137 84.913,110.734L83.454,108.444ZM86.724,104.518C87.395,104.183 87.666,103.367 87.331,102.697C86.996,102.026 86.18,101.754 85.51,102.089L86.724,104.518ZM84.913,110.734C85.74,110.207 86.409,109.494 86.706,108.552C87.003,107.606 86.859,106.641 86.473,105.741L83.977,106.811C84.186,107.298 84.165,107.578 84.115,107.737C84.065,107.899 83.916,108.149 83.454,108.444L84.913,110.734ZM86.473,105.741C86.245,105.209 86.279,104.96 86.303,104.883C86.315,104.841 86.363,104.698 86.724,104.518L85.51,102.089C84.681,102.504 83.986,103.153 83.702,104.102C83.428,105.016 83.611,105.955 83.977,106.811L86.473,105.741Z" fill="#66FFAB"/>
<path d="M50.527,114.724C51.019,114.724 51.418,114.325 51.418,113.833C51.418,113.34 51.019,112.941 50.527,112.941C50.034,112.941 49.635,113.34 49.635,113.833C49.635,114.325 50.034,114.724 50.527,114.724Z" transform="rotate(-280 50.527 113.833)" fill="#66FF6E"/>
<path d="M18.427,95.406L19.021,96.892L17.535,96.892L18.427,95.406Z" fill="#669CFF"/>
<path d="M2.89,60.184C2.643,59.902 2.214,59.873 1.932,60.12C1.65,60.367 1.621,60.796 1.868,61.078L2.89,60.184ZM3.949,63.456C4.195,63.738 4.624,63.766 4.906,63.519C5.189,63.273 5.217,62.844 4.97,62.562L3.949,63.456ZM1.868,61.078L3.949,63.456L4.97,62.562L2.89,60.184L1.868,61.078Z" fill="#FFCC66"/>
<path d="M14.561,27.938C15.218,27.938 15.75,27.672 15.75,27.344C15.75,27.015 15.218,26.749 14.561,26.749C13.905,26.749 13.373,27.015 13.373,27.344C13.373,27.672 13.905,27.938 14.561,27.938Z" transform="rotate(208 14.561 27.344)" fill="#66FFBD"/>
<path d="M44.283,3.705L43.986,4.3L43.094,4.3L43.391,4.894L43.094,5.786L43.986,5.489L44.283,6.083L44.58,5.191L45.175,4.894L44.58,4.597L44.283,3.705Z" transform="rotate(166 44.134 4.894)" fill="#FF7566"/>
<path d="M82.151,10.053C82.614,10.642 83.468,10.745 84.057,10.281C84.647,9.818 84.749,8.965 84.286,8.375L82.151,10.053ZM81.017,4.214C80.554,3.624 79.7,3.522 79.11,3.985C78.521,4.448 78.418,5.302 78.882,5.892L81.017,4.214ZM84.286,8.375L81.017,4.214L78.882,5.892L82.151,10.053L84.286,8.375Z" fill="#FF66B0"/>
<path d="M109.664,31.863L109.367,32.161L109.069,31.863L109.069,32.458L109.069,32.755L109.367,32.755L109.664,33.052L109.664,32.458L109.961,32.458L109.664,32.161L109.664,31.863Z" transform="rotate(-270 109.515 32.458)" fill="#66FFB5"/>
<path d="M112.956,70.421C112.641,70.217 112.221,70.307 112.017,70.621C111.812,70.936 111.902,71.356 112.216,71.56L112.956,70.421ZM115.497,70.326L116.062,70.702L116.097,70.651L116.121,70.593L115.497,70.326ZM117.796,69.999C118.107,70.207 118.529,70.123 118.737,69.811C118.945,69.499 118.861,69.077 118.549,68.869L117.796,69.999ZM112.216,71.56C112.885,71.994 113.603,72.211 114.326,72.046C115.042,71.882 115.611,71.379 116.062,70.702L114.932,69.949C114.591,70.462 114.278,70.664 114.024,70.722C113.776,70.778 113.435,70.733 112.956,70.421L112.216,71.56ZM116.121,70.593C116.387,69.972 116.651,69.765 116.826,69.707C116.987,69.653 117.283,69.657 117.796,69.999L118.549,68.869C117.873,68.419 117.128,68.175 116.397,68.419C115.681,68.657 115.202,69.292 114.873,70.058L116.121,70.593Z" fill="#6EFF66"/>
<path d="M96.297,103.728L96.594,103.728L96.594,104.025L96.297,103.728Z" fill="#FF66BF"/>
<path d="M60.248,116.175L59.653,117.067L58.762,117.067L59.356,117.661L59.356,118.85L60.248,118.256L60.842,118.85L60.842,117.959L61.734,117.067L60.545,117.067L60.248,116.175Z" transform="rotate(-118 60.248 117.513)" fill="#F266FF"/>
<path d="M23.274,104.939L22.68,105.534L21.788,105.237L22.383,106.128L22.085,106.723L22.68,106.425L23.274,107.02L23.274,106.425L24.166,105.831L23.274,105.534L23.274,104.939Z" transform="rotate(330 22.977 105.98)" fill="#B0FF66"/>
<path d="M-0.48,74.121C-0.745,74.386 -0.745,74.816 -0.48,75.081C-0.215,75.346 0.215,75.346 0.48,75.081L-0.48,74.121ZM3.155,72.406C3.42,72.141 3.42,71.711 3.155,71.446C2.89,71.181 2.46,71.181 2.195,71.446L3.155,72.406ZM0.48,75.081L3.155,72.406L2.195,71.446L-0.48,74.121L0.48,75.081Z" fill="#94FF66"/>
<path d="M5.646,35.666L4.457,34.477L5.943,34.18L5.646,35.666Z" fill="#FF7066"/>
<path d="M32.399,5.053L32.696,5.35L32.399,5.35L32.102,5.35L32.399,5.053Z" fill="#8AFF66"/>
<path d="M72.219,0L71.922,0.297L72.219,0Z" fill="#FF66FF"/>
<path d="M104.703,20.997C104.407,20.766 103.98,20.819 103.75,21.115C103.519,21.41 103.572,21.837 103.868,22.067L104.703,20.997ZM106.588,20.849L107.196,21.153L107.217,21.11L107.232,21.064L106.588,20.849ZM108.245,20.785C108.538,21.019 108.965,20.972 109.199,20.679C109.433,20.386 109.386,19.959 109.093,19.725L108.245,20.785ZM103.868,22.067C104.422,22.5 105.077,22.765 105.76,22.562C106.413,22.369 106.867,21.809 107.196,21.153L105.981,20.546C105.715,21.078 105.489,21.227 105.374,21.261C105.289,21.286 105.089,21.298 104.703,20.997L103.868,22.067ZM107.232,21.064C107.411,20.527 107.581,20.465 107.592,20.462C107.609,20.457 107.794,20.424 108.245,20.785L109.093,19.725C108.553,19.293 107.896,18.963 107.219,19.156C106.537,19.351 106.162,19.982 105.944,20.635L107.232,21.064Z" fill="#9466FF"/>
</svg>
