<svg width="16" height="34" viewBox="0 0 16 34" fill="none" xmlns="http://www.w3.org/2000/svg" xmlns:xlink="http://www.w3.org/1999/xlink">
<mask id="mask_0_i_424_19281;349_11984;349_11938;349_11904" style="mask-type:alpha" maskUnits="userSpaceOnUse" x="0" y="0.799805" width="8.000001" height="16.000002">
<path d="M16,18.4C16,28.8 12.418,32.8 8,32.8C3.582,32.8 0,28.8 0,18.4C0,8 1.6,0.8 8,0.8C14.4,0.8 16,8 16,18.4Z" fill="#FFFFFF"/>
</mask>
<path d="M16,18.4C16,28.8 12.418,32.8 8,32.8C3.582,32.8 0,28.8 0,18.4C0,8 1.6,0.8 8,0.8C14.4,0.8 16,8 16,18.4Z" fill="#FFFFFF"/>
<path d="M7.199,16.8C7.199,21.218 6.399,24.8 3.199,24.8C-0.001,24.8 -0.801,21.218 -0.801,16.8C-0.801,12.382 -0.001,8.8 3.199,8.8C6.399,8.8 7.199,12.382 7.199,16.8Z" fill="#000000"/>
<path d="M12.303,28.647C13.523,26.71 14.4,23.456 14.4,18.4C14.4,13.222 13.993,9.08 12.908,6.277C12.374,4.899 11.714,3.946 10.952,3.338C10.215,2.75 9.277,2.4 8,2.4C6.723,2.4 5.785,2.75 5.048,3.338C4.286,3.946 3.626,4.899 3.092,6.277C2.007,9.08 1.6,13.222 1.6,18.4C1.6,23.456 2.477,26.71 3.697,28.647C4.861,30.497 6.358,31.2 8,31.2C9.642,31.2 11.139,30.497 12.303,28.647ZM8,32.8C12.418,32.8 16,28.8 16,18.4C16,8 14.4,0.8 8,0.8C1.6,0.8 0,8 0,18.4C0,28.8 3.582,32.8 8,32.8Z" clip-rule="evenodd" fill-rule="evenodd" fill="#000000"/>
</svg>
