<svg width="18" height="18" viewBox="0 0 18 18" fill="none" xmlns="http://www.w3.org/2000/svg">
<g clip-path="url(#clip0_693_13988)">
<mask id="mask0_693_13988" style="mask-type:alpha" maskUnits="userSpaceOnUse" x="0" y="1" width="9" height="16">
<path d="M8.25 9.75C8.25 14.625 6.57107 16.5 4.5 16.5C2.42893 16.5 0.75 14.625 0.75 9.75C0.75 4.875 1.5 1.5 4.5 1.5C7.5 1.5 8.25 4.875 8.25 9.75Z" fill="white"/>
</mask>
<g mask="url(#mask0_693_13988)">
<path d="M8.25 9.75C8.25 14.625 6.57107 16.5 4.5 16.5C2.42893 16.5 0.75 14.625 0.75 9.75C0.75 4.875 1.5 1.5 4.5 1.5C7.5 1.5 8.25 4.875 8.25 9.75Z" fill="white"/>
<path d="M4.125 9C4.125 11.0711 3.75 12.75 2.25 12.75C0.75 12.75 0.375 11.0711 0.375 9C0.375 6.92893 0.75 5.25 2.25 5.25C3.75 5.25 4.125 6.92893 4.125 9Z" fill="black"/>
<path fill-rule="evenodd" clip-rule="evenodd" d="M6.51692 14.5536C7.08868 13.6452 7.5 12.1201 7.5 9.75C7.5 7.32306 7.30918 5.38153 6.80057 4.06762C6.55041 3.42137 6.24099 2.97467 5.88389 2.68985C5.53832 2.41421 5.09856 2.25 4.5 2.25C3.90144 2.25 3.46168 2.41421 3.11611 2.68985C2.75901 2.97467 2.44959 3.42137 2.19943 4.06762C1.69082 5.38153 1.5 7.32306 1.5 9.75C1.5 12.1201 1.91132 13.6452 2.48308 14.5536C3.0288 15.4206 3.73037 15.75 4.5 15.75C5.26963 15.75 5.9712 15.4206 6.51692 14.5536ZM4.5 16.5C6.57107 16.5 8.25 14.625 8.25 9.75C8.25 4.875 7.5 1.5 4.5 1.5C1.5 1.5 0.75 4.875 0.75 9.75C0.75 14.625 2.42893 16.5 4.5 16.5Z" fill="black"/>
</g>
</g>
<g clip-path="url(#clip1_693_13988)">
<mask id="mask1_693_13988" style="mask-type:alpha" maskUnits="userSpaceOnUse" x="9" y="1" width="8" height="16">
<path d="M16.5 9.75C16.5 14.625 14.8211 16.5 12.75 16.5C10.6789 16.5 9 14.625 9 9.75C9 4.875 9.75 1.5 12.75 1.5C15.75 1.5 16.5 4.875 16.5 9.75Z" fill="white"/>
</mask>
<g mask="url(#mask1_693_13988)">
<path d="M16.5 9.75C16.5 14.625 14.8211 16.5 12.75 16.5C10.6789 16.5 9 14.625 9 9.75C9 4.875 9.75 1.5 12.75 1.5C15.75 1.5 16.5 4.875 16.5 9.75Z" fill="white"/>
<path d="M12.375 9C12.375 11.0711 12 12.75 10.5 12.75C9 12.75 8.625 11.0711 8.625 9C8.625 6.92893 9 5.25 10.5 5.25C12 5.25 12.375 6.92893 12.375 9Z" fill="black"/>
<path fill-rule="evenodd" clip-rule="evenodd" d="M14.7669 14.5536C15.3387 13.6452 15.75 12.1201 15.75 9.75C15.75 7.32306 15.5592 5.38153 15.0506 4.06762C14.8004 3.42137 14.491 2.97467 14.1339 2.68985C13.7883 2.41421 13.3486 2.25 12.75 2.25C12.1514 2.25 11.7117 2.41421 11.3661 2.68985C11.009 2.97467 10.6996 3.42137 10.4494 4.06762C9.94082 5.38153 9.75 7.32306 9.75 9.75C9.75 12.1201 10.1613 13.6452 10.7331 14.5536C11.2788 15.4206 11.9804 15.75 12.75 15.75C13.5196 15.75 14.2212 15.4206 14.7669 14.5536ZM12.75 16.5C14.8211 16.5 16.5 14.625 16.5 9.75C16.5 4.875 15.75 1.5 12.75 1.5C9.75 1.5 9 4.875 9 9.75C9 14.625 10.6789 16.5 12.75 16.5Z" fill="black"/>
</g>
</g>
<defs>
<clipPath id="clip0_693_13988">
<rect width="7.5" height="15" fill="white" transform="translate(0.75 1.5)"/>
</clipPath>
<clipPath id="clip1_693_13988">
<rect width="7.5" height="15" fill="white" transform="translate(9 1.5)"/>
</clipPath>
</defs>
</svg>
