<svg width="34" height="36" viewBox="0 0 34 36" fill="none" xmlns="http://www.w3.org/2000/svg" xmlns:xlink="http://www.w3.org/1999/xlink">
<mask id="mask_0_i_434_11916;445_46181;349_11904" style="mask-type:alpha" maskUnits="userSpaceOnUse" x="4.125" y="8.875" width="2.8125" height="5.625">
<path d="M9.75,15.063C9.75,18.719 8.491,20.125 6.938,20.125C5.384,20.125 4.125,18.719 4.125,15.063C4.125,11.406 4.688,8.875 6.938,8.875C9.188,8.875 9.75,11.406 9.75,15.063Z" fill="#FFFFFF"/>
</mask>
<mask id="mask_0_i_434_11916;445_46182;349_11904" style="mask-type:alpha" maskUnits="userSpaceOnUse" x="9.75" y="8.875" width="2.8125" height="5.625">
<path d="M15.375,15.063C15.375,18.719 14.116,20.125 12.563,20.125C11.009,20.125 9.75,18.719 9.75,15.063C9.75,11.406 10.313,8.875 12.563,8.875C14.813,8.875 15.375,11.406 15.375,15.063Z" fill="#FFFFFF"/>
</mask>
<path d="M0,14.5C0,6.216 6.716,-0.5 15,-0.5L15,-0.5C23.284,-0.5 30,6.216 30,14.5C30,17.257 30,19.918 30,22C30,29.5 33,35.5 33,35.5L16,35.5C7.163,35.5 0,28.337 0,19.5L0,14.5Z" fill="#FFFFFF" stroke="#FFFFFF" stroke-opacity="0.7" stroke-width="1.5" stroke-miterlimit="3.999327"/>
<path d="M20.337,20.793C20.693,20.402 21.307,20.402 21.663,20.793L22.121,21.296C22.301,21.493 22.56,21.6 22.827,21.588L23.506,21.556C24.034,21.531 24.469,21.966 24.444,22.494L24.412,23.173C24.4,23.44 24.507,23.699 24.704,23.879L25.207,24.337C25.598,24.693 25.598,25.307 25.207,25.663L24.704,26.121C24.507,26.301 24.4,26.56 24.412,26.827L24.444,27.506C24.469,28.034 24.034,28.469 23.506,28.444L22.827,28.412C22.56,28.4 22.301,28.507 22.121,28.704L21.663,29.207C21.307,29.598 20.693,29.598 20.337,29.207L19.879,28.704C19.699,28.507 19.44,28.4 19.173,28.412L18.494,28.444C17.966,28.469 17.531,28.034 17.556,27.506L17.588,26.827C17.6,26.56 17.493,26.301 17.296,26.121L16.793,25.663C16.402,25.307 16.402,24.693 16.793,24.337L17.296,23.879C17.493,23.699 17.6,23.44 17.588,23.173L17.556,22.494C17.531,21.966 17.966,21.531 18.494,21.556L19.173,21.588C19.44,21.6 19.699,21.493 19.879,21.296L20.337,20.793Z" fill="#18181B"/>
<path d="M19.655,24.095C19.362,23.802 18.888,23.802 18.595,24.095C18.302,24.388 18.302,24.862 18.595,25.155L19.655,24.095ZM20.625,26.125L20.095,26.655C20.388,26.948 20.862,26.948 21.155,26.655L20.625,26.125ZM23.405,24.405C23.698,24.112 23.698,23.638 23.405,23.345C23.112,23.052 22.638,23.052 22.345,23.345L23.405,24.405ZM18.595,25.155L20.095,26.655L21.155,25.595L19.655,24.095L18.595,25.155ZM21.155,26.655L23.405,24.405L22.345,23.345L20.095,25.595L21.155,26.655Z" fill="#FFFFFF"/>
<path d="M9.75,15.063C9.75,18.719 8.491,20.125 6.938,20.125C5.384,20.125 4.125,18.719 4.125,15.063C4.125,11.406 4.688,8.875 6.938,8.875C9.188,8.875 9.75,11.406 9.75,15.063Z" fill="#FFFFFF"/>
<path d="M6.656,14.5C6.656,16.053 6.375,17.313 5.25,17.313C4.125,17.313 3.844,16.053 3.844,14.5C3.844,12.947 4.125,11.688 5.25,11.688C6.375,11.688 6.656,12.947 6.656,14.5Z" fill="#000000"/>
<path d="M8.45,18.665C8.879,17.984 9.188,16.84 9.188,15.063C9.188,13.242 9.044,11.786 8.663,10.801C8.475,10.316 8.243,9.981 7.975,9.767C7.716,9.561 7.386,9.438 6.938,9.438C6.489,9.438 6.159,9.561 5.9,9.767C5.632,9.981 5.4,10.316 5.212,10.801C4.831,11.786 4.688,13.242 4.688,15.063C4.688,16.84 4.996,17.984 5.425,18.665C5.834,19.315 6.36,19.563 6.938,19.563C7.515,19.563 8.041,19.315 8.45,18.665ZM6.938,20.125C8.491,20.125 9.75,18.719 9.75,15.063C9.75,11.406 9.188,8.875 6.938,8.875C4.688,8.875 4.125,11.406 4.125,15.063C4.125,18.719 5.384,20.125 6.938,20.125Z" clip-rule="evenodd" fill-rule="evenodd" fill="#000000"/>
<path d="M15.375,15.063C15.375,18.719 14.116,20.125 12.563,20.125C11.009,20.125 9.75,18.719 9.75,15.063C9.75,11.406 10.313,8.875 12.563,8.875C14.813,8.875 15.375,11.406 15.375,15.063Z" fill="#FFFFFF"/>
<path d="M12.281,14.5C12.281,16.053 12,17.313 10.875,17.313C9.75,17.313 9.469,16.053 9.469,14.5C9.469,12.947 9.75,11.688 10.875,11.688C12,11.688 12.281,12.947 12.281,14.5Z" fill="#000000"/>
<path d="M14.075,18.665C14.504,17.984 14.813,16.84 14.813,15.063C14.813,13.242 14.669,11.786 14.288,10.801C14.1,10.316 13.868,9.981 13.6,9.767C13.341,9.561 13.011,9.438 12.563,9.438C12.114,9.438 11.784,9.561 11.525,9.767C11.257,9.981 11.025,10.316 10.837,10.801C10.456,11.786 10.313,13.242 10.313,15.063C10.313,16.84 10.621,17.984 11.05,18.665C11.459,19.315 11.985,19.563 12.563,19.563C13.14,19.563 13.666,19.315 14.075,18.665ZM12.563,20.125C14.116,20.125 15.375,18.719 15.375,15.063C15.375,11.406 14.813,8.875 12.563,8.875C10.313,8.875 9.75,11.406 9.75,15.063C9.75,18.719 11.009,20.125 12.563,20.125Z" clip-rule="evenodd" fill-rule="evenodd" fill="#000000"/>
</svg>
