<svg width="20" height="20" viewBox="0 0 20 20" fill="none" xmlns="http://www.w3.org/2000/svg">
<path d="M13.7883 8.21553C13.3717 3.90765 10.1759 1.75371 8.49161 1.19228L7.97938 1.02154L7.84842 1.54536C7.78029 1.8179 7.74304 2.13812 7.7073 2.44543L7.7048 2.46689C7.5895 3.45768 7.45004 4.53393 6.60839 5.35191C4.36212 6.56081 2.8335 8.93481 2.8335 11.6666C2.8335 15.6247 6.04212 18.8333 10.0002 18.8333C13.9582 18.8333 17.1668 15.6247 17.1668 11.6666C17.1668 9.81531 16.4642 8.12694 15.3119 6.85547L14.6665 6.14337L14.4538 7.08056C14.3496 7.53978 14.0789 7.92629 13.7883 8.21553Z" fill="#FF0001" stroke="white"/>
<path d="M7.13609 6.20388L7.19548 6.17268L7.24454 6.12692C8.41292 5.03724 8.58034 3.59613 8.69349 2.62214C8.69504 2.60884 8.69657 2.59562 8.6981 2.58249C8.707 2.50605 8.71547 2.43362 8.72386 2.36496C10.3471 3.13921 12.8335 5.25447 12.8335 9.16663V9.97565L13.5571 9.61384C13.9656 9.40957 14.644 8.92016 15.0818 8.17192C15.7663 9.16528 16.1668 10.3688 16.1668 11.6666C16.1668 15.0724 13.4059 17.8333 10.0002 17.8333C6.59441 17.8333 3.8335 15.0724 3.8335 11.6666C3.8335 9.29554 5.17155 7.23617 7.13609 6.20388Z" fill="#FF0001" stroke="black"/>
<path d="M8.06476 9.95678C6.73822 10.6259 5.8335 11.9615 5.8335 13.5C5.8335 15.7091 7.69898 17.5 10.0002 17.5C12.3013 17.5 14.1668 15.7091 14.1668 13.5C14.1668 12.4665 13.7586 11.5246 13.0884 10.8148C12.9407 11.4398 12.383 11.8563 12.0835 12C12.0835 9.2 10.0002 7.83333 8.9585 7.5C8.92086 7.64453 8.89954 7.82038 8.87597 8.01484C8.80386 8.60966 8.71066 9.37848 8.06476 9.95678Z" fill="#FFC000"/>
<path d="M10.1416 12.1548C10.1416 10.2298 11.1041 9.74854 11.5854 9.74854C12.5479 9.74854 12.7885 10.711 12.7885 12.1548C12.7885 13.5985 12.5479 15.2829 11.5854 15.2829C10.6229 15.2829 10.1416 14.561 10.1416 12.1548Z" fill="white" stroke="black" stroke-width="0.75" stroke-linecap="round" stroke-linejoin="round"/>
<path d="M11.5854 12.8238C11.5854 13.8281 11.0604 14.0792 10.7979 14.0792C10.2729 14.0792 10.1417 13.577 10.1417 12.8238C10.1417 12.0705 10.2729 11.1917 10.7979 11.1917C11.3229 11.1917 11.5854 11.5684 11.5854 12.8238Z" fill="black"/>
<path d="M7.25391 12.1548C7.25391 10.2298 8.21641 9.74854 8.69766 9.74854C9.66016 9.74854 9.90078 10.711 9.90078 12.1548C9.90078 13.5985 9.66016 15.2829 8.69766 15.2829C7.73516 15.2829 7.25391 14.561 7.25391 12.1548Z" fill="white" stroke="black" stroke-width="0.75" stroke-linecap="round" stroke-linejoin="round"/>
<path d="M8.69775 12.8238C8.69775 13.8281 8.17275 14.0792 7.91025 14.0792C7.38525 14.0792 7.254 13.577 7.254 12.8238C7.254 12.0705 7.38525 11.1917 7.91025 11.1917C8.43525 11.1917 8.69775 11.5684 8.69775 12.8238Z" fill="black"/>
</svg>
