<svg width="32" height="32" viewBox="0 0 32 32" fill="none" xmlns="http://www.w3.org/2000/svg">
<path d="M9.29292 15.2929L19.2929 5.29292C19.3858 5.20001 19.4961 5.12631 19.6175 5.07603C19.7389 5.02574 19.869 4.99986 20.0004 4.99986C20.1318 4.99986 20.2619 5.02574 20.3833 5.07603C20.5047 5.12631 20.615 5.20001 20.7079 5.29292C20.8008 5.38583 20.8745 5.49613 20.9248 5.61752C20.9751 5.73892 21.001 5.86902 21.001 6.00042C21.001 6.13181 20.9751 6.26192 20.9248 6.38332C20.8745 6.50471 20.8008 6.61501 20.7079 6.70792L11.4142 16.0004L20.7079 25.2929C20.8956 25.4806 21.001 25.7351 21.001 26.0004C21.001 26.2658 20.8956 26.5203 20.7079 26.7079C20.5203 26.8956 20.2658 27.001 20.0004 27.001C19.7351 27.001 19.4806 26.8956 19.2929 26.7079L9.29292 16.7079C9.19994 16.615 9.12619 16.5048 9.07586 16.3834C9.02554 16.262 8.99964 16.1318 8.99964 16.0004C8.99964 15.869 9.02554 15.7389 9.07586 15.6175C9.12619 15.4961 9.19994 15.3858 9.29292 15.2929Z" fill="black"/>
</svg>
