<svg width="32" height="32" viewBox="0 0 32 32" fill="none" xmlns="http://www.w3.org/2000/svg">
<path fill-rule="evenodd" clip-rule="evenodd" d="M18.123 2.53801C16.9839 1.2873 15.016 1.2873 13.8769 2.53801L12.4122 4.14637C11.8365 4.77848 11.0092 5.12119 10.1551 5.08128L7.98213 4.97973C6.29231 4.90075 4.90075 6.29231 4.97973 7.98212L5.08128 10.1551C5.12119 11.0092 4.77848 11.8365 4.14637 12.4122L2.53801 13.8769C1.2873 15.016 1.2873 16.9839 2.53801 18.123L4.14637 19.5877C4.77848 20.1633 5.12119 20.9907 5.08128 21.8448L4.97973 24.0178C4.90075 25.7076 6.29231 27.0992 7.98212 27.0202L10.1551 26.9186C11.0092 26.8787 11.8365 27.2214 12.4122 27.8535L13.8769 29.4619C15.016 30.7127 16.9839 30.7127 18.123 29.4619L19.5877 27.8535C20.1633 27.2214 20.9907 26.8787 21.8448 26.9186L24.0178 27.0202C25.7076 27.0992 27.0992 25.7076 27.0202 24.0178L26.9186 21.8448C26.8787 20.9907 27.2214 20.1633 27.8535 19.5877L29.4619 18.123C30.7127 16.9839 30.7127 15.016 29.4619 13.8769L27.8535 12.4122C27.2214 11.8365 26.8787 11.0092 26.9186 10.1551L27.0202 7.98213C27.0992 6.29231 25.7076 4.90075 24.0178 4.97973L21.8448 5.08128C20.9907 5.12119 20.1633 4.77848 19.5877 4.14637L18.123 2.53801ZM6.90231 19.2L9.157 12.4125H11.5804L13.8351 19.2H11.9086L11.5024 17.864H9.23634L8.82888 19.2H6.90231ZM10.3992 14.2359L11.0933 16.5187H9.64667L10.3429 14.2359H10.3992ZM16.1953 12.4125H14.414V19.2H18.9656V17.7609H16.1953V12.4125ZM21.4242 12.4125H19.6429V19.2H24.1945V17.7609H21.4242V12.4125Z" fill="white"/>
</svg>
