<svg width="33" height="32" viewBox="0 0 33 32" fill="none" xmlns="http://www.w3.org/2000/svg">
<path fill-rule="evenodd" clip-rule="evenodd" d="M10.65 8C10.65 7.55817 11.0082 7.2 11.45 7.2C11.8918 7.2 12.25 7.55817 12.25 8H20.25C20.25 7.55817 20.6082 7.2 21.05 7.2C21.4918 7.2 21.85 7.55817 21.85 8H23.45C23.8918 8 24.25 8.35817 24.25 8.8V23.2C24.25 23.6418 23.8918 24 23.45 24H9.05C8.60817 24 8.25 23.6418 8.25 23.2V8.8C8.25 8.35817 8.60817 8 9.05 8H10.65ZM9.85 12.8H22.65V22.4H9.85V12.8Z" fill="white" fill-opacity="0.5"/>
</svg>
