<svg width="40" height="40" viewBox="0 0 40 40" fill="none" xmlns="http://www.w3.org/2000/svg">
<path fill-rule="evenodd" clip-rule="evenodd" d="M22.6538 3.17254C21.2299 1.60915 18.7701 1.60915 17.3462 3.17254L15.5153 5.18299C14.7957 5.97313 13.7615 6.40152 12.6939 6.35163L9.97769 6.22469C7.86542 6.12597 6.12597 7.86542 6.22469 9.97767L6.35163 12.6939C6.40152 13.7615 5.97313 14.7957 5.18299 15.5153L3.17254 17.3462C1.60915 18.7701 1.60915 21.2299 3.17254 22.6538L5.18299 24.4847C5.97313 25.2042 6.40152 26.2384 6.35163 27.3061L6.22469 30.0223C6.12597 32.1345 7.86542 33.874 9.97767 33.7753L12.6939 33.6483C13.7615 33.5984 14.7957 34.0268 15.5153 34.817L17.3462 36.8274C18.7701 38.3909 21.2299 38.3909 22.6538 36.8274L24.4847 34.817C25.2042 34.0268 26.2384 33.5984 27.3061 33.6483L30.0223 33.7753C32.1345 33.874 33.874 32.1345 33.7753 30.0223L33.6483 27.3061C33.5984 26.2384 34.0268 25.2042 34.817 24.4847L36.8274 22.6538C38.3909 21.2299 38.3909 18.7701 36.8274 17.3462L34.817 15.5153C34.0268 14.7957 33.5984 13.7615 33.6483 12.6939L33.7753 9.97769C33.874 7.86542 32.1345 6.12597 30.0223 6.22469L27.3061 6.35163C26.2384 6.40152 25.2042 5.97313 24.4847 5.18299L22.6538 3.17254ZM8.62793 24L11.4463 15.5156H14.4756L17.2939 24H14.8857L14.378 22.3301H11.5455L11.0361 24H8.62793ZM12.999 17.7949L13.8667 20.6484H12.0584L12.9287 17.7949H12.999ZM20.2441 15.5156H18.0176V24H23.707V22.2012H20.2441V15.5156ZM26.7803 15.5156H24.5537V24H30.2432V22.2012H26.7803V15.5156Z" fill="white"/>
</svg>
