<svg width="40" height="40" viewBox="0 0 40 40" fill="none" xmlns="http://www.w3.org/2000/svg">
<g clip-path="url(#clip0_361_45437)">
<path d="M19.9999 35L27.9999 38H11.9999L19.9999 35Z" fill="white"/>
<path d="M9 13.0001C9 13.0001 12.9378 11.8229 15.5 12.0001C18.8287 12.2303 20.1653 14.8875 23.5 15.0001C26.5296 15.1024 31 13.0001 31 13.0001L20 24.0001L9 13.0001Z" fill="white"/>
<path fill-rule="evenodd" clip-rule="evenodd" d="M6.30813 8C5.4327 8 4.97985 9.04528 5.5786 9.68394L18.9999 24H20.9999L34.4212 9.68394C35.02 9.04528 34.5671 8 33.6917 8H6.30813ZM8.87534 9.5C8.16405 9.5 7.79611 10.3493 8.28259 10.8682L19.1874 22.5H20.8124L31.7172 10.8682C32.2037 10.3493 31.8358 9.5 31.1245 9.5H8.87534Z" fill="white"/>
<rect x="18.9999" y="24" width="2" height="12" fill="white"/>
<line x1="9.42583" y1="4.73795" x2="17.4258" y2="17.738" stroke="white"/>
<mask id="mask0_361_45437" style="mask-type:alpha" maskUnits="userSpaceOnUse" x="23" y="1" width="18" height="17">
<path fill-rule="evenodd" clip-rule="evenodd" d="M40.0001 1H23.0001V7H33.6918C35.4427 7 36.3484 9.09055 35.1509 10.3679L27.9958 18H40.0001V1ZM34.4213 9.68394C34.8395 9.23784 34.7447 8.59336 34.3512 8.24527C34.7447 8.59335 34.8396 9.23784 34.4214 9.68394H34.4213Z" fill="#D9D9D9"/>
</mask>
<g mask="url(#mask0_361_45437)">
<path d="M29.968 2.45599C30.5217 1.848 31.4783 1.848 32.032 2.45599L32.744 3.23783C33.0238 3.54511 33.4261 3.7117 33.8413 3.6923L34.8976 3.64294C35.719 3.60454 36.3955 4.281 36.3571 5.10244L36.3077 6.15876C36.2883 6.57391 36.4549 6.97611 36.7622 7.25594L37.544 7.96796C38.152 8.5217 38.152 9.47828 37.544 10.032L36.7622 10.744C36.4549 11.0238 36.2883 11.4261 36.3077 11.8413L36.3571 12.8976C36.3955 13.719 35.719 14.3955 34.8976 14.3571L33.8413 14.3077C33.4261 14.2883 33.0238 14.4549 32.744 14.7622L32.032 15.544C31.4783 16.152 30.5217 16.152 29.968 15.544L29.2559 14.7622C28.9761 14.4549 28.5739 14.2883 28.1588 14.3077L27.1024 14.3571C26.281 14.3955 25.6045 13.719 25.6429 12.8976L25.6923 11.8413C25.7117 11.4261 25.5451 11.0238 25.2378 10.744L24.456 10.032C23.848 9.47828 23.848 8.5217 24.456 7.96796L25.2378 7.25594C25.5451 6.97611 25.7117 6.57391 25.6923 6.15876L25.6429 5.10243C25.6045 4.281 26.281 3.60454 27.1024 3.64294L28.1588 3.6923C28.5739 3.7117 28.9761 3.54511 29.2559 3.23783L29.968 2.45599Z" stroke="white"/>
</g>
</g>
<defs>
<clipPath id="clip0_361_45437">
<rect width="40" height="40" fill="white"/>
</clipPath>
</defs>
</svg>
