<svg width="40" height="40" viewBox="0 0 40 40" fill="none" xmlns="http://www.w3.org/2000/svg">
<path fill-rule="evenodd" clip-rule="evenodd" d="M27.2111 2.97712C26.0245 1.67429 23.9747 1.67429 22.7881 2.97712L21.2624 4.65249C20.6627 5.31094 19.8009 5.66793 18.9113 5.62636L16.6477 5.52058C14.8875 5.4383 13.4379 6.88785 13.5202 8.64806L13.626 10.9116C13.6618 11.6784 13.4016 12.4246 12.9073 13H31.095C31.6088 13 32.039 13.3893 32.0901 13.9005L33.5483 28.4823C35.2183 28.4525 36.5583 27.046 36.4791 25.3519L36.3732 23.0884C36.3316 22.1987 36.6886 21.3368 37.3471 20.7372L39.0224 19.2115C40.3254 18.0249 40.3254 15.9751 39.0224 14.7885L37.3471 13.2627C36.6886 12.6631 36.3316 11.8012 36.3732 10.9116L36.4791 8.64808C36.5613 6.88785 35.1117 5.4383 33.3516 5.52058L31.088 5.62636C30.1983 5.66793 29.3364 5.31094 28.7369 4.65249L27.2111 2.97712Z" fill="white" fill-opacity="0.7"/>
<path fill-rule="evenodd" clip-rule="evenodd" d="M1.10508 15C0.513456 15 0.0511721 15.5108 0.110041 16.0995L2.00009 35H32.0001L30.0901 15.9005C30.039 15.3893 29.6089 15 29.0951 15H1.10508ZM16.2372 21.3257C15.8416 20.8914 15.1584 20.8914 14.7628 21.3257L14.2542 21.8842C14.0544 22.1036 13.7671 22.2226 13.4705 22.2088L12.716 22.1735C12.1293 22.1461 11.6461 22.6293 11.6735 23.216L11.7088 23.9705C11.7226 24.2671 11.6036 24.5544 11.3842 24.7542L10.8257 25.2628C10.3914 25.6584 10.3914 26.3416 10.8257 26.7372L11.3842 27.2457C11.6036 27.4456 11.7226 27.7329 11.7088 28.0295L11.6735 28.784C11.6461 29.3707 12.1293 29.8539 12.716 29.8265L13.4705 29.7912C13.7671 29.7773 14.0544 29.8963 14.2542 30.1158L14.7628 30.6743C15.1584 31.1086 15.8416 31.1086 16.2372 30.6743L16.7457 30.1158C16.9456 29.8963 17.2329 29.7773 17.5295 29.7912L18.284 29.8265C18.8707 29.8539 19.3539 29.3707 19.3265 28.784L19.2912 28.0295C19.2773 27.7329 19.3963 27.4456 19.6158 27.2457L20.1743 26.7372C20.6086 26.3416 20.6086 25.6584 20.1743 25.2628L19.6158 24.7542C19.3963 24.5544 19.2773 24.2671 19.2912 23.9705L19.3265 23.216C19.3539 22.6293 18.8707 22.1461 18.284 22.1735L17.5295 22.2088C17.2329 22.2226 16.9456 22.1036 16.7457 21.8842L16.2372 21.3257Z" fill="white"/>
<path d="M2 35H37.3964C37.6192 35 37.7307 35.2693 37.5732 35.4268L36.2929 36.7071C36.1054 36.8946 35.851 37 35.5858 37H3.61803C3.23926 37 2.893 36.786 2.72361 36.4472L2 35Z" fill="white"/>
</svg>
