<svg width="40" height="40" viewBox="0 0 40 40" fill="none" xmlns="http://www.w3.org/2000/svg">
<path d="M8.81449 26.0739C9.2612 25.5834 10.0329 25.5834 10.4796 26.0739L11.054 26.7046C11.2797 26.9525 11.6042 27.0869 11.9392 27.0713L12.7913 27.0314C13.454 27.0005 13.9997 27.5462 13.9687 28.2089L13.9289 29.061C13.9132 29.3959 14.0476 29.7204 14.2955 29.9461L14.9262 30.5205C15.4167 30.9673 15.4167 31.739 14.9262 32.1857L14.2955 32.7601C14.0476 32.9858 13.9132 33.3103 13.9289 33.6452L13.9687 34.4974C13.9997 35.16 13.454 35.7058 12.7913 35.6748L11.9392 35.6349C11.6042 35.6193 11.2797 35.7537 11.054 36.0016L10.4796 36.6323C10.0329 37.1228 9.2612 37.1228 8.81449 36.6323L8.24009 36.0016C8.01434 35.7537 7.68987 35.6193 7.35496 35.6349L6.5028 35.6748C5.84013 35.7058 5.29442 35.16 5.32539 34.4974L5.36522 33.6452C5.38087 33.3103 5.24647 32.9858 4.99859 32.7601L4.36786 32.1857C3.87738 31.739 3.87738 30.9673 4.36786 30.5205L4.99859 29.9461C5.24647 29.7204 5.38087 29.3959 5.36522 29.061L5.32539 28.2089C5.29442 27.5462 5.84013 27.0005 6.50281 27.0314L7.35496 27.0713C7.68987 27.0869 8.01434 26.9525 8.24009 26.7046L8.81449 26.0739Z" fill="white"/>
<path d="M27.2196 20.4269C27.6664 19.9365 28.438 19.9365 28.8848 20.4269L29.4592 21.0577C29.6849 21.3056 30.0094 21.44 30.3443 21.4243L31.1965 21.3845C31.8591 21.3535 32.4049 21.8992 32.3739 22.5619L32.334 23.414C32.3184 23.749 32.4528 24.0734 32.7007 24.2992L33.3314 24.8736C33.8219 25.3203 33.8219 26.092 33.3314 26.5387L32.7007 27.1131C32.4528 27.3388 32.3184 27.6633 32.334 27.9982L32.3739 28.8504C32.4049 29.513 31.8591 30.0588 31.1965 30.0278L30.3443 29.988C30.0094 29.9723 29.6849 30.1067 29.4592 30.3546L28.8848 30.9853C28.438 31.4758 27.6664 31.4758 27.2196 30.9853L26.6452 30.3546C26.4195 30.1067 26.095 29.9723 25.7601 29.988L24.908 30.0278C24.2453 30.0588 23.6996 29.513 23.7305 28.8504L23.7704 27.9982C23.786 27.6633 23.6516 27.3388 23.4037 27.1131L22.773 26.5387C22.2825 26.092 22.2825 25.3203 22.773 24.8736L23.4037 24.2992C23.6516 24.0734 23.786 23.749 23.7704 23.414L23.7305 22.5619C23.6996 21.8992 24.2453 21.3535 24.908 21.3845L25.7601 21.4243C26.095 21.44 26.4195 21.3056 26.6452 21.0577L27.2196 20.4269Z" fill="white"/>
<path d="M31.8171 25.7059V5L13.4119 10.6471L13.4119 31.3529" stroke="white" stroke-width="2" stroke-linejoin="round"/>
<path d="M31.8171 11.6929L13.4119 17.3399" stroke="white" stroke-width="2" stroke-linejoin="round"/>
</svg>
