<svg width="52" height="48" viewBox="0 0 52 48" fill="none" xmlns="http://www.w3.org/2000/svg" xmlns:xlink="http://www.w3.org/1999/xlink">
<path d="M52,19.385C52,33.043 43.531,37.728 32.356,38.608L20.62,47.996L20.62,48L16.62,48L16.62,38L19.721,38C10.545,36.122 4,30.611 4,19.385C4,5 14.745,0 28,0C41.255,0 52,4 52,19.385Z" clip-rule="evenodd" fill-rule="evenodd" fill="#FFFFFF" fill-opacity="0.5"/>
<path d="M28.356,38.608C39.531,37.728 48,33.043 48,19.385C48,4 37.255,0 24,0C10.745,0 0,5 0,19.385C0,30.973 6.974,36.471 16.615,38.17L16.615,48L28.356,38.608Z" clip-rule="evenodd" fill-rule="evenodd" fill="#FFFFFF"/>
<path d="M16,20C16,21.105 15.105,22 14,22C12.895,22 12,21.105 12,20C12,18.895 12.895,18 14,18C15.105,18 16,18.895 16,20Z" fill="#18181B"/>
<path d="M26,20C26,21.105 25.105,22 24,22C22.895,22 22,21.105 22,20C22,18.895 22.895,18 24,18C25.105,18 26,18.895 26,20Z" fill="#18181B"/>
<path d="M36,20C36,21.105 35.105,22 34,22C32.895,22 32,21.105 32,20C32,18.895 32.895,18 34,18C35.105,18 36,18.895 36,20Z" fill="#18181B"/>
</svg>
