<svg width="64" height="36" viewBox="0 0 64 36" fill="none" xmlns="http://www.w3.org/2000/svg">
<g clip-path="url(#clip0_1261_20564)">
<path fill-rule="evenodd" clip-rule="evenodd" d="M32.9497 14.2489C32.5622 13.5961 31.6173 13.5961 31.2298 14.2489L24.6336 25.3625C24.4075 25.7434 23.9578 25.9302 23.5283 25.8215L11.0802 22.6721C10.3478 22.4868 9.68236 23.1492 9.86434 23.8824L12.9912 36.4799C13.0967 36.9051 12.9132 37.3496 12.5383 37.5764L12.1687 37.8H52.0108L51.6412 37.5764C51.2663 37.3496 51.0827 36.9051 51.1883 36.4799L54.3151 23.8824C54.4971 23.1492 53.8316 22.4868 53.0993 22.6721L40.6511 25.8215C40.2217 25.9302 39.772 25.7434 39.5459 25.3625L32.9497 14.2489Z" fill="#FFC000"/>
<path d="M31.1518 7.35819C31.5434 6.73112 32.4566 6.73111 32.8482 7.35819L33.8182 8.91141C33.9944 9.19354 34.2993 9.3696 34.6317 9.38112L36.4619 9.44454C37.2007 9.47015 37.6573 10.261 37.31 10.9136L36.4499 12.5303C36.2937 12.8239 36.2937 13.1761 36.4499 13.4697L37.31 15.0864C37.6573 15.739 37.2007 16.5299 36.4619 16.5555L34.6317 16.6189C34.2993 16.6304 33.9944 16.8065 33.8182 17.0886L32.8482 18.6418C32.4566 19.2689 31.5434 19.2689 31.1518 18.6418L30.1818 17.0886C30.0056 16.8065 29.7007 16.6304 29.3683 16.6189L27.5381 16.5555C26.7993 16.5299 26.3427 15.739 26.69 15.0864L27.5501 13.4697C27.7063 13.1761 27.7063 12.8239 27.5501 12.5303L26.69 10.9136C26.3427 10.261 26.7993 9.47015 27.5381 9.44454L29.3683 9.38112C29.7007 9.3696 30.0056 9.19354 30.1818 8.91141L31.1518 7.35819Z" fill="#FFC000"/>
<path d="M31.4771 8.92899C31.7065 8.52138 32.2935 8.52138 32.5229 8.929L33.2508 10.2223C33.3582 10.4132 33.5612 10.5303 33.7802 10.5279L35.2642 10.5117C35.7319 10.5066 36.0253 11.0148 35.787 11.4173L35.031 12.6943C34.9194 12.8828 34.9194 13.1172 35.031 13.3057L35.787 14.5827C36.0253 14.9852 35.7319 15.4934 35.2642 15.4883L33.7802 15.4721C33.5612 15.4697 33.3582 15.5868 33.2508 15.7777L32.5229 17.071C32.2935 17.4786 31.7065 17.4786 31.4771 17.071L30.7492 15.7777C30.6418 15.5868 30.4388 15.4697 30.2198 15.4721L28.7358 15.4883C28.2681 15.4934 27.9747 14.9852 28.213 14.5827L28.969 13.3057C29.0806 13.1172 29.0806 12.8828 28.969 12.6943L28.213 11.4173C27.9747 11.0148 28.2681 10.5066 28.7358 10.5117L30.2198 10.5279C30.4388 10.5303 30.6418 10.4132 30.7492 10.2223L31.4771 8.92899Z" fill="#00A3FF"/>
<g clip-path="url(#clip1_1261_20564)">
<mask id="mask0_1261_20564" style="mask-type:alpha" maskUnits="userSpaceOnUse" x="25" y="27" width="7" height="14">
<path d="M31.9997 34.6666C31.9997 38.9999 30.5073 40.6666 28.6663 40.6666C26.8254 40.6666 25.333 38.9999 25.333 34.6666C25.333 30.3333 25.9997 27.3333 28.6663 27.3333C31.333 27.3333 31.9997 30.3333 31.9997 34.6666Z" fill="white"/>
</mask>
<g mask="url(#mask0_1261_20564)">
<path d="M31.9997 34.6666C31.9997 38.9999 30.5073 40.6666 28.6663 40.6666C26.8254 40.6666 25.333 38.9999 25.333 34.6666C25.333 30.3333 25.9997 27.3333 28.6663 27.3333C31.333 27.3333 31.9997 30.3333 31.9997 34.6666Z" fill="white"/>
<path d="M28.9993 31.3333C28.9993 33.1743 28.666 34.6667 27.3327 34.6667C25.9993 34.6667 25.666 33.1743 25.666 31.3333C25.666 29.4924 25.9993 28 27.3327 28C28.666 28 28.9993 29.4924 28.9993 31.3333Z" fill="black"/>
<path fill-rule="evenodd" clip-rule="evenodd" d="M30.4592 38.9365C30.9674 38.129 31.333 36.7734 31.333 34.6666C31.333 32.5093 31.1634 30.7835 30.7113 29.6156C30.4889 29.0411 30.2139 28.6441 29.8965 28.3909C29.5893 28.1459 29.1984 27.9999 28.6663 27.9999C28.1343 27.9999 27.7434 28.1459 27.4362 28.3909C27.1188 28.6441 26.8438 29.0411 26.6214 29.6156C26.1693 30.7835 25.9997 32.5093 25.9997 34.6666C25.9997 36.7734 26.3653 38.129 26.8735 38.9365C27.3586 39.7071 27.9822 39.9999 28.6663 39.9999C29.3505 39.9999 29.9741 39.7071 30.4592 38.9365ZM28.6663 40.6666C30.5073 40.6666 31.9997 38.9999 31.9997 34.6666C31.9997 30.3333 31.333 27.3333 28.6663 27.3333C25.9997 27.3333 25.333 30.3333 25.333 34.6666C25.333 38.9999 26.8254 40.6666 28.6663 40.6666Z" fill="black"/>
</g>
</g>
<g clip-path="url(#clip2_1261_20564)">
<mask id="mask1_1261_20564" style="mask-type:alpha" maskUnits="userSpaceOnUse" x="32" y="27" width="7" height="14">
<path d="M38.6667 34.6666C38.6667 38.9999 37.1743 40.6666 35.3333 40.6666C33.4924 40.6666 32 38.9999 32 34.6666C32 30.3333 32.6667 27.3333 35.3333 27.3333C38 27.3333 38.6667 30.3333 38.6667 34.6666Z" fill="white"/>
</mask>
<g mask="url(#mask1_1261_20564)">
<path d="M38.6667 34.6666C38.6667 38.9999 37.1743 40.6666 35.3333 40.6666C33.4924 40.6666 32 38.9999 32 34.6666C32 30.3333 32.6667 27.3333 35.3333 27.3333C38 27.3333 38.6667 30.3333 38.6667 34.6666Z" fill="white"/>
<path d="M35.6663 31.3333C35.6663 33.1743 35.333 34.6667 33.9997 34.6667C32.6663 34.6667 32.333 33.1743 32.333 31.3333C32.333 29.4924 32.6663 28 33.9997 28C35.333 28 35.6663 29.4924 35.6663 31.3333Z" fill="black"/>
<path fill-rule="evenodd" clip-rule="evenodd" d="M37.1262 38.9365C37.6344 38.129 38 36.7734 38 34.6666C38 32.5093 37.8304 30.7835 37.3783 29.6156C37.1559 29.0411 36.8809 28.6441 36.5635 28.3909C36.2563 28.1459 35.8654 27.9999 35.3333 27.9999C34.8013 27.9999 34.4104 28.1459 34.1032 28.3909C33.7858 28.6441 33.5107 29.0411 33.2884 29.6156C32.8363 30.7835 32.6667 32.5093 32.6667 34.6666C32.6667 36.7734 33.0323 38.129 33.5405 38.9365C34.0256 39.7071 34.6492 39.9999 35.3333 39.9999C36.0174 39.9999 36.6411 39.7071 37.1262 38.9365ZM35.3333 40.6666C37.1743 40.6666 38.6667 38.9999 38.6667 34.6666C38.6667 30.3333 38 27.3333 35.3333 27.3333C32.6667 27.3333 32 30.3333 32 34.6666C32 38.9999 33.4924 40.6666 35.3333 40.6666Z" fill="black"/>
</g>
</g>
</g>
<defs>
<clipPath id="clip0_1261_20564">
<rect width="64" height="36" fill="white"/>
</clipPath>
<clipPath id="clip1_1261_20564">
<rect width="6.66667" height="13.3333" fill="white" transform="translate(25.333 27.3333)"/>
</clipPath>
<clipPath id="clip2_1261_20564">
<rect width="6.66667" height="13.3333" fill="white" transform="translate(32 27.3333)"/>
</clipPath>
</defs>
</svg>
